<svg width="182" height="181" viewBox="0 0 182 181" fill="none" xmlns="http://www.w3.org/2000/svg">
<g filter="url(#filter0_d)">
<path d="M90.501 145.002C120.601 145.002 145.002 120.601 145.002 90.501C145.002 60.4009 120.601 36 90.501 36C60.4009 36 36 60.4009 36 90.501C36 120.601 60.4009 145.002 90.501 145.002Z" fill="#105DFB"/>
</g>
<path d="M106.956 107.27C106.577 107.27 106.356 107.254 106.313 107.251C102.563 107.251 99.647 106.157 97.649 104C96.2184 102.359 95.2783 100.35 94.936 98.2C94.7397 97.1601 94.6632 96.1012 94.708 95.044C94.8012 92.8305 95.3121 90.6546 96.214 88.631C96.9884 86.8766 98.1971 85.3485 99.726 84.191C101.715 82.7952 104.097 82.0685 106.526 82.116H106.707C108.044 82.0391 109.383 82.2392 110.639 82.7038C111.895 83.1684 113.042 83.8875 114.007 84.816C115.514 86.4957 116.477 88.5929 116.769 90.831C117.025 92.4691 117.111 94.1292 117.026 95.785C117.01 96.011 117.01 96.2379 117.026 96.464C116.949 96.485 102.881 96.485 101.277 96.485C101.277 98.8 102.023 100.459 103.491 101.414C104.345 101.949 105.332 102.235 106.34 102.238C106.42 102.238 106.478 102.238 106.507 102.238H106.529C111.516 102.238 111.779 98.681 111.78 98.645H117.032C117.028 106.648 109.319 107.27 106.956 107.27ZM106.249 87.705C105.241 87.6675 104.242 87.9085 103.362 88.4016C102.482 88.8947 101.755 89.6207 101.261 90.5C100.762 91.3632 100.432 92.3134 100.288 93.3H111.468C111.465 91.7564 110.915 90.264 109.915 89.088C109.432 88.6181 108.857 88.2527 108.226 88.0148C107.595 87.7768 106.922 87.6714 106.249 87.705ZM81.415 107.27H63.949V73.731H81.299C83.6732 73.6164 86.0078 74.3707 87.866 75.853C88.7611 76.6973 89.4593 77.7285 89.9107 78.8732C90.3621 80.0179 90.5558 81.248 90.478 82.476C90.478 85.576 89.165 87.196 88.063 88.01C87.3493 88.5366 86.5228 88.8899 85.649 89.042C86.4233 89.0088 87.1958 89.1396 87.916 89.4259C88.6362 89.7121 89.2878 90.1473 89.828 90.703C92.115 93.119 91.896 97.327 91.893 97.369C91.893 101.401 90.276 104.279 87.086 105.921C85.3181 106.783 83.3816 107.244 81.415 107.27ZM72.334 93.296V101.68H82.369C84.983 101.636 86.308 100.305 86.308 97.725C86.3364 96.6247 85.9452 95.5548 85.2136 94.7325C84.4821 93.9102 83.4651 93.3969 82.369 93.297L72.334 93.296ZM72.334 79.32V87.705H80.469C82.069 87.705 83.514 87.382 83.514 83.485C83.514 79.485 81.172 79.321 81.148 79.319H72.334V79.32ZM114.257 79.32H100.283V76.526H114.257V79.319V79.32Z" fill="white"/>
<defs>
<filter id="filter0_d" x="12" y="20" width="157.002" height="157.002" filterUnits="userSpaceOnUse" color-interpolation-filters="sRGB">
<feFlood flood-opacity="0" result="BackgroundImageFix"/>
<feColorMatrix in="SourceAlpha" type="matrix" values="0 0 0 0 0 0 0 0 0 0 0 0 0 0 0 0 0 0 127 0"/>
<feOffset dy="8"/>
<feGaussianBlur stdDeviation="12"/>
<feColorMatrix type="matrix" values="0 0 0 0 0 0 0 0 0 0 0 0 0 0 0 0 0 0 0.078 0"/>
<feBlend mode="normal" in2="BackgroundImageFix" result="effect1_dropShadow"/>
<feBlend mode="normal" in="SourceGraphic" in2="effect1_dropShadow" result="shape"/>
</filter>
</defs>
</svg>
