<svg width="182" height="181" viewBox="0 0 182 181" fill="none" xmlns="http://www.w3.org/2000/svg">
<g filter="url(#filter0_d)">
<path d="M90.501 137.002C120.601 137.002 145.002 112.601 145.002 82.501C145.002 52.4009 120.601 28 90.501 28C60.4009 28 36 52.4009 36 82.501C36 112.601 60.4009 137.002 90.501 137.002Z" fill="#105DFB"/>
</g>
<path d="M106.956 99.27C106.577 99.27 106.356 99.254 106.313 99.251C102.563 99.251 99.647 98.157 97.649 96C96.2184 94.3595 95.2783 92.3496 94.936 90.2C94.7397 89.1601 94.6632 88.1012 94.708 87.044C94.8012 84.8305 95.3121 82.6546 96.214 80.631C96.9884 78.8766 98.1971 77.3485 99.726 76.191C101.715 74.7952 104.097 74.0685 106.526 74.116H106.707C108.044 74.0391 109.383 74.2392 110.639 74.7038C111.895 75.1684 113.042 75.8875 114.007 76.816C115.514 78.4957 116.477 80.5929 116.769 82.831C117.025 84.4691 117.111 86.1292 117.026 87.785C117.01 88.011 117.01 88.2379 117.026 88.464C116.949 88.485 102.881 88.485 101.277 88.485C101.277 90.8 102.023 92.459 103.491 93.414C104.345 93.9492 105.332 94.2346 106.34 94.238C106.42 94.238 106.478 94.238 106.507 94.238H106.529C111.516 94.238 111.779 90.681 111.78 90.645H117.032C117.028 98.648 109.319 99.27 106.956 99.27ZM106.249 79.705C105.241 79.6675 104.242 79.9085 103.362 80.4016C102.482 80.8947 101.755 81.6207 101.261 82.5C100.762 83.3632 100.432 84.3134 100.288 85.3H111.468C111.465 83.7564 110.915 82.264 109.915 81.088C109.432 80.6181 108.857 80.2527 108.226 80.0148C107.595 79.7768 106.922 79.6714 106.249 79.705V79.705ZM81.415 99.27H63.949V65.731H81.299C83.6732 65.6164 86.0078 66.3707 87.866 67.853C88.7611 68.6973 89.4593 69.7285 89.9107 70.8732C90.3621 72.0179 90.5558 73.248 90.478 74.476C90.478 77.576 89.165 79.196 88.063 80.01C87.3493 80.5366 86.5228 80.8899 85.649 81.042C86.4233 81.0088 87.1958 81.1396 87.916 81.4259C88.6362 81.7121 89.2878 82.1473 89.828 82.703C92.115 85.119 91.896 89.327 91.893 89.369C91.893 93.401 90.276 96.279 87.086 97.921C85.3181 98.7829 83.3816 99.2436 81.415 99.27ZM72.334 85.296V93.68H82.369C84.983 93.636 86.308 92.305 86.308 89.725C86.3364 88.6247 85.9452 87.5549 85.2136 86.7325C84.4821 85.9102 83.4651 85.3969 82.369 85.297L72.334 85.296ZM72.334 71.32V79.705H80.469C82.069 79.705 83.514 79.382 83.514 75.485C83.514 71.485 81.172 71.321 81.148 71.319H72.334V71.32ZM114.257 71.32H100.283V68.526H114.257V71.319V71.32Z" fill="white"/>
<defs>
<filter id="filter0_d" x="12" y="12" width="157.002" height="157.002" filterUnits="userSpaceOnUse" color-interpolation-filters="sRGB">
<feFlood flood-opacity="0" result="BackgroundImageFix"/>
<feColorMatrix in="SourceAlpha" type="matrix" values="0 0 0 0 0 0 0 0 0 0 0 0 0 0 0 0 0 0 127 0"/>
<feOffset dy="8"/>
<feGaussianBlur stdDeviation="12"/>
<feColorMatrix type="matrix" values="0 0 0 0 0 0 0 0 0 0 0 0 0 0 0 0 0 0 0.078 0"/>
<feBlend mode="normal" in2="BackgroundImageFix" result="effect1_dropShadow"/>
<feBlend mode="normal" in="SourceGraphic" in2="effect1_dropShadow" result="shape"/>
</filter>
</defs>
</svg>
