<svg width="122" height="122" viewBox="0 0 122 122" fill="none" xmlns="http://www.w3.org/2000/svg">
<g clip-path="url(#clip0_18_35)">
<g filter="url(#filter0_d_18_35)">
<path d="M60.501 115.002C90.6011 115.002 115.002 90.6011 115.002 60.501C115.002 30.4009 90.6011 6 60.501 6C30.4009 6 6 30.4009 6 60.501C6 90.6011 30.4009 115.002 60.501 115.002Z" fill="#105DFB"/>
</g>
<path d="M76.956 77.27C76.577 77.27 76.356 77.254 76.313 77.251C72.563 77.251 69.647 76.157 67.649 74C66.2184 72.3595 65.2783 70.3496 64.936 68.2C64.7397 67.1601 64.6632 66.1012 64.708 65.044C64.8012 62.8305 65.3121 60.6546 66.214 58.631C66.9884 56.8766 68.1971 55.3485 69.726 54.191C71.715 52.7952 74.0966 52.0685 76.526 52.116H76.707C78.0441 52.0391 79.3827 52.2392 80.6389 52.7038C81.8951 53.1684 83.0417 53.8875 84.007 54.816C85.5145 56.4957 86.4775 58.5929 86.769 60.831C87.0247 62.4691 87.1108 64.1292 87.026 65.785C87.0099 66.011 87.0099 66.2379 87.026 66.464C86.949 66.485 72.881 66.485 71.277 66.485C71.277 68.8 72.023 70.459 73.491 71.414C74.3452 71.9492 75.332 72.2346 76.34 72.238C76.42 72.238 76.478 72.238 76.507 72.238H76.529C81.516 72.238 81.779 68.681 81.78 68.645H87.032C87.028 76.648 79.319 77.27 76.956 77.27ZM76.249 57.705C75.241 57.6675 74.2422 57.9085 73.3623 58.4016C72.4823 58.8947 71.7553 59.6207 71.261 60.5C70.7621 61.3632 70.4319 62.3134 70.288 63.3H81.468C81.4651 61.7564 80.9148 60.264 79.915 59.088C79.4317 58.6181 78.8567 58.2527 78.226 58.0148C77.5953 57.7768 76.9223 57.6714 76.249 57.705V57.705ZM51.415 77.27H33.949V43.731H51.299C53.6732 43.6164 56.0078 44.3707 57.866 45.853C58.7611 46.6973 59.4593 47.7285 59.9107 48.8732C60.3621 50.0179 60.5558 51.248 60.478 52.476C60.478 55.576 59.165 57.196 58.063 58.01C57.3493 58.5366 56.5228 58.8899 55.649 59.042C56.4233 59.0088 57.1958 59.1396 57.916 59.4259C58.6362 59.7121 59.2878 60.1473 59.828 60.703C62.115 63.119 61.896 67.327 61.893 67.369C61.893 71.401 60.276 74.279 57.086 75.921C55.3181 76.7829 53.3816 77.2436 51.415 77.27ZM42.334 63.296V71.68H52.369C54.983 71.636 56.308 70.305 56.308 67.725C56.3364 66.6247 55.9452 65.5549 55.2136 64.7325C54.4821 63.9102 53.4651 63.3969 52.369 63.297L42.334 63.296ZM42.334 49.32V57.705H50.469C52.069 57.705 53.514 57.382 53.514 53.485C53.514 49.485 51.172 49.321 51.148 49.319H42.334V49.32ZM84.257 49.32H70.283V46.526H84.257V49.319V49.32Z" fill="white"/>
</g>
<defs>
<filter id="filter0_d_18_35" x="0" y="3" width="121.002" height="121.002" filterUnits="userSpaceOnUse" color-interpolation-filters="sRGB">
<feFlood flood-opacity="0" result="BackgroundImageFix"/>
<feColorMatrix in="SourceAlpha" type="matrix" values="0 0 0 0 0 0 0 0 0 0 0 0 0 0 0 0 0 0 127 0" result="hardAlpha"/>
<feOffset dy="3"/>
<feGaussianBlur stdDeviation="3"/>
<feColorMatrix type="matrix" values="0 0 0 0 0 0 0 0 0 0 0 0 0 0 0 0 0 0 0.161 0"/>
<feBlend mode="normal" in2="BackgroundImageFix" result="effect1_dropShadow_18_35"/>
<feBlend mode="normal" in="SourceGraphic" in2="effect1_dropShadow_18_35" result="shape"/>
</filter>
<clipPath id="clip0_18_35">
<rect width="122" height="122" fill="white"/>
</clipPath>
</defs>
</svg>
