<svg width="182" height="181" viewBox="0 0 182 181" fill="none" xmlns="http://www.w3.org/2000/svg">
<g filter="url(#filter0_d)">
<path d="M90.501 137.002C120.601 137.002 145.002 112.601 145.002 82.501C145.002 52.4009 120.601 28 90.501 28C60.4009 28 36 52.4009 36 82.501C36 112.601 60.4009 137.002 90.501 137.002Z" fill="#DB417C"/>
</g>
<path d="M90.502 109.049C85.2501 109.05 80.1159 107.493 75.7487 104.576C71.3815 101.659 67.9775 97.5124 65.9672 92.6605C63.9569 87.8086 63.4306 82.4695 64.4549 77.3185C65.4792 72.1675 68.008 67.4359 71.7216 63.7222C75.4351 60.0085 80.1666 57.4795 85.3176 56.455C90.4686 55.4306 95.8077 55.9567 100.66 57.9668C105.512 59.9769 109.658 63.3808 112.576 67.7478C115.493 72.1149 117.05 77.2491 117.049 82.501C117.04 89.539 114.24 96.2862 109.264 101.263C104.287 106.24 97.54 109.04 90.502 109.049V109.049ZM94.523 86.21L94.49 86.221L94.448 86.235L94.41 86.248H94.399H94.389H94.379C81.649 90.696 77.062 99.444 76.58 100.427C79.7656 102.911 83.5577 104.498 87.5632 105.023C91.5687 105.548 95.6418 104.992 99.36 103.413C98.2959 97.5394 96.6763 91.7802 94.523 86.213V86.21ZM103.487 84.798C101.907 84.7958 100.329 84.9179 98.768 85.163C100.694 90.4175 102.168 95.8268 103.174 101.332C105.744 99.5935 107.931 97.3487 109.603 94.735C111.274 92.1213 112.395 89.1938 112.895 86.132C109.838 85.2407 106.67 84.7924 103.486 84.801L103.487 84.798ZM67.834 81.841C67.825 82.085 67.821 82.306 67.821 82.535C67.8196 88.1368 69.8962 93.54 73.649 97.699C75.0804 95.387 76.7659 93.2423 78.674 91.305C82.375 87.3933 86.9798 84.4502 92.084 82.734C92.301 82.664 92.632 82.561 92.978 82.465C92.43 81.225 91.811 79.929 91.139 78.615C83.7943 80.7127 76.1982 81.8007 68.56 81.849C68.149 81.849 67.909 81.844 67.834 81.841ZM102.612 81.281C106.159 81.2854 109.697 81.634 113.177 82.322C113.123 77.1681 111.317 72.186 108.057 68.194C107.647 68.748 103.793 73.707 95.392 77.136C95.931 78.236 96.438 79.342 96.897 80.42C97.047 80.772 97.207 81.155 97.386 81.591C99.1199 81.3793 100.865 81.2758 102.612 81.281V81.281ZM80.86 62.011C77.6866 63.514 74.9026 65.7287 72.7246 68.4829C70.5465 71.2371 69.0331 74.4566 68.302 77.891C68.372 77.891 68.491 77.891 68.677 77.891C75.6277 77.815 82.5428 76.8857 89.267 75.124C86.703 70.6047 83.8965 66.2273 80.86 62.011V62.011ZM90.502 59.857C88.7117 59.8569 86.9277 60.0684 85.187 60.487C88.2912 64.7254 91.1178 69.1603 93.649 73.764C101.725 70.736 105.169 66.091 105.536 65.571C101.393 61.8901 96.0439 59.857 90.502 59.857V59.857Z" fill="white"/>
<defs>
<filter id="filter0_d" x="12" y="12" width="157.002" height="157.002" filterUnits="userSpaceOnUse" color-interpolation-filters="sRGB">
<feFlood flood-opacity="0" result="BackgroundImageFix"/>
<feColorMatrix in="SourceAlpha" type="matrix" values="0 0 0 0 0 0 0 0 0 0 0 0 0 0 0 0 0 0 127 0"/>
<feOffset dy="8"/>
<feGaussianBlur stdDeviation="12"/>
<feColorMatrix type="matrix" values="0 0 0 0 0 0 0 0 0 0 0 0 0 0 0 0 0 0 0.078 0"/>
<feBlend mode="normal" in2="BackgroundImageFix" result="effect1_dropShadow"/>
<feBlend mode="normal" in="SourceGraphic" in2="effect1_dropShadow" result="shape"/>
</filter>
</defs>
</svg>
