<svg width="182" height="181" viewBox="0 0 182 181" fill="none" xmlns="http://www.w3.org/2000/svg">
<g filter="url(#filter0_d)">
<path d="M90.501 137.002C120.601 137.002 145.002 112.601 145.002 82.501C145.002 52.4009 120.601 28 90.501 28C60.4009 28 36 52.4009 36 82.501C36 112.601 60.4009 137.002 90.501 137.002Z" fill="#2F75EC"/>
</g>
<path d="M74.894 97.874C73.4793 97.8718 72.0978 97.4455 70.928 96.65L72.308 95.15L85.16 81.215L90.006 84.515L90.235 84.595H90.312C90.3521 84.6006 90.3925 84.6036 90.433 84.604C90.4728 84.6036 90.5126 84.6006 90.552 84.595C90.6312 84.6068 90.7118 84.6068 90.791 84.595H90.868L91.03 84.515L95.915 81.197L108.699 95.112L110.049 96.58C108.818 97.4177 107.364 97.8664 105.875 97.868H75.181C75.075 97.872 74.981 97.874 74.894 97.874ZM69.56 95.229C68.613 93.8267 68.1181 92.168 68.142 90.476L68.152 74.499C68.138 73.046 68.4942 71.6133 69.187 70.336L70.804 71.442L83.455 80.08L70.92 93.755L69.562 95.229H69.56ZM111.476 95.219L110.108 93.719L97.581 80.039L110.221 71.439L111.85 70.339C112.551 71.619 112.896 73.0634 112.85 74.522V90.476C112.915 92.1649 112.432 93.8294 111.473 95.221L111.476 95.219ZM90.418 82.403L85.629 79.129C85.5311 79.0316 85.4134 78.9563 85.284 78.908L72.126 69.964L70.393 68.787C71.6275 67.7232 73.2014 67.1352 74.831 67.129C74.966 67.129 75.08 67.129 75.181 67.138H105.768H105.955C107.632 67.1455 109.256 67.7283 110.555 68.789L108.813 69.974L90.419 82.402L90.418 82.403Z" fill="white"/>
<defs>
<filter id="filter0_d" x="30" y="25" width="121.002" height="121.002" filterUnits="userSpaceOnUse" color-interpolation-filters="sRGB">
<feFlood flood-opacity="0" result="BackgroundImageFix"/>
<feColorMatrix in="SourceAlpha" type="matrix" values="0 0 0 0 0 0 0 0 0 0 0 0 0 0 0 0 0 0 127 0"/>
<feOffset dy="3"/>
<feGaussianBlur stdDeviation="3"/>
<feColorMatrix type="matrix" values="0 0 0 0 0 0 0 0 0 0 0 0 0 0 0 0 0 0 0.161 0"/>
<feBlend mode="normal" in2="BackgroundImageFix" result="effect1_dropShadow"/>
<feBlend mode="normal" in="SourceGraphic" in2="effect1_dropShadow" result="shape"/>
</filter>
</defs>
</svg>
