<svg width="182" height="181" viewBox="0 0 182 181" fill="none" xmlns="http://www.w3.org/2000/svg">
<g filter="url(#filter0_d)">
<path d="M90.501 145.002C120.601 145.002 145.002 120.601 145.002 90.501C145.002 60.4009 120.601 36 90.501 36C60.4009 36 36 60.4009 36 90.501C36 120.601 60.4009 145.002 90.501 145.002Z" fill="#D5006B"/>
</g>
<path d="M119.972 90.007C119.972 94.0751 119.89 98.155 119.995 102.223C120.17 109.424 115.646 114.989 109.883 117.467C107.568 118.461 105.137 118.987 102.623 118.987C94.7559 118.999 86.8767 119.104 79.0092 118.952C73.0823 118.835 68.2075 116.357 64.7121 111.47C62.8768 108.898 62 105.976 62 102.808C62 94.4259 62 86.0557 62 77.6738C62 70.835 65.3317 66.0537 71.2469 62.9442C73.8188 61.5998 76.6127 61.027 79.5236 61.0153C87.1573 61.0153 94.8027 60.9685 102.436 61.0386C108.363 61.0854 113.308 63.3533 116.956 68.1229C118.99 70.7883 119.972 73.8511 119.972 77.2179C119.972 81.4731 119.972 85.74 119.972 90.007ZM66.3137 90.007C66.3137 94.2973 66.3137 98.5759 66.3137 102.866C66.3137 104.783 66.7579 106.584 67.7516 108.209C70.3585 112.476 74.2981 114.556 79.1846 114.638C87.0287 114.755 94.8845 114.685 102.74 114.662C104.669 114.662 106.54 114.264 108.281 113.434C113.028 111.166 115.681 107.554 115.658 102.13C115.611 93.8297 115.646 85.5296 115.646 77.2296C115.646 74.8798 114.98 72.7288 113.589 70.835C110.9 67.1994 107.183 65.4108 102.74 65.364C94.9079 65.2705 87.0755 65.329 79.243 65.3406C77.5713 65.3406 75.9581 65.6797 74.3916 66.2642C70.0896 67.8657 66.0916 71.9222 66.2786 77.8959C66.4189 81.9407 66.3137 85.9738 66.3137 90.007Z" fill="white"/>
<path d="M91.0502 102.398C83.51 102.398 77.4311 96.3897 77.4194 88.908C77.4077 81.5431 83.5334 75.511 91.0268 75.511C98.5436 75.4993 104.646 81.5198 104.658 88.943C104.658 96.3546 98.567 102.387 91.0502 102.398ZM91.0502 98.0731C96.1822 98.0731 100.344 93.9698 100.332 88.9197C100.32 83.9163 96.1588 79.8247 91.0502 79.8247C85.9182 79.8247 81.7331 83.9046 81.7331 88.943C81.7448 93.9932 85.9182 98.0848 91.0502 98.0731Z" fill="white"/>
<path d="M106.236 71.4194C107.814 71.4194 109.1 72.7638 109.1 74.4121C109.088 76.0604 107.79 77.3931 106.212 77.3814C104.658 77.3697 103.383 76.0371 103.383 74.4238C103.372 72.7755 104.658 71.4194 106.236 71.4194Z" fill="white"/>
<defs>
<filter id="filter0_d" x="12" y="20" width="157.002" height="157.002" filterUnits="userSpaceOnUse" color-interpolation-filters="sRGB">
<feFlood flood-opacity="0" result="BackgroundImageFix"/>
<feColorMatrix in="SourceAlpha" type="matrix" values="0 0 0 0 0 0 0 0 0 0 0 0 0 0 0 0 0 0 127 0"/>
<feOffset dy="8"/>
<feGaussianBlur stdDeviation="12"/>
<feColorMatrix type="matrix" values="0 0 0 0 0 0 0 0 0 0 0 0 0 0 0 0 0 0 0.078 0"/>
<feBlend mode="normal" in2="BackgroundImageFix" result="effect1_dropShadow"/>
<feBlend mode="normal" in="SourceGraphic" in2="effect1_dropShadow" result="shape"/>
</filter>
</defs>
</svg>
