<svg width="182" height="181" viewBox="0 0 182 181" fill="none" xmlns="http://www.w3.org/2000/svg">
<g filter="url(#filter0_d)">
<path d="M90.501 145.002C120.601 145.002 145.002 120.601 145.002 90.501C145.002 60.4009 120.601 36 90.501 36C60.4009 36 36 60.4009 36 90.501C36 120.601 60.4009 145.002 90.501 145.002Z" fill="#007AB7"/>
</g>
<path d="M101.965 108.668V95.962C101.965 92.926 101.92 89.027 97.755 89.027C93.532 89.027 92.899 92.336 92.899 95.736V108.668H84.799V82.531H92.553V86.112H92.659C93.4372 84.7802 94.5623 83.6847 95.9144 82.9424C97.2664 82.2 98.7947 81.8387 100.336 81.897C108.543 81.897 110.066 87.305 110.066 94.346V108.668H101.965ZM79.683 108.668H71.57V82.531H79.685V108.666L79.683 108.668ZM84.783 82.532H84.798H84.783ZM70.936 74.253C70.9374 73.3225 71.2146 72.4133 71.7325 71.6404C72.2505 70.8674 72.9859 70.2653 73.8459 69.9102C74.706 69.5551 75.652 69.4629 76.5644 69.6452C77.4768 69.8276 78.3147 70.2764 78.9721 70.9348C79.6296 71.5932 80.0771 72.4318 80.2581 73.3444C80.4391 74.2571 80.3455 75.203 79.9891 76.0625C79.6327 76.922 79.0295 77.6565 78.2558 78.1733C77.482 78.6901 76.5725 78.966 75.642 78.966C74.3934 78.9636 73.1968 78.466 72.3145 77.5825C71.4323 76.699 70.9365 75.5015 70.936 74.253V74.253Z" fill="white"/>
<defs>
<filter id="filter0_d" x="30" y="33" width="121.002" height="121.002" filterUnits="userSpaceOnUse" color-interpolation-filters="sRGB">
<feFlood flood-opacity="0" result="BackgroundImageFix"/>
<feColorMatrix in="SourceAlpha" type="matrix" values="0 0 0 0 0 0 0 0 0 0 0 0 0 0 0 0 0 0 127 0"/>
<feOffset dy="3"/>
<feGaussianBlur stdDeviation="3"/>
<feColorMatrix type="matrix" values="0 0 0 0 0 0 0 0 0 0 0 0 0 0 0 0 0 0 0.161 0"/>
<feBlend mode="normal" in2="BackgroundImageFix" result="effect1_dropShadow"/>
<feBlend mode="normal" in="SourceGraphic" in2="effect1_dropShadow" result="shape"/>
</filter>
</defs>
</svg>
