<svg width="122" height="122" viewBox="0 0 122 122" fill="none" xmlns="http://www.w3.org/2000/svg">
<g clip-path="url(#clip0_18_50)">
<g filter="url(#filter0_d_18_50)">
<path d="M60.501 112.002C90.6011 112.002 115.002 87.6011 115.002 57.501C115.002 27.4009 90.6011 3 60.501 3C30.4009 3 6 27.4009 6 57.501C6 87.6011 30.4009 112.002 60.501 112.002Z" fill="#007AB7"/>
</g>
<path d="M71.965 75.668V62.962C71.965 59.926 71.92 56.027 67.755 56.027C63.532 56.027 62.899 59.336 62.899 62.736V75.668H54.799V49.531H62.553V53.112H62.659C63.4372 51.7802 64.5623 50.6847 65.9144 49.9424C67.2664 49.2 68.7947 48.8387 70.336 48.897C78.543 48.897 80.066 54.305 80.066 61.346V75.668H71.965ZM49.683 75.668H41.57V49.531H49.685V75.666L49.683 75.668ZM54.783 49.532H54.798H54.783ZM40.936 41.253C40.9374 40.3225 41.2146 39.4133 41.7325 38.6404C42.2505 37.8674 42.9859 37.2653 43.8459 36.9102C44.706 36.5551 45.652 36.4629 46.5644 36.6452C47.4768 36.8276 48.3147 37.2764 48.9721 37.9348C49.6296 38.5932 50.0771 39.4318 50.2581 40.3444C50.4391 41.2571 50.3455 42.203 49.9891 43.0625C49.6327 43.922 49.0295 44.6565 48.2558 45.1733C47.482 45.6901 46.5725 45.966 45.642 45.966C44.3934 45.9636 43.1968 45.466 42.3145 44.5825C41.4323 43.699 40.9365 42.5015 40.936 41.253V41.253Z" fill="white"/>
</g>
<defs>
<filter id="filter0_d_18_50" x="0" y="0" width="121.002" height="121.002" filterUnits="userSpaceOnUse" color-interpolation-filters="sRGB">
<feFlood flood-opacity="0" result="BackgroundImageFix"/>
<feColorMatrix in="SourceAlpha" type="matrix" values="0 0 0 0 0 0 0 0 0 0 0 0 0 0 0 0 0 0 127 0" result="hardAlpha"/>
<feOffset dy="3"/>
<feGaussianBlur stdDeviation="3"/>
<feColorMatrix type="matrix" values="0 0 0 0 0 0 0 0 0 0 0 0 0 0 0 0 0 0 0.161 0"/>
<feBlend mode="normal" in2="BackgroundImageFix" result="effect1_dropShadow_18_50"/>
<feBlend mode="normal" in="SourceGraphic" in2="effect1_dropShadow_18_50" result="shape"/>
</filter>
<clipPath id="clip0_18_50">
<rect width="122" height="122" fill="white"/>
</clipPath>
</defs>
</svg>
