<svg width="182" height="181" viewBox="0 0 182 181" fill="none" xmlns="http://www.w3.org/2000/svg">
<g filter="url(#filter0_d)">
<path d="M90.501 137.002C120.601 137.002 145.002 112.601 145.002 82.501C145.002 52.4009 120.601 28 90.501 28C60.4009 28 36 52.4009 36 82.501C36 112.601 60.4009 137.002 90.501 137.002Z" fill="#007AB7"/>
</g>
<path d="M101.965 100.668V87.962C101.965 84.926 101.92 81.027 97.755 81.027C93.532 81.027 92.899 84.336 92.899 87.736V100.668H84.799V74.531H92.553V78.112H92.659C93.4372 76.7802 94.5623 75.6847 95.9144 74.9424C97.2664 74.2 98.7947 73.8387 100.336 73.897C108.543 73.897 110.066 79.305 110.066 86.346V100.668H101.965ZM79.683 100.668H71.57V74.531H79.685V100.666L79.683 100.668ZM84.783 74.532H84.798H84.783ZM70.936 66.253C70.9374 65.3225 71.2146 64.4133 71.7325 63.6404C72.2505 62.8674 72.9859 62.2653 73.8459 61.9102C74.706 61.5551 75.652 61.4629 76.5644 61.6452C77.4768 61.8276 78.3147 62.2764 78.9721 62.9348C79.6296 63.5932 80.0771 64.4318 80.2581 65.3444C80.4391 66.2571 80.3455 67.203 79.9891 68.0625C79.6327 68.922 79.0295 69.6565 78.2558 70.1733C77.482 70.6901 76.5725 70.966 75.642 70.966C74.3934 70.9636 73.1968 70.466 72.3145 69.5825C71.4323 68.699 70.9365 67.5015 70.936 66.253V66.253Z" fill="white"/>
<defs>
<filter id="filter0_d" x="30" y="25" width="121.002" height="121.002" filterUnits="userSpaceOnUse" color-interpolation-filters="sRGB">
<feFlood flood-opacity="0" result="BackgroundImageFix"/>
<feColorMatrix in="SourceAlpha" type="matrix" values="0 0 0 0 0 0 0 0 0 0 0 0 0 0 0 0 0 0 127 0"/>
<feOffset dy="3"/>
<feGaussianBlur stdDeviation="3"/>
<feColorMatrix type="matrix" values="0 0 0 0 0 0 0 0 0 0 0 0 0 0 0 0 0 0 0.161 0"/>
<feBlend mode="normal" in2="BackgroundImageFix" result="effect1_dropShadow"/>
<feBlend mode="normal" in="SourceGraphic" in2="effect1_dropShadow" result="shape"/>
</filter>
</defs>
</svg>
