<svg width="181" height="181" viewBox="0 0 181 181" fill="none" xmlns="http://www.w3.org/2000/svg">
<g filter="url(#filter0_d_18_45)">
<path d="M90.501 145.002C120.601 145.002 145.002 120.601 145.002 90.501C145.002 60.4009 120.601 36 90.501 36C60.4009 36 36 60.4009 36 90.501C36 120.601 60.4009 145.002 90.501 145.002Z" fill="#007AB7"/>
</g>
<path d="M74.894 105.874C73.4793 105.872 72.0978 105.445 70.928 104.65L72.308 103.15L85.16 89.215L90.006 92.515L90.235 92.595H90.312C90.3521 92.6006 90.3925 92.6036 90.433 92.604C90.4728 92.6036 90.5126 92.6006 90.552 92.595C90.6312 92.6068 90.7118 92.6068 90.791 92.595H90.868L91.03 92.515L95.915 89.197L108.699 103.112L110.049 104.58C108.818 105.418 107.364 105.866 105.875 105.868H75.181C75.075 105.872 74.981 105.874 74.894 105.874ZM69.56 103.229C68.613 101.827 68.1181 100.168 68.142 98.476L68.152 82.499C68.138 81.046 68.4942 79.6133 69.187 78.336L70.804 79.442L83.455 88.08L70.92 101.755L69.562 103.229H69.56ZM111.476 103.219L110.108 101.719L97.581 88.039L110.221 79.439L111.85 78.339C112.551 79.619 112.896 81.0634 112.85 82.522V98.476C112.915 100.165 112.432 101.829 111.473 103.221L111.476 103.219ZM90.418 90.403L85.629 87.129C85.5311 87.0316 85.4134 86.9563 85.284 86.908L72.126 77.964L70.393 76.787C71.6275 75.7232 73.2014 75.1352 74.831 75.129C74.966 75.129 75.08 75.129 75.181 75.138H105.768H105.955C107.632 75.1455 109.256 75.7283 110.555 76.789L108.813 77.974L90.419 90.402L90.418 90.403Z" fill="white"/>
<defs>
<filter id="filter0_d_18_45" x="30" y="33" width="121.002" height="121.002" filterUnits="userSpaceOnUse" color-interpolation-filters="sRGB">
<feFlood flood-opacity="0" result="BackgroundImageFix"/>
<feColorMatrix in="SourceAlpha" type="matrix" values="0 0 0 0 0 0 0 0 0 0 0 0 0 0 0 0 0 0 127 0" result="hardAlpha"/>
<feOffset dy="3"/>
<feGaussianBlur stdDeviation="3"/>
<feColorMatrix type="matrix" values="0 0 0 0 0 0 0 0 0 0 0 0 0 0 0 0 0 0 0.161 0"/>
<feBlend mode="normal" in2="BackgroundImageFix" result="effect1_dropShadow_18_45"/>
<feBlend mode="normal" in="SourceGraphic" in2="effect1_dropShadow_18_45" result="shape"/>
</filter>
</defs>
</svg>
