<?xml version="1.0" encoding="UTF-8"?>
<svg id="Belog" xmlns="http://www.w3.org/2000/svg" viewBox="0 0 256 142">
  <defs>
    <style>
      .cls-1 {
        fill: #2659fc;
      }
    </style>
  </defs>
  <path class="cls-1" d="m76.14,97.09c0-18.15,0-36.29-.02-54.44,0-1.16.43-1.78,1.43-2.32,3.04-1.65,6.15-3.21,8.97-5.24.29-.21.65-.35.98-.49.83-.36,1.99-.43,1.38-1.87-.13-.3.31-.33.45-.51.98-.26,2-.21,2.95-.77,3.44-2.06,6.87-4.13,10.42-6,4.73-2.49,9.11-5.59,14.13-7.62,3.06-1.24,5.76-3.38,8.63-5.11.4-.16.8-.32,1.2-.48.01.64.4,1.2.22,1.9-.42,1.61-.11,3.26-.16,4.89,0,.26.11.48.37.53,1.05.21,2.31-.81,2.33-1.92.03-1.73.02-3.45.03-5.18.93-.11,1.52.57,2.22.97,2.55,1.45,5.03,3.05,7.63,4.4,1.34.7,2.85,1.02,4.2,1.8,6.75,3.93,13.53,7.81,20.3,11.69.68.39,1.34.77,2.18.8.59.02,1.12.35,1.04,1.12-.04.4.06.68.5.86,3.99,1.66,7.45,4.27,11.3,6.18.92.45,1.16,1.1,1.15,2.08-.04,9.68-.04,19.36-.04,29.03,0,7.9.02,15.8.02,23.7,0,.43.15.92-.27,1.28-.56.03-1.06-.17-1.52-.45-1.33-.81-2.67-1.61-3.97-2.47-.64-.42-1.23-.6-1.72.09-.52.72-.12,1.17.56,1.57,1.17.69,2.34,1.38,3.51,2.05,1.07.61,2.04,1.56,3.4,1.61.15.72.18,1.38-.6,1.82-3.78,2.13-7.41,4.51-11.31,6.41-.43.21-.69.48-.45.96.24.47.17.86-.38.93-3.47.45-6.08,2.71-8.99,4.3-5.4,2.97-10.53,6.5-16.1,9.09-4.06,1.89-7.77,4.33-11.75,6.32-.4.2-.74.54-1.14.74-.77.39-1.41.58-2.35-.02-3.35-2.13-6.65-4.45-10.27-6-6.45-2.78-12.2-6.74-18.34-10.02-2.08-1.11-4.1-2.34-6.1-3.57-.95-.58-2.1-.41-3.04-.97-.24-.14-.72-.2-.67-.46.41-1.95-1.53-1.81-2.35-2.26-1.41-.76-2.86-1.52-4.19-2.39-1.63-1.07-3.29-2.04-5-2.97-.5-.27-1.24-.5-.77-1.36,1.98-.92,3.84-2.05,5.68-3.21.79-.49.87-1.25.78-2.06-.06-.61-.47-.75-.91-.39-1.7,1.38-3.78,2.13-5.56,3.39Zm49.53-21.57c-.33-1.43-1.08-2.6-2.19-3.56-.58-1.12-1.63-1.7-2.65-2.32-3.09-1.91-6.54-3.11-9.72-4.84-3.44-1.88-6.87-3.78-10.31-5.65-.37-.2-.59-.43-.58-.86.02-.58-.02-1.14-.82-1.07-.74.06-.94.53-.85,1.22.07.54-.27.84-.75.66-.72-.27-1.28.09-1.7.47-.94.87-1.85.67-2.85.2-.4-.18-.82-.56-1.51,0,1.55.46,2.64,1.42,3.9,2.05.93.47,1.56,1.4,2.45,1.69,1,.33,1.98.66,2.89,1.17,4.39,2.47,8.78,4.93,13.14,7.45,1.3.75,2.88,1.1,3.79,2.48.38.58.85,1.11,1.28,1.66.1.92.7,1.56,1.26,2.22.49,1.13.97,2.26,1.46,3.39.37-.89-.38-1.74.28-2.55.58-.71,1.49-.93,2.22-1.22,1.2-.48,1.36.94,1.87,1.66.41-1.27.43-2.45-.43-3.51l-.12-.44s.07-.08.06-.1c-.03-.07-.08-.13-.12-.19Zm6.22,32c-.06.03-.11.06-.17.09.05.06.11.12.16.18.04.3.08.61.13.91-.53,1.83-.52,3.69-.4,5.56.2.14.38.32.59.43,1.52.79,3.26,1.2,4.43,2.59.23.27.37.12.52-.15.24-.42.21-.86.22-1.31.04-1.14-.17-2.3.13-3.43.29-1.12.2-1.95-1.12-2.43-.61-.22-1.2-.64-1.85-.87-.68-.24-1.11-.71-1.06-1.42.04-.53.03-.85-.61-.89-.56-.03-.99.05-.97.74Zm-34.39-57.36c.29-1.13-.09-1.78-1.23-2.25-2.32-.97-4.55-2.16-6.97-2.92-.91-.29-1.7-.93-2.59-1.44-.2,1.48-.41,2.88-.58,4.27-.14,1.15-.39,2.47.96,3.03,1.05.43,2.07,1.03,3.18,1.27,2.09.45,3.9,1.48,5.71,2.52.42.24.84.75,1.32.46.49-.29.12-.9.18-1.36.17-1.19.11-2.38.02-3.57Zm29.34,10.43c-.17.19-.16.38.02.56,0,.56,0,1.12,0,1.68-.28.76-.27,1.52-.06,2.29,0,.14,0,.29.01.43-.16.2-.13.38.05.55,0,.15.01.3.02.46-.06.1-.11.2-.17.3.07.8-.29,1.33-1,1.66-.41.19-.83.36-1.22.6-.78.47-.74,1.05-.03,1.6.79.62,1.39.51,2.1-.14.85-.78,1.96-.98,2.88-.29.62.46,1.25.93,1.91,1.33,1.31.79,2.63,1.58,3.99,2.27,1.02.51,1.54-.38,1.94-1.04.4-.66-.33-.85-.78-1.1-1.17-.63-2.28-1.41-3.51-1.87-.78-.3-.97-1.21-1.83-1.34-1.24-.2-1.77-1-1.76-2.24.02-2.31,0-4.62,0-6.93,0-1.36-.45-2.46-1.67-3.16-.65-.37-1.17-.53-1.1.57.06.95.04,1.9.06,2.84.04.18.08.37.12.55,0,.14.01.28.02.43Zm23.73,39.81c-.76-1.64-.92-1.68-2.44-.73-1.32.83-2.83,1.69-4.29,1.05-1.1-.48-1.73-.34-2.81-.03-2.1.59-3.78,1.85-5.62,2.84-.7.38-2.07.35-1.95,1.4.1.92,1.52.84,2.13,1.43.63.62,1.74-.04,2.11.95-.16.88.02,1.68,1.06,1.58.5-.05,1.04-.16,1.56-.15.6,0,.8-.22.78-.8-.01-.38-.25-.98.2-1.11,2.16-.62,3.86-2.07,5.79-3.11,1.86-1.01,3.75-2.02,5.42-3.52-.77-.17-1.36-.06-1.94.21Zm-17.1-9.54c0,.11.02.23.03.34.02.13.04.26.06.39-.1.13-.06.23.06.32.21,1.04.87,1.72,1.76,2.23.85.87,2.08,1.15,3,1.94.7.6,1.02.35,1.02-.51,0-1.9,0-3.8,0-5.7,0-.8-.35-1.95,1.23-1.47.02,0,.11-.19.16-.29-.01-.75.36-1.48.64-2.06.88-1.81.76-3.88,1.79-5.65,1.57-2.7,3.68-4.81,6.36-6.37,4.06-2.35,8.11-4.7,11.87-7.61-1.34.21-2.57.07-3.79-.29-.12-.04-.33.05-.45.15-1.83,1.41-4.14,2.03-5.9,3.56-1.01.88-2.05.93-3.17.22-.6-.38-1.3-.79-1.97-.48-1.54.7-3.11,1.41-4.32,2.66-.6.26-1.15.58-1.85.6-.58.01-1.22.3-1.49.77-1.7,2.95-4.3,5.38-4.47,9.2-.12,2.67-.65,5.34-.58,8.05Zm14.37-33.96c-1.06-.56-2.09-1.17-3.17-1.66-1.86-.83-3.67-1.7-5.69-2.2-1.7-.42-3.14-1.78-4.8-2.48-4.72-1.98-9.29-4.26-13.88-6.52-1.51-.75-2.94-1.66-4.59-2.13-.89-.26-1.2-.01-1.23.9-.05,1.64.22,3.29-.25,4.92-.18.61.24.94.8,1.17.84.35,1.75.27,2.6.64,5.53,2.39,10.77,5.37,16.26,7.84.08.29.32.27.55.28-.66.79-.09,1.18.55,1.37,2.23.66,4.21,1.9,6.46,2.61,2.87.89,5.5,2.56,8.21,3.94.47.24.91.74,1.43.43.49-.29.13-.91.2-1.37,0-.27,0-.54,0-.82,0-.23,0-.46,0-.68.08-.85.26-1.7,0-2.54.34-1.28-.39-1.55-1.44-1.52-.03-.08-.06-.17-.1-.25.35-1.24-.36-1.57-1.4-1.62-.09-.23-.26-.31-.49-.3Zm-27.7,33.05v-.31c.01-.89,0-1.78,0-2.67,0-.1,0-.21,0-.31-.44-2.56-.51-5.22-1.72-7.58-.66-1.3-1.01-3.05-2.4-3.62-1.75-.73-3.16-1.97-4.88-2.71-1.82-.79-3.59-1.77-5.28-2.8-3.75-2.29-7.96-3.81-11.34-6.72-1.76-.12-3.02-1.45-4.64-1.92-1.09-.32-3.13.22-3.81,1.16-1.14,1.58-1.3,3.49-1.45,5.31-.24,2.91-.1,5.84-.23,8.76-.22,4.94-.09,9.89-.26,14.84-.15,4.41-.63,3.58,3.06,5.54.11.06.19.16.3.22,1.17.67,2.28,1.46,3.59,1.86,1.17.37,1.47.15,1.47-1.06,0-2.61.03-5.21-.02-7.82-.02-.82.32-1.3.97-1.7.63-.39,1.09.08,1.52.36,3.16,2.02,6.64,3.44,9.81,5.47,1.58,1.01,3.35,1.94,5.19,2.61.92.33,1.21,1,1.24,2.01.11,3.43-.47,6.83-.27,10.25,0,.16.02.37-.06.48-.42.57.03.85.39,1.09.74.48,1.54.89,2.29,1.35,1.59.99,3.49,1.35,5.01,2.5.66.49.82.07.82-.57,0-5.13.03-10.26.22-15.4.09-2.54.29-5.08.43-7.62,0-.11.01-.22.02-.33,0-.22,0-.45.01-.67Zm20.05-48.86c-1.06-.13-1.87-.71-2.75-1.12-2.37-1.12-4.76-2.21-7.08-3.43-1.18-.62-2.59-.84-3.53-1.91-.62-.71-.55-2.21.13-2.78,1.04-.89,2.33-1.33,3.51-1.94,2.61-1.34,5.27-2.59,7.89-3.91.46-.23.82-.65,1.22-.98-.22-.24-.42-.48-.74-.61-2.83-1.19-5.78-2.14-8.22-4.09-.21-.17-.44-.07-.69-.03-1.54.24-2.76,1.17-4.1,1.83-2.95,1.47-5.9,2.95-8.73,4.62-1.21.71-2.58.65-3.78,1.35-2.66,1.55-5.44,2.91-8.19,4.29-.65.33-1.4.45-1,1.44.11.27-.09.39-.27.45-2.57.78-4.66,2.48-7.07,3.58-2.42,1.11-4.72,2.48-7.29,3.29-.57.18-1.62-.08-1.6.75.02.64.99.85,1.58,1.19.11.06.22.13.34.15,2.41.44,4.45,1.76,6.66,2.69.89.38,1.69,1.38,2.82.92,2.14-.88,4.15-2.03,6.24-3.02,2.64-1.26,5.12-2.87,7.66-4.35.2-.12.33-.09.55-.06,1.92.32,3.73,1.02,5.38,1.96,3.43,1.93,7.13,3.25,10.59,5.11,1.81.97,3.79,1.64,5.54,2.69,1.58.95,3.28,1.48,4.99,2.03,1.96.64,3.78,1.59,5.61,2.52.35.18.59.78.89.78,1.53.02,2.61,1.02,3.87,1.62.89.42,1.69.9,2.83.27,2.7-1.49,5.52-2.8,8.3-4.15.25-.12.57-.05.56-.48,0-.37-.1-.63-.47-.77-.81-.32-1.61-.68-2.4-1.03-3.35-1.46-6.61-3.1-9.89-4.69-2.49-1.2-4.99-2.39-7.45-3.66-.63-.32-1.07-1.05-1.88-.52Zm-.84,72.82s.02,0,.04,0c0,.33,0,.66,0,.99,0,.37-.03.74-.02,1.12.03,1.12.77,1.57,1.74,1,1.39-.81,2.74-1.68,4.11-2.51,2.94-1.79,5.86-3.61,8.82-5.35.71-.42,1.53-.6,1.27-1.7-.07-.3.14-.53.47-.63,1.62-.46,2.89-1.52,4.28-2.4,1.35-.86,2.68-1.81,4.14-2.41,1.07-.44,2.15-.76,2.94-1.64,2.23-2.49,3.52-5.51,4.22-8.67.42-1.89.92-3.85.84-5.87-.06-1.57.06-3.14.02-4.71-.04-1.48-.79-2.05-2.25-2.15-1.26-.09-2.33.2-3.31,1-.81.65-2.02.29-2.82,1.01-.69.62-2.02.71-2.22,1.53-.22.93-.44,1.27-1.35,1.7-1.73.81-3.25,2.04-4.9,3.04-1.7,1.02-3.27,2.26-5.11,3.04-.81.35-1.27.19-1.24-.79.03-1.07-.15-2.19.09-3.22.41-1.76.38-3.65,2.48-4.76,3.77-2,7.39-4.28,10.99-6.58,1.26-.8,2.72-1.03,3.95-1.79,1.74-1.08,3.47-2.17,5.21-3.25,1.21-.75,1.96-1.7,1.76-3.23-.15-1.19.08-2.34.65-3.43.15-.3.58-.68.22-.98-.35-.28-.83-.18-1.25.1-.87.58-1.81,1.05-2.66,1.66-2.39,1.72-5.11,2.84-7.68,4.22-2.13,1.15-4.12,2.52-6.18,3.79-2.94,1.81-5.92,3.57-8.81,5.46-1.71,1.11-2.83,2.92-3.28,4.75-.41,1.65-.97,3.28-1.46,4.88-.99,3.22-1.17,6.41-.64,9.67.27,1.66,2.33,2.6,3.75,1.76,3.9-2.29,7.81-4.55,11.63-6.98,1.52-.97,3.13-1.81,4.58-2.88.56-.41,1.23-.51,1.73-.22.47.27.03.87,0,1.34-.08,1.02-.29,2.06-.26,3.05.07,2.02-.59,3.28-2.41,4.39-4.84,2.95-9.72,5.83-14.51,8.85-.85.54-2.58.49-2.27,2.29.04.21-.19.31-.42.35-.88.16-1.56.75-2.3,1.18-.78.45-1.79.73-2.31,1.24-.5.48-.19,1.78-.23,2.72Zm-39.85-60.57c.19.53-.25,1.18.26,1.43.46.23.72-.44,1.1-.65.15-.08.29-.16.44-.24,3.17-1.62,6.34-3.24,9.5-4.88.43-.22.8-.58,1.16-.91.22-.2.38-.49.11-.75-.21-.21-.47-.07-.66.1-2.48,2.13-5.58,3.17-8.39,4.72-2.45,1.35-2.4,1.29-2.51-1.45-.04-1.1.47-1.74,1.22-2.21,1.31-.81,2.67-1.58,4.09-2.17,2.11-.88,3.98-2.24,6.21-2.85.38-.1.47-.43.28-.8-.25-.49-.43-.16-.74-.01-1.53.72-3.05,1.44-4.51,2.31-1.61.96-3.33,1.74-5.01,2.6-.82.42-2.14.69-2.2,1.91-.06,1.32-.16,2.62-.35,3.86Zm71.91,7.98c-.94-.19-1.52-.29-2.08.15-1.15.91-2.41,1.65-3.69,2.37-.32.18-.98.22-.76.76.21.51.7.09,1.08.05.53-.06.91-.32,1.26-.7.43-.46.95-.78,1.57-.92.99-.23,1.58-1.04,2.62-1.71Zm-29.98-34.15c-1.81.27-7.95,3.22-8.65,4.18,1.24-.27,2.13-1.08,3.21-1.43,1.58-.52,2.93-1.7,4.76-1.56.65.05.6-.63.68-1.19Zm25.56,34.55c.44-1.55.08-3.18.66-4.7.1-.26-.14-.48-.39-.53-.41-.09-.64.17-.67.54-.14,1.58.21,3.13.41,4.69Zm-34.68-30.17c-.79-.05-2.51,1.08-2.6,1.66-.05.32.06.56.33.73.19.12.52.11.5-.09-.13-1.3,1.2-1.5,1.77-2.31Zm17.39,37.53c.37-.15,1.07.26,1.16-.23.11-.59-.66-.42-1.04-.57-.5-.2-1.04-.32-1.52.07-.13.1-.17.29-.04.44.39.45.93.19,1.44.29Zm-50.77,24.22c.09,1.19-.44,2.19-1.16,3.29,1.59-.48,1.89-1.42,1.16-3.29Zm71.17-33.59c.08.5.68.33.93.63.13.16.23.37.4.46.35.2.91.66.97-.12.04-.5-.6-.84-1.1-1.05-.26-.11-.55-.16-.83-.2-.15-.02-.34.02-.37.29Zm-.41-1.54c.02-.4-.18-.64-.55-.69-.48-.06-.81.12-.83.64-.02.36.11.67.5.72.49.06.72-.28.88-.67Z"/>
  <path class="cls-1" d="m94.48,71.05c.73-.25,1.1.47,1.66.77,4.14,2.29,8.26,4.6,12.42,6.85.83.45,1.54,1.1,2.47,1.36.37.1.47.41.47.78-.01,3.25,0,6.5-.04,9.75,0,.7-.83.84-1.72.33-2.27-1.3-4.54-2.62-6.82-3.9-1.89-1.06-3.81-2.07-5.72-3.1-.31-.17-.83-.3-.62-.76.41-.87-.12-1.02-.75-1.17-.08-.02-.16-.05-.23-.09-2.85-1.23-3.24-2.15-2.65-5.25.24-1.28.06-2.63.12-3.95.06-1.49.2-1.63,1.42-1.63Zm15.27,12.06c.2-.93-.31-1.46-1.08-1.84-.41-.2-.8-.43-1.2-.64-1.95-1.07-3.9-2.14-5.85-3.22-.71-.39-1.35-.34-1.88.3-.36.43-.03.87.29.74,1.11-.44,8.19,5.57,8.96,6.36.19.2.44-.14.5-.38.11-.43.4-.83.26-1.32Zm-2.28,3.78c-.19-.81-.78-.9-1.2-1.2-1.42-.98-3.28-1.38-4.08-3.17-.16-.36-.56-.62-1.04-.52-.31.06-.36.29-.38.55-.05.53.07.98.58,1.26.98.53,1.92,1.13,2.93,1.58,1.03.46,1.85,1.37,3.19,1.5Zm-6.99-5.02c-.08-.24-.08-.35-.13-.39-.92-.59-2.17-.71-2.5-2.09-.08-.32-.99-.35-1.34-.02-.48.46.05.9.42,1.04,1.16.44,2.1,1.42,3.55,1.45Zm8.08,4.59c-.12.38-.83.29-.73.83.07.34.43.61.84.63.43.02.63-.21.56-.61-.06-.34-.13-.73-.68-.85Z"/>
</svg>