<?xml version="1.0" encoding="UTF-8"?>
<svg id="Belog" xmlns="http://www.w3.org/2000/svg" viewBox="0 0 256 142">
  <defs>
    <style>
      .cls-1 {
        fill: #2054fd;
      }
    </style>
  </defs>
  <path class="cls-1" d="m37.81,50.65c-.09,1.64-.68,3.13-1.47,4.55-.71,1.29-1.66,2.39-2.72,3.4-.35.33-.73.62-1.12.88-.3.21-.33.31.04.48,2.18.95,4.03,2.37,5.63,4.11.9.97,1.45,2.14,1.95,3.34.27.66.51,1.33.72,2.01.11.36.14.75.2,1.13.15.94.17,1.89.13,2.85-.09,2.01-.72,3.86-1.69,5.59-1.08,1.95-2.45,3.7-4.32,4.95-2.19,1.46-4.59,2.45-7.22,2.8-.89.12-1.79.14-2.69.14-6.93,0-13.86,0-20.79,0-.39,0-.78-.06-1.17-.01-.46.05-.6-.13-.6-.6,0-3.46.01-6.91.01-10.37,0-12.86,0-25.72,0-38.58,0-.12,0-.25,0-.37q-.02-.87.83-.87c5.84,0,11.69,0,17.53,0,2.41,0,4.8.11,7.11.91,1.25.43,2.42,1,3.54,1.71,1.38.87,2.65,1.91,3.6,3.2,1.17,1.58,1.96,3.4,2.32,5.36.11.62.22,1.24.21,1.88,0,.1.01.19.02.29.06.28.05.56,0,.83,0,.04,0,.08-.01.12,0,.09,0,.17-.01.26,0,0,0,0,0,0Zm-25.04,28.01c.12,0,.25,0,.37,0,.34-.01.68-.03,1.02-.03,3.46-.02,6.93.06,10.39-.04,1.35-.04,2.63-.4,3.73-1.18,1.63-1.16,2.57-2.75,2.84-4.76.55-4.14-2.5-7.82-6.7-7.9-3.84-.07-7.67-.02-11.51-.04-.35,0-.36.17-.36.43,0,4.35,0,8.71,0,13.06,0,.19-.02.38.21.46Zm-.23-28.11s0,0,.01,0c0,1.94,0,3.87,0,5.81,0,.27.05.4.35.39,3.12-.01,6.25.05,9.37-.05,2.1-.07,3.77-1.06,4.82-2.94.46-.82.67-1.7.76-2.64.19-1.96-.34-3.64-1.7-5.04-1.06-1.1-2.41-1.65-3.92-1.68-3.12-.06-6.24-.04-9.37-.07-.38,0-.33.22-.33.46,0,1.92,0,3.84,0,5.76Z"/>
  <path class="cls-1" d="m165.69,94.55c-.16-.5.21-.44.49-.44,2.52,0,5.03.01,7.55.01,1.78,0,3.5-.31,4.96-1.36,1.19-.86,1.83-2.12,2.06-3.57.32-2.01.15-4.04.2-6.13-.43.18-.7.48-1.03.7-.83.56-1.67,1.09-2.59,1.52-1.36.63-2.72,1.23-4.18,1.52-.77.15-1.55.26-2.34.33-.86.08-1.72.13-2.58.09-.88-.03-1.78-.05-2.63-.28-.62-.17-1.33-.05-1.87-.52-3.47-.67-6.26-2.56-8.75-4.95-1-.96-1.76-2.13-2.51-3.31-.52-.81-1-1.62-1.42-2.48-.99-2.03-1.43-4.21-1.62-6.44-.36-4.09.71-7.85,2.74-11.39,1.4-2.44,3.34-4.35,5.62-5.94,2.99-2.09,6.33-3.2,9.95-3.47,3.64-.27,7.07.46,10.24,2.24.9.51,1.85.98,2.6,1.74.07.08.16.18.28.13.15-.06.1-.21.1-.33,0-.81,0-1.61-.03-2.42-.01-.36.12-.45.45-.45,2.91.01,5.81.02,8.72,0,.38,0,.37.2.37.48,0,4.85,0,9.7.01,14.55,0,7.7,0,15.4,0,23.1,0,1.73-.05,3.46-.59,5.13-1.21,3.73-3.35,6.67-7.12,8.19-.79.31-1.56.69-2.37.89-.59.15-1.22.27-1.83.3-4.09.2-8.18.04-12.27.09-.17,0-.34.04-.5-.06,0,0,0,0,0,0-.03,0-.05-.02-.07-.04,0,0,0-.02,0-.02,0,0-.02,0-.02,0,0-.09,0-.17,0-.26,0,0,.02,0,.02,0h-.01c0-.11.01-.2.02-.3,0-.12,0-.24,0-.37,0-1.85,0-3.7,0-5.55,0,0,0-.02,0-.02,0-.12,0-.25,0-.37,0,0,0,0,0,0,0-.09,0-.19-.01-.28.04-.09.05-.18-.01-.27Zm15.31-27.33c-.12-1.48-.35-2.52-.75-3.52-2.06-5.19-7.69-8.06-12.95-6.66-4.81,1.28-8.05,5.09-8.45,10.19-.15,1.88.34,3.79,1.18,5.47.46.92,1.02,1.77,1.73,2.52,2.84,2.97,6.29,4.1,10.35,3.41.67-.12,1.32-.31,1.95-.57,1.93-.79,3.56-1.96,4.79-3.65.8-1.1,1.41-2.29,1.76-3.61.35-1.31.55-2.63.38-3.58Z"/>
  <path class="cls-1" d="m69.62,71.32c-4.68,0-9.36,0-14.03,0-.37,0-.5.06-.36.46,1.47,4.13,4.19,6.87,8.62,7.71,1.09.21,2.19.16,3.3.08,1.13-.09,2.2-.37,3.23-.79.96-.4,1.83-.97,2.67-1.59.79-.59,1.46-1.29,2.09-2.03.27-.32.56-.29.82-.09,1.96,1.49,3.93,2.96,5.94,4.39.23.16.27.3.09.53-1.67,2.16-3.62,4.01-6.04,5.29-3.44,1.83-7.1,2.67-11.02,2.54-4.45-.15-8.49-1.42-12.03-4.09-2.29-1.72-3.99-3.96-5.38-6.45-1.11-1.98-1.63-4.13-1.97-6.34-.7-4.64.32-8.94,2.66-12.96.87-1.49,1.92-2.83,3.18-4.02,3.13-2.96,6.83-4.71,11.09-5.27,3.59-.47,7.04.09,10.37,1.47,2.09.87,3.89,2.18,5.54,3.71,2.66,2.47,4.12,5.61,5.01,9.04.69,2.65.77,5.35.75,8.07,0,.41-.25.38-.53.38-4.66,0-9.32,0-13.99,0h0Zm-4.79-7.33c.96,0,1.93,0,2.89,0,2.11,0,4.22-.01,6.33.01.41,0,.43-.12.3-.44-.24-.59-.54-1.14-.84-1.7-.81-1.52-1.97-2.78-3.42-3.65-1.81-1.1-3.83-1.6-6-1.48-2.03.11-3.83.76-5.38,2.01-1.56,1.25-2.73,2.81-3.33,4.76-.16.51-.18.5.37.5,3.03,0,6.06,0,9.08,0Z"/>
  <path class="cls-1" d="m124.94,48.44c6.52.19,11.95,2.71,16.25,7.61.75.85,1.42,1.79,1.91,2.79,1.04,2.12,1.79,4.34,2.14,6.7.41,2.79.21,5.51-.61,8.19-.4,1.31-1.02,2.54-1.68,3.74-.65,1.2-1.44,2.3-2.31,3.33-1.18,1.41-2.53,2.64-4.13,3.61-2.43,1.48-4.98,2.62-7.78,3.14-1.91.35-3.84.42-5.79.26-3.34-.26-6.42-1.29-9.28-3-3.26-1.95-5.59-4.75-7.42-8.03-1.22-2.18-1.81-4.54-2.04-6.98-.42-4.39.78-8.39,3.12-12.09.95-1.51,2.11-2.81,3.45-3.97,1.77-1.54,3.72-2.82,5.9-3.69,2.64-1.05,5.39-1.63,8.25-1.63Zm-11.3,19.83c.04,6.02,4.93,11.15,11.11,11.15,6.14,0,11.16-4.96,11.17-11.27.01-6.34-4.99-11.22-11.12-11.23-5.58,0-11.17,4.37-11.17,11.34Z"/>
  <path class="cls-1" d="m237.64,65.83c0,6.85,0,13.7,0,20.55,0,.45-.11.56-.57.55-2.89-.03-5.78-.04-8.67-.02-.48,0-.58-.12-.58-.59.01-13.65,0-27.31,0-40.96,0-.56-.05-.62-.64-.62-2.49,0-4.97,0-7.46,0-2.32,0-4.63-.01-6.95,0-.45,0-.61-.12-.61-.6.02-2.51.01-5.02,0-7.53,0-.39.08-.52.5-.52,13.4.01,26.79.01,40.19,0,.38,0,.45.11.45.46-.01,2.57-.02,5.14,0,7.72,0,.38-.12.48-.48.48-4.9-.01-9.79,0-14.69-.03-.42,0-.52.1-.52.51.01,6.86,0,13.73,0,20.6h0Z"/>
  <path class="cls-1" d="m197.35,61.5c0-8.27,0-16.55-.01-24.82,0-.5.15-.59.61-.59,2.94.02,5.87.02,8.81,0,.33,0,.46.06.46.43-.01,8.58-.02,17.17-.02,25.75,0,8.03,0,16.05,0,24.08,0,.52-.15.66-.88.6-.63-.06-1.26-.05-1.9-.05-2.22,0-4.44,0-6.67.02-.38,0-.43-.13-.43-.45.01-1.84,0-3.69,0-5.53v-19.43Z"/>
  <path class="cls-1" d="m98.94,86.18c0,.15.02.31.02.46,0,.19-.08.27-.29.27-2.98-.01-5.97-.02-8.95-.02-.3,0-.36-.13-.36-.4,0-.93,0-1.86,0-2.79,0-15.72,0-31.45-.01-47.17,0-.36.09-.44.44-.44,2.89.01,5.78.02,8.67,0,.41,0,.49.18.49.51-.01,1.19-.03,2.37-.03,3.56,0,14.56,0,29.13,0,43.69,0,.77.01,1.55.02,2.32,0,0-.02,0-.02,0,0,0,.02,0,.02,0Z"/>
  <path class="cls-1" d="m41.41,102.88c-.12.09-.19.13-.24.18-1.11,1.18-2.45,1.53-4.01,1.1-3.69-1.01-4.99-5.29-2.45-8.11,1.82-2.02,5.19-2.1,7.21-.19.74.71.73.69-.04,1.31-.36.29-.57.16-.8-.13-1.24-1.51-3.76-1.55-5.06-.32-1.27,1.2-1.5,3.33-.46,4.75,1.06,1.46,3,1.9,4.46,1.02.64-.38,1.07-.94,1.29-1.64.14-.43.05-.52-.39-.52-.84,0-1.68-.01-2.52.01-.31,0-.4-.11-.42-.4q-.05-.97.91-.96c1.18.02,2.36.03,3.54.02.31,0,.41.08.4.39-.02.79-.04,1.58,0,2.37.04.67-.08,1.33-.02,2,.02.27-.04.38-.35.39-1.02.03-1.02.04-1.05-.98,0-.08,0-.15-.02-.31Z"/>
  <path class="cls-1" d="m119.15,104.14c-.4.02-.9.18-1.17-.05-.27-.23-.03-.75-.11-1.14-.16-.02-.23.09-.32.17-1.04,1.03-2.27,1.45-3.72,1.11-1.99-.47-3.25-1.7-3.87-3.64-.63-1.97.64-4.34,1.98-5.24,2.18-1.47,5.16-1,6.81.93.2.23.2.39-.05.55-.04.02-.07.06-.11.09q-.67.52-1.28-.06c-1-.98-2.24-1.2-3.52-.87-1.35.35-2.12,1.34-2.43,2.7-.51,2.2,1.54,4.79,4.15,4.17,1.1-.26,1.87-.9,2.21-2.01.16-.5.13-.53-.38-.53-.84,0-1.68,0-2.52.02-.31,0-.4-.1-.4-.4,0-.96-.02-.96.96-.95,1.18.01,2.36.01,3.54,0,.23,0,.35.04.35.3-.02,1.59-.03,3.19-.04,4.78-.03.02-.06.03-.09.05Z"/>
  <path class="cls-1" d="m77.61,104.16c-.83,0-1.5,0-2.17,0-.26,0-.34-.06-.34-.34.01-2.9,0-5.79,0-8.69,0-.42.1-.6.58-.57,1.19.07,2.4-.08,3.58.12.92.16,1.62.67,1.99,1.58.38.95.15,1.76-.57,2.43-.32.3-.24.42.1.61.84.49,1.38,1.21,1.3,2.22-.07.98-.58,1.68-1.44,2.21-1.03.64-2.13.31-3.03.42Zm-1-2.82c0,.26,0,.53,0,.79,0,.74,0,.75.77.75.69,0,1.39.05,2.06-.06.71-.11,1.14-.93,1.07-1.77-.03-.44-.72-1.08-1.25-1.17-.77-.12-1.55-.05-2.32-.07-.26,0-.35.11-.34.37.02.39,0,.77,0,1.16Zm0-4.14s0,0,0,0c0,.17,0,.34,0,.51,0,.87,0,.89.89.87.62-.02,1.25.14,1.82-.31.4-.32.66-.8.56-1.32-.08-.38-.62-.9-1-.96-.62-.1-1.25-.12-1.88-.12-.27,0-.4.07-.38.37.02.32,0,.65,0,.97Z"/>
  <path class="cls-1" d="m3.02,99.38c0-1.46,0-2.91,0-4.37,0-.31.06-.44.4-.43,1.21.04,2.43-.06,3.63.08,1.5.18,2.41,1.35,2.21,2.84-.07.53-.39.94-.79,1.28-.25.21-.21.34.06.46,1.34.62,1.74,2.11,1.15,3.43-.36.8-1.08,1.18-1.89,1.39-.33.08-.67.11-1.02.11-1.07,0-2.14-.02-3.22,0-.4,0-.55-.07-.54-.51.03-1.42.01-2.85.01-4.28Zm1.47,1.93h0c0,.4.01.81,0,1.21-.01.28.08.39.37.38.68-.02,1.37-.02,2.05-.04.87-.03,1.49-.63,1.52-1.44.03-.81-.55-1.48-1.41-1.55-.74-.06-1.49-.04-2.23-.06-.25,0-.32.1-.31.34.02.39,0,.77,0,1.16Zm0-4.15c0,.42,0,.78,0,1.14,0,.17.02.3.25.29.57-.01,1.15.03,1.72-.02.85-.07,1.36-.65,1.32-1.44-.03-.71-.61-1.22-1.42-1.24-.17,0-.34-.01-.51,0-.43.03-.99-.2-1.26.05-.3.28-.05.85-.1,1.22Z"/>
  <path class="cls-1" d="m20.92,99.42c0-1.47,0-2.94,0-4.41,0-.27.03-.44.37-.43,1.3.04,2.61-.06,3.91.08,1.74.19,3.04,1.09,3.81,2.62,1.51,2.98-.51,6.35-3.57,6.79-1.42.2-2.85.04-4.28.09-.33.01-.24-.22-.24-.38,0-1.45,0-2.91,0-4.36Zm1.49-.1c0,1.04,0,2.07,0,3.11,0,.32.09.44.43.42.57-.03,1.15,0,1.72-.03,1.77-.08,3.29-1.41,3.45-3,.18-1.8-.92-3.37-2.69-3.81-.82-.2-1.67-.07-2.5-.14-.34-.03-.41.11-.41.42.02,1,0,2.01,0,3.02Z"/>
  <path class="cls-1" d="m108.86,99.43c.1,1.39-.53,2.49-1.47,3.43-.89.89-1.99,1.46-3.26,1.48-3.19.03-5.32-2.39-5.32-5.01,0-2.54,2.13-4.85,5.12-4.85,2.35,0,5.11,2.03,4.93,4.95Zm-1.48,0c.11-1.66-1.46-3.85-3.91-3.55-1.67.2-3.14,1.57-3.16,3.43-.02,2.04,1.48,3.6,3.55,3.65,1.9.04,3.49-1.58,3.51-3.53Z"/>
  <path class="cls-1" d="m62.21,104.14q-1.64.1-2.17-1.37c-.4-1.11-.4-1.11-1.6-1.11-.95,0-1.89,0-2.84-.03-.35-.01-.54.11-.65.44-.2.6-.44,1.18-.64,1.78-.08.25-.22.34-.48.33-.39-.02-.77,0-1.18,0,.05-.45.28-.81.45-1.18.98-2.03,1.79-4.14,2.68-6.21.26-.61.5-1.23.73-1.85.1-.28.26-.37.55-.36.63.03,1.14-.08,1.47.8.98,2.62,2.19,5.16,3.21,7.77.13.33.29.64.46,1Zm-4.76-7.67c-.17.04-.19.14-.22.22-.47,1.09-.86,2.22-1.41,3.28-.16.3-.08.42.26.42.88,0,1.77-.06,2.65.02.34.03.24-.21.18-.37-.48-1.19-.97-2.37-1.46-3.57Z"/>
  <path class="cls-1" d="m123.24,101.24c.45-.09.88-.03,1.31-.05.18,0,.22.12.25.27.3,1.37,2,1.99,3.29,1.27.85-.47.86-1.61.03-2.13-.55-.34-1.19-.44-1.8-.61-.55-.16-1.08-.37-1.59-.64-1.45-.75-1.87-2.75-.64-4.01.52-.53,1.31-.78,2.1-.85.67-.06,1.33.04,1.94.3.41.18.78.49,1.06.85.36.46.58,1,.77,1.56.09.26,0,.35-.25.35-.3,0-.59,0-.89,0-.25,0-.31-.17-.37-.34-.49-1.22-1.16-1.61-2.46-1.42-.51.07-1.03.57-1.12,1.06-.09.55.16,1.06.71,1.33.53.26,1.1.41,1.67.58.44.13.89.26,1.33.43,1.03.39,1.57,1.17,1.61,2.26.04.93-.53,2.08-1.56,2.53-1.7.75-3.77.03-4.53-.9-.22-.27-.41-.55-.53-.87-.12-.31-.23-.63-.35-.96Z"/>
  <path class="cls-1" d="m155.42,104.29c-1.81-.02-3.26-.87-3.71-2.53-.14-.52-.11-.56.41-.57.11,0,.22.01.33,0,.41-.06.62.06.74.51.36,1.32,2.42,1.77,3.48.84.44-.39.48-1.45-.11-1.85-.49-.33-1.05-.46-1.6-.61-.72-.2-1.43-.42-2.07-.82-1.77-1.09-1.5-3.35.08-4.27,1.82-1.07,4.57-.54,5.3,2.2.02.08.09.21-.02.25-.29.08-.59.13-.9.14-.41.02-.52-.2-.63-.52-.44-1.31-1.72-1.49-2.74-1.13-.52.18-.81.61-.81,1.19,0,.56.35.88.8,1.1.62.29,1.28.47,1.93.66.57.16,1.12.35,1.64.65,1.43.83,1.24,3.42-.21,4.26-.59.34-1.21.49-1.88.51Z"/>
  <path class="cls-1" d="m11.04,99.4c0-1.44,0-2.88,0-4.32,0-.36.07-.52.49-.5,1.01.04,2.02.02,3.03.02.7,0,1.4-.06,2.1,0,.2.02.29.08.28.28,0,.02,0,.03,0,.05.07,1.04.07,1.03-.97,1.01-.96-.02-1.93-.01-2.89-.02-.37,0-.57.11-.54.55.04.59.03,1.18,0,1.76-.02.38.1.51.49.51,1.09-.02,2.17-.02,3.26-.01.58,0,.55.11.55.69,0,.67-.36.61-.8.6-1.02-.02-2.05,0-3.07-.02-.36,0-.45.12-.44.46.02.67.02,1.33,0,2-.01.34.12.42.43.42,1.18-.01,2.36,0,3.54-.02.34,0,.43.1.43.42,0,.91.01.91-.9.91-1.51,0-3.01-.01-4.52,0-.4,0-.49-.13-.48-.5.02-1.42,0-2.85,0-4.27Z"/>
  <path class="cls-1" d="m143.06,99.39c0,1.5.9,2.8,2.27,3.31,1.43.53,3,.15,3.97-1.02.29-.35.48-.34.82-.07.76.6.78.58.07,1.28-2.7,2.68-7.22,1.45-8.42-2.06-.22-.66-.41-1.37-.25-2.05.47-1.96,1.54-3.48,3.58-4.08,2.05-.6,3.82-.04,5.31,1.47.28.28.33.51-.05.73-.08.05-.16.1-.22.17-.35.34-.61.3-.95-.08-1.05-1.19-2.5-1.39-3.87-.92-1.39.48-2.25,1.83-2.25,3.32Z"/>
  <path class="cls-1" d="m83.21,99.52c0-1.38-.01-2.76.01-4.13,0-.24-.23-.5-.04-.69.23-.22.56-.1.85-.1,1.51,0,3.01.01,4.52,0,.31,0,.46.07.44.41-.01.21,0,.42.04.64.07.3-.21.26-.4.26-1.13,0-2.27.02-3.4-.01-.43-.01-.59.11-.55.55.07.64-.07,1.29.09,1.93.06.25.17.34.39.34,1.07,0,2.14,0,3.21-.01.37,0,.62-.05.53.5-.13.83-.07.82-.94.81-.98-.02-1.96,0-2.93-.02-.26,0-.37.07-.35.34.06.66.09,1.34.04,1.97-.06.75.32.55.68.55,1.06,0,2.11.01,3.17,0,.29,0,.45.06.4.38-.01.08.02.16,0,.23-.07.23.24.48.04.64-.2.15-.51.05-.77.05-1.54,0-3.08,0-4.61.01-.34,0-.45-.07-.44-.43.02-1.41,0-2.82,0-4.23Z"/>
  <path class="cls-1" d="m51.13,100.08c0,1.24-.01,2.48,0,3.71,0,.31-.09.38-.39.38-1.11,0-1.11.01-1.11-1.09,0-2.23-.01-4.46,0-6.69,0-.4-.13-.5-.5-.49-.71.03-1.43.01-2.14.04-.26,0-.35-.06-.36-.33-.04-1.04-.05-1.03,1.01-1.03,1.66,0,3.32,0,4.98.02.42,0,.83-.19,1.26,0,.14.06.22.09.21.24,0,.03,0,.06,0,.09-.02,1.2.16,1.04-.98,1-.54-.02-1.09,0-1.63-.03-.3-.02-.39.07-.39.38.02,1.27,0,2.54,0,3.81Z"/>
  <path class="cls-1" d="m134.99,103.94c-.03.05-.05.1-.08.16,0,0-.01.02-.01.02-.03.01-.06.03-.09.03q-1.36.12-1.36-1.22c0-2.25,0-4.5.02-6.75,0-.3-.18-.28-.37-.28-.75,0-1.49,0-2.23.03-.31.01-.4-.09-.4-.39,0-.95-.02-.95.91-.95,2.03,0,4.07.02,6.1,0,.32,0,.4.1.38.4-.01.21-.02.42.04.64.08.31-.19.27-.38.27-.85,0-1.71.01-2.56.02,0,0-.04,0-.04,0v.03c.01,2.5,0,5.01,0,7.51,0,.15-.03.31.06.45,0,0,0,.02,0,.02Z"/>
  <path class="cls-1" d="m62.8,99.44c0-1.44.01-2.88,0-4.32,0-.43.13-.56.56-.54.95.05.94.03.94.96,0,2.29,0,4.59-.01,6.88,0,.35.11.45.45.44,1.18-.02,2.36,0,3.54-.01.31,0,.39.1.4.39,0,.92.02.92-.91.92-1.52,0-3.05,0-4.57,0-.33,0-.41-.09-.41-.41.02-1.44,0-2.88,0-4.32h0Z"/>
  <path class="cls-1" d="m94.55,102.73c.14.18.34.12.52.12,1.16,0,2.33,0,3.49-.01.31,0,.41.09.42.39.03.94.04.94-.89.94-1.54,0-3.07,0-4.61,0-.32,0-.41-.09-.41-.42.02-2.86.02-5.73,0-8.59,0-.44.08-.67.58-.58.26.05.52.02.79.03,0,.03.02.04.05.04.02,0,.03.02.03.04-.01.08-.03.16.04.22,0,2.54,0,5.07-.01,7.61-.06.07-.06.13,0,.2Z"/>
  <path class="cls-1" d="m44.23,99.38c0-1.46,0-2.91,0-4.37,0-.34.09-.45.45-.44,1.05.04,1.05.03,1.05,1.07,0,2.53,0,5.05,0,7.58,0,.03.01.07,0,.09-.14.27.32.64-.03.79-.4.17-.89.08-1.34.04-.22-.02-.13-.25-.13-.39,0-1.46,0-2.91,0-4.37h0Z"/>
  <path class="cls-1" d="m32.21,99.33c0,1.47,0,2.94,0,4.41,0,.32-.08.43-.42.43-1.08,0-1.08.01-1.08-1.08,0-2.65.01-5.3,0-7.95,0-.44.11-.6.58-.57.92.06.92.03.91.94,0,1.27,0,2.54,0,3.81Z"/>
  <path class="cls-1" d="m122.12,99.39c0,1.47,0,2.94,0,4.41,0,.25-.05.35-.33.37-1.18.05-1.18.06-1.18-1.12,0-2.6,0-5.2.01-7.8,0-.68,0-.68.65-.66.85.02.84.02.83.86,0,1.31,0,2.63,0,3.94,0,0,0,0,.01,0Z"/>
  <path class="cls-1" d="m138.88,99.37c0-1.42.01-2.85,0-4.27,0-.39.09-.55.52-.52.98.05.97.03.97,1.04,0,2.63,0,5.26,0,7.89q0,.66-.65.66c-.84,0-.84,0-.83-.85,0-1.31,0-2.63,0-3.94h0Z"/>
  <path class="cls-1" d="m71.3,103.91c-.04.84-.42,1.47-1.15,1.88-.21.12-.46.21-.63-.03-.15-.23.1-.35.23-.49.03-.03.07-.06.11-.09.75-.6.75-.64-.01-1.18-.4-.28-.44-.54-.14-1.01.24-.37.68-.49,1.01-.31.49.27.59.72.58,1.23Z"/>
  <path class="cls-1" d="m94.55,102.73c-.06-.07-.05-.14,0-.2.23.07.08.14,0,.2Z"/>
  <path class="cls-1" d="m165.72,101.04c0,.12,0,.24,0,.37-.05-.12-.04-.24,0-.37Z"/>
  <path class="cls-1" d="m37.84,49.45c0-.1-.01-.19-.02-.29.05.09.05.19.02.29Z"/>
  <path class="cls-1" d="m165.69,94.55c.06.09.06.18.01.27,0-.09,0-.18-.01-.27Z"/>
  <path class="cls-1" d="m94.56,94.92c-.07-.06-.05-.14-.04-.22.08.06.07.14.04.22Z"/>
  <path class="cls-1" d="m37.82,50.39s0-.08.01-.12c0,.04,0,.08-.01.12Z"/>
  <path class="cls-1" d="m119.15,104.14s.06-.03.09-.05c0,.07-.05.06-.09.05Z"/>
  <polygon class="cls-1" points="134.94 95.95 134.93 95.92 134.96 95.92 134.96 95.95 134.94 95.95"/>
  <polygon class="cls-1" points="165.7 101.69 165.71 101.71 165.7 101.71 165.7 101.69"/>
  <polygon class="cls-1" points="165.69 101.97 165.72 101.97 165.72 102 165.69 101.99 165.69 101.97"/>
  <polygon class="cls-1" points="165.79 102.04 165.79 102.04 165.79 102.06 165.79 102.04"/>
  <polygon class="cls-1" points="165.72 95.47 165.72 95.49 165.7 95.48 165.72 95.47"/>
  <path class="cls-1" d="m165.71,95.09s0,0,0,0c0,0,0,0,0,0Z"/>
  <path class="cls-1" d="m94.49,94.65s-.05,0-.05-.04c0,0,.04,0,.04,0v.04Z"/>
  <path class="cls-1" d="m134.99,103.94s0-.02,0-.02c.01,0,.02,0,.03,0-.01,0-.02.02-.03.03Z"/>
  <polygon class="cls-1" points="98.94 86.18 98.92 86.17 98.94 86.17 98.94 86.18"/>
  <polygon class="cls-1" points="134.9 104.12 134.91 104.1 134.92 104.12 134.9 104.12"/>
  <path class="cls-1" d="m12.76,78.66c.12-.04.25-.04.37,0-.12,0-.25,0-.37,0Z"/>
</svg>