<?xml version="1.0" encoding="UTF-8"?>
<svg id="Belog" xmlns="http://www.w3.org/2000/svg" viewBox="0 0 256 142">
  <defs>
    <style>
      .cls-1 {
        fill: #2659fc;
      }
    </style>
  </defs>
  <path class="cls-1" d="m77.02,56.27c-.21.86-.34,1.75-.63,2.58-.65,1.84-.78,3.66-.22,5.54.24.82.41,1.66.57,2.5.21,1.14.08,2.25-.52,3.27-.35.59-.64,1.24-1.09,1.73-1.79,1.93-2.54,4.26-2.76,6.81-.18,2.05-1.09,3.64-2.89,4.69-.47.28-.92.6-1.4.87-1.64.9-2.89,2.17-3.83,3.77-.4.68-.8,1.36-1.24,2.01-.85,1.24-2,2.05-3.51,2.28-.85.13-1.69.29-2.54.39-1.46.19-2.78.7-3.95,1.61-.57.44-1.18.82-1.75,1.26-1.69,1.31-3.54,1.71-5.61,1.04-.42-.14-.87-.19-1.3-.32-1.79-.54-3.58-.53-5.37-.02-.46.13-.94.21-1.39.36-2.07.67-3.92.15-5.62-1.08-.39-.28-.76-.58-1.15-.87-1.41-1.07-2.93-1.9-4.74-2.05-.34-.03-.68-.13-1.02-.15-2.57-.2-4.5-1.4-5.64-3.71-1.19-2.43-2.98-4.23-5.38-5.45-.3-.15-.58-.37-.86-.57-1.17-.82-1.98-1.89-2.25-3.31-.19-.97-.36-1.95-.49-2.93-.23-1.7-.87-3.22-1.91-4.59-.88-1.14-1.69-2.32-2.13-3.72-.15-.47-.23-.91-.06-1.39.21-.61.29-1.27.53-1.87.81-2,.76-4,.19-6.04-.18-.66-.34-1.33-.47-2-.3-1.52-.03-2.92.92-4.18.62-.82,1.22-1.65,1.81-2.49.73-1.02,1.16-2.16,1.33-3.41.11-.85.28-1.69.37-2.54.19-1.83,1.24-3.07,2.72-4.02.69-.44,1.4-.86,2.11-1.27,1.33-.79,2.33-1.88,3.09-3.22.54-.95,1.14-1.86,1.79-2.75.72-.99,1.77-1.49,2.95-1.72.81-.16,1.62-.3,2.43-.4,1.68-.2,3.17-.81,4.5-1.85,1.19-.92,2.41-1.8,3.83-2.37.74-.3,1.41-.34,2.19-.08,1.13.38,2.3.67,3.47.92,1.33.28,2.66.17,3.97-.17.89-.24,1.79-.48,2.67-.75.68-.21,1.32-.2,2,.06,1.37.51,2.61,1.24,3.7,2.17,1.6,1.37,3.46,2.05,5.52,2.24.14.01.27.04.41.05,2.53.21,4.38,1.43,5.53,3.7.17.34.39.64.57.97.94,1.74,2.32,3.02,4.05,3.96.8.44,1.54,1.01,2.27,1.59.83.66,1.32,1.57,1.52,2.61.21,1.07.38,2.16.53,3.24.24,1.63.87,3.08,1.88,4.38.54.7,1.02,1.46,1.49,2.21.45.74.71,1.55.77,2.46Zm-35.91-17.98c-12.67.24-23.27,10.64-22.94,24.05.32,13.11,10.91,23.44,24.54,22.96,12.32-.44,23.54-10.86,22.39-25.52-1-12.63-11.59-21.77-23.98-21.49Z"/>
  <path class="cls-1" d="m175.77,33.6c.43,1.2.35,1.46-.79,1.85-1.4.48-2,1.46-2.02,2.87,0,.62,0,1.23,0,1.85,0,9.41,0,18.82,0,28.24,0,2.24.23,4.44,1,6.56.98,2.7,2.73,4.71,5.31,6,1.95.98,4.03,1.52,6.19,1.76,4.11.46,8.2.41,12.26-.48,1.55-.34,3.02-.92,4.36-1.75,2.8-1.72,4.37-4.28,4.97-7.46.23-1.2.37-2.44.38-3.66.03-10.1.02-20.19.02-30.29,0-.27,0-.55,0-.82,0-1.3-.53-2.24-1.8-2.69-.39-.14-.77-.29-1.23-.47-.03-.45-.05-.92-.09-1.54,1.86-.08,3.66-.03,5.46-.04,1.85,0,3.7,0,5.55,0,1.81,0,3.61,0,5.46,0,.03.39.05.65.07.92.03.48-.16.78-.66.88-.2.04-.39.12-.59.19-1.2.44-1.8,1.31-1.84,2.57-.02.68-.02,1.37-.02,2.05,0,9.72.01,19.44,0,29.16,0,3.13-.33,6.23-1.32,9.21-1.83,5.53-5.62,9.09-11.13,10.93-4.07,1.37-8.27,1.92-12.53,2-2.64.05-5.28.01-7.91-.16-3.87-.26-7.67-.91-11.31-2.39-5.72-2.32-9-6.58-10.31-12.51-.76-3.4-.77-6.85-.76-10.31.02-9,0-18-.02-27,0-.27-.02-.55-.01-.82.05-1.42-.65-2.31-1.95-2.8-1.11-.42-1.12-.49-.89-1.84h16.15Z"/>
  <path class="cls-1" d="m149.74,37.38c.36.24.67.44,1.04.69-2.53,4.23-5.04,8.41-7.54,12.59-1.02-.24-1.05-.24-.93-1.18.11-.88-.16-1.61-.7-2.28-.81-1.01-1.86-1.73-2.97-2.33-5.42-2.93-11.2-4.35-17.37-4.16-2.75.09-5.47.42-8.09,1.29-5.8,1.93-10.2,5.51-12.71,11.18-1.2,2.73-1.66,5.6-1.67,8.6-.01,3.02.43,5.92,1.57,8.72,1.42,3.47,3.79,6.17,6.82,8.29,3.56,2.5,7.59,3.69,11.91,4.07,3.17.27,6.29.13,9.4-.52,3.12-.65,6.01-1.88,8.74-3.48,1.33-.78,2.57-1.69,3.84-2.56.25-.17.48-.39.7-.61,1.18-1.16,1.32-1.86.67-3.39-.05-.13-.11-.25-.22-.48.46-.36.92-.72,1.46-1.14,3.13,3.88,6.22,7.7,9.36,11.58-.34.28-.65.53-1,.82-.38-.2-.74-.39-1.09-.58-.73-.4-1.41-.37-2.12.1-1.52.99-3.03,2-4.6,2.9-4.46,2.55-9.2,4.4-14.29,5.26-6.67,1.13-13.31,1.08-19.83-.92-7.66-2.34-13.82-6.71-17.98-13.65-2.09-3.49-3.23-7.29-3.58-11.35-.33-3.79-.1-7.52.95-11.18,1.73-6.05,5.3-10.82,10.23-14.64,4.08-3.17,8.72-5.11,13.78-6.09,5.77-1.11,11.5-.86,17.25.29,4.8.95,9.33,2.68,13.83,4.54.73.3,1.48.55,2.2.85.72.3,1.33.15,1.89-.35.31-.27.63-.52,1.04-.87Z"/>
  <path class="cls-1" d="m248.63,88.71c.03.32.08.59.08.86,0,.2-.05.4-.08.66h-16.31c-.38-1.24-.29-1.5.83-1.83,1.24-.37,1.91-1.15,1.99-2.43.04-.58.07-1.16.07-1.74,0-14.65,0-29.29,0-43.94,0-.82-.07-1.64-.11-2.46-.06-1.26-.77-1.98-1.92-2.38-1.17-.41-1.18-.46-.94-1.86h16.36v1.53c-.37.14-.72.26-1.07.39-1.19.44-1.83,1.27-1.82,2.56,0,.31,0,.62,0,.92,0,15.26,0,30.52,0,45.78,0,2.68.22,2.99,2.91,3.93Z"/>
  <path class="cls-1" d="m221.32,105.25c.94,0,1.75,0,2.57,0,.47,0,.62.32.72.72.41,1.62.84,3.24,1.26,4.86.08.32.17.64.43.98.29-1.08.57-2.17.89-3.25.32-1.08.69-2.14,1.08-3.33.78,0,1.56-.03,2.33,0,.63.03.7.15.73.85.08,1.71.15,3.42.23,5.13.06,1.29.13,2.59.19,3.98h-2.18c-.15-2.35-.33-4.75-.4-7.2-.14.37-.3.73-.41,1.1-.48,1.57-.95,3.14-1.4,4.72-.38,1.32-.41,1.35-1.75,1.29-.13,0-.27-.04-.51-.08-.59-2.27-1.19-4.56-1.79-6.85-.05,0-.09.02-.14.03-.11,2.34-.23,4.67-.34,7.03h-2.1c.2-3.31.39-6.57.6-10Z"/>
  <path class="cls-1" d="m76.36,115.25h-2.03v-9.88c.75-.28,1.53-.15,2.3-.09.23.02.49.35.63.6.98,1.8,1.93,3.62,2.9,5.43.07.13.16.26.39.35-.05-2.09-.1-4.18-.16-6.35h2.03c.27.76.28,8.86-.01,10-.56,0-1.17.05-1.77-.02-.25-.03-.55-.28-.68-.51-.97-1.73-1.9-3.48-2.84-5.23-.22-.4-.44-.8-.7-1.28,0,1.3,0,2.45,0,3.59,0,1.12-.03,2.24-.05,3.4Z"/>
  <path class="cls-1" d="m29.78,111.78v-6.45h2v9.9c-.67.03-1.35.13-2,.04-.29-.04-.59-.44-.76-.75-.75-1.34-1.46-2.71-2.18-4.06-.38-.72-.75-1.44-1.27-2.11v6.84h-1.86c-.21-.69-.24-8.74-.01-9.94.68,0,1.39,0,2.1,0,.45,0,.63.31.82.66,1.01,1.9,2.04,3.79,3.17,5.88Z"/>
  <path class="cls-1" d="m170.42,115.17v-9.65s.08-.09.14-.1c1.73-.3,3.48-.38,5.2.03,2.35.55,3.67,2.46,3.49,4.87-.07.89-.23,1.75-.7,2.55-.58.99-1.37,1.7-2.47,2.04-1.83.55-3.68.67-5.65.27Zm2.28-1.73c2.15.45,3.82-.59,4.07-2.52.07-.53.06-1.1-.03-1.63-.31-1.83-2.2-2.82-4.04-2.1v6.25Z"/>
  <path class="cls-1" d="m195.83,115.09v-9.64c.38-.06.75-.16,1.11-.18.92-.04,1.86-.12,2.77-.03.84.08,1.69.29,2.47.59,1.15.44,1.89,1.33,2.23,2.52.39,1.39.4,2.77-.22,4.1-.41.89-1.04,1.6-1.9,2.09-1.54.87-4.62,1.15-6.45.55Zm2.28-8v6.36c1.67.28,2.92-.16,3.6-1.24.67-1.06.64-3.14-.06-4.11-.72-.99-2.08-1.38-3.54-1.01Z"/>
  <path class="cls-1" d="m59.86,110.32c-.18.75-.27,1.58-.57,2.32-.95,2.33-3.53,3.06-5,2.83-2.29-.36-3.86-2.09-4.13-4.47-.13-1.19.06-2.32.62-3.38.9-1.71,2.78-2.71,4.68-2.55,2.47.21,3.65,1.88,4.09,3.47.15.55.21,1.14.32,1.78Zm-2.49-.34c.02-.74-.2-1.69-.97-2.43-.92-.89-2.12-.85-2.98.09-1.13,1.23-1.15,4.02-.03,5.25.85.95,2.2.96,3.08.03.7-.75.9-1.67.91-2.94Z"/>
  <path class="cls-1" d="m166,110.15c-.1.64-.15,1.3-.32,1.91-.66,2.29-2.71,3.44-4.7,3.45-2.02,0-4-1.64-4.49-3.61-.23-.95-.25-1.88-.04-2.84.58-2.61,2.76-4.26,5.29-3.99,2.55.27,4.25,2.32,4.26,5.07Zm-7.35-.04c.14.75.18,1.37.39,1.93.34.88,1,1.47,1.98,1.56.92.09,1.61-.38,2.01-1.16.74-1.45.78-2.98-.03-4.41-.89-1.56-2.86-1.53-3.71.05-.34.64-.45,1.4-.64,2.02Z"/>
  <path class="cls-1" d="m209.8,110.32c.15-.73.21-1.49.47-2.18.95-2.52,3.29-3.22,4.95-3.06,2.2.21,3.82,1.78,4.19,4.01.18,1.06.13,2.11-.23,3.14-.76,2.15-3.02,3.63-5.12,3.26-2.89-.5-4.15-2.72-4.16-4.74,0-.14,0-.27,0-.41-.04,0-.07-.01-.11-.02Zm7.32.14c-.15-.76-.19-1.5-.45-2.15-.62-1.59-2.6-1.88-3.65-.6-1,1.23-1.03,3.78-.06,5.01,1.04,1.31,2.88,1.17,3.62-.34.29-.59.37-1.29.54-1.92Z"/>
  <path class="cls-1" d="m143.82,105.43c.39-.07.76-.17,1.12-.18.89-.03,1.78-.06,2.67-.02.54.03,1.1.12,1.6.3,1.95.72,2.38,3.09.84,4.48-.18.16-.37.3-.5.39.38.79.8,1.52,1.08,2.3.29.8.43,1.65.66,2.58-.66,0-1.26,0-1.86,0-.37,0-.55-.23-.64-.56-.16-.59-.33-1.18-.49-1.78-.36-1.34-.72-1.61-2.32-1.6v3.89h-2.04c-.25-.67-.36-7.16-.15-9.81Zm2.25,4.13c.32.04.52.08.72.08.27,0,.55-.02.81-.08.62-.13,1.11-.69,1.13-1.27.02-.62-.39-1.16-1.05-1.32-.52-.13-1.06-.14-1.6.05v2.53Z"/>
  <path class="cls-1" d="m49.4,115.21c-.21.06-.3.11-.4.11-2.32-.06-1.87.26-2.46-1.82-.07-.23-.1-.47-.16-.7-.33-1.27-.62-1.47-2.19-1.46v3.87h-2.13c-.21-.71-.29-8.22-.11-9.79.26-.05.55-.16.85-.17,1.06-.03,2.12-.04,3.18-.03.37,0,.75.08,1.11.19,1.07.32,1.8.99,1.98,2.12.18,1.08-.25,1.93-1.08,2.61-.13.11-.28.19-.52.33,1.45,1.28,1.39,3.09,1.93,4.72Zm-5.19-5.63c.8.2,1.46.11,2.04-.29.74-.51.76-1.41.09-2-.65-.57-1.37-.41-2.13-.27v2.57Z"/>
  <path class="cls-1" d="m106.11,115.32v-9.88c.25-.06.47-.16.7-.17,1.13-.02,2.26-.08,3.39,0,.6.04,1.23.21,1.75.49,1.54.85,1.77,2.86.52,4.11-.24.23-.51.43-.82.7,1.48,1.24,1.28,3.09,1.92,4.61-.16.07-.19.1-.22.1-2.41.02-2.07.27-2.65-1.95-.03-.1-.05-.2-.07-.3-.35-1.48-.62-1.69-2.28-1.67v3.87c-.76.04-1.43.07-2.24.11Zm2.27-5.82c.92.24,1.76.27,2.37-.56.34-.46.33-1.12-.07-1.52-.65-.66-1.45-.61-2.3-.41v2.49Z"/>
  <path class="cls-1" d="m70.04,105.3h2.12c.07.1.14.15.14.21.01,2.09.14,4.18,0,6.26-.2,2.91-3.1,4.54-5.8,3.4-1.27-.54-2.02-1.53-2.18-2.88-.11-.88-.07-1.78-.08-2.66-.01-1.4,0-2.8,0-4.24.76-.22,1.45-.17,2.26,0,0,.45,0,.89,0,1.33,0,1.51-.03,3.01.02,4.52.02.53.17,1.08.38,1.57.25.58.79.84,1.43.82.68-.02,1.21-.32,1.46-.95.16-.4.25-.86.26-1.29.03-1.64.01-3.29.01-4.93,0-.34,0-.68,0-1.15Z"/>
  <path class="cls-1" d="m235,115.22h-2.3c1.02-3.36,2.01-6.61,3.02-9.92h3.01c1.02,3.32,2.03,6.6,3.07,10-.73,0-1.36,0-2,0-.38,0-.55-.23-.65-.54-.14-.46-.28-.91-.39-1.38-.11-.47-.34-.71-.85-.69-.68.02-1.36,0-2.11,0-.28.87-.55,1.7-.82,2.53Zm2.21-7.85c-.07.01-.14.03-.2.04-.3,1.15-.59,2.3-.9,3.52h2.12c-.36-1.25-.69-2.41-1.01-3.56Z"/>
  <path class="cls-1" d="m142.48,115.28h-2.41c-.29-.84-.57-1.67-.89-2.59-.71,0-1.43,0-2.14,0-.44,0-.7.23-.8.65-.11.43-.25.86-.33,1.29-.08.44-.29.67-.75.67-.54,0-1.09,0-1.69,0,.02-.24,0-.41.05-.56.88-2.88,1.76-5.76,2.65-8.63.26-.84.27-.84,1.13-.86.48,0,.96.02,1.44,0,.48-.01.73.21.87.68.75,2.49,1.53,4.97,2.29,7.45.19.61.37,1.23.58,1.91Zm-3.58-4.34c-.35-1.3-.67-2.47-.98-3.64-.05,0-.1-.01-.15-.02-.32,1.2-.65,2.4-.99,3.66h2.12Z"/>
  <path class="cls-1" d="m104.2,107.15h-3.63v2h3.5v1.85h-3.5v2.37c1.3.03,2.61.06,3.98.09v1.79h-6.32v-9.96h5.96c.28.59.22,1.18.01,1.86Z"/>
  <path class="cls-1" d="m15.72,115.24v-9.99c2.04-.04,4.06-.09,6.15.02v1.81h-3.86v2.08h3.53v1.81h-3.56v2.41h3.95v1.85h-6.21Z"/>
  <path class="cls-1" d="m180.82,105.27h5.98v1.86h-3.77v1.98h3.56v1.91h-3.52v2.4h3.99v1.8h-6.18c-.22-.67-.29-8.52-.06-9.94Z"/>
  <path class="cls-1" d="m87.94,105.23c.64,0,1.15.04,1.66,0,.61-.06.85.24.99.78.52,1.95,1.06,3.89,1.59,5.83.07.24.15.48.3.96.75-2.61,1.44-4.98,2.13-7.38.78-.29,1.55-.14,2.39-.12-.02.2-.02.36-.07.51-.98,2.91-1.97,5.82-2.93,8.74-.16.5-.43.72-.94.77-1.88.18-1.96.14-2.53-1.63-.84-2.6-1.67-5.2-2.5-7.8-.05-.16-.05-.33-.09-.63Z"/>
  <path class="cls-1" d="m249.02,105.53c.15.68-.1,1.22-.37,1.76-.72-.1-1.38-.25-2.05-.26-.38,0-.82.13-1.13.36-.52.38-.47.88.11,1.24.49.3,1.06.48,1.56.77.62.35,1.27.69,1.79,1.16.99.91,1.05,2.27.21,3.33-.89,1.13-2.12,1.63-3.5,1.63-.77,0-1.54-.26-2.31-.43-.4-.09-.56-.37-.48-.77.09-.43.2-.85.31-1.34.38.12.7.27,1.02.31.74.09,1.48.15,2.23.15.4,0,.67-.28.79-.69.12-.42-.02-.76-.35-.99-.36-.25-.76-.45-1.15-.65-.49-.24-1.02-.41-1.49-.69-1.64-.98-1.88-2.93-.5-4.24.38-.36.89-.66,1.39-.83,1.31-.42,2.62-.26,3.92.19Z"/>
  <path class="cls-1" d="m120.88,105.67c-.14.52-.29,1.07-.46,1.66-.62-.11-1.18-.23-1.74-.3-.3-.04-.62-.02-.91.03-.48.09-.89.4-.87.87.01.29.35.63.63.82.39.26.87.39,1.3.6.46.23.94.44,1.34.75,1.65,1.26,1.47,3.7-.34,4.71-1.57.87-3.2.84-4.85.2-.39-.15-.51-.41-.4-.81.1-.36.17-.72.28-1.18.32.09.6.2.88.24.74.09,1.48.17,2.23.19.49.01.81-.29.95-.79.14-.54-.15-.87-.54-1.1-.41-.24-.87-.39-1.3-.6-.46-.22-.95-.41-1.36-.71-1.59-1.15-1.5-3.44.17-4.48,1.05-.65,3.16-1.08,5-.11Z"/>
  <path class="cls-1" d="m14.37,105.48c-.19.72-.33,1.24-.49,1.84-.37-.08-.66-.14-.95-.19-1.28-.25-2.49-.16-3.39.9-.96,1.13-.99,2.48-.49,3.78.39,1.02,1.27,1.62,2.39,1.66.78.03,1.56-.07,2.44-.11.09.51.2,1.06.29,1.58-1.8.89-3.49.71-5.14-.05-1.82-.84-2.84-2.81-2.65-4.91.34-3.73,3.42-5.08,6.07-4.87.6.05,1.18.23,1.91.38Z"/>
  <path class="cls-1" d="m133.95,105.36v1.79c-.5,0-.93,0-1.36,0-.4,0-.81,0-1.35,0-.04,1.41-.02,2.72-.02,4.04,0,1.32,0,2.64,0,4.03h-2.22v-8.05h-2.65v-1.76c.72-.24,6.19-.3,7.62-.06Z"/>
  <path class="cls-1" d="m38,107.12v8.09h-2.3v-8.03h-2.61v-1.78c.83-.24,6.45-.25,7.59,0v1.73h-2.68Z"/>
  <path class="cls-1" d="m206.12,115.21v-9.88h2.24c.11,3.27.06,6.54.02,9.88h-2.26Z"/>
  <path class="cls-1" d="m122.84,115.23v-9.92h2.2c.02.28.04.5.04.73.03,2.76.05,5.52.09,8.29.01.87-.07.99-.98,1-.27,0-.55-.01-.82-.02-.13,0-.27-.03-.53-.07Z"/>
  <path class="cls-1" d="m154.79,115.24h-2.05c-.23-.82-.27-8.75-.06-9.9.68-.21,1.37-.09,2.11-.04v9.93Z"/>
  <path class="cls-1" d="m193.83,115.23h-2.15v-9.88c.7-.24,1.39-.11,2.15-.02v9.89Z"/>
  <path class="cls-1" d="m84.57,105.29h2.14v9.97h-2.14v-9.97Z"/>
  <path class="cls-1" d="m51.18,75.77c-1.55.18-2.24,1.51-3.52,2.17.06-.22.09-.37.15-.58-.68,0-1.03.62-1.66.78.07-.2.13-.37.21-.57-.47-.39-.88.24-1.42.09.24-.26.45-.49.66-.72-.02-.05-.04-.1-.06-.15-.55.11-1.09.22-1.87.37.25-.23.35-.31.44-.4.09-.09.23-.19.25-.3.02-.15-.05-.32-.09-.49,1.58-.3,3.16-.58,4.72-.91.38-.08.73-.31,1.11-.46.17-.07.36-.15.54-.15.64.02.99-.17,1.1-.74.1-.49.12-1,.19-1.68-.45.21-.78.36-1.1.51-2.58,1.17-5.27,2.05-8.13,1.85-2.8-.2-5.58-.64-8.2-1.76-1.76-.75-3.27-1.85-4.45-3.38-.75-.98-1.24-2.04-1.18-3.31.02-.41,0-.82,0-1.29-2.42-.72-3.89-2.8-6-3.92-.11-.06-.19-.18-.36-.33.26-.22.49-.39.7-.59.67-.61,1.21-1.3,1.28-2.26.08-1.15-.13-2.13-1.54-2.59.35-.2.55-.37.79-.45,2.1-.71,4.21-1.41,6.32-2.11,3.28-1.1,6.55-2.2,9.82-3.32.63-.22,1.17-.18,1.75.17.7.43,1.45.76,2.19,1.12,4.25,2.06,8.64,3.82,12.79,6.07.45.24.91.48,1.34.75,1.41.88,2.02,2.2,2,3.81-.02,1.21-.29,2.37-.8,3.48-.27.6-.71.96-1.3,1.24-1.08.5-2.13,1.08-3.2,1.62-.48.24-.75.57-.66,1.14.03.2-.02.41,0,.61.12.88-.19,1.55-.96,1.99-.55.32-.71.78-.64,1.38.03.27,0,.55.05.82.11.73-.06,1.26-.84,1.51-.43.13-.69.45-.44.97Zm-26.79-15.45c.72.6,1.27,1.11,1.87,1.56.4.3.86.54,1.3.79,1.45.84,2.99,1.54,4.32,2.54,1.24.94,2.48,1.82,3.87,2.5.74.36,1.43.81,2.17,1.17,1.44.71,2.89,1.39,4.36,2.05.28.13.68.15.98.07.72-.21,1.63-1.77,1.34-2.44-.29-.67-.69-1.45-1.28-1.8-1.45-.89-3.03-1.57-4.57-2.32-.98-.48-2.01-.86-2.96-1.4-2.31-1.32-4.4-3.03-6.92-3.99-.35-.13-.64-.4-.97-.58-.79-.43-1.59-.83-2.61-1.37.26,1.39.25,2.51-.9,3.21Zm28.08,7.21c.34-.13.59-.2.82-.33,1.22-.69,2.41-1.44,3.66-2.08,1.86-.95,2.32-2.57,2.28-4.46-.01-.57-.23-1.06-.8-1.43-1.79.89-3.6,1.78-5.39,2.69-.19.09-.4.33-.42.52-.19,1.65-.23,3.31-.14,5.09Zm-7.42-1.16c.27.89.63,1.65.7,2.43.06.77-.17,1.56-.31,2.58,2.21-1.22,4.22-2.33,6.15-3.4v-5.23c-2.39,1.09-4.51,2.34-6.54,3.61Z"/>
</svg>