<?xml version="1.0" encoding="UTF-8"?>
<svg id="Belog" xmlns="http://www.w3.org/2000/svg" viewBox="0 0 256 142">
  <defs>
    <style>
      .cls-1 {
        fill: #2054fd;
      }
    </style>
  </defs>
  <path class="cls-1" d="m165.96,30.32c-.32,4.76-.64,9.57-1.02,15.34,16.76-5.4,32.86-10.58,49.21-15.85-.93,4.15-1.8,8.06-2.67,11.96-.13-.01-.26-.03-.4-.04.11-2.59.23-5.18.36-8.27-17.74,4.16-34.27,10.73-50.68,17.76,30.15-4.81,60.4-8.31,90.97-9.91-1.57,6.99-3.09,13.77-4.66,20.78v-14.86c-4.53.26-9.15.36-13.73.8-35.43,3.39-69.66,12.36-103.62,22.52-1.06.32-2.19.52-3.15,1.03-4.53,2.38-7.77.5-10.55-3.05-1.49-1.91-2.96-3.83-4.49-5.81,18.22-10.85,36.21-21.56,54.41-32.39Zm-30.08,23.54c.55.24.77.43.92.38,8.77-2.67,17.55-5.34,26.29-8.12.61-.2,1.38-1.24,1.36-1.87-.08-3.29-.39-6.57-.65-10.33-10.35,5.46-19.15,12.49-27.92,19.93Z"/>
  <path class="cls-1" d="m52.93,84.67v-12.61h7.94v39.16h-7.29c-.12-1.07-.25-2.12-.37-3.15-.27,0-.59-.09-.67.01-2.62,3.38-5.98,4.86-10.19,3.71-4.25-1.16-6.41-4.47-7-8.44-.58-3.87-.73-7.93-.25-11.81,1.09-8.95,9.67-13.35,17.83-6.88Zm.11,12.01c-.13-1.7-.15-3.59-.46-5.43-.35-2.12-1.55-4.16-3.83-3.74-1.64.3-4.08,1.86-4.31,3.18-.67,3.83-.65,7.83-.4,11.73.14,2.24,1.95,4.25,4.28,3.59,1.69-.48,3.37-2.29,4.23-3.93.75-1.42.36-3.45.48-5.4Z"/>
  <path class="cls-1" d="m148.75,111.38h-7.28c-.27-1.11-.55-2.24-.93-3.82-2.52,3.06-5.56,4.68-9.39,4.59-4.61-.11-7.89-2.38-8.74-6.15-.94-4.21.83-8.4,4.92-10.16,2.69-1.16,5.72-1.53,8.62-2.15,1.38-.3,2.81-.36,4.25-.54.52-2.61.33-4.85-2.19-5.78-2.58-.95-4.91-.39-6.69,2.1-.57.81-1.93,1.35-2.98,1.45-1.6.15-3.24-.18-5.13-.34.38-3.23,1.72-5.48,4.33-6.87,5.29-2.82,10.84-2.93,16.37-.99,2.92,1.02,4.76,3.28,4.79,6.52.07,7.26.02,14.52.02,22.12Zm-7.66-13.01c-.41-.38-.82-.76-1.24-1.14-2.12.73-4.45,1.13-6.3,2.3-1.15.73-2.11,2.57-2.18,3.96-.05,1.05,1.34,2.94,2.3,3.08,1.52.22,3.91-.19,4.66-1.25,1.4-1.97,1.89-4.59,2.76-6.94Z"/>
  <path class="cls-1" d="m31.82,98.11H13.85c-.84,4.14.24,6.57,3.15,7.69,3.17,1.21,5.13.15,7.61-4.27,2.17.17,4.44.34,6.74.52-1.07,7.04-7.38,11.06-15.22,9.98-7.98-1.1-12.83-8.35-11.74-17.55,1.03-8.65,7.64-13.88,16.2-12.82,7.37.92,12.12,7.7,11.22,16.45Zm-8.36-4.88c-.12-4.23-1.94-6.39-4.97-6.25-3.11.14-4.99,2.58-4.64,6.25h9.61Z"/>
  <path class="cls-1" d="m65.33,82.4h7.72c0,3.69,0,7.39,0,11.1,0,2.43-.01,4.86.02,7.3.03,2.35.4,4.54,3.39,4.76,2.53.19,4.87-1.9,4.98-4.71.17-4.31.04-8.62.11-12.93.1-6.42-1.12-5.63,5.87-5.7.66,0,1.31.09,2.26.16v28.88h-7.12c-.19-.99-.41-2.11-.76-3.94-2.45,3.98-5.81,5.14-9.8,4.8-3.74-.32-6.38-2.12-6.54-5.79-.35-7.9-.11-15.82-.11-23.92Z"/>
  <path class="cls-1" d="m120.23,92.62c-2.38.14-4.74.28-7.18.43-.36-.92-.45-1.82-.95-2.28-1.22-1.12-2.59-2.77-3.97-2.84-1.4-.07-3.56,1.14-4.21,2.4-2.07,4-1.95,8.42-.24,12.51,1.27,3.06,6.09,3.69,7.32.87,2.24-5.12,5.79-3.15,9.26-2.85-.68,5.89-3.79,9.48-9.25,10.85-5.97,1.49-11.99-.49-15.1-4.96-3.62-5.2-3.72-13.89-.24-19.19,3.17-4.83,9.53-7.18,15.52-5.74,5.13,1.23,8.5,5.15,9.03,10.81Z"/>
  <path class="cls-1" d="m203.65,85.74c0-2.88-.14-5.77.05-8.64.11-1.62-1.08-4.09,1.78-4.37.36-.03,1.4,2.76,1.42,4.25.13,10.16.11,20.32,0,30.48-.01,1.2-.82,2.39-1.26,3.58-.62-1.01-1.23-2.02-1.86-3.03-.16-.26-.35-.51-.71-1.01-.73.56-1.45,1.01-2.03,1.59-4.64,4.6-9.97,4.5-14.39-.31-5.46-5.94-4.95-18.66.96-24,3.6-3.25,9.31-3.26,13.04,0,.63.55,1.27,1.08,1.91,1.62.36-.06.72-.11,1.08-.17Zm.03,9.77c-.1-1.05-.13-2.83-.45-4.56-.62-3.41-3.66-6.24-6.98-6.66-3.36-.43-6.7,1.52-8.13,5-2.01,4.92-1.8,9.91-.03,14.85,1.75,4.88,6.99,6.46,11.31,3.6,4.29-2.84,4.17-7.18,4.26-12.23Z"/>
  <path class="cls-1" d="m177.4,104.86c-2.88,5.14-7.9,7.78-12.97,6.97-5.95-.95-9.62-4.56-10.73-10.59-.78-4.2-.88-8.34,1.12-12.31,2.74-5.43,8.41-8.19,14.06-6.79,5.57,1.38,9.54,6.67,9.16,12.58-.05.71-1.62,1.86-2.52,1.89-4.86.19-9.73.07-14.6.09-3.84.02-4.23.61-3.71,4.27.58,4.08,2.82,6.79,6.65,7.84,3.82,1.05,7.27,0,9.72-3.32,1.06-1.43,2.05-2.36,3.82-.63Zm-11.72-10.56s0,.02,0,.03c1.99,0,3.98-.04,5.98,0,2.51.06,3.02-1.31,2.58-3.44-.88-4.26-4.29-6.96-8.58-6.74-3.86.19-8.07,4.06-8.17,7.83-.02.75,1.14,2.09,1.9,2.21,2.06.31,4.19.11,6.29.11Z"/>
  <path class="cls-1" d="m232.5,105.82c-1.16,1.31-1.86,1.99-2.43,2.76-2.14,2.94-5.17,3.77-8.5,3.21-3.25-.54-5.93-2.45-6.63-5.74-.74-3.52-.83-7.2-1-10.81-.15-3.31-.15-6.64.06-9.95.05-.88,1.09-1.69,1.68-2.54.59.89,1.65,1.75,1.68,2.66.17,5.3.06,10.61.13,15.92.06,4.3,1.6,6.75,4.6,7.53,3.41.9,7.33-.56,8.89-4.12,1.15-2.62,1.49-5.7,1.7-8.6.25-3.4-.18-6.86.02-10.27.06-.99,1.27-1.9,1.95-2.85.5.95,1.42,1.9,1.44,2.86.12,7.41.11,14.82,0,22.23-.01.99-.83,1.97-1.27,2.96-.58-.87-1.23-1.71-1.71-2.63-.28-.53-.29-1.2-.61-2.62Z"/>
</svg>