<?xml version="1.0" encoding="UTF-8"?>
<svg id="Belog" xmlns="http://www.w3.org/2000/svg" viewBox="0 0 256 142">
  <defs>
    <style>
      .cls-1 {
        fill: #2054fd;
      }
    </style>
  </defs>
  <path class="cls-1" d="m142.38,21.96c.86,0,1.3,0,1.75,0,7.18,0,14.36-.02,21.54,0,4.84.02,8.61,2.04,11.31,6.07,1.05,1.57,1.48,3.33,1.6,5.14.03.46-.62,1-1.01,1.45-.3.34-.71.6-1.06.9.28.27.52.63.85.81,1.15.62,1.59,1.52,1.6,2.83.03,5,.22,10,.19,15.01-.02,2.55-.37,5.1-.6,7.65-.27,2.88-1.87,4.97-4.09,6.67-1.59,1.21-1.68,1.34-.1,2.44,3.09,2.15,4.08,5.2,4.09,8.71.03,10.09.01,20.19,0,30.28,0,2.32.55,4.42,2.31,6.07,1.3,1.21,1.72,1.14,2.63-.37.87-1.46,1.19-3.02,1.3-4.71.2-3.16.54-6.33,1-9.47.23-1.55.64-2.98.58-4.65-.14-3.44.42-6.9.7-10.36.22-2.71.48-5.42.68-8.14.33-4.53.62-9.06.92-13.59.19-2.93.37-5.85.58-8.78.3-4.32.63-8.65.92-12.97.27-4.08.57-8.16.75-12.24.1-2.19-.42-4.26-1.87-6.03-.26-.31-.31-.8-.45-1.21.42-.1.85-.33,1.25-.29,1.62.18,3.23.61,4.85.65,4.53.11,9.07.3,13.55-.77,1.02-.24,2.15-.15,3.22-.09,1.31.08,1.97.94,1.3,2.02-2.32,3.76-.93,7.74-.9,11.63,0,1.48.21,2.96.31,4.45.33,4.9.64,9.81.97,14.71.34,4.94.67,9.89,1.05,14.83.45,5.76.95,11.52,1.41,17.29.28,3.42.53,6.83.81,10.25.41,4.94.73,9.89,1.33,14.8.16,1.29,1.21,2.47,1.82,3.72.2.41.54,1,.39,1.28-.18.33-.81.58-1.26.59-5.27.12-10.53.2-15.8.26-.38,0-.91-.13-1.08-.39-.13-.2.1-.77.32-1.06,1.79-2.24,2.37-4.72,1.89-7.56-.26-1.53-.21-3.13-.14-4.69.11-2.41-.56-3.18-2.96-3.18-2.7,0-3.57.79-3.68,3.47-.12,2.84-.29,5.68-.2,8.52.04,1.23.67,2.45,1.07,3.67.29.87.02,1.23-.9,1.24-3.52.06-7.05.17-10.57.21-1.07.01-2.18,0-3.21-.27-4.62-1.19-9.33-.55-13.99-.7-1.24-.04-2.49-.03-3.73,0-.81.02-1.16-.31-1.08-1.1.18-1.81.38-3.61.55-5.42.16-1.73.41-3.45.42-5.18.05-8.69.03-17.38.02-26.07,0-2.8-1.46-4.49-4.12-4.89-1.43-.22-2.11.29-2.29,1.71-.05.41-.04.83-.04,1.24,0,11.09.01,22.18-.03,33.27,0,1.78.43,3.33,1.5,4.74.24.32.47.92.33,1.18-.16.29-.75.48-1.16.49-4.89.11-9.79.21-14.68.24-.57,0-1.39-.19-1.64-.58-.21-.32.16-1.14.45-1.62,1.16-1.88,1.77-3.88,1.76-6.1-.02-8.15-.03-16.3,0-24.45.06-17.17.17-34.33.23-51.5,0-1.82.08-3.68-.31-5.43-.36-1.65-1.27-3.18-1.98-4.75-.25-.54-.61-1.03-1.11-1.88Zm16.39,36.75c.09,0,.17,0,.26,0,0,1.28.02,2.56,0,3.84-.02.93.4,1.42,1.31,1.66,2.12.57,4.13-.37,4.79-2.61.42-1.44.53-3,.57-4.51.14-4.95.2-9.9.24-14.86.01-1.15-.07-2.31-.26-3.45-.44-2.67-1.85-3.87-4.54-4-1.9-.09-2.35.33-2.35,2.25,0,7.22,0,14.45,0,21.67Zm39.28,30.77s.04,0,.05,0c0,.12-.01.25-.02.37-.13,1.54.22,1.88,2.14,2.09,2,.22,3.29-.35,3.48-1.55.02-.12.02-.25.01-.37-.09-.99-.2-1.97-.29-2.95-.54-5.91-1.06-11.82-1.62-17.73-.12-1.27-.33-2.54-.56-3.79-.06-.3-.4-.55-.61-.82-.18.28-.49.54-.52.83-.21,1.88-.37,3.77-.53,5.66-.51,6.08-1.02,12.17-1.53,18.25Zm12.81-23.7c-.12-.12-.25-.24-.37-.36-.39.18-.79.34-1.16.56-1.07.64-1.28.51-1.57-.66-.1-.42-.61-1.07-.88-1.05-.71.07-1.43.39-2.04.77-.11.07.15,1.09.49,1.41,1.33,1.29,1.51,1.99.81,3.73-.15.38-.1.83-.14,1.25.46-.07,1,0,1.37-.22,2.13-1.23,2.32-3.62,3.48-5.44Zm-1.83-24.97c-.07-.09-.14-.17-.21-.26-.07-.4-.11-.82-.23-1.21-.44-1.45-1.21-1.73-2.32-.71-.71.65-1.3,1.48-1.79,2.32-.18.3.06,1.24.19,1.26.93.13,1.94.28,2.81.04.6-.16,1.04-.94,1.54-1.44Zm1.52,59.46c1.1-.12,2.07-.69,2.53-1.7.25-.54.11-1.53-.26-2.02-.59-.78-1.52-.61-2.08-.29-.07,1.38-.12,2.57-.19,4Zm-13.6-60.4c-1.31-.03-2.04.66-2.08,1.7-.02.67.16,1.13.94,1.15,1.31.04,2.54-.67,2.5-1.48-.05-.97-.7-1.32-1.36-1.37Zm10.01,51.3c0,.86,1.21,1.96,2.24,1.89.25-.02.66-.47.68-.74.09-1.48-.53-2.47-1.46-2.45-.82.02-1.45.34-1.46,1.3Zm-16.56,23.79c.12.17.33.7.69.87.26.12.85-.17,1.11-.45.5-.53.93-1.16,1.28-1.81.11-.19-.05-.75-.24-.84-1.15-.55-2.84.61-2.84,2.23Zm-1.21-7.44c-.08.04-.15.08-.23.13.24.31.49.89.71.88.41-.02.96-.3,1.16-.64.6-1.02.2-1.99-.44-2.87-.11-.16-.45-.29-.62-.24-.17.05-.36.34-.39.54-.1.73-.14,1.47-.2,2.2Zm4.8-4.72c-.59-.39-.91-.67-1.27-.78-.12-.04-.57.52-.53.58.22.32.5.63.84.8.13.06.46-.27.97-.59Z"/>
  <path class="cls-1" d="m128.91,76.26c-3.01-2.86-6.55-2.64-10.04-2.65-1.03,0-1.47.4-1.47,1.49.03,9.68.03,19.36,0,29.05,0,1.09.44,1.5,1.47,1.48.83-.02,1.66,0,2.49,0,2.82.02,3.26-.41,3.26-3.19,0-4.76.09-9.52-.03-14.27-.08-2.94.87-5.02,3.53-6.52,2.44-1.38,4.63-3.2,6.96-4.78.37-.25,1.02-.51,1.29-.35.31.18.45.84.46,1.29.02,12.83.02,25.65,0,38.48,0,1.76-.54,2.27-2.34,2.28-10.33.02-20.67.02-31,.03-.33,0-.66,0-1-.02-1.59-.07-1.85-.49-.95-1.76,2.23-3.18,2.64-6.8,2.64-10.52,0-22.3,0-44.6.01-66.9,0-2.81.07-5.62-.02-8.42-.07-2.27-.33-4.51-1.71-6.48-.83-1.18-.48-1.74.97-1.75,4.72-.05,9.45,0,14.17-.09,5.05-.09,10.11-.29,15.16-.41,2.65-.07,3.04.34,3.09,2.94.15,8.27.32,16.53.46,24.8.04,2.35.06,4.71-.02,7.06-.02.57-.32,1.42-.75,1.63-.5.24-1.37.12-1.91-.17-1.85-1-3.58-2.2-5.42-3.23-2.53-1.42-3.45-3.71-3.59-6.39-.07-1.39.17-2.8.16-4.2-.02-2.48-.07-4.96-.22-7.43-.09-1.55-1.39-2.61-2.95-2.62-.54,0-1.08.05-1.62.06-1.77.05-2.48.64-2.46,2.36.03,3.64.24,7.27.25,10.91,0,3.76-.15,7.51-.24,11.27-.01.54-.12,1.08-.07,1.6.1,1.15.74,1.9,1.92,1.86,3.02-.1,6.06-.11,8.69-1.99,1.09-.77,1.53-.48,1.51.89-.07,4.22-.15,8.44-.26,12.65-.02.6-.25,1.2-.44,2.06Zm-13.05,33.98c-.48-.7-.85-1.19-1.16-1.72-.54-.93-1.15-1.83-1.55-2.82-.91-2.24-2.34-2.11-4.48-1.03-.59.3-.87.86,0,1.27.7.33.81.66.27,1.3-1.7,2-1.38,4.51-1.96,7.1,1.61-.42,2.69-1.05,3.25-2.18.45-.9.99-1.09,1.87-.93.44.08.91.04,1.36,0,.87-.06,1.56.12,1.78,1.12.05.21.27.38.53.71.75-1.03,1.47-1.95,2.09-2.93.13-.2-.08-.91-.21-.93-.4-.07-.87,0-1.25.16-.2.08-.29.45-.52.86Zm-4.3-23.78c-.16.04-.31.07-.47.11-.07-.04-.16-.07-.2-.13-.39-.5-.68-1.34-1.51-.69-.77.61-.49,1.35.11,1.92.57.54,1.21,1,1.86,1.44.61.42,1.27.94,1.97.14.65-.74.6-2.08.03-2.76-.48-.58-.92-1.22-1.21-1.9-.69-1.64-2.37-2.48-3.8-1.74-.35.18-.56.62-.83.94.38.24.73.56,1.14.72.83.32,1.73.48,2.53.86.24.12.26.71.38,1.09Zm18.64-60.12c-1.12-.12-2.15-.39-3.16-.3-1.08.09-1.61,1.43-1.04,2.37.49.79,1.09,1.51,1.75,2.4.79-1.44,1.54-2.8,2.45-4.46Zm-16.82,54.16c-1.33-1.25-2.89-1.49-3.83-.74-.31.25-.68.84-.58,1.07.15.34.76.74,1.09.67,1.07-.21,2.1-.62,3.32-1Z"/>
  <path class="cls-1" d="m65.4,76.16c-.18-.07-.31-.09-.4-.17-2.35-2.26-5.41-2.27-8.35-2.54-2.34-.22-3.49,1.15-3.29,3.45.16,1.88.09,3.78.09,5.67,0,6.95.01,13.9-.04,20.84-.02,1.94-.19,3.88-.43,5.8-.28,2.28.29,4.31,1.37,6.29,1.33,2.44.93,3.04-1.83,3.04-4.19,0-8.38,0-12.57,0-.66,0-1.32-.08-1.97-.18-1.08-.18-1.3-.61-.62-1.49,2.33-3.02,2.85-6.49,2.84-10.17-.02-23.08-.04-46.16.06-69.24.01-3.48.2-6.94-.58-10.35-.22-.97-.74-1.9-1.28-2.76-.68-1.08-.48-1.69.8-1.88.37-.05.75-.03,1.12-.03,6.85,0,13.69.04,20.54-.02,2.69-.02,5.38-.25,8.06-.45,1.95-.15,2.9.46,2.95,2.38.15,6.36.21,12.73.31,19.09.07,4.34.16,8.67.16,13.01,0,.71-.27,1.81-.73,2.02-.59.26-1.58-.05-2.26-.4-1.5-.77-2.88-1.78-4.37-2.58-3.57-1.92-4.48-5.08-4.32-8.76.13-3.08.05-6.18-.09-9.27-.06-1.33-.78-2.46-2.19-2.88-1.51-.45-3-.29-4.25.67-.35.27-.46,1.02-.46,1.55-.03,6.58,0,13.15-.03,19.73,0,1.24-.19,2.47-.19,3.71,0,1.57.52,2.13,2.06,2.16,3.04.05,6.05-.02,8.68-1.93.87-.63,1.38-.38,1.39.63.03,4.92,0,9.84-.02,14.76,0,.07-.08.14-.18.29Zm1.33-48.36c-.28-.56-.48-1.17-.87-1.61-.22-.25-.96-.43-1.13-.28-.35.32-.74.99-.61,1.32.2.51.8.9,1.29,1.26.23.17.66.3.88.2.21-.1.28-.52.45-.89Zm-2.89,4.22c.4-.5.87-.84.82-1.06-.09-.38-.51-.68-.79-1.01-.25.26-.7.53-.7.79,0,.36.35.71.67,1.28Z"/>
  <path class="cls-1" d="m87.67,22.93c2.61,0,5.23-.02,7.84,0,2.14.03,2.52.68,1.41,2.44-1.71,2.72-2.35,5.74-2.35,8.88,0,18.82.06,37.65.12,56.47.02,5.87.14,11.75.13,17.62,0,2.87.44,5.56,2.06,8.02,1.02,1.56.74,1.97-1.15,2-4.98.08-9.95.14-14.93.18-2.07.02-2.42-.53-1.43-2.36,1.5-2.77,2.12-5.73,2.12-8.82.03-23.67.03-47.33.03-71,0-4.11-.8-8.04-2.71-11.72-.78-1.49-.63-1.69,1.01-1.69,2.61,0,5.23,0,7.84,0v-.03Zm-2.39,51.8c2.06.14,3.6-.33,5.08-1.04.22-.1.38-.68.3-.96-.28-.95-.68-1.87-.97-2.62-1.45,1.53-2.82,2.96-4.41,4.63Zm4.1,22.96c.07-1.27.15-2.62.24-3.97.02-.28.19-.62.09-.84-.19-.4-.47-.89-.83-1.02-.24-.09-.86.29-1.01.6-.36.77-.64,1.62-.75,2.46-.06.46.18,1.08.5,1.42.54.57,1.26.98,1.75,1.35Z"/>
  <path class="cls-1" d="m210.87,65.78c-1.15,1.82-1.35,4.21-3.48,5.44-.37.22-.91.15-1.37.22.04-.42-.02-.88.14-1.25.7-1.74.51-2.44-.81-3.73-.34-.33-.6-1.35-.49-1.41.61-.38,1.33-.7,2.04-.77.27-.03.77.63.88,1.05.29,1.17.5,1.29,1.57.66.37-.22.77-.37,1.16-.56.12.12.25.24.37.36Z"/>
  <path class="cls-1" d="m209.04,40.81c-.51.5-.94,1.28-1.54,1.44-.88.24-1.88.09-2.81-.04-.13-.02-.36-.95-.19-1.26.49-.84,1.07-1.67,1.79-2.32,1.11-1.02,1.88-.74,2.32.71.12.39.15.8.23,1.21.07.09.14.17.21.26Z"/>
  <path class="cls-1" d="m210.55,100.27c.07-1.43.13-2.62.19-4,.55-.32,1.49-.49,2.08.29.37.49.5,1.47.26,2.02-.46,1.01-1.43,1.58-2.53,1.7Z"/>
  <path class="cls-1" d="m196.96,39.86c.66.06,1.3.4,1.36,1.37.04.81-1.19,1.52-2.5,1.48-.77-.02-.96-.48-.94-1.15.04-1.05.77-1.73,2.08-1.7Z"/>
  <path class="cls-1" d="m206.97,91.16c0-.97.64-1.29,1.46-1.3.93-.02,1.55.98,1.46,2.45-.02.27-.43.73-.68.74-1.03.06-2.24-1.03-2.24-1.89Z"/>
  <path class="cls-1" d="m190.41,114.95c0-1.62,1.69-2.78,2.84-2.23.18.09.34.65.24.84-.35.65-.77,1.27-1.28,1.81-.26.28-.85.57-1.11.45-.37-.17-.57-.7-.69-.87Z"/>
  <path class="cls-1" d="m189.2,107.51c.06-.73.1-1.47.2-2.2.03-.2.21-.49.39-.54.17-.05.5.08.62.24.63.87,1.03,1.85.44,2.87-.2.34-.75.61-1.16.64-.22.01-.47-.57-.71-.88.08-.04.15-.08.23-.13Z"/>
  <path class="cls-1" d="m194,102.79c-.52.33-.84.66-.97.59-.34-.17-.62-.48-.84-.8-.04-.06.42-.61.53-.58.37.11.68.4,1.27.78Z"/>
  <path class="cls-1" d="m115.86,110.24c.24-.41.32-.78.52-.86.39-.16.85-.24,1.25-.16.13.02.34.73.21.93-.62.98-1.34,1.9-2.09,2.93-.25-.33-.48-.5-.53-.71-.22-1-.9-1.18-1.78-1.12-.45.03-.92.07-1.36,0-.88-.16-1.42.03-1.87.93-.56,1.13-1.65,1.76-3.25,2.18.58-2.59.27-5.1,1.96-7.1.54-.64.44-.97-.27-1.3-.86-.41-.58-.97,0-1.27,2.13-1.08,3.57-1.21,4.48,1.03.4.99,1.01,1.89,1.55,2.82.31.53.69,1.02,1.16,1.72Zm-6.02-1.21c.39.53.65.89.92,1.24.24-.41.61-.8.66-1.23.03-.28-.41-.62-.64-.93-.28.27-.56.54-.94.92Z"/>
  <path class="cls-1" d="m111.56,86.46c-.12-.38-.14-.97-.38-1.09-.8-.38-1.7-.54-2.53-.86-.41-.16-.76-.47-1.14-.72.27-.32.49-.76.83-.94,1.43-.74,3.11.1,3.8,1.74.29.69.73,1.33,1.21,1.9.56.68.61,2.02-.03,2.76-.7.8-1.36.28-1.97-.14-.65-.44-1.29-.91-1.86-1.44-.6-.57-.88-1.31-.11-1.92.83-.65,1.12.19,1.51.69.05.06.13.09.2.13.16-.04.31-.07.47-.11Z"/>
  <path class="cls-1" d="m130.2,26.33c-.91,1.66-1.66,3.02-2.45,4.46-.65-.89-1.26-1.6-1.75-2.4-.58-.94-.04-2.28,1.04-2.37,1.01-.09,2.05.18,3.16.3Z"/>
  <path class="cls-1" d="m113.38,80.5c-1.22.39-2.25.79-3.32,1-.33.06-.94-.34-1.09-.67-.1-.23.27-.82.58-1.07.94-.75,2.5-.51,3.83.74Z"/>
  <path class="cls-1" d="m66.73,27.8c-.17.37-.23.79-.45.89-.22.1-.65-.03-.88-.2-.49-.36-1.08-.75-1.29-1.26-.13-.33.27-1,.61-1.32.17-.15.91.02,1.13.28.39.44.58,1.05.87,1.61Z"/>
  <path class="cls-1" d="m63.84,32.02c-.32-.57-.67-.93-.67-1.28,0-.26.45-.52.7-.79.28.33.7.63.79,1.01.05.22-.42.57-.82,1.06Z"/>
  <path class="cls-1" d="m85.28,74.72c1.59-1.67,2.95-3.1,4.41-4.63.29.75.69,1.67.97,2.62.08.28-.08.86-.3.96-1.47.71-3.02,1.18-5.08,1.04Z"/>
  <path class="cls-1" d="m89.38,97.68c-.49-.37-1.21-.78-1.75-1.35-.32-.34-.56-.97-.5-1.42.11-.84.39-1.68.75-2.46.14-.31.77-.69,1.01-.6.36.13.64.62.83,1.02.1.22-.07.55-.09.84-.09,1.35-.16,2.71-.24,3.97Z"/>
  <path class="cls-1" d="m109.84,109.03c.39-.38.67-.65.94-.92.23.31.67.65.64.93-.05.43-.43.82-.66,1.23-.26-.36-.53-.71-.92-1.24Z"/>
</svg>