<?xml version="1.0" encoding="UTF-8"?>
<svg id="Belog" xmlns="http://www.w3.org/2000/svg" viewBox="0 0 256 142">
  <defs>
    <style>
      .cls-1 {
        fill: #2054fd;
      }
    </style>
  </defs>
  <path class="cls-1" d="m62.89,65.27c0-.1,0-.21,0-.31,0-.14,0-.28,0-.43-.24-1.09.19-1.44,1.3-1.42,4.3.05,8.61.02,12.92.02.69,0,1.39-.13.91,1.02-.22.52-.08,1.23.03,1.83.32,1.63.16,1.87-1.51,1.89-2.81.02-5.63.01-8.44.04-.4,0-1.06-.18-1.06.48,0,.63.57.68,1.1.64.41-.03.83,0,1.24,0,.37.02.76.17,1.06-.18.16,0,.33-.01.49-.02.17.24.33.24.5,0,.17,0,.33,0,.5,0,.16.25.32.25.49,0,.17,0,.33,0,.5-.01.54.46,1.18.16,1.77.22,0,0,.01.01.01.01-.03.36-.1.72.16,1.03,0,.16,0,.32,0,.48-.06.18-.12.36-.17.54-.16.65.19,1.36-.23,1.99-.18.07-.36.14-.55.21-.25,0-.49-.01-.74-.02-.08-.13-.17-.13-.26,0-.24,0-.49,0-.73,0-.09-.13-.18-.13-.27,0-.24,0-.48,0-.72-.01-.09-.13-.18-.13-.27,0-.24,0-.48,0-.72,0-.09-.13-.18-.12-.27,0-.24,0-.48,0-.72,0-.09-.13-.18-.13-.27,0-.24,0-.48-.01-.72-.02-.1-.16-.19-.14-.27.01-.49-.02-.92.19-1.07.62-.1.27.32.38.57.49.12.03.23.06.35.09.2.01.4.02.6.04.54.11,1.08.12,1.61,0,.12,0,.24,0,.36,0,.22,0,.43-.01.65-.02.11,0,.22,0,.33,0,1.22.16,2.43.18,3.65,0,.31,0,.61-.02.92-.03.11,0,.22.01.33.02.55-.01,1.1-.03,1.65-.04.07.05.15.09.22.14.07.03.11.08.12.15,0,.13-.01.26-.02.4.01.94.02,1.88.03,2.82-.04.18-.07.36-.11.54-.75.51-1.5.62-2.43.39-.82-.2-1.73-.09-2.59-.05-3.13.14-6.27-.26-9.4.19-.73.1-1.04-.27-1.04-1.01.04-3.71-.12-7.43.08-11.14.22-.17.21-.38.09-.6,0-.18,0-.36,0-.54.01-.15.02-.3.03-.45Z"/>
  <path class="cls-1" d="m180.97,63.13c1.78,0,3.57.03,5.35-.01.88-.02,1.19.31,1.12,1.17-.06.74-.04,1.49.02,2.23.08,1.05-.41,1.39-1.4,1.37-2.82-.05-5.64-.06-8.46-.07-1.58,0-1.61.06-1.59,1.59.02,1.28.05,2.56.02,3.84-.02.87.26,1.31,1.21,1.28,1.66-.05,3.32-.04,4.98-.07.4,0,.96.04.98-.51.03-.6-.52-.64-.99-.67q-2.38-.16-2.45-2.54c0-.12,0-.25,0-.37-.03-1.78-.03-1.78,1.72-1.78,1.58,0,3.15.04,4.73.02.71,0,.98.21,1.08.97.37,2.76.07,5.52.19,8.28.03.85-.58.87-1.19.87-2.12,0-4.23.02-6.35.02-1.35,0-2.7-.07-4.05.01-.8.05-1.23-.25-1.57-.89-.19-.36-.37-.8-.69-1.02-1.65-1.12-1.7-2.74-1.62-4.49.08-1.73.03-3.47,0-5.21,0-.63.14-1.12.72-1.46.59-.34,1.08-.84,1.33-1.44.41-.97,1.07-1.21,2.05-1.17,1.61.07,3.23.02,4.85.02Z"/>
  <path class="cls-1" d="m45.54,75.27c-.78,1.29-2.11,2.07-3.03,3.23-.27.34-.74.33-1.16.32-2.61-.02-5.23-.06-7.84-.04-.59,0-.99-.22-1.41-.59-1.99-1.78-2.83-3.89-2.31-6.58.23-1.19.03-2.47.03-3.71,0-1.84.95-3.19,2.27-4.34.4-.35.87-.42,1.39-.42,2.41.02,4.81,0,7.22,0,.95,0,1.75.33,2.37,1.06.97,1.15,2.54,1.89,2.54,3.71,0,1.47.04,2.94.04,4.4,0,.91-.05,1.82-.08,2.73-.05.07-.06.15-.03.23Zm-5.95-.93c1.01.1,1.37-.31,1.29-1.35-.1-1.31-.03-2.64-.04-3.96,0-.4.09-.86-.5-.98-.15-.19-.32-.26-.51-.06-1.49,0-2.98-.03-4.46-.01-.38,0-.97-.11-.96.49.04,1.95-.32,3.92.2,5.85.31.29.65.31,1,.08.57-.01,1.15-.02,1.72-.03.09.12.18.12.27,0,.16,0,.32,0,.48,0,.17.2.34.2.52,0,.16,0,.32,0,.48,0,.18.2.35.18.52-.02Z"/>
  <path class="cls-1" d="m156.4,78.75c-1.66,0-3.32-.03-4.98.01-.79.02-1.08-.23-1.09-1.07-.01-4.46-.33-8.91-.21-13.37.03-.97.04-1.34,1.32-1.26,3.18.21,6.38.11,9.57.05.99-.02,1.67.31,2.2,1.08.16.24.32.53.55.66,1.93,1.07,1.99,2.84,1.85,4.72-.05.7-.12,1.42,0,2.1.45,2.68-.66,4.71-2.55,6.46-.46.43-.95.62-1.56.61-1.7,0-3.4,0-5.1,0h0Zm-2.05-7.62s.04,0,.06,0c0,.87,0,1.73,0,2.6,0,.54.22.84.82.82,1.81-.06,3.63.13,5.43-.22.44-.09.67-.19.67-.67,0-1.57.03-3.13.05-4.7,0-.52-.14-.95-.75-.88-1.74.2-3.44-.3-5.18-.28-.83.01-1.22.19-1.12,1.1.08.73.02,1.48.02,2.22Z"/>
  <path class="cls-1" d="m209.62,73.58c0-1.24.05-2.48-.02-3.72-.04-.83.3-1.23,1.01-1.61,1.91-1.02,3.48-2.44,4.51-4.39.22-.42.54-.72,1.05-.73.21,0,.42.02.62,0,2.27-.25,4.25-.12,5.31,2.46.47,1.14,1.7,1.9,2.78,2.59.66.42.95,1,.95,1.76,0,2.64,0,5.28.03,7.93,0,.45-.13.71-.61.73-.99.05-1.98.1-2.97.16-.76.05-1.04-.31-.98-1.05.05-.62-.04-1.25.04-1.86.13-1.01-.19-1.41-1.26-1.36-1.53.07-3.06.03-4.6,0-.71-.02-.9.26-.9.96,0,3.31-.02,3.31-3.28,3.32q-1.68,0-1.68-1.71c0-1.16,0-2.31,0-3.47h0Zm8.44-3.26c.74,0,1.48.01,2.23,0,.32,0,.59-.06.36-.51-1.01-2.01-3.8-2.25-5.19-.46-.48.62-.27.91.38.96.74.06,1.48.01,2.23.01Z"/>
  <path class="cls-1" d="m128.06,75.53c.03-.17.05-.34.08-.5.12-.25.06-.41-.22-.45-1.69-.01-3.38-.01-5.08-.05-.86-.02-1.21.35-1.11,1.19.04.33-.03.66.02.99.34,2.13.34,2.17-1.76,2.07-.92-.04-1.88.27-2.77-.21.24-3.02-.3-6.02-.25-9.04-.08-.41.11-.69.43-.93,1.9-1.42,3.54-3.1,4.98-4.96.32-.41.72-.42,1.17-.52,2.63-.57,4.27.71,5.76,2.7.87,1.17,1.98,2.32,3.62,2.57-.28.96-.24,1.95-.24,2.93,0,2.47,0,4.95-.01,7.43-1.27.09-2.54.18-3.81.28-.74.06-.96-.31-.84-.98.03-.03.08-.06.07-.08-.02-.07-.06-.13-.09-.19,0-.49,0-.98,0-1.47.24-.24.26-.49.04-.76Zm-3.19-5.21h0c.58,0,1.16,0,1.74,0,.29,0,.65,0,.72-.31.05-.19-.1-.48-.24-.67-1.07-1.47-2.93-1.56-4.14-.21-.21.24-.56.48-.41.84.16.4.59.38.96.37.46,0,.91,0,1.37,0Z"/>
  <path class="cls-1" d="m17.76,73.15c.08,1.38.18,2.77.22,4.16.05,1.55-.12,1.7-1.65,1.7-.71,0-1.42-.06-2.12.01-1.24.12-1.57-.46-1.54-1.59.13-4.34.15-8.68,0-13.02-.04-1.07.36-1.32,1.36-1.31,3.53.05,7.05.02,10.58.02.37,0,.77-.1,1.09.16,1.75,1.41,3.73,2.64,3.52,5.37-.13,1.69-2.34,4.5-4.05,4.62-2.02.14-4.06.03-6.1.04-.33,0-.52-.22-.73-.41.02-.91.09-1.82.05-2.72-.03-.82.31-1.1,1.1-1.08,1.32.03,2.65.01,3.98-.03.4-.01.91-.12.91-.64,0-.53-.47-.61-.91-.61-1.62,0-3.23,0-4.85,0-.66,0-1.04.27-.97.96.17,1.46.14,2.92.11,4.38Z"/>
  <path class="cls-1" d="m90.37,66.86c0-.21,0-.41,0-.62,0-3.23,0-3.2,3.26-3.13.8.02,1.05.32.97,1.02-.26,2.3-.25,4.6-.18,6.91.07,2.21-.24,4.43.11,6.65.08.5-.07,1.09-.94,1.11-1.3.03-2.42-.11-3.29-1.23-1.64-2.12-3.91-3.62-5.67-5.63-.28-.32-.6-.8-1.12-.62-.58.21-.25.78-.26,1.17-.04,1.61-.05,3.22-.01,4.83.02,1.02-.3,1.47-1.42,1.46-2.64-.02-2.55.02-2.69-2.6-.17-3.29-.19-6.57.22-9.84.08-.66-.11-1.3-.2-1.94-.16-1.19.42-1.57,1.63-1.35,1.47.27,2.24,1.36,3.2,2.31,1.81,1.79,3.7,3.5,5.59,5.21.57.51.79.06.8-.48.02-1.07,0-2.15,0-3.22h0Z"/>
  <path class="cls-1" d="m110.77,78.74c-3.48.02-6.96,0-10.44.07-1.13.02-2.01-.33-2.74-1.16-.6-.68-1.14-1.39-1.86-1.97-.29-.24-.41-.66-.41-1.11.02-2.4,0-4.79,0-7.19,0-.73.2-1.3.83-1.78.61-.47,1.06-1.13,1.61-1.69.39-.4.79-.79,1.44-.79,3.81.02,7.63.02,11.44.03.12,0,.24.07.35.1-.24.83-.2,1.69-.22,2.55-.02.68.23,1.39-.24,2.02-.59.56-1.26.14-1.89.14-2.53.02-5.06-.04-7.59-.01-.59,0-1.43-.23-1.43.87,0,1.57-.04,3.14-.07,4.71-.01.7.25,1.08,1.03,1.03,1.07-.08,2.14-.11,3.21-.16.09.12.18.12.28,0,.24,0,.48,0,.72,0,.09.12.18.12.28,0,1.82,0,3.63-.01,5.45-.02.48,1.43.26,2.9.26,4.36Z"/>
  <path class="cls-1" d="m201.45,63.13c2.32,0,4.65.03,6.97-.01.82-.01,1.11.25,1.05,1.07-.07.82-.07,1.66,0,2.48.1,1.13-.48,1.49-1.48,1.43-1.11-.07-2.22-.15-3.32-.25-.96-.08-1.38.3-1.27,1.29.32,2.75.18,5.52.25,8.28.02,1.01-.31,1.46-1.36,1.35-1.06-.11-2.44.44-3.12-.2-.7-.65-.21-2.03-.23-3.09-.04-2.19-.04-4.38,0-6.57.02-.77-.27-1.01-1.01-.99-1.16.03-2.32-.03-3.48-.03-.73,0-1.06-.37-1.04-1.08,0-.04,0-.08,0-.12q-.14-3.55,3.44-3.55c1.53,0,3.07,0,4.6,0Z"/>
  <path class="cls-1" d="m234.41,78.75c-2.24,0-4.48-.03-6.71.01-.91.02-1.29-.28-1.23-1.21.28-4.62-.32-9.21-.61-13.81-.03-.45.12-.61.53-.61,1.37,0,2.74-.02,4.1,0,.78.02.59.65.59,1.11,0,2.97,0,5.95-.07,8.92-.03,1.03.31,1.37,1.35,1.35,2.94-.05,5.88,0,8.82-.03.79,0,1.18.22,1.11,1.05-.02.25,0,.5,0,.74q0,2.45-2.53,2.45c-1.78,0-3.56,0-5.35,0Z"/>
  <path class="cls-1" d="m51.03,68.01c-.24,0-.49-.01-.73-.02-.09-.12-.18-.11-.27,0-.24,0-.48,0-.72,0-.09-.11-.18-.12-.27-.01-.72-.02-1.44-.04-2.16-.05-.09-.03-.19-.06-.28-.09-.01-1.32,0-2.64-.05-3.96-.02-.63.26-.75.82-.75,4.52.01,9.04.03,13.57,0,1.18,0,.97.71.9,1.41,0,.14,0,.29,0,.43.01.51.03,1.02.04,1.53-.18.36-.15.74-.12,1.12-.11.21-.31.23-.52.23-.09,0-.18.01-.27.02-.22.02-.44.03-.66.05-.47-.12-.94-.12-1.4.02q-2.67.01-2.64,2.69c.02,2.35.01,4.7.07,7.05.02.82-.33,1.13-1.09,1.13-.04,0-.08,0-.12,0-1.06-.12-2.73.49-3.06-.25-.52-1.17-.39-2.72-.24-4.12.22-2.11.32-4.23-.06-6.34-.22-.31-.47-.3-.75-.08Z"/>
  <path class="cls-1" d="m139.43,74.42c2.73-.01,5.46-.03,8.2-.04.08.12.18.13.27.02.16,0,.33.01.49.02.3.22.65.12.97.14,0,0,0,0,0,0-.02.26-.04.51.14.73,0,.16,0,.32,0,.48-.18.17-.17.34,0,.51.01.41.02.82.03,1.22-.26.31-.18.67-.13,1.02,0,0,0,.01,0,.01-.1.06-.19.12-.29.18-4.98.16-9.95.11-14.93.02-.29-.92-.26-1.86-.25-2.8.01-1.69.08-3.38-.03-5.06-.06-.95.14-2.03-.68-2.82-.01-1.4-.02-2.8-.04-4.2,0-.68.09-1,.99-.81,1.03.21,2.14.09,3.21.05.58-.02.82.15.78.76-.16,2.9.24,5.82-.24,8.72-.14.83-.33,1.91,1.14,1.86.11-.01.22-.02.34-.03Z"/>
  <path class="cls-1" d="m11.19,65.36c.5,1.56-.68,2.33-1.98,2.99-.74.37-1.41.84-2.06,1.34-.88.68-.77,1.33-.12,2.07.93,1.06,1.97,2.06,3.22,2.65,1.09.52,1.36,1.24,1.19,2.25-.11.7.48,1.63-.6,2.04-1.1.41-3.27.07-3.73-.75-1.04-1.86-2.43-3.25-4.31-4.3-1.01-.56-1.61-1.72-1.57-3.04.03-.86.36-1.49,1.15-1.87,1.79-.86,4.12-3.91,4.12-3.91,0,0,2.58-2.21,4.31-1.71.4.12.38.36.39.65,0,.45,0,.91,0,1.58Z"/>
  <path class="cls-1" d="m245.49,78.76c-.47-.14-1.23.34-1.48-.59-.38-1.47,0-2.95,1.03-3.37,1.6-.64,2.68-1.88,3.89-3,.66-.61.53-1.09-.04-1.64-.81-.79-1.73-1.39-2.74-1.91-1.66-.85-2.47-2.9-1.91-4.66.07-.21.15-.38.38-.43.79-.16,3.25.03,3.84.88.45.64,1.04,1.19,1.44,1.86.76,1.29,1.78,2.22,3.13,2.9,2.12,1.07,2.27,2.28.61,3.93-.46.46-.98.89-1.52,1.25-1.04.7-1.84,1.6-2.55,2.64-1.21,1.77-2.04,2.14-4.1,2.14Z"/>
  <path class="cls-1" d="m112.06,63.2c1.23-.02,2.47-.02,3.7-.08.61-.03.78.22.77.79-.03,1.56,0,3.12,0,4.68-.24.23-.46.5-.42.85.37,3.03.41,6.08.45,9.12-1.6.31-3.19.45-4.76-.1-.06-1.47.29-2.96-.21-4.41-.02-1.9-.05-3.8-.07-5.7.2-.11.24-.3.29-.51.41-1.53.18-3.09.26-4.64Z"/>
  <path class="cls-1" d="m192.48,70.86c0,2.23-.02,4.46.01,6.69.01.74-.24,1.07-1,1.04-.79-.03-1.58-.04-2.36,0-.82.05-.96-.36-.92-1.06.15-2.76-.07-5.52-.07-8.28,0-1.84-.1-3.76.39-5.49.39-1.37,2.01-.43,3.05-.62.72-.13.88.38.88,1.02-.02,1.9,0,3.8,0,5.7,0,.33,0,.66,0,.99,0,0,.02,0,.03,0Z"/>
  <path class="cls-1" d="m170.74,70.94c0,2.23,0,4.46,0,6.69,0,1.17-.35,1.44-1.51,1.18-2.54-.55-2.49-.55-2.5-3.12,0-3.8-.06-7.59-.16-11.39-.02-.9.17-1.21,1.14-1.2,3.04.02,3.04-.02,3.04,3.01,0,1.61,0,3.22,0,4.83Z"/>
  <path class="cls-1" d="m75.01,74.47c-1.22.17-2.43.15-3.65,0,1.22-.27,2.43-.16,3.65,0Z"/>
  <path class="cls-1" d="m74.71,69.04c-.59-.06-1.23.23-1.77-.22.6-.03,1.24-.32,1.77.22Z"/>
  <path class="cls-1" d="m70.02,74.48c-.54.13-1.07.12-1.61,0,.54-.26,1.07-.24,1.61,0Z"/>
  <path class="cls-1" d="m58.91,67.93c.46-.14.93-.14,1.4-.02-.46.22-.93.23-1.4.02Z"/>
  <path class="cls-1" d="m74.89,70.09c-.27-.31-.19-.67-.16-1.03.36.3.22.67.16,1.03Z"/>
  <path class="cls-1" d="m61.75,67.62c-.03-.38-.06-.76.12-1.12.22.4.32.79-.12,1.12Z"/>
  <path class="cls-1" d="m149.36,74.56c-.33-.02-.67.08-.97-.14.34-.09.7-.28.97.14Z"/>
  <path class="cls-1" d="m70.45,68.85c-.31.35-.7.2-1.06.18.3-.4.69-.26,1.06-.18Z"/>
  <path class="cls-1" d="m149.42,78.54c-.05-.35-.13-.71.13-1.02.11.36.22.72-.13,1.02Z"/>
  <path class="cls-1" d="m51.03,68.01c.28-.21.53-.23.75.08-.25-.03-.5-.06-.75-.08Z"/>
  <path class="cls-1" d="m149.51,75.3c-.19-.22-.16-.47-.14-.73.29.2.29.45.14.73Z"/>
  <path class="cls-1" d="m128.06,75.53c.22.27.2.52-.04.76.01-.25.03-.51.04-.76Z"/>
  <path class="cls-1" d="m72.44,68.83c-.17.24-.33.24-.49,0,.16,0,.33,0,.49,0Z"/>
  <path class="cls-1" d="m78.15,78.48c.04-.18.07-.36.11-.54.17.22.34.45-.11.54Z"/>
  <path class="cls-1" d="m149.52,76.29c-.17-.17-.18-.34,0-.51.1.17.1.34,0,.51Z"/>
  <path class="cls-1" d="m127.92,74.58c.29.04.35.2.22.45-.07-.15-.15-.3-.22-.45Z"/>
  <path class="cls-1" d="m73.94,73.3c.18-.07.36-.14.55-.21-.1.28-.31.28-.55.21Z"/>
  <path class="cls-1" d="m62.86,66.25c.12.22.13.43-.09.6-.11-.22-.09-.42.09-.6Z"/>
  <path class="cls-1" d="m71.45,68.83c-.16.25-.33.25-.5,0,.17,0,.33,0,.5,0Z"/>
  <path class="cls-1" d="m71.03,74.46c-.22,0-.43.01-.65.02.21-.19.43-.19.65-.02Z"/>
  <path class="cls-1" d="m74.71,71.11c.06-.18.12-.36.17-.54.08.22.08.42-.17.54Z"/>
  <path class="cls-1" d="m69.94,73.26c.09-.13.18-.13.27,0-.09,0-.18,0-.27,0Z"/>
  <path class="cls-1" d="m78.13,74.56c-.07-.05-.15-.09-.22-.14.14-.06.2.01.22.14Z"/>
  <path class="cls-1" d="m67.95,73.27c.08-.15.17-.17.27-.01-.09,0-.18,0-.27.01Z"/>
  <path class="cls-1" d="m76.26,74.46c-.11,0-.22-.01-.33-.02.12-.1.22-.08.33.02Z"/>
  <path class="cls-1" d="m60.97,67.86c.09,0,.18-.01.27-.02-.09,0-.18.01-.27.02Z"/>
  <path class="cls-1" d="m50.02,67.99c.09-.11.18-.11.27,0-.09,0-.18,0-.27,0Z"/>
  <path class="cls-1" d="m49.03,67.97c.1-.1.19-.1.27.01-.09,0-.18,0-.27-.01Z"/>
  <path class="cls-1" d="m139.43,74.42c-.11.01-.22.02-.34.03.11-.01.22-.02.34-.03Z"/>
  <path class="cls-1" d="m147.9,74.4c-.1.11-.19.1-.27-.02.09,0,.18.01.27.02Z"/>
  <path class="cls-1" d="m46.59,67.83c.09.03.18.06.28.09-.14.13-.25.15-.28-.09Z"/>
  <path class="cls-1" d="m68.95,73.27c.09-.13.18-.13.27,0-.09,0-.18,0-.27,0Z"/>
  <path class="cls-1" d="m72.93,73.28c.09-.12.18-.12.26,0-.09,0-.18,0-.26,0Z"/>
  <path class="cls-1" d="m62.89,65.27c0,.15-.02.3-.03.45-.15-.16-.14-.31.03-.45Z"/>
  <path class="cls-1" d="m78.23,75.11c0-.13.01-.26.02-.4.17.14.15.27-.02.4Z"/>
  <path class="cls-1" d="m45.54,75.27c-.04-.08-.03-.16.03-.23.02.06.04.11.05.17,0,.02-.05.04-.08.06Z"/>
  <path class="cls-1" d="m62.9,64.53c0,.14,0,.28,0,.43-.16-.14-.16-.29,0-.43Z"/>
  <path class="cls-1" d="m71.93,73.27c.09-.13.18-.12.27,0-.09,0-.18,0-.27,0Z"/>
  <path class="cls-1" d="m61.83,64.96c0-.14,0-.29,0-.43.15.14.15.28,0,.43Z"/>
  <path class="cls-1" d="m128.02,77.76c.03.06.07.12.09.19,0,.02-.05.06-.07.08,0-.09-.01-.18-.02-.27Z"/>
  <path class="cls-1" d="m70.94,73.25c.09-.13.18-.13.27,0-.09,0-.18,0-.27,0Z"/>
  <path class="cls-1" d="m149.12,78.73c.1-.06.19-.12.29-.18-.03.16-.14.21-.29.18Z"/>
  <path class="cls-1" d="m67.8,74.46c-.12-.03-.23-.06-.35-.09.12.03.23.06.35.09Z"/>
  <path class="cls-1" d="m34.6,74.32c.33.03.67.05,1,.08-.36.23-.69.21-1-.08Z"/>
  <path class="cls-1" d="m40.33,68.05c-.17-.02-.34-.04-.51-.06.2-.2.36-.13.51.06Z"/>
  <path class="cls-1" d="m38.07,74.36c.17,0,.35,0,.52,0-.17.19-.35.19-.52,0Z"/>
  <path class="cls-1" d="m39.07,74.35c.17,0,.34-.01.52-.02-.17.19-.34.22-.52.02Z"/>
  <path class="cls-1" d="m37.32,74.36c.09,0,.18,0,.27,0-.09.12-.18.12-.27,0Z"/>
  <path class="cls-1" d="m103.8,74.39c.09,0,.18,0,.28,0-.09.12-.18.12-.28,0Z"/>
  <path class="cls-1" d="m104.8,74.39c.09,0,.18,0,.28,0-.09.12-.18.12-.28,0Z"/>
</svg>