<?xml version="1.0" encoding="UTF-8"?>
<svg id="Belog" xmlns="http://www.w3.org/2000/svg" viewBox="0 0 256 142">
  <defs>
    <style>
      .cls-1 {
        fill: #fe9e1b;
      }

      .cls-2 {
        fill: #2054fd;
      }
    </style>
  </defs>
  <path class="cls-2" d="m245.85,105.54H10.17c.17-.28.11-.48-.19-.64-.24-.12-.47-.25-.69-.41-.77-.53-1.55-1.03-2.29-1.62-1.03-.82-1.85-1.71-2.24-2.95-.17-.56-.25-1.14-.37-1.71.03-.03.02-.06-.01-.08,0-.04-.01-.08-.02-.13.02-.14.02-.27-.11-.37-.17-.68-.13-1.38-.13-2.07,0-15.36,0-30.73,0-46.09,0-1.88-.16-3.76.23-5.63l.05-.38c.12-.32.23-.65.21-1,.07-.2.14-.4.21-.6.27-.54.53-1.07.8-1.61.12-.11.36-.13.29-.38.37-.39.74-.78,1.11-1.17.96-1.01,2.15-1.67,3.53-1.86,1.5-.21,3.02-.4,4.54-.4,75.76-.02,151.52-.02,227.28-.01.42,0,.83.05,1.25.09,1.11.1,2.15.41,3.17.88,1.26.59,2.36,1.35,3.18,2.44.49.66,1.08,1.25,1.47,1.98.08.15.21.32.45.28v56c-.22.22-.41.45-.49.76-.64,2.58-2.53,4.24-4.46,5.89-.06.05-.14.12-.21.12-.46,0-.72.25-.88.64Zm-28.17-29.34h0c.26-.26.48-.54.64-.87.17-.13.31-.29.39-.49,1.32-1.45,2.4-3.08,3.47-4.7.09-.13.17-.26.26-.39.03-.03.05-.07.08-.1.07-.08.14-.15.2-.24,2.28-3.05,4.14-6.38,6.62-9.29.87-1.02,1.41-2.14,1.66-3.43.15-.78,0-1.14-.79-1.33-.85-.2-1.72-.32-2.6-.25-.43-.02-.85-.16-1.3-.15-5.46.11-10.92-.07-16.38.16-.61.03-1.22.13-1.76.48-.68.45-.78.97-.19,1.5.39.35.89.55,1.41.56,1.92.04,3.84.06,5.77.1,3.24.06,6.49-.01,9.74.05.81.01.99.19,1,.98-.04.27-.12.52-.27.74-.71,1.07-1.63,2-2.35,3.07-.52.77-1.21,1.44-1.69,2.23-1.06,1.74-2.36,3.3-3.56,4.93-.45.7-.9,1.4-1.36,2.11-.64.59-.9,1.42-1.41,2.08-2.09,2.75-3.91,5.68-5.92,8.49-.96,1.34-1.93,2.69-2.16,4.4-.1.72-.12.74.66.74,1.38,0,2.77-.03,4.15-.04,3.19,0,6.37,0,9.56,0,1.23.04,2.47.11,3.7.11,1.94,0,3.88.16,5.82,0,.13-.01.23-.04.33-.14.56-.55.25-2.05-.49-2.27-.29-.09-.61-.17-.91-.17-2.26,0-4.52.02-6.78.04-2.34-.02-4.69,0-7.03-.06-1.07-.03-2.12.18-3.18.13-1.26-.06-1.56-.6-.92-1.63.13-.21.28-.41.44-.6,1.75-2.04,3.49-4.08,4.88-6.39.14-.08.24-.19.28-.34Zm-40.82,8.89c-2.05-.05-4.1-.05-6.15.02-2.27.05-4.55.05-6.82-.05-.52-.02-.75-.2-.78-.71-.05-.84-.1-1.67-.02-2.51.13-.95.11-1.91.13-2.87.04-2.32-.21-4.65.07-6.97,1.83.02,3.66.06,5.49.06,2.86.01,5.73,0,8.59,0,.31.05.61.07.9-.07.98-.03,1.11.21,1.11-1.07,0-.16-.01-.33,0-.49.03-.36-.14-.55-.49-.67-.75-.26-1.51-.3-2.29-.29-2.89.02-5.78.02-8.67.04-1.2.01-2.4-.11-3.61.09-1.01.16-1.27-.14-1.31-1.16-.05-1.21.02-2.41.1-3.61.08-2.06.13-4.11.03-6.17,0-.17.02-.33.02-.5.29-.27.73-.31.98-.64.76-.11,1.53-.16,2.29-.08.7.07,1.4.16,2.11.08.28.05.57.15.85.15,2.53.07,5.06.11,7.6.18.74.02,1.46-.11,2.15-.36.73-.26,1.05-.71.98-1.38-.06-.53-.47-.89-1.19-.99-.58-.08-1.16-.11-1.74-.13-2.84-.11-5.69,0-8.53.16-1.5.02-3,.03-4.5.05-.12-.06-.25-.07-.37-.01-1.04-.15-2.08.14-3.12-.09-.06-.01-.13.06-.2.1-.56.02-.92.43-.84.86.26,1.46-.06,2.91-.01,4.36.05,1.35.03,2.7.05,4.05-.06.33-.06.66,0,1-.03.03-.02.06.01.09,0,.17.02.33.03.5,0,.01-.03.03-.02.04,0,.03.02.06.04.08-.22.47,0,.95,0,1.42,0,1.42,0,2.85.02,4.27-.08,3.25-.16,6.5-.13,9.75-.11.52.09,1.01.11,1.52.05.93-.17,1.83-.14,2.75.03.92.56,1.48,1.48,1.52,1.17.04,2.35.16,3.52.1,1.61-.08,3.21.31,4.82.07,2.6.18,5.21.09,7.81.04,1.09.09,2.15-.01,3.23-.18.41-.06.61-.23.67-.57.2-1.09-.01-1.49-1.15-1.68-1.03-.18-2.08-.09-3.13-.09Zm-54.59-7.44c.05-.2.06-.41,0-.61.02-.33.06-.65.05-.98-.03-3.34-.07-6.68-.12-10.02-.02-1.49.15-2.98-.19-4.46-.08-.33-.24-.72-.09-1.16.5.39.91.8,1.44,1.04.03.05.06.1.08.15-.09.17.01.22.15.26.49,1.14.93,2.31,1.44,3.44.89,1.95,1.93,3.84,2.78,5.81.73,1.68,1.21,3.49,2.2,5.03.86,1.34,1.28,2.83,1.89,4.25.74,1.73,1.18,3.6,2.29,5.17.31.44.56.91.73,1.42.21.64.8.79,1.36.88.42.07.65-.31.79-.66.48-1.24,1.16-2.41,1.64-3.65,1.4-3.62,3.2-7.07,4.55-10.71.59-1.61,1.32-3.19,2.04-4.76.77-1.7,1.18-3.54,2.09-5.19.39-.7.76-1.42,1.04-2.17.18-.49.23-1.02.63-1.41.08,1.59.17,3.17.14,4.77-.1,6.5-.05,12.99-.05,19.49,0,.49.01.99.02,1.48,0,.18,0,.37,0,.55.01,1.1.69,1.99,1.75,2.27.84.23,1.66-.57,1.65-1.61,0-3.31,0-6.61-.02-9.92-.01-1.99.08-3.98-.1-5.97.07-.17.06-.34-.02-.5,0-1.15-.03-2.3-.02-3.45.04-3.35.09-6.7.02-10.05-.02-.87-.46-1.29-1.37-1.3-.5,0-1.01,0-1.51,0-1.43,0-2.19.55-2.63,1.88-.25.76-.5,1.52-.79,2.27-.69,1.8-1.31,3.63-2.13,5.38-1.29,2.76-2.88,5.39-3.93,8.27-.28.77-.73,1.48-.99,2.26-.61,1.84-1.75,3.46-2.19,5.36-.11.45-.47.75-1.03.74-.54,0-.64-.41-.76-.77-.34-.99-.57-2.03-1.09-2.95-1.43-2.49-2.16-5.28-3.46-7.83-1.08-2.13-1.98-4.36-2.87-6.58-.85-2.13-2.03-4.12-2.79-6.3-.24-.69-.74-1.31-1.45-1.49-1.06-.28-2.16-.46-3.28-.36-.46.04-.86.25-.97.72-.19.81-.33,1.63-.22,2.48,0,.16-.03.33-.03.49,0,8.76,0,17.52,0,26.28,0,.16.02.33.03.49-.02.86.24,1.56.98,2.13.59.46,1.18.36,1.72.17.53-.18.7-.77.7-1.28,0-1.9-.03-3.8-.06-5.7.03-1.03.04-2.06-.06-3.09Zm-11.6,9.25c.19-1.16.14-2.33.01-3.49-.09-.81-.42-1.03-1.25-1.07-.51-.03-.99.12-1.49.12-3.5,0-7,0-10.51,0-.76,0-.88-.1-.88-.83.06-8.34,0-16.68.15-25.03,0-.33,0-.66,0-.98,0-.39-.2-.6-.61-.64-1.61-.13-3.22-.06-4.83-.02-.51.01-.78.28-.78.86.01,2.15,0,4.31.08,6.46.12,3.48.08,6.97.15,10.46.09,4.37-.03,8.74-.21,13.1-.06,1.46.13,1.62,1.59,1.62,3.65-.02,7.3-.03,10.95-.04,2.24,0,4.48.14,6.72-.03.32-.13,1.01.4.91-.49Zm-73.2,1.11c.53.06,1.03-.19,1.51-.2,1.09-.03,2.04-.42,2.99-.82,1.85-.77,3.51-1.86,4.59-3.55,1.63-2.56,1.92-5.28.91-8.2-.7-2.02-2.04-3.38-3.79-4.49-1.57-.99-3.25-1.71-4.97-2.38-.94-.36-1.81-.89-2.79-1.15-1.27-.34-2.23-1.06-2.87-2.17-.53-.94-.91-1.98-.23-2.93.75-1.05,1.77-1.9,3.08-2.23,2.49-.63,4.72-.08,6.63,1.62.64.57,1.55.59,2.05-.06.46-.6,1.06-1.1,1.61-1.64.46-.45.91-.91,1.28-1.44.39-.55.32-1.08-.17-1.54-.2-.18-.42-.34-.65-.48-1.25-.79-2.67-1.1-4.1-1.42-1.14-.26-2.29-.35-3.44-.47h-.13c-.1-.02-.19-.02-.29-.02-.06-.01-.12-.03-.18-.04-.13,0-.27,0-.4-.01-.04-.02-.07-.03-.11,0-.13,0-.26,0-.39.01-.07.01-.13.03-.2.04-.09,0-.18.01-.28.02-.08,0-.16.01-.24.02-.31.04-.62.07-.92.12-2.37.45-4.7,1.04-6.49,2.75-2.06,1.96-3.23,4.32-3.2,7.22.02,2.18,1.01,3.89,2.46,5.4,1.11,1.16,2.51,1.97,3.99,2.6,1.76.76,3.57,1.39,5.35,2.11,1.36.55,2.55,1.34,3.29,2.64.55.96.58,1.91-.02,2.86-.28.44-.58.86-.95,1.22-1.36,1.3-3.03,1.9-4.87,1.61-1.95-.3-3.64-1.3-5.23-2.43-.4-.28-.85-.44-1.31-.58-.25-.08-.47-.05-.61.17-.58.97-1.53,1.62-2.18,2.54-.9,1.27-.94,1.28.25,2.32.17.15.34.31.54.42,1.76,1.03,3.52,2.06,5.6,2.4.08.02.16.04.24.06,1.51.21,3.03.32,4.55.1l.05.02.05-.03Zm29.4-33.53c-.22.04-.45.09-.67.1-2.66.2-5.08,1.09-7.3,2.5-1.66,1.06-3.23,2.21-4.28,3.92-1.04,1.7-2.12,3.38-2.67,5.33-.46,1.65-.91,3.3-.82,5.03,0,.12,0,.25.01.37-.15,1.07.2,2.08.4,3.1.02.07.04.14.06.21,0,.1-.02.21.01.31.51,1.91.96,3.82,2.17,5.49,1.04,1.43,2.25,2.66,3.61,3.77,1.01.83,2.17,1.41,3.36,1.97,2.12.99,4.34,1.52,6.68,1.55,1.43.02,2.85,0,4.29-.17,1.69-.2,3.27-.59,4.81-1.23,2.26-.93,4.01-2.56,5.61-4.3,2.25-2.46,3.81-5.29,3.96-8.7,0-.12.07-.23.11-.34,0-.11,0-.22.01-.32,0-.11,0-.22,0-.33.05-.07.06-.14,0-.21,0-.08,0-.17,0-.25.07-.09.07-.18.02-.28.15-1,.06-2.01-.08-3-.23-1.67-.81-3.25-1.39-4.82-.91-2.45-2.61-4.34-4.57-6-1.49-1.26-3.22-2.1-5.14-2.68-1.89-.57-3.81-.86-5.76-1.04-.19-.02-.38-.04-.58-.06l-.41-.03s-.07-.03-.11,0c-.31-.04-.62-.05-.92.05-.14.01-.28.03-.42.04Zm129.31-.21c-2.93.04-4.12.39-6.04,1.38-2.99,1.55-4.58,4.03-4.71,7.37-.02.37,0,.74,0,1.11.01,2.5,1.17,4.39,3.18,5.84,1.68,1.21,3.6,1.98,5.5,2.78,1.18.49,2.4.86,3.59,1.31,1.97.74,3.3,2.03,4.07,3.92.65,1.61.31,3.15-.61,4.51-1.39,2.06-3.54,2.94-5.95,3.04-2.22.09-4.17-.83-5.98-2.06-.93-.63-1.83-1.32-2.95-1.65-.71-.21-.93-.15-1.16.54-.43,1.28-.06,2.36,1.1,3.18.42.29.83.61,1.28.85,1.98,1.09,4.08,1.83,6.38,1.89,1.34.03,2.64-.11,3.96-.33,2.94-.49,5.28-1.68,6.5-4.52.46-1.06.8-2.12.96-3.27.31-2.19.1-4.24-1.44-5.99-1.76-2-4.13-3.05-6.59-3.91-1.81-.63-3.67-1.13-5.42-1.91-1.71-.76-3.02-1.89-3.52-3.76-.31-1.15-.01-2.23.24-3.32.32-1.37.99-2.54,2.29-3.22,1.01-.53,2.1-.87,3.25-1.01,1.91-.24,3.63.4,5.31,1.13,1.24.54,2.34,1.38,3.67,1.75.18.05.3.19.48-.03.76-.93.71-1.91-.13-2.78-2.12-2.21-4.88-2.69-7.26-2.83Z"/>
  <path class="cls-1" d="m246.11,105.54c-.09-.18.07-.16.15-.15.09,0,.27-.08.23.15h-.38Z"/>
  <path class="cls-2" d="m57.46,70.01c.38-5.27,4.89-9.74,10.13-10.38,2.59-.31,5.05.29,7.24,1.81,2.76,1.91,4.39,4.46,4.86,7.77.31,2.22.13,4.38-.55,6.49-1.11,3.46-3.58,5.61-7.04,6.76-1.15.38-2.34.61-3.54.62-1.42,0-2.77-.44-4.11-.88-2.38-.77-4.09-2.47-5.28-4.46-1.15-1.93-1.73-4.17-1.68-6.48,0-.29-.02-.57-.03-.86,0-.13,0-.25,0-.38Z"/>
</svg>