<?xml version="1.0" encoding="UTF-8"?>
<svg id="Belog" xmlns="http://www.w3.org/2000/svg" viewBox="0 0 256 142">
  <defs>
    <style>
      .cls-1 {
        fill: #2054fd;
      }
    </style>
  </defs>
  <path class="cls-1" d="m38.34,38.44c5.56-.16,9.42,4.08,9.54,9.58.1,4.67-4.34,9.65-9.58,9.56-5.01-.08-9.57-4.64-9.57-9.76,0-4.85,4.24-9.68,9.61-9.39Z"/>
  <path class="cls-1" d="m15.31,38.44c5.41-.12,9.54,3.91,9.64,9.4.09,5.02-4.39,9.67-9.42,9.74-5.1.07-9.37-4.06-9.71-9.46-.3-4.85,4.11-9.97,9.49-9.67Z"/>
  <path class="cls-1" d="m38.4,61.48c5.44-.09,9.39,3.91,9.48,9.64.09,5.59-5.37,9.71-9.9,9.49-4.98-.24-9.14-4.6-9.2-9.73-.05-4.55,4.23-9.81,9.62-9.4Z"/>
  <path class="cls-1" d="m51.86,47.64c0-5.16,4.27-9.2,9.73-9.2,5.24,0,9.26,4.15,9.26,9.56s-4.39,9.54-9.63,9.57c-4.88.03-9.67-4.66-9.36-9.94Z"/>
  <path class="cls-1" d="m38.22,103.57c-5.08.22-9.43-4.37-9.45-9.71-.02-4.99,4.48-9.58,9.71-9.45,5.37.13,9.45,3.89,9.37,9.94-.05,4.36-3.76,9.35-9.63,9.22Z"/>
  <path class="cls-1" d="m162.16,52.36c0-.48,0-.96,0-1.44-.05-1.96-.09-3.93-.16-5.89-.02-.67.21-.94.92-.96,3.15-.09,3.14-.11,3.14,3.08,0,6.57,0,13.14.02,19.7,0,.87-.15,1.38-1.15,1.1-.12-.03-.26,0-.4-.01q-1.66-.02-2.27-1.54c-.05-.12-.14-.22-.25-.41-.24.14-.51.22-.67.4-2.26,2.61-6.87,2.11-9.2.2-4.88-3.99-4.34-12.18,1.04-15.41,2.35-1.41,5.65-1.15,7.74.61.29.25.62.45.94.68.1-.04.2-.08.3-.12Zm-4.62,12.16c1.57,0,2.94-.56,3.71-1.93,1.14-2.02,1.3-4.19.16-6.3-1.15-2.15-3.88-2.92-6.02-1.78-1.52.81-2.2,2.18-2.47,3.78-.46,2.69.96,6.26,4.62,6.22Z"/>
  <path class="cls-1" d="m97.38,47.97c0,1.88,0,3.68,0,5.47,0,.69.54.66,1,.66,2.86,0,5.72.04,8.57-.05.88-.03,1.05.28,1.02,1.01-.02.53-.01,1.07,0,1.6.01,1.24-.12,1.3-1.38,1.26-2.76-.09-5.51-.1-8.27-.18-.81-.02-.99.34-.98,1.09.04,2.7.02,5.4.02,8.1,0,.32-.04.65-.06,1.01-1.08,0-2.07-.05-3.06.01-.8.05-1.1-.16-1.09-1.04.04-6.87.02-13.74.02-20.61,0-2.24,0-2.22,2.2-2.22,4.09,0,8.18.03,12.27-.02.93,0,1.21.3,1.19,1.21-.08,2.62-.05,2.63-2.63,2.62-2.69,0-5.38-.02-8.08-.02-.19,0-.39.04-.74.07Z"/>
  <path class="cls-1" d="m124.94,97.08c-.64,1.97-1.95,3.13-3.44,3.98-5.1,2.89-12.41.29-13.14-6.94-.42-4.21,1.4-7.32,5.09-9.1,4.75-2.29,10.68.15,11.84,5.78.19.9.15,1.85.21,2.78.05.71-.26,1.01-1,.99-2.59-.07-5.18-.11-7.77-.12-1.25,0-2.51.08-3.76.12-.56.02-.66.31-.54.8.79,3.23,5.25,4.61,7.72,2.34.63-.58,1.18-.78,2.03-.64.83.14,1.71.03,2.76.03Zm-8.02-5.34c1.26,0,2.52,0,3.78,0,.57,0,.89-.15.72-.82-.44-1.77-2.12-3.29-3.76-3.37-2.33-.11-4.44,1.19-5.05,3.1-.24.76,0,1.08.84,1.09,1.16.01,2.32,0,3.48,0Z"/>
  <path class="cls-1" d="m139.3,94.4c.45,2.18,1.41,3.53,3.17,4.1,1.77.58,3.52.44,4.91-.97.52-.52.98-.63,1.67-.53.9.13,1.82.11,2.9.17-.81,1.88-2.02,3.18-3.63,4.02-5.52,2.89-12.17-.73-12.9-6.68-.59-4.84,1.95-8.75,6.34-10.02,4.7-1.36,9.43,1.08,10.68,6.57.18.8.17,1.65.18,2.48,0,.65-.28,1.03-1.04,1-2.69-.08-5.38-.12-8.07-.16-1.33-.02-2.67,0-4.19,0Zm4.92-2.58s0-.05,0-.08c.83,0,1.66.03,2.48-.01.6-.03,1.19-.16,1.79-.25-.22-.61-.37-1.26-.68-1.82-.92-1.67-2.63-2.41-4.66-2.09-1.43.23-3.3,1.97-3.63,3.38-.15.64,0,.91.73.88,1.32-.05,2.64-.01,3.97-.01Z"/>
  <path class="cls-1" d="m184.29,67.94c-.88,0-1.71.07-2.52-.04-.3-.04-.67-.48-.78-.81-.32-.95-.59-1.11-1.22-.38-1.55,1.8-6.14,1.95-8.18.41-1.73-1.3-2.54-3.02-2.18-5.14.35-2.04,1.64-3.55,3.6-4.01,1.97-.47,4.06-.5,6.1-.64,1.38-.09,1.57-.27,1.15-1.61-.38-1.2-1.14-1.99-2.43-2.23-1.38-.26-2.56.14-3.36,1.22-.56.76-1.12,1.02-2,.87-.48-.08-.99,0-1.49,0-1.08,0-1.18-.14-.73-1.16,1.04-2.36,2.83-3.72,5.39-4.02,2.6-.3,5.03-.03,7.03,1.92,1.05,1.04,1.63,2.33,1.66,3.75.09,3.76.06,7.53.06,11.3,0,.19-.06.38-.1.57Zm-6.44-7.63s0,.02,0,.03c-.69,0-1.39-.04-2.08,0-1.21.08-2.37.97-2.55,1.89-.2.99.21,1.91,1.17,2.41,1.45.76,2.89.56,4.25-.26,1.28-.77,1.79-2.01,1.78-3.45,0-.21-.41-.57-.67-.61-.62-.09-1.25-.03-1.88-.03Z"/>
  <path class="cls-1" d="m183.17,93.27c.02,4.99-3.69,8.8-8.53,8.92-5.34.13-9.04-4.35-9.06-8.79-.03-5.53,4.02-9.19,8.72-9.22,5.4-.04,8.97,3.69,8.87,9.1Zm-8.78-5.32c-2.64,0-4.79,2.35-4.78,5.23,0,2.85,2.25,5.32,4.87,5.36,2.52.04,4.67-2.36,4.69-5.23.02-3.23-1.87-5.35-4.77-5.35Z"/>
  <path class="cls-1" d="m222.31,68.18c-4.52.32-8.79-4.02-8.65-9.13.14-5.2,3.84-8.86,9.11-8.74,5.38.12,8.61,3.91,8.56,9.09-.05,5.26-3.71,8.76-9.02,8.77Zm4.93-8.91c0-.17.01-.33,0-.5-.35-3.47-3.01-5.06-5.2-4.77-2.21.29-3.64,1.7-4.16,3.9-.51,2.14-.03,4.09,1.62,5.54,1.43,1.26,3.21,1.49,4.94.64,1.93-.96,2.78-2.67,2.81-4.8Z"/>
  <path class="cls-1" d="m239.29,91.32c.8,0,1.59.01,2.39,0,.65-.02.96-.28.8-1.02-.33-1.52-1.31-2.66-2.67-2.89-1.52-.25-2.73.2-3.56,1.6-.16.28-.61.51-.95.54-.82.08-1.66,0-2.49.02-.71.01-.89-.27-.62-.93,1.13-2.74,3.27-4.17,6.1-4.46,2.62-.27,4.98.42,6.76,2.6,1.25,1.54,1.38,3.29,1.37,5.15-.02,2.85.02,5.71.16,8.55.05,1.07.02,1.29-1.09,1.29-.43,0-.86-.02-1.3,0-.64.02-1.05-.17-1.22-.88-.21-.86-.45-.88-1.12-.29-.94.83-2.02,1.47-3.31,1.39-1.37-.09-2.82-.11-4.07-.59-2.1-.81-3.18-2.5-3.05-4.87.12-2.26,1.3-3.82,3.3-4.57,1.42-.53,3.02-.57,4.54-.84.01.07.02.13.04.2Zm.8,2.87s0-.03,0-.05c-.92.08-1.85.11-2.76.25-1.29.19-2.05,1.03-2.09,2.16-.03,1.16.65,2.06,1.91,2.31,1.78.34,3.45,0,4.5-1.57.5-.74.55-1.78.81-2.69-.72-.14-1.44-.27-2.16-.4-.06-.01-.13,0-.2,0Z"/>
  <path class="cls-1" d="m202.12,96.05c0,1.67-.02,3.33.01,5,.01.7-.25.96-.94.92-.7-.04-1.4-.06-2.09,0-.81.07-1.03-.27-1.02-1.04.03-2.93.02-5.87-.01-8.8-.03-2.63-1.58-4.2-4.04-4.19-2.16,0-3.85,1.65-3.87,3.85-.03,3.03-.03,6.07.01,9.1.01.85-.27,1.14-1.09,1.08-.69-.05-1.4-.03-2.09,0-.59.02-.85-.21-.84-.81,0-5.23,0-10.45-.01-15.68,0-.68.2-1,.91-.94.53.04,1.07.04,1.59,0,.82-.07,1.4-.01,1.4,1.09,0,.69.56.79,1.22.19,1.35-1.2,2.9-1.57,4.68-1.54,3.05.05,5.51,2.42,5.97,5.41.16,1.05.16,2.12.19,3.18.03,1.07,0,2.13,0,3.2h0Z"/>
  <path class="cls-1" d="m234.2,59.24c0-2.53.03-5.07-.02-7.6-.02-.78.28-1.01.98-.98.5.02,1,.03,1.49,0,.75-.06,1.24.07,1.38.98.14.88.69.59,1.15.2,1.69-1.46,3.64-1.78,5.78-1.35,2.63.53,4.9,2.96,5,5.63.14,3.56.14,7.13.22,10.69.02.84-.27,1.26-1.17,1.15-.33-.04-.66,0-1,0-2.08,0-2.06-.1-1.99-2.2.1-2.83.06-5.66-.05-8.49-.07-1.76-1.58-3.13-3.32-3.31-1.78-.18-3.57.89-4.08,2.52-.21.69-.32,1.43-.34,2.15-.04,2.77-.04,5.53,0,8.3,0,.77-.2,1.11-1.02,1.03-.63-.06-1.27-.06-1.89,0-.86.08-1.17-.21-1.15-1.11.06-2.53.02-5.07.02-7.6,0,0,0,0-.01,0Z"/>
  <path class="cls-1" d="m146.13,67.94c-1.09,0-2.02-.05-2.95.01-.79.05-.95-.29-.94-1,.02-2.93.01-5.87-.02-8.8-.02-2.09-.95-3.43-2.67-4-2.61-.87-5.19,1.03-5.24,3.95-.05,2.9-.05,5.8,0,8.7.02.94-.28,1.26-1.2,1.15-.62-.07-1.26-.05-1.89-.01-.71.04-.94-.29-.94-.95,0-5.17,0-10.34-.01-15.51,0-.63.26-.83.84-.79.43.03.86,0,1.3,0q1.55,0,1.83,1.62c.55-.32,1.04-.57,1.51-.88,2.34-1.55,4.75-1.55,7.17-.28,2.02,1.07,3.04,2.91,3.14,5.13.14,3.16.07,6.33.08,9.5,0,.72,0,1.44,0,2.14Z"/>
  <path class="cls-1" d="m91.24,78.07h18.71c0,.98-.02,2,0,3.02.02.65-.25.88-.89.87-1.73-.03-3.46.03-5.18-.03-.89-.03-1.14.32-1.13,1.17.03,5.87,0,11.73.04,17.6,0,.96-.26,1.36-1.23,1.28-.63-.05-1.26-.04-1.89,0-.86.04-1.13-.33-1.13-1.19.03-5.76,0-11.53,0-17.3,0-1.52-.02-1.53-1.56-1.53-1.4,0-2.79,0-4.19.01-1.55.01-2.08-.75-1.46-2.21.24-.56.69-1.05-.43-1.51.12-.05.24-.11.36-.16Z"/>
  <path class="cls-1" d="m122.27,66.12c-.31.17-.64.29-.91.5-2.02,1.62-4.26,2.02-6.63,1.03-2.47-1.04-4-3.01-4.14-5.66-.19-3.56-.07-7.13-.04-10.69,0-.21.38-.41.58-.61.02-.02.06,0,.1-.01,3.3-.39,3.31-.38,3.31,2.88,0,2.33-.03,4.67.01,7,.06,3.03,2.81,4.8,5.6,3.63,1.24-.52,2.09-1.46,2.13-2.78.11-3.26.1-6.52.07-9.79,0-.73.17-.96.86-.94.8.03,1.59,0,2.39-.03.59-.02.82.22.82.83-.03,5.13-.06,10.27-.05,15.4,0,.84-.28,1.17-1.09,1.06-.07,0-.13,0-.2,0q-2.02,0-2.81-1.81Z"/>
  <path class="cls-1" d="m203.99,56.73c-1.32,0-2.5.03-3.67-.03-.22-.01-.47-.32-.63-.55-1.28-1.88-3-2.6-4.95-2.03-2.06.6-3.64,2.53-3.56,4.66.04,1.1.26,2.26.71,3.25.77,1.7,2.28,2.48,4.12,2.46,1.69-.01,3.02-.7,3.71-2.35.05-.12.15-.31.22-.31,1.22-.03,2.43-.03,3.65,0,.05,0,.17.53.11.77-.62,2.65-3.73,5.24-6.47,5.54-5.85.65-9.86-3.22-10.23-8.56-.18-2.61.83-4.96,2.77-6.82,3.24-3.1,8.02-3.4,11.55-.66,1.44,1.12,2.12,2.75,2.66,4.62Z"/>
  <path class="cls-1" d="m229.29,90.68c-.67-.03-1.42-.15-2.15-.08-1.1.1-1.83-.15-2.55-1.14-1.5-2.08-4.77-2.09-6.58-.11-1.42,1.55-1.94,3.4-1.3,5.46.65,2.11,2.11,3.38,4.29,3.67,1.7.22,3.1-.49,3.92-2,.43-.79.94-1.01,1.74-.94.59.05,1.2.02,1.79,0,.76-.02.93.32.67,1.01-1.64,4.4-5,6.1-9.32,5.53-5.48-.72-10.02-7.88-5.62-14.24,2.13-3.08,5.33-4.13,8.96-3.46,3.35.61,5.24,2.92,6.23,6.06,0,.02-.02.06-.1.24Z"/>
  <path class="cls-1" d="m160.89,84.54c1,0,1.96.01,2.91,0,.59-.01.87.23.82.83-.02.33-.01.67-.02,1-.04,2.16.34,1.98-2.07,1.99-.17,0-.34.02-.5-.01-1.04-.23-1.25.3-1.23,1.21.05,2,.03,4,.03,6,0,2.03,0,4.05,0,6.22-1.17,0-2.36.03-3.54-.04-.18-.01-.48-.49-.47-.75.03-3.73.09-7.46.15-11.19.03-1.41.01-1.44-1.43-1.44q-1.55,0-1.54-1.58c0-.07,0-.13,0-.2,0-1.96,0-2,1.97-2.02.93-.01,1.03-.47.92-1.22-.22-1.46.01-2.85.82-4.11.62-.97,1.56-1.44,2.67-1.49,1.09-.05,2.19-.01,3.29-.01.1,0,.22-.03.3.01,1.25.63.4,1.76.61,2.64.15.62-.31.85-.85.76-2.95-.54-3.08.88-2.85,3.4Z"/>
  <path class="cls-1" d="m132.49,89.91c0,3.63-.03,7.26.02,10.89,0,.82-.25,1.07-1.03,1-.73-.06-1.46-.04-2.19-.02-.57.02-.84-.15-.84-.79.02-7.43.01-14.86,0-22.29,0-.65.26-.81.83-.78.7.03,1.4.06,2.09,0,.86-.08,1.15.19,1.14,1.1-.05,3.63-.02,7.26-.02,10.89Z"/>
  <path class="cls-1" d="m210.74,59.36c0,2.5-.03,5,.02,7.5.02.88-.25,1.22-1.15,1.11-.59-.07-1.2-.07-1.79-.01-.92.1-1.14-.33-1.13-1.17.02-4.96.03-9.92,0-14.88,0-.95.25-1.36,1.23-1.25.56.06,1.13.05,1.69,0,.85-.09,1.17.18,1.15,1.1-.06,2.53-.02,5.07-.02,7.6,0,0,0,0,0,0Z"/>
  <path class="cls-1" d="m209.52,101.72h-3.89c0-4.24,0-8.42,0-12.6,0-1.23.06-2.46.04-3.69-.02-.76.3-1.03,1.01-.94.2.02.4.01.6.02q2.25.04,2.25,2.35c0,4.92,0,9.84,0,14.86Z"/>
  <path class="cls-1" d="m206.45,45.33c0-1.47.85-2.25,2.43-2.24,1.29,0,2.23.99,2.21,2.31-.02,1.23-1.1,2.32-2.29,2.32-1.44,0-2.36-.93-2.35-2.38Z"/>
  <path class="cls-1" d="m180.19,77.11c-1.26,1.48-2.33,2.78-3.44,4.04-.99,1.12-2.28.38-3.55.4.62-.95,1.36-1.85,1.84-2.87.63-1.36,1.57-1.8,2.98-1.59.61.09,1.25.02,2.17.02Z"/>
  <path class="cls-1" d="m227.83,43.59c-1.08,1.33-2.01,2.85-3.31,3.9-.73.59-2.08.39-3.15.55-.05-.12-.11-.25-.16-.37.46-.75.91-1.5,1.38-2.24.14-.22.3-.44.47-.64.4-.51.74-1.34,1.23-1.44,1.09-.22,2.26-.07,3.4-.07.05.11.1.21.15.32Z"/>
  <path class="cls-1" d="m209.95,79.23c0,1.36-.88,2.3-2.18,2.32-1.33.02-2.45-1.05-2.47-2.35-.02-1.17,1.15-2.26,2.43-2.28,1.25-.01,2.22.99,2.22,2.3Z"/>
</svg>