<?xml version="1.0" encoding="UTF-8"?>
<svg id="Belog" xmlns="http://www.w3.org/2000/svg" viewBox="0 0 256 142">
  <defs>
    <style>
      .cls-1 {
        fill: #2659fc;
      }
    </style>
  </defs>
  <path class="cls-1" d="m20.28,107.01c-.42.02-.73-.2-1.03-.44.09-.42.19-.84.28-1.26.32-.16.41-.48.54-.78.21-.15.24-.31.04-.49-.01-.17-.03-.35-.04-.52.16-.28.29-.57.48-.82.18-.26.89-.32.53-.74-.36-.42-.7.15-.98.39-.28.24-.57.48-.57.9-.77-.26-1.89-.1-1.65-1.49.04-.23-.12-.31-.39-.27-.39.07-.8.04-1.2.05l.02.02c-.08-1.14-.74-1.43-1.77-1.23-.15.03-.32-.02-.48-.03,0-.29-.14-.47-.45-.49,0-.41,0-.82,0-1.23.1-.05.19-.09.29-.14-.1-.04-.2-.08-.31-.12-.4-.68-1.05-.05-1.53-.27-.57-.2-.53.73-1.07.57-.75-.96-1.41-2.01-2.42-2.74.08-.69.7-.45,1.08-.62v.02c0,.18.1.26.27.28.7.47.83,1.55,2.02,1.83-.6-1.85-1.73-3.05-3.09-4.07,0-.27.02-.56-.29-.7.25-.55.77-1.16.67-1.65-.14-.71-1.18-.1-1.63-.63,0-.26-.16-.44-.32-.64-.21-.27-.73-.43-.5-.87.17-.32.6-.14.91-.16.86-.05,1.73.11,2.57-.15.17,0,.33.03.5.03.33-.01.76-.01.63-.49-.11-.41-.49-.36-.82-.17-.11.06-.23.08-.35.12-1.87.03-3.94-.9-5.42,1.1-.07.09-.31.05-.48.07-.91-1.34-.99-2.98-1.59-4.41-1.13-2.68-1.34-5.43-1.04-8.27.03-.12.06-.23.09-.35.15-.33.46-.46.69-.23,1.1,1.1,2.5,1.18,3.92,1.36.57.08,1.18.19,1.72.54.49.32.95.22.94-.53.21-.5.65-.56,1.1-.58.22.15.43.3.65.45.13.3.3.38.52.08.96-.2,1.93-.29,2.91-.26,1.85.06,2.54,1.2,1.77,2.98-1.01.09-1.81.01-1.21-1.36.11-.25.08-.58-.2-.78-.75-.54-2.71.22-3.02,1.17-.11.22-.31.23-.51.22-1.35-.06-1.11.64-.69,1.42.04.11.09.22.13.32.03.25.06.49.09.74-.55.24-1.2.49-1.21,1.16-.01.69.78.55,1.19.84.32,1.82.91,2.45,2.31,2.45.78.78.94,2.04,1.94,2.64,1.71,1.04,2.56,2.75,3.35,4.44.36.77.8,1.27,1.52,1.64,1.87.97,3.78,1.86,4.72,3.96.29.64,1.01,1.05,1.6,1.19,3.17.75,6.01,2.43,9.21,3.07.37.76.28,1.87,1.54,1.93,1.9,0,3.8.02,5.69.02.41,0,.88.1,1.16-.25.96-1.18,2.52-1.48,3.59-2.48.2-.29.45-.56.59-.88.26-.62.28-1.19-.59-1.35v-.75c.22-.19.25-.35-.08-.47h.01c-.06-.09-.12-.18-.18-.28-.02-.23-.04-.46-.07-.69-.14-.77.46-1.67-.42-2.3,0-.16,0-.32,0-.48.41-.11.82-.3,1.24-.02.5.33.78.81.99,1.36.48,1.2.55,2.53,1.22,3.66.31.53.32,1.03.06,1.63-.14.31-.38.92.36,1.07,1.02.21,2.22-.81,1.74-1.62-.93-1.56-.62-2.91.08-4.35.07-.14.16-.29.2-.44.51-2.16.02-2.91-1.96-3.05-.1-.08-.2-.16-.3-.24-.46-1.08-1.41-.74-2.2-.67-.69.06-.4.76-.51,1.18-1.29.17-.92-.98-1.27-1.57.19-.51.54-1.12.24-1.54-.17-.24-.92-.13-1.4-.07-.5.06-.64.55-.83.95-.07.08-.14.16-.21.24h0c-.62,0-1.24,0-1.86,0-.57,0-.64-.25-.36-.69.44-.13,1.08.08,1.18-.63.06-.4-.23-.56-.58-.67-1.39-.4-2.79-.65-4.23-.44-1.35.2-2.4-.32-3.3-1.29-.47-.51-.99-.98-1.49-1.47l-.24.33c1.81,2.67,4.41,3.96,7.66,4.12-.02.28.04.65-.34.69-.84.09-1.66.52-2.53.2-.31-.11-.67-.31-.92-.03-.29.33.03.69.15,1.01.09.26.27.6.5.68.83.29.58.82.4,1.36-.45.21-.9.42-1.35.63-.37-.09-.61.02-.64.44-.17,0-.33-.02-.5-.03-.08-.14-.16-.14-.25,0-.58.04-1.18-.04-1.73.24-.07-.57.07-1.1.25-1.62.41-.01.82-.03,1.23-.04.2.2.47.31.62.05.25-.43-.07-.76-.34-1.07-.9-1.23-1.02-2.82-1.98-4.04-.49-.63-.65-1.5-1.08-2.2-.61-.99-.57-2.18-1.09-3.18-.13-.24-.35-.65-.77-.45-.34.16-.44.52-.34.85.44,1.5.7,3.06,1.86,4.29,1.24,1.32,1.12,3.64-.11,4.73-.1,0-.2-.01-.3-.02.04-1.43-.21-2.8-.66-4.39-.44.71-.21,1.21-.29,1.67-.32,0-.65,0-.97-.01.01-.86-.1-1.7-.55-2.46,0-.18,0-.36,0-.54l.22-1.85c-.23-.61-.47-1.22-.7-1.83-.87-2.12-.41-4.35-.49-6.53,0-.17.12-.46.26-.52,1.02-.44,1.1-1.35,1.35-2.27.14-.53-.12-1.18.39-1.61.54-.37,1.17-.21,1.76-.27,1.44.57,2.83.1,4.23-.22.8.18,1.61.36,2.41.53.7,1.43.62,1.89-.46,2.44-1.57-1.11-1.77-1.08-3.7.52-.88-.02-1.21-.83-1.81-1.24-.89-.23-1.12.59-1.52,1.03-1.65,1.81-1.9,5-.59,6.71.45-1.03.63-2.19.33-3.18-.49-1.59.37-2.43,1.31-3.35.69.04.76.53.78,1.06.04,1.61-.46,3.25,1,4.69.68.67,1.34,1.6,1.54,2.69.09.51.37,1.01.66,1.45.84,1.32,1.69,2.65,3.65,2.04.38-.12.8-.02,1.2.17,1.35.64,1.95.34,2.44-1.16,1.15.94,2.44,1.01,3.8.62v.05c-.07.14-.02.24.1.32,1.15,1.32,2.33,2.52,4.15,3.02,2.04.55,2.96,2.84,2.22,4.76-.46,1.19-.52,2.49-.29,3.74.4,2.13.45,2.11,2.66,1.5.31-.09.65-.06.97-.13.58-.13,1.22-.13,1.66-.65.73-.86,1.72-1.37,2.66-1.94.31-.19.7-.32.68-.79-.05-.93.24-1.9-.23-2.8-.25-.79.52-1.13.76-1.71.53-.01.82-.17,1.04-.78.43-1.2.41-2.52,1.15-3.63-.77-.13-1.5-.12-2.12-.38-.91-.38-1.7-1.02-2.04-1.99-.3-.84.44-1.22.93-1.69.23-.23.41-.5.62-.76.82-.31,1.82-.16,2.44-.95.09-.02.17-.03.26-.05.23-.02.46-.04.69-.06.07,1.05.73,1.19,1.58,1.04.51.1.93-.19,1.39-.29.13.4.81.28.78.83-.02.73.16,1.54-.3,2.15-.83,1.1-.64,2.8-2.09,3.54-.19.1-.35.33-.36.61-.02.74-.45,1.29-.83,1.88-.4.61-.71,1.28-1.03,1.94-.38.8.14.88.7.71.94-.28,1.55-1,2.22-1.7,1.33-1.39,1.85-3.3,3.16-4.69.63-.03,1.22-.01,1.68.53.23.27.6.24.93.23.2,0,.45.03.51-.23.07-.31-.18-.5-.42-.48-.82.05-1.27-.44-1.67-1.04-.49-.87-.25-2-.97-2.8-.12-.14-.04-.34.13-.38.13-.03.33.03.43.12,1.22,1.21,1.11.19,1.11-.65,1.5-.61,2.41-2.99,1.46-4.08-.75-.86-.34-1.01.45-1.13.24-.04.52-.03.54-.36,0-.1-.09-.29-.15-.29-.63-.05-1.37-.49-1.78.41-.64-.06-1.18.21-1.64.58-.42.33-.68.87-1.33.83-.02-1.03.26-1.99.74-2.9,1.78.09,3.34-.37,4.45-1.84.61-.81.4-1.45-.46-1.71-.08-.12-.16-.14-.25-.01-.16.04-.32.08-.49.12-.11-.78-.85-.77-1.35-1.06.23-.46.62-.74,1.05-.99.46.02.9.08,1.31.3.4.21.84.07.9-.31.12-.79.65-.65,1.18-.73.55-.09,1.67-.04.57-1.06-.24-.23-.18-.53-.19-.81-.02-1.3-.03-2.6-.05-3.9,0-.16.04-.32.02-.48-.03-.33.18-.78-.36-.87-.22-.04-.54-.03-.69.1-.42.39.24.68.16,1.06-.44.07-.79.87-1.26.3-.51-.63-1.2-.58-1.84-.77-1-.04-1.9-.74-2.96-.46.03-1.11-.37-2.41,1.27-2.79,1.18.1,2.56-.44,3.33,1.02.19.35.28.22.35-.12.11-.54.38-1.17.95-1.12,1.98.17,3.57-1.04,5.41-1.34.67-.2.91-1.29,1.87-.91.08.01.16.04.24.07,0,.34.04.65.47.68-.29.81-.18,1.65-.22,2.48-.66.67-1.32,1.34-1.98,2.01-.81.4-1.59.85-2.56.84-.21,0-.96.01-.82.66.11.47.57.37.94.39.44.02.8-.18,1.17-.37.56-.29,1.14-.47,1.77-.31.33.57.21,1.21.28,1.82-.38,1.12-1.07,1.76-2.16,2.04-.12.03-.24.07-.33.15-.3.28-.66.58-.55,1.02.06.26.42.18.66.14.96-.15,1.85.23,2.39,1.05.07.1.11.21.16.32-.44.73-.14,1.53-.23,2.29-.52.96-1.77.25-2.28.89-1.19,1.52-2.07.75-3-.22-.06-.06-.12-.12-.18-.17-.01-.06-.04-.11-.09-.15-.07,0-.11-.04-.12-.11,0-.08,0-.16-.02-.24-.1-.5.21-1.09-.34-1.47-.07-.05-.28-.01-.31.04-.27.57-.12,1.11.14,1.63.02.04.05.07.07.1.02.19.03.38.05.58-.05.15-.1.3-.16.45-.06.2-.13.39-.17.59-.27,1.24.07,1.64,1.28,1.4.61-.12,1.21-.18,1.82-.23,1.77-.15,3.41-.57,4.04-2.55-.08-.96-.15-1.92-.23-2.88,0-1.66-.16-3.32.01-4.98.45-.45.26-1.02.21-1.52-.1-1.13.31-1.63,1.47-1.45.5,3.36.24,6.74.29,10.12.03,1.8-.2,3.56-.96,5.23-.25.56-.34,1.16-.27,1.79.05.44.04.89-.21,1.32-1.37,2.35-1.14,5.23-2.53,7.58-1.16,1.95-2.02,4.11-3.92,5.52-1.2.89-1.4,2.35-2.21,3.47-.93,1.29-1.86,2.52-3.5,2.95-.64.17-1.07.65-1.3,1.24-.83,2.07-2.67,2.99-4.46,3.97-2.35,1.29-4.64,2.71-7.07,3.83-2.16,1-4.36,1.97-6.76,2.38-2.22.38-4.45.22-6.67.26-2.64.05-5.29-.23-7.92.18-.19-.71.3-1.45-.08-2.16-.27-.24-.6-.45-.81-.73-.69-.91-1.17-.57-1.63.2-.17,0-.35,0-.52-.01.02-.7.03-1.4.05-2.1.01-.3-.03-.61-.31-.76-.39-.21-.46.22-.62.41-.84,1.08-1.9,1.65-3.31,1.46-.02-.32-.17-.5-.51-.49-.04-1.4-.12-1.46-1.45-.99-.34.12-.65.31-1.03.23-.14-.09-.27-.17-.41-.26.01-.18.02-.35.03-.53,0-1.1-.58-.71-1.12-.42-.42.06-.81.36-1.26.11.09-.43.18-.86.27-1.29.51-.04.72-.36.79-.82.27-.54.57-1.04,1.02-1.46.18-.17.25-.44.04-.64-.21-.2-.45-.12-.65.05-.29.24-.52.51-.45.92-1.08.17-1.08,1.14-1.4,1.88-1.22.03-1.84-.48-1.61-1.77.04-.24,0-.49,0-.73-.02-.41-.32-.61-.65-.61-.41,0-.34.39-.33.66.03.66-.04,1.3-.27,1.92-.31.06-.67-.03-.89.3-.02.02-.06.05-.05.07.02.05.05.1.07.15.06.13.12.27.19.4-.1.2-.2.4-.3.59Zm52.28-12.4c-.68,0-1.38-.04-1.91.5-.11.12-.01.39.14.37.68-.1,1.37-.19,1.77-.87.49,0,.93-.12,1.5-.53-.81-.25-1.33-.36-1.49.54Zm-4.93,6.18c.2.14.39.27.59.41.27.19.54.37.88.21.06-.03.11-.22.08-.3-.16-.31-.46-.42-.79-.47-.27-.04-.54-.12-.82-.18-.63-.65-1.16-1.43-2.11-1.71.6.81,1.06,1.76,2.18,2.03ZM6.83,80.99c.17,0,.33.02.5.03.31.26.56.29.7-.16-.17-1.16-1.19-1.99-2.38-1.92.23.59.91,1,.74,1.75-.38.5-.72,1-.31,1.78.19-.27.32-.42.4-.59.14-.29.24-.59.35-.89Zm57.29,19.61h0c-.38-.04-.69-.06-.79-.58-.24-1.33-.27-1.32-1.43-.53-.17.11-.39.15-.55.27-.21.16-.33.56-.12.62.91.25,1.43,1.64,2.66.91.43.59.83,1.2,1.29,1.76.22.27.3.95.84.63.56-.33.44-.98.12-1.4-.45-.61-1.04-1.12-1.57-1.67-.02-.19.02-.45-.28-.4-.08.01-.12.26-.17.4Zm-3.25,1.64c0-.24,0-.49-.03-.73-.05-.48-.32-.77-.81-.69-.61.1-.48.58-.32.95.18.41-.03.91.33,1.27,1.25,2.8,2.04,3.58,3.27,3.21-.12-.84-1.45-.44-1.42-1.29.02-.72.69-1.18,1.31-1.78-.94-.22-1.96.13-2.34-.93Zm17.42-22.12c0-.5.02-.89-.39-1.08-.44-.2-.82-.04-1.11.3-.76.92-1.61,1.78-.88,3.16.33.62.25,1.24-.74,1.19-.36-.02-.78-.08-.86.45-.07.44.03.85.37,1.12.32.25.7.45,1.08.58.97.34,1.46-.09,1.17-1.08-.27-.9-.09-1.71.51-2.28.75-.73.59-1.66.86-2.37Zm.66,3.54c.66-.03,2.23-2.03,2.32-2.98.07-.68-.14-1.38.36-2.02.26-.34-.11-.61-.38-.78-.33-.21-.58.03-.68.31-.29.85-.63,1.69-.78,2.57-.12.72-.08,1.38-1.05,1.52-.43.06-.5.51-.41.91.07.31.29.49.62.49Zm-10.64,13.89c-.16-.63-.62-1.36-1.2-1.85-.62-.52-.9.42-1.34.7-.36.23-.24.72.09.77.73.11,1.13.68,1.69,1.01.44.26.8.22.76-.62Zm7.97-4.47c-.07-.22-.07-.49-.2-.59-.81-.61-1.63-1.2-2.48-1.76-.13-.09-.46-.09-.49.18-.02.17.11.48.24.51,1.02.31,1.64,1.04,2.18,1.9.11.17.34.28.54.16.11-.07.14-.27.2-.41Zm-29.94,12.44c-.26,0-.47,0-.67,0-.48-.02-.75.29-.96.64-.15.25.01.47.19.65.34.36.65.1.99-.02.38-.14.79-.19,1.18-.28.56-.14.43-.61.26-.85-.23-.31-.69-.09-.99-.14Zm-7.63,2.93c0-.48-.06-.96-.68-.92-.67.03-1.24.54-1.23,1.09.01.55.79.77,1.31.81.62.05.58-.53.59-.98Zm39.6-19.46c-.11-.29.23-.88-.39-.82-.61.06-1.25.41-1.31,1.08-.06.56.53,1.06.98,1.06.76,0,.69-.75.73-1.32Zm-31.02,22.72c.45.01.99.11,1.1-.49.07-.41.28-1.01-.19-1.25-.47-.25-.65.44-1.03.6-.07.03-.15.08-.2.14-.19.27-.86.15-.67.68.15.41.62.31.98.32Zm-33.21-16.53c.62.4,1.07.78,1.59,1.01.47.21.77-.15.97-.54.11-.22.02-.48-.21-.47-.72.05-1.4-.55-2.35,0Zm57.2,3.38c.18-.86-.08-1.38-.84-1.44-.51-.04-.38.48-.34.75.09.64-.05,1.57.85,1.63.71.05.19-.72.32-.94Zm-63.42-13.02c0-.47-1.05-1.79-1.4-1.73-.28.05-.44.32-.35.55.29.7.42,1.57,1.33,1.77.4.09.41-.3.42-.59Zm48.76,21.96c-.46-.07-.79.01-.75.6.03.43.1.98.59.81.47-.16,1.34-.03,1.32-.79-.01-.51-.6-.71-1.16-.63Zm1.58-3.43c.4-1.12-.11-1.76-.78-2.33-.2-.17-.45-.26-.66-.04-.23.24-.21.62,0,.77.57.39.88,1.01,1.43,1.6Zm-5.33,6.23c.46-.45,1.2-.32,1.19-1.07,0-.6-.46-.86-1.03-1.05.52.72-.41,1.2-.16,2.12Zm-38.4-17.99c0-.41-.18-.56-.45-.55-.64.01-.95.53-1.29.94-.13.15.15.36.37.31.54-.12,1.08-.25,1.37-.7Zm39.63,12.96c-.04-.51.08-1.16-.54-1.32-.34-.09-.42.41-.37.74.07.49.04,1.13.66,1.24.43.07.16-.42.25-.65Zm-22.91,1.21c.16.23-.17.72.38.74.62.03.87-.39.9-.95.01-.35.13-.77-.49-.76-.67.01-.61.53-.78.97Zm12.69,5.16c.31,0,.63-.07.57-.45-.08-.47-.49-.62-.92-.65-.23-.02-.55-.04-.47.35.09.43.31.76.82.75Zm-22.12-12.55c-.02-.53-.4-.52-.78-.52-.51.01-.72.28-.69.78.03.49.39.44.7.44.47,0,.79-.17.77-.7Zm48.66-7.47c-.51,0-.6.28-.61.64-.01.47.24.65.68.63.39-.02.81-.1.74-.58-.06-.43-.44-.65-.81-.69ZM3.17,77.76c-.32,0-.59.07-.51.48.07.37.24.79.61.83.23.03.59-.2.57-.65-.03-.46-.19-.69-.66-.66Zm55.9,28.57c0-.45-.18-.77-.72-.77-.29,0-.54.1-.43.41.14.4.36.84.82.92.34.06.29-.31.32-.56Zm20.19-34.94c.02-.35-.07-.58-.47-.56-.57.03-.49.46-.48.81,0,.23-.13.67.38.51.35-.11.7-.29.56-.76Zm-46.79,11.78c-.07-.74-.04-1.25-.62-1.46-.17-.06-.3.06-.32.25-.06.6.42.77.94,1.2Zm46.79-14.7c.01-.4-.16-.63-.58-.63-.34,0-.4.25-.35.51.07.33.18.66.61.65.38,0,.3-.3.32-.54Zm-38.84,39.48c.02.37.14.72.59.77.23.03.4-.14.31-.38-.13-.36-.06-.9-.59-.96-.33-.04-.29.31-.31.57Zm1.02,2.76c-.05-.14-.04-.45-.39-.37-.32.07-.62.22-.62.63,0,.34.17.52.52.51.45-.02.49-.33.49-.76Zm-12.89-6.36c.94-.72.93-.98-.02-1.58-.09.53-.13,1.05.02,1.58Zm36.44-18.4c-.09-.33-.36-.3-.59-.25-.3.07-.69.12-.72.51-.02.27.24.45.5.36.33-.1.71-.2.81-.63Zm9.22,1.07c.03-.32-.09-.51-.39-.56-.33-.05-.44.16-.45.44,0,.29.13.46.45.46.24,0,.39-.1.39-.34Zm-48.73,14.09c0-.27-.07-.49-.38-.49-.32,0-.53.19-.56.52-.02.24.12.37.35.4.32.04.56-.06.59-.42Zm30.88,3.42c-.02-.3-.09-.6-.45-.63-.29-.02-.27.25-.27.45,0,.27.12.51.38.57.26.06.33-.16.34-.39Z"/>
  <path class="cls-1" d="m42.34,32.3c-.24-.25-.17-.55-.11-.84,0-.13-.01-.25-.01-.38-.91-1.76-2.59-1.43-4.12-1.52-.63-.04-1.47.36-1.65-.72-2.68-.26-5.05.88-7.48,1.71.54.67.99,1.35.53,2.25,0,.77-.15,1.55.2,2.3.08.16.04.45-.06.58-.14.18-.36.05-.54-.08-.98-.69-1.96-1.37-2.96-2.07.77-.67,1.83-.22,2.59-.76.15-.84-1.03-.88-1-1.64-.41-.01-.99-.18-1.2.02-.82.82-1.81,1.39-2.68,2.06-1.09.83-2.09,1.22-3.33,1.36-.13.6.45.94.53,1.46.1-.04.2-.07.3-.1-.16-.75.26-.4.55-.29.66-.8,1.68-.68,2.5-1.08.27.95-.14,1.89.29,2.75.08.1.2.19.21.3.04.51.47.97.19,1.51-.01.04-.17.06-.22.03-.54-.36-.65-.91-.64-1.5-1.08-1.34-1.47-1.44-3.46-.86-.46.26-.87.63-1.1-.29-.16-.64-.82-.69-1.41-.72-1.12,1.61-2.63,2.79-4.31,3.79-1.07.64-1.93,1.5-2.68,2.53-1.2,1.62-1.93,3.69-4.1,4.45-.25.09-.47.5-.54.8-.71,2.75-2.31,5.12-3.41,7.71-.35.84-.34,1.87-.79,2.53-1.24,1.85-.76,3.8-.76,5.73.23,1.24.45,2.48.32,3.76-.67,1.93-.61,2.03,1.41,1.97.95-.02,1.89.08,2.8.3.58.14,1.18.31,1.33,1.31-1.05-.36-1.95-.78-2.93-.7-.01.36-.01.72-.02,1.09.63.21,1.84-.27,1.79.66-.05.84-1.23.42-1.92.49-.6.06-1.22.01-1.84.02.09.84-.32,1.74.25,2.54,1.73-.03,3.46.06,5.17-.24.66.17,1.32.32,1.98-.03-.58-2.04-.42-4.12-.23-6.2.28-.92,1.04-1.68.98-2.73.15-1.23-.17-2.51.43-3.69-.52-.37-1.08-.51-1.7-.31-1.52.68-2.64-.07-3.99-1.17h4.97c.45.11.89.28,1.37.21.13-1.51.44-2.98,1.25-4.28.42-.68.61-1.4.74-2.16-.46-.2-.86-.44-1.15-.9-.24-.39-.65-.51-1.04-.13-.19.19.02.8-.53.61-.42-.14-.58-.55-.56-1.01,0-.12,0-.24,0-.37-.59-.47-1.56.19-2.01-.69-.04.01-.08.01-.12.01q-1.76-.01-1.14-1.74c.32-1.01,1.1-.19,1.2-.09.65.7,1.57.86,2.32,1.33.22.09.26.28.26.49.51.22,1.01.47,1.53.67.88.33,1.43.1,1.45-.93-.73-.95-.61-1.33.38-1.93.43-.27.85-.15,1.27-.24.57-.57,1.27-1.03,1.66-1.76.27-.51.33-.95-.44-1.02-.25-.03-.54-.01-.58-.33-.04-.36.3-.44.54-.58.43-.26.89-.38,1.4-.34-.28-1.96-2.26-2.15-3.41-3.21-.2-.19-.53-.22-.77-.37-.12-.08-.24-.25-.25-.39-.01-.19.19-.2.35-.24,1.66-.41,2.64.05,3.39,1.65.55,1.16,1.16,2.26,2.41,2.83.2-.01.4-.02.59-.04.02-1.54.88-2.38,2.33-2.72.43-.1.76-.38.84-.82.18-1.09.92-1.26,1.83-1.15,1.07.13,1.85-.04,1.66-1.39-.03-.23-.06-.54.3-.58.28-.03.56-.06.79.21.26.31.31.8.79.92.54-.7,1.1-1.23,2.14-1.52,1.58-.45,3.07-1.42,3.46-3.29.07-.31.12-.64.5-.5.52.2,1.01.37,1.19-.32.15-.59.23-1.28-.19-1.79-.37-.46-.83.05-1.25.11-.18.54.37,1.54-.39,1.56-.66.03-.85-.95-.88-1.67v-.13c-.23-.4-.78-.82-.54-1.23.22-.39.86-.33,1.36-.33,2.55.02,2.53,0,2.95,2.47.08.43.3.86.22,1.31-.36,1.99,1.12,2.49,2.84,1.5.78-.45,1.31-1.13,1.71-1.92-.07-.22-.08-.43.1-.6v-1.26ZM7.87,67.58c-.35.32-.75.29-1.12.1-.12-.06-.2-.36-.18-.52.11-.63.67-.24.99-.39.26.1.84-.11.55.54-.08.09-.16.19-.24.27Zm-3.02-9.47c-.17-.17-.34-.34-.5-.51-.02-.36-.1-.85.38-.86.22,0,.78,0,.84.51.06.53-.11.88-.72.86Zm4.48-1.86c.47.33.93.69,1.45.84.5.15.79.48.64.82-.12.29-.64.52-1.05.39-1.79-.58-3.16-1.76-4.38-3.13-.31-.34-.18-.74.09-.74,1.12.6,2.26,1.1,3.25,1.82Zm6.52-9.97c-.63.61-1.6.69-2.43,1.05-.1.05-.37-.04-.43-.14-.51-.93-1.44-.77-2.27-.84-.07-.11-.14-.22-.22-.33.19-.1.43-.14.55-.29.63-.79,1.21-1.42,1.48.22.07.4.43.32.7.32.88.02,1.76.01,2.62.01Zm5.51-3.7c-1.35-.9-2.48-1.93-3.35-3.22-.33-.5-.13-.94.27-1.32.04-.15.03-.34.12-.45.19-.23.38-.68.74-.39.33.28,0,.58-.23.81-.11.11-.27.17-.4.26-.09,1.57,1.33,1.92,2.23,2.64.74.59.81.5.62,1.67Zm10.7-7.47c-.46-.09-.61-.5-.59-.95.01-.24.02-.56.35-.51.47.07.72.37.66.87-.03.28-.05.67-.42.59Z"/>
  <path class="cls-1" d="m209.75,70.45c-1.25,0-2.49,0-3.74.01-.08-.11-.16-.12-.24-.01-1.48-.39-2.94-.13-4.41.09-1.08.16-1.89-.2-2.15-1.27-.3-1.26-1.25-1.36-2.24-1.46-.37-.04-.75.03-1.12-.02-.85-.1-1.32.07-1.42,1.09-.11,1.12-2.51,2.25-3.52,1.7-.32-.18-.67-.57-.41-1.22,1.07-2.74,2.01-5.52,3.42-8.12.27-.5.45-1.06.64-1.61.37-1.1,1.14-1.64,2.28-1.76.9-.1,1.46.18,1.86,1.03,1.07,2.28,1.88,4.68,3.46,6.71.41.53.49,1.37.6,2.08.1.62.35,1.11.91,1.86.04-.74.09-1.16.09-1.59,0-2.81,0-5.62,0-8.43,0-1.63.38-1.9,1.95-1.57,1.59.34,3.21.11,4.82.13,2.46.02,3.88,1.03,4.73,3.36.93,2.56.59,4.98-.8,7.26-.64,1.04-1.82,1.26-2.9,1.6-.29-.06-.57-.11-.82.11-.25,0-.51,0-.76,0-.08-.11-.17-.1-.24,0Zm-1.99-5.4c0,1.32.19,1.88.65,2.01.9.25,2.59-.52,3.18-1.45.59-.94.43-2.43-.25-3.31-.75-.98-1.78-.61-2.72-.69-.61-.06-.92.11-.85.81.1.95.3,1.9,0,2.65Zm-11.07-2.02c-.26.22-.49.85-.48,1.29,0,.22.43.46.66.4.42-.11.68-.75.68-1.22,0-.27-.43-.48-.86-.48Z"/>
  <path class="cls-1" d="m234.18,83.79c0-1.65.02-3.31,0-4.96-.01-.75.25-1.13,1.06-1.13,2.24,0,4.48-.04,6.71-.04.32,0,.64.13.96-.07.12-.08.32-.11.47-.08.65.14,1.04,1.57.74,2.89-.15.67-.51,1.26-1.37,1.05-1.14-.29-2.31-.14-3.46-.19-.49-.02-1.11-.03-1.12.65,0,.72.57.78,1.16.77,1.12-.02,2.24.06,3.36,0,1.08-.07,1.21.49,1.19,1.37-.02.91-.06,1.67-1.28,1.63-1.16-.04-2.32,0-3.48,0-.47,0-.96-.03-.98.64-.01.63.33.86.94.84,1.16-.03,2.32-.01,3.48-.02.59,0,1.26-.24,1.39.72.04.31.38.28.55.03.24-.34.69-.43.87-.85.58-1.36,1.51-1.24,2.59-.61.49.29.96.68,1.56.72.46.03.94.06,1.03-.59.09-.65-.23-.8-.84-.92-1.72-.33-3.24-1.15-4.36-2.5-.91-1.09-.53-2.73.79-4.18,1.3-1.42,3.49-1.91,5.3-1.2.41.16.83.33,1.26.43,1.57.39,2.01,1.1,1.57,2.6-.18.63-2.11,1.37-2.76,1.03-.61-.31-1.24-.42-1.91-.36-.2.02-.43-.01-.47.27-.03.24.12.33.31.45.83.53,1.81.57,2.72.7,2.13.3,2.14.26,2.14,2.4,0,.95-.01,1.9,0,2.85,0,.96-.54,1.26-1.42,1.51-2.64.75-5.16.21-7.68-.49-.7-.19-1.02.46-1.59.46-2.94,0-5.89-.01-8.83,0-.72,0-.65-.45-.65-.91,0-1.65,0-3.3,0-4.95.01,0,.03,0,.04,0Z"/>
  <path class="cls-1" d="m59.15,31.4c.07.05.15.1.22.15-.04.48.11.99-.28,1.41-.75.81-.86,1.93-1.33,2.88-.36.73-.02,1.19.83,1.18.29,0,.58,0,.87-.01-.06.33-.11.67-.17,1-1.18.39-.92,1.52-1.16,2.35-.2.7.59.62.95.88-.4,1.55-.29,3.04.54,4.45.27,1.01-.72,1.45-1.01,2.21-1.1-.07-2.05-.67-3.1-.85-1.05-.18-1.91-.51-2.42-1.49.23-.83-.24-1.42-.71-1.98-.81-.97-.11-1.36.64-1.62.47-.16,1.03-.11,1.54-.09.27.01.57.24.74-.13.05-.12,0-.33-.08-.45-.18-.27-.45-.3-.76-.21-.62.18-1.21.41-1.86,0-.27-.17-.58.09-.66.39-.16.59-.69.77-1.11,1.08-.22-.11-.45-.22-.67-.34.02-.52.41-.8.76-1.05.45-.31.6-.66.31-1.13-.28-.46-.6-.93-1.26-.71-.52.17-1.03.24-1.57.21.01-.16.02-.33.04-.49.17-.11.12-.19-.04-.25-.09-.16-.19-.32-.28-.48.41-.23.25-.63.29-.97.21-.08.5-.09.4-.46-.26-.91-.97-.83-1.67-.8-1.14.06-.63.9-.71,1.46.09.48-.28.73-.53,1.05-.46.24-.91.48-.7,1.14.05.26.24.32.47.32.34.16.54.45.74.75-.55.44-.98.95-1,1.7-.93.06-1.06.5-.36,1.01.94.68.94,1.39.36,2.25-.35.34-.69.68-1.04,1.02-1.89-.37-3.44.36-4.86,1.5-.34-.21-.8-.29-.83-.81.53-.73,1.3-1.04,2.14-1.21q1.96-.39,2.2-2.26c.57-.68.1-1.32-.08-1.97.1-.91-.3-1.87.25-2.74.33-.31,1.16-.12,1.12-.54-.1-.89.12-1.85-.36-2.69-.23-.4-1.18-.13-.99-.85.36-1.39.15-2.74-.04-4.11-.52-1.11.12-1.91.76-2.7.61-.13,1.16.1,1.73.25.05.56.6.72.86,1.09.31.44,1.12.17,1.15.89-.24.41.03.82,0,1.22-.45-.04-.98-.12-1.16.38-.26.73.27,1.25.72,2.01.21-.96.47-1.65.42-2.42.74.28,1.49.55,2.23.83.73,2.32-1.54.84-2.05,1.61.37.99,1.09.97,1.89.63,1.04-.44,1.32-1.27,1.17-2.31.11-.38.18-.78.33-1.14.17-.39-.07-.52-.34-.58-.66-.13-1.32-.22-1.99-.32,0-.66.66-1.03.75-1.65,2.69.03,5.16,1.08,7.74,1.65-.47.4-.95.8-.78,1.53h-2.09c1.03.94,1.7,1.79.23,2.62-.17.1-.15.4.05.53.18.12.4.06.56-.1.8-.77,1.6-1.54,1.48-2.79.87-.25,1.89-.09,2.54-.92Zm-5.29,6.13c.33.9.88,1.65,1.48,2.38.14.16.29.29.52.28.24-.02.22-.21.23-.36.05-.7-1.46-2.63-2.2-2.82-.21-.8-1.25-.27-1.53-.95-.58,0-1.17-.05-1.74.01-.53.06-.88.45-1.04.93-.16.47.26.49.56.57.33,1.01,1.03.52,1.63.39.17.17.34.35.53.5.16.13.11.57.45.39.12-.06.1-.37.15-.57.29-.28.31-.91.95-.74Zm2.4,5.11c-.64.64-.64,1.25-1.15,1.56-.3.18-.38.67-.1.86.67.44,1.26,1.07,2.12,1.16.24.03.51.05.65-.21.14-.26.03-.55-.18-.65-1.06-.48-1.32-1.41-1.35-2.71Z"/>
  <path class="cls-1" d="m66.67,35.41c1.15.59,2.09,1.38,2.84,2.45,1.12,1.61,2.91,2.45,4.43,3.59.97.72,1.65,1.55,1.96,2.73.24.93.86,1.59,1.62,2.21,1.34,1.09,2.21,2.61,2.98,4.12.27.52,1.06.85.78,1.63.06.09.13.18.19.27.03.16.05.33.08.49-.95.21-1.14,1.2-1.78,1.73-.96,1.18-2.35,1.82-3.51,2.74-.27.19-.42.65-.88.39-.32-.19-.34-.51-.34-.84,0-.24,0-.48,0-.71.49-.88.43-1.44-.78-1.33-.64.64-1.5.42-2.27.56h.01c-.08-.1-.16-.2-.24-.3-.14-.2-.12-.41-.04-.63.09-.68.65-1.02,1.07-1.48.51-.24,1.06-.13,1.59-.17.39-.03.63-.24.59-.63-.05-.41-.42-.33-.69-.3-.48.05-.96.16-1.44.25-1.11-.51-.34-1.29-.29-1.97.06-.04.13-.06.2-.06.31-.11.31-.28.08-.48-.02-.48-.05-.96-.07-1.44-.12-.75.25-1.28.77-1.74,1.68-.92,1.7-1.06.19-2.45-.12-.11-.27-.19-.41-.28-.06-1.21-.86-1.72-1.89-2.03-.54-1.02-.99-1.03-1.82-.01-.47.26-.53.8-.8,1.19-.6.85-1.19,1.72-2.19,2.17-.64.29-.52.66-.08,1,.22.17.51.25.77.37-.04.57.45.7.8.95.42.3.9.53,1.12,1.05.06.15.11.3.17.46-.48.05-1.06-.07-1.13.67-.62-.7-1.29-1.37-1.84-2.12-.46-.64-1.07-.55-1.66-.48-.69.08-.64.71-.72,1.21-.54.04-.38-.55-.66-.73-.06-.76.8-1.42.24-2.23.44-.09.84-.32,1.32-.26.31.04.62-.06.61-.43-.02-.77.36-1.43.49-2.15.08-.45.25-1.15-.39-1.24-.55-.07-.55.59-.59,1.03-.04.35-.11.65-.5.76-.4.11-.88,0-.96-.35-.33-1.38-1.34-1.13-2.3-1.07-.68-.2-1.36-.36-1.96-.75-.36-.86-.21-1.66.26-2.42.65-.57,1.17-1.24,1.46-2.06.66-.12.89-1.36,1.7-.83.67.44,1.87.55,1.65,1.88-.05.32.28.67.68.79-.36.44-.71.88-1.21,1.17-.67.03-1.47-.28-1.93.63.53.19.99.36,1.45.51.41.13.83.23.93-.39,1.1-.69,1.85-1.62,1.97-2.96-.53-.42-1.71-.86.07-1.17.12-.02.19-.32.29-.49Zm10.21,13.77c-.63.19-1.09.74-1.3,1.37-.2.57.85,2.44,1.19,2.33.69-.22,1.62-.21,1.75-1.21.09-.67-1.06-2.45-1.63-2.49Z"/>
  <path class="cls-1" d="m121.58,68.55c.18,1.77-.02,1.98-1.85,1.99-2.09,0-3.31-1.06-3.61-3.13-.15-1.03-.84-1.76-1.48-2.5-.25-.29-.65-.45-1.02-.29-.44.2-.3.69-.21.98.37,1.26.14,2.54.23,3.8.06.8-.34,1.11-1.07,1.14-.25.01-.5,0-.75,0q-1.68,0-1.68-1.63c0-3.18,0-6.36,0-9.54,0-1.28.26-1.3,1.53-1.28,2.27.04,3.2,1.65,4.28,3.19.33.47.56,1.41,1.2,1.21.61-.19-.07-.9-.08-1.4-.06-3.02.21-3.3,3.28-2.95.81.09,1.3.37,1.27,1.37-.08,2.93-.05,5.86-.07,8.8-.03.02-.09.06-.08.07.02.06.06.12.09.18Z"/>
  <path class="cls-1" d="m174.16,84.04c-.71-3.47,4.73-7.54,8.59-6.45,3.57,1.01,4.55,3.82,4.15,7.43-.08.73-.1,1.45-.22,2.19-.25,1.47-1.18,2.21-2.46,2.35-2.06.22-4.12.69-6.25.07-1.84-.53-4.23-2.51-3.81-4.93.04-.24,0-.49,0-.65Zm9.21.15c0-2.02-.6-2.74-2.26-2.74-1.75,0-2.98,1.11-2.99,2.68,0,1.18,1.58,3.27,2.5,3.3,1.22.03,2.75-1.77,2.74-3.23Z"/>
  <path class="cls-1" d="m156.71,58.13c1.53-.1,3.03.06,4.48.53.33.11.76.17.73.69-.06,1.04.29,2,.52,2.99.3,1.27-.24,2.28-1.35,2.9-.76.43-.75.84-.3,1.46.58.79,1.12,1.62,1.66,2.43.47.7.23,1.08-.53,1.33-2.08.69-4.27-.46-4.94-2.66-.16-.51-.21-1.11-.96-.97-.68.13-.57.69-.56,1.18,0,.37-.02.74,0,1.11.04.67-.04,1.05-.87,1.3-.81.24-1.46.05-2.19-.07-1.25-.21-.65-1.17-.66-1.76-.07-3.13-.03-6.27-.05-9.4,0-.58,0-1.1.8-1.04.24.02.49.06.7-.12.27-.02.53-.03.8-.05.89.35,1.81.11,2.72.15Zm.28,3.25c-.87-.15-1.43.03-1.7.62-.25.53.03.99.36,1.46.43.62.89.39,1.39.2.74-.28,2.09.18,1.91-1.28-.16-1.28-1.46-.68-1.96-1Z"/>
  <path class="cls-1" d="m141.77,70.48c-.94.21-1.27-.26-1.24-1.11.02-.52.07-1.05.1-1.57.02-.02.07-.05.06-.07-.02-.06-.05-.11-.07-.17,0-.91-.02-1.83-.02-2.74.24-.25.24-.49,0-.73.01-1.59-.08-3.18.11-4.78.14-1.17.87-1.44,1.63-1.38,2.48.18,4.96.06,7.43.25.4.03,1.21-.03,1.01.84-.19.84.57,2.19-1.02,2.31-1.34.1-2.72.26-4.06-.1-.64-.17-.85.13-.9.65-.05.51-.07.95.71.96,1.08.02,2.13-.13,3.18-.25,1.33-.15,1.27.75,1.32,1.67.05.95-.24,1.38-1.24,1.32-1.07-.06-2.15-.04-3.23-.03-.54,0-1.08-.03-1.04.82.04.85.61.92,1.18.9,1.41-.03,2.81-.18,4.21-.02.46.05,1.18-.06,1.08.67-.11.8.99,1.85-.44,2.4-.09,0-.17.02-.26.03-.35.03-.69.07-1.04.1-.09-.11-.17-.09-.24.02-.25,0-.5,0-.75,0-.08-.11-.17-.11-.25,0-.91,0-1.83,0-2.74-.01-.08-.11-.16-.11-.24,0-.25,0-.5,0-.75,0-.08-.11-.16-.11-.24,0-.67,0-1.33,0-2-.01-.1-.11-.18-.07-.24.04Z"/>
  <path class="cls-1" d="m169.14,83.54c.07-1.4-.33-2.63-.25-3.91.11-1.69.28-1.91,1.95-1.9q2.06.01,2.06,2.09c0,2.93-.03,5.86.02,8.79.01.78-.18,1.16-1.02,1.03-.28-.04-.58,0-.87,0-2.19,0-2.21,0-2.95-2.11-.49-1.41-1.81-2.22-2.43-3.52-.08-.16-.31-.29-.54-.21-.26.1-.17.35-.17.54-.01,1.44-.05,2.89,0,4.33.03.74-.17.99-.95.98-2.06-.01-1.92.02-2.09-1.99-.23-2.74.14-5.47.04-8.2-.03-.71-.03-1.4.78-1.76.78-.34,1.46-.08,2.05.35,1.28.94,2.19,2.21,2.98,3.57.37.63.71,1.28,1.39,1.9Z"/>
  <path class="cls-1" d="m126.63,82.95c0-1.36.01-2.72-.02-4.08-.02-.77.26-1.14,1.07-1.14,1.78,0,3.56-.09,5.33-.05,1.98.04,3.96,2.75,3.55,4.68-.12.57-.69.53-.94.94.47.68.99,1.3,1.37,2.08.93,1.87-.18,4.16-2.95,4.24-2.31.06-4.64.22-6.96,0-.33-.48-.21-1.02-.25-1.55-.13-1.7.25-3.42-.2-5.11Zm2.97,3.52c-.18.36.03.75.28.95.63.5,1.44.32,2.11.14.6-.16,1.21-.56,1.31-1.33.04-.32-.04-.55-.44-.55-.77,0-1.53,0-2.3-.21-.67-.18-1.13.15-.95,1Zm1.1-3.74c.55-.11,1.11-.21,1.66-.34.26-.06.42-.24.41-.53,0-.44-.35-.37-.62-.39-.44-.02-.87-.03-1.31-.19-.42-.16-.94-.06-1.01.56-.06.6.19.95.87.9Z"/>
  <path class="cls-1" d="m184.85,70.44c-.25,0-.5,0-.76,0-.08-.1-.16-.1-.24,0-.59,0-1.17,0-1.76,0-.24-.21-.48-.21-.72,0-1.84-.01-1.8-.01-1.77-1.7.05-2.94.29-5.88.03-8.82-.05-.61-.48-1.54.64-1.83.37.05.74.16,1.07-.12.18,0,.35.02.53.02.93.31,1.87.15,2.81.09,3.38-.3,6.05,2.16,6.1,5.29.07,3.96-1.76,6.88-5.7,7.07-.08-.1-.16-.1-.24,0Zm-2.21-6.05c0,.7.04,1.41-.01,2.11-.04.63.15.85.82.85,1.87-.02,3.23-1.24,3.4-3.16.1-1.18-1.1-2.52-2.54-2.81-1.37-.28-1.67-.03-1.68,1.4,0,.54,0,1.07,0,1.61Z"/>
  <path class="cls-1" d="m222.68,83.63c0-1.61.04-3.23-.02-4.84-.03-.77.16-1.13,1.01-1.12,2.07.04,4.15-.09,6.22.05,1.1.07,2.1.52,2.36,1.93.41,2.16.98,4.28-.94,6.05-.22.2-.25.49-.03.66.86.66.73,1.77,1.22,2.61.43.74.21,1.23-.79,1.19-1.75-.07-3-.95-3.99-2.32-.24-.33-.43-.76-.75-.96-.49-.3-1.07-.41-1.04.51,0,.21-.01.41,0,.62q.05,1.65-1.53,1.65t-1.72-1.67c0-1.45,0-2.89,0-4.34Zm5.13-2.17c-.52,0-.8,0-1.09,0-.43,0-.81,0-.81.62,0,.51.1.9.65,1,.36.07.75.14,1.09.06.7-.15,1.89.09,1.89-.83,0-1.1-1.17-.82-1.73-.86Z"/>
  <path class="cls-1" d="m98.2,83.63c0-1.7,0-3.39,0-5.09,0-.41-.07-.87.59-.83,1.97.12,4-.42,5.9.29,3.88,1.46,6.53,5.61,3.62,9.58-.98,1.34-2.36,1.93-3.91,2.04-1.78.12-3.57,0-5.35.05-.77.02-.87-.3-.86-.95.04-1.69.01-3.39.01-5.09Zm4.17-2.17c-.41.19-1.5-.4-1.36.52.18,1.21-.22,2.36-.03,3.51.12.73,0,1.78,1.38,1.72,1.56-.07,2.78-1.19,2.8-2.82.03-2.04-.79-2.93-2.8-2.94Z"/>
  <path class="cls-1" d="m167.7,61.55c.76,1.32,1.93,1.71,3.1,2.01,1.84.48,2.06.73,2.12,2.53.03.87-.14,1.7-.28,2.54-.16.91-1.48,1.85-2.76,1.88-1.56.03-3.11.14-4.68-.19-1.14-.24-1.86-.86-2.21-1.83-.24-.67,0-1.5.57-1.98.95-.79,1.99-.5,2.97.02.29.15.53.39.82.54.27.14.39.73.89.28.35-.31.44-.65.43-1.09-.01-.47-.23-.61-.67-.71-.99-.22-1.97-.48-2.93-.79-1.54-.49-2.46-3.34-1.57-4.81.81-1.34,3.43-2.4,5.16-2.06,1.07.21,2.13.49,3.21.7.3.06.66.07.71.38.18,1.1-.52,1.93-1.05,2.76-.38.59-1,.43-1.52.11-.69-.42-1.43-.2-2.29-.31Z"/>
  <path class="cls-1" d="m110.61,85.16c0-.15.02-.3.03-.45,0-.1,0-.2,0-.31.02-.16.04-.31.06-.47.22-.16.22-.33,0-.49.13-1.71-.67-3.39-.09-5.13.15-.45.26-.59.71-.59,2.61,0,5.22-.02,7.83-.05.74,0,.99.28.99,1.04-.01,2.62.02,2.62-2.67,2.58-.91-.01-1.83-.03-2.74,0-.41.01-.89.1-.78.7.08.42.27.72.83.69,1.12-.05,2.24.04,3.36-.02,1.12-.06,1.45.58,1.47,1.5.01.99-.48,1.52-1.52,1.5-1-.01-1.99-.03-2.99.01-.46.02-1.18-.33-1.23.58-.06.98.67.85,1.28.86,1.37.02,2.74.06,4.1,0,1.15-.04,1.07.65,1.12,1.45.05.9-.26,1.1-1.11,1.08-2.57-.06-5.14-.04-7.71,0-.76.01-1.02-.22-.96-1,.07-.99.01-1.98.01-2.97.29-.17.3-.35,0-.53Z"/>
  <path class="cls-1" d="m155.5,89.64c-1.24,0-2.49-.04-3.73.02-.72.03-1.08-.38-1-.91.49-3.12.09-6.25.2-9.37.07-2.05-.09-1.61,1.65-1.64,1.99-.04,3.98-.08,5.97-.06,1.64.02,2.56,1.74,1.76,3.18-.23.41-.62.38-.98.38-1.33.01-2.65,0-3.98-.01-.57,0-1.33,0-1.36.64-.04.78.72.84,1.38.83,1.08-.01,2.16.06,3.23-.02.95-.07,1.27.65,1.21,1.19-.08.69.02,1.78-1.2,1.8-1.24.02-2.49-.02-3.73,0-.39,0-.93-.22-.97.56-.04.72.45.87.92.89,1.16.06,2.32,0,3.48.03,1.55.02,2.07.47,2.11,1.64.02.65-.22.88-.85.86-1.37-.03-2.74,0-4.11,0h0Z"/>
  <path class="cls-1" d="m191.86,81.51c.97,1.34,2.32,1.18,3.49,1.4,1.46.27,2.31.91,2.41,2.32.07.97.06,1.94-.14,2.93-.15.77-.61,1.1-1.12,1.31-2.78,1.13-5.53.62-8.23-.37-.17-.06-.39-.29-.39-.44-.05-1.11.79-1.77,1.44-2.47.54-.58,1.15-.21,1.65.21.22.18.41.41.61.62.73.8,1.47.76,2.12-.12.45-.62.2-1.24-.57-1.22-1.74.04-2.76-1.43-4.23-1.96-.59-.21-.78-2.74-.43-3.48,1.09-2.26,3.58-3.4,6-2.66.61.18,1.25.33,1.81.7.96.64,1.35,1.64.91,2.61-.35.78-1.45,1.14-2.49.8-.88-.29-1.76-.29-2.83-.18Z"/>
  <path class="cls-1" d="m97.88,62.78c0-1.16,0-2.31,0-3.47,0-.57.13-1.1.84-1.17.73-.07,1.46,0,1.71.82.41,1.36.41,2.75.13,4.13-.26,1.25.51,3.4,1.61,3.96.74.38,1.53.21,1.99-.52.55-.87.81-1.85.8-2.9-.02-1.53,0-3.05-.03-4.58,0-.66.23-.99.94-.96,3.16.11,2.88-.34,2.84,2.75-.03,2.13-.01,4.24-.49,6.37-.66,2.92-3.92,3.77-6.19,3.49-.12-.01-.22-.12-.34-.14-2.93-.57-3.53-1.22-3.7-4.19-.07-1.19-.01-2.39-.01-3.59-.03,0-.06,0-.09,0Z"/>
  <path class="cls-1" d="m202.71,89.53c1.09-2.25,1.95-4.48,3.13-6.58.67-1.2,1.17-2.5,1.87-3.7.44-.75.55-1.71,1.75-1.79,1.35-.09,2.29.94,2.41,1.74.37,2.61,2.5,4.4,2.95,6.92.16.91.5,1.8.77,2.69.24.81-.21.85-.64.97-1.06.29-2.74-.32-3.13-1.3-.31-.77-.85-.85-1.44-.79-.89.09-1.76.31-2.64.49-.24.05-.61.12-.67.28-.86,2.19-2.7.83-4.07,1.15-.03,0-.08-.02-.28-.08Zm7.08-4.88c.45-.03.47-.32.47-.62,0-.5-.23-.91-.74-.98-.42-.05-.53.32-.52.68.03.51.34.81.79.92Z"/>
  <path class="cls-1" d="m141.54,78.41c.39,1.55.23,3.12.08,4.67-.06.66-.1,1.32-.08,1.97.06,1.43,1.3,2.46,2.68,2.12,1.15-.29,1.21-1.46,1.27-2.35.12-1.85.05-3.72.03-5.58,0-.83-.03-1.54,1.17-1.53,2.03.02,2.36.13,2.34,1.49-.05,2.71.17,5.43-.24,8.14-.13.85-.39,1.34-1.26,1.71-2.13.91-4.22,1.34-6.51.62-1.34-.42-2.12-1.31-2.24-2.7-.16-1.93-.21-3.85-.14-5.77.18-.17.18-.33-.01-.48-.08-.69-.09-1.37.12-2.04.04-.07.05-.14.03-.22.26-1.07,1.07-1.27,2.3-.54.17.1.29.29.43.43,0,0,.02.07.02.07Z"/>
  <path class="cls-1" d="m133.52,64.71c1.29-1.74,1.37-3.89,2.52-5.61.58-.87,2.81-1.4,3.57-.71.3.27.2.57.11.9-.61,2.25-1.28,4.48-2.72,6.38-.34.45-.46,1-.46,1.61,0,1.7-1.58,3.33-3.05,3.25-.82-.04-1.18-.49-1.44-1.24-.58-1.68-1.11-3.35-2.12-4.9-1.05-1.63-2.04-3.42-2.23-5.47-.04-.41.04-.68.46-.79,2.3-.65,3.85.43,4.18,2.68.2,1.33.77,2.61,1.17,3.91Z"/>
  <path class="cls-1" d="m127.01,64.89c-.13,1.67-.07,2.95.06,4.22.08.82-.18,1.23-1.1,1.2-.64-.02-1.29.17-1.94.22-.98.08-1.32-.44-1.2-1.36.4-3.23.39-6.47,0-9.7-.1-.82.09-1.35,1.08-1.38.96-.03,2.19-.16,2.71.39.51.54.34,1.77.37,2.7.05,1.36.01,2.73.01,3.71Z"/>
  <path class="cls-1" d="m220.84,78.47c.15,3,.32,5.99-.11,8.98,0,.04,0,.08,0,.12-.11.67.35,1.7-.21,1.94-.77.33-1.78.09-2.69.13-.53.02-.54-.31-.62-.7-.42-2.05-.2-4.14-.34-6.21-.09-1.3-.08-2.63.14-3.94.15-.91.6-1.35,1.54-1.13.73.17,1.6-.19,2.19.53.04.09.08.18.12.28Z"/>
  <path class="cls-1" d="m177.91,64.32c0,1.65-.04,3.3.02,4.95.03.77-.32,1.13-.99,1.22-.61.08-1.25.11-1.86.02-.82-.11-.94-.78-.94-1.48,0-3.22.05-6.44-.02-9.66-.02-.9.33-1.23,1.11-1.42,1.6-.39,2.67.41,2.66,2.03,0,.74,0,1.49,0,2.23,0,.7,0,1.4,0,2.11,0,0,.01,0,.02,0Z"/>
  <path class="cls-1" d="m9.63,95.26c-.38.17-1-.07-1.08.62-1.72-1.1-2.86-2.57-3.05-4.66-.08-.86-.79-1.37-1.2-2.05.16-.02.41.02.48-.07,1.48-2,3.55-1.07,5.42-1.1.01.17.03.34.04.51-.84.26-1.71.11-2.57.15-.31.02-.74-.16-.91.16-.22.43.29.6.5.87.16.2.31.38.32.64-.24.07-.72-.37-.69.04.05.78-.03,1.65.44,2.31.3.43.84.57,1.2-.08.31.15.29.43.29.7-.17.09-.47-.02-.33.42.21.67.91.91,1.14,1.52Z"/>
  <path class="cls-1" d="m21.26,105.49c.23-.62.29-1.26.27-1.92-.01-.26-.09-.66.33-.66.32,0,.63.21.65.61.01.24.05.5,0,.73-.23,1.29.39,1.79,1.61,1.77.22.02.43.04.65.07-.09.43-.18.86-.27,1.29.51,1.03,1.33,1.19,2.34.84.14.09.27.17.41.26-.22.42-.48.85.25,1.04-.08.41-.17.81-.25,1.22-1.54-1.25-3.63-1.58-5.02-3.13-.42-.47-1.49.3-1.95-.6.1-.2.2-.4.3-.59.2.03.41.09.61.09.35,0,.77.13.81-.47.04-.61-.4-.49-.74-.55Z"/>
  <path class="cls-1" d="m10.98,98.62c.54.16.51-.77,1.07-.57.14.47.21.97.43,1.4.21.43.53.92,1.12.36.31.02.44.19.45.49-.27.09-.46.19-.12.44.71.51,1.47.86,2.37.83,0,0-.02-.02-.02-.02,1.06,1.27,2,2.65,3.25,3.76-.09.42-.19.84-.28,1.26-.18-.08-.44-.11-.54-.24-1.14-1.7-2.94-2.71-4.33-4.15-.96-.99-2.54-1.3-3.06-2.78-.09-.27-.23-.52-.35-.78Z"/>
  <path class="cls-1" d="m66.67,35.41c-.1.17-.17.47-.29.49-1.78.31-.59.75-.07,1.17-1.09-.43-.84.66-1.21,1.05-.4-.12-.73-.47-.68-.79.22-1.33-.98-1.44-1.65-1.88-.81-.53-1.04.71-1.7.83-.27-.29-.67-.17-.98-.33.48-1.11,1.39-1.87,2.26-2.65.81.9,2,.99,3.04,1.39.45.18.85.47,1.27.71Z"/>
  <path class="cls-1" d="m34.42,110.72c.17,0,.35,0,.52.01.53,1.47,1.58.55,2.44.53.38.71-.11,1.45.08,2.16-.85.68-1.8.18-2.54-.06-.98-.32-2.03-.46-2.96-.95-.22-.88,1.01-.88,1-1.64.48-.02.97-.04,1.45-.06Z"/>
  <path class="cls-1" d="m42.92,31.08h-.7c-.91-1.76-2.59-1.43-4.12-1.52-.63-.04-1.47.36-1.65-.72,2.39-.47,4.79-.83,7.23-.46-.64.79-1.27,1.58-.76,2.7Z"/>
  <path class="cls-1" d="m79.78,54.64c.64-.53.83-1.52,1.78-1.73.85,1.24.77,2.75,1.23,4.1.19.56.24,1.19.73,1.61-.96-.38-1.2.7-1.87.91.08-.25.2-.51-.12-.68,0-.33.02-.66.34-.87.35-.23.57-.55.27-.91-.25-.3-.59-.2-.85.07-.4.42-.74.09-1.1-.08.68-.2,1.01-.63.86-1.35-.14-.67-.48-1.13-1.26-1.07Z"/>
  <path class="cls-1" d="m4.6,69.96c-.01.36-.01.72-.02,1.09-.36,0-.72.04-1.07,0-.97-.11-1.24.29-.9,1.17.09.84-.32,1.74.25,2.54-.35.23-.21.89-.42,1.13-.06.08-.16.11-.31.08-.08-.02-.14-.04-.2-.07-.43-.25-.14-.97-.16-1.44-.04-1.23.04-2.46.02-3.69,0-.65.2-1.07.91-1,.63.06,1.31-.28,1.9.19Z"/>
  <path class="cls-1" d="m59.45,37.01c-.29,0-.58.01-.87.01-.85,0-1.19-.45-.83-1.18.47-.95.58-2.07,1.33-2.88.39-.42.24-.93.28-1.41.52.31.99.68,1.27,1.24-1.36.29-1.12,1.45-1.39,2.38-.21.73.08.87.68.9-.16.31-.31.62-.47.94Z"/>
  <path class="cls-1" d="m59.92,36.08c-.59-.02-.88-.17-.68-.9.26-.93.03-2.1,1.39-2.38.61.05,1.37-.4,1.73.51-.87.78-1.78,1.54-2.26,2.65-.03.08-.09.12-.17.12Z"/>
  <path class="cls-1" d="m84.96,63.59c-1.15-.18-1.57.32-1.47,1.45.04.49.23,1.07-.21,1.52-.16.11-.32.21-.48.32-.07-.61.05-1.25-.28-1.82.21-.09.5-.1.42-.45-.11-.48-.44-.71-.91-.75.66-.67,1.32-1.34,1.98-2.01.55.45,1.12.9.96,1.74Z"/>
  <path class="cls-1" d="m49.41,28.88c-.09.62-.74.99-.75,1.65-.41.03-.82.05-1.24.08-.03-.73-.84-.46-1.15-.89-.26-.37-.82-.52-.86-1.09,1.35-.21,2.66.24,4,.25Z"/>
  <path class="cls-1" d="m32.96,110.78c.02.76-1.22.76-1,1.64-.8-.02-1.73.39-2.2-.68.03-.03.08-.08.08-.08-.04-.05-.09-.1-.13-.15,0,0,0,0,0,0,0-.25.01-.51.02-.76,0,0,0,0,0,0,.29,0,.6.04.76-.29.84,0,1.69-.08,2.47.33Z"/>
  <path class="cls-1" d="m10.14,76.7c-.46.02-.9.08-1.11.58-1.49-.5-.78-1.8-1-2.76.66.17,1.32.32,1.98-.03.23.73.07,1.47.13,2.21Z"/>
  <path class="cls-1" d="m59.15,31.4c-.66.83-1.68.67-2.54.92-.08-.09-.15-.18-.23-.27-.17-.73.31-1.12.78-1.53.67.29,1.33.58,2,.87Z"/>
  <path class="cls-1" d="m20.77,36.79c-.46.26-.87.63-1.1-.29-.16-.64-.82-.69-1.41-.72.66-.59,1.29-1.21,2.26-1.21-.13.6.45.94.53,1.46-.24.13-.58.15-.62.49-.01.08.22.18.34.27Z"/>
  <path class="cls-1" d="m27.24,110.74c.08-.41.17-.81.25-1.22.66-.02,1.32-.04,1.97-.07.23.4.29.83.27,1.28,0,0,0,0,0,0-.78.02-1.57.03-2.35.05h-.08s-.06-.05-.06-.05Z"/>
  <path class="cls-1" d="m29.5,32.8c-.26-.01-.51-.02-.77-.03.15-.84-1.03-.88-1-1.64.53.06.82-.39,1.24-.58.54.67.99,1.35.53,2.25Z"/>
  <path class="cls-1" d="m126.63,82.95c.46,1.69.08,3.41.2,5.11.04.53-.08,1.07.25,1.55-.5.02-.48-.34-.48-.67,0-2,.02-4,.03-5.99Z"/>
  <path class="cls-1" d="m184.69,58.08c-.94.05-1.88.22-2.81-.09.93.16,1.89-.51,2.81.09Z"/>
  <path class="cls-1" d="m27.38,110.79c.78-.02,1.57-.03,2.35-.05,0,.25-.01.51-.02.76-.58-.87-1.62-.26-2.33-.71Z"/>
  <path class="cls-1" d="m156.71,58.13c-.91-.04-1.83.19-2.72-.15.91-.05,1.83-.14,2.72.15Z"/>
  <path class="cls-1" d="m84.22,59.37c-.43-.04-.48-.34-.47-.68.39.06.54.3.47.68Z"/>
  <path class="cls-1" d="m181.35,57.96c-.33.28-.7.17-1.07.12.34-.21.7-.17,1.07-.12Z"/>
  <path class="cls-1" d="m110.61,85.16c.29.18.29.35,0,.53-.29-.18-.29-.35,0-.53Z"/>
  <path class="cls-1" d="m181.38,70.43c.24-.21.48-.21.72,0-.24,0-.48,0-.72,0Z"/>
  <path class="cls-1" d="m153.2,58.02c-.21.17-.46.13-.7.12.21-.17.45-.17.7-.12Z"/>
  <path class="cls-1" d="m140.6,64.09c.24.24.24.49,0,.73,0-.24,0-.49,0-.73Z"/>
  <path class="cls-1" d="m210.75,70.44c.25-.22.53-.17.82-.11-.25.18-.53.2-.82.11Z"/>
  <path class="cls-1" d="m138.62,80.71c.19.15.2.31.01.48,0-.16,0-.32-.01-.48Z"/>
  <path class="cls-1" d="m110.71,83.44c.21.17.21.33,0,.49,0-.16,0-.33,0-.49Z"/>
  <path class="cls-1" d="m29.71,111.5s.1.09.13.15c0,0-.05.06-.08.08-.04-.07-.06-.15-.06-.23Z"/>
  <path class="cls-1" d="m220.84,78.47c-.04-.09-.08-.18-.12-.28.04.09.08.18.12.28Z"/>
  <path class="cls-1" d="m138.78,78.46c.02.08.01.15-.03.22-.01-.05-.03-.1-.03-.16,0-.02.04-.04.06-.06Z"/>
  <path class="cls-1" d="m140.62,67.56c.03.06.06.11.07.17,0,.02-.04.05-.06.07,0-.08,0-.16,0-.24Z"/>
  <path class="cls-1" d="m121.58,68.55c-.03-.06-.07-.12-.09-.18,0-.01.05-.05.08-.07,0,.08,0,.17,0,.25Z"/>
  <path class="cls-1" d="m141.77,70.48c.06-.11.14-.15.24-.04-.08.01-.16.03-.24.04Z"/>
  <path class="cls-1" d="m144.02,70.45c.08-.11.16-.11.24,0-.08,0-.16,0-.24,0Z"/>
  <path class="cls-1" d="m1.76,76.14c-.03.12-.06.23-.09.35.03-.12.06-.23.09-.35Z"/>
  <path class="cls-1" d="m145.01,70.45c.08-.11.16-.11.24,0-.08,0-.16,0-.24,0Z"/>
  <path class="cls-1" d="m81.47,52.42c-.06-.09-.13-.18-.19-.27.13.05.23.11.19.27Z"/>
  <path class="cls-1" d="m148,70.47c.08-.11.16-.12.25,0-.08,0-.16,0-.25,0Z"/>
  <path class="cls-1" d="m149,70.46c.07-.11.15-.12.24-.02-.08,0-.16.01-.24.02Z"/>
  <path class="cls-1" d="m150.28,70.34c.09,0,.17-.02.26-.03-.09,0-.17.02-.26.03Z"/>
  <path class="cls-1" d="m183.86,70.43c.08-.1.16-.1.24,0-.08,0-.16,0-.24,0Z"/>
  <path class="cls-1" d="m184.85,70.44c.08-.1.16-.11.24,0-.08,0-.16,0-.24,0Z"/>
  <path class="cls-1" d="m205.76,70.45c.09-.11.17-.1.24.01-.08,0-.16,0-.24-.01Z"/>
  <path class="cls-1" d="m209.75,70.45c.08-.11.16-.12.24,0-.08,0-.16,0-.24,0Z"/>
  <path class="cls-1" d="m110.64,84.41c0,.1,0,.2,0,.31-.06-.07-.12-.13-.17-.2.06-.04.12-.07.18-.11Z"/>
  <polygon class="cls-1" points="141.54 78.41 141.52 78.34 141.58 78.37 141.54 78.41"/>
  <path class="cls-1" d="m68.09,77.74c.2-.33.24-.69.25-1.07.08-3.66.18-7.32.26-10.97,0-.24.03-.66-.07-.69-1.32-.48-.86-1.57-.96-2.51-.11-.96-.91-1.62-1.62-2.04-.93-.55-2.1-.67-3.21-.59-.73.05-.79.46-.39,1,.95,1.29,1.25,2.99,2.59,4.05.16.13.14.54.14.82,0,1.95.02,3.9-.22,5.84-.04.32-.08.6-.4.68-.41.1-.46-.34-.53-.55-.12-.33-.1-.73-.09-1.1.02-2.01.06-4.01-.49-5.97-.03-.12.01-.32-.05-.36-1.06-.6-1.41-1.52-1.29-2.69.02-.24-.31-.2-.5-.22-.47-.06-.89-.42-.85-.76.11-1.12-.53-1.58-1.38-2.04-.56-.3-.71-1.01-.87-1.59-.19-.7-.09-1.56.51-1.88.38-.2,1.05.36,1.46.85,1.27,1.5,1.13,1.27,2.78.11,1.32-.93.93-1.61.54-2.72-.91-2.59-2.8-4.18-5.09-5.44.29-.76,1.28-1.2,1.01-2.21.98.91,2.09,1.69,2.74,2.9.23.42.59.35.96.33l.07.07c-.12.6-.02,1.03.74.94.11,1.71.97,3.13,1.79,4.56.26.45.26.88-.11,1.24-.5.48-1.02,1.08-.63,1.7.44.71.98-.04,1.48-.21.28-.09.64-.15.81.11.23.34-.05.5-.37.59-.25.07-.51.19-.4.5.09.26.37.29.62.32.46.05.92.1,1.21.52.82,1.19,1.79,1.05,2.84.36.21.01.38.09.46.3-.32.34-.3.75-.23,1.17-1.64.38-1.24,1.68-1.27,2.79.48,1.21-.05,2.56.42,3.74.49,1.25.29,2.52.31,3.78,0,.42-.52.91-.09,1.25.44.34,1.02.17,1.5-.15.5.29,1.24.28,1.35,1.06-.8.49-1.39,1.27-2.29,1.61-.86.33-1.21.92-.96,1.83-.47.91-.75,1.87-.74,2.9-.74.18-.57.64-.31,1.09.89,1.55.84,1.93-.44,3.2.03-.55-.65-.43-.78-.83-.14-.55.98-1.65-.67-1.53.25-.65.55-1.28.73-1.94.19-.73.24-1.48-.26-2.15Z"/>
  <path class="cls-1" d="m37.69,77.28c.4-.22,1.1-.1,1.2-.62.13-.63-.65-.75-.95-1.16,1.08-.55,1.16-1.01.46-2.44l.07-.07c1.93.35,2.12.23,1.96-1.21.1-.21.29-.24.49-.25h0c-.02.86-.08,1.71.56,2.42.29.33.23.76.18,1.16-.14.61-.3,1.26.49,1.53.36.12.67.95,1.16.15,1.52-.15,2.98.74,4.46.38,1.22-.29,2.5.11,3.64-.38.89-.38,1.49-.34,1.92.57.18.38.49.44.83.32.39-.13.45-.41.3-.79-.27-.67.07-1.09.65-1.39.41.41.93.21,1.41.27.48.07.94.51.45.76-1.05.53-1.42,1.53-2.13,2.29-.41.43-.87.95-1.54.93-3.2-.07-6.41.43-9.59-.27-.43-.1-1.06-.47-1.41.25-.47.07-.75-.25-1.03-.54-.26-.28-.51-.38-.96-.31-1.94.31-1.95.27-2.62-1.59Z"/>
  <path class="cls-1" d="m61.6,94.61c-.53-.32-1.03-.73-1.61-.92-.94-.32-1.44-.86-1.38-1.88.02-.41-.03-.78-.6-.91-2.19-.5-2.78-1.27-2.88-3.66-.04-.87.05-1.73.37-2.54.13-.32.55-.8.74-.14.31,1.09.77.71,1.3.29.37-.29.74-.57,1.24-.35.57.25.32.79.35,1.21.1,1.51.17,3.03.25,4.54.02.29-.02.6.28.77.95.56,1.68,1.43,2.7,1.89-.24.57-1,.92-.76,1.71Z"/>
  <path class="cls-1" d="m73.29,64.34c.64.19,1.33.13,1.84.77.46.58.82-.23,1.26-.3.27.16.53.3.86.19.01,1.3.03,2.6.05,3.9,0,.28-.06.58.19.81,1.1,1.03-.01.97-.57,1.06-.52.09-1.05-.06-1.18.73-.06.39-.5.53-.9.31-.41-.22-.85-.28-1.31-.3.02-.24.15-.55.04-.71-1.42-2.11-.07-4.32-.27-6.46Z"/>
  <path class="cls-1" d="m43.92,91.62c-.89.53-1.78,1.06-2.66,1.59-.26.16-.61.25-.63.64-.14-.19-.34-.36-.42-.57-.13-.34-.31-.48-.64-.31-.34.18-.45.49-.23.82.18.27.43.49.66.72.55.56.7,1.16.19,1.83-.51-.1-.95.16-1.43.23-.32.04-.71.12-.94-.15-.27-.32,0-.62.23-.86.31-.31.26-.56-.09-.78.18-.54.43-1.07-.4-1.36-.22-.08-.4-.42-.5-.68-.12-.32-.44-.69-.15-1.01.25-.28.61-.08.92.03.87.32,1.69-.11,2.53-.2.38-.04.32-.41.34-.69.34.02.67.03,1.01.05-.27.44-.21.69.36.69.62,0,1.24,0,1.86,0Z"/>
  <path class="cls-1" d="m78.29,80.12c-.27.71-.11,1.64-.86,2.37-.59.57-.77,1.38-.51,2.28.29.99-.2,1.42-1.17,1.08-.38-.14-.76-.33-1.08-.58-.34-.27-.44-.69-.37-1.12.08-.53.5-.47.86-.45.99.06,1.07-.57.74-1.19-.74-1.38.11-2.25.88-3.16.29-.35.67-.5,1.11-.3.41.19.4.58.39,1.08Z"/>
  <path class="cls-1" d="m15.99,79.96c-.02.75.28,1.53-.19,2.24-.81,0-1.29-.94-2.17-.74-.16-.55.1-1.46-1.02-1.18-.07-.33.01-.75-.5-.81-.04-.32-.17-.53-.54-.49.31-.95,2.26-1.71,3.02-1.17.28.2.31.53.2.78-.6,1.37.2,1.45,1.21,1.36Z"/>
  <path class="cls-1" d="m72.28,83.94c-1.09-1.29-1.05-2.67.17-3.71.63-.53.34-1.15.35-1.75.41-.9,1.15-.46,1.78-.41.06,0,.16.2.15.29-.03.33-.3.32-.54.36-.79.12-1.2.28-.45,1.13.96,1.09.05,3.47-1.46,4.08Z"/>
  <path class="cls-1" d="m38.41,73.06c-.8-.18-1.61-.36-2.41-.53-.26-.75-1.22-.6-1.58-1.22.93-.42,1.04-1.88,2.34-1.84.53.55,1.27.59,1.94.8.14.54-.37,1.31.58,1.55-.2.43-1.06.42-.79,1.17l-.07.07Z"/>
  <path class="cls-1" d="m31.74,93.38c.19,1.23,1.08,1.16,1.98,1.06-.19.52-.33,1.06-.25,1.62-2.35.02-4.01-1.56-4-3.85,0-.53.03-1.06.05-1.59.32,0,.65,0,.97.01,0,.48.03.95.01,1.43-.03.69.21,1.16.94,1.29.1,0,.2.01.3.02Z"/>
  <path class="cls-1" d="m47.19,102.3c-.37-1.76-1.85-2.54-3.49-1.81-.33.15-.62.39-1.02.33-.09-.39-.18-.77-.26-1.16.13-.11.45-.08.34-.39-.24-.67.12-.77.67-.75.49.02.98.02,1.47.02.79,0,1.73-.27,1.64,1.1-.02.3.36.39.66.43.87.16.85.73.59,1.35-.13.32-.39.59-.59.88Z"/>
  <path class="cls-1" d="m78.95,83.66c-.34,0-.55-.17-.62-.49-.09-.4-.02-.85.41-.91.97-.14.93-.8,1.05-1.52.15-.87.48-1.72.78-2.57.1-.28.35-.51.68-.31.27.17.65.44.38.78-.5.63-.29,1.34-.36,2.02-.09.95-1.66,2.96-2.32,2.99Z"/>
  <path class="cls-1" d="m43.23,86.92c.39-.5-.19-1,0-1.5.08.02.17.01.24.05.66.42,1.88.53,2.49.21.07-.03.16-.01.24-.02.58.49.65,1.21.84,1.87-1.36.39-2.65.32-3.8-.62Z"/>
  <path class="cls-1" d="m38.72,103.44c-.41.41-.79.85-1.43.9-.39.04-.61.24-.54.66-1.26-.05-1.17-1.17-1.54-1.93.82-.07,1.64-.11,2.25-.78.51.28,1.32.23,1.25,1.14Z"/>
  <path class="cls-1" d="m33.73,70.98c-1.01.19-1.82.62-1.96,1.77-.59.06-1.22-.1-1.76.27.42-1.83,1.62-2.77,3.44-3.02.09.33.19.66.28.98Z"/>
  <path class="cls-1" d="m47.39,93.61c.11.49.21.98.32,1.48-.42-.28-.83-.08-1.24.02-.01-.89-.62-.75-1.2-.72-.27.02-.61.49-.82-.02-.15-.36,0-.73.28-1,.46-.45.93-.89,1.4-1.33.35.58-.02,1.74,1.27,1.57Z"/>
  <path class="cls-1" d="m63.89,101.29c-1.23.73-1.75-.66-2.66-.91-.21-.06-.09-.46.12-.62.16-.12.38-.15.55-.27,1.16-.79,1.19-.79,1.43.53.1.52.41.54.79.57-.08.23-.15.46-.23.69Z"/>
  <path class="cls-1" d="m46.88,97.89c-.25-.62-.56-.95-1.32-.57-.26.13-.77.51-1.1.11-.26-.32-.75-.63-.51-1.16.23-.49.72-.56,1.16-.4.54.2,1.01.35,1.35-.28.89.63.28,1.53.42,2.3Z"/>
  <path class="cls-1" d="m61.93,83.68c-.27-.08-.55-.16-.82-.24.17-.33.37-.69.18-1.04-.48-.92.05-1.44.7-1.93.09.29.23.51.59.41-.32.42-.66.84-.39,1.4.27.56.82.39,1.28.4.28,0,.56,0,.84-.02l.05.06c-.63.8-1.63.64-2.44.95Z"/>
  <path class="cls-1" d="m7.85,85.54c-.01.29-.02.68-.42.59-.91-.2-1.04-1.07-1.33-1.77-.1-.23.06-.5.35-.55.35-.06,1.41,1.26,1.41,1.73Z"/>
  <path class="cls-1" d="m12.99,85.18c-.04.32-.08.64-.12.96-1.4,0-2-.63-2.31-2.45,0,0,0,0,0,0,.56.05.87.37.99.9.2.87.72.97,1.44.6Z"/>
  <path class="cls-1" d="m50.39,93.34c-.05.42-.22.78-.44,1.14-.16.25-.04.79-.52.63-.31-.1-.64-.43-.78-.74-.16-.35.15-.64.5-.7.4-.07.62-.39.94-.57.1.08.2.16.3.24Z"/>
  <path class="cls-1" d="m58.19,104.08c-.55-.59-.86-1.21-1.43-1.6-.22-.15-.24-.53,0-.77.21-.21.46-.13.66.04.67.57,1.17,1.21.78,2.33Z"/>
  <path class="cls-1" d="m70.56,88.65c.28-.4,1.02-.32,1.03-.99.4.59.85,1.09,1.67,1.04.23-.01.49.17.42.48-.06.25-.31.22-.51.23-.33,0-.7.04-.93-.23-.46-.54-1.06-.56-1.68-.53Z"/>
  <path class="cls-1" d="m10.58,81.7c.16.02.33.05.49.07-.24.62-.67,1.19-.51,1.92,0,0,0,0,0,0-.4-.28-1.2-.15-1.19-.83.01-.67.66-.91,1.21-1.16Z"/>
  <path class="cls-1" d="m31.97,75.99c.49-.28.59-.7.47-1.22.6.42.93,1.23,1.81,1.24-.37.54-1.09.55-1.5,1.03-.03-.52-.1-1.02-.78-1.06Z"/>
  <path class="cls-1" d="m60.87,102.24c-.6-.07-.77.31-.83.8-.36-.35-.15-.85-.33-1.27-.16-.36-.29-.84.32-.95.48-.08.76.21.81.69.02.24.02.49.03.73Z"/>
  <path class="cls-1" d="m70.41,91.63c.38.03.75.26.81.69.07.48-.36.56-.74.58-.44.02-.7-.15-.68-.63.01-.36.1-.65.61-.64Z"/>
  <path class="cls-1" d="m67.62,100.79c-1.12-.27-1.58-1.22-2.18-2.03.95.28,1.48,1.06,2.11,1.71.02.11.04.21.06.32Z"/>
  <path class="cls-1" d="m25.55,105.27c-.01-.38-.03-.75-.04-1.13-.07-.42.15-.69.45-.93.2-.16.44-.25.65-.05.21.2.14.47-.04.64-.44.42-.75.92-1.02,1.46Z"/>
  <path class="cls-1" d="m82.97,71.6c.1-.02.2-.04.3-.06.08.96.15,1.92.23,2.88-.19-.27-.38-.53-.75-.53.08-.76-.21-1.56.23-2.29Z"/>
  <path class="cls-1" d="m20.07,103.53c-.18-.09-.37-.18-.55-.27,0-.42.3-.66.57-.9.29-.24.62-.81.98-.39.36.42-.35.48-.53.74-.18.26-.32.55-.48.82Z"/>
  <path class="cls-1" d="m77.08,74.13c-.15.02-.3.04-.45.06-.02-.03-.05-.06-.07-.1-.27-.53-.42-1.07-.14-1.63.03-.05.24-.09.31-.04.55.38.24.98.34,1.47.02.08.01.16.02.24Z"/>
  <path class="cls-1" d="m72.56,94.61c-.39.68-1.09.78-1.77.87-.16.02-.26-.25-.14-.37.53-.54,1.23-.51,1.91-.5h0Z"/>
  <path class="cls-1" d="m6.38,80.69c.15.1.3.2.45.3-.12.3-.22.6-.35.89-.08.17-.21.32-.4.59-.41-.79-.07-1.29.31-1.78Z"/>
  <path class="cls-1" d="m40.43,107.95c.02-.26-.02-.61.31-.57.53.06.45.6.59.96.09.25-.08.41-.31.38-.45-.05-.57-.4-.59-.77Z"/>
  <path class="cls-1" d="m41.45,110.71c0,.43-.04.75-.49.76-.35.01-.52-.17-.52-.51,0-.41.29-.56.62-.63.35-.07.34.24.39.37Z"/>
  <path class="cls-1" d="m28.56,104.35c-.15-.53-.11-1.05-.02-1.58.96.6.96.86.02,1.58Z"/>
  <path class="cls-1" d="m65,85.94c-.09.44-.48.53-.81.63-.26.08-.52-.09-.5-.36.03-.39.42-.44.72-.51.22-.05.49-.08.59.25Z"/>
  <path class="cls-1" d="m29.2,85.78c-1.26-.22-.99-1.02-.7-1.83.23.61.47,1.22.7,1.83Z"/>
  <path class="cls-1" d="m66.39,82.97c.17.23.34.45.51.68-.86.15-1.52.01-1.58-1.04.06-.21.24-.27.42-.32.08.35.24.64.65.68Z"/>
  <path class="cls-1" d="m25.48,101.1c-.04.37-.28.46-.59.42-.23-.03-.37-.16-.35-.4.03-.33.24-.51.56-.52.31,0,.39.22.38.49Z"/>
  <path class="cls-1" d="m29.47,109.46c.09-.07.17-.14.26-.21.34,0,.49.17.51.49-.33.39.33.42.26.71-.16.33-.47.29-.76.29.03-.45-.03-.88-.27-1.28Z"/>
  <path class="cls-1" d="m72.56,94.61c.16-.89.69-.78,1.49-.54-.57.42-1.01.54-1.5.53,0,0,0,0,0,0Z"/>
  <path class="cls-1" d="m56.36,104.52c0,.23-.07.45-.34.39-.26-.06-.38-.3-.38-.57,0-.2-.02-.47.27-.45.36.03.43.32.45.63Z"/>
  <path class="cls-1" d="m34.96,94.39c.37-.27.2-.68.28-1.03.27.31.59.64.34,1.07-.15.26-.43.15-.62-.05Z"/>
  <path class="cls-1" d="m26.87,107.7c-.33-.24-.71-.38-1.12-.42.53-.29,1.11-.67,1.12.42Z"/>
  <path class="cls-1" d="m28.98,88.17c-.22-.02-.46-.12-.47-.32,0-.24.27-.2.46-.22,0,.18,0,.36,0,.54Z"/>
  <path class="cls-1" d="m10.79,77.16c.22-.3.39-.21.52.08-.22.3-.39.22-.52-.08Z"/>
  <path class="cls-1" d="m36.59,95.42c-.08.34-.25.55-.64.44.03-.41.26-.52.64-.44Z"/>
  <path class="cls-1" d="m64.57,100.6c-.15,0-.3,0-.45,0,.06-.14.1-.38.17-.4.3-.05.26.21.28.4Z"/>
  <path class="cls-1" d="m7.33,81.02c.23-.05.47-.11.7-.16-.14.45-.4.42-.7.16Z"/>
  <path class="cls-1" d="m20.07,104.53c.01-.16.02-.32.04-.49.2.18.17.34-.04.49Z"/>
  <path class="cls-1" d="m47.18,99.32c-.02-.16-.04-.31-.06-.47.32.12.3.28.06.47Z"/>
  <path class="cls-1" d="m13.6,98.58c0-.09,0-.17-.01-.26.1.04.2.08.31.12-.1.05-.19.09-.29.14Z"/>
  <path class="cls-1" d="m64.55,82.2c.03.16.05.32.08.48-.09.02-.17.03-.26.05,0,0-.05-.06-.05-.06.08-.16.15-.31.23-.47Z"/>
  <path class="cls-1" d="m76.68,74.76c.09.2-.01.33-.16.45.05-.15.1-.3.16-.45Z"/>
  <path class="cls-1" d="m44.13,91.38c.03.17-.06.24-.21.24.07-.08.14-.16.21-.24Z"/>
  <path class="cls-1" d="m10.35,80.63c.04.11.09.22.13.32-.04-.11-.09-.22-.13-.32Z"/>
  <path class="cls-1" d="m47.13,98.87c-.15-.04-.24-.12-.18-.29.06.1.12.19.18.29Z"/>
  <path class="cls-1" d="m20.37,105.79c.05.07.06.14.02.22-.03-.05-.06-.1-.07-.15,0-.02.03-.05.05-.07Z"/>
  <path class="cls-1" d="m35.46,95.83c-.08,0-.17,0-.25,0,.09-.13.17-.13.25,0Z"/>
  <path class="cls-1" d="m9.62,95.28c.09.09.19.19.28.28-.17-.02-.27-.1-.28-.28Z"/>
  <path class="cls-1" d="m77.29,74.39l-.1-.04s.01-.1.01-.1c.05.04.08.09.09.15Z"/>
  <path class="cls-1" d="m74.55,73.45c-.08,0-.17,0-.25-.01.09-.13.17-.11.25.01Z"/>
  <path class="cls-1" d="m47.03,87.58c.03.11.06.21.1.32-.12-.08-.17-.18-.1-.32Z"/>
  <path class="cls-1" d="m21.02,45.71c0,.13-.14.3-.26.37-2.25,1.35-2.97,3.83-4.39,5.79-.67.93-1.53,1.7-2.54,2.29-.46-.2-.86-.44-1.15-.9-.24-.39-.65-.51-1.04-.13-.19.19.02.8-.53.61-.42-.14-.58-.55-.56-1.01,0-.12,0-.24,0-.37.13-.26.65-.23.51-.69.51.22,1.01.47,1.53.67.88.33,1.43.1,1.45-.93.55-.72,1.1-1.45,1.65-2.17.57-.57,1.27-1.03,1.66-1.76.27-.51.33-.95-.44-1.02-.25-.03-.54-.01-.58-.33-.04-.36.3-.44.54-.58.43-.26.89-.38,1.4-.34.01.58.18,1.1.8,1.2.65.11.72-.51.92-.93.2-.01.4-.02.59-.04.21,0,.46,0,.44.27Z"/>
  <path class="cls-1" d="m11.19,61.87c-.52-.37-1.08-.51-1.7-.31-.07-.72,1.2-.33.98-1.17.45.11.89.28,1.37.21.41.74-.46.83-.65,1.27Z"/>
  <path class="cls-1" d="m34.58,34.16c-.66.03-.85-.95-.88-1.67v-.13c.42.08.85.16,1.27.24-.18.54.37,1.54-.39,1.56Z"/>
  <path class="cls-1" d="m32.48,34.52c-.03.28-.05.67-.42.59-.46-.09-.61-.5-.59-.95.01-.24.02-.56.35-.51.47.07.72.37.66.87Z"/>
  <path class="cls-1" d="m25.09,39.12s-.17.06-.22.03c-.54-.36-.65-.91-.64-1.5.16-.12.31-.23.46-.34.08.1.2.19.21.3.04.51.47.97.19,1.51Z"/>
  <path class="cls-1" d="m8.54,51.67s-.08.01-.12.01q-1.76-.01-1.14-1.74c-.38,1.15.9,1.11,1.26,1.73Z"/>
  <path class="cls-1" d="m18.91,38.01c-.11.11-.27.17-.4.26-.08-.08-.16-.15-.23-.23.04-.15.03-.34.12-.45.19-.23.38-.68.74-.39.33.28,0,.58-.23.81Z"/>
  <path class="cls-1" d="m42.34,32.3c-.24-.25-.17-.55-.11-.84.23.26.22.54.11.84Z"/>
  <path class="cls-1" d="m21.9,35.64c-.18.09-.36.19-.55.29-.16-.75.26-.4.55-.29Z"/>
  <path class="cls-1" d="m11.06,51.67c-.27-.07-.23-.3-.26-.49.22.09.26.28.26.49Z"/>
  <path class="cls-1" d="m42.24,34.16c-.07-.22-.08-.43.1-.6.1.22.07.42-.1.6Z"/>
  <path class="cls-1" d="m31.17,58.85s-.02-.1,0-.12c1.59-1.43,1.74-3.61,2.83-5.29,1.14-1.76,2.45-3.41,3.69-5.11.27-.37.59-.69,1.01-.89.03.52.49.6.83.81-.87,1.88-1.92,3.61-3.88,4.58-.15.07-.41.18-.4.25.09,1.5-1.25,2.43-1.5,3.77-.1.54-.03.99-.72,1.22-.72.24-.73.91-.56,1.56-.37-.36-.62-.91-1.29-.77Z"/>
  <path class="cls-1" d="m50.16,42.2c-1.62-.98-2.9-2.35-4.26-3.64.24-.32.61-.57.53-1.05.68.07,1.29-.45,1.99-.2-.04.34.11.74-.29.97-.35.17-.82-.52-1.07.1-.23.58.4.61.68.84.18.15.45.19.68.28.54.03,1.05-.04,1.57-.21.65-.21.98.25,1.26.71.29.47.14.82-.31,1.13-.36.25-.74.53-.76,1.05Z"/>
  <path class="cls-1" d="m53.09,45.56c-.65-.99-1.51-.89-2.43-.47-.33.15-.75.26-.9-.01-.25-.44.24-.67.54-.82.83-.4,1.17-.9.53-1.72.42-.31.95-.48,1.11-1.08.08-.29.39-.56.66-.39.65.41,1.24.19,1.86,0,.31-.09.58-.06.76.21.08.12.13.34.08.45-.17.37-.47.14-.74.13-.52-.02-1.07-.07-1.54.09-.75.26-1.46.66-.64,1.62.47.56.95,1.15.71,1.98Z"/>
  <path class="cls-1" d="m56.26,42.64c.03,1.3.3,2.23,1.35,2.71.21.09.31.39.18.65-.14.26-.41.24-.65.21-.86-.09-1.45-.71-2.12-1.16-.28-.18-.2-.68.1-.86.5-.31.51-.91,1.15-1.56Z"/>
  <path class="cls-1" d="m49.64,32.65c.34-.02.68-.05,1.02-.07.15,1.04-.13,1.88-1.17,2.31-.8.34-1.52.36-1.89-.63.51-.77,2.78.71,2.05-1.61Z"/>
  <path class="cls-1" d="m59.35,40.76c-.09.16-.18.32-.27.48-.36-.26-1.16-.18-.95-.88.24-.83-.02-1.96,1.16-2.35.11.11.22.22.33.32-.48.76-.62,1.57-.26,2.42Z"/>
  <path class="cls-1" d="m43.2,39.26c-.39-1.23.48-2.16.76-3.23.48.84.26,1.8.36,2.69.05.42-.79.23-1.12.54Z"/>
  <path class="cls-1" d="m46.41,40.75c.49.3,1.16.7.9,1.28-.35.77-1.22.42-1.89.42.02-.75.45-1.26,1-1.7Z"/>
  <path class="cls-1" d="m45.41,45.72c.36.49,1.05.34,1.46.75-.71.08-.73,1.35-1.7.97-.09-.43-.57-.42-.79-.7.35-.34.69-.68,1.04-1.02Z"/>
  <path class="cls-1" d="m43.03,43.97c-1.38-.71-1.38-.77-.08-1.97.18.65.65,1.29.08,1.97Z"/>
  <path class="cls-1" d="m53.89,37c-.31.16.04.36-.03.53-.64-.17-.66.45-.95.74.1-.81-.5-1.45-.55-2.22.28.68,1.32.16,1.53.95Z"/>
  <path class="cls-1" d="m50.14,37.56c.62-.19,1.13.07,1.63.39-.61.12-1.3.62-1.63-.39Z"/>
  <path class="cls-1" d="m45.2,39.69c.2.04.4.08.47.32-.23,0-.42-.06-.47-.32Z"/>
  <path class="cls-1" d="m48.44,39.02c-.01-.08-.03-.17-.04-.25.16.06.21.13.04.25Z"/>
  <path class="cls-1" d="m71.75,54.52c-1.55-1.37-2.43-3.21-3.47-4.94.07-.74.65-.62,1.13-.67.28-.02.57-.04.85-.06.02.37.06.73.05,1.09-.02.52.01,1.06.64,1.13.6.06.8-.44.9-.95l.72.1c-.05.68-.82,1.46.29,1.97-.08.28-1.05.52-.04.85-.41.45-.97.8-1.07,1.48Z"/>
  <path class="cls-1" d="m63.64,45.23c-.13-.61-.32-1.19-.97-1.47-.52-.23-.91-.57-.8-1.22.08-.48-.25-.74-.55-1.02.96-.06,1.97-.31,2.3,1.07.08.35.56.46.96.35.39-.1.46-.41.5-.76.04-.43.04-1.1.59-1.03.64.08.47.78.39,1.24-.13.72-.51,1.38-.49,2.15,0,.37-.3.47-.61.43-.48-.06-.88.17-1.32.26Z"/>
  <path class="cls-1" d="m76.26,57.38c-.07.62.44.47.76.58-1.14.53-.96,1.46-.74,2.41-2.03.81-2.04.81-2.07-1.32,0-.28.04-.56.07-.84-.03-.7.14-1.42-.23-2.08.33.03.67.06,1,.09,0,.24,0,.48,0,.71,0,.33.01.65.34.84.46.27.61-.2.88-.39Z"/>
  <path class="cls-1" d="m71.45,41.74c1.03.31,1.83.83,1.89,2.03,0,0,0-.03,0-.03-.69-.06-1.36,0-2.02.23-.08-.04-.09-.1-.04-.17.09-.59.49-1.18.04-1.78.04-.1.08-.19.12-.29Z"/>
  <path class="cls-1" d="m67.33,46.46c-.07-.24-.03-.42.23-.5.87.21,1.64.52,1.74,1.57-.02.31-.04.62-.06.93-.21-.52-.7-.75-1.12-1.05-.34-.25-.84-.38-.8-.95Z"/>
  <path class="cls-1" d="m63.89,39.29c-.08.39-.05.71.45.74-.1.63-.52.52-.93.39-.47-.14-.92-.32-1.45-.51.46-.91,1.25-.6,1.93-.63Z"/>
  <path class="cls-1" d="m74.28,54.89c-.29.28-.37.63-.33,1.02-.58-.21-.84.41-1.3.49.15-.56-.67-.47-.64-.95.77-.14,1.63.08,2.27-.56Z"/>
  <path class="cls-1" d="m69.63,41.73c.14.2.28.41.43.61-.3.35-.27.94-.81,1.12.07-.35-.16-.46-.42-.54.27-.39.33-.93.8-1.19Z"/>
  <path class="cls-1" d="m73.14,46.2c.14.1.27.21.41.31-.52.46-.9.99-.77,1.74-.55-.37.17-1.15-.48-1.48.16-.37.51-.46.84-.57Z"/>
  <path class="cls-1" d="m64.06,48.19c0,.25,0,.5,0,.76-.22.01-.44.03-.67.04,0,0-.07-.07-.07-.07.03-.49.05-.97.08-1.46.29.18.13.77.66.73Z"/>
  <path class="cls-1" d="m72.77,50.17c.03-.16.05-.32.08-.48.23.2.22.37-.08.48Z"/>
  <path class="cls-1" d="m72.02,55.45c-.17-.03-.24-.14-.24-.3.08.1.16.2.24.3Z"/>
  <path class="cls-1" d="m76.29,60.37c-.22-.95-.4-1.88.74-2.41,1.15.05,2.2-.25,3.15-.9.36.16.7.5,1.1.08.26-.27.61-.37.85-.07.29.36.08.68-.27.91-.32.21-.34.54-.34.87-1.86.11-3.42,1.25-5.23,1.52Z"/>
  <path class="cls-1" d="m55.12,75.5c-.58.29-.92.71-.65,1.39.15.38.09.66-.3.79-.34.12-.65.06-.83-.32-.42-.91-1.03-.95-1.92-.57-1.14.49-2.42.09-3.64.38-1.48.36-2.94-.54-4.46-.38-.55-.56-1.1-1.12-1.65-1.68.05-.4.11-.83-.18-1.16-.63-.71-.58-1.56-.56-2.41,0,0,.11,0,.11,0h.11c.05.04.07.1.06.16.02.18.13.27.3.29.14.2.28.39.41.59,1.07,1.77,1.84,4.08,4.72,2.67.1,0,.19,0,.29,0,1.13,0,2.26-.01,3.4-.02.12,0,.25,0,.37,0,.13,0,.27,0,.4.01.31.12.74.55.9.08.16-.47-.34-.72-.81-.81-.9-1.04-1.81-2.07-3.28-2.3-.6-.63-.5-1.44-.53-2.21.13-.41.12-.87.73-.97.72-.12.5.5.68.78.54.83,1.99,1.47,3.16,1.14.47-.13.82-.05,1.12.14,1.53.92,3.08,1.27,4.82.61.45-.17.96.14.96.76,0,.82.41,1.39,1,1.87.61.84,1.47.35,2.23.42,0,0-.01,0-.01,0,0,.17.02.34.03.5-.11.23-.27.4-.52.48-.32.1-.83-.14-.92.37-.1.52.45.6.74.86.3.27.57.6,1.03.56-.05.43.4.78.19,1.23-.81.12-1.66.45-2.22-.51-.47-.5-1.19-.69-1.58-1.32-.64-1.04-1.66-1.64-2.7-2.21-.07-.11-.16-.13-.25-.02-.17.03-.33.06-.5.09-.02-.38-.24-.52-.59-.52-.53-.46-1.32-.85-1.78-.43-.31.27.29.99.87,1.23.41.67.95-.33,1.38.11-.05.12-.1.24-.15.36Z"/>
  <path class="cls-1" d="m31.17,58.85c.67-.14.92.41,1.29.77,0,0,.01,0,.01,0,.09.08.19.15.28.23,1.33,1.25,3.01,1.26,4.57.91,1.68-.37,3.4-.87,4.85-1.94.5-.37,1.16-.34,1.75-.46.66-.13,1.43-.05,1.86-.75.35-.17.35-.73.85-.72.43,1.04.93,2.08.25,3.21-.7.09-1.58-.29-1.96.7-.35.04-.61.23-.78.54-1.31-.27-1.6-.05-1.71,1.25-.04.4-.16.8-.25,1.19-2.66.33-5.17-.65-7.78-.84-1.06-.08-2.11-.26-3.16-.39-.32-.61.15-1.41-.47-1.95.09-.17.17-.33.26-.5.33-.33.21-.72.15-1.1-.05-.05-.05-.1,0-.16Z"/>
  <path class="cls-1" d="m30.65,49.21s-.31-.08-.41.26c-.28.99-1.03,1.05-1.86.97-.53-.05-1.13.14-1.28.58-.36,1.08-1.2.75-1.95.94-.98.25-1.87.8-2.82,1.18-.66.26-1.29.66-2.1.3-.46-.21-.78,0-1.04.62-.71,1.65-2.12,2.71-3.69,3.53-.16.08-.36.26-.53,0-.24-.34-.24-.67,0-1.02.91-1.29,1.89-2.54,3.27-3.35,1-.58,2-1.21,3.15-1.43,1.35-.27,2.31-1.01,3.07-2.11.29-.43.54-.88,1.28-.55.44.19,1.04.09,1.32-.57.18-.42.57-.7,1.11-.62.4.06.83-.13,1.01-.38,1.13-1.59,2.89-1.04,4.39-1.35.55-.11,1.2.12,1.28.71.08.6-.51.69-1.04.79-.57.11-1.01.49-1.45.88-.4.36-.79.96-1.72.61Z"/>
  <path class="cls-1" d="m38.15,40.84c-.61.3-1.17.47-1.79.42-.58-.04-1.08-.06-1.22.79-.12.71-.89.65-1.46.61-.65-.04-1.22-.04-1.57.65-.08.16-.31.3-.49.35-1.85.53-3.32,1.96-5.09,2.45-1.95.54-3.48,1.74-5.29,2.45-.39.15-.86.34-1.15,0-.28-.33-.03-.76.13-1.15.31-.74.97-1.06,1.63-1.17.95-.16,1.64-.56,2.16-1.36.5-.77.94-1.68,2.16-1.48.19.03.43-.16.56-.42.1-.21.31-.52.48-.52,1.83-.03,2.8-1.85,4.51-2.13.37-.06.72.01,1.05,0,.54-.03,1.43.39,1.53-.7,0-.1.13-.38.27-.2.91,1.11,2.54.44,3.56,1.42Z"/>
  <path class="cls-1" d="m41.84,49.88c.21-1.56.33-1.65,2.34-1.65.1.27.12.68.31.78,1.12.6.94,1.62.92,2.6,0,.4.02.76.53.82-2.48,1.48-4.59,3.42-6.59,5.48-.68.7-1.57.81-2.44.95-.47.08-.62-.19-.25-.57,1.17-1.23,2.15-2.55,2.4-4.32.09-.65,1.12-.43,1.39-1.05.2,0,.4,0,.6,0,1.04.29,1.51-.65,2.22-1.06.42-.25,1.27-.35,1.11-.91-.15-.51-.94-.1-1.43-.24-.04-.71-.58-.75-1.1-.82Z"/>
  <path class="cls-1" d="m24.51,56.89c-1.28,1.25-3,1.5-4.62,1.93-1,.26-1.7.82-2.14,1.71-.42.86-.94,1.18-1.95.9-1.03-.29-2.21.13-3.34-.63,3.14-2.48,6.63-4.26,10.06-6.11.04,1.77.41,2.19,1.99,2.2Z"/>
  <path class="cls-1" d="m30.76,60.6c.62.54.15,1.34.47,1.95-.85-.15-.77.91-1.49,1.08-1.6.36-3.2.12-4.79.2-.3.02-.46-.15-.57-.38-.27-.58-.73-.68-1.32-.64-.58.04-1.02-.29-1.27-.81-.13-.29-.02-.59.25-.76.42-.27.86-.45,1.38-.14.85.51,1.77.56,2.7.24,1.21-.41,2.45-.18,3.68-.28.38-.03.87.17.96-.46Z"/>
  <path class="cls-1" d="m56,63.84c-1.61.21-2.28-1.27-3.42-1.9-.31-.17-.51-.54-.79-.78-.29-.26-.75-.38-.64-.93.05-.25.17-.37.4-.37.49,0,1.12-.12,1.31.45.29.87,1.13,1,1.7,1.48.4.34.94.29,1.43.18.3-.07.48-.35.52-.63.04-.3-.2-.42-.48-.44-.89-.05-.69-.66-.57-1.16.15-.65.57-.96,1.28-.83,1.32.25,2.48,1.31,2.38,2.21-.19,1.84-1.19,2.71-3.14,2.72Z"/>
  <path class="cls-1" d="m45.94,52.43c-.5-.06-.54-.42-.53-.82.02-.98.2-1.99-.92-2.6-.19-.1-.21-.51-.31-.78.33-.26.66-.53.98-.79.97.37,1-.89,1.7-.97,1.83.92,2.15,2.7,2.55,4.43,0,.43-.01.85-.02,1.28-1.16,0-2.33-.22-3.45.25Z"/>
  <path class="cls-1" d="m38.72,103.44c.06-.91-.74-.86-1.25-1.14.03-.24.05-.49.08-.73.2-.02.36-.1.38-.33.39-.63,1.24-1.03,1.04-1.97-.22-.35-.6-.64-.5-1.14,1.02-.16,2.02-.35,1.72-1.78.51-.67.37-1.27-.19-1.83-.23-.23-.48-.45-.66-.72-.21-.33-.11-.64.23-.82.33-.17.51-.03.64.31.08.21.28.38.42.57.18.6,1.13.69,1.01,1.5-.2.17-.2.39-.13.62-.04.12-.07.25-.11.37-.03.02-.09.04-.09.06,0,.06.03.12.04.19.03.68,0,1.4,1.03,1.32-.25.54-.67.4-1.01.42-.53.03-1.12.03-1.15.74-.04.9.66.74,1.22.75.16-.05.33-.1.49-.14.17,0,.33-.01.5-.02.09.39.18.77.26,1.16-1.33.47-2.58,1.08-3.47,2.24-.09.07-.18.15-.27.22-.08.05-.15.11-.23.16Z"/>
  <path class="cls-1" d="m41.16,71.53h-.11s-.11,0-.11,0c0,0,0,0,0,0,.11-.68-.65-.95-.75-1.53,1.4-.55,2.94-.17,4.49-.6-.45-.61-.97-.54-1.49-.56-1.92-.06-3.84.19-5.75-.17.11-.59-.48-.56-.73-.83,2.5-.03,5.01-.43,7.5.24.79.21,1.44.55,2.01,1.12.33.32.56.85,1.17.79.03.77-.07,1.58.53,2.21-.58.23-.94-.15-1.28-.5-.38-.39-.79-.84-1.3-.88-1.19-.09-2.39-.03-3.58-.03-.52,0-.58.35-.6.74Z"/>
  <path class="cls-1" d="m38.46,98.13c-.1.5.28.78.5,1.14-1.3-.25-2.4.87-3.72.52-.27-.07-.72.08-.84-.07-1.09-1.33-2.6-.73-3.93-.93,0-.57,0-1.15,0-1.72,1.69-.11,3.35.39,5.06.27,1.03-.07,1.83.94,2.93.8Z"/>
  <path class="cls-1" d="m50.39,63.83c.24,1.28.39,2.47-.39,3.74-.36.59-.68.77-1.25.96-.11-.6-.29-1.14-.31-1.7-.04-1.09.15-2.16-1.38-2.55-.78-.2-.84-1.24-1.17-1.94.37-.32.67-.73,1.22-.74.61.48,1.27.88,2.01,1.13.25.56.59,1.01,1.26,1.09Z"/>
  <path class="cls-1" d="m10.56,83.68c-.16-.73.26-1.3.51-1.92.63-.14.45-.68.52-1.08.08-.44.25-.84.51-1.21.51.06.43.48.5.81-.1.43-.21.85-.31,1.28-.11.51-.47.97-.36,1.54.47.03.64-.27.86-.49.3-.37.76-.63.84-1.15.88-.21,1.37.73,2.17.74-.04.17-.07.33-.11.5-.08.03-.14.09-.16.17-.7.92-2.1,1.09-2.53,2.31-.72.37-1.24.27-1.44-.6-.12-.53-.43-.85-.99-.9Z"/>
  <path class="cls-1" d="m24.51,56.89c-1.58-.02-1.95-.44-1.99-2.2.16-.11.32-.21.48-.32.31.41.44.21.52-.16.85-1.02,1.82-1.67,3.22-1.09-.05.94,1.13,1.51.77,2.54-.18.21-.44.27-.68.23-1-.18-1.7.29-2.31,1Z"/>
  <path class="cls-1" d="m64.55,82.2c-.08.16-.15.31-.23.47-.28,0-.56.02-.84.02-.46-.02-1.01.16-1.28-.4-.27-.56.08-.98.39-1.4.47-.19.79-.47.89-1.03.23-1.28.68-2.5,1.38-3.61.31,0,.62,0,.94,0,.19,1.32-.16,2.61-.22,3.92-.04.81-1.08,1.15-1.01,2.03Z"/>
  <path class="cls-1" d="m61.99,80.47c-.65.49-1.18,1.01-.7,1.93.18.35-.01.71-.18,1.04-1.07.08-2.14.24-3.21.07-.01-.44-.03-.89-.04-1.33.62-.57,1.34-1.06,1.55-1.95,1.27-1.26,1.29-1.27,2.59-.26,0,.17,0,.34,0,.51Z"/>
  <path class="cls-1" d="m57.87,66.31c1.77.05,2.01.34,1.38,1.98-.27.72.09,1.49-.37,2.15-.22.33-.47.79-.82.77-.59-.03-.15-.58-.26-.88-.36-1.05.16-2.45-1.27-3.09-.17-.08-.18-.4-.05-.56.36-.44.88-.4,1.38-.38Z"/>
  <path class="cls-1" d="m30.47,97.06c0,.57,0,1.15,0,1.72-1.28-.06-2.56.28-3.82.02-.58-.12-1.24-.3-1.13-1.14.11-.83.77-.56,1.26-.57,1.23-.03,2.46-.02,3.7-.03Z"/>
  <path class="cls-1" d="m27.5,55.66c.36-1.03-.82-1.6-.77-2.54.04-.67.31-1.09,1.07-.95.49.08.83.56,1.36.52.48-.03.92-.4,1.43-.14-.3,1.74-1.82,2.3-3.08,3.11Z"/>
  <path class="cls-1" d="m36.71,67.84c.25.27.84.24.73.83-.22.05-.45.1-.67.15-.34.13-.31.29-.05.47.04.05.05.11.03.17-1.3-.04-1.41,1.42-2.34,1.84-.23-.11-.46-.22-.69-.33-.09-.33-.19-.66-.28-.98.24-.73.86-1.22,1.2-1.92.46-.95,1.35-.31,2.06-.23Z"/>
  <path class="cls-1" d="m66.39,82.97c-.41-.04-.57-.32-.65-.68.23-.66.53-1.2,1.22-1.59.63-.35.52-1.2.62-1.86.06-.44-.03-.92.52-1.12.51.66.46,1.42.26,2.15-.18.67-.48,1.3-.73,1.94-.29.51-.7.9-1.23,1.14Z"/>
  <path class="cls-1" d="m62,79.96c-1.3-1-1.33-1-2.59.26-.03-.44-.01-1.08-.6-1.02-1.45.14-.93-.84-.96-1.51,0-.19-.06-.45.19-.52.26-.07.5.07.64.28.17.27.22.64.43.87.43.47.94.93,1.3-.09.56.96,1.41.63,2.22.51-.21.41-.41.82-.62,1.23Z"/>
  <path class="cls-1" d="m46.62,56.89c-.5,0-.5.56-.85.72-.19-.82-.81-.9-1.43-.69-.55.19-.99.3-1.12-.4-.11-.55.2-.95.74-1.11.92-.28,2.33.51,2.67,1.47Z"/>
  <path class="cls-1" d="m61.32,73.28c-.65.05-.75-.39-.71-.87.02-.26-.08-.64.21-.78.45-.22.76.19,1.08.4.27.18.45.47.71.67.48.36.92.73.75,1.4-.17.67-.8.52-1.27.64,0,0,.01,0,.01,0,.11-.68.1-1.3-.77-1.47Z"/>
  <path class="cls-1" d="m41.84,49.88c.52.07,1.06.11,1.1.82-.82.57-1.46,1.3-1.89,2.21-.2,0-.4,0-.6,0,.2-1.13-.06-2.48,1.4-3.03Z"/>
  <path class="cls-1" d="m62.44,77.5c-.47.03-.73-.3-1.03-.56-.29-.26-.84-.34-.74-.86.1-.51.6-.26.92-.37.25-.08.41-.25.52-.48.15.13.29.34.46.37.67.11.97.53.95,1.14-.02.66-.69.53-1.08.75Z"/>
  <path class="cls-1" d="m42.17,63.79c.08-.4.21-.79.25-1.19.12-1.3.41-1.52,1.71-1.25-.07.31-.18.61-.2.92-.11,1.62-.1,1.62-1.76,1.52Z"/>
  <path class="cls-1" d="m47.12,61.61c-.55.01-.86.43-1.22.74-.51-.4-.26-1.28-.99-1.54.38-1,1.25-.61,1.96-.7.1.5-.05,1.04.25,1.51Z"/>
  <path class="cls-1" d="m65.78,76.25c-.31,0-.62,0-.94,0-.05-.69-.09-1.38-.14-2.07-.03-.45-.1-1.02.49-1.08.63-.07.63.52.63.96,0,.73-.03,1.47-.04,2.2Z"/>
  <path class="cls-1" d="m50.39,63.83c-.67-.08-1.01-.54-1.26-1.09.46-.14.92-.31,1.39-.4.52-.09,1,0,1.1.64.09.63-.42.55-.8.64-.15.04-.29.13-.43.2Z"/>
  <path class="cls-1" d="m54.36,65.8c.05.5-.2.76-.71.78-.5.02-.94-.09-.99-.67-.04-.49.26-.77.75-.78.47-.01.94,0,.94.68Z"/>
  <path class="cls-1" d="m51.82,69.28c-.55-.04-.45-.42-.45-.73,0-.48.16-.79.72-.75.52.03.58.39.55.78-.04.51-.47.6-.82.71Z"/>
  <path class="cls-1" d="m54.13,49.56c0,.48.04.89-.53.87-.52-.01-.73-.29-.72-.79,0-.45.23-.72.66-.72.48,0,.65.3.59.64Z"/>
  <path class="cls-1" d="m61.32,73.28c.87.17.88.78.77,1.47-.75-.08-1.62.41-2.23-.42.57-.23,1.92.62,1.45-1.04Z"/>
  <path class="cls-1" d="m49.4,52.19c0-.43.01-.85.02-1.28.55.31,1.11.63,1.91,1.08-.81.14-1.27.79-1.93.2Z"/>
  <path class="cls-1" d="m31.17,59.01c.05.38.18.77-.15,1.1-.02-.37-.09-.76.15-1.1Z"/>
  <path class="cls-1" d="m23.52,54.21c-.08.36-.21.56-.52.16.11-.27.32-.2.52-.16Z"/>
  <path class="cls-1" d="m37.92,101.24c-.02.23-.17.31-.38.33-.06-.32.22-.26.38-.33Z"/>
  <path class="cls-1" d="m32.75,59.85c-.09-.08-.19-.15-.28-.23.18-.03.24.08.28.23Z"/>
  <path class="cls-1" d="m15.52,82.87c.02-.08.08-.14.16-.17-.05.06-.11.11-.16.17Z"/>
  <path class="cls-1" d="m46.19,85.67c-.08,0-.17-.02-.24.02-.61.31-1.83.21-2.49-.21-.06-.04-.16-.04-.24-.05-.75-2.21-1.47-2.71-3.82-2.73-1.31,0-2.64.13-3.92-.28-.42-.13-1.01-.25-.98-.77.03-.53.59-.41,1-.45.4-.04.8-.13,1.2-.25.78-.22,1.47-.75,1.34-1.53-.1-.61-.91-.73-1.6-.71-.48,0-1.26.35-1.23-.67.03-.88.68-.79,1.25-.8.41,0,.83.03,1.24.06.66,1.86.68,1.9,2.62,1.59.44-.07.69.03.96.31.28.3.56.61,1.03.54.05.07.1.14.15.21l.05.03c.97.51,1.94,1.03,2.91,1.54,0,.26,0,.52,0,.78-.35.08-.83.11-.85.5-.02.22.34.57.61.7.94.47.82,1.39,1.02,2.18Z"/>
  <path class="cls-1" d="m45.4,82.28c0-.26,0-.52,0-.78.72.06,1.22.64,2.04.65,3.47.03,6.94-.44,10.41.03.01.44.03.89.04,1.33-3.49.27-6.98.38-10.46-.12-.79-.11-1.45-.56-2.03-1.1Z"/>
  <path class="cls-1" d="m72.64,56.4c.46-.08.72-.7,1.3-.49.04.07.07.15.11.22.36.66.2,1.38.23,2.08-.69.75-1.32,1.59-2.45,1.7-.07-.22-.24-.29-.46-.3.07-.87-.72-1.32-1.07-2.1.86-.26,2.04.15,2.34-1.1Z"/>
  <path class="cls-1" d="m63.39,48.99c.22-.01.44-.03.67-.04.02.33.05.65.07.98-.76.09-.86-.34-.74-.94Z"/>
  <path class="cls-1" d="m40.18,69.99c.1.58.86.85.75,1.53-.2.01-.39.05-.49.25-.39.01-.78.03-1.17.04-.94-.24-.43-1.02-.58-1.55.48-.19.97-.29,1.49-.28Z"/>
  <path class="cls-1" d="m41.92,99.67c-.16.05-.33.1-.49.14.11-.22.29-.22.49-.14Z"/>
  <path class="cls-1" d="m41.5,95.97c-.07-.23-.08-.44.13-.62.06.23.07.44-.13.62Z"/>
  <path class="cls-1" d="m41.35,96.59c-.02-.06-.04-.12-.04-.19,0-.02.06-.04.09-.06-.02.08-.03.16-.05.24Z"/>
  <path class="cls-1" d="m38.94,103.28c.09-.07.18-.15.27-.22-.09.07-.18.15-.27.22Z"/>
  <path class="cls-1" d="m73.14,46.2c-.33.11-.68.2-.84.57-.27.07-.54.16-.82.2-.6.08-.52.69-.32.79,1.14.57.49,1.58.68,2.37-.1.51-.29,1.01-.9.95-.63-.07-.66-.61-.64-1.13.01-.36-.03-.73-.05-1.09.21-.82-.31-1.12-.96-1.32-.1-1.05-.87-1.36-1.74-1.57.31-1,1.06-1.71,1.69-2.5.53-.18.51-.77.81-1.12.39-.23.82-.31,1.27-.31.45.61.05,1.19-.04,1.78-.63,0-.91.47-1.2.91-.38.19-.72.43-.73.9,0,.18.14.31.32.31.53,0,.62-.47.84-.81.02-.03.03-.08.05-.11.48-.18.69-.56.76-1.04.65-.24,1.33-.29,2.02-.23,0,.39-.01.79-.02,1.18,0,.28,0,.57,0,.85-.06.14-.13.28-.19.42Z"/>
  <path class="cls-1" d="m73.34,45.78c0-.28,0-.56,0-.85.21.28.25.56,0,.85Z"/>
  <path class="cls-1" d="m53.89,75.03c.46-.09.6-.53.9-.79.35,0,.57.15.59.52-.04.13-.08.25-.11.38-.43-.44-.97.56-1.38-.11Z"/>
  <path class="cls-1" d="m51.11,75.23c.03-.24.06-.49.09-.73.47.09.98.35.81.81-.17.47-.6.04-.9-.08Z"/>
  <path class="cls-1" d="m50.34,75.22c.12-.12.25-.12.37,0-.12,0-.25,0-.37,0Z"/>
  <path class="cls-1" d="m46.65,75.24c.1,0,.19,0,.29,0-.1,0-.19,0-.29,0Z"/>
  <path class="cls-1" d="m56.12,74.69c-.08,0-.16-.01-.25-.02.09-.11.17-.1.25.02Z"/>
  <path class="cls-1" d="m41.22,71.7c.1.1.2.19.3.29-.18-.02-.28-.11-.3-.29Z"/>
  <path class="cls-1" d="m12.28,81.56c.2.33.02.85.5,1.05-.22.22-.39.52-.86.49-.11-.57.25-1.03.36-1.54Z"/>
  <path class="cls-1" d="m36.77,68.82c-.02.16-.03.32-.05.47-.26-.18-.3-.35.05-.47Z"/>
  <polygon class="cls-1" points="42.45 79.93 42.5 79.9 42.5 79.96 42.45 79.93"/>
  <path class="cls-1" d="m70.08,44.73c.16.1.32.19.48.29-.02.04-.03.08-.05.11-.22.33-.31.8-.84.81-.18,0-.33-.12-.32-.31.01-.48.35-.71.73-.9Z"/>
</svg>