<?xml version="1.0" encoding="UTF-8"?>
<svg id="Belog" xmlns="http://www.w3.org/2000/svg" viewBox="0 0 256 142">
  <defs>
    <style>
      .cls-1 {
        fill: #2659fc;
      }
    </style>
  </defs>
  <g id="surface0">
    <path id="path5" class="cls-1" d="m58.39,68.13c0,.16-.15.3-.3.33-.16.02-.28-.16-.31-.32,0-.13.13-.25.31-.16.17,0,.3.1.3.16"/>
    <path id="path7" class="cls-1" d="m50.14,89.56l-.27.15c-.14.48-.5,1.2-1.6,1.75,0,0,1.07-.04,1.57-1.08-.03.11-.26,1.25-1.69,3.13,0,0,.04.31.3.06,1.48-1.5,1.74-3.66,1.7-4.01"/>
    <path id="path9" class="cls-1" d="m62.71,91.34c.11-.12-.22.1-.07.04.1-.04.22-.06.34-.06.44-.02.88.22,1.24.45l.28-.16c-.6-.38-1.47-.7-2.05-.1l.27-.16"/>
    <path id="path11" class="cls-1" d="m65.84,93.64c.22.19.53.29.83.3l.27-.16c-.29,0-.61-.11-.83-.3l-.27.16"/>
    <path id="path13" class="cls-1" d="m74.46,56.79c0-.13-.1-.16-.21-.06-1.58,1.44-4.4,1.48-6.32.86-.24-.07-.39.13-.39.13,2.18.66,5.72.87,6.92-.93"/>
    <path id="path15" class="cls-1" d="m67.72,57.13c-.43-.06-.32.13-.32.13.47.16.94.23,1.4.22.95.31,1.98-.03,1.98-.03-.29,0-.77,0-1.16-.03,1.14-.2,2.66-.78,3.2-1.44-.54.67-3.61,1.36-5.09,1.16"/>
    <path id="path17" class="cls-1" d="m48.49,54.57l-.04-.02.04.02"/>
    <path id="path19" class="cls-1" d="m51.35,55.87c-.68-.96-2.23-1.15-2.86-1.31,1.45.42,2.79,1.29,2.86,1.31"/>
    <path id="path21" class="cls-1" d="m62.77,59.96c.31.16.56-.24.56-.52,0-.2-.27-.54-.58-.49-.31.13-.57.25-.56.7,0,.25.26.44.58.31"/>
    <path id="path23" class="cls-1" d="m60.09,48.43c-.19.08-.54,0-.54,0,.53.65.99.18.99.18.24-.31-.45-.18-.45-.18"/>
    <path id="path25" class="cls-1" d="m55.99,49.58l-.19.15s-.3-.08-.09.23c0,0,.31.5.55.41,0,0,.22-.05-.04-.26,0,0,.06-.44-.23-.53"/>
    <path id="path27" class="cls-1" d="m10.43,71.22c-.4-.32-2.54-.43-3.07-.48-.53-.04-1.8-.14-1.89-.14-.15-.02-.29-.02-.4-.15-.07-.11-.07-.18-.23-.2l-.23.1h0s0,0,0,0c-.11.08-.07.28-.07.39,0,.28,0,.54-.02.82,0,.19.13.2.25.15,0,0,.35-.35.59-.34.97.03,3.77.04,4.17.16.69.19.79,1.17.29,1.6v.02s-.35.1-.5.11c-1.24,0-2.47-.01-3.71-.02-.16,0-.28-.04-.4-.14-.1-.09-.2-.21-.34-.14h0s-.02.01-.02.01l-.12.06c-.23.17-.1.63-.1.88,0,.17-.07,1.31.15,1.38.13.05.35-.26.44-.37.3-.09,2.26-.1,2.88-.11.76-.03,1.7.03,2.34-.45.45-.33.42-.92.42-1.41,0-.6.08-1.31-.43-1.73h0Zm-5.5.31l.09-.09h0s-.1.09-.1.09h0Zm4.7,3.15c.26-.05.46-.12.61-.2-.17.11-.38.16-.61.2"/>
    <path id="path29" class="cls-1" d="m67.22,32.08h-.01s.01,0,.01,0h0"/>
    <path id="path33" class="cls-1" d="m10.39,65.13c-.1,0-1.3-.21-1.81-.29-.89-.15-1.8-.25-2.69-.44-.16-.03-.24-.11-.31-.25-.05-.11-.19-.35-.33-.27h0l-.13.08h.02s0,0,0,0c-.14.13-.12.33-.17.56-.04.27-.07.56-.11.83-.02.15.02.32.2.22h0s.02,0,.02,0l.1-.06c.1-.06.16-.15.27-.19.14-.04,2.29.17,2.15.25.13-.08-1.57.92-2.1,1.23-.25.14-.53.27-.75.46-.16.14-.23,1.08-.27,1.32-.08.37.09.37.14.37h.02l.55-.37c.2-.08.42-.06.63-.04,1.08.08,4.17.29,4.24.37l.1.2c.02.3.26.33.26.33.23.08.23-.32.25-.47.04-.38.11-.79.09-1.16-.02-.19-.3,0-.3,0-.03.02-.09.3-.27.33-.15.04-.39.04-.6,0-.38-.04-2.68-.23-2.78-.44.77-.45,4.05-2.31,4.05-2.32h0s.04-.03.04-.03c.26-.19-.47-.23-.53-.23m-5.17.3l.04-.03.19-.1-.23.13"/>
    <path id="path35" class="cls-1" d="m5.17,68.59l-.16.1.16-.1"/>
    <path id="path37" class="cls-1" d="m71.23,39.5c-.26.33-.55.48-.93.7h0s-.26.19.26.45c.26.13.49.32.71.51.45.41.53-.04.54-.15.06-.33.01-.66.23-.94.56-.81,1.13-1.61,1.69-2.41.08,0,.03.48.02.65-.06.57-.38,3.46-.46,4.34-.03.36.27.57.51.54l.17-.12c.16-.27.17-.64.34-.93.06-.1.16-.18.23-.28.73-.82,1.44-1.64,2.16-2.46.21-.24.39-.43.73-.48l.38-.14c.08-.07.1-.16-.03-.31-.27-.3-.69-.48-.92-.82-.11-.16-.29-.19-.27-.19-.02.01-.37-.06-.23.39.09.29-.04.68-.21.94-.32.44-.63.88-.94,1.32-.12-.18.11-2.12.15-2.72.02-.36.15-.89-.14-1.17-.19-.19-1.06-.82-1.28-.86l-.21.1c-.07.1-.04.22-.05.34,0,.19-.02.38-.07.56-.05.23-.19.43-.34.62-.32.38-1.66,2.08-2.03,2.52"/>
    <path id="path39" class="cls-1" d="m5.87,62.43h-.02l-.02.02.04-.02"/>
    <path id="path41" class="cls-1" d="m11.39,63.41c.04-.31.1-.61.18-.9.03-.15.11-.29.15-.44.07-.29-.07-.3-.22-.25-.02,0-.54.24-1.16.07-.61-.15-3.24-.65-3.72-1.04-.15-.13-.43-.57-.66-.49h0s-.11-.07-.28.77c-.09.45-.2.88-.24,1.34,0,.18.12.14.19.12.18-.04.2-.23.38-.22.18,0,3.66.61,4.37.93.28.12.45.38.67.58.19.16.32-.34.34-.47h0Zm-5.57-.99l.05-.03-.05.03"/>
    <path id="path43" class="cls-1" d="m84.9,57.85c-.28.13-.38.1-.47.14-.1.05-.8-.02-.63.36.11.27.2.56.27.84.04.16.22.88.44.76.22-.11.32-.4.54-.57.14-.06.28-.12.42-.18,0,0,3.26-1.19,3.82-1.34.17-.04.27.09.41.06,0,.01.29.04.09-.48-.11-.29-.21-.57-.3-.86-.06-.23-.03-.8-.4-.62h0s-.27.27-.27.27c-.05.04-.58.35-.7.39-.61.23-3.21,1.22-3.21,1.22h0s0,0,0,0Zm.02,1.6l.07-.05h0l-.07.05h0Zm.09-.06h-.01s.01,0,.01,0"/>
    <path id="path45" class="cls-1" d="m19.36,38.69c.22.02.38.18.52.33.86.82,1.82,1.63,2.51,2.61.19.28.32.59.39.92.1.48.48.1.48.09h0c.46-.45,1.25-.96,1.29-.99.07-.05.34-.27.08-.41h0c-.29-.02-.55-.13-.77-.32-.65-.7-2.49-2.65-2.71-2.96-.19-.26-.2-.57-.33-.86l-.17-.06h0s-.69.38-1.49,1.24c-.08.09-.18.15-.21.27-.03.15.34.14.4.15"/>
    <path id="path47" class="cls-1" d="m75.36,43.88c-.11.84.4,1.67,1.16,2.06,1.15.59,2.52-.29,3.33-1.06.58-.58,1.08-1.25,1.25-2.07.17-.9-.43-1.72-1.19-2.14-1.2-.66-2.57.28-3.4,1.08-.59.57-1.04,1.31-1.14,2.13h0Zm2.54-1.44c.34-.3,2.24-1.97,2.37-.73.04.41-.37.86-.6,1.15-.39.48-.85.93-1.29,1.37-.14.13-.29.3-.46.45-.16.14-.29.25-.43.34-.12.08-.26.13-.4.16-.34.06-.65-.27-.78-.55-.15-.35.11-.72.31-.97.36-.46.83-.83,1.27-1.21"/>
    <path id="path49" class="cls-1" d="m11.67,48.06c.46-.02.92.41,1.28.64.8.56,1.6,1.12,2.39,1.69.16.18.3.37.37.61.02.06.03.43.2.33h0c.11,0,.85-1.15,1.14-1.62.25-.4-.36-.31-.57-.41-.23-.11-.46-.27-.67-.39-.36-.21-1.18-.57-.63-1,.35-.14.91-.08,1.29-.09.62-.03,1.28-.08,1.89-.27.24-.07.57-.22.65-.48.11-.37-.46-.29-.63-.28-.25,0-1.88-.18-2.44-.27-.27-.05-.34-.03-.32-.3.02-.37-.14-.67-.41-.93-.54-.51-1.31-.55-1.93-.19,0,0-.53.3-1.56,1.93-.16.25-.32.49-.48.73-.28.45.14.3.44.29h0Zm2.52-.16h-.04s.05,0,.05,0h0s0,0,0,0Zm-1.51-1.4c.12-.18.24-.36.41-.49.45-.13.99.34,1.29.61.39.34.14.9-.14,1.25-.23,0-.52-.28-.67-.38-.26-.17-.51-.35-.76-.51-.16-.17-.26-.27-.13-.47"/>
    <path id="path51" class="cls-1" d="m85.95,65.37h.01s0,0,0,0l2.27-1.65.53.29c.46.17,1,.09,1.43-.1.55-.25.89-.74.95-1.34.05-.56-.18-1.15-.32-1.68-.11-.41-.2-.81-.31-1.22-.07-.22-.12-.32-.27-.27h-.01s.01,0,.01,0h-.02s-.05.04-.05.04h-.03s-.03.04-.03.04h.01s-.08.12-.08.12c-.07.15-.2.28-.34.37-.13.06-.27.1-.42.16-.19.05-2.9.69-3.51.84-.25,0-.54.03-.7-.16-.12-.13-.67-.01-.47.3.31.52.23,1.21.39,1.76.04.12.28.03.46-.14.17-.18.38-.27.6-.34.25-.09,1.11-.39,1.33-.34.65.18-.26.83-.48,1.03-.51.48-1,1.02-1.3,1.65-.11.24-.28.75.13.77l.24-.13h0Zm4.29-2.92l-.07.03.07-.03Zm-.32-1.22l.06-.03-.06.03c.3,0,.39.04.45.32.07.31.15.64-.1.87-.12.05-.26.11-.4.15l-.26.06c-.26.05-.52.06-.72-.02-.25-.1-.63-.8-.46-1.05.49-.12,1-.22,1.49-.34h0Zm-1.51.31h0s-.04.03-.04.03l.04-.03h0Zm-.06.04h.02-.03s.01,0,.01,0"/>
    <path id="path53" class="cls-1" d="m17.7,44.05c.05-.02,1-.54,1.35-.75.68-.34,1.34-.5,1.4.27.04.45-.35.86-.65,1.14-.54.46-1.23.6-1.9.74-.14.02-.27.07-.39.13v-.02s-.2.14.03.27c.31.18.67.29,1.02.43.11.04.49.26.62.2l.16-.11c.21-.37.46-.67.79-.95.36-.31.68-.58.89-1,.21-.4.29-.84.24-1.28-.1-.81-.82-1.37-1.63-1.35-.7,0-2.49,1-2.62,1.05-.35.14-.72.19-.97-.12-.27-.32.07-.89.39-1.05.34-.16.77-.21,1.15-.26.32-.04.75-.03,1.02-.24.33-.27-.7-.65-.88-.73-.19-.08-.47-.17-.47-.16-.16-.1-.27.47-.5.59-.09.05-.96.63-1.12.78-.51.61-.76,1.58-.11,2.18.57.54,1.5.49,2.18.22"/>
    <path id="path55" class="cls-1" d="m81.21,48.01c.15.61.21,1.28-.34,1.7-1.03.45-1.45-1.19-1.47-1.9-.02-.46.18-.9.21-1.37,0-.2-.15-.27-.31-.19h.01s-.79.73-1.06,1.1c-.17.23-.43.45-.16.67.43.35.63.69.8,1.22.26.85,1.06,1.37,1.96,1.31.51-.04,1-.33,1.37-.67.61-.58.77-1.38.63-2.18-.11-.59-.43-1.17-.45-1.77,0-.14.05-.27.16-.37.75-.29,1.02.93,1.04,1.44.01.34-.04.68-.13,1-.03.09-.14.26,0,.26.3.03,1.23-.85,1.28-.88.34-.26-.23-.63-.36-.89-.09-.18-.14-.37-.25-.54-.06-.13-.15-.24-.23-.37-.39-.66-1.36-1.37-2.16-.93l-.23.14s-.62.53-.66,1.05c-.03.72.2,1.46.37,2.15"/>
    <path id="path57" class="cls-1" d="m90.69,70.8s-.9-.03-1.21.27c-.53.51-.91,1.43-1.17,2.17-.21.59-.52,1.14-1.21,1.17-1.54-.57-.69-2.18-.13-2.62.43-.35.67-.55.94-.74,0,0,.24-.27-.03-.2l-1.93.36c.17.32.09.92-.1,1.44-.3.83-.06,1.95.7,2.42.43.27,1,.32,1.51.26.85-.1,1.29-.68,1.65-1.41.45-.91.3-1.48.85-1.97.12-.1.26-.11.4-.12.78.19.41,1.46.12,1.88-.2.28-1.06.84-.97.85.03,0-.18.28.13.25.31-.04,1.26-.33,1.32-.35.25-.13.1-.37.16-.65.02-.2.14-.87.16-1.01.09-.75-.27-1.89-1.18-2"/>
    <path id="path59" class="cls-1" d="m22.44,36.22c.47.18.77.44,1.04.84.32.48.64.96.98,1.44.27.39.53.78.79,1.18.07.18.1.37.1.57,0,.14-.08.3.09.39l.14-.07c.21-.14.4-.32.61-.48.32-.23,1.45-1.06,1.6-1.34.32-.45.44-.96.36-1.59-.12-.99-.83-1.98-1.66-2.52-.71-.47-1.53-.32-2.26.02h.04c-.27.11-2.01,1.14-2.12,1.3-.09.14.22.25.3.27h0Zm1.93-1.08c.53-.24.95.18,1.26.57.4.51.72,1.09,1.06,1.63.31.49.66,1.11.11,1.55-.29.09-.4-.18-.56-.4-.25-.37-.5-.74-.75-1.11-.4-.59-.8-1.17-1.2-1.76l-.04.02.04-.02c-.25-.26-.16-.32.07-.48"/>
    <path id="path61" class="cls-1" d="m33.43,30.15c.24.18.49.37.57.67.33,1.2.67,2.4,1.01,3.6.07.2.05.39,0,.59-.03.16-.17.29-.07.43.13.18.87-.16,1.01-.22.54-.2,1.12-.34,1.62-.64,1.58-.93,1.32-2.88.62-4.28-.3-.59-.74-1.09-1.4-1.23-.8-.17-1.69.13-2.44.36-.33.1-.7.21-.97.44-.11.1-.07.2.04.28h0Zm2.07-.35c1.18-.45,1.54,1.85,1.71,2.56.15.61.38,1.42-.2,1.85-.42.14-.44-.25-.53-.55-.11-.44-.25-.87-.38-1.3-.23-.71-.45-1.43-.67-2.14-.05-.18-.06-.31.07-.42"/>
    <path id="path63" class="cls-1" d="m42.82,28.18c.11.16.15.33.18.51.11.49.2.99.27,1.49.09.71.12,1.44.15,2.16,0,.19,0,.37.02.56,0,.12-.1.25-.16.35-.12.22.23.27.36.26.78-.1,1.63-.1,2.37-.37.21-.06.39-.16.56-.28.13-.08.24-.17.35-.28.59-.57.78-1.43.79-2.21,0-.73-.13-1.58-.51-2.22-.31-.52-.86-.74-1.45-.82-.85-.1-1.8,0-2.65.13-.14.02-.7.14-.56.39.07.12.2.22.27.33h0Zm1.87-.27c1.33-.4,1.22,2.27,1.23,2.95.02.61.11,1.33-.39,1.76-.37.12-.42-.29-.45-.58-.05-.47-.1-.95-.16-1.43-.08-.82-.17-1.64-.26-2.47l.03-.23Zm-.05.01h0s-.03.04-.03.04l.02-.04"/>
    <path id="path65" class="cls-1" d="m29.04,33.16c.12.67.19,1.34.25,2.01.03.52.06,1.04.09,1.56,0,.32.02.61-.1.91-.07.16-.25.34-.21.52.03.12.32,0,.32,0l.11-.07c.31-.26,1.17-.61,1.23-.62.13-.06.26-.15.24-.28-.02-.18-.45-.35-.54-.51-.13-.19-.2-.64-.04-.8.26-.13,1.12-.51,1.32-.53.15-.02.53.51.53.58,0,.11.06.2.04.33-.02.17.02.32.22.29.16-.03,1.85-.84,1.87-.85.34-.21-.41-.38-.52-.48-.27-.22-2.27-2.44-2.94-3.33-.14-.2-.17-.49-.19-.73,0-.13-1.1.22-1.23.26-.09.03-.76.37-.84.48l.18.39c.15.25.16.61.21.88h0Zm1.24,2.75l.03-.02-.03.02Zm.7-1.44c.13.15.25.28.08.41-.04.02-.55.24-.68.28-.12.03-.23.03-.31,0l-.08-.46c-.03-.46-.13-1.43-.13-1.47.29.1.98,1.08,1.12,1.24Zm-1.07,3.32c-.17.1-.32.22-.47.33.1-.08.26-.21.47-.33"/>
    <path id="path67" class="cls-1" d="m82.33,52.54c-.37.03-.67-.12-.99-.05l-.19.05c-.16.1.11.36.15.42.11.16.27.6.3.67.07.2.28.17.45.06l.37-.35c.25-.11.51-.19.76-.24.24-.04.33.03.43.22.12.28.26.54.38.82.08.17.17.32.13.51-.03.14-.84.67-1.03.72l-.29.03h-.01s-.17.06-.14.23c.03.18.16.33.25.48.15.26.2.62.29.9.22.57.49.35.48.35.07-.08.08-.18.15-.29.18-.35.54-.64.84-.9.84-.8,2.67-2.47,2.73-2.51.02,0,.72-.08.77-.22h.01s.01-.02.01-.02h-.01c.31-.24-.71-1.51-.72-1.81,0-.21-.24-.19-.23-.19-.03.01-.22.03-.55.51l-.39.1c-1.05.22-3.7.48-3.96.5h0Zm.03.83h0s.01,0,.01,0h-.01Zm5.03.28h.02s.01-.02.01-.02h.03s-.07.03-.07.03h0s0,0,0,0Zm-.02.01h0l-.03.02.02-.02h0Zm-2.39.29h0s.05-.03.05-.03l-.05.03h0Zm.07-.03h-.02s.02-.02.02-.02v.02s0,0,0,0Zm-.57-1.04c.18-.05,1.31-.04,1.32-.05-.01,0,.26.08.09.26l-.9.86h-.22c-.14-.16-.18-.45-.26-.64-.04-.15-.17-.3-.03-.42"/>
    <path id="path69" class="cls-1" d="m8.49,53.43l.2-.1c.11-.08.18-.1.36-.08.46.04.9.36,1.29.58.7.39,1.41.78,2.12,1.18h0c.16.12.68.44.75.53.1.14.05.34.25.38l.19-.1h0,0l1.84-3.29s-1.31-1.92-1.68-1.26c-.11.2.2.59.27.78.1.29.12.59.09.89,0,.28-.04.86-.25,1.13-.19,0-1.84-.94-1.92-.98-.03-.02.14-.59.54-.68.18-.04.53-.06.6-.16.23-.29-1.25-.89-1.62-.99-.32-.08-.11.67-.06.78.04.09.12.43-.09.74-.42-.21-1.53-.77-1.67-.83-.13-.06.38-1.1.65-1.15.29-.06.83-.17,1-.29.25-.15-.04-.33-.2-.36-.27-.04-.55-.06-.82-.13-.17-.04-.32.05-.32.06-.29.21-1.08,1.97-1.3,2.43-.07.14-.59.95-.2.92h0Zm2.98-.72l-.06.06.06-.06Zm-2.67.53l-.14.08.14-.08"/>
    <path id="path71" class="cls-1" d="m68.45,34.09c-.43.73-1.8,2.97-2.11,3.22-.58.08-.53.22-.55.24-.24.23.49.41.62.47.61.31,2.31,1.33,2.56,1.5.14.08.28.22.44.27.02,0,.34-.03,1.33-1.16.11-.13.39-.47.01-.42-.27.03-.53.24-.79.3-.53.13-1.16,0-1.62-.23-.43-.22-.31-.42-.13-.72.3-.51.6-1.02.91-1.53.17.05.3.15.44.3.26.27.32.49.36.85.02.23.19.36.36.18.24-.24.33-.68.47-.97.08-.17.38-.75.18-.8-.15-.03-.43.1-.57.14l-.34-.06c-.26-.06-.41-.06-.57-.28.3-.45.58-.92.91-1.35.32-.02.69.46.83.68.18.27.3.58.39.89.09.29.38.23.38.23.09-.03.18-.11.23-.24.08-.24.32-.9.32-1.01-.01-.13-.41-.29-.52-.36-.8-.52-1.59-1.05-2.4-1.54-.11-.07-.83-.45-.81.01,0,.16.06.3.04.45-.03.32-.21.66-.37.93Zm-2.15,3.26l-.1.04.12-.06-.02.02h0Z"/>
    <path id="path73" class="cls-1" d="m85.85,68.58c.01.31-.04.65-.03.96,0,.15.02.12.06.27l.14.06s1.22.17,1.46.22c.35.07.45-.17.23-.27-.84-.36-1.33-1.33-1.39-1.84-.06-.47.16-.48.52-.51.61-.05,1.2-.09,1.8-.14.06.17.05.33,0,.52-.09.36-.22.47-.49.69-.18.15-.14.36.11.31.35-.07,1.05-.3,1.36-.32.33-.03.15-.21.15-.22-.6-.51-.48-.77-.51-.85-.1-.25-.01-.22.25-.23.54-.01,1.07-.1,1.62-.09.21.25.04,1.18-.06,1.43-.12.3-.44.45-.61.71,0,0-.29.37.24.32l1.03-.31c.1-.08,0-.28,0-.4-.01-.94-.09-1.85-.14-2.79-.02-.46-.07-.67-.09-.67-.07-.07-.17-.1-.31,0-.13.08-.22.21-.35.29-.29.16-1.63.04-1.89.21-.35.23-2.39.36-2.77.25-.12-.08-.11-.16-.32-.24h0c-.33-.07-.26.54-.24.7.1.66.19,1.3.23,1.96h0Zm.31-2.43h-.03s-.08-.07-.08-.07l.11.07h0Zm-.29-.23h0s-.01,0-.01,0h0"/>
    <path id="path75" class="cls-1" d="m6.38,59.55c.1-.11.07-.09.12-.14.14-.04.31-.03.45-.03.28,0,4.68-.15,4.81.06.31.46.49.13.5.11.19-.3.27-.73.4-1.07.03-.1.29-.62.17-.69-.1-.05-.31,0-.41.01-.26.01-.42-.04-.62-.19-1.1-.78-2.3-1.56-3.25-2.52-.09-.1-.2-.2-.26-.33-.08-.16-.17-.6-.34-.51-.38.2-.69,1.4-.69,1.62,0,.17.33,0,.33,0,.47-.15,1.33.63,1.65.86.17.13,1.43.9,1.18,1.21-.16.06-2.48-.03-2.73-.04-.32-.01-.52-.13-.78-.28-.16-.1-.26.05-.28.06h0s0,0,0,0c-.07.05-.45,1.48-.53,1.71-.02.09.11.26.27.13h0Zm1.26-3.72l-.05.03.05-.03Zm-1.19,3.59h0s-.04.04-.04.04l.03-.04"/>
    <path id="path77" class="cls-1" d="m54.79,37.69s.18-.14.05-.21c-.66-.37-1.14-.96-1.67-1.49-.27-.26-.53-.53-.8-.79l-.38-.3c0,.06.52.75.76,1.03.59.68,1.28,1.28,2.05,1.76"/>
    <path id="path79" class="cls-1" d="m51.55,39.39c.17.2.57.4.85.26l.27-.21c-.37.13-.65-.13-.88-.37-.24-.25-.47-.48-.77-.67-.19-.12-.77-.38-.97-.11h0c.19.19.37.59.38.84.02.32,0,.72.38.79.23.04.7-.16.72-.17h0c-.46.18-.8-.07-.74-.54.04-.45-.27-.67-.3-.7.36.24.42.15,1.03.88h0Zm.99.13h-.02s.02,0,.02,0"/>
    <path id="path81" class="cls-1" d="m59.87,61.18h0c.47.47.98.89,1.58,1.2.75.38,1.64.41,2.38.03,1.2-.6,1.47-1.93,1.62-2.61l-.24.13c-.17.58-.8,2.05-2.61,2.14-1.7.07-2.72-.9-2.73-.89Zm3.94.64h0,0"/>
    <path id="path83" class="cls-1" d="m57.87,59.9c.02.69.59,1.23,1.12,1.62h0s.14-.06.14-.06c0,0-1-.81-1.01-1.72l-.26.16"/>
    <path id="path85" class="cls-1" d="m65.29,67.83c-.46-.52-2.07-.83-2.13-.85.63.22,1.52.51,1.91,1.05,0,0,.01,1.07.05,1.79.04.77-.21,1.64-.86,2.13l.27-.15c.95-.73.95-2.21.84-3.27-.06-.68.41-1.19.98-1.56-.36.22-.79.5-1.06.86"/>
    <path id="path87" class="cls-1" d="m58.62,66.69c.62-.22,1.31-.35,1.96-.29l.27-.16c-.66-.05-1.35.06-1.96.29l-.27.16"/>
    <path id="path89" class="cls-1" d="m69.31,79.54l-.38.21c-.05.04,0,.07,0,.35-.02.43-.43.73-.44.74.85,0,.87-.96.81-1.29"/>
    <path id="path91" class="cls-1" d="m70.26,76.33l-.27.15c.06.63,0,1.26-.29,1.82-.08.17-.21.32-.34.46l-.14.13s-.08.06-.08.06c0,0,0,0,.01,0-.01.01-.02.02-.02.02,0,0,.16-.09.19-.1.87-.51,1.04-1.63.94-2.52"/>
    <path id="path93" class="cls-1" d="m67.64,72.69l-.27.16c1.48.21,2.63,1.37,2.88,2.78,0-.03-.29-2.96-2.61-2.94"/>
    <path id="path95" class="cls-1" d="m69.09,77.35l.1-.37c-.5-2.47-4.11-2.55-4.19-2.56,1.88.45,3.25,1.12,4.09,2.93"/>
    <path id="path97" class="cls-1" d="m66.19,72.67c-.99-.02-1.75-.07-2.98.23-.14.03-.29.06-.43.12-.14.05-.52-.05-.68,0-.32.08-.47.34-.54.38.15-.09.68-.36,1.17-.19.14.05.94-.39,3.18-.37l.27-.15"/>
    <path id="path99" class="cls-1" d="m48.05,78.25c-1.28-1.42-2.57-2.85-3.84-4.28l-.09.05-.05.03c1.15,1.5,2.42,2.96,3.69,4.38l.03-.02h0,0s.02,0,.02,0l.09-.06.02-.02h0s.09-.07.09-.07l.03-.02-.03.02h0s.03-.02.03-.02"/>
    <path id="path101" class="cls-1" d="m53.08,76.29c-1.1.02-2.09,0-3.2.04-.27,0-1.04.11-1.08,0-.13-.27-.28-.52-.45-.78-.7-1.06-1.49-2.08-2.31-3.06-.51-.63-1.46-1.31-2.3-.88-.26.13-.35.38-.53.61.06-.08.7-.43.93-.49.64-.14,1.34.56,1.72,1.02.8.98,1.59,1.98,2.26,3.03.16.23.29.47.41.72.05.12.03.14.15.15.27-.01.8.13,1.08.12,1.11-.03,2.09-.02,3.2-.04,1.79-.04,3.8.03,5.43-.25l.11-.23c-1.82.05-3.6,0-5.43.05"/>
    <path id="path103" class="cls-1" d="m58,77.22c-.91.01-1.83.03-2.74.03l-.27.16c.91-.02,1.83-.03,2.74-.04l.27-.15"/>
    <path id="path105" class="cls-1" d="m53.17,77.76c-1.03.02-2.06.03-3.09.04l-.27.16c1.04-.02,2.06-.03,3.09-.05l.27-.16"/>
    <path id="path107" class="cls-1" d="m48.57,78.48c.69-.01,1.35-.02,2.03-.03l.28-.16c-.68,0-1.35.02-2.03.03l-.27.16"/>
    <path id="path109" class="cls-1" d="m49.09,78.76l-.27.16c3.51.09,7.04.19,10.57.29l.27-.16c-3.52-.1-7.05-.2-10.57-.29"/>
    <path id="path111" class="cls-1" d="m56.94,78.69c.74,0,1.48-.01,2.22-.02l.27-.16c-.74,0-1.48.02-2.23.03l-.27.15"/>
    <path id="path113" class="cls-1" d="m46.04,89.9l.27-.15c-1.38.51-3.01.15-4.32-.45-1.61-.73-3.1-1.83-4.36-3.04-1.3-1.26-3.25-4.57-3.25-4.57.61,1.69,1.64,3.4,2.91,4.65,1.27,1.26,2.79,2.34,4.42,3.11,1.31.61,2.96.97,4.34.45"/>
    <path id="path115" class="cls-1" d="m55.3,95.58l-.47.19c.11.07.24-.01.37.29.13.3.05.92-.03.99.01,0,.56-1.16.13-1.47"/>
    <path id="path117" class="cls-1" d="m52.44,104.29s2.01-.54.77-1.84l-.43.53c-.15.13.08.22.2.12.01,0,.25.3.11.6-.15.29-.65.59-.65.59"/>
    <path id="path119" class="cls-1" d="m47.66,93.73c-.19-.18-.45-.04-.69-.08-4.23-.32-7.33-2.54-7.35-2.54,1.47,1.61,3.55,2.65,5.69,3.09,1.96.39,2.5-.32,2.34-.48"/>
    <path id="path121" class="cls-1" d="m41.11,89.95c.67.42,2.14.82,2.81.99-1.33-.4-4.29-2.06-4.3-2.08.47.4.98.75,1.5,1.09"/>
    <path id="path123" class="cls-1" d="m51.94,94.08c-.32,1.47-2.02,2.21-2.05,2.22,1.68,0,2.12-1.37,2.05-2.22"/>
    <path id="path125" class="cls-1" d="m42.43,96.71s.23-1.26-1.26-2.94c-2.34-2.62-4.69-6.9-4.68-6.89.44,1.21,1.51,3.24,2.52,4.69.56.81,1.25,1.52,1.86,2.3.51.68,1.19,1.5,1.25,2.39-.29-.35-2.22-2.73-2.73-3.55-.63-1.01-1.22-2.04-1.75-3.11,0,0,.83,2.2,1.43,3.19,1.77,2.93,3.27,3.85,3.37,3.91"/>
    <path id="path127" class="cls-1" d="m36.18,92.43c.16.9.23,1.8.35,2.69l.1-.06.03-.02c.08-.08.01-.49.01-.6,0-.3-.02-.6-.04-.9-.04-.59-.12-1.18-.22-1.77-.2-1.09-.49-2.23-1.05-3.22h-.03c-.12.09-.26.16-.37.23l.04-.03-.04.03c.37.45.55,1,.73,1.54.21.69.35,1.4.48,2.1"/>
    <path id="path129" class="cls-1" d="m41.59,96.99c-.91-.39-1.88-.64-2.88-.67-.74-.01-1.45.28-1.43.27-.01,0,2.46-.13,3.94.64l.37-.24"/>
    <path id="path131" class="cls-1" d="m45.6,96.36l.27-.16c-.61.23-3.11-1.35-3.11-1.35.34.31,2.2,1.75,2.83,1.51"/>
    <path id="path133" class="cls-1" d="m42.59,79.05c.13.06.51.29.51.29l.19-.06s-.9-.96-1.62-.95c-.25.01-1.24.49-1.26.5.73-.15,1.5-.13,2.18.21Z"/>
    <path id="path135" class="cls-1" d="m62.51,77.21c.19-.15-1.89-2.36-3.27-2.92l-.11.06c2.32,1.39,3.25,2.92,3.23,2.93l.15-.06"/>
    <path id="path137" class="cls-1" d="m64.99,80.18c.28-.85-.11-1.83-.73-2.52,0-.01.85,1.47.46,2.68l.27-.16"/>
    <path id="path139" class="cls-1" d="m64.71,76.82c-.11-.19-.48-.44-.71-.46l-.13.07s.76.86.85,1.15c.03.1.24-.36,0-.76"/>
    <path id="path141" class="cls-1" d="m36.35,40.32c-2.3.83-4.11,1.64-5.5,2.31-2.65,1.27-6.16,3.99-7.66,5.1,2.09-1.48,9.63-6.57,17.46-8.32l.15-.05c1.55-.42,1.71-.79,1.6-.96-.02.02-2.77.87-3.08.96-1,.29-2,.61-2.98.96"/>
    <path id="path143" class="cls-1" d="m40.14,39.92l-.06.05.06-.05"/>
    <path id="path145" class="cls-1" d="m24,46.19h0s0,0,0,0h0c6.97-5.05,15.25-8.33,17.8-8.96-3.46.86-6.86,2.25-10.03,3.87-1.47.75-7.62,4.41-7.77,5.09Zm15.08-8.15c-.71.25-1.4.5-2.1.76-.76.29-1.5.59-2.24.91,1.41-.62,2.86-1.19,4.33-1.67"/>
    <path id="path147" class="cls-1" d="m28.06,43.16l.11-.06.05-.03-.16.09"/>
    <path id="path149" class="cls-1" d="m38.79,45.22l-.06.05.06-.05"/>
    <path id="path151" class="cls-1" d="m49.75,62.94c-2.53-.41-7.15-.19-7.19-.15,2.27.04,7.11.14,7.19.15"/>
    <path id="path153" class="cls-1" d="m50.3,61.69h.08s-.08,0-.08,0"/>
    <path id="path155" class="cls-1" d="m30.46,61.87c-.62,0-1.26.06-1.87.19l-.27.16h0s-.06.04-.06.04l-.03.02-.04.02s0,0,.01,0h0s0,0,0,0c.26-.05.49-.08.73-.1l3.65.02c.2,0,.4.03.61.05.21.01.51.09.76.09.08,0,.16,0,.23-.03l.22-.14.06-.04.06-.04-.04.02.04-.02c-1.33-.13-2.68-.22-4.04-.22"/>
    <path id="path157" class="cls-1" d="m77.43,81.64l-.27.17c-.06.92-.77,1.77-1.44,2.36l.27-.16c.67-.58,1.37-1.45,1.44-2.37"/>
    <path id="path159" class="cls-1" d="m44.38,105.06l.16-.09v-.02s-.16.11-.16.11"/>
    <path id="path161" class="cls-1" d="m82.85,75.72c-.19.2.39.6.78.67.02,0-.64-.45-.57-.65l-.21-.02"/>
    <path id="path165" class="cls-1" d="m58.9,37.72c.04-.19-.34-.18-.42-.26-.09-.12.45-.1.32-.2-.23-.22-.57-.19-.82-.16-.14,0-.26.03-.32,0-1.74-.68-1.97-.89-2.58-1.42-.03-.2-.02-.38-.1-.59-.31-.72-1.43-.98-1.43-.98.28.26.56.51.8.79.24.29.29.62.38.97.17.52,1.03,1.32,1,1.29-.16-.28-.3-.55-.43-.84-.05-.12-.1-.25-.15-.37.9.81,1.9,1.82,3.05,2.04.01.01.02-.06.04-.13.03-.1.08-.2.22-.1l1.38.74c.04-.39-1.04-.45-.95-.8"/>
    <path id="path167" class="cls-1" d="m60.91,39.77l.16-.16c.19-.32.27-.7.28-1.08.03-.77-.31-1.53-.69-2.19-.37-.63-1.99-2.59-2.07-2.59h0c-.04.2.51.66.62.79.45.61.82,1.28,1.1,1.97.26.63.45,1.32.47,2.01-.41-.74-1.02-1.38-1.57-1.99-.05-.06-.26-.04-.14.1.73.94,1.25,1.69,1.63,2.68h0s-.05.25-.05.25l.27.2h0Zm-.22-.23h0s-.02.02-.02.02l.02-.02"/>
    <path id="path169" class="cls-1" d="m58.15,39.74c.11-.06.06-.45,0-.45v-.03c-.77-.24-1.5-.53-2.12-1.02-.16-.12-.29-.26-.42-.4l-.16-.2-.2.02v.02s0,0,0,0c.58.77,1.27,1.48,2.17,1.88.16.07.55.28.73.17h0Zm-.04-.48h-.02.02"/>
    <path id="path171" class="cls-1" d="m56.31,39.61l.64-.03c-.61-.3-1.69-.94-2.06-1.42-.01-.01.1.59,1.42,1.44"/>
    <path id="path173" class="cls-1" d="m58.59,39.13h0c.13.03.27.05.42.06.16.02.29.12.44.14.12.02.13-.26.13-.26-.04-.04-.52-.4-.92-.32,0,0-1.22-.22-1.64-.67h-.06c-.05.11.06.26.13.33.37.4.98.58,1.49.73h0Z"/>
    <path id="path175" class="cls-1" d="m55.2,34.18l-.27.16c.24.14.52.21.79.21.09,0,.17,0,.26-.02l.27-.16c-.08.01-.17.02-.25.02-.27,0-.55-.07-.79-.21"/>
    <path id="path177" class="cls-1" d="m55.78,34.71l-.27.16c.56.13,1.21.16,1.65-.25-.07.07-.99.19-1.37.09"/>
    <path id="path179" class="cls-1" d="m57.22,35.53s-.23.37-.44.29l-.15.29c.38.11.61-.13.87-.59h-.28"/>
    <path id="path181" class="cls-1" d="m56.73,36.44l.12.08c.38.02.77-.21,1.06.02.02.03.2.02.12-.2-.5-.6-.53-.24-1.05-.06l-.27.16"/>
    <path id="path183" class="cls-1" d="m60.6,43.71c.32.02.58.32.85.55l.09-.21c-.1-.24-.21-.74-.53-.77-.26-.03-.41.43-.41.43"/>
    <path id="path185" class="cls-1" d="m61.29,40.59c0,.48-.06.96-.34,1.37l-.53.39c.87-.19,1.24-1.14,1.24-1.9,0,.06-.37-.19-.37.13"/>
    <path id="path187" class="cls-1" d="m61.96,39.79c.22-.49.5-1.19.55-1.72l-.28.16c-.8,1.98-.27,1.56-.27,1.56"/>
    <path id="path189" class="cls-1" d="m47.44,100.3l.55-.32c-.43-.03-1.38.3-1.79.71.13-.13.97-.41,1.24-.38"/>
    <path id="path191" class="cls-1" d="m49.29,99.74c.26,0,.52-.06.75-.15.19-.09,1.07-.67,1.16-.84l-.52.25c-.13.23-.72.42-.85.42l-.54.32"/>
    <path id="path193" class="cls-1" d="m50.64,99.9c.19.02.4,0,.59-.06.15-.04.75-.39.86-.53-.05.07-.67.31-.91.28l-.54.32"/>
    <path id="path195" class="cls-1" d="m19.02,55.62c4.3-3.02,8.92-5.65,13.88-7.44,1.08-.38,2.16-.82,3.2-1.3.64-.3,2.82-1.54,3.18-1.93-.12.13-3.89,2.09-6.92,3.19-3.48,1.25-6.69,3.22-9.82,5.14-1.56.95-3.11,1.93-4.6,2.98.34-.24.74-.39,1.08-.64"/>
    <path id="path197" class="cls-1" d="m38.35,44.65c-5.12,1.77-10.03,4.27-14.63,7.06-1.77,1.07-3.48,2.23-5.11,3.51.32-.25.77-.38,1.09-.63,3.25-2.55,6.83-4.61,10.56-6.39,2.17-1.03,4.38-1.98,6.63-2.8.13-.04.25-.09.37-.13.39-.13.7-.51,1.08-.64"/>
    <path id="path199" class="cls-1" d="m35.2,51.62c-.06.08-1.05.59-1.36.78-.22.13-1.61.77-2.53,1.07-1.4.47-2.67,1.1-3.98,1.78-2.18,1.1-4.29,2.35-6.36,3.63-1.01.62-2,1.26-2.98,1.93-.08.06.65-.34,1.1-.59.45-.26.92-.51,1.34-.8.63-.45,4.34-2.67,4.79-2.89,1.23-.61,2.49-1.12,3.79-1.56,2.42-.83,6.02-3.16,6.18-3.34"/>
    <path id="path201" class="cls-1" d="m32.69,51.63c-1.76.61-3.46,1.36-5.15,2.16-1.87.89-3.69,1.9-5.48,2.95-1.97,1.14-3.89,2.33-5.68,3.72.1-.08,2.31-1.27,2.71-1.58.69-.54,1.4-1.06,2.13-1.55.34-.24,3.27-1.82,4.63-2.43,1.34-.61,2.71-1.2,4.13-1.68.46-.16,2.58-1.53,2.7-1.58"/>
    <path id="path203" class="cls-1" d="m17.21,92.42v-.05c-.13-.67-1.03-1.88-1.06-1.95l-.52-.79-.39.28c-.26.15-.62.19-.9.25-.67.14-3.09.35-3.62.38-.32.03-.6.06-.92-.05-.17-.06-.27-.27-.44-.21-.12.03-.1.13-.06.21,0,0,.53.58.66,1.26.02.04.86-.61,1.58-.24.13.25.87,1.54.82,1.93-.15.33-.85.85-.85.86l.02.13v-.02s.59,1.05.59,1.05c.02.05.26.38.33-.06.06-.33.45-1.11.69-1.36.24-.22.47-.45.7-.67l.27.26c.21.27.44.45.22.99-.24.57-.96,1.5-1.1,1.91-.08.23.45.96.45.96.16.14.19,0,.28-.18.4-.94,1.2-1.94,1.14-2.49l.05-.6c.33.07,1.06.01,1.28-.08.67-.3.9-1.02.78-1.72h0Zm-4.89-1.09l.47-.1c.46-.06,1.36-.17,1.35-.05-.1.29-.54.86-.59.9-.23.14-.37.41-.6.55l-.62-1.31Zm3.11,1.9c-.42.19-1.02-.03-1.25-.37.37-.35,1.46-2,1.6-1.81.13.18.48.54.5.88-.04.47-.48,1.13-.84,1.31"/>
    <path id="path205" class="cls-1" d="m18.54,96.63l.52.46s.4-.31.56-.62c.05-.16.45-.93-.44-1.44,0,0-.89-.95-2.36.21,0,0-2.55,1.63-2.13,3.41,0,0,.6,1.69,2.17,1.49,0,0,.61.01.86-.48,0,0,.08-.28.34.13,0,0,.32.23,0,.52,0,0-.39.65-.94.7,0,0-.42,0-.11.42l.7.77s.4.34.5-.1c0,0,1.08-1.48,2.93-2.93,0,0,.57-.73.62-.16,0,0,.09.98.46.51,0,0,.26-.41.49-.55,0,0,.43-.03-.03-.43l-1.91-1.88s-.2-.49-.61-.02l-.31.32s-.39.34.16.41c0,0,.5.04.66.56l-1.76,1.69s-.18.34-.43-.03l-.93-1.13s-.35-.48-.5.12c0,0-.08.69-.96.88,0,0-.48.09-.75-.56,0,0-.16-.33.57-1.06l2.08-1.98s.38-.45.8-.17c0,0,.37.36-.26.99"/>
    <path id="path207" class="cls-1" d="m19.45,102.98s-.47.39-.1.7l.46.46s.31.33.44-.11c0,0,.04-.31.4-.7l1.46-1.44s.16-.26.18.08l-.72,2.97s-.19.83.41.61l2.92-1.95s.34-.32.22.23l-1.25,2.9s-.21.31.11.53l.4.3s.42.3.5-.1l1.86-4.89s.32-.69-.31-.97c0,0-.31-.12-.86.27l-2.05,1.41s-.32.06-.29-.3c0,0,.43-1.4.51-1.7,0,0,.45-1.4.1-1.68,0,0-.38-.53-.74-.12l-3.65,3.47"/>
    <path id="path209" class="cls-1" d="m28.2,102.93s-.49-.46-.66.16l-1.43,4.95s-.31.44.16.64c0,0,.35.13.35.26,0,0,.48.16.71-.15l3.81-3.79s.41-.31-.09-.54l-.47-.23s-.48-.3-.73.27c0,0-.02.39-.68.93l-1.14,1s-.26.18-.18-.16l.76-2.38s.41-.63-.41-.97"/>
    <path id="path211" class="cls-1" d="m32.28,105.04s-.46-.35-.77.25l-2.23,4.33s-.57.52-.09.64l.45.23s.32.25.55-.14l2.17-4.38s.44-.6.1-.83c-.35-.22-.19-.1-.19-.1"/>
    <path id="path213" class="cls-1" d="m40.2,110.11s.49-.86-.25-.8c0,0-.85-.25-.96.71,0,0,.02.44.14.75l.27,2.62s-.02.38.32.43c0,0,.36.15.71-.34l2.67-4.09s.42-.35-.16-.51c0,0-.58-.3-.78.02l-1.84,2.62s-.26.44-.12-1.41"/>
    <path id="path215" class="cls-1" d="m45.92,110.22s-.13.47-.5.12c0,0-.51-.54-.81.06,0,0-.34.2.96,1.43,0,0,1.25,1.22-.28,2.58,0,0-.91.94-3.02-.32,0,0-.53-.15-.3-.64l.33-.49s.28-.55.69.04c0,0,.15.82,1.22.79,0,0,1.21-.21-.16-1.94,0,0-1.26-1.92.37-2.4,0,0,.89-.17,1.45.21,0,0,.31.1.06.57"/>
    <path id="path217" class="cls-1" d="m39.27,107.73s-.34-.02-1.15-.35c0,0-.83-.53-1.19-.09,0,0-.56.83-.01.85,0,0,.44-.22.63-.14,0,0,.21-.13.08.41l-1.3,3.45s-.11.62-.78.04c0,0-.27-.24-.33-1.11,0,0,0-.85-.27-1.21,0,0,.6-.13,1.01-.71,0,0,.52-.76.24-1.66,0,0-.22-.58-.87-.81l-1.48-.66s-.69-.32-.54.32c0,0,.02.49-.23.95l-1.77,3.58s-.36.5.15.65l.68.32s.38.31.48-.16c0,0,.15-.83.43-1.32l.39-.88s.84.15.93,1.56c0,0-.16,1.78,1.11,2.07,0,0,1.43.53,1.9-.69l1.24-3.34s-.03-.47.29-.39c0,0,.13-.07.35.12,0,0,.47.23.47-.29,0,0,.12-.47-.43-.54h0Zm-5.32,1.09c-.52.01-.24-.43-.24-.43l.72-1.48c.09-.42.34-.18.34-.18l.42.3c.4.44-.24,1.52-.24,1.52-.19.42-1,.27-1,.27"/>
    <path id="path219" class="cls-1" d="m51.29,114.17s-.64.13-1.27-1.3c0,0-.21-.48-.61-.77,0,0,.89-.22.85-1.5,0,0,.13-.99-1.16-1.22l-1.62-.09-.5.16.08.13-.19,4.15s.06.37-.06.54c0,0-.39.53.22.54l.65.02s.55.12.49-.4l-.03-1.95s.57-.53,1.04.81c0,0,.79,2.03,2.27,1.28,0,0,.45-.28-.18-.41h0Zm-2.16-3.38c.03.62-.48.83-.48.83-.53.29-.48-.2-.48-.2v-1.39c-.04-.36.55-.21.55-.21.56,0,.41.97.41.97"/>
    <path id="path221" class="cls-1" d="m52.48,109.8s-2.1-.2-1.91,2.21c.2,2.43,2.47,1.93,2.47,1.93,0,0,1.24-.43,1.17-2.34-.05-1.6-1.73-1.8-1.73-1.8Zm-.11,3.48s-.71.22-.78-1.48c-.08-1.66.76-1.43.76-1.43,0,0,.87.11.87,1.3-.02,1.78-.85,1.61-.85,1.61"/>
    <path id="path223" class="cls-1" d="m58.76,111.71s-.19-.82-1.01-1.05c0,0-.28-.04-.1-.33,0,0,.84-1.66-.83-2.29,0,0-1.8.36-2.1.08,0,0-.12.21-.35.24,0,0-.48.08-.08.65,0,0,.24.07.51,2.26,0,0,.27,1.72.24,2.27,0,0-.35.83.28.72,0,0,.21-.11,1.13-.19,0,0,1.34-.33,1.54-.43,0,0,1.07-.28.79-1.92Zm-3.04-1.28l-.11-.9c-.23-1.03.39-.93.39-.93.88-.29.82.97.82.97.12,1.13-.64,1.09-.64,1.09-.63.24-.45-.23-.45-.23Zm1.92,2.01c-.05,1.14-1.09,1.1-1.09,1.1-.45.08-.43-.28-.43-.28,0-.49-.24-1.57-.24-1.57-.14-.67,1.08-.55,1.08-.55,0,0,.73.06.67,1.3"/>
    <path id="path225" class="cls-1" d="m65.5,110.64s-.37-.1-.96-.92c0,0-.67-.81-1.14-.86,0,0,.91-.86.63-1.76,0,0-.07-1.36-1.8-.98l-1.18.32s-.34-.05-.17.62c0,0,.36,3.22.18,4.05,0,0-.72-1.13-.96-1.4,0,0-1.05-1.62-.97-1.95,0,0,.2-.83-.27-.49,0,0-.68.37-.94.35,0,0-.55-.08.2.59,0,0,.37.15,1.15,1.48l1.66,2.63s.32.59.77.3c0,0,.42-.06.47-.55l-.04-2.52s.04-.67.79-.14c0,0,.18.12.96,1.12,0,0,.73,1.12,1.69.65,0,0,.5-.29-.06-.54h0Zm-3-1.95c-.44.32-.36-.09-.36-.09l-.08-1.47c-.08-.61.44-.47.44-.47.56-.06.64.99.64.99.07.73-.64,1.04-.64,1.04"/>
    <path id="path227" class="cls-1" d="m65.33,105.67s-.18-.36-.57-.02l-.26.47s-.15.49-.47.03l-.2-.46s-.22-.34.39-.45c0,0,1.8-.85,2.01-1,0,0,.31-.39.6.05,0,0,.53.41-.02.61,0,0-.89-.09-.6.35l1.89,3.74s.72.45.35.77l-1.59.84s-.55.32-.68-.09c0,0-.25-.62.32-.73l.51-.13s.31,0,.04-.62l-.51-.97s-.06-.35-.45-.04c0,0-.68.62-.94.27,0,0-.53-.41.06-.77l.57-.38s.31-.05.02-.48c0,0-.54-.87-.49-.97"/>
    <path id="path229" class="cls-1" d="m70.19,103.62s.04.67.56.2c0,0,.38-.44,0-.93,0,0-.35-1-2.05-.26-1.31.55-.76,1.99-.76,1.99,0,0,.09,1.03,2.27,1.11,0,0,1.65-.08,1.02,1.33,0,0-.38.62-1.31.23,0,0-.98-.49-.94.62,0,0,.08.6,1.61.57,0,0,2.2-.23,1.81-2.33,0,0-.1-1.39-2.54-1.47,0,0-1.5,0-.93-1.02,0,0,1.04-.86,1.26-.05"/>
    <path id="path231" class="cls-1" d="m71.95,101.69s-.11-.3-.39-.02c0,0-.31.36-.35.52,0,0-.2.47-.46.09l-.2-.44s-.19-.28.28-.6l1.85-1.47s.31-.39.64.06c0,0,.45.33-.02.66,0,0-.57.13-.68.34,0,0-.23.13.03.36l2.14,2.93s.24.31.66.48c.42.17.13.41,0,.61l-.41.34s-.52.45-.7-.15c0,0-.18-.72-.48-1.02l-1.92-2.71"/>
    <path id="path233" class="cls-1" d="m74.62,100.88s-.46-.28-.68.12c0,0-.63.5.24.81l3.01,1.36s.19.28.5.02l.36-.29s.26-.14.05-.73l-1.69-4.1s-.24-.38-.25-1.08c0,0-.03-.67-.46-.15l-.62.57s-.49.58.04.72c0,0,.31-.13.53.56l1.41,3.18s.13.21-.16.16l-2.3-1.15"/>
    <path id="path235" class="cls-1" d="m81.53,96.75s-1.71-1.99-3-1.97c0,0-1-.12-1.67.79,0,0-.23.48-.41.45,0,0-.5.42.19.72,0,0,.79.28,2.93,2.83,0,0,.18.02.3.71,0,0,.14.91.73.23l1.33-1.62s.66-1.14-.4-2.13Zm-.81,2.36l-2.82-2.62c-.72-.32-.21-.82-.21-.82.5-.47,1.35.22,1.35.22.95.55,1.86,1.75,1.86,1.75.53.8-.19,1.47-.19,1.47"/>
    <path id="path237" class="cls-1" d="m78.79,93.07s-.44.44.25.67l3.93,2.84s.31.45.58.12l.31-.32s.33-.42-.14-.61c0,0-.34-.05-1.16-.61,0,0-2.23-1.75-2.66-1.98,0,0-.61-.89-1.1-.11"/>
    <path id="path239" class="cls-1" d="m83.45,87.36s-1.04-.52-1.21-.03c0,0-.31.36.31.85l.91.89s.4.35-.21.26l-1.19-.32s-.53-.31-.75.27c0,0-.38.31.32.98,0,0,2.42,2.31,2.48,2.64,0,0-.74-.19-3.42-1.32,0,0-.58-.69-.94.12,0,0-.41.52.4.77l4.51,1.62s.58.17.77-.22c0,0,.41-.39-.07-.89l-2.48-2.73s-.25-.2.16-.19l2.24.62s.57-.01.23-.42l-1.84-1.88s3.55.63,3.59,1.17c0,0,.42.46.54-.13l.18-.39s.38-.62-.43-.61"/>
    <path id="path241" class="cls-1" d="m41.74,30.67c0,.45-.42.85-.89.84-.53.01-.92-.37-.91-.83-.04-.44.37-.88.9-.89.49.05.91.37.91.87"/>
    <path id="path243" class="cls-1" d="m55.44,30.26c0,.45-.4.84-.88.85-.53,0-.92-.38-.91-.83-.04-.44.37-.89.9-.89.48.05.91.38.9.87"/>
    <path id="path245" class="cls-1" d="m84.69,50.65c0,.45-.41.84-.89.85-.53.01-.92-.38-.91-.84-.04-.43.36-.88.89-.87.49.05.91.37.91.86"/>
    <path id="path247" class="cls-1" d="m91.93,77.16l-.28.16c.39,2.4-.34,4.82-1.49,6.92-.29.54-.61,1.05-.96,1.54l-.06.08.09.33c0,.12-.02.25-.03.36-.06.35-.23.7-.41,1l.27-.16c.18-.28.3-.58.39-.91.07-.24.07-.48,0-.71v-.13c.37-.49.7-1.02,1-1.55,1.13-2.1,1.88-4.53,1.49-6.93"/>
    <path id="path249" class="cls-1" d="m83.95,79.57v.02s0-.02,0-.02"/>
    <path id="path251" class="cls-1" d="m83.13,85.12c-.08-.22-.34-.17-.27.16-.02,1.15.94,1.39,1.02,1.44.27.2.99,0,1.4.46l.12-.15-.62-.67v.32c.05.09-.4-.41-.72-.42-.15-.01-.38,0-.5-.1l-.43-1.03"/>
    <path id="path253" class="cls-1" d="m83.9,84.51c.09.13.22.26.3.4.03.06.07.13.09.19-.04-.13-.09-.26-.16-.36-.04-.06-.13-.15-.24-.23m-.25-1.52h0s0,0,0,0m.03-.1s0,.01,0,.02c0,0,0-.02,0-.02"/>
    <path id="path255" class="cls-1" d="m84.3,85.11c.11.33.14.72.05,1.01h0c.1-.34.08-.69-.05-1.01m-.65-2.11c-.1.42-.06.76-.26,1.17,0,0,.28.17.51.35-.03-.04-.05-.08-.08-.12-.24-.43-.28-.93-.17-1.39m.02-.09s-.01.05-.02.08c.01-.03.01-.05.02-.08m.3-.27l-.27.15s-.02.06-.03.1c.01-.03.02-.06.03-.1l.27-.15h0"/>
    <path id="path257" class="cls-1" d="m83.98,82.65l-.27.15s-.02.06-.03.1c0,0,0,.01,0,.02-.01.03-.01.05-.02.08h0c-.11.48-.07.97.17,1.4.02.04.05.08.08.12.11.09.2.17.24.23.06.1.12.23.16.36.14.32.16.67.05,1.01l.27-.16c.04-.14.06-.27.06-.4,0-.46-.24-.86-.53-1.24-.21-.25-.3-.58-.3-.92,0-.26.04-.52.12-.75"/>
    <path id="path259" class="cls-1" d="m85.28,83.97l-.27.16c-.08.32-.17.64-.26.97l.26-.16c.09-.32.18-.65.27-.96"/>
    <path id="path261" class="cls-1" d="m85.42,82.52c-.15-.92.46-2.24.88-2.91-.05.08-1.01,1.35-1.17,2.12-.05.23-.05.71.02.95l.27-.16"/>
    <path id="path263" class="cls-1" d="m84.47,80.5h0s0,0,0,0m1.27-1.68l-.27.16c-.49.4-.95,1.41-1,1.52.33-.6.72-1.24,1.27-1.68"/>
    <path id="path265" class="cls-1" d="m85.46,82.99l-.27.17c-.19.14-.33.35-.35.59l.14-.08.12-.08c.03-.23.16-.46.35-.6"/>
    <path id="path267" class="cls-1" d="m12.11,81.11c.18.73.51,1.73-.57,2.29,0,0,.24.12.17.42,0,.04,0,.22.33.41,0,0,0-.62.22-.78.85-.63.26-2.23.09-2.38-.24-.22-.24.02-.23.05"/>
    <path id="path269" class="cls-1" d="m16.41,83.32c-.12,0-.79-.27-.74.44l.48-.08.21-.17.05-.19"/>
    <path id="path271" class="cls-1" d="m15.12,84.93l.24.11s.03-.59.03-.76l-.18-.02-.1.18s-.19.36,0,.49"/>
    <path id="path273" class="cls-1" d="m13.74,86.12l.37-.29s.27.16.41.13c.12-.02.47-.54.62-.72l-.27.16s-1.12-.18-1.13.73"/>
    <path id="path275" class="cls-1" d="m17.47,82.4c-.15-.02-.4-.06-.53,0-.2.07-.34.28-.45.46.19.06.65-.2.42-.09.53-.16.53-.36.57-.36"/>
    <path id="path277" class="cls-1" d="m17.16,80.76c-.1.04-.14-.15-.4.02-.23.16-.09.23-.19.28.2.04.35,0,.48-.06l.11-.23"/>
    <path id="path279" class="cls-1" d="m14.97,79.01c-.27.32-1.06.1-1.2.18-.26.13-.51.48-.58.79l.27-.05c.06-.13.29-.54.5-.51,1.11.13,1.22-.33,1.29-.56l-.27.16"/>
    <path id="path281" class="cls-1" d="m17.27,77.93c-.02.17-.04.35-.06.52l.14-.08.13-.08c.02-.17.04-.35.06-.52l-.14.07-.14.09"/>
    <path id="path283" class="cls-1" d="m17.73,79.39c.08.2-.1.42-.25.53l.27-.16c.15-.11.32-.33.24-.53l-.27.16"/>
    <path id="path285" class="cls-1" d="m93.33,70.43h-.3c0,.21,0,.42,0,.62,0,24.45-19.63,44.4-44.13,44.7-.2,0-.39,0-.59,0-24.42,0-44.4-19.66-44.74-44.18,0-.21,0-.41,0-.61,0-24.46,19.64-44.41,44.13-44.72.19,0,.39,0,.58,0,24.42,0,44.41,19.65,44.75,44.19h.3s.3,0,.3,0c-.34-24.84-20.58-44.76-45.36-44.76-.2,0-.39,0-.59,0-24.84.32-44.73,20.55-44.73,45.3,0,.21,0,.42,0,.62.34,24.82,20.57,44.75,45.34,44.76.2,0,.4,0,.6,0,24.85-.32,44.73-20.55,44.73-45.29,0-.21,0-.42,0-.63h-.3"/>
    <path id="path289" class="cls-1" d="m93.3,75.53c-.39.83-1.75,1.6-2.55,1.83-.74.21-1.41.46-2.16.56-1.7.24-2.94.61-4.31,1.65.05-.04-.11,0-.23.01.25-.99.44-1.98.59-2.98.6-3.97.52-8.04-.21-12.01,0-.03-1.55-7.07-3.54-10.47-3.11-5.3-6.41-10.15-12.37-13.92-.21-.13,8.77,6.62,13.16,16.38-.14-.16-1.42-1.2-2.47-.33-.15.13-.56,1.06.19,1.55l.19.05h-.01c-.06.21-.03.42.14.53v.03c-.56.74-1.05,1.61-1.27,2.5-.14.55-.14,1.16.3,1.58.46.43,1.97.58,1.97.57.01.04.67,6.75.67,9.45l-2.97,2.49c-.11-.21-.08-1.6-.08-2.2,0-3.43-.27-6.83-1.17-10.16-.36-1.34-.95-2.74-1.64-3.96,0,0,1.08,3,1.46,4.45.86,3.31,1.08,6.69,1.08,10.09,0,.64.07,1.36.07,2,0,.11.01.22.14.16.15-.06,3.11-2.67,3.16-2.68.11.37.26.65.67.7.26.03.59-.02.83-.08.45-.1.98-.21,1.5.14-.01.11-.01.22-.02.33-.43-.16-1.03.28-1.17.21.56.31.82-.15,1.14.05-.02.22-.04.43-.06.65-.2-.15-.39-.32-.39-.32,0,0,.2.42.37.61-.04.26-.07.48-.1.74-.04-.03-.64-.3-.71-.7l-.24-.03c-.2.22.5.81.93.89-.06.44-.1.74-.17,1.12-.46.13-1.18.31-1.33.12.11-.04.56-.38.47-.37-.32.06-.87-.36-.87-.35,0,.17.08.35.1.52-.3-.06-1-.08-1.08-.09-.17,0-.5.12-.6.25-.46.54-2.11,2.22-2.29,2.27-.12-.12-.07-.31-.01-.46.48-1.4-.14-2.14-.14-2.13.06.83-.2,1.63-.74,3.53-.15.54,1.36-.39,1.8-.89,1.55-1.75,1.97-1.39,1.98-1.4-.18,1.87-.59,3.71-1.07,5.53-.23.88-.44,1.8-.75,2.65-.1.26-.21.52-.22.81-.02.7.93.47,1.47.26-2.07,4.12-4.96,7.8-8.5,10.92-.81.71-1.64,1.39-2.46,2.02-.94-.49.07-3.14.34-3.8.68-1.72,1.6-3.36,2.4-5.04.4-.83.74-1.69,1.17-2.5,1.03-1.92,1.05-2.41,1.04-2.43.29-.03.64-.15.9-.35-.04.19-1.2,2.92-1.73,4.12-.52,1.15-1.07,2.3-1.64,3.43-.41.84-.92,1.62-1.37,2.45-.61,1.12-1.04,2.45-1.21,3.73,0-.06.21.26.27-.16.28-2.18,1.71-3.87,2.67-5.79,1.16-2.27,2.25-4.71,3.03-7.14.15-.46.3-.94.32-1.43.01-.22.18-.32.33-.49.25-.29.52-.66.48-1.05l-.27.15c.03.35-.18.66-.38.92-.07.11-.44.39-.42.52,0,.2,0,.35-.04.55-.03.01-.79.49-1.11.34-.17-.09-.25-.25-.41-.34-.5-.29-1.28-.07-1.73.19-.7.42-1.98,1.42-2.12.64.29.07.74-.2,1.26-.64.98-.83,2.98-1.09,2.98-1.09.06-.13.6-.34.6-.34-.64-.07-2.5.4-4.32,1.64.62-.57.86-1,1.13-1.63-.08.06,1.96-1.14,2.74-1.9.48-.46.41-.03.7-.63.91-1.85,1.37-4.55,1.59-6.61.28-2.67.29-5.44-.15-8.1-.48-2.94-1.21-5.95-2.55-8.64.11-.05.23-.11.34-.17.15-.09.2-.44-.06-.34-1.81.73-5,.9-5.75.81-.45-.05-.89-.07-1.22-.42-.12-.14-.98-1.95-.9-2.28,4.35.42,6.13-1.07,6.42-1.93.19-.53-1.32-3.01-1.55-3.34h0c-2.11-6.43.82-6.57.92-6.6-.2.02-3.51-.39-1.62,5.6-1.63-2.44-3.49-4.06-3.49-4.06.29.54.31.5.42.79-.89-.41-2.95-1.1-3.04-1.11-.11-.22-.23-.45-.35-.69,2.08.92,2.57.24,2.66.22-.53.15-2.55-.57-3.03-1.01-.28-.64-.81-1.88-.86-1.87.38,1.07.63,2.28,1.16,3.29-.12-.03-.24-.05-.35-.11-.25-.1-.91-.9-1.15-1.02-.14-.06.16.55.02.49-.06-.03-.88-1.03-1.04-1.1-.15-.06.06.66-.1.6-.6-.23-1.95-.73-1.94-1.59.18-.05.35-.7.47-1.04.44-.24.83-1.4.85-1.65l-.12-.06s-.31.52-.47.65c.03-.23.03-.46-.08-.63-.2-.29-1.63-.69-1.8-.74h-.35s.9.33,1.33.54c.77.38.38,1.53.36,1.6-.2-.3-.5-.57-.78-.75-.21-.13-.44-.33-.66-.42-.11-.05-.15.12-.16.1.24.19.75.67.8.71.26.27.5.57.58.83,0,0-.06.36-.14.54-.21-.38-.45-.73-.73-1.05-.17-.2-.91-.88-1.99-1.32-1.2-.48-2.67-2.02-3.06-2.65.61,1.01,1.34,2.14,2.42,2.64.61.28,1.51.75,1.5.77-.25.9-1.32,1.56-1.69,1.46.52.14,1.07-.07,1.42-.35.27-.21.51-.51.69-.83.64.53,1.29,1.72,1.3,1.72-.07.31.36.89.54,1.07.89.8,2.12,1.2,3.24,1.58.86.29,4.02,1.26,4.68,1.58.04.08,2.47,3.09,3.31,4.78.23.45,1.11,2.78,1.06,2.83-1.53,1.41-5.38,1.38-5.38,1.38,0,0-.44-.9-.72-.76,0,0-.73-1.13-.84-.94,0,0,.76,1.45.58,2.9,0,0,.12.83.31.48,0,0,.01-.84.39-.36.13.27.39.9.41.98.06.39.85.83.86.83.24,1.03.67,2.06,1.24,3.01.16.48,1.29,2.7,1.59,3.39.3.67.35,1.44.47,2.15.19,1.17.86,7.41.86,7.41-.03,1.62-.23,3.29-.69,4.84-.23.77-1.16,2.78-3.92,3.42-.43.1-.9.06-1.35.08.9-.58,1.64-1.39,1.93-2.45-.02.07-1.59,2.18-2.86,2.48.46-.38,1.01-.96,1.73-2.02.23-.34.41-.75.61-1.11.36-.64.19-1.79.17-1.85.23.38.43.79.48,1.19,0-.04.19.28.22-.06.04-.69-.54-1.52-.97-2.04-.39-.47-.76-.98-1.19-1.43-.81-.86-1.94-1.51-3.13-1.72-.2-.03-1.4-.83-1.89-1.04-.59-.26-1.23-.43-1.87-.5-.18-.02-.28-.12-.43-.21-1.04-.64-2.73-.03-2.73,0-.62-.43-2.63-1.39-2.63-1.4.19-.83.6-1.61.99-2.36.38-.72,1.39-2.37,1.47-2.5,0-.02-.78-1.46-.91-2.48.71-.08,1.4-.42,2-.86-.08.06-3.14,1.49-4.54-.6l-.38-.22c-.13-.1-.2-.25-.27-.39-.05-.2.02-.42.05-.62.02-.1.45-2.05.52-2.53.16-.98-.53-1.98-1.32-2.52-.01-.03.77.79,1.01,1.79-1.18.17-2.23.95-3.31,1.37-1.38.55-2.1,1.04-3.41,1.46-.85.28-4.52,1.22-7.33.42-.05-.02-.92.08-1.54-.47-.33-.3-.34-.82-.35-1.24-.01-.55.87-2.78,1.31-3.64,1.32-2.7,3.2-5.15,5.21-7.4.34-.38,1.03-1.5,1.15-1.68.79-.71,2.18-1.43,2.12-1.39,1.09-.76,1.77-.87,3.24-1.12,0,0,.18.8.6.84,1.59.12,2.77.58,3.21.89h0c.49.56.79,2.75.82,3.08,0,.13-.27.6-.62-.05.06-.22-.16-1.86-.9-2.67-.14-.14-.58-.37-1.11-.5.58.23,1.01.73,1.16,1.05.26.49.55,1.1.65,2,0,.1-.46.96-.93-.7-.17-.58-.6-1.35-1.21-1.43-.35-.04-1.36-.39-3.15.53.56-.3,3.53-1.14,3.94.83-.49.18-1.01.2-1.5.22-.73.02-1.41-.14-2.15,0-.53.11-1.1.1-1.53.95-.53,1.05-1.08,2.11-1.57,3.19-.17.36-.29.7-.42,1.09-.2.57-1.11,2.21-1.28,2.48-.42.63-.77,1.31-1.25,1.88l.25.06c.69-.83,1.47-2.16,1.47-2.16.95-.45,2.56-1.48,3.24-2.29,1.5-1.79,3.15-2.97,5.22-4.39-.07.04.33.36.69.3l.27-.16s.9.92,1-.28c.06-.68-.37-2.22-.55-2.56.14.15.67.54.82,2.77,0,0,.5.22.69.88-.01-.05.14-.66-.37-.97-.19-.11-.17-.32-.17-.51.03-.59-.1-1.19-.39-1.72-.49-.86-1.33-1.45-2.26-1.72-.33-.1-1.2-.26-1.73-.27-.44-.02-.57-.36-.57-.77,0-.19.3-.26.26-.47-.05-.23-.23-.54-.27-.82h.01c.18.03.35.09.52.14.13.03.36.13.49.1.02,0,.06.05.13-.07.08-.12-.34-.3-.53-.35-.2-.06-.41-.06-.58-.21-.21-.19-.14-.62-.05-.85l.36.22c.52.17.82-.28.88-.48-.6.66-1.19.04-1.19.05-.01,0-.14.02-.32.22-.69.16-.57-.55-.5-.83.21-.72.57-1.4.8-2.11.1-.33.03-.73.04-1.08.02-.89.8-2.41.88-2.57.09-.14.28-.19.31-.2.09,0,.52-.09.48-.29l-.97-.06-.27.18h0c.12.02.27.06.42.1-.17.16-.84,1.52-.98,1.95,0-.52.24-1.73.23-1.85,0-.16-.1-.27-.13-.42-.06-.24.2-.39.4-.53,1.11-.74,2.41-1.21,3.73-1.39,3.63-.5,6.36.79,7.16,1.38,1.3.96,1.94,2.41,2.09,3.95-.33.69-.67,1.7-.97,2.38-1.1,2.54.48,3.1.49,3.12-.67-.46-.45-2.2-.21-3.15.18-.68.41-1.36.71-2,0,.02-.12,1.53-.05,2.28.07.91.02,2.59,2.78,2.97.35.12-.18-1.01-.18-1.01-.3-.83-.84-.74-.84-.74-.8-.15-1.22-.4-1.37-.51-.07-.32-.11-.64-.14-.95.28-.07,1.3.39,1.3.39,1.01.45.5-.67.5-.67,0-.8-.59-.59-.59-.59-.48.02-.99-.35-1.17-.5.02-.37.03-.74.01-1.1.24-.1.79.17.79.17.72.44.5-.36.5-.36-.03-.52-.75-.56-.75-.56-.32-.04-.55-.2-.7-.35-.06-.24-.12-.46-.22-.68.64.37,1.28.29,1.64.1.02,0,.86-.45,1.61-2.21.18-.41.83-1.73.83-1.89,0-.16.66-.06.53-.41-.02-.14-.76-.38-.85-.44-.43-.23-.55-.12-.57-.1h.02c-.12.13-.05.28-.01.49.06.32-.82,2.49-1.3,3.2-.22.32-.45.61-.87.54-.36-.06-.88-.38-.76-.81.23-.59,1.04-2.57,1.2-2.97.26-.62.5-.74.51-.75h0c.42-.27-.4-.49-.56-.56-.33-.14-.63-.29-.96-.44-.25-.11-.49,0-.49,0-.15.13.02.4.03.58,0,.16-.5,1.45-.69,1.93-.21.53-.66,1.7-.68,1.76-.32-.27-.67-.51-1.05-.7l.1-.09c.31-.53.14-1.37-.3-1.77.89-.27,1.2-1.44.69-2.19-.5-.74-1.46-.79-2.25-.96-.32-.07-.64-.16-.95-.24-.15-.04-.58-.18-.63-.01h0s.03.26.03.26c.18.41.14.81.03,1.22-.23.85-.45,1.69-.68,2.54-1.25-.16-2.43-.03-3.57.3-.06-.13.07-.8.1-1,.02-.11.1-.42-.04-.47-.25-.12-.73.5-.87.66-.29.35-.65.57-1.09.7-.2.06-.7.23-.7-.13,0-.2,0-1.59,0-2.08.46-.09.84,0,1.09.45.05.1.36.04.41-.06.07-.14.07-1.04.01-1.31-.03-.13-.45.09-.48.12-.27.1-.88.15-1.05-.07,0-.51,0-1.01,0-1.52.2-.02.45.01.62.02.38.02.74.16,1.03.41.22.18.35.42.59.38.01,0,.32-.09.16-.65-.06-.2-.12-.53-.29-.68-.09-.09-2.13-.18-2.55-.2-.39-.01-1.19-.19-1.51.14-.12.12-.03.24.07.32.21.17.25.47.28.71.06.42.07,3.24.07,3.37,0,.25-.2.95-.34,1.45-.07.23,2.55.05,3.03-.02-.39.17-.77.37-1.14.58-.37.21-1.03.48-.99,1.06,0,.23.18.39.14.64-.05.31-.16.62-.2.94-.05.47-.04.96.03,1.44-.06.38,0,.72-.02,1.12-.02.25-.52,1.28-.61,1.56-.13.39-.49.93-.19,1.32.26.34.81.22.83.2,0,0-.44.76.03,1.03-.12.26-.21.87-.09,1.13-.66.11-1.38.21-2.02.44-.61.22-1.23.62-1.77.97-.1.06-1.46.57-2.65,2.68-.08.13-.75.89-.97,1.15-2.2,2.58-4.21,5.45-5.4,8.62-.31.83-.84,2.25-.27,3.03-2.05-.08-4.09-.15-6.13-.19-1.09-.02-2.19-.04-3.29-.03-.68.02-1.43.31-1.43.31,1.03-.11,2.07-.07,3.11-.06,1.11.02,7.21.19,7.47.22.3.03.56.02.57,0,.45.41,1.1.28,1.66.44,1.11.31,2.37.37,3.52.29,1.18-.07,2.15-.16,2.97-.23,1.95.04,3.98.17,5.57-.1-1.5.02-2.98-.02-4.48-.06.15-.03,5.64-2.55,6.48-2.72,0,.16-.03.33-.08.49-.17.5-.39,1.86-.42,2.13,0,.18-.13.34-.13.52,0,.52.53.64.81.97.94,1.05,1.96,1.16,2.37,1.17.01.53.75,2.37.94,2.62.01.02-1.76,2.57-2.39,4.63-.14-.05-.81-.19-.83-.3-.12-.6-.47-1.15-.85-1.62-.26-.31-.53-.7-.95-.74-.3-.03-.62-.06-.92-.09-2.38-.24-4.75-.47-7.12-.7-.96-.09-2.03-.26-3-.35l-.28.21c.37.42.75.85,1.11,1.29-.63.01-1.31-.02-1.93,0l-.11.13h-.02c.27.23.5.51.75.78-1.01.14-1.8.24-2.34,1.16-.05.1-.43.96-1.23,1.63-.36.31-.81.64-.76,1.27.03.24.28.27.54.24h0s-.03.02-.03.02c-.1.1-2.39,2.1-2.82,4.11-.29,1.34.4,4.02.52,4.55.13.64.67,4.92.55,6.62-.02.13.2,4.56.29,5.41.05.49.31.5.31.5.55.11,1.11.23,1.61.5.23.12.46.27.55.52.06.22,0,.47.08.7.27.82,1.62.35,2.22.32,1-.06,2.02.25,3.03.28.21,0,1.78-.11,2.02.07.11.07.18.2.28.28.51.36,1.19-.13,1.24-.18.24-.22.9-1.05.99-1.21.01.45.58,1.14.51,1.29-.03.05-1.39,1.31-1.53,1.88-.05.22-.11.45-.17.67-3.84-.17-13.76-.48-14.86-.51-.56-.02-.27.36-.27.36,3.82.18,13.56.29,15.07.34,0,.02-.19.51-.15.99,0,.07-1.45,1.39-1.7,3-.08.54.37.58.43.57-.07.04-.98.68-2.9,1.04-7.03-1.48-13.35-5.05-18.4-10.07-2.69-2.67-4.89-5.76-6.57-9.11-.07.1-.99.89-1.99,1.18,0-.32-.26-.65.28-.79.4-.1.35-.71.4-.8.06-.1.62-.4.85-.54h0c.18-.13.98-1.03,1.25-1.27s.44-.61.51-.96c.06-.29.17-.38.62-.45.45-.08.65-.71.67-.98.02-.22-.19-.58-.25-.8-.15-.5-.07-1.17.12-1.47.27-.42.75-.81.02-1.62-.22-.24-.1-.75-.09-1.09.02-.5-.32-1.27-2.07-.03-.11.09-.27-.13-.44-.11-.17.02-.59-.04-.99.82-.1.22-.32.31-.57.23-.18-.07-.42.08-.6.17-.2.1-.47.14-.69.17-.09-.35-.16-.69-.24-1.04-1.54-7.72-.59-15.68,2.92-22.74,2.28-4.57,4.94-8.89,8.91-12.15l-.27.16c-6.13,5.03-9.93,12.06-11.75,19.7-1.32,5.48-1.34,11.4-.06,16.89l.03.13c.34-.16,1.22-.95,1.31-.94,1.29.07,1.18-.47,1.39-.77.17-.24.34-.38.64-.33.25.04.39.04.64-.06.39-.15.9-.52,1.29-.46.32.04.2.31.08.89-.06.28-.05.55.28.72.46.22.31.6.12.97-.13.24-.38.42-.48.67-.14.37.13.68.13,1.25,0,.11.23.73.23.83-.02.32-.6.63-1.08.59-.13-.01-.27.35-.27.46-.03.23-.04.48-.13.72-.14.36-.54.63-.86.84-.26.18-.36.45-.48.74.05.12-.58.37-.95.4-.61.06-.32.83-.37.93-.05.08-.35.27-.46.34-.27.16-.38.63-.44.96-.11.01-.24.03-.37.04-.08-.9.25-1.87.53-2.71.38-1.15.88-2.25,1.43-3.33.69-1.37,1.37-2.66,2.21-3.95-.05.07-.08-.16-.3.07-.82,1.26-3.78,6.39-3.91,7.08-.02.1-.29.11-.46.08-.1-.28-.14-.59-.02-.88-.03.07-.73.48-.13,1.31,0,.32-.23,1.21.24,1.48.09.27.27.93-.18.88-.39-.39-.65-1.09-.68-1.56-.01-.19.18-.37.05-.65-.16-.33-.4-.58-.27-.91.06-.16.46-.93.18-1.21-.69-.66-.36-1.23-.06-1.7.15-.21.67-.32.49-.98-.06-.21-.11-.33-.17-.54-.16-.59.32-.97.8-1.27-.23-.33-.83-.68-1.17-.84-1.18-.54-2.38-.72-3.63-.92-1.47-.23-3.18-.83-4.04-2.1l.17.89c.45.67.91.83,1.61,1.21.49.27.95.44,1.45.55-.44.19-.92.39-.85,1.02,0,.06.06.77.06.93-.03.47-.09.7-.26,1.12-.2.45.23,1.14.46,1.53.03.04-.1.48-.12.62-.1.97,1.04,2.23,1.74,2.62.18.44.54.8.93,1.05.24.15.73.33.63.65-1.21-.51-2.36-1.37-3.38-2.33l-.13.53c4.58,5.21,9.3,1.87,9.64,1.56,2.83,5.31,7.03,9.9,12.09,13.27,3.85,2.55,8.09,4.64,12.62,5.62.1.57.41,1.16,1.03,1.27.38.07.69-.1.7-.11.28,1.39,2.49-.33,2.8-.62-.07.07-2.44,1.34-2.55.66-.05-.22.15-.35.27-.43.31-.21.98-.71,1.01-.73-1.06.56-1.56.9-1.57.91-.44.06-.8.03-1.01-.38-.13-.26-.03-.64-.01-.64.45-.07.89-.2,1.33-.31,2.17-.57,4.84-2.85,5.09-3.76,2.41-.94,5.61-1.37,5.76-1.51-1.79.05-4.28.46-7.26,1.79-.88.4-1.72.88-1.51,1.21.18.28.61-.16.61-.16.27-.45,1.81-1.08,1.82-1.09-.04.1-.9,1.2-2.01,1.92-.1.04-.62.54-.95.06-.4-.59,1.18-2.59,1.35-2.75.25-.21.26-.26.27-.59,0-.16.25-.78.32-.89.16-.19.24-.49.32-.73.19-.48.47-.91.82-1.28.41-.45.5-.88.42-1.04-.2-.44-.6-.96-.52-1.47-.16-.32-.49.04-.61.21-.24.3-.96,1.42-1.36,1.63-.15.03-.28-.13-.35-.24-.07-.11.13-.22.13-.31l-1.37.02c-.21,0-1.04.14-2.01-.13-.65-.19-1.31-.21-1.98-.28-.54-.06-1.08,0-1.61.09-.14.03-.74.06-.71-.89,0-.3-.58-.5-.8-.61-.5-.24-1.44-.34-1.38-.38h0c-.24-.02-.27-.44-.29-.61-.08-.5-.18-3.74-.07-4.84.21-2.34-.31-4.65-.69-6.95-.17-1.05-.49-2.18-.45-3.25.09-3.6,3.71-5.46,3.75-5.49,1.02-.02,3.15-.04,3.19-.04-.47.15-5.07,1.73-4.37,5.59.3,1.69,1.15,3.28,2.07,4.7,1.03,1.58,3.7,4.3,3.71,4.29-1.6-1.82-3.27-4.54-4.07-5.94-2.89-5.01-.07-6.51.66-7.1,1.2-.97,3.48-1.47,3.51-1.49.14,1.02,1.61.69,1.61.69.27.27,4.52,4.73,4.62,4.73,2.56.06,1.38.16,6.76.31.51.01,5.99.07,6.33-.38.22-.3.02-1.1-.11-1.37-.27-.62-.68-1.18-1.09-1.72-.39-.5-.8-.98-1.23-1.44.85.46,1.52,1.38,2.09,2.07v-.17c-1.16-2.24-2.65-2.52-2.66-2.52h0c-.22-.2-.41-.41-.63-.61-.2-.21-.42-.4-.65-.57,1.14-.55,2.25.03,2.43.04.61.06,1.22.23,1.79.46.49.19,1.76,1.01,1.98,1.09,1.02.33,2.07.92,2.89,1.72.42.41.91.83,1.3,1.27.67,1.15.51,2.57-.36,3.67-.3.38-1.76,2.58-3.87,2.3-.73.03-1.47.03-2.21.03-2.38-.01-9.3-.51-10.35-.76-1.02-.24-1.84-.7-2.49-1.5-.68-.81-1.48-1.48-2.13-2.3-.92-1.15-2.15-2.12-2.21-2.15,0,0,1.59,1.95,2.02,2.43.62.7,2.06,2.71,2.95,3.33v.29c-.07-.1-2.23-.7-3.95-3.21-.09-.13-.27-.11-.15.12l.73,1.03-1.2-.8s-1.02-.34-.96.36c.06.68,2.96,1.36,4.01,2.11-.21.02-2.64-.85-3.81-.3-.83.38-4.19-.1-4.2-.08,2.69,1.05,4.03.5,6.05.43.56-.02,1.04.23,1.59.29.14.02.53,0,.7-.14.11.07.41.26.53.3h-.01s.01,0,.01,0h-.01c1.15,1.37,1.97,3.17,1.68,4.97-.25,1.56-1.82,2.57-3.33,2.77,0,0,2.12.39,3.2-1.13,1.19-1.66.27-4.32.27-4.34,1,1,1.45,2.4,1.23,3.83-.15.96-.4,1.95-.8,2.84-.08.2-.2.38-.32.57l-.18.21s1.37-.79,1.68-3.82c.02.16.04.32.05.47.11,1.26-.01,3.25.47,3.98,0,0-.24-1.96.01-3.45.27.27,1.68,1.69,1.76,1.84.28.58-1.24,2.39-1.25,2.82,0,.26.3,2.01.41,2.59.2,1.12.46,2.22.89,3.28.38.92,1.1,1.66,1.32,2.63.21.9-.16,1.84-.94,2.36-.1.07-3.62,2.01-3.78,2.16-.89.75-2.54.96-2.55.97,0,0-.71.53-1.16.45-.7-.1.09-.75.35-.97h-.02s-1.18.84-1.7.77c-.44-.07-.41-.34-.12-.54.42-.29.92-.72.92-.72-.04.02-1.28.8-1.59.88-.64.17-.76-.29-.76-.29-.06.09-.04.76.85.54.23.54.93.48,1.5.13-.1,1.2,1.94.14,2.02.1,1.44-.13,2.32-.89,2.65-1.18l2.9-.39c.25.35.78.15.95.1.01.4.52.56.84.67,1.25.41,2.4-.88,2.96-1.77l.09-.14c6.56-1.85,12.7-5.77,17.27-10.73,4.01-4.37,6.91-9.77,8.4-15.49.28-.18.52-.34.72-.47-.12.21-.09.38-.31.8-.17.38.16.06.16.06.44-.57,2.28-1.96,2.46-2.04-.21.49.15,1.51.08,2.22-.08.87-.37,1.63-.64,2.47,0,0,.01.05-.91,2.44-.24.64.57,1.51.63,1.55.04.03.09-.94.46-1.25,0,0-.09-.26-.03-.54.05-.22,2.21-5.17,3.42-6.99.65-.76,1.1-.91,1.73-1.18.39,2.39-.44,4.73-1.58,6.82-.29.52-.81.94-1.17,1.41l-.29-.05c-.01-.23.21-.46.38-.61-.08.06-.46.14-.63.6h-.15c.18-.42.53-1.53.91-2.07.44-.63.84-1.21,1.16-1.91.38-.89.72-2.03,1.02-2.96-.03.06-.13-.19-.29.16-.44.95-1.39,1.93-1.62,3.05.01-.07.18.24.27-.16.18-.75.29-.57.44-.46-.06.13-.12.26-.18.39-.15.34-.42.96-.63,1.27-.24.32-.97,1.37-1.17,1.7-.19.28-.29.61-.45.89-.37.7-1.19,1.28-1.21,2.04,0,0,.15.03.27-.16.45-.69.85-1.27,1.4-1.64h0c.34,0,.68.06.97.24,0,0,.43.42-.52,1.47-.33-.01-.65-.06-.97-.13-.7-.13-.61.28-.61.28,1.3.24,2.8.32,3.67-.77l-.07-.24c-.39.5-.93.81-1.5.86.18-.27.48-.61.56-.92.06-.23-.13-.42-.01-.63.16-.26.57-1.1.87-1.64,1.13-2.08,1.81-4.62,1.43-6.99.53-.25,1-.59,1.25-1.13l.11-.49h0Zm-13.9-13.35l.35-.25.27.21c.18.66.45.42.6.62-.55-.01-2.32-.14-1.91-1.93.19-.84,1.11-2.31,1.11-2.31.25.05.48-.07.72-.1.28-.02.62-.06.81.16.01.02-.12-.57-1.19-.29-.09.02-.48.13-.36-.36.16-.02.36,0,.45-.2.31-.62.85-.23.85-.24-.18-.37-.39-.45-.67-.29-.26.15-.27.45-.6.48-.56.06-.83-.61-.44-1.2.38-.6,1.41-.24,1.74-.02.27.16.52.37.75.6.51,1.04,1.79,5.2,2.15,7.32l-.26.06c-.41-1.57-1.6-2.98-3.17-3.53.86.42,2.64,2.14,2.91,3.64-.15-.34-2.65-3.86-4.23-2.92-.41.25.09.53.09.54h0Zm3.81,10.89c-.28.05-1.49.42-1.58-.59.02-2.69-.65-9.71-.82-10.52.25.16.49.34.71.53.43.37.87.73,1.24,1.27.11,1.19.38,2.94.45,4.12.08,1.31.28,3.13,0,5.19h0Zm.51-.07c.22-1.69-.29-7.75-.29-7.69,0,0,.45-.25.77.02.36,2.54.47,5.13.3,7.7-.25-.04-.52-.05-.78-.02h0Zm-3.39,5.38l.28-.15-.28.15Zm-28.29-29.28c-2.11,1.03-3.9,2.99-5.4,4.73-.6.72-1.52,1.07-2.4,1.45.07-.15,2.65-5.76,2.89-6.01.03-.02.62-.35,1.13-.34.69,0,1.38,0,2.07-.03.46-.03,1.08-.17,1.66-.02h0l.08.21h-.03s0,0,0,0Zm13.39-6.27s.37.95-.57.37c0,0-.52.15-.79-1.02,0,0,1.2.15,1.36.65Zm-1.8-3.01c.12-.03.8.26.8.26.65.07.46.42.46.42-.2.22-1.04-.2-1.04-.2-.6-.15-.23-.48-.23-.48Zm1.12-8.78h.02s-.03,0-.03,0h0s0,0,0,0Zm-.09.05l.05-.02-.09.07.04-.05Zm-6.19-.62c.06-.35.14-.7.2-1.04l-.02.02.02-.02.08-.15c.31-.06.82.17.94.42.26.52-.01,1.34-.63,1.41-.22.02-.55-.01-.65-.23l.06-.41Zm-.33,1.21l.02-.02.05-.13c.27-.04.7.11.89.23.36.23.12.81-.02,1.16-.37-.13-.73-.22-1.08-.33-.02-.18.15-.83.17-.94l-.02.02Zm-5.69-.19c-.08.1-.17.19-.26.3.08-.1.17-.2.26-.3ZM10.59,79.29c.17.06.34.13.52.22.27.13.65.2.86.4-.05,0-1.32-.25-.58,1.82l.03.18c-.28-.5-1.1-2.13-.83-2.62h0Zm-2.06.43c.02-.3.11-.57.28-.78.09,0,.98.15,1.31.22.02.4.19,1.58,1.28,2.8-.06.35-.5.62-.61.98-.17.58-.6,1.33-.55,1.86-.21-.14-.41-.3-.59-.43l-.09-.06v-.03c-.15-.7.8-1.17.89-2.04-.08-.02-.13,0-.27.16-.36.42-.83,1.07-.89,1.67-.24-.22-.49-.48-.63-.8-.02-.29-.06-.65-.1-1,.14-.41.56-.8.87-1.07-.1.08-.58.12-.91.52-.01-.12,0-.22-.02-.32,0-.56-.01-1.13.04-1.69h0Zm-.87,5.04c-.38-.23-.5-.91-.48-.97.06-.15.06-.33.04-.48,0-.28-.16-.91-.22-.99-.11-.16-.12-.38-.09-.57.02-.24.06-.39.17-.59.2-.36.16-1.31.14-1.32-.13-.15-.27.11-.27.16,0,0,.02.88-.14,1.28-.09.2-.19.32-.22.56-.04.3.17.54.23.8.13.63-.02,1.12-.05,1.25,0,.07.66,1.48.85,1.91h0s.02.29.02.29c-1.76-1.56-1.15-2.72-1.22-2.82-.09-.15-.16-.47-.23-.64-.14-.47-.11-.96.03-1.44.11-.35.26-.74.16-1.1-.26-.98.51-1.14.93-1.31.09.01.77.08.98.11-.11.29-.03.67-.06.99-.06.56-.27,2.98.07,3.84-.29.13-.74.58-.67,1.04h0Zm2.6,3.77c-.04-.9-1.43-1.22-1.5-1.27-.23-.18-.42-.39-.57-.63-.3-.48-.19-.99-.27-1.52-.12-.94.71-1.22.74-1.21h0s.03,0,.03,0c.3.26.35.4.67.64.27.19.61.48.97.63.11.25.2.22.22.66.02.47-.21.96-.17,1.42.04.47.26,1.08.65,1.43-.27-.03-.52-.08-.79-.15h0Zm36.21,7.83h.02s-.03,0-.03,0h0Zm-12.12-.83h0l-.02.02.02-.02Zm2.54-21.31h.02s-.02,0-.02,0Zm23.35,3.91c.56,1.21.15,1.19.06,1.3-.09.1-1.09.14-1.09.14-1.09-.03-2.14.05-3.23.02-2.33-.06-7.55-.2-7.83-.21-.11,0-.17.01-.24-.06-.65-.67-1.29-1.33-1.94-2-.79-.8-1.56-1.61-2.34-2.41-.11-.11-.22-.32-.39-.28-1.36.35-1.43-.83-1.48-.83-1.82.02-3.23-.16-5.26.06-.3.03-.76.26-1.04.22-.53-.07,0-.62.23-.83.44-.42,1.07-.91,1.26-1.51.1-.31.43-.62.65-.83,0,0,.56.32.88.37.42.08,2.68,1.27,3.26,1.66.04.03-2.14-1.65-2.95-1.81-.35-.07-.68-.18-.91-.42.48-.36,1.61-.4,1.59-.43.06.06,1.66,1.31,2.14,1.97.01,0-1.04-1.35-1.61-1.88-.41-.36-.81-.72-1.24-1.07.6,0,1.16.05,1.77.02.04,0,1,1.02,1.36,1.59.32.48.77,1.11.77,1.7,0,.09-.28.48-.26.77.03.49.39.49.51.88l.27-.16c-.11-.37-.52-.37-.52-.81,0-.3.23-.53.25-.8.09-.58-.46-1.29-.76-1.74-.63-.99-1.36-1.92-2.12-2.82,3.52.34,7.04.76,10.56,1.05.78.06,1.67,2,1.71,2.32-1.86-.43-3.82-.54-5.71-.52-.73,0-1.87-.08-2.58.09-.82.19-.89,1.18-.86,1.11,0,0,.26-.96,1.76-.94.85.01,2.17,0,2.94.04,2.95.11,6.12.4,8.48,2.27.91.73,3.56,4.02,3.92,4.8h0Zm-14.01,30.51l-.2.13.2-.13Zm3.19-.28c.22-.13.42-.29.62-.44-.19.19-.4.33-.62.44Zm22.07-21.21c.46-.26,1.16-.86,1.06-.81,1.01-.61,1.61.03,1.67.07-.02,0-.29.32-.42.47-.05.04-.92,1.17-2.27,1.88-.82.44-4.16-.7-2.97-2.43.17-.14.41-.16.47-.19-.12.2-.12.3-.17.52-.11.46.35.73.69.59.22.09,1.18.4,1.95-.1h0Zm1.23-9.89c-.12-1.26-.15-2.53-.26-3.79-.11-1.27-.26-2.54-.41-3.8-.07-.54-.08-1.09-.11-1.66-.05-.59-.27-2.36-.47-2.8.25.24.87.69.89.71-.56-.56-2.3-2.51-2.92-3.75-.51-.86-.92-1.77-1.16-2.69,2.02.35,4.71-.06,5.74-.48,1.43,2.87,2.18,6.11,2.65,9.27.22,1.44.23,2.91.22,4.35-.01,1.72-.26,3.53-.55,5.22-.27,1.48-.67,2.97-1.44,4.3-.2.34-.37.47-.67.73-.67.55-1.33.79-2.16,1.47l-.37.08c-.29.17-.45.8-.61,1.09-.32.57-1.16,1.29-1.38,1.44-.27.18-.61.17-.57-.44.01-.23,2.26-3.55,2.48-3.87.2-.27.4-.56.68-.73.13-.08.29-.16.37-.29.3-.58.14-3.71.07-4.35Zm-.69,4.8l.16-.11-.16.11Zm-22.76,1.13c-.15.12-.31.19-.5.2.18-.04.35-.1.5-.2Zm1.63,24.44l-.12.08.1-.07.03-.02h0s0,0,0,0Zm7.67-2.99c-.09.86-1.06,2.08-1.21,2.27-1.02,1.23-2.43,1.22-2.58.71-.1-.3.71-.94.91-1.24.4-.61.32-1.35.32-1.34-.04.54-.55,1.13-.89,1.51-.32.37-.64.79-.81.88-.18.11-.45.13-.59-.06-.23-.42.07-.54,0-.51,1.12-.53,1.42-1.1,1.45-1.69,0,.08-.42,1.08-1.33,1.44-.24.09-.32.15-.43.35-.8-.42-.12-.69.8-1.24.02-.01.42-.32.72-.65.69-.75.52-1.81.19-2.68-.18-.48-.37-.96-.53-1.46-.42-1.37-.78-2.88-1.53-4.12-.15-.28-.32-.55-.36-.86-.03-.28-.05-1.19.07-1.36.12-.21.85-1.34,1.19-1.6h0c.68,1.23,2.91,1.32,3.44,1.49,1.59.5,1.72,1.89,1.69,2.39-.03.56-.29,1.06-.45,1.59-.32,1.09-.92,2.14-.85,3.3.04.64.82,2.34.77,2.9h0Zm.37,1.09c-.16.06-.19-.06-.2-.18.94-1.29-.25-3.53-.24-3.8.02-.6.43-2.97.56-3.55.18-.77.55-1.43.4-2.23s-.86-1.39-1.58-1.73c-.36-.17-2.87-.38-3.65-1.7,0-.02.23-.19-1.05-1.47-.52-.53-1.04-1.08-1.56-1.6-.44-2.97-2.42-4.72-2.42-4.72h0s0,0,0,0h0c-.22-.47-.48-.9-.79-1.33.33.02.67-.06.92-.26.45.14.93.23,1.4.31,1.21.17,2.41.33,3.64.46,1.29.14,2.56.28,3.85.37,1.27.09,2.55.09,3.82.11,1.19.02,2.39.02,3.6-.05.97-.06,2-.08,2.92-.38,2.01-.67,3.22-3.41,3.54-3.2.22.14.06.83-.17.97-.11.1-.9.98-2.82,4.19-.03,0-1.1.12-1.11,1.26-.02,1.52,2.87,2.45,3.46,2.19,0,0,1.05-.37,2.44-1.68-.3.52-.6,1.06-.79,1.63-.29.85-2.69,5.59-3.46,7.48-.36-.76-.89-1.38-1.6-1.84-.38-.23-.77-.35-1.2-.47-.44-.14-1.21-.35-1.44-.81-.02-.04-.05-4.71-.21-6.26-.05-.53-.34-1.52-.69-1.93-.03-.04.68,2.08.36,3.44-.11.48.11,2.3.21,3.82-.57-.41-1.29-.69-1.95-.89-.68-.2-.7-1.23-.71-1.77,0-.58.1-1.15.15-1.72.07-.95-.03-1.96-.28-2.88,0,.02.06,2.08,0,3.04-.03.58-.14,1.14-.15,1.72,0,.59.05,1.52.71,1.78.7.27,1.63.63,2.24,1.09,0,.22.04.43.01.64-.06.64,2.06,1.21,2.46,1.39.88.41,1.53,1.15,1.94,2.01,0,0-1.02,2.52-.12,3.37-3.14,2.31-6.49,4.04-10.46,5.22h0Zm21.75-18.82c-.5.28-1.1.54-1.16,0-.01-.25.79-2.53,1.05-3.46.53-2.05,1.34-6.29,1.45-6.26.13.03.61.22.91.18-.19,2.13-1.53,8.05-2.25,9.53h0Zm2.56-6.21c-.55,2.08-1.02,2.61-.96,2.36.45-2.11,1.06-3.2,1.25-5.36.16-.04.29-.09.38-.12-.2,1.21-.36,1.93-.67,3.11Zm2.7,5.97c-.63-.69.41-2.5.42-2.54.03.01.3-.07.43-.12l.06-.03h.04c-1.03,1.4-.93,2.52-.95,2.68h0Zm2.84-6.84c-.18.55-.42.75-.82,1.57-.06-.06-.08-.15-.07-.27-.04-.74.49-2.02.66-2.31,0,0-.7.23-1.63,4.97l-.48.13c.1-.22.17-.45.26-.69.29-.85.5-1.69.58-2.58.19-2.05,1.58-2.62,1.66-2.56.15.45-.01,1.28-.16,1.73"/>
  </g>
  <g>
    <path class="cls-1" d="m192.78,70.81c2.03,1.51,4.08,2.64,5.63,4.26,4.75,4.99,5.02,18.2-5.64,22.01-3.23,1.15-6.82,1.67-10.27,1.78-7.87.26-15.76.08-23.78.08-.12-.77-.3-1.39-.31-2.01-.02-15.77,0-31.53-.05-47.3,0-1.71.49-2.21,2.24-2.18,7.24.11,14.49-.1,21.72.14,3.27.11,6.6.69,9.74,1.6,8.04,2.34,9.43,14.78,3.04,19.81-.77.61-1.56,1.21-2.32,1.79Zm-22.78,5.26v14c4.79,0,9.34.14,13.87-.04,4.14-.17,6.28-2.52,6.34-6.42.07-4.31-2.28-7.28-6.41-7.49-4.52-.23-9.07-.05-13.79-.05Zm-.11-7.56c2.56,0,4.77.09,6.98-.02,2.56-.13,5.21-.1,7.65-.77,2.62-.73,3.87-3,3.77-5.75-.1-2.54-1.46-4.89-3.87-5.11-4.81-.44-9.69-.13-14.53-.13v11.79Z"/>
    <path class="cls-1" d="m137.61,47.47c3.1,0,6.06-.12,9,.09.7.05,1.89,1.2,1.9,1.85.1,10.56.31,21.14-.04,31.69-.39,11.82-7.78,18.61-19.68,18.95-6.08.17-12.16.05-17.04-4.01-2.36-1.96-4.43-4.68-5.63-7.48-1.23-2.88-1.61-6.28-1.68-9.46-.21-9.73-.03-19.46-.13-29.19-.02-2.04.65-2.59,2.57-2.45,2.22.16,4.46.17,6.67,0,1.78-.13,2.23.48,2.21,2.19-.1,9.64-.18,19.28-.1,28.91.03,3.98.31,7.95,4.13,10.61,4.53,3.16,13.79,1.84,16.02-2.75,1.08-2.22,1.49-4.95,1.53-7.47.15-9.82.03-19.65.03-29.47,0-.62.14-1.24.23-2.01Z"/>
    <path class="cls-1" d="m202.94,98.96c1.93-5.1,3.67-9.7,5.42-14.3,4.47-11.76,8.91-23.53,13.48-35.24.33-.84,1.58-1.71,2.5-1.83,2-.27,4.1.15,6.11-.11,2.77-.36,4.04.67,5,3.29,5.75,15.68,11.68,31.29,17.54,46.93.09.24.01.54.01,1.27-3.48,0-6.94.07-10.39-.08-.53-.02-1.24-.98-1.49-1.64-.99-2.57-1.92-5.17-2.68-7.82-.43-1.51-1.12-2.04-2.74-2.01-5.1.11-10.21-.04-15.31.12-.86.03-2.11.91-2.47,1.72-1.15,2.6-1.86,5.39-2.97,8.01-.31.74-1.36,1.59-2.12,1.63-3.13.18-6.27.08-9.91.08Zm25.64-38.06c-.2-.08-.41-.16-.61-.24-2.15,6.01-4.3,12.02-6.54,18.27h13.31c-2.11-6.17-4.13-12.1-6.16-18.03Z"/>
  </g>
</svg>