<?xml version="1.0" encoding="UTF-8"?>
<svg id="Belog" xmlns="http://www.w3.org/2000/svg" viewBox="0 0 256 142">
  <defs>
    <style>
      .cls-1 {
        fill: #2054fd;
      }
    </style>
  </defs>
  <path class="cls-1" d="m27.21,75.8H7.75v-9.7h19.38c.03-.1.05-.19.08-.29-.18-.1-.34-.25-.53-.3-9.59-2.29-15.57-8.31-18.25-17.65-.45-1.56-.56-3.22-.82-4.84-.07-.42-.05-.83.56-.83,3.07,0,6.14,0,9.29,0-.26,4.47,1.57,7.87,4.57,10.72,1.61,1.53,3.86,2.7,5.07,2.74,0-.33,0-.65,0-.97-.02-3.87-.03-7.74-.08-11.61,0-.69.2-.91.9-.9,2.64.03,5.29.03,7.93,0,.7,0,.88.23.88.92-.05,3.96-.05,7.93-.06,11.89,0,.24.04.48.07.87.5-.2.93-.34,1.33-.54,5.03-2.54,7.85-6.59,8.38-12.19.07-.71.28-.95,1-.94,2.61.03,5.23.03,7.84,0,.7,0,.89.23.84.93-.72,10.35-7.16,18.65-17.07,21.94-.47.16-.97.21-1.44.35-.36.1-.7.25-1.05.38.02.1.04.2.06.3h19.35c.04.38.08.62.08.86.02,2.66.02,5.33.06,7.99,0,.62-.15.87-.83.87-5.32-.02-10.64,0-15.96-.02-.91,0-1.82-.09-2.73-.14-.03.12-.06.25-.09.37.45.18.89.4,1.35.54,3.47,1,6.71,2.46,9.48,4.81,4.89,4.15,7.85,9.35,8.59,15.74.09.82.17,1.64.25,2.52h-9.52c-.53-6.51-3.79-10.97-9.9-13.63v13.63h-9.65v-13.56c-2.98,1.15-5.35,2.78-7.08,5.27-1.69,2.45-2.78,5.1-2.55,8.26H7.59c1.07-12.44,7.7-20.2,19.81-23.51-.06-.1-.13-.19-.19-.29Z"/>
  <path class="cls-1" d="m159.78,92.63c0-2.44.03-4.87-.02-7.31-.02-.84.08-1.26,1.09-1.13.88.12,1.8.05,2.7,0,.62-.03.82.23.82.82-.01,4.67,0,9.34,0,14.01,0,.56-.2.76-.78.73-1.02-.05-2.05-.06-3.07-.03-.6.02-.95-.2-1.28-.71-1.57-2.38-3.19-4.72-4.8-7.07-.13-.2-.32-.36-.64-.72-.06.53-.14.87-.14,1.2.02,2.17.03,4.33.09,6.5.02.65-.17.88-.84.85-1.21-.05-2.42-.01-3.72-.01,0-.67,0-1.27,0-1.87,0-4.33,0-8.66-.03-12.99,0-.6.21-.75.76-.72.9.05,1.81.12,2.7.07.87-.05,1.35.34,1.8,1.02,1.54,2.32,3.13,4.61,4.71,6.9.13.19.29.36.44.53.07-.03.14-.05.2-.08Z"/>
  <path class="cls-1" d="m118.35,63.15c1.39,0,2.69-.04,3.99.03.32.02.72.32.92.6,1.67,2.38,3.3,4.79,4.95,7.19.19.27.4.53.79,1.04v-8.81h4.48v15.56c-1.4,0-2.79.03-4.17-.02-.24,0-.52-.3-.69-.53-1.62-2.34-3.22-4.7-4.84-7.04-.19-.28-.44-.53-.87-.7,0,2.4-.04,4.8.02,7.19.02.88-.18,1.21-1.11,1.14-1.14-.08-2.28-.02-3.47-.02v-15.62Z"/>
  <path class="cls-1" d="m98.15,50.54v-8.21h4.53v15.61c-1.39,0-2.72.07-4.03-.05-.38-.03-.78-.56-1.05-.95-1.2-1.73-2.35-3.49-3.54-5.23-.52-.76-1.1-1.49-1.84-2.18v8.38h-4.51c-.02-.3-.04-.62-.05-.95-.03-4.64-.04-9.28-.08-13.92,0-.66.24-.76.86-.85,2.58-.38,4.39.37,5.61,2.84.88,1.79,2.22,3.35,3.36,5,.15.22.34.41.52.61.07-.03.15-.06.22-.09Z"/>
  <path class="cls-1" d="m79.81,92.72c0-.57.01-1.14,0-1.71-.05-2.04-.08-4.08-.16-6.12-.02-.57.24-.7.72-.7,1,.01,1.99.06,2.98,0,.76-.05.97.23.96.95-.04,2.69-.05,5.38-.05,8.08,0,1.89,0,3.78.05,5.66.02.67-.14.94-.89.87-.92-.08-1.87-.07-2.79,0-.65.04-1.04-.19-1.39-.71-1.3-1.96-2.62-3.91-3.96-5.85-.45-.65-.99-1.23-1.68-1.74,0,.99,0,1.98,0,2.97.02,1.52.04,3.03.08,4.55.02.59-.18.82-.81.79-1.17-.05-2.35-.01-3.59-.01-.02-.35-.05-.58-.05-.81-.02-4.64-.02-9.28-.08-13.93,0-.64.2-.84.78-.81.09,0,.19.02.28,0,2.49-.42,4.16.45,5.37,2.77,1.06,2.04,2.57,3.84,3.89,5.75.11,0,.22,0,.33,0Z"/>
  <path class="cls-1" d="m158.54,50.75c2.64,1.74,3.45,4.56,5.02,7.19-1.91,0-3.59,0-5.28-.02-.12,0-.28-.2-.36-.34-.84-1.58-1.59-3.22-2.52-4.74-.37-.61-1.08-1.05-1.71-1.44-.55-.34-.85-.05-.85.6.01,1.64-.05,3.28,0,4.92.03.81-.2,1.1-1.05,1.05-1.17-.07-2.35-.02-3.71-.02,0-.89,0-1.72,0-2.54-.02-4.15-.03-8.29-.06-12.44,0-.53.13-.8.73-.78,3.11.07,6.22.05,9.33.17,2.32.09,3.55,1.34,4.18,3.54.45,1.58-1.37,4.74-3.16,4.65-.13,0-.27.09-.56.2Zm-2.07-2.48c.8-.15,1.1-.81,1.02-1.55-.08-.69-.45-1.23-1.24-1.28-1.08-.07-2.16-.12-3.43-.18,0,1.03-.04,1.89.03,2.74.02.22.39.6.58.59"/>
  <path class="cls-1" d="m224.37,57.93v-15.46c.07-.06.11-.13.16-.13,2.95,0,5.9-.14,8.84.08,2.13.16,3.73,1.44,4.62,3.44,1.06,2.39,1.16,4.9.47,7.35-.91,3.26-3.51,4.51-6.65,4.7-2.44.15-4.9.03-7.44.03Zm4.78-7.92h.03c0,.83-.01,1.67,0,2.5q.04,2.06,2.14,1.8c1.81-.22,2.5-.81,2.64-2.61.1-1.25.03-2.53-.13-3.78-.14-1.07-.79-1.88-1.94-2.1-.6-.12-1.23-.13-1.84-.21-.68-.09-.95.16-.92.87.05,1.17.01,2.34.01,3.52Z"/>
  <path class="cls-1" d="m189.96,57.95c0-.54,0-.96,0-1.39-.03-4.54-.06-9.09-.1-13.63,0-.5.15-.75.69-.74,2.7.06,5.41,0,8.1.19,2.23.15,3.93,1.36,4.83,3.44,1.12,2.56,1.22,5.23.32,7.87-.67,1.96-2.06,3.31-4.14,3.76-1.17.26-2.38.44-3.58.48-1.98.08-3.97.02-6.12.02Zm4.68-7.99s.05,0,.07,0c0,.87,0,1.73,0,2.6q0,2.01,2.05,1.8c1.71-.17,2.49-.82,2.74-2.47.14-.91.2-1.85.11-2.76-.27-2.72-1.55-3.72-4.3-3.52-.53.04-.69.24-.68.74.03,1.21,0,2.41,0,3.62Z"/>
  <path class="cls-1" d="m177.09,79.04c-2.26,0-4.42-.81-6.07-2.87-2.1-2.63-2.16-9.44,1.56-11.83,3.22-2.07,8.44-1.81,11.03.71,2.14,2.08,2.45,4.74,2.16,7.48-.46,4.32-3.68,6.76-8.68,6.52Zm3.97-7.94c-.1-.71-.15-1.49-.31-2.24-.33-1.51-1.5-2.38-3.11-2.41-1.45-.02-2.93,1-3.1,2.43-.17,1.39-.18,2.85.04,4.23.25,1.63,1.65,2.52,3.35,2.45,1.51-.06,2.62-1.06,2.91-2.65.1-.58.15-1.16.23-1.81Z"/>
  <path class="cls-1" d="m196.57,73.05v-3.12h7.51c0,2.02.02,4.06-.02,6.09,0,.28-.26.66-.51.82-3.38,2.19-7.01,2.99-10.91,1.64-2.59-.9-3.99-2.86-4.44-5.5-.57-3.35-.04-6.38,2.87-8.56.63-.47,1.4-.84,2.16-1.05,2.26-.59,4.56-.58,6.83-.01,1.72.43,2.81,1.63,3.48,3.24.2.49.12.73-.46.82-1.07.16-2.13.41-3.21.55-.25.03-.67-.13-.8-.33-.88-1.37-2.17-1.61-3.6-1.29-1.4.32-2.33,1.26-2.47,2.69-.13,1.37-.18,2.78.01,4.13.2,1.45,1.38,2.49,2.83,2.52,1.09.02,2.2-.27,3.26-.56.32-.09.66-.58.76-.94.26-.91,0-1.16-.95-1.15-.77,0-1.53,0-2.34,0Z"/>
  <path class="cls-1" d="m152.65,71.01c0,4.13-1.96,6.9-5.66,7.79-2.19.53-4.38.47-6.48-.46-2.41-1.07-3.54-3.07-4.09-5.52-.44-1.98-.11-3.88.68-5.7,1.14-2.64,3.36-3.84,6.08-4.09,1.37-.13,2.84-.07,4.14.3,3.54,1,5.32,3.71,5.32,7.68Zm-4.71-.02s-.09,0-.14-.01c0-.46.04-.93,0-1.39-.15-1.58-1.29-2.84-2.76-3.08-1.49-.25-2.98.42-3.49,1.7-.73,1.81-.82,3.66-.09,5.5.5,1.24,1.75,1.97,3.2,1.93,1.33-.04,2.5-.84,2.87-2.11.24-.82.28-1.69.41-2.54Z"/>
  <path class="cls-1" d="m137.56,83.95c3.63.02,6.22.84,7.89,3.54,2.38,3.87.83,10.02-3.05,11.78-2.77,1.26-7.61,1.32-10.18-1.45-2.09-2.24-2.73-6.47-1.33-9.59,1.41-3.13,4.1-4.18,6.68-4.29Zm4.15,7.89c-.15-.71-.27-1.72-.6-2.67-.41-1.19-1.46-1.65-2.65-1.69-1.24-.05-2.38.32-2.96,1.53-.95,1.97-1.02,3.98-.02,5.98.62,1.23,1.92,1.81,3.46,1.58,1.34-.2,2.24-1.04,2.49-2.39.12-.66.16-1.35.28-2.33Z"/>
  <path class="cls-1" d="m145.23,54.33v3.58h-13.24c0-.61,0-1.19,0-1.77-.03-4.43-.06-8.85-.06-13.28,0-.22.33-.63.5-.63,4.07-.02,8.15,0,12.22.03.15,0,.29.08.49.14,0,.85-.02,1.67,0,2.5.02.63-.4.6-.81.61-2.24,0-4.48.04-6.72,0-.68-.01-.85.2-.84.84.02,1.77,0,1.77,1.76,1.76,1.92,0,3.84,0,5.83,0v3.13c-2.18,0-4.38.06-6.57-.03-.83-.03-1.02.19-1.02.95.03,2.24,0,2.23,2.24,2.2,2.02-.03,4.03,0,6.2,0Z"/>
  <path class="cls-1" d="m69.21,42.21c1.5,0,2.98-.02,4.46.04.14,0,.36.56.36.87.02,2.91-.02,5.82,0,8.73.01,2.18,1.96,3.38,3.96,2.46,1.01-.46,1.48-1.26,1.47-2.37,0-2.94,0-5.88,0-8.82,0-.24.03-.48.05-.9,1.49,0,2.94-.01,4.39.02.14,0,.39.31.39.48-.03,3.46.05,6.94-.19,10.39-.17,2.51-2.62,4.68-5.14,4.86-1.51.1-3.05.1-4.56-.03-2.67-.24-4.83-2.48-5-5.28-.17-2.75-.14-5.5-.19-8.26-.01-.65,0-1.29,0-2.17Z"/>
  <path class="cls-1" d="m89.98,75.39h8.33v3.32h-13.1v-15.49h12.98v3.27h-8.08c-.09.15-.14.2-.14.25-.13,2.32-.13,2.31,2.15,2.28,1.62-.02,3.23.03,4.85,0,.61-.01.75.23.69.78-.05.55-.07,1.12,0,1.67.06.6-.17.74-.73.73-2.05-.03-4.11,0-6.16-.03-.61-.01-.85.14-.8.77.05.77.01,1.54.01,2.44Z"/>
  <path class="cls-1" d="m103.04,99.74c-1.57,0-2.99.03-4.41-.03-.23-.01-.57-.42-.65-.7-.5-1.66-.48-1.67-2.21-1.67-1.33,0-2.67,0-4.05,0-.07.23-.14.43-.19.63q-.44,1.78-2.24,1.78c-.99,0-1.98,0-3.04,0,.05-.22.06-.4.12-.56,1.77-4.68,3.56-9.34,5.31-14.03.25-.66.53-.99,1.32-.93,1.17.09,2.36.04,3.54.02.54,0,.85.18,1.05.7,1.75,4.68,3.53,9.35,5.3,14.03.07.19.1.4.18.76Zm-8.39-11.19c-.07.01-.15.02-.22.04-.53,1.73-1.07,3.47-1.61,5.24h3.53c-.6-1.85-1.15-3.56-1.7-5.28Z"/>
  <path class="cls-1" d="m222.52,57.91h-4.88c-.22-.72-.4-1.45-.69-2.12-.11-.26-.49-.55-.76-.56-1.43-.05-2.86-.01-4.29-.03-.59,0-.87.21-1.04.8-.54,1.96-.57,1.96-2.65,1.96-.84,0-1.67,0-2.63,0,.1-.4.15-.73.26-1.03,1.75-4.62,3.53-9.23,5.26-13.86.23-.62.55-.88,1.21-.86,1.24.04,2.49,0,3.73.05.28.01.71.27.8.51,1.81,4.73,3.59,9.47,5.37,14.22.1.25.16.52.28.92Zm-6.72-5.96c-.59-1.93-1.15-3.78-1.71-5.63-.09,0-.18,0-.27.01-.54,1.84-1.08,3.69-1.64,5.61h3.62Z"/>
  <path class="cls-1" d="m178.14,46.46c-1.42.12-2.65.25-3.89.29-.26,0-.65-.3-.77-.56-.57-1.22-1.77-1.86-3.03-1.38-.47.18-.95.74-1.08,1.21-.07.26.52.9.93,1.05,1.01.37,2.1.54,3.14.83.77.22,1.54.48,2.28.78,1.81.74,2.92,2.15,2.93,4.05.01,1.96-.92,3.65-2.79,4.49-2.66,1.2-5.44,1.22-8.17.25-2.1-.75-2.89-2.55-3.35-4.75,1.61-.07,3.13-.14,4.62-.21.36,2.11,1.59,2.9,3.56,2.5.9-.18,1.49-.82,1.48-1.55,0-.52-.63-1.2-1.16-1.5-.67-.39-1.54-.45-2.3-.7-1.09-.36-2.21-.67-3.22-1.17-1.57-.78-2.43-2.11-2.31-3.91.11-1.76,1.14-3,2.71-3.58,2.62-.98,5.31-.96,7.9.17,1.52.67,2.15,2.02,2.52,3.68Z"/>
  <path class="cls-1" d="m231.38,78.78c1.29-3.37,2.52-6.57,3.73-9.77.66-1.73,1.27-3.49,1.97-5.2.12-.29.59-.61.92-.63,1.24-.07,2.49,0,3.73-.04.55-.02.82.15,1.02.69,1.57,4.26,3.17,8.51,4.77,12.77.26.69.56,1.36.88,2.15-1.61,0-3.14.04-4.67-.04-.25-.01-.58-.58-.68-.95-.43-1.56-.4-1.56-2.03-1.55-1.09.01-2.18.03-3.27.01-.5,0-.78.1-.94.65-.56,1.95-.58,1.94-2.61,1.91-.9-.01-1.8,0-2.83,0Zm6.59-6.02h3.64c-.55-1.86-1.08-3.66-1.6-5.45-.08-.02-.16-.04-.24-.06-.58,1.8-1.17,3.6-1.79,5.5Z"/>
  <path class="cls-1" d="m183.17,99.74c-1.66,0-3.17.04-4.67-.04-.22-.01-.52-.54-.6-.87-.37-1.48-.34-1.49-1.85-1.49-1.24,0-2.49.02-3.73-.01-.53-.01-.82.13-.84.7,0,.3-.15.61-.14.91,0,.52-.25.73-.73.73-1.42,0-2.85,0-4.39,0,.45-1.2.89-2.34,1.32-3.48,1.39-3.7,2.8-7.39,4.17-11.1.23-.62.54-.88,1.22-.85,1.15.05,2.3.07,3.45.02.72-.03,1.03.26,1.27.91,1.62,4.37,3.27,8.73,4.92,13.1.16.43.35.85.61,1.48Zm-8.46-11.29c-.12.01-.23.02-.35.04-.51,1.76-1.01,3.53-1.53,5.34h3.62c-.61-1.89-1.18-3.63-1.74-5.38Z"/>
  <path class="cls-1" d="m115.43,93.51c1.34.38,2.62.73,3.88,1.13.12.04.23.41.18.58-.74,2.74-2.83,4.49-5.68,4.72-.99.08-1.99.09-2.97,0-3.46-.33-5.98-2.78-6.32-6.23-.13-1.37-.19-2.8.06-4.15.57-3.2,3.33-5.46,6.67-5.57,1.23-.04,2.47.11,3.69.32,2.1.35,3.3,1.82,4.18,3.62.31.63.11.92-.53,1.04-.91.17-1.82.39-2.74.52-.22.03-.58-.16-.7-.36-.85-1.35-1.98-1.93-3.32-1.64-1.56.33-2.36,1.21-2.47,2.92-.08,1.14-.09,2.29.02,3.42.16,1.71,1.06,2.53,2.76,2.7,1.48.15,2.54-.59,3.07-2.14.08-.23.13-.47.24-.87Z"/>
  <path class="cls-1" d="m108.64,62.96c2.81-.15,5.14.9,6.62,3.55.6,1.07.52,1.21-.64,1.47-.24.05-.49.1-.72.18-1.3.47-2.27.49-3.24-.89-1.13-1.6-4.16-.89-4.83,1.01-.62,1.77-.59,3.6-.07,5.39.39,1.35,1.53,2.01,3.02,1.96,1.37-.05,2.43-.87,2.77-2.31.15-.63.37-.76.95-.58.97.31,1.96.58,2.95.85.65.17.42.55.27.93-1.45,3.49-4.1,5-8.02,4.57-4.44-.49-6.89-3.2-6.96-7.67-.03-2.01.19-3.95,1.41-5.65,1.57-2.19,3.8-2.85,6.49-2.8Z"/>
  <path class="cls-1" d="m230.21,67.68c-1.34.34-2.53.66-3.74.92-.16.03-.47-.23-.59-.42-.75-1.29-1.88-1.94-3.1-1.74-1.59.27-2.59,1.21-2.73,2.84-.11,1.28-.09,2.6.04,3.88.14,1.39,1.21,2.33,2.51,2.45,1.54.14,2.77-.55,3.27-1.9.49-1.35.45-1.14,1.73-.77.71.21,1.42.44,2.14.65.54.15.66.42.44.96-1.07,2.74-2.95,4.4-6,4.46-1.11.02-2.26.05-3.34-.16-3-.59-5.07-2.86-5.5-5.92-.31-2.2-.31-4.39.82-6.42.65-1.17,1.56-2.09,2.79-2.65,2.36-1.08,4.81-1.22,7.27-.43,2.03.65,3.26,2.15,4,4.26Z"/>
  <path class="cls-1" d="m119.25,57.95c-2.01-5.26-3.99-10.41-6.03-15.75.88,0,1.73,0,2.57,0,2.34,0,2.34,0,3.05,2.19.76,2.38,1.5,4.78,2.27,7.16.19.57.46,1.12.92,1.66,1-3.32,2.03-6.64,2.99-9.98.19-.68.46-1.01,1.18-.99,1.27.02,2.54,0,3.88,0-.02.2,0,.39-.05.55-1.78,4.75-3.58,9.48-5.34,14.24-.25.68-.57.98-1.34.94-1.36-.07-2.73-.02-4.09-.02Z"/>
  <path class="cls-1" d="m68.16,63.21h14.79c0,1.13.04,2.2-.03,3.27-.01.19-.48.5-.74.51-1.36.05-2.72.02-4.17.02v11.72h-4.87c0-.46,0-.88,0-1.3,0-3.22-.03-6.43,0-9.65,0-.74-.25-.88-.93-.84-1.11.07-2.24.06-3.35.03-.24,0-.66-.24-.67-.38-.06-1.13-.03-2.26-.03-3.38Z"/>
  <path class="cls-1" d="m155.35,63.18h4.73v11.85h7.61v3.71h-12.34v-15.56Z"/>
  <path class="cls-1" d="m184.93,84.2c1.41,0,2.9-.03,4.37.04.16,0,.42.54.43.83.02,3.31.03,6.62-.03,9.93-.01.86.3,1.03,1.08,1.01,2.19-.05,4.39-.02,6.63-.02v3.63c-.28.03-.54.07-.81.07-3.6,0-7.21,0-10.81.03-.74,0-.86-.28-.86-.92.02-3.93,0-7.85,0-11.78,0-.89,0-1.78,0-2.82Z"/>
  <path class="cls-1" d="m122.27,99.75c0-4.8,0-9.43,0-14.07,0-.22,0-.44-.02-.65-.1-.66.19-.87.84-.86,1.36.03,2.72.01,4.12.01.02.45.05.72.05.99,0,4.55-.01,9.09.02,13.64,0,.72-.16.99-.93.95-1.33-.06-2.66-.02-4.07-.02Z"/>
  <path class="cls-1" d="m106.25,57.95c0-1.23,0-2.36,0-3.5-.01-3.8-.02-7.61-.05-11.41,0-.65.22-.88.87-.86,1.12.04,2.24.05,3.36,0,.57-.02.69.24.69.72-.02,4.79-.04,9.59-.04,14.38,0,.54-.25.68-.75.67-1.27-.02-2.55,0-4.07,0Z"/>
  <path class="cls-1" d="m181.51,57.9v-15.58h4.71v15.58h-4.71Z"/>
  <path class="cls-1" d="m207.23,63.2h4.74v15.55h-4.74v-15.55Z"/>
</svg>