<svg width="256" height="142" viewBox="0 0 256 142" fill="none" xmlns="http://www.w3.org/2000/svg">
<g clip-path="url(#clip0_1035_2311)">
<path d="M42.0093 27.388C38.6464 28.1105 35.8222 26.0481 33.3394 23.7361C31.1588 21.7132 30.0554 18.8363 29.7401 15.907C29.3461 12.2683 29.924 8.73466 31.9601 5.50317C34.1276 2.0615 37.3066 0.406353 41.208 0.0648133C46.1603 -0.368679 50.2062 1.36529 52.8991 5.63453C53.4771 6.55406 53.5822 7.81513 53.753 8.94484C53.8187 9.39147 53.2538 9.40461 52.8729 9.40461C52.0584 9.40461 51.244 9.3652 50.4295 9.39147C49.1816 9.43088 48.3146 9.29951 47.7104 7.81513C46.4362 4.72814 41.2343 3.92684 38.5676 6.2782C35.7828 8.73466 35.1391 11.8873 35.7828 15.421C36.0323 16.7477 36.1637 18.0745 36.8336 19.3092C38.1735 21.7526 40.0389 22.3831 42.8237 22.2911C46.1209 22.1861 47.3688 20.2156 48.2358 17.6278C48.4329 17.0498 48.6824 16.9842 49.1291 16.9842C50.2194 16.9842 51.3097 17.063 52.3868 16.9579C53.7267 16.8265 54.1733 17.2469 53.8318 18.5999C52.9517 22.0547 51.152 24.6557 47.8549 26.3896C46.0421 27.3486 44.3081 27.3617 42.0093 27.4011V27.388Z" fill="#2659FC"/>
<path d="M208.405 61.2398C209.994 61.2398 211.452 61.2661 212.91 61.2267C213.475 61.2135 213.62 61.5551 213.856 61.9229C214.881 63.5386 216.707 64.2742 218.559 63.8276C220.24 63.4204 221.199 62.1462 221.528 60.294C221.698 59.2825 221.869 58.2973 221.777 57.2201C220.923 57.2595 220.372 57.9032 219.702 58.2579C216.694 59.8605 213.804 59.8474 211.058 57.6799C209.469 56.432 208.746 54.6586 208.273 52.7801C207.262 48.7605 208.063 45.1874 211.045 42.2187C213.436 39.8279 217.666 39.7228 220.227 41.8903C220.91 42.4683 221.62 42.9806 221.83 41.5225C221.922 40.9182 222.29 40.7737 222.841 40.708C226.611 40.2614 226.73 40.3533 226.73 44.0577C226.73 48.9312 226.769 53.8179 226.716 58.6914C226.69 61.0296 226.204 63.3022 224.221 64.8522C220.135 68.0706 212.884 68.5041 209.456 63.6437C208.943 62.9212 208.786 62.1462 208.431 61.2135L208.405 61.2398ZM221.488 50.1135C221.488 49.3122 221.541 48.7605 221.488 48.2219C221.291 46.3303 219.728 44.7145 217.6 44.3599C216.063 44.0971 214.763 44.8328 214.106 46.107C213.015 48.2219 212.963 50.5207 213.804 52.767C214.763 55.3548 217.469 56.2087 219.912 54.3302C221.357 53.2268 221.712 51.5979 221.501 50.1003L221.488 50.1135Z" fill="#2659FC"/>
<path d="M205.738 116.109C205.712 110.592 205.659 105.075 205.659 99.5579C205.659 95.3281 207.945 92.6877 211.702 91.1639C215.722 89.535 221.961 90.888 224.694 94.2772C226.322 96.3001 226.651 98.9274 226.638 101.528C226.625 105.916 226.638 110.303 226.638 114.691C226.638 115.518 226.638 116.556 225.784 116.74C224.72 116.976 223.524 116.858 222.421 116.687C222.014 116.635 222.198 115.926 222.184 115.505C222.119 113.679 222.368 111.827 222.001 110.014C221.79 109.765 221.528 109.646 221.199 109.725C218.178 109.778 215.17 109.843 212.148 109.883C209.692 109.909 209.955 109.778 210.034 111.893C210.06 112.589 210.034 113.298 210.034 113.995C210.034 116.963 208.759 117.725 205.843 116.504C205.856 116.464 205.909 116.412 205.896 116.372C205.856 116.28 205.804 116.201 205.751 116.123L205.738 116.109ZM215.945 106.559C217.521 106.546 219.084 106.494 220.661 106.559C221.764 106.599 222.185 106.192 222.211 105.062C222.263 103.013 222.158 100.977 221.909 98.9536C221.554 95.9849 219.938 94.356 217.088 94.6844C216.286 94.7763 215.459 94.7107 214.658 94.6844C212.267 94.6318 211.045 95.3937 210.375 97.6794C209.6 100.359 210.139 103.131 210.047 105.863C210.02 106.638 210.677 106.573 211.242 106.559C212.818 106.546 214.382 106.559 215.958 106.559H215.945Z" fill="#2659FC"/>
<path d="M180.937 9.70673C181.384 7.05323 180.582 4.50482 180.674 1.90386C180.714 0.708473 181.068 0.301254 182.277 0.301254C186.257 0.301254 186.257 0.261845 186.257 4.21582C186.257 11.0992 186.192 17.9825 186.31 24.879C186.336 26.5341 185.64 27.0464 184.26 27.0596C182.947 27.0596 181.554 27.2303 180.99 25.4964C180.753 24.7739 180.307 25.3913 180.044 25.6014C178.573 26.8625 176.97 27.5456 174.947 27.4405C172.018 27.2829 169.824 26.0087 168.405 23.5522C165.883 19.191 166.093 14.7379 168.563 10.4555C169.298 9.18128 170.757 8.3537 172.188 7.93335C174.921 7.11891 177.574 7.25027 179.899 9.20755C180.175 9.43087 180.346 9.85122 180.924 9.733L180.937 9.70673ZM171.886 17.2469C171.637 18.4423 172.202 19.4931 172.596 20.4915C173.279 22.2123 174.605 23.4603 176.563 23.434C178.297 23.4077 179.531 22.3043 180.254 20.7673C181.462 18.2189 181.16 15.7231 179.834 13.2798C178.691 11.1911 175.354 10.7313 173.686 12.439C172.372 13.7789 172.044 15.4735 171.886 17.2337V17.2469Z" fill="#2659FC"/>
<path d="M159.696 115.15C159.696 110.816 159.696 106.481 159.67 102.133C159.657 100.267 159.643 98.3888 158.724 96.668C158.435 96.1294 158.172 95.5514 157.555 95.4332C155.387 95.0259 153.338 93.8962 151 94.7238C148.977 95.4463 147.795 96.8387 147.781 98.9274C147.755 103.433 147.703 107.939 147.781 112.431C147.808 113.574 147.19 114.664 147.689 115.86C147.834 116.201 147.506 116.99 146.639 116.924C145.772 116.845 144.905 116.858 144.038 116.924C143.407 116.963 143.171 116.779 143.184 116.123C143.197 110.211 142.96 104.287 143.289 98.3888C143.486 95.0391 145.627 92.4513 148.911 91.2821C152.392 90.0473 155.886 90.2838 159.302 91.7945C162.77 93.3314 163.886 96.3527 164.018 99.7024C164.215 104.957 164.044 110.224 164.097 115.479C164.097 116.595 163.571 116.871 162.665 116.898C162.074 116.911 161.456 116.832 160.878 116.911C159.959 117.029 159.591 116.622 159.538 115.781C159.906 115.65 159.814 115.4 159.696 115.137V115.15Z" fill="#2659FC"/>
<path d="M94.5932 100.385C94.5932 97.732 94.6195 95.0653 94.5801 92.4118C94.5669 91.5711 94.6458 91.1639 95.6704 91.1639C98.915 91.1245 98.915 91.0719 98.915 94.3297C98.915 98.6646 98.8625 103.013 98.9675 107.348C99.0726 111.249 100.991 114.297 105.654 113.075C106.744 112.786 108.018 113.075 109.03 112.392C110.409 111.485 110.803 110.014 110.869 108.504C111.132 103.092 111.132 97.6663 110.869 92.2542C110.816 91.1508 111.447 91.1114 112.169 91.0325C112.366 91.0194 112.563 91.1508 112.774 91.1902C113.759 91.3741 115.125 90.6516 115.664 91.5054C116.136 92.2411 115.782 93.5021 115.782 94.5399C115.782 98.3888 115.795 102.238 115.782 106.1C115.769 108.556 115.309 110.934 113.969 113.049C112.353 115.597 109.936 116.99 106.981 117.213C103.618 117.462 100.281 117.449 97.5094 114.875C95.5259 113.022 94.7114 110.763 94.6063 108.215C94.5013 105.614 94.5801 103.013 94.5801 100.399L94.5932 100.385Z" fill="#2659FC"/>
<path d="M130.849 52.8852C130.849 54.9476 130.81 56.9968 130.875 59.0592C130.875 59.427 130.941 59.519 130.573 59.716C129.496 60.294 126.593 60.0444 125.976 59.0986C125.476 58.3367 125.095 58.7308 124.662 58.9541C123.361 59.5978 122.035 60.0444 120.603 60.3728C116.609 61.2923 112.603 58.0083 112.826 54.3433C112.971 52.0182 114.757 50.0872 117.109 49.5092C119.224 48.9969 121.444 49.0495 123.506 48.2744C124.478 47.9066 125.253 47.5782 125.266 46.3434C125.266 45.1218 124.714 44.5832 123.558 44.2679C121.286 43.6505 120.235 43.9264 119 45.7917C118.343 46.79 114.862 47.46 113.917 46.7638C113.47 46.4354 113.444 45.9625 113.601 45.4502C114.363 42.8886 116.925 41.0496 119.618 40.708C121.877 40.419 124.097 40.3139 126.317 40.8131C129.352 41.4962 130.731 43.3615 130.796 46.8951C130.836 48.905 130.796 50.9017 130.796 52.9115C130.81 52.9115 130.836 52.9115 130.849 52.9115V52.8852ZM125.673 52.7933C125.279 52.2809 126.159 51.0462 124.951 51.2038C123.086 51.4402 121.115 51.4534 119.407 52.4386C118.133 53.1742 117.936 55.6963 119.079 56.3794C120.695 57.3384 122.337 57.1413 123.939 56.34C125.411 55.6175 125.398 54.1331 125.673 52.7933Z" fill="#2659FC"/>
<path d="M109.056 54.0675C107.178 60.6355 99.782 62.3038 94.5538 58.7176C91.5851 56.6815 89.8774 51.8869 90.7706 48.3138C92.058 43.1907 94.4356 40.9182 99.874 40.4584C104.747 40.0381 108.426 43.7425 109.266 48.0905C109.411 48.8524 109.647 49.5223 109.963 50.2317C110.37 51.1906 109.437 51.6504 108.57 51.6767C106.784 51.7424 104.984 51.7161 103.197 51.7161C101.463 51.7161 99.7163 51.6898 97.9824 51.7029C96.3272 51.7029 95.7886 52.5305 96.4192 54.0806C97.0891 55.7357 98.7443 56.4582 100.61 56.4057C102.16 56.3663 103.211 55.7751 104.275 54.7637C105.654 53.4501 107.454 54.2645 109.096 54.0543L109.056 54.0675ZM95.9594 48.2219C98.0874 48.2219 100.189 48.2481 102.278 48.2087C102.751 48.2087 103.473 48.5765 103.657 47.8409C103.828 47.1841 103.789 46.5142 103.211 45.8968C101.871 44.4518 100.202 43.9526 98.4027 44.4124C96.6162 44.859 96.1564 46.4616 95.9463 48.2219H95.9594Z" fill="#2659FC"/>
<path d="M41.497 51.7292C39.5397 51.7292 37.5825 51.7292 35.6252 51.7292C34.7713 51.7292 34.5086 51.8475 34.7713 52.964C35.6514 56.6421 38.6728 56.6684 41.3788 56.143C41.6809 56.0904 42.0881 55.9197 42.2064 55.6832C43.2047 53.6865 45.0569 54.1463 46.7383 54.0543C47.5922 54.0149 47.7367 54.2645 47.4214 55.1052C46.318 58.1003 44.006 59.5715 41.0898 60.2415C35.1654 61.6076 29.1753 57.01 29.2673 50.4813C29.3461 44.662 33.7073 40.1957 38.8961 40.4322C44.584 40.6949 47.4214 43.7031 48.2359 49.5749C48.5249 51.6504 48.3804 51.6898 46.226 51.703C44.6497 51.7161 43.0734 51.703 41.497 51.703V51.7292ZM38.8041 48.2219C39.7762 48.2219 40.7614 48.1956 41.7335 48.2219C42.8106 48.2613 42.942 47.7227 42.5479 46.9214C41.8123 45.4502 40.6957 44.5438 38.988 44.2942C37.1358 44.0183 36.0324 45.1349 35.0735 46.3434C34.3378 47.2761 34.9684 48.2088 36.2163 48.2219C37.0833 48.2219 37.9503 48.2219 38.8173 48.2219H38.8041Z" fill="#2659FC"/>
<path d="M70.4359 18.6524C68.2422 18.7707 66.0353 18.416 63.8153 18.8758C62.8169 19.0859 62.8563 19.4537 63.0534 20.1631C64.0255 23.6048 68.2816 24.8264 70.8037 22.2517C72.1699 20.8593 73.8119 21.1483 75.3882 20.9381C76.045 20.8462 76.2158 22.2255 75.6378 23.0399C71.1715 29.2139 63.4081 28.7673 59.3753 23.2107C57.0239 19.9529 57.0896 16.104 58.8498 12.5047C60.4524 9.23383 63.211 7.63123 66.9154 7.513C69.2011 7.44732 71.2766 7.86768 73.1025 9.19443C75.0335 10.5869 75.8611 12.7412 76.2552 14.9218C77.0959 19.5588 77.0828 18.5079 73.0237 18.6656C72.1567 18.705 71.2897 18.6656 70.4228 18.6656L70.4359 18.6524ZM67.165 15.1976V15.237C68.1371 15.237 69.1091 15.2108 70.0812 15.237C71.0927 15.2633 71.316 14.8692 70.9351 13.9497C70.1732 12.0975 69.096 11.3882 66.968 11.4276C65.2077 11.467 63.8153 12.5835 63.1191 14.2781C62.7775 15.1188 63.3292 15.1451 63.7496 15.1714C64.8793 15.237 66.0222 15.1976 67.1519 15.1976H67.165Z" fill="#2659FC"/>
<path d="M199.59 7.52615C204.674 7.11893 208.641 11.2962 208.773 15.7362C208.786 16.2091 209.022 16.6689 209.062 17.1418C209.18 18.5999 208.707 18.7707 207.249 18.7181C203.557 18.5868 199.866 18.6525 196.175 18.6919C195.19 18.6919 195.308 19.4669 195.479 20.1368C196.346 23.526 200.484 24.787 203.163 22.37C204.424 21.2271 205.83 20.9644 207.393 20.8856C208.602 20.8199 208.641 21.3716 208.234 22.2518C206.776 25.3913 204.214 27.0596 200.878 27.3748C194.099 28.0185 189.751 22.7772 190.224 16.5113C190.592 11.664 193.916 7.36851 199.577 7.53928L199.59 7.52615ZM199.498 15.2765C199.498 15.2765 199.498 15.3159 199.498 15.329C200.47 15.329 201.456 15.3553 202.428 15.329C203.387 15.3027 203.807 14.9743 203.321 13.9103C202.467 12.045 201.626 11.4407 199.498 11.4407C197.554 11.4407 196.608 12.1763 195.702 14.0811C195.242 15.04 195.663 15.2502 196.425 15.2765C197.449 15.329 198.487 15.2765 199.512 15.2765H199.498Z" fill="#2659FC"/>
<path d="M151.355 17.1155C151.355 22.475 149.056 25.8773 144.695 27.3091C140.491 28.6884 134.856 26.1663 133.03 21.9102C131.401 18.1007 131.48 14.3306 134.067 10.889C135.368 9.16812 137.141 7.97273 139.309 7.65746C143.775 7.00066 148.123 7.80196 150.54 12.4127C151.368 14.0022 151.433 15.6836 151.341 17.1155H151.355ZM146.139 17.4045C146.126 16.393 146.166 15.3946 145.864 14.3963C145.391 12.8856 144.405 11.8348 142.934 11.5195C141.529 11.2174 140.084 11.2568 138.954 12.5704C137.102 14.6984 136.747 18.9151 138.35 21.3716C139.663 23.3946 141.121 23.7755 143.341 22.9085C145.956 21.8839 146.258 19.769 146.166 17.4045H146.139Z" fill="#2659FC"/>
<path d="M190.75 43.5191C193.232 39.9461 196.201 40.0118 199.472 40.8394C201.876 41.4568 203.111 43.9658 203.268 47.0922C203.452 50.547 203.479 54.0018 203.518 57.4566C203.544 59.9262 203.518 59.9262 201.101 59.9262C198.001 59.9262 198.067 59.9262 197.988 56.7998C197.896 53.6208 198.329 50.4419 197.699 47.2761C197.344 45.5158 196.661 44.7671 194.901 44.6094C193.127 44.4387 191.59 45.2925 191.223 46.8163C191.026 47.6176 190.829 48.4321 190.855 49.3253C190.934 52.3598 190.815 55.3942 190.842 58.4287C190.842 59.5584 190.461 59.9262 189.318 59.9393C185.443 59.9787 185.443 60.0181 185.469 56.1692C185.482 51.5059 185.522 46.8426 185.495 42.1793C185.495 40.8 186.021 40.4059 187.282 40.8919C187.334 40.9051 187.387 40.9576 187.426 40.9576C189.239 40.7343 190.631 41.1415 190.763 43.4929L190.75 43.5191Z" fill="#2659FC"/>
<path d="M80.8791 17.2731C80.8791 14.5671 80.9448 11.8479 80.8529 9.14187C80.8135 7.99903 81.2207 7.74944 82.219 7.8414C82.8102 7.90708 83.4276 7.93335 84.0056 7.8414C85.0827 7.65749 85.6476 8.19607 85.7395 9.12874C85.8709 10.5343 86.4489 9.96945 86.948 9.44401C89.5621 6.7511 92.6097 7.17145 95.7098 8.26175C97.1548 8.77406 97.8904 10.022 98.2057 11.4144C99.2829 16.2617 99.0333 21.2008 98.6786 26.0612C98.521 28.2155 95.9594 26.6129 94.5539 27.0333C93.5687 27.3354 93.5949 26.5341 93.5949 25.851C93.5949 23.0268 93.7263 20.2025 93.5424 17.3914C93.4373 15.8019 93.6081 14.1073 92.4652 12.6492C91.3486 11.2042 89.9037 11.8611 88.6032 11.8085C87.5654 11.7691 87.0663 12.5704 86.7773 13.5293C86.3963 14.8035 86.0811 16.0646 86.1073 17.4439C86.173 20.2025 86.1073 22.9742 86.1073 25.7459C86.1073 26.6918 85.7789 27.0727 84.7806 27.099C80.8529 27.2172 80.8529 27.2435 80.8529 23.3026C80.8529 21.2928 80.8529 19.2961 80.8529 17.2863C80.8529 17.2863 80.866 17.2863 80.8791 17.2863V17.2731Z" fill="#2659FC"/>
<path d="M157.226 53.6602C157.226 55.6175 157.187 57.2464 157.239 58.8621C157.266 59.7291 156.964 59.9262 156.123 59.9525C151.959 60.0707 151.985 60.0969 152.011 56.051C152.038 52.5305 152.011 49.0101 152.011 45.4896C152.011 44.3599 151.525 43.2958 151.657 42.153C151.775 41.2335 152.077 40.5241 153.128 40.7474C154.533 41.0496 156.228 40.3927 157.226 42.1267C157.647 42.8755 158.395 42.1924 158.737 41.864C160.839 39.9067 163.282 40.1957 165.712 40.7606C167.893 41.2729 169.548 43.5191 169.601 46.0676C169.679 50.166 170.271 54.2382 169.995 58.3498C169.916 59.5321 169.614 59.9525 168.392 59.9525C164.675 59.9525 164.714 60.005 164.661 56.2349C164.622 53.0691 164.964 49.8639 164.083 46.7638C163.624 45.148 162.441 44.4649 160.497 44.6094C158.882 44.7277 157.857 45.8705 157.528 47.3812C157.056 49.5749 157.371 51.7818 157.239 53.6471L157.226 53.6602Z" fill="#2659FC"/>
<path d="M69.1354 46.0807C69.1354 41.9954 69.1748 38.5274 69.1091 35.0595C69.096 33.9166 69.4638 33.47 70.6066 33.562C71.4211 33.6276 72.2487 33.6802 73.05 33.562C74.7314 33.3255 75.0467 34.2056 75.0335 35.6112C74.9941 41.575 75.0598 47.5257 74.9678 53.4895C74.9547 54.8294 75.3751 55.1052 76.6099 55.079C79.9727 55.0133 83.3356 55.0658 86.7115 55.0658C86.8166 55.0658 86.948 54.9607 87.0137 55.0001C88.4849 55.9459 87.4734 57.4041 87.7099 58.5994C87.815 59.1512 88.012 59.9525 86.8954 59.9393C81.1944 59.9131 75.4933 59.9131 69.7922 59.9393C68.6494 59.9393 68.7282 59.2168 68.8201 58.5469C69.4112 54.1857 68.9778 49.8114 69.1223 46.0676L69.1354 46.0807Z" fill="#2659FC"/>
<path d="M56.0124 141.988C41.891 142.461 30.3969 129.469 29.6219 117.265C28.5053 99.7155 42.7712 88.1557 56.3145 88.2214C71.4211 88.2871 83.283 100.609 83.2304 115.334C83.1648 129.929 70.8693 142.382 56.0124 141.988ZM56.6166 140.753C71.0138 141.094 81.2863 129.429 82.0876 116.99C83.1385 100.701 70.6329 90.3495 58.2587 89.5482C41.2605 88.4316 31.3953 101.712 30.7647 112.904C30.3444 120.326 32.2622 127.236 37.6218 132.805C42.7449 138.126 48.9714 140.91 56.6035 140.753H56.6166Z" fill="#2659FC"/>
<path d="M119.788 94.9996C118.435 94.0933 119.237 92.7271 119.092 91.5711C119.04 91.1114 119.526 91.2164 119.828 91.2033C126.238 90.9143 132.649 91.0851 139.059 91.0982C139.637 91.0982 140.018 91.2559 139.926 91.9258C139.913 92.0834 139.926 92.2542 139.926 92.4118C139.952 94.2071 139.094 95.1047 137.351 95.1047C135.998 95.1047 134.632 95.1836 133.279 95.0785C132.084 94.9865 131.847 95.4463 131.861 96.5497C131.9 102.684 131.874 108.819 131.861 114.94C131.861 115.663 132.123 116.753 131.138 116.845C129.956 116.95 128.642 117.318 127.526 116.504C127.158 116.241 127.302 115.82 127.302 115.453C127.302 108.727 127.315 102.001 127.329 95.2755C124.833 94.7501 122.324 95.0916 119.815 95.0128H119.788V94.9996Z" fill="#2659FC"/>
<path d="M110.58 16.7871C110.58 18.1401 110.58 19.4932 110.58 20.8593C110.58 22.659 111.04 23.1713 112.826 23.1319C113.995 23.1056 114.363 23.3946 114.205 24.6425C113.877 27.2566 113.759 27.5456 111.066 27.3486C108.754 27.1778 106.35 26.7969 105.536 24.1302C105.142 22.8297 104.958 21.4373 105.023 20.0186C105.128 17.6935 105.115 15.3684 105.128 13.0302C105.128 11.9793 104.826 11.2699 103.526 11.4144C101.503 11.6378 102.265 10.0351 102.081 9.06307C101.858 7.82827 102.646 7.82827 103.539 7.82827C105.339 7.82827 105.693 7.34224 105.325 5.54259C104.844 3.16057 105.776 1.94328 108.123 1.89074C108.61 1.89074 109.109 1.91701 109.595 1.8776C110.396 1.81192 110.632 2.17974 110.606 2.9285C110.567 4.17643 110.646 5.42436 110.58 6.67229C110.527 7.57869 110.803 7.98591 111.736 7.84141C111.946 7.81514 112.169 7.81514 112.393 7.84141C113.076 7.92023 114.389 7.85455 114.337 7.99904C113.982 8.93171 114.586 10.0483 113.93 10.797C113.352 11.467 112.458 11.6772 111.565 11.2699C110.632 10.8233 110.58 11.3882 110.58 12.0712C110.58 13.6476 110.58 15.2239 110.58 16.7871Z" fill="#2659FC"/>
<path d="M122.862 11.0203C123.742 9.87749 124.517 9.04991 125.503 8.36683C126.619 7.60494 127.92 7.64435 129.102 7.2634C129.154 7.25026 129.22 7.23713 129.26 7.2634C130.902 8.22234 129.864 9.81181 130.113 11.086C130.297 12.0055 129.719 12.1106 128.944 12.0975C127.118 12.0581 125.161 12.0055 124.202 13.976C123.269 15.8938 122.744 17.9825 123.086 20.1368C123.401 22.1335 123.02 24.1171 123.191 26.1138C123.23 26.5998 122.902 26.9545 122.402 26.9676C121.155 27.007 119.907 27.0333 118.659 27.007C117.844 27.007 117.752 26.3896 117.765 25.7459C117.792 20.1631 117.818 14.5802 117.805 9.0105C117.805 8.07784 118.186 7.7363 119.079 7.85453C119.132 7.85453 119.184 7.85453 119.237 7.85453C121.312 7.8195 122.516 8.87477 122.849 11.0203H122.862Z" fill="#2659FC"/>
<path d="M135.972 50.3105C135.972 47.5519 136.025 44.7802 135.946 42.0216C135.92 40.905 136.301 40.5766 137.338 40.708C137.929 40.7868 138.534 40.708 139.125 40.7474C140.215 40.8131 141.161 41.0495 140.911 42.5077C140.846 42.8755 140.832 43.3615 141.266 43.4797C141.739 43.6111 141.765 43.0725 142.002 42.8098C143.315 41.2991 144.918 40.3665 146.993 40.4059C147.217 40.4059 147.545 40.3271 147.624 40.4321C148.596 41.6932 147.887 43.1645 148.084 44.5306C148.202 45.3976 147.532 45.3319 147.006 45.2794C145.089 45.0823 143.394 45.6078 142.409 47.2761C141.121 49.4567 141.121 51.9263 141.253 54.3959C141.332 55.9591 141.66 57.693 141.148 59.0723C140.425 60.9902 138.402 59.5715 137.01 59.9262C136.09 60.1626 135.998 59.5058 135.998 58.7571C136.025 55.9459 135.998 53.1217 135.998 50.3105C135.998 50.3105 135.998 50.3105 135.985 50.3105H135.972Z" fill="#2659FC"/>
<path d="M175.105 50.3105C175.105 47.6045 175.131 44.8853 175.105 42.1793C175.091 40.9445 175.367 40.4716 176.72 40.9707C177.443 41.2335 178.336 41.1284 179.137 41.0364C180.201 40.9182 180.412 41.3648 180.398 42.3237C180.359 47.749 180.359 53.1742 180.398 58.5994C180.398 59.5584 180.07 59.9262 179.085 59.9656C175.105 60.1232 175.105 60.1495 175.118 56.1692C175.118 54.212 175.118 52.2678 175.118 50.3105H175.105Z" fill="#2659FC"/>
<path d="M198.342 93.8962C200.549 96.5366 199.472 100.385 197.489 101.778C196.95 102.159 196.425 102.461 196.254 103.131C195.426 104.05 194.388 104.484 193.206 104.142C192.129 103.827 191.065 103.998 190.001 103.867C188.779 103.722 187.584 104.366 186.336 103.932C185.719 103.722 185.39 104.3 185.127 104.786C184.838 105.009 184.523 105.128 184.155 105.049C183.223 104.064 182.435 103.092 182.921 101.541C183.17 100.753 182.986 99.8338 182.973 98.9799C182.973 98.7697 182.907 98.507 182.632 98.5333C182.461 98.5596 182.185 98.7172 182.159 98.8617C182.054 99.2689 181.962 99.7287 182.027 100.123C182.474 102.435 181.226 104.366 180.674 106.454C180.569 106.822 180.359 107.151 179.86 106.993C179.86 102.645 179.86 98.2837 179.86 93.9356C181.489 93.8043 183.118 94.6056 184.76 93.8305C185.167 93.6466 185.889 93.7911 185.771 94.6318C185.233 94.8946 184.182 94.3166 184.234 95.5251C184.313 97.2459 183.774 98.9142 183.88 100.648C183.932 101.581 184.3 101.896 185.141 101.883C186.664 101.87 188.214 101.712 189.725 101.857C191.827 102.067 193.574 101.541 195.058 100.07C196.044 99.6236 196.714 98.0998 196.333 97.154C195.755 95.7353 196.14 94.7939 197.489 94.3297C197.791 94.2246 198.053 94.0276 198.329 93.8831L198.342 93.8962Z" fill="#2659FC"/>
<path d="M185.114 104.799C185.377 104.313 185.705 103.722 186.323 103.945C187.571 104.379 188.753 103.735 189.988 103.88C191.052 104.011 192.129 103.84 193.193 104.156C194.375 104.497 195.413 104.064 196.241 103.144C196.451 103.223 196.674 103.302 196.884 103.394C196.687 103.604 196.608 103.867 196.845 104.037C197.2 104.287 197.37 104.011 197.489 103.709C201.679 105.574 201.64 113.417 197.489 115.177C197.344 114.73 196.937 114.77 196.582 114.638C194.586 113.903 192.615 114.756 190.632 114.691C189.436 114.651 188.635 114.349 188.32 113.154C189.673 113.141 191.039 113.141 192.392 113.101C194.362 113.049 195.833 112.129 196.122 110.789C196.976 106.875 195.623 105.141 191.577 104.983C189.41 104.891 187.242 104.865 185.075 104.812L185.114 104.799Z" fill="#2659FC"/>
<path d="M179.847 107.006C180.346 107.177 180.569 106.848 180.661 106.467C181.213 104.379 182.461 102.448 182.014 100.136C181.935 99.7287 182.041 99.282 182.146 98.8748C182.185 98.7303 182.448 98.5727 182.619 98.5464C182.881 98.5201 182.96 98.7829 182.96 98.993C182.96 99.8469 183.144 100.78 182.907 101.555C182.421 103.105 183.21 104.077 184.129 105.062C184.024 105.377 183.932 105.706 183.84 106.021C183.485 105.863 183.341 106.047 183.446 106.336C183.551 106.612 183.774 106.862 184.142 106.612C184.142 108.635 184.129 110.658 184.116 112.681C184.024 112.72 183.866 112.747 183.84 112.812C183.63 113.325 184.103 113.246 184.339 113.39C185.924 114.371 186.384 115.413 185.719 116.517C183.985 116.937 182.198 116.582 180.451 116.819C179.82 116.898 179.794 116.464 179.807 116.004C179.834 114.94 179.847 113.863 179.86 112.799C180.057 112.957 180.254 112.93 180.254 112.668C180.254 112.418 180.057 112.379 179.86 112.536C179.86 110.684 179.86 108.832 179.86 106.98L179.847 107.006Z" fill="#2659FC"/>
<path d="M185.771 94.6318C185.876 93.7911 185.167 93.6466 184.76 93.8305C183.118 94.6056 181.476 93.7911 179.86 93.9356C179.742 91.2821 179.742 91.3478 182.356 91.2427C185.902 91.0982 189.462 91.5054 193.009 90.98C194.139 90.8092 197.764 92.819 198.356 93.8831C198.08 94.0407 197.817 94.2377 197.515 94.3297C196.166 94.7938 195.781 95.7353 196.359 97.154C196.74 98.0866 196.083 99.6236 195.085 100.07C195.19 98.3756 195.544 96.6417 194.296 95.1704C194.572 94.3822 194.296 93.8437 193.469 93.8305C192.917 93.8305 191.945 93.3708 192.037 94.6318C189.948 94.6318 187.873 94.6318 185.784 94.6318H185.771Z" fill="#2659FC"/>
<path d="M57.904 52.1233C56.3933 52.1233 54.8695 52.1102 53.3589 52.1233C52.5576 52.1233 52.2292 51.8212 52.1635 50.9805C51.9139 47.5519 51.8876 47.6176 55.2899 47.5388C57.9303 47.4731 60.5312 48.1825 63.1716 47.8278C63.2635 47.8278 63.3555 47.7621 63.4343 47.7227C63.7496 48.9969 63.6182 50.3105 63.5394 51.5847C63.4868 52.5174 62.6067 52.0576 62.1075 52.0708C60.702 52.1364 59.2964 52.097 57.8908 52.097L57.904 52.1233Z" fill="#2659FC"/>
<path d="M185.719 116.53C186.384 115.426 185.924 114.384 184.339 113.403C184.103 113.259 183.63 113.338 183.84 112.825C183.866 112.76 184.024 112.733 184.116 112.694C185.456 113.561 186.967 112.733 188.346 113.128C188.661 114.323 189.449 114.625 190.658 114.664C192.641 114.743 194.612 113.876 196.608 114.612C196.963 114.743 197.37 114.704 197.515 115.15C195.755 116.412 193.745 116.766 191.643 116.701C189.673 116.635 187.676 117.108 185.719 116.517V116.53Z" fill="#2659FC"/>
<path d="M172.136 112.037C173.935 112.063 174.855 113.022 174.842 114.848C174.842 116.412 173.712 117.279 171.742 117.239C170.179 117.213 169.272 116.123 169.312 114.323C169.351 112.865 170.415 112.011 172.136 112.037Z" fill="#2659FC"/>
<path d="M177.522 37.8049C174.711 37.8049 174.238 37.1875 174.829 34.4289C174.921 34.0217 175.065 33.6276 175.459 33.6145C176.865 33.562 178.257 33.5751 179.663 33.5882C180.004 33.5882 180.044 33.9035 180.044 34.1794C180.044 34.5078 180.031 34.823 180.057 35.1514C180.215 36.9204 179.37 37.8049 177.522 37.8049Z" fill="#2659FC"/>
<path d="M199.314 136.759C198.605 136.72 197.896 136.365 197.383 137.337C197.029 138.007 196.149 137.784 195.61 137.521C194.769 137.114 195.965 136.838 195.794 136.405C195.781 136.352 195.794 136.3 195.794 136.247C195.912 135.367 195.334 133.935 196.083 133.725C197.344 133.357 198.855 133.278 200.168 134.001C200.287 134.461 200.011 134.474 199.682 134.434C199.367 134.408 199.012 134.461 198.763 134.329C198.053 133.961 197.738 134.369 197.607 134.907C197.423 135.617 197.935 135.669 198.474 135.617C199.498 135.498 199.039 136.418 199.314 136.825V136.786V136.759Z" fill="#2659FC"/>
<path d="M138.192 137.771C137.089 138.165 136.143 138.112 135.276 137.968C134.632 137.863 133.621 137.64 134.527 136.431C135.25 135.459 133.975 134.605 134.028 133.62H137.811C137.483 134.566 136.248 134.736 136.274 135.774C136.301 136.943 137.456 137.035 138.192 137.758V137.771Z" fill="#2659FC"/>
<path d="M158.369 135.866C159.341 135.17 158.895 133.909 159.867 133.239C160.497 134.053 159.867 134.789 159.748 135.472C159.551 136.523 159.748 137.114 160.931 137.114C161.351 137.114 161.929 137.048 161.719 137.732C161.574 138.218 161.154 138.073 160.799 137.863C160.248 137.548 159.643 137.692 159.052 137.679C157.358 137.626 155.886 135.052 156.767 133.633C156.845 133.515 157.029 133.383 157.161 133.397C157.568 133.423 157.502 133.751 157.423 134.001C157.134 134.934 157.752 135.38 158.369 135.853V135.866Z" fill="#2659FC"/>
<path d="M199.682 134.421C200.011 134.461 200.287 134.447 200.168 133.988C200.536 133.41 201.114 133.62 201.64 133.58C202.126 133.541 202.769 133.462 202.94 133.961C203.098 134.487 202.362 134.447 202.06 134.71C201.206 135.446 201.416 136.457 202.52 137.18C202.993 137.495 203.702 137.337 204.135 138.007C203.032 138.007 202.021 137.968 201.022 138.007C200.063 138.06 199.512 137.679 199.315 136.746L199.301 136.786C200.536 137.009 200.562 136.287 200.234 135.472C200.09 135.117 199.617 134.894 199.669 134.395L199.682 134.421Z" fill="#2659FC"/>
<path d="M147.322 133.58C149.016 133.594 150.54 135.433 150.356 136.93C150.356 137.035 150.317 137.14 150.251 137.219C150.133 137.39 146.599 137.942 146.442 137.823C145.167 137.009 144.918 135.748 145.259 134.447C145.575 133.278 146.678 133.541 147.322 133.58ZM147.243 134.067C146.336 133.896 145.824 134.723 145.837 135.551C145.837 136.378 146.507 137.154 147.492 137.127C148.478 137.101 149.161 136.681 149.134 135.472C149.108 134.277 148.412 134.119 147.243 134.08V134.067Z" fill="#2659FC"/>
<path d="M151.604 127.433C151.643 126.999 151.696 126.697 151.67 126.382C151.63 125.948 151.039 125.541 151.565 125.095C151.67 125.003 152.143 125.095 152.156 125.147C152.248 125.738 153.22 125.856 152.957 126.592C152.76 127.144 153.259 127.709 152.655 128.313C151.906 129.062 151.604 129.64 150.816 128.313C150.238 127.354 148.622 127.275 148.373 125.83C148.294 125.423 147.703 124.976 148.149 124.635C148.793 124.149 149.121 124.924 149.371 125.292C149.923 126.106 150.369 126.999 151.617 127.446L151.604 127.433Z" fill="#2659FC"/>
<path d="M171.834 135.446C171.807 137.955 171.637 138.073 169.036 137.39C168.458 137.232 167.512 137.718 167.341 136.917C167.144 135.971 167.328 134.947 167.381 133.961C167.42 133.357 167.932 133.541 168.248 133.594C168.786 133.686 168.445 133.988 168.379 134.29C168.274 134.75 168.3 135.249 168.3 135.735C168.3 136.536 168.734 137.193 169.495 137.114C170.218 137.048 171.124 136.825 170.993 135.656C170.927 135.131 170.967 134.579 170.98 134.04C170.98 133.738 170.901 133.357 171.387 133.318C171.912 133.278 171.807 133.686 171.821 133.975C171.847 134.461 171.821 134.947 171.821 135.433L171.834 135.446Z" fill="#2659FC"/>
<path d="M102.685 124.806C102.291 126.119 102.711 127.367 102.764 128.641C102.764 128.878 102.816 129.206 102.436 129.259C102.081 129.311 101.831 129.246 101.713 128.838C101.371 127.735 100.688 127.17 99.4274 127.301C98.6129 127.393 98.4816 126.723 98.5341 126.08C98.5735 125.581 98.232 124.832 98.9019 124.648C99.5456 124.477 99.8608 125.134 100.124 125.673C100.216 125.856 100.36 126.014 100.465 126.198C100.754 126.697 101.201 126.815 101.713 126.684C102.462 126.487 101.529 126.132 101.779 125.817C102.015 125.515 102.028 125.029 102.672 124.806H102.685Z" fill="#2659FC"/>
<path d="M159.446 129.403C156.596 128.668 156.425 128.457 156.583 126.461C156.609 126.053 156.675 125.712 157.003 125.489C157.384 125.226 157.686 124.648 158.225 124.897C158.684 125.108 158.461 125.673 158.448 126.067C158.422 127.288 158.33 128.497 159.446 129.416V129.403Z" fill="#2659FC"/>
<path d="M119.053 128.339C118.278 128.234 117.91 127.577 117.424 127.104C116.912 126.592 116.32 125.935 115.664 126.382C115.072 126.789 115.401 127.643 115.559 128.3C115.611 128.484 115.913 128.562 115.782 128.838C115.401 128.97 115.112 128.746 114.954 128.497C114.586 127.906 113.286 127.722 113.903 126.71C114.534 125.686 116.386 125.37 117.161 126.04C117.923 126.697 118.869 127.144 119.46 127.998C119.315 128.116 119.184 128.234 119.04 128.352L119.053 128.339Z" fill="#2659FC"/>
<path d="M194.178 137.035C192.93 136.549 191.774 136.392 190.579 137.154C191.315 136.208 192.063 135.472 191.866 134.237C191.814 133.948 192.024 133.318 192.471 133.291C192.97 133.265 193.154 133.843 193.206 134.211C193.351 135.209 193.719 136.103 194.165 137.035H194.178Z" fill="#2659FC"/>
<path d="M180.215 129.403C179.177 128.668 178.783 127.656 177.627 127.945C177.088 128.076 176.944 127.551 177.18 127.223C177.719 126.461 177.377 124.976 178.27 124.858C179.137 124.74 178.901 126.185 179.348 126.855C179.755 127.472 179.86 128.3 180.215 129.39V129.403Z" fill="#2659FC"/>
<path d="M96.8921 127.446C97.365 128.786 96.879 129.259 95.9857 129.613C94.9874 130.007 94.9085 129.009 94.7115 128.641C94.2255 127.787 93.989 126.776 93.7394 125.817C93.6081 125.318 94.1335 124.924 94.4488 124.924C94.764 124.924 94.7772 125.331 94.6721 125.791C94.5276 126.408 94.6852 127.183 94.9479 127.787C95.5259 129.114 96.209 128.549 96.8921 127.446Z" fill="#2659FC"/>
<path d="M116.373 137.482C116.623 136.943 117.227 137.075 117.621 136.93C119.237 136.339 119.552 135.814 118.803 134.356C118.632 134.04 118.225 133.659 118.593 133.397C119.026 133.108 119.683 133.081 120.13 133.344C120.55 133.594 120.261 134.014 119.985 134.277C119.683 134.566 119.67 134.92 119.644 135.301C119.486 137.521 118.711 138.034 116.386 137.469V137.482H116.373Z" fill="#2659FC"/>
<path d="M142.803 124.346C141.305 124.806 141.148 125.673 141.87 126.815C142.015 127.039 142.238 127.183 141.949 127.446C141.121 128.195 141.713 128.851 142.133 129.521C141.45 129.705 141.029 129.508 140.938 128.825C140.754 127.538 140.36 126.198 140.53 124.963C140.648 124.188 141.831 124.122 142.816 124.359L142.803 124.346Z" fill="#2659FC"/>
<path d="M196.083 128.234C195.518 127.196 196.622 125.633 194.927 124.845C196.136 124.858 197.134 125.121 197.278 126.342C197.41 127.393 197.673 128.72 195.925 128.825C195.978 128.628 196.031 128.431 196.083 128.234Z" fill="#2659FC"/>
<path d="M202.323 129.285C200.549 127.787 200.523 125.909 202.178 124.884C202.323 124.792 202.625 124.806 202.756 124.911C203.045 125.121 203.124 125.686 202.901 125.738C201.6 126.08 202.454 126.881 202.533 127.446C202.625 128.063 202.638 128.628 202.31 129.298L202.323 129.285Z" fill="#2659FC"/>
<path d="M102.212 137.048C103.132 136.037 103.184 134.973 103.46 133.975C103.565 133.607 103.723 133.16 104.169 133.291C104.603 133.423 104.879 133.922 104.642 134.329C104.248 134.986 104.183 135.446 104.879 135.945C105.142 136.129 105.115 136.72 104.761 136.681C103.972 136.615 103.276 137.114 102.225 137.048H102.212Z" fill="#2659FC"/>
<path d="M189.476 126.947C189.423 127.485 189.778 128.457 188.832 128.536C187.965 128.615 187.873 127.735 187.912 127.026C187.965 126.185 187.965 124.924 188.766 124.871C189.581 124.832 189.489 126.053 189.476 126.934V126.947Z" fill="#2659FC"/>
<path d="M99.2171 137.6C99.2171 136.247 99.2302 135.222 99.2171 134.198C99.2171 133.764 99.3747 133.475 99.7294 133.291C100.15 133.081 100.478 133.41 100.741 133.62C101.345 134.106 100.452 134.04 100.412 134.342C100.294 135.393 100.504 136.576 99.2171 137.6Z" fill="#2659FC"/>
<path d="M108.189 124.832C108.938 124.792 109.424 124.779 110.054 124.753C109.805 125.095 109.345 125.37 109.595 125.62C110.54 126.54 110.593 127.564 110.251 128.746C110.186 128.983 110.935 129.416 110.186 129.535C109.792 129.6 109.673 129.14 109.647 128.72C109.595 127.367 109.069 126.172 108.189 124.845V124.832Z" fill="#2659FC"/>
<path d="M124.452 136.234C125.2 136.628 126.015 136.904 126.856 136.97C127.801 137.048 128.773 137.075 129.141 135.787C129.693 136.602 129.154 136.93 128.787 137.272C128.156 137.837 124.504 137.705 123.926 137.101C123.742 136.904 123.69 136.615 123.992 136.418C124.189 136.484 124.373 136.51 124.452 136.247V136.234Z" fill="#2659FC"/>
<path d="M164.399 135.774C164.504 135.262 164.254 134.684 164.609 134.093C164.858 133.672 165.016 133.344 165.555 133.567C166.146 133.804 165.949 134.198 165.712 134.566C165.226 135.328 165.292 136.05 165.752 136.812C165.909 137.075 166.592 137.521 165.712 137.731C165.174 137.863 164.569 137.85 164.425 137.127C164.346 136.707 164.412 136.26 164.412 135.774H164.399Z" fill="#2659FC"/>
<path d="M208.956 126.093C209.364 127.459 208.641 128.142 207.853 128.549C207.393 128.786 207.222 127.958 207.328 127.696C207.708 126.802 207.222 125.331 208.615 125.108C209.469 124.976 208.864 125.935 208.956 126.093Z" fill="#2659FC"/>
<path d="M139.768 133.804C141.016 132.95 142.422 133.449 143.617 133.712C144.983 134.001 143.709 134.986 143.657 135.669H143.591L143.578 135.577C143.512 134.224 142.737 133.843 141.516 134.08C141.056 134.172 140.596 134.224 140.136 134.29C140.018 134.119 139.9 133.961 139.782 133.791L139.768 133.804Z" fill="#2659FC"/>
<path d="M171.032 127.512C171.006 126.92 170.98 126.342 170.954 125.751C170.94 125.344 170.98 124.989 171.545 125.095C171.991 125.173 172.596 124.989 172.543 125.764C172.491 126.566 172.596 127.354 172.845 128.116C172.136 128.221 171.663 127.604 171.019 127.525L171.032 127.512Z" fill="#2659FC"/>
<path d="M183.013 137.364C184.812 136.313 184.904 135.301 183.512 133.725C185.022 133.515 185.022 133.515 184.891 135.025C184.852 135.511 184.825 135.998 184.891 136.484C185.101 138.244 184.182 137.823 182.999 137.364H183.013Z" fill="#2659FC"/>
<path d="M133.253 133.672C132.071 134.553 133.489 136.05 132.438 137.062C132.176 137.311 132.044 137.784 131.65 137.626C131.374 137.508 131.427 137.088 131.624 136.786C132.031 136.195 131.795 135.525 131.768 134.894C131.729 133.843 131.9 133.16 133.253 133.672Z" fill="#2659FC"/>
<path d="M176.011 134.395C174.96 134.277 174.119 134.539 173.712 135.603C173.463 135.236 173.134 134.92 173.003 134.539C172.871 134.158 172.753 133.62 173.134 133.331C173.41 133.121 173.922 133.121 174.172 133.462C174.645 134.119 175.197 133.751 175.735 133.659C175.945 133.856 176.169 134.053 176.024 134.395H176.011Z" fill="#2659FC"/>
<path d="M171.032 127.512C171.676 127.59 172.149 128.208 172.858 128.103C173.423 128.234 173.673 128.943 174.605 128.694C174.054 129.337 173.633 129.39 173.318 129.075C172.727 128.484 172.162 128.497 171.453 128.838C170.77 129.154 169.982 128.733 169.863 128.208C169.706 127.512 170.704 127.866 171.046 127.512H171.032Z" fill="#2659FC"/>
<path d="M211.794 128.97C211.242 129.272 210.598 129.416 210.191 128.891C209.745 128.326 210.585 128.168 210.743 127.774C210.914 127.341 211.071 126.868 211.084 126.408C211.098 125.909 211.36 125.607 211.794 124.897C211.794 126.29 211.505 127.315 211.741 128.313C211.61 128.536 211.662 128.76 211.794 128.97Z" fill="#2659FC"/>
<path d="M143.578 135.59V135.682H143.657C143.998 137.758 143.854 137.85 141.029 137.613C141.266 137.39 141.187 137.14 141.056 136.904C141.988 136.654 142.553 135.695 143.565 135.603L143.578 135.59Z" fill="#2659FC"/>
<path d="M109.069 133.541C107.703 134.185 107.322 135.314 107.388 136.195C107.519 138.296 106.376 137.206 105.562 137.114C107.559 136.746 106.1 133.41 109.069 133.541Z" fill="#2659FC"/>
<path d="M164.491 125.239C166.356 126.934 166.435 127.525 165.2 128.668C164.924 128.917 164.609 129.062 164.32 128.917C163.847 128.681 164.189 128.405 164.399 128.168C165.147 127.301 164.359 126.356 164.491 125.239Z" fill="#2659FC"/>
<path d="M130.954 129.232C131.466 128.707 132.057 129.088 132.701 128.773C133.555 128.365 134.277 128.142 134.107 127.012C134.041 126.54 134.238 126.053 134.764 126.145C135.25 126.224 134.974 126.776 134.987 127.118C135.039 128.681 133.87 128.983 132.714 129.219C132.149 129.338 131.545 129.246 130.954 129.246V129.232Z" fill="#2659FC"/>
<path d="M131.309 127.853C130.941 126.789 130.402 125.673 131.361 124.753C132.189 123.965 132.872 124.806 133.752 124.937C133.016 125.712 131.9 124.898 131.532 125.554C131.191 126.172 131.361 127.065 131.296 127.84L131.309 127.853Z" fill="#2659FC"/>
<path d="M105.89 125.541C106.915 126.303 107.467 127.288 107.283 128.602C107.243 128.838 107.348 129.18 106.941 129.206C106.613 129.232 106.481 129.049 106.389 128.746C106.14 127.879 105.864 127.012 105.601 126.145C105.693 125.948 105.798 125.738 105.89 125.541Z" fill="#2659FC"/>
<path d="M192.878 124.819C192.471 126.277 191.288 127.249 192.405 128.457C192.589 128.654 192.326 128.93 191.998 128.943C191.538 128.97 190.934 128.891 190.999 128.418C191.183 127.196 191.183 125.817 192.878 124.832V124.819Z" fill="#2659FC"/>
<path d="M129.838 127.866C128.668 127.774 127.329 126.106 127.565 125.147C127.631 124.911 127.749 124.674 127.946 124.792C128.248 124.976 128.826 125.003 128.774 125.436C128.629 126.461 129.496 127.026 129.838 127.853V127.866Z" fill="#2659FC"/>
<path d="M206.211 129.022C205.436 128.838 204.766 129.246 204.569 128.471C204.372 127.669 203.085 126.737 204.07 126.145C204.819 125.699 204.884 127.236 205.436 127.761C205.725 128.05 205.883 128.471 206.211 129.022Z" fill="#2659FC"/>
<path d="M154.468 136.93C154.179 136.26 154.494 135.735 155.006 135.065C155.295 136.089 156.386 136.851 155.505 137.85C155.033 138.388 154.77 137.574 154.481 137.245C154.52 137.219 154.586 137.167 154.573 137.154C154.547 137.075 154.507 136.996 154.468 136.93Z" fill="#2659FC"/>
<path d="M120.55 127.669C119.736 127.065 120.248 126.185 120.117 125.449C120.051 125.068 120.432 125.121 120.682 125.121C121.102 125.121 121.26 125.41 121.194 125.751C121.089 126.421 121.246 127.144 120.905 127.774C120.787 127.735 120.668 127.709 120.55 127.669Z" fill="#2659FC"/>
<path d="M120.55 127.669C120.668 127.709 120.787 127.735 120.905 127.774C121.207 128.103 121.641 128.589 121.01 128.786C120.379 128.996 119.447 129.508 119.04 128.339C119.184 128.221 119.315 128.103 119.46 127.984C119.815 127.879 120.182 127.774 120.537 127.669H120.55Z" fill="#2659FC"/>
<path d="M114.061 136.996C114.192 136.011 113.444 135.196 113.562 134.237C113.601 133.909 113.588 133.567 114.074 133.607C114.468 133.633 114.468 133.948 114.442 134.185C114.311 135.117 114.639 136.089 114.061 136.996Z" fill="#2659FC"/>
<path d="M139.768 133.804C139.887 133.975 140.005 134.132 140.123 134.303C139.808 135.301 139.611 136.3 140.399 137.193C140.386 137.232 140.36 137.259 140.36 137.298C140.36 137.364 140.386 137.429 140.399 137.495C140.097 137.64 139.755 137.692 139.506 137.469C139.059 137.062 139.282 134.356 139.755 133.804H139.768Z" fill="#2659FC"/>
<path d="M162.56 125.134C161.955 126.277 161.272 127.117 162.06 128.182C162.166 128.313 161.968 128.668 161.916 128.917C161.732 128.825 161.496 128.786 161.377 128.641C160.734 127.879 161.338 125.738 162.56 125.134Z" fill="#2659FC"/>
<path d="M109.647 133.318C111.302 133.397 111.657 134.198 111.434 136.996C110.357 135.998 111.21 134.198 109.647 133.318Z" fill="#2659FC"/>
<path d="M125.292 125.633C126.54 126.303 126.803 127.459 126.816 128.746C125.936 127.879 125.2 126.934 125.319 125.581L125.292 125.633Z" fill="#2659FC"/>
<path d="M176.011 134.395C176.169 134.053 175.945 133.856 175.722 133.659C176.234 133.397 176.655 133.672 177.088 133.869C177.601 134.106 178.704 133.869 178.323 134.842C178.073 135.485 177.22 135.144 176.655 134.828C176.431 134.697 176.221 134.539 175.998 134.395H176.011Z" fill="#2659FC"/>
<path d="M116.373 137.482C116.373 137.482 116.373 137.456 116.373 137.469C116.307 137.311 116.215 137.298 116.11 137.429C115.769 136.457 115.887 135.446 115.808 134.461C115.756 133.791 116.071 133.436 116.82 133.646C116.084 134.855 116.439 136.195 116.36 137.469L116.373 137.482Z" fill="#2659FC"/>
<path d="M187.348 138.06C186.94 137.994 186.481 137.666 186.651 137.39C186.94 136.917 187.072 136.168 187.873 136.129C188.372 136.103 188.49 136.287 188.53 136.759C188.595 137.666 187.781 137.653 187.348 138.06Z" fill="#2659FC"/>
<path d="M185.377 127.104C185.758 127.893 187.045 128.287 186.402 129.6C185.509 129.049 184.642 128.523 184.825 127.249C185.049 127.328 185.246 127.341 185.39 127.104H185.377Z" fill="#2659FC"/>
<path d="M204.911 135.117C204.411 135.025 203.965 134.461 204.004 134.303C204.201 133.594 204.963 133.502 205.554 133.252C205.712 133.186 206.132 133.305 206.04 133.475C205.725 134.04 205.58 134.763 204.911 135.104V135.117Z" fill="#2659FC"/>
<path d="M124.452 136.234C124.373 136.497 124.189 136.47 123.992 136.405C123.427 136.457 122.967 136.221 122.547 135.84C123.598 135.244 124.237 135.371 124.465 136.221L124.452 136.234Z" fill="#2659FC"/>
<path d="M144.432 126.25C144.458 126.093 144.432 125.988 144.484 125.922C144.931 125.2 145.378 124.359 146.231 124.162C146.849 124.017 146.809 124.595 146.402 124.832C145.916 125.108 145.483 125.41 145.154 125.83C144.983 126.04 144.905 126.316 144.419 126.25H144.432Z" fill="#2659FC"/>
<path d="M152.129 135.643C151.473 135.117 150.803 134.592 150.133 134.053C151.841 132.819 151.788 134.75 152.497 135.275C152.379 135.393 152.248 135.525 152.129 135.643Z" fill="#2659FC"/>
<path d="M146.494 129.548C145.286 129.416 144.826 128.523 144.13 127.971C143.893 127.787 144.09 127.695 144.169 127.617C144.274 127.498 144.405 127.446 144.55 127.617C145.062 128.313 146.047 128.523 146.507 129.535L146.494 129.548Z" fill="#2659FC"/>
<path d="M200.589 128.825C199.66 129.438 198.907 129.438 198.329 128.825H200.589Z" fill="#2659FC"/>
<path d="M137.575 124.845C137.496 124.53 137.575 124.28 137.942 124.385C138.389 124.503 138.665 124.806 138.665 125.318C138.652 126.329 138.665 127.341 138.56 128.365C138.192 127.183 138.639 125.817 137.588 124.845H137.575Z" fill="#2659FC"/>
<path d="M105.89 125.541C105.798 125.738 105.693 125.948 105.601 126.145C104.813 126.106 104.8 125.265 103.959 124.937C104.984 124.74 105.615 124.661 105.89 125.541Z" fill="#2659FC"/>
<path d="M211.794 128.97C211.662 128.76 211.61 128.536 211.741 128.313C212.385 128.654 213.016 128.983 213.869 129.429C212.937 129.521 212.293 129.548 211.781 128.97H211.794Z" fill="#2659FC"/>
<path d="M125.319 125.581C124.268 125.856 123.545 124.727 122.534 124.884C123.742 123.978 124.491 124.897 125.292 125.633L125.319 125.581Z" fill="#2659FC"/>
<path d="M179.545 137.745C178.691 137.403 178.599 136.759 178.783 136.024C178.809 135.932 179.085 135.814 179.15 135.853C179.873 136.326 179.873 136.956 179.545 137.745Z" fill="#2659FC"/>
<path d="M187.689 134.027C187.413 134.369 187.269 134.92 186.638 134.776C186.402 134.723 186.257 134.553 186.336 134.316C186.494 133.764 187.019 133.475 187.466 133.344C187.886 133.213 187.807 133.699 187.728 134.001L187.676 133.975V134.027H187.689Z" fill="#2659FC"/>
<path d="M196.083 128.234C196.03 128.431 195.978 128.628 195.925 128.825C195.452 129.548 194.743 128.957 194.178 129.167C194.664 128.983 195.413 129.324 195.505 128.418C195.544 128.076 195.715 127.748 196.083 128.247V128.234Z" fill="#2659FC"/>
<path d="M152.471 136.97C152.432 136.562 152.379 136.155 152.34 135.748L152.458 135.774L152.537 135.682C153.062 136.103 153.575 136.523 154.1 136.943C153.68 137.062 153.272 137.193 152.852 137.311C152.747 137.206 152.629 137.088 152.524 136.983L152.537 136.917L152.484 136.97H152.471Z" fill="#2659FC"/>
<path d="M181.515 135.669C181.66 136.365 181.699 137.114 182.842 137.351C180.687 137.705 181.016 136.746 181.528 135.669V135.787V135.682L181.515 135.669Z" fill="#2659FC"/>
<path d="M183.472 127.446C183.407 127.301 183.341 127.157 183.275 127.012C183.078 126.592 182.645 126.093 183.249 125.778C183.591 125.594 183.801 126.08 183.998 126.421C184.379 127.104 184.208 127.393 183.472 127.446Z" fill="#2659FC"/>
<path d="M152.839 137.298C153.259 137.18 153.667 137.048 154.087 136.93C154.218 136.93 154.336 136.93 154.468 136.93C154.507 137.009 154.547 137.075 154.573 137.154C154.573 137.18 154.507 137.219 154.481 137.245C153.929 137.14 153.417 138.073 152.852 137.285L152.839 137.298Z" fill="#2659FC"/>
<path d="M155.834 124.924C155.361 125.16 154.822 124.871 154.363 125.173C154.801 124.657 155.291 124.573 155.834 124.924Z" fill="#2659FC"/>
<path d="M140.399 137.495C140.399 137.495 140.36 137.364 140.36 137.298C140.36 137.259 140.386 137.232 140.399 137.193C140.596 137.035 140.714 136.733 141.056 136.891C141.187 137.14 141.253 137.377 141.029 137.6C140.793 137.705 140.57 137.732 140.399 137.482V137.495Z" fill="#2659FC"/>
<path d="M197.515 103.696C197.397 103.998 197.213 104.274 196.871 104.024C196.635 103.853 196.714 103.591 196.911 103.381C197.2 103.315 197.37 103.499 197.528 103.696H197.515Z" fill="#2659FC"/>
<path d="M163.913 124.543C163.834 124.792 163.597 124.74 163.427 124.727C163.203 124.714 162.849 124.806 162.888 124.398C162.914 124.162 163.111 124.07 163.335 124.083C163.637 124.083 163.768 124.306 163.899 124.556L163.913 124.543Z" fill="#2659FC"/>
<path d="M221.16 109.725C221.488 109.66 221.751 109.765 221.961 110.014C221.79 110.29 221.528 110.29 221.265 110.211C220.95 110.119 221.042 109.922 221.16 109.725Z" fill="#2659FC"/>
<path d="M185.508 126.513C184.983 126.014 185.114 125.646 185.508 125.003V126.513Z" fill="#2659FC"/>
<path d="M159.696 115.15C159.814 115.4 159.906 115.65 159.538 115.794C159.184 115.82 159.289 115.558 159.289 115.387C159.289 115.124 159.446 115.032 159.696 115.15Z" fill="#2659FC"/>
<path d="M205.738 116.109C205.791 116.188 205.843 116.28 205.883 116.359C205.883 116.398 205.856 116.451 205.83 116.49C205.502 116.779 205.37 116.412 205.344 116.254C205.318 115.952 205.541 115.991 205.738 116.096V116.109Z" fill="#2659FC"/>
<path d="M183.472 127.446H183.459C183.499 127.787 183.538 128.142 183.577 128.484C183.551 128.484 183.512 128.484 183.485 128.484V127.459L183.472 127.446Z" fill="#2659FC"/>
<path d="M181.515 135.669V135.774V135.656C181.476 135.354 181.449 135.065 181.41 134.763H181.555C181.541 135.052 181.515 135.354 181.502 135.656L181.515 135.669Z" fill="#2659FC"/>
<path d="M179.86 112.563C180.057 112.405 180.254 112.431 180.254 112.694C180.254 112.944 180.057 112.983 179.86 112.825C179.768 112.747 179.768 112.655 179.86 112.576V112.563Z" fill="#2659FC"/>
<path d="M185.377 127.104C185.246 127.341 185.035 127.328 184.812 127.249C184.72 127.249 184.589 127.315 184.536 127.275C184.326 127.091 184.536 127.078 184.655 127.078C184.891 127.078 185.141 127.091 185.377 127.104Z" fill="#2659FC"/>
<path d="M152.524 135.682L152.445 135.774L152.327 135.748C152.208 135.827 152.116 135.827 152.116 135.656C152.235 135.538 152.366 135.406 152.484 135.288C152.524 135.38 152.563 135.472 152.576 135.564C152.576 135.603 152.537 135.656 152.51 135.695L152.524 135.682Z" fill="#2659FC"/>
<path d="M187.689 134.027L187.676 133.975L187.728 134.001L187.689 134.027Z" fill="#2659FC"/>
<path d="M152.471 136.97L152.537 136.904L152.51 136.97H152.471Z" fill="#2659FC"/>
<path d="M116.123 137.429L116.084 137.469L116.11 137.429H116.123Z" fill="#2659FC"/>
<path d="M183.853 106.021C184.024 106.192 184.366 106.27 184.155 106.625C183.788 106.875 183.564 106.625 183.459 106.336C183.354 106.034 183.499 105.85 183.853 106.021Z" fill="#2659FC"/>
<path d="M194.283 95.1836C193.535 94.9997 192.773 94.8289 192.024 94.645C191.932 93.3839 192.904 93.8305 193.456 93.8437C194.283 93.8568 194.559 94.3954 194.283 95.1836Z" fill="#2659FC"/>
<path d="M33.9043 115.059C33.1293 104.208 43.4149 91.1376 58.4558 92.5038C69.2931 93.489 79.0401 102.146 79.1452 114.967C79.2503 127.774 69.1092 138.336 55.1849 138.007C44.1111 137.745 33.3789 127.485 33.9043 115.059ZM56.3015 136.773C67.6511 137.009 78.7643 127.196 77.9629 114.126C77.2536 102.737 68.8071 93.5416 56.2358 93.581C43.717 93.6072 34.9421 102.737 34.7582 114.901C34.5743 126.329 43.2047 136.641 56.3015 136.773Z" fill="#2659FC"/>
<path d="M59.6118 117.239C61.3326 118.329 63.0271 119.341 64.4458 120.812C66.1404 122.572 67.0205 124.674 67.4672 126.986C67.5985 127.656 67.3621 128.392 66.3506 128.326C65.812 128.287 65.2603 128.273 64.7217 128.326C63.4606 128.457 62.8301 128.142 62.9221 126.658C63.0271 124.976 60.6232 122.178 59.0206 121.824C58.3901 121.679 58.0091 121.824 58.0354 122.612C58.088 124.122 57.996 125.646 58.0748 127.17C58.1142 128.09 57.8252 128.457 56.8926 128.326C56.5248 128.273 56.1307 128.273 55.7497 128.326C54.7776 128.457 54.3704 128.129 54.4361 127.091C54.5149 125.738 54.4755 124.385 54.4361 123.032C54.4361 122.638 54.6726 122.113 54.1865 121.863C53.6479 121.6 53.0831 121.863 52.689 122.191C51.244 123.387 49.8647 124.648 49.5363 126.671C49.4444 127.236 49.4969 128.142 48.8007 128.26C47.7498 128.431 46.6332 128.379 45.5561 128.26C45.1226 128.208 45.3459 127.617 45.3196 127.249C45.0569 123.689 48.4986 119.591 51.3097 118.264C51.7301 118.067 52.1636 117.948 52.6102 117.41C50.8894 117.095 49.2999 117.292 47.7235 117.265C45.3065 117.226 45.3722 117.265 45.2802 114.927C45.2408 113.719 45.4904 113.219 46.8303 113.311C48.7876 113.443 50.758 113.351 52.781 113.167C49.6546 111.866 47.4608 109.712 46.0421 106.743C45.8845 106.415 45.7794 106.06 45.6349 105.719C45.2277 104.76 44.8861 103.354 45.4904 102.855C46.3311 102.146 47.7761 102.592 48.9452 102.658C49.5495 102.684 49.5232 103.328 49.5757 103.814C49.8253 106.205 51.3491 107.663 53.3195 108.766C54.1603 109.239 54.4624 108.885 54.4492 108.004C54.423 106.546 54.4755 105.075 54.4361 103.617C54.4098 102.881 54.5543 102.487 55.3951 102.605C55.8811 102.671 56.3803 102.658 56.8532 102.605C57.7464 102.5 58.1011 102.789 58.0485 103.748C57.9697 105.154 58.0486 106.573 58.0223 107.978C57.996 109.055 58.4164 109.2 59.2571 108.661C61.1749 107.44 62.9615 106.126 62.9221 103.525C62.9221 103 63.1848 102.671 63.6708 102.658C64.7611 102.619 65.8514 102.592 66.9286 102.658C67.835 102.711 67.4672 103.367 67.3752 103.853C66.6002 107.939 64.4196 110.921 60.5576 112.615C60.3736 112.694 60.216 112.825 60.0584 112.944C60.0321 112.97 60.0584 113.036 60.019 113.377C62.0419 113.377 64.0649 113.443 66.0747 113.351C67.1782 113.298 67.7036 113.548 67.5066 114.743C67.4409 115.111 67.4409 115.505 67.5066 115.873C67.6905 117.003 67.2832 117.357 66.1141 117.305C63.9467 117.2 61.7661 117.279 59.5986 117.279L59.6118 117.239Z" fill="#2659FC"/>
</g>
<defs>
<clipPath id="clip0_1035_2311">
<rect width="256" height="142" fill="white"/>
</clipPath>
</defs>
</svg>
