<?xml version="1.0" encoding="UTF-8"?>
<svg id="Belog" xmlns="http://www.w3.org/2000/svg" viewBox="0 0 256 142">
  <defs>
    <style>
      .cls-1 {
        fill: #2659fc;
      }
    </style>
  </defs>
  <path class="cls-1" d="m62.54,37.8c-2.56.55-4.71-1.02-6.6-2.78-1.66-1.54-2.5-3.73-2.74-5.96-.3-2.77.14-5.46,1.69-7.92,1.65-2.62,4.07-3.88,7.04-4.14,3.77-.33,6.85.99,8.9,4.24.44.7.52,1.66.65,2.52.05.34-.38.35-.67.35-.62,0-1.24-.03-1.86-.01-.95.03-1.61-.07-2.07-1.2-.97-2.35-4.93-2.96-6.96-1.17-2.12,1.87-2.61,4.27-2.12,6.96.19,1.01.29,2.02.8,2.96,1.02,1.86,2.44,2.34,4.56,2.27,2.51-.08,3.46-1.58,4.12-3.55.15-.44.34-.49.68-.49.83,0,1.66.06,2.48-.02,1.02-.1,1.36.22,1.1,1.25-.67,2.63-2.04,4.61-4.55,5.93-1.38.73-2.7.74-4.45.77Z"/>
  <path class="cls-1" d="m189.21,63.57c1.21,0,2.32.02,3.43-.01.43-.01.54.25.72.53.78,1.23,2.17,1.79,3.58,1.45,1.28-.31,2.01-1.28,2.26-2.69.13-.77.26-1.52.19-2.34-.65.03-1.07.52-1.58.79-2.29,1.22-4.49,1.21-6.58-.44-1.21-.95-1.76-2.3-2.12-3.73-.77-3.06-.16-5.78,2.11-8.04,1.82-1.82,5.04-1.9,6.99-.25.52.44,1.06.83,1.22-.28.07-.46.35-.57.77-.62,2.87-.34,2.96-.27,2.96,2.55,0,3.71.03,7.43-.01,11.14-.02,1.78-.39,3.51-1.9,4.69-3.11,2.45-8.63,2.78-11.24-.92-.39-.55-.51-1.14-.78-1.85Zm9.96-8.47c0-.61.04-1.03,0-1.44-.15-1.44-1.34-2.67-2.96-2.94-1.17-.2-2.16.36-2.66,1.33-.83,1.61-.87,3.36-.23,5.07.73,1.97,2.79,2.62,4.65,1.19,1.1-.84,1.37-2.08,1.21-3.22Z"/>
  <path class="cls-1" d="m187.18,105.34c-.02-4.2-.06-8.4-.06-12.6,0-3.22,1.74-5.23,4.6-6.39,3.06-1.24,7.81-.21,9.89,2.37,1.24,1.54,1.49,3.54,1.48,5.52-.01,3.34,0,6.68,0,10.02,0,.63,0,1.42-.65,1.56-.81.18-1.72.09-2.56-.04-.31-.04-.17-.58-.18-.9-.05-1.39.14-2.8-.14-4.18-.16-.19-.36-.28-.61-.22-2.3.04-4.59.09-6.89.12-1.87.02-1.67-.08-1.61,1.53.02.53,0,1.07,0,1.6,0,2.26-.97,2.84-3.19,1.91.01-.03.05-.07.04-.1-.03-.07-.07-.13-.11-.19Zm7.77-7.27h0c1.2-.01,2.39-.05,3.59,0,.84.03,1.16-.28,1.18-1.14.04-1.56-.04-3.11-.23-4.65-.27-2.26-1.5-3.5-3.67-3.25-.61.07-1.24.02-1.85,0-1.82-.04-2.75.54-3.26,2.28-.59,2.04-.18,4.15-.25,6.23-.02.59.48.54.91.53,1.2-.01,2.39,0,3.59,0Z"/>
  <path class="cls-1" d="m168.3,24.34c.34-2.02-.27-3.96-.2-5.94.03-.91.3-1.22,1.22-1.22,3.03,0,3.03-.03,3.03,2.98,0,5.24-.05,10.48.04,15.73.02,1.26-.51,1.65-1.56,1.66-1,0-2.06.13-2.49-1.19-.18-.55-.52-.08-.72.08-1.12.96-2.34,1.48-3.88,1.4-2.23-.12-3.9-1.09-4.98-2.96-1.92-3.32-1.76-6.71.12-9.97.56-.97,1.67-1.6,2.76-1.92,2.08-.62,4.1-.52,5.87.97.21.17.34.49.78.4Zm-6.89,5.74c-.19.91.24,1.71.54,2.47.52,1.31,1.53,2.26,3.02,2.24,1.32-.02,2.26-.86,2.81-2.03.92-1.94.69-3.84-.32-5.7-.87-1.59-3.41-1.94-4.68-.64-1,1.02-1.25,2.31-1.37,3.65Z"/>
  <path class="cls-1" d="m152.13,104.61c0-3.3,0-6.6-.02-9.91-.01-1.42-.02-2.85-.72-4.16-.22-.41-.42-.85-.89-.94-1.65-.31-3.21-1.17-4.99-.54-1.54.55-2.44,1.61-2.45,3.2-.02,3.43-.06,6.86,0,10.28.02.87-.45,1.7-.07,2.61.11.26-.14.86-.8.81-.66-.06-1.32-.05-1.98,0-.48.03-.66-.11-.65-.61.01-4.5-.17-9.01.08-13.5.15-2.55,1.78-4.52,4.28-5.41,2.65-.94,5.31-.76,7.91.39,2.64,1.17,3.49,3.47,3.59,6.02.15,4,.02,8.01.06,12.01,0,.85-.4,1.06-1.09,1.08-.45.01-.92-.05-1.36.01-.7.09-.98-.22-1.02-.86.28-.1.21-.29.12-.49Z"/>
  <path class="cls-1" d="m102.57,93.37c0-2.02.02-4.05-.01-6.07-.01-.64.05-.95.83-.95,2.47-.03,2.47-.07,2.47,2.41,0,3.3-.04,6.61.04,9.91.08,2.97,1.54,5.29,5.09,4.36.83-.22,1.8,0,2.57-.52,1.05-.69,1.35-1.81,1.4-2.96.2-4.12.2-8.25,0-12.37-.04-.84.44-.87.99-.93.15-.01.3.09.46.12.75.14,1.79-.41,2.2.24.36.56.09,1.52.09,2.31,0,2.93.01,5.86,0,8.8-.01,1.87-.36,3.68-1.38,5.29-1.23,1.94-3.07,3-5.32,3.17-2.56.19-5.1.18-7.21-1.78-1.51-1.41-2.13-3.13-2.21-5.07-.08-1.98-.02-3.96-.02-5.95Z"/>
  <path class="cls-1" d="m130.17,57.21c0,1.57-.03,3.13.02,4.7,0,.28.05.35-.23.5-.82.44-3.03.25-3.5-.47-.38-.58-.67-.28-1-.11-.99.49-2,.83-3.09,1.08-3.04.7-6.09-1.8-5.92-4.59.11-1.77,1.47-3.24,3.26-3.68,1.61-.39,3.3-.35,4.87-.94.74-.28,1.33-.53,1.34-1.47,0-.93-.42-1.34-1.3-1.58-1.73-.47-2.53-.26-3.47,1.16-.5.76-3.15,1.27-3.87.74-.34-.25-.36-.61-.24-1,.58-1.95,2.53-3.35,4.58-3.61,1.72-.22,3.41-.3,5.1.08,2.31.52,3.36,1.94,3.41,4.63.03,1.53,0,3.05,0,4.58.01,0,.03,0,.04,0Zm-3.94-.07c-.3-.39.37-1.33-.55-1.21-1.42.18-2.92.19-4.22.94-.97.56-1.12,2.48-.25,3,1.23.73,2.48.58,3.7-.03,1.12-.55,1.11-1.68,1.32-2.7Z"/>
  <path class="cls-1" d="m113.58,58.11c-1.43,5-7.06,6.27-11.04,3.54-2.26-1.55-3.56-5.2-2.88-7.92.98-3.9,2.79-5.63,6.93-5.98,3.71-.32,6.51,2.5,7.15,5.81.11.58.29,1.09.53,1.63.31.73-.4,1.08-1.06,1.1-1.36.05-2.73.03-4.09.03-1.32,0-2.65-.02-3.97-.01-1.26,0-1.67.63-1.19,1.81.51,1.26,1.77,1.81,3.19,1.77,1.18-.03,1.98-.48,2.79-1.25,1.05-1,2.42-.38,3.67-.54Zm-9.97-4.45c1.62,0,3.22.02,4.81-.01.36,0,.91.28,1.05-.28.13-.5.1-1.01-.34-1.48-1.02-1.1-2.29-1.48-3.66-1.13-1.36.34-1.71,1.56-1.87,2.9Z"/>
  <path class="cls-1" d="m62.15,56.33c-1.49,0-2.98,0-4.47,0-.65,0-.85.09-.65.94.67,2.8,2.97,2.82,5.03,2.42.23-.04.54-.17.63-.35.76-1.52,2.17-1.17,3.45-1.24.65-.03.76.16.52.8-.84,2.28-2.6,3.4-4.82,3.91-4.51,1.04-9.07-2.46-9-7.43.06-4.43,3.38-7.83,7.33-7.65,4.33.2,6.49,2.49,7.11,6.96.22,1.58.11,1.61-1.53,1.62-1.2.01-2.4,0-3.6,0,0,0,0,0,0,0Zm-2.05-2.67c.74,0,1.49-.02,2.23,0,.82.03.92-.38.62-.99-.56-1.12-1.41-1.81-2.71-2-1.41-.21-2.25.64-2.98,1.56-.56.71-.08,1.42.87,1.43.66,0,1.32,0,1.98,0Z"/>
  <path class="cls-1" d="m84.18,31.15c-1.67.09-3.35-.18-5.04.17-.76.16-.73.44-.58.98.74,2.62,3.98,3.55,5.9,1.59,1.04-1.06,2.29-.84,3.49-1,.5-.07.63.98.19,1.6-3.4,4.7-9.31,4.36-12.38.13-1.79-2.48-1.74-5.41-.4-8.15,1.22-2.49,3.32-3.71,6.14-3.8,1.74-.05,3.32.27,4.71,1.28,1.47,1.06,2.1,2.7,2.4,4.36.64,3.53.63,2.73-2.46,2.85-.66.03-1.32,0-1.98,0Zm-2.49-2.63v.03c.74,0,1.48-.02,2.22,0,.77.02.94-.28.65-.98-.58-1.41-1.4-1.95-3.02-1.92-1.34.03-2.4.88-2.93,2.17-.26.64.16.66.48.68.86.05,1.73.02,2.59.02Z"/>
  <path class="cls-1" d="m182.5,22.68c3.87-.31,6.89,2.87,6.99,6.25.01.36.19.71.22,1.07.09,1.11-.27,1.24-1.38,1.2-2.81-.1-5.62-.05-8.43-.02-.75,0-.66.59-.53,1.1.66,2.58,3.81,3.54,5.85,1.7.96-.87,2.03-1.07,3.22-1.13.92-.05.95.37.64,1.04-1.11,2.39-3.06,3.66-5.6,3.9-5.16.49-8.47-3.5-8.11-8.27.28-3.69,2.81-6.96,7.12-6.83Zm-.07,5.9s0,.03,0,.04c.74,0,1.49.02,2.23,0,.73-.02,1.05-.27.68-1.08-.65-1.42-1.29-1.88-2.91-1.88-1.48,0-2.2.56-2.89,2.01-.35.73-.03.89.55.91.78.04,1.57,0,2.35,0Z"/>
  <path class="cls-1" d="m145.78,29.98c0,4.08-1.75,6.67-5.07,7.76-3.2,1.05-7.49-.87-8.88-4.11-1.24-2.9-1.18-5.77.79-8.39.99-1.31,2.34-2.22,3.99-2.46,3.4-.5,6.71.11,8.55,3.62.63,1.21.68,2.49.61,3.58Zm-3.97.22c-.01-.77.02-1.53-.21-2.29-.36-1.15-1.11-1.95-2.23-2.19-1.07-.23-2.17-.2-3.03.8-1.41,1.62-1.68,4.83-.46,6.7,1,1.54,2.11,1.83,3.8,1.17,1.99-.78,2.22-2.39,2.15-4.19Z"/>
  <path class="cls-1" d="m175.77,50.08c1.89-2.72,4.15-2.67,6.64-2.04,1.83.47,2.77,2.38,2.89,4.76.14,2.63.16,5.26.19,7.89.02,1.88,0,1.88-1.84,1.88-2.36,0-2.31,0-2.37-2.38-.07-2.42.26-4.84-.22-7.25-.27-1.34-.79-1.91-2.13-2.03-1.35-.13-2.52.52-2.8,1.68-.15.61-.3,1.23-.28,1.91.06,2.31-.03,4.62-.01,6.93,0,.86-.29,1.14-1.16,1.15-2.95.03-2.95.06-2.93-2.87.01-3.55.04-7.1.02-10.65,0-1.05.4-1.35,1.36-.98.04.01.08.05.11.05,1.38-.17,2.44.14,2.54,1.93Z"/>
  <path class="cls-1" d="m92.13,30.1c0-2.06.05-4.13-.02-6.19-.03-.87.28-1.06,1.04-.99.45.05.92.07,1.36,0,.82-.14,1.25.27,1.32.98.1,1.07.54.64.92.24,1.99-2.05,4.31-1.73,6.67-.9,1.1.39,1.66,1.34,1.9,2.4.82,3.69.63,7.45.36,11.15-.12,1.64-2.07.42-3.14.74-.75.23-.73-.38-.73-.9,0-2.15.1-4.3-.04-6.44-.08-1.21.05-2.5-.82-3.61-.85-1.1-1.95-.6-2.94-.64-.79-.03-1.17.58-1.39,1.31-.29.97-.53,1.93-.51,2.98.05,2.1,0,4.21,0,6.32,0,.72-.25,1.01-1.01,1.03-2.99.09-2.99.11-2.99-2.89,0-1.53,0-3.05,0-4.58,0,0,.01,0,.02,0Z"/>
  <path class="cls-1" d="m150.25,57.8c0,1.49-.03,2.73.01,3.96.02.66-.21.81-.85.83-3.17.09-3.15.11-3.13-2.97.02-2.68,0-5.36,0-8.04,0-.86-.37-1.67-.27-2.54.09-.7.32-1.24,1.12-1.07,1.07.23,2.36-.27,3.12,1.05.32.57.89.05,1.15-.2,1.6-1.49,3.46-1.27,5.31-.84,1.66.39,2.92,2.1,2.96,4.04.06,3.12.51,6.22.3,9.35-.06.9-.29,1.22-1.22,1.22-2.83,0-2.8.04-2.84-2.83-.03-2.41.23-4.85-.44-7.21-.35-1.23-1.25-1.75-2.73-1.64-1.23.09-2.01.96-2.26,2.11-.36,1.67-.12,3.35-.22,4.77Z"/>
  <path class="cls-1" d="m83.19,52.03c0-3.11.03-5.75-.02-8.39-.01-.87.27-1.21,1.14-1.14.62.05,1.25.09,1.86,0,1.28-.18,1.52.49,1.51,1.56-.03,4.54.02,9.07-.05,13.61-.01,1.02.31,1.23,1.25,1.21,2.56-.05,5.12-.01,7.69-.01.08,0,.18-.08.23-.05,1.12.72.35,1.83.53,2.74.08.42.23,1.03-.62,1.02-4.34-.02-8.68-.02-13.02,0-.87,0-.81-.55-.74-1.06.45-3.32.12-6.65.23-9.5Z"/>
  <path class="cls-1" d="m73.2,125.04c-10.75.36-19.5-9.53-20.09-18.82-.85-13.36,10.01-22.16,20.32-22.11,11.5.05,20.53,9.43,20.49,20.64-.05,11.11-9.41,20.59-20.72,20.29Zm.46-.94c10.96.26,18.78-8.62,19.39-18.09.8-12.4-8.72-20.28-18.14-20.89-12.94-.85-20.45,9.26-20.93,17.78-.32,5.65,1.14,10.91,5.22,15.15,3.9,4.05,8.64,6.17,14.45,6.05Z"/>
  <path class="cls-1" d="m121.75,89.27c-1.03-.69-.42-1.73-.53-2.61-.04-.35.33-.27.56-.28,4.88-.22,9.76-.09,14.64-.08.44,0,.73.12.66.63-.01.12,0,.25,0,.37q.03,2.05-1.96,2.05c-1.03,0-2.07.06-3.1-.02-.91-.07-1.09.28-1.08,1.12.03,4.67.01,9.34,0,14,0,.55.2,1.38-.55,1.45-.9.08-1.9.36-2.75-.26-.28-.2-.17-.52-.17-.8,0-5.12.01-10.24.02-15.36,0,0,0,0,0,0-1.9-.4-3.81-.14-5.72-.2,0,0-.02,0-.02,0Z"/>
  <path class="cls-1" d="m114.74,29.73c0,1.03,0,2.06,0,3.1,0,1.37.35,1.76,1.71,1.73.89-.02,1.17.2,1.05,1.15-.25,1.99-.34,2.21-2.39,2.06-1.76-.13-3.59-.42-4.21-2.45-.3-.99-.44-2.05-.39-3.13.08-1.77.07-3.54.08-5.32,0-.8-.23-1.34-1.22-1.23-1.54.17-.96-1.05-1.1-1.79-.17-.94.43-.94,1.11-.94,1.37,0,1.64-.37,1.36-1.74q-.55-2.72,2.13-2.78c.37,0,.75.02,1.12-.01.61-.05.79.23.77.8-.03.95.03,1.9-.02,2.85-.04.69.17,1,.88.89.16-.02.33-.02.5,0,.52.06,1.52.01,1.48.12-.27.71.19,1.56-.31,2.13-.44.51-1.12.67-1.8.36-.71-.34-.75.09-.75.61,0,1.2,0,2.4,0,3.59Z"/>
  <path class="cls-1" d="m124.09,25.34c.67-.87,1.26-1.5,2.01-2.02.85-.58,1.84-.55,2.74-.84.04-.01.09-.02.12,0,1.25.73.46,1.94.65,2.91.14.7-.3.78-.89.77-1.39-.03-2.88-.07-3.61,1.43-.71,1.46-1.11,3.05-.85,4.69.24,1.52-.05,3.03.08,4.55.03.37-.22.64-.6.65-.95.03-1.9.05-2.85.03-.62,0-.69-.47-.68-.96.02-4.25.04-8.5.03-12.74,0-.71.29-.97.97-.88.04,0,.08,0,.12,0q2.37-.04,2.75,2.41Z"/>
  <path class="cls-1" d="m134.07,55.25c0-2.1.04-4.21-.02-6.31-.02-.85.27-1.1,1.06-1,.45.06.91,0,1.36.03.83.05,1.55.23,1.36,1.34-.05.28-.06.65.27.74.36.1.38-.31.56-.51,1-1.15,2.22-1.86,3.8-1.83.17,0,.42-.06.48.02.74.96.2,2.08.35,3.12.09.66-.42.61-.82.57-1.46-.15-2.75.25-3.5,1.52-.98,1.66-.98,3.54-.88,5.42.06,1.19.31,2.51-.08,3.56-.55,1.46-2.09.38-3.15.65-.7.18-.77-.32-.77-.89.02-2.14,0-4.29,0-6.43,0,0,0,0-.01,0Z"/>
  <path class="cls-1" d="m163.86,55.25c0-2.06.02-4.13,0-6.19-.01-.94.2-1.3,1.23-.92.55.2,1.23.12,1.84.05.81-.09.97.25.96.98-.03,4.13-.03,8.26,0,12.39,0,.73-.25,1.01-1,1.04-3.03.12-3.03.14-3.02-2.89,0-1.49,0-2.97,0-4.46Z"/>
  <path class="cls-1" d="m181.55,88.43c1.68,2.01.86,4.94-.65,6-.41.29-.81.52-.94,1.03-.63.7-1.42,1.03-2.32.77-.82-.24-1.63-.11-2.44-.21-.93-.11-1.84.38-2.79.05-.47-.16-.72.28-.92.65-.22.17-.46.26-.74.2-.71-.75-1.31-1.49-.94-2.67.19-.6.05-1.3.04-1.95,0-.16-.05-.36-.26-.34-.13.02-.34.14-.36.25-.08.31-.15.66-.1.96.34,1.76-.61,3.23-1.03,4.82-.08.28-.24.53-.62.41,0-3.31,0-6.63,0-9.94,1.24-.1,2.48.51,3.73-.08.31-.14.86-.03.77.61-.41.2-1.21-.24-1.17.68.06,1.31-.35,2.58-.27,3.9.04.71.32.95.96.94,1.16-.01,2.34-.13,3.49-.02,1.6.16,2.93-.24,4.06-1.36.75-.34,1.26-1.5.97-2.22q-.66-1.62.88-2.15c.23-.08.43-.23.64-.34Z"/>
  <path class="cls-1" d="m171.48,96.73c.2-.37.45-.82.92-.65.95.33,1.85-.16,2.79-.05.81.1,1.63-.03,2.44.21.9.26,1.69-.07,2.32-.77.16.06.33.12.49.19-.15.16-.21.36-.03.49.27.19.4-.02.49-.25,3.19,1.42,3.16,7.39,0,8.73-.11-.34-.42-.31-.69-.41-1.52-.56-3.02.09-4.53.04-.91-.03-1.52-.26-1.76-1.17,1.03-.01,2.07-.01,3.1-.04,1.5-.04,2.62-.74,2.84-1.76.65-2.98-.38-4.3-3.46-4.42-1.65-.07-3.3-.09-4.95-.13Z"/>
  <path class="cls-1" d="m167.47,98.41c.38.13.55-.12.62-.41.42-1.59,1.37-3.06,1.03-4.82-.06-.31.02-.65.1-.96.03-.11.23-.23.36-.25.2-.02.26.18.26.34,0,.65.14,1.36-.04,1.95-.37,1.18.23,1.92.93,2.67-.08.24-.15.49-.22.73-.27-.12-.38.02-.3.24.08.21.25.4.53.21,0,1.54-.01,3.08-.02,4.62-.07.03-.19.05-.21.1-.16.39.2.33.38.44q1.81,1.12,1.05,2.38c-1.32.32-2.68.05-4.01.23-.48.06-.5-.27-.49-.62.02-.81.03-1.63.04-2.44.15.12.3.1.3-.1,0-.19-.15-.22-.3-.1,0-1.41,0-2.82,0-4.23Z"/>
  <path class="cls-1" d="m171.98,88.99c.08-.64-.46-.75-.77-.61-1.25.59-2.5-.03-3.73.08-.09-2.02-.09-1.97,1.9-2.05,2.7-.11,5.41.2,8.11-.2.86-.13,3.62,1.4,4.07,2.21-.21.12-.41.27-.64.34q-1.54.53-.88,2.15c.29.71-.21,1.88-.97,2.22.08-1.29.35-2.61-.6-3.73.21-.6,0-1.01-.63-1.02-.42,0-1.16-.35-1.09.61-1.59,0-3.17,0-4.76,0Z"/>
  <path class="cls-1" d="m74.64,56.63c-1.15,0-2.31-.01-3.46,0-.61,0-.86-.23-.91-.87-.19-2.61-.21-2.56,2.38-2.62,2.01-.05,3.99.49,6,.22.07,0,.14-.05.2-.08.24.97.14,1.97.08,2.94-.04.71-.71.36-1.09.37-1.07.05-2.14.02-3.21.02Z"/>
  <path class="cls-1" d="m171.94,105.66q.76-1.26-1.05-2.38c-.18-.11-.54-.05-.38-.44.02-.05.14-.07.21-.1,1.02.66,2.17.03,3.22.33.24.91.84,1.14,1.76,1.17,1.51.06,3.01-.6,4.53-.04.27.1.58.07.69.41-1.34.96-2.87,1.23-4.47,1.18-1.5-.05-3.02.31-4.51-.14Z"/>
  <path class="cls-1" d="m161.6,102.24c1.37.02,2.07.75,2.06,2.14,0,1.19-.86,1.85-2.36,1.82-1.19-.02-1.88-.85-1.85-2.22.03-1.11.84-1.76,2.15-1.74Z"/>
  <path class="cls-1" d="m165.7,45.73c-2.14,0-2.5-.47-2.05-2.57.07-.31.18-.61.48-.62,1.07-.04,2.13-.03,3.2-.02.26,0,.29.24.29.45,0,.25-.01.49.01.74q.18,2.02-1.93,2.02Z"/>
  <path class="cls-1" d="m182.29,121.06c-.54-.03-1.08-.3-1.47.44-.27.51-.94.34-1.35.14-.64-.31.27-.52.14-.85-.01-.04,0-.08,0-.12.09-.67-.35-1.76.22-1.92.96-.28,2.11-.34,3.11.21.09.35-.12.36-.37.33-.24-.02-.51.02-.7-.08-.54-.28-.78.03-.88.44-.14.54.25.58.66.54.78-.09.43.61.64.92v-.03Z"/>
  <path class="cls-1" d="m135.76,121.83c-.84.3-1.56.26-2.22.15-.49-.08-1.26-.25-.57-1.17.55-.74-.42-1.39-.38-2.14h2.88c-.25.72-1.19.85-1.17,1.64.02.89.9.96,1.46,1.51Z"/>
  <path class="cls-1" d="m151.12,120.38c.74-.53.4-1.49,1.14-2,.48.62,0,1.18-.09,1.7-.15.8,0,1.25.9,1.25.32,0,.76-.05.6.47-.11.37-.43.26-.7.1-.42-.24-.88-.13-1.33-.14-1.29-.04-2.41-2-1.74-3.08.06-.09.2-.19.3-.18.31.02.26.27.2.46-.22.71.25,1.05.72,1.41Z"/>
  <path class="cls-1" d="m182.57,119.28c.25.03.46.02.37-.33.28-.44.72-.28,1.12-.31.37-.03.86-.09.99.29.12.4-.44.37-.67.57-.65.56-.49,1.33.35,1.88.36.24.9.12,1.23.63-.84,0-1.61-.03-2.37,0-.73.04-1.15-.25-1.3-.96,0,0-.01.03-.01.03.94.17.96-.38.71-1-.11-.27-.47-.44-.43-.82Z"/>
  <path class="cls-1" d="m142.71,118.64c1.29.01,2.45,1.41,2.31,2.55,0,.08-.03.16-.08.22-.09.13-2.78.55-2.9.46-.97-.62-1.16-1.58-.9-2.57.24-.89,1.08-.69,1.57-.66Zm-.06.37c-.69-.13-1.08.5-1.07,1.13,0,.63.51,1.22,1.26,1.2.75-.02,1.27-.34,1.25-1.26-.02-.91-.55-1.03-1.44-1.06Z"/>
  <path class="cls-1" d="m145.97,113.96c.03-.33.07-.56.05-.8-.03-.33-.48-.64-.08-.98.08-.07.44,0,.45.04.07.45.81.54.61,1.1-.15.42.23.85-.23,1.31-.57.57-.8,1.01-1.4,0-.44-.73-1.67-.79-1.86-1.89-.06-.31-.51-.65-.17-.91.49-.37.74.22.93.5.42.62.76,1.3,1.71,1.64Z"/>
  <path class="cls-1" d="m161.37,120.06c-.02,1.91-.15,2-2.13,1.48-.44-.12-1.16.25-1.29-.36-.15-.72-.01-1.5.03-2.25.03-.46.42-.32.66-.28.41.07.15.3.1.53-.08.35-.06.73-.06,1.1,0,.61.33,1.11.91,1.05.55-.05,1.24-.22,1.14-1.11-.05-.4-.02-.82-.01-1.23,0-.23-.06-.52.31-.55.4-.03.32.28.33.5.02.37,0,.74,0,1.11Z"/>
  <path class="cls-1" d="m108.73,111.96c-.3,1,.02,1.95.06,2.92,0,.18.04.43-.25.47-.27.04-.46-.01-.55-.32-.26-.84-.78-1.27-1.74-1.17-.62.07-.72-.44-.68-.93.03-.38-.23-.95.28-1.09.49-.13.73.37.93.78.07.14.18.26.26.4.22.38.56.47.95.37.57-.15-.14-.42.05-.66.18-.23.19-.6.68-.77Z"/>
  <path class="cls-1" d="m151.94,115.46c-2.17-.56-2.3-.72-2.18-2.24.02-.31.07-.57.32-.74.29-.2.52-.64.93-.45.35.16.18.59.17.89-.02.93-.09,1.85.76,2.55Z"/>
  <path class="cls-1" d="m121.19,114.65c-.59-.08-.87-.58-1.24-.94-.39-.39-.84-.89-1.34-.55-.45.31-.2.96-.08,1.46.04.14.27.2.17.41-.29.1-.51-.07-.63-.26-.28-.45-1.27-.59-.8-1.36.48-.78,1.89-1.02,2.48-.51.58.5,1.3.84,1.75,1.49-.11.09-.21.18-.32.27Z"/>
  <path class="cls-1" d="m178.38,121.27c-.95-.37-1.83-.49-2.74.09.56-.72,1.13-1.28.98-2.22-.04-.22.12-.7.46-.72.38-.02.52.42.56.7.11.76.39,1.44.73,2.15Z"/>
  <path class="cls-1" d="m167.75,115.46c-.79-.56-1.09-1.33-1.97-1.11-.41.1-.52-.3-.34-.55.41-.58.15-1.71.83-1.8.66-.09.48,1.01.82,1.52.31.47.39,1.1.66,1.93Z"/>
  <path class="cls-1" d="m104.32,113.97c.36,1.02-.01,1.38-.69,1.65-.76.3-.82-.46-.97-.74-.37-.65-.55-1.42-.74-2.15-.1-.38.3-.68.54-.68.24,0,.25.31.17.66-.11.47.01,1.06.21,1.52.44,1.01.96.58,1.48-.26Z"/>
  <path class="cls-1" d="m119.15,121.61c.19-.41.65-.31.95-.42,1.23-.45,1.47-.85.9-1.96-.13-.24-.44-.53-.16-.73.33-.22.83-.24,1.17-.04.32.19.1.51-.11.71-.23.22-.24.49-.26.78-.12,1.69-.71,2.08-2.48,1.65,0,0,0,.01,0,.01Z"/>
  <path class="cls-1" d="m139.27,111.61c-1.14.35-1.26,1.01-.71,1.88.11.17.28.28.06.48-.63.57-.18,1.07.14,1.58-.52.14-.84-.01-.91-.53-.14-.98-.44-2-.31-2.94.09-.59.99-.64,1.74-.46Z"/>
  <path class="cls-1" d="m179.83,114.57c-.43-.79.41-1.98-.88-2.58.92.01,1.68.21,1.79,1.14.1.8.3,1.81-1.03,1.89.04-.15.08-.3.12-.45Z"/>
  <path class="cls-1" d="m184.58,115.37c-1.35-1.14-1.37-2.57-.11-3.35.11-.07.34-.06.44.02.22.16.28.59.11.63-.99.26-.34.87-.28,1.3.07.47.08.9-.17,1.41Z"/>
  <path class="cls-1" d="m108.37,121.28c.7-.77.74-1.58.95-2.34.08-.28.2-.62.54-.52.33.1.54.48.36.79-.3.5-.35.85.18,1.23.2.14.18.59-.09.56-.6-.05-1.13.33-1.93.28Z"/>
  <path class="cls-1" d="m174.8,113.59c-.04.41.23,1.15-.49,1.21-.66.06-.73-.61-.7-1.15.04-.64.04-1.6.65-1.64.62-.03.55.9.54,1.57Z"/>
  <path class="cls-1" d="m106.09,121.7c0-1.03.01-1.81,0-2.59,0-.33.12-.55.39-.69.32-.16.57.09.77.25.46.37-.22.32-.25.55-.09.8.07,1.7-.91,2.48Z"/>
  <path class="cls-1" d="m112.92,111.98c.57-.03.94-.04,1.42-.06-.19.26-.54.47-.35.66.72.7.76,1.48.5,2.38-.05.18.52.51-.05.6-.3.05-.39-.3-.41-.62-.04-1.03-.44-1.94-1.11-2.95Z"/>
  <path class="cls-1" d="m125.3,120.66c.57.3,1.19.51,1.83.56.72.06,1.46.08,1.74-.9.42.62.01.87-.27,1.13-.48.43-3.26.33-3.7-.13-.14-.15-.18-.37.05-.52.15.05.29.07.35-.13Z"/>
  <path class="cls-1" d="m155.71,120.31c.08-.39-.11-.83.16-1.28.19-.32.31-.57.72-.4.45.18.3.48.12.76-.37.58-.32,1.13.03,1.71.12.2.64.54-.03.7-.41.1-.87.09-.98-.46-.06-.32-.01-.66-.01-1.03Z"/>
  <path class="cls-1" d="m189.63,112.94c.31,1.04-.24,1.56-.84,1.87-.35.18-.48-.45-.4-.65.29-.68-.08-1.8.98-1.97.65-.1.19.63.26.75Z"/>
  <path class="cls-1" d="m136.96,118.81c.95-.65,2.02-.27,2.93-.07,1.04.22.07.97.03,1.49,0,0-.05,0-.05,0,0,0-.01-.07-.01-.07-.05-1.03-.64-1.32-1.57-1.14-.35.07-.7.11-1.05.16-.09-.13-.18-.25-.27-.38Z"/>
  <path class="cls-1" d="m160.76,114.02c-.02-.45-.04-.89-.06-1.34-.01-.31.02-.58.45-.5.34.06.8-.08.76.51-.04.61.04,1.21.23,1.79-.54.08-.9-.39-1.39-.45Z"/>
  <path class="cls-1" d="m169.88,121.52c1.37-.8,1.44-1.57.38-2.77,1.15-.16,1.15-.16,1.05.99-.03.37-.05.74,0,1.11.16,1.34-.54,1.02-1.44.67Z"/>
  <path class="cls-1" d="m132,118.71c-.9.67.18,1.81-.62,2.58-.2.19-.3.55-.6.43-.21-.09-.17-.41-.02-.64.31-.45.13-.96.11-1.44-.03-.8.1-1.32,1.13-.93Z"/>
  <path class="cls-1" d="m164.55,119.26c-.8-.09-1.44.11-1.75.92-.19-.28-.44-.52-.54-.81-.1-.29-.19-.7.1-.92.21-.16.6-.16.79.1.36.5.78.22,1.19.15.16.15.33.3.22.56Z"/>
  <path class="cls-1" d="m160.76,114.02c.49.06.85.53,1.39.45.43.1.62.64,1.33.45-.42.49-.74.53-.98.29-.45-.45-.88-.44-1.42-.18-.52.24-1.12-.08-1.21-.48-.12-.53.64-.26.9-.53Z"/>
  <path class="cls-1" d="m191.79,115.13c-.42.23-.91.34-1.22-.06-.34-.43.3-.55.42-.85.13-.33.25-.69.26-1.04.01-.38.21-.61.54-1.15,0,1.06-.22,1.84-.04,2.6-.1.17-.06.34.04.5Z"/>
  <path class="cls-1" d="m139.86,120.17v.07s.06,0,.06,0c.26,1.58.15,1.65-2,1.47.18-.17.12-.36.02-.54.71-.19,1.14-.92,1.91-.99Z"/>
  <path class="cls-1" d="m113.59,118.61c-1.04.49-1.33,1.35-1.28,2.02.1,1.6-.77.77-1.39.7,1.52-.28.41-2.82,2.67-2.72Z"/>
  <path class="cls-1" d="m155.78,112.29c1.42,1.29,1.48,1.74.54,2.61-.21.19-.45.3-.67.19-.36-.18-.1-.39.06-.57.57-.66-.03-1.38.07-2.23Z"/>
  <path class="cls-1" d="m130.25,115.33c.39-.4.84-.11,1.33-.35.65-.31,1.2-.48,1.07-1.34-.05-.36.1-.73.5-.66.37.06.16.48.17.74.04,1.19-.85,1.42-1.73,1.6-.43.09-.89.02-1.34.02Z"/>
  <path class="cls-1" d="m130.52,114.28c-.28-.81-.69-1.66.04-2.36.63-.6,1.15.04,1.82.14-.56.59-1.41-.03-1.69.47-.26.47-.13,1.15-.18,1.74Z"/>
  <path class="cls-1" d="m111.17,112.52c.78.58,1.2,1.33,1.06,2.33-.03.18.05.44-.26.46-.25.02-.35-.12-.42-.35-.19-.66-.4-1.32-.6-1.98.07-.15.15-.31.22-.46Z"/>
  <path class="cls-1" d="m177.39,111.97c-.31,1.11-1.21,1.85-.36,2.77.14.15-.06.36-.31.37-.35.02-.81-.04-.76-.4.14-.93.14-1.98,1.43-2.73Z"/>
  <path class="cls-1" d="m129.4,114.29c-.89-.07-1.91-1.34-1.73-2.07.05-.18.14-.36.29-.27.23.14.67.16.63.49-.11.78.55,1.21.81,1.84Z"/>
  <path class="cls-1" d="m187.54,115.17c-.59-.14-1.1.17-1.25-.42-.15-.61-1.13-1.32-.38-1.77.57-.34.62.83,1.04,1.23.22.22.34.54.59.96Z"/>
  <path class="cls-1" d="m148.15,121.19c-.22-.51.02-.91.41-1.42.22.78,1.05,1.36.38,2.12-.36.41-.56-.21-.78-.46.03-.02.08-.06.07-.07-.02-.06-.05-.12-.08-.17Z"/>
  <path class="cls-1" d="m122.33,114.14c-.62-.46-.23-1.13-.33-1.69-.05-.29.24-.25.43-.25.32,0,.44.22.39.48-.08.51.04,1.06-.22,1.54-.09-.03-.18-.05-.27-.08Z"/>
  <path class="cls-1" d="m122.33,114.14c.09.03.18.05.27.08.23.25.56.62.08.77-.48.16-1.19.55-1.5-.34.11-.09.21-.18.32-.27.27-.08.55-.16.82-.24Z"/>
  <path class="cls-1" d="m117.39,121.24c.1-.75-.47-1.37-.38-2.1.03-.25.02-.51.39-.48.3.02.3.26.28.44-.1.71.15,1.45-.29,2.14Z"/>
  <path class="cls-1" d="m136.96,118.81c.09.13.18.25.27.38-.24.76-.39,1.52.21,2.2-.01.03-.03.05-.03.08,0,.05.02.1.03.15-.23.11-.49.15-.68-.02-.34-.31-.17-2.37.19-2.79Z"/>
  <path class="cls-1" d="m154.31,112.21c-.46.87-.98,1.51-.38,2.32.08.1-.07.37-.11.56-.14-.07-.32-.1-.41-.21-.49-.58-.03-2.21.9-2.67Z"/>
  <path class="cls-1" d="m114.03,118.44c1.26.06,1.53.67,1.36,2.8-.82-.76-.17-2.13-1.36-2.8Z"/>
  <path class="cls-1" d="m125.94,112.59c.95.51,1.15,1.39,1.16,2.37-.67-.66-1.23-1.38-1.14-2.41l-.02.04Z"/>
  <path class="cls-1" d="m164.55,119.26c.12-.26-.05-.41-.22-.56.39-.2.71.01,1.04.16.39.18,1.23,0,.94.74-.19.49-.84.23-1.27-.01-.17-.1-.33-.22-.5-.33Z"/>
  <path class="cls-1" d="m119.15,121.61s0-.02,0-.01c-.05-.12-.12-.13-.2-.03h0c-.26-.74-.17-1.51-.23-2.26-.04-.51.2-.78.77-.62-.56.92-.29,1.94-.35,2.91Z"/>
  <path class="cls-1" d="m173.18,122.05c-.31-.05-.66-.3-.53-.51.22-.36.32-.93.93-.96.38-.02.47.12.5.48.05.69-.57.68-.9.99Z"/>
  <path class="cls-1" d="m171.68,113.71c.29.6,1.27.9.78,1.9-.68-.42-1.34-.82-1.2-1.79.17.06.32.07.43-.11Z"/>
  <path class="cls-1" d="m186.55,119.81c-.38-.07-.72-.5-.69-.62.15-.54.73-.61,1.18-.8.12-.05.44.04.37.17-.24.43-.35.98-.86,1.24Z"/>
  <path class="cls-1" d="m125.3,120.66c-.06.2-.2.18-.35.13-.43.04-.78-.14-1.1-.43q1.2-.68,1.46.29Z"/>
  <path class="cls-1" d="m140.51,113.06c.02-.12,0-.2.04-.25.34-.55.68-1.19,1.33-1.34.47-.11.44.33.13.51-.37.21-.7.44-.95.76-.13.16-.19.37-.56.32Z"/>
  <path class="cls-1" d="m146.37,120.21c-.5-.4-1.01-.8-1.52-1.21,1.3-.94,1.26.53,1.8.93-.09.09-.19.19-.28.28Z"/>
  <path class="cls-1" d="m142.08,115.57c-.92-.1-1.27-.78-1.8-1.2-.18-.14-.03-.21.03-.27.08-.09.18-.13.29,0,.39.53,1.14.69,1.49,1.46Z"/>
  <path class="cls-1" d="m183.26,115.02q-1.06.7-1.72,0h1.72Z"/>
  <path class="cls-1" d="m135.29,111.99c-.06-.24,0-.43.28-.35.34.09.55.32.55.71-.01.77,0,1.54-.08,2.32-.28-.9.06-1.94-.74-2.68,0,0,0,0,0,0Z"/>
  <path class="cls-1" d="m111.17,112.52c-.07.15-.15.31-.22.46-.6-.03-.61-.67-1.25-.92.78-.15,1.26-.21,1.47.46Z"/>
  <path class="cls-1" d="m191.79,115.13c-.1-.16-.14-.33-.04-.5.49.26.97.51,1.62.85-.71.07-1.2.09-1.59-.35Z"/>
  <path class="cls-1" d="m125.96,112.55c-.8.21-1.35-.65-2.12-.53.92-.69,1.49.01,2.1.57,0,0,.02-.04.02-.04Z"/>
  <path class="cls-1" d="m167.24,121.81c-.65-.26-.72-.75-.58-1.31.02-.07.23-.16.28-.13.55.36.55.84.3,1.44Z"/>
  <path class="cls-1" d="m173.44,118.98c-.21.26-.32.68-.8.57-.18-.04-.29-.17-.23-.35.12-.42.52-.64.86-.74.32-.1.26.27.2.5,0,0-.04-.02-.04-.02v.04Z"/>
  <path class="cls-1" d="m179.83,114.57c-.04.15-.08.3-.12.45-.36.55-.9.1-1.33.26.37-.14.94.12,1.01-.57.03-.26.16-.51.44-.13Z"/>
  <path class="cls-1" d="m146.63,121.22c-.03-.31-.07-.62-.1-.93,0,0,.09.02.09.02l.06-.07c.4.32.79.64,1.19.96-.32.09-.63.19-.95.28-.08-.08-.17-.17-.25-.25,0,0,.01-.05.01-.05l-.04.04Z"/>
  <path class="cls-1" d="m168.74,120.23c.11.53.14,1.1,1.01,1.28-1.64.27-1.39-.46-1-1.28,0,0,0,.09,0,.09v-.08Z"/>
  <path class="cls-1" d="m170.23,113.97c-.05-.11-.1-.22-.15-.33-.15-.32-.48-.7-.02-.94.26-.14.42.23.57.49.29.52.16.74-.4.78,0,0,.01,0,.01,0Z"/>
  <path class="cls-1" d="m146.91,121.47c.32-.09.63-.19.95-.28.1,0,.19,0,.29,0,.03.06.06.11.08.17,0,.02-.05.05-.07.07-.42-.08-.81.63-1.24.03Z"/>
  <path class="cls-1" d="m149.19,112.05c-.36.18-.77-.04-1.12.19q.5-.59,1.12-.19Z"/>
  <path class="cls-1" d="m137.44,121.62s-.03-.1-.03-.15c0-.03.02-.05.03-.08.15-.12.24-.35.5-.23.1.19.15.37-.02.54-.18.08-.35.1-.48-.09Z"/>
  <path class="cls-1" d="m180.92,95.89c-.09.23-.23.44-.49.25-.18-.13-.12-.33.03-.49.22-.05.35.09.47.24Z"/>
  <path class="cls-1" d="m155.34,111.76c-.06.19-.24.15-.37.14-.17-.01-.44.06-.41-.25.02-.18.17-.25.34-.24.23,0,.33.17.43.36Z"/>
  <path class="cls-1" d="m198.92,100.48c.25-.05.45.03.61.22-.13.21-.33.21-.53.15-.24-.07-.17-.22-.08-.37Z"/>
  <path class="cls-1" d="m171.78,113.26c-.4-.38-.3-.66,0-1.15v1.15Z"/>
  <path class="cls-1" d="m152.13,104.61c.09.19.16.38-.12.49-.27.02-.19-.18-.19-.31,0-.2.12-.27.31-.18Z"/>
  <path class="cls-1" d="m187.18,105.34c.04.06.08.13.11.19,0,.03-.02.07-.04.1-.25.22-.35-.06-.37-.18-.02-.23.15-.2.3-.12Z"/>
  <path class="cls-1" d="m170.23,113.97s-.01,0-.01,0c.03.26.06.53.09.79-.02,0-.05,0-.07,0v-.78Z"/>
  <path class="cls-1" d="m168.74,120.23v.08s0-.09,0-.09c-.03-.23-.05-.45-.08-.68h.11c-.01.22-.03.45-.04.68Z"/>
  <path class="cls-1" d="m167.48,102.64c.15-.12.3-.1.3.1,0,.19-.15.22-.3.1-.07-.06-.07-.13,0-.19Z"/>
  <path class="cls-1" d="m171.68,113.71c-.1.18-.26.17-.43.11-.07,0-.17.05-.21.02-.16-.14,0-.15.09-.15.18,0,.37.01.55.02Z"/>
  <path class="cls-1" d="m146.67,120.24l-.06.07s-.09-.02-.09-.02c-.09.06-.16.06-.16-.07.09-.09.19-.19.28-.28.03.07.06.14.07.21,0,.03-.03.07-.05.1Z"/>
  <path class="cls-1" d="m121.75,89.27s.02,0,.02,0c0,0-.02,0-.02,0Z"/>
  <polygon class="cls-1" points="173.44 118.98 173.43 118.94 173.47 118.96 173.44 118.98"/>
  <path class="cls-1" d="m127.49,89.47s0,0,0,0,0,0,0,0Z"/>
  <polygon class="cls-1" points="146.63 121.22 146.68 121.17 146.66 121.22 146.63 121.22"/>
  <polygon class="cls-1" points="135.29 111.99 135.29 111.99 135.24 111.99 135.29 111.99"/>
  <polygon class="cls-1" points="118.96 121.57 118.93 121.6 118.95 121.57 118.96 121.57"/>
  <path class="cls-1" d="m170.52,97.66c.13.13.39.19.23.46-.28.19-.45,0-.53-.22-.08-.23.03-.37.3-.24Z"/>
  <path class="cls-1" d="m178.46,89.41c-.57-.14-1.15-.27-1.72-.41-.07-.96.67-.62,1.09-.61.63.01.84.42.63,1.02Z"/>
  <path class="cls-1" d="m56.37,104.54c-.59-8.26,7.24-18.21,18.69-17.17,8.25.75,15.67,7.34,15.75,17.1.08,9.75-7.64,17.79-18.24,17.54-8.43-.2-16.6-8.01-16.2-17.47Zm17.05,16.53c8.64.18,17.1-7.29,16.49-17.24-.54-8.67-6.97-15.67-16.54-15.64-9.53.02-16.21,6.97-16.35,16.23-.14,8.7,6.43,16.55,16.4,16.65Z"/>
  <path class="cls-1" d="m75.94,106.2c1.31.83,2.6,1.6,3.68,2.72,1.29,1.34,1.96,2.94,2.3,4.7.1.51-.08,1.07-.85,1.02-.41-.03-.83-.04-1.24,0-.96.1-1.44-.14-1.37-1.27.08-1.28-1.75-3.41-2.97-3.68-.48-.11-.77,0-.75.6.04,1.15-.03,2.31.03,3.47.03.7-.19.98-.9.88-.28-.04-.58-.04-.87,0-.74.1-1.05-.15-1-.94.06-1.03.03-2.06,0-3.09,0-.3.18-.7-.19-.89-.41-.2-.84,0-1.14.25-1.1.91-2.15,1.87-2.4,3.41-.07.43-.03,1.12-.56,1.21-.8.13-1.65.09-2.47,0-.33-.04-.16-.49-.18-.77-.2-2.71,2.42-5.83,4.56-6.84.32-.15.65-.24.99-.65-1.31-.24-2.52-.09-3.72-.11-1.84-.03-1.79,0-1.86-1.78-.03-.92.16-1.3,1.18-1.23,1.49.1,2.99.03,4.53-.11-2.38-.99-4.05-2.63-5.13-4.89-.12-.25-.2-.52-.31-.78-.31-.73-.57-1.8-.11-2.18.64-.54,1.74-.2,2.63-.15.46.02.44.51.48.88.19,1.82,1.35,2.93,2.85,3.77.64.36.87.09.86-.58-.02-1.11.02-2.23-.01-3.34-.02-.56.09-.86.73-.77.37.05.75.04,1.11,0,.68-.08.95.14.91.87-.06,1.07,0,2.15-.02,3.22-.02.82.3.93.94.52,1.46-.93,2.82-1.93,2.79-3.91,0-.4.2-.65.57-.66.83-.03,1.66-.05,2.48,0,.69.04.41.54.34.91-.59,3.11-2.25,5.38-5.19,6.67-.14.06-.26.16-.38.25-.02.02,0,.07-.03.33,1.54,0,3.08.05,4.61-.02.84-.04,1.24.15,1.09,1.06-.05.28-.05.58,0,.86.14.86-.17,1.13-1.06,1.09-1.65-.08-3.31-.02-4.96-.02Z"/>
</svg>