<svg width="1440" height="1024" viewBox="0 0 1440 1024" fill="none" xmlns="http://www.w3.org/2000/svg">
<g clip-path="url(#clip0_30_6824)">
<mask id="path-1-inside-1_30_6824" fill="white">
<path d="M0 0H1440V1024H0V0Z"/>
</mask>
<path d="M0 0H1440V1024H0V0Z" fill="#FEF5FB"/>
<path d="M2.59302 419.773C59.4789 324.838 114.881 292.115 169.602 295.738C224.567 299.377 279.488 339.667 335.371 392.521C360.428 416.221 385.607 442.373 411.016 468.764C413.902 471.762 416.791 474.762 419.683 477.763C448.025 507.167 476.659 536.547 505.673 562.77C563.642 615.164 623.408 655.225 685.752 657.501C787.537 661.217 858.351 626.617 916.484 575.21C958.988 537.624 994.772 490.979 1030.92 443.865C1044.11 426.673 1057.34 409.418 1070.97 392.518C1122.03 329.211 1178.7 270.687 1259.32 238.015C1339.74 205.429 1444.18 198.48 1590.96 238.554L1665.22 1184.66L-113.351 1065.59C-124.783 969.095 -135.164 873.622 -123.138 769.487C-111.065 664.936 -76.3947 551.592 2.59302 419.773Z" fill="#BCD6FF" stroke="#4583FE" stroke-width="3"/>
<mask id="path-6-inside-3_30_6824" fill="white">
<path fill-rule="evenodd" clip-rule="evenodd" d="M477 556.418C498.139 555.513 515 538.089 515 516.727C515 494.787 497.214 477 475.273 477C469 477 463.067 478.454 457.792 481.043C451.487 467.437 437.709 458 421.727 458C403.256 458 387.728 470.607 383.28 487.685C381.732 487.473 380.152 487.364 378.545 487.364C359.467 487.364 344 502.83 344 521.909C344 540.988 359.467 556.455 378.545 556.455H475.273H477V556.418Z"/>
</mask>
<path fill-rule="evenodd" clip-rule="evenodd" d="M477 556.418C498.139 555.513 515 538.089 515 516.727C515 494.787 497.214 477 475.273 477C469 477 463.067 478.454 457.792 481.043C451.487 467.437 437.709 458 421.727 458C403.256 458 387.728 470.607 383.28 487.685C381.732 487.473 380.152 487.364 378.545 487.364C359.467 487.364 344 502.83 344 521.909C344 540.988 359.467 556.455 378.545 556.455H475.273H477V556.418Z" fill="#FFFFFE"/>
<path d="M477 556.418L476.872 553.42L474 553.543V556.418H477ZM457.792 481.043L455.07 482.304L456.36 485.088L459.114 483.736L457.792 481.043ZM383.28 487.685L382.873 490.658L385.512 491.019L386.183 488.442L383.28 487.685ZM477 556.455V559.455H480V556.455H477ZM477.128 559.415C499.866 558.442 518 539.703 518 516.727H512C512 536.475 496.413 552.584 476.872 553.42L477.128 559.415ZM518 516.727C518 493.13 498.87 474 475.273 474V480C495.557 480 512 496.443 512 516.727H518ZM475.273 474C468.532 474 462.147 475.563 456.47 478.35L459.114 483.736C463.986 481.344 469.468 480 475.273 480V474ZM460.514 479.781C453.736 465.155 438.921 455 421.727 455V461C436.498 461 449.238 469.719 455.07 482.304L460.514 479.781ZM421.727 455C401.857 455 385.161 468.562 380.377 486.929L386.183 488.442C390.296 472.652 404.655 461 421.727 461V455ZM383.687 484.713C382.005 484.483 380.288 484.364 378.545 484.364V490.364C380.015 490.364 381.459 490.464 382.873 490.658L383.687 484.713ZM378.545 484.364C357.81 484.364 341 501.173 341 521.909H347C347 504.487 361.123 490.364 378.545 490.364V484.364ZM341 521.909C341 542.645 357.81 559.455 378.545 559.455V553.455C361.123 553.455 347 539.331 347 521.909H341ZM475.273 553.455H378.545V559.455H475.273V553.455ZM477 553.455H475.273V559.455H477V553.455ZM474 556.418V556.455H480V556.418H474Z" fill="#4583FE" mask="url(#path-6-inside-3_30_6824)"/>
<mask id="path-8-inside-4_30_6824" fill="white">
<path fill-rule="evenodd" clip-rule="evenodd" d="M353.222 194.442C361.999 194.066 369 186.832 369 177.962C369 168.852 361.615 161.467 352.505 161.467C349.901 161.467 347.437 162.071 345.247 163.146C342.629 157.496 336.908 153.578 330.273 153.578C322.603 153.578 316.156 158.812 314.309 165.904C313.667 165.815 313.01 165.77 312.343 165.77C304.422 165.77 298 172.192 298 180.113C298 188.035 304.422 194.457 312.343 194.457C312.365 194.457 312.387 194.457 312.409 194.457H352.406C352.439 194.457 352.472 194.457 352.505 194.457C352.538 194.457 352.571 194.457 352.605 194.457H353.222V194.442Z"/>
</mask>
<path fill-rule="evenodd" clip-rule="evenodd" d="M353.222 194.442C361.999 194.066 369 186.832 369 177.962C369 168.852 361.615 161.467 352.505 161.467C349.901 161.467 347.437 162.071 345.247 163.146C342.629 157.496 336.908 153.578 330.273 153.578C322.603 153.578 316.156 158.812 314.309 165.904C313.667 165.815 313.01 165.77 312.343 165.77C304.422 165.77 298 172.192 298 180.113C298 188.035 304.422 194.457 312.343 194.457C312.365 194.457 312.387 194.457 312.409 194.457H352.406C352.439 194.457 352.472 194.457 352.505 194.457C352.538 194.457 352.571 194.457 352.605 194.457H353.222V194.442Z" fill="#FFFFFE"/>
<path d="M353.222 194.442L353.094 191.444L350.222 191.567V194.442H353.222ZM345.247 163.146L342.525 164.407L343.815 167.19L346.569 165.839L345.247 163.146ZM314.309 165.904L313.902 168.876L316.541 169.237L317.212 166.66L314.309 165.904ZM312.409 194.457L312.409 191.457L312.396 191.457L312.409 194.457ZM352.406 194.457L352.423 191.457L352.414 191.457H352.406V194.457ZM352.605 194.457V191.457H352.596L352.587 191.457L352.605 194.457ZM353.222 194.457V197.457H356.222V194.457H353.222ZM353.35 197.439C363.726 196.995 372 188.445 372 177.962H366C366 185.218 360.273 191.137 353.094 191.444L353.35 197.439ZM372 177.962C372 167.195 363.272 158.467 352.505 158.467V164.467C359.958 164.467 366 170.509 366 177.962H372ZM352.505 158.467C349.432 158.467 346.518 159.18 343.925 160.452L346.569 165.839C348.357 164.961 350.369 164.467 352.505 164.467V158.467ZM347.969 161.884C344.878 155.214 338.12 150.578 330.273 150.578V156.578C335.697 156.578 340.38 159.778 342.525 164.407L347.969 161.884ZM330.273 150.578C321.204 150.578 313.589 156.767 311.406 165.147L317.212 166.66C318.724 160.857 324.002 156.578 330.273 156.578V150.578ZM314.717 162.931C313.939 162.825 313.147 162.77 312.343 162.77V168.77C312.874 168.77 313.394 168.806 313.902 168.876L314.717 162.931ZM312.343 162.77C302.765 162.77 295 170.535 295 180.113H301C301 173.849 306.079 168.77 312.343 168.77V162.77ZM295 180.113C295 189.692 302.765 197.457 312.343 197.457V191.457C306.079 191.457 301 186.378 301 180.113H295ZM312.343 197.457C312.37 197.457 312.396 197.457 312.423 197.457L312.396 191.457C312.378 191.457 312.361 191.457 312.343 191.457V197.457ZM352.406 191.457H312.409V197.457H352.406V191.457ZM352.388 197.457C352.427 197.457 352.466 197.457 352.505 197.457V191.457C352.478 191.457 352.451 191.457 352.423 191.457L352.388 197.457ZM352.505 197.457C352.544 197.457 352.583 197.457 352.622 197.457L352.587 191.457C352.56 191.457 352.532 191.457 352.505 191.457V197.457ZM353.222 191.457H352.605V197.457H353.222V191.457ZM350.222 194.442V194.457H356.222V194.442H350.222Z" fill="#4583FE" mask="url(#path-8-inside-4_30_6824)"/>
<mask id="path-10-inside-5_30_6824" fill="white">
<path fill-rule="evenodd" clip-rule="evenodd" d="M1183 330.418C1204.14 329.513 1221 312.089 1221 290.727C1221 268.787 1203.21 251 1181.27 251C1175 251 1169.07 252.454 1163.79 255.043C1157.49 241.437 1143.71 232 1127.73 232C1109.26 232 1093.73 244.607 1089.28 261.685C1087.73 261.473 1086.15 261.364 1084.55 261.364C1065.47 261.364 1050 276.83 1050 295.909C1050 314.988 1065.47 330.455 1084.55 330.455H1181.27H1183V330.418Z"/>
</mask>
<path fill-rule="evenodd" clip-rule="evenodd" d="M1183 330.418C1204.14 329.513 1221 312.089 1221 290.727C1221 268.787 1203.21 251 1181.27 251C1175 251 1169.07 252.454 1163.79 255.043C1157.49 241.437 1143.71 232 1127.73 232C1109.26 232 1093.73 244.607 1089.28 261.685C1087.73 261.473 1086.15 261.364 1084.55 261.364C1065.47 261.364 1050 276.83 1050 295.909C1050 314.988 1065.47 330.455 1084.55 330.455H1181.27H1183V330.418Z" fill="#FFFFFE"/>
<path d="M1183 330.418L1182.87 327.42L1180 327.543V330.418H1183ZM1163.79 255.043L1161.07 256.304L1162.36 259.088L1165.11 257.736L1163.79 255.043ZM1089.28 261.685L1088.87 264.658L1091.51 265.019L1092.18 262.442L1089.28 261.685ZM1183 330.455V333.455H1186V330.455H1183ZM1183.13 333.415C1205.87 332.442 1224 313.703 1224 290.727H1218C1218 310.475 1202.41 326.584 1182.87 327.42L1183.13 333.415ZM1224 290.727C1224 267.13 1204.87 248 1181.27 248V254C1201.56 254 1218 270.443 1218 290.727H1224ZM1181.27 248C1174.53 248 1168.15 249.563 1162.47 252.35L1165.11 257.736C1169.99 255.344 1175.47 254 1181.27 254V248ZM1166.51 253.781C1159.74 239.155 1144.92 229 1127.73 229V235C1142.5 235 1155.24 243.719 1161.07 256.304L1166.51 253.781ZM1127.73 229C1107.86 229 1091.16 242.562 1086.38 260.929L1092.18 262.442C1096.3 246.652 1110.65 235 1127.73 235V229ZM1089.69 258.713C1088 258.483 1086.29 258.364 1084.55 258.364V264.364C1086.01 264.364 1087.46 264.464 1088.87 264.658L1089.69 258.713ZM1084.55 258.364C1063.81 258.364 1047 275.173 1047 295.909H1053C1053 278.487 1067.12 264.364 1084.55 264.364V258.364ZM1047 295.909C1047 316.645 1063.81 333.455 1084.55 333.455V327.455C1067.12 327.455 1053 313.331 1053 295.909H1047ZM1181.27 327.455H1084.55V333.455H1181.27V327.455ZM1183 327.455H1181.27V333.455H1183V327.455ZM1180 330.418V330.455H1186V330.418H1180Z" fill="#4583FE" mask="url(#path-10-inside-5_30_6824)"/>
<path d="M876.83 824.517C930.685 825.51 936.738 832.43 934.944 842.607C895.052 860.873 863 838.984 795.765 842.858C743.454 845.872 748.799 832.077 794.226 821.027C813.509 816.337 856.77 824.147 876.83 824.517Z" fill="#FEF5FB" stroke="#4583FE" stroke-width="2"/>
<path d="M639.114 712.129C651.85 712.129 662.249 722.528 662.249 735.264V780.822C662.249 793.557 651.85 803.957 639.114 803.957C626.379 803.957 615.979 793.557 615.979 780.822V735.264C615.979 722.528 626.379 712.129 639.114 712.129Z" fill="#FEF5FB" stroke="#4583FE" stroke-width="2"/>
<path d="M639.115 843.737C639.657 843.737 640.2 843.195 640.2 842.653V738.249C640.2 737.706 639.657 737.164 639.115 737.164C638.573 737.164 638.03 737.706 638.03 738.249V842.653C638.03 843.466 638.573 843.737 639.115 843.737Z" fill="#4583FE"/>
<path d="M639.115 784.889C648.064 784.889 655.114 777.567 655.114 768.889C655.114 768.347 654.572 767.805 654.03 767.805C653.487 767.805 653.216 768.347 652.945 768.889C652.945 776.482 646.708 782.72 639.115 782.72C638.573 782.72 638.03 783.262 638.03 783.804C638.03 784.347 638.573 784.889 639.115 784.889Z" fill="#4583FE"/>
<path d="M639.114 761.026C639.656 761.026 640.198 760.483 640.198 759.941C640.198 759.399 639.656 758.856 639.114 758.856C631.521 758.856 625.284 752.619 625.284 745.026C625.284 744.484 624.741 743.941 624.199 743.941C623.657 743.941 623.114 744.484 623.114 745.026C623.114 753.704 630.165 761.026 639.114 761.026Z" fill="#4583FE"/>
<path d="M795.31 710C804.719 710 812.404 717.685 812.404 727.095V761.251C812.404 770.661 804.719 778.346 795.31 778.346C785.9 778.346 778.215 770.661 778.215 761.251V727.095C778.215 717.685 785.9 710 795.31 710Z" fill="#FEF5FB" stroke="#4583FE" stroke-width="2"/>
<path d="M795.31 808.421C795.717 808.421 796.124 808.015 796.124 807.608V729.333C796.124 728.926 795.717 728.52 795.31 728.52C794.904 728.52 794.497 728.926 794.497 729.333V807.608C794.497 808.218 794.904 808.421 795.31 808.421Z" fill="#4583FE"/>
<path d="M795.31 764.301C802.02 764.301 807.306 758.811 807.306 752.305C807.306 751.899 806.899 751.492 806.492 751.492C806.086 751.492 805.882 751.899 805.679 752.305C805.679 757.998 801.003 762.674 795.31 762.674C794.904 762.674 794.497 763.081 794.497 763.488C794.497 763.894 794.904 764.301 795.31 764.301Z" fill="#4583FE"/>
<path d="M795.31 746.41C795.716 746.41 796.123 746.004 796.123 745.597C796.123 745.19 795.716 744.784 795.31 744.784C789.617 744.784 784.941 740.108 784.941 734.415C784.941 734.008 784.534 733.602 784.128 733.602C783.721 733.602 783.314 734.008 783.314 734.415C783.314 740.921 788.601 746.41 795.31 746.41Z" fill="#4583FE"/>
<path d="M761 753.781V802C761 805.866 757.866 809 754 809H684C680.134 809 677 805.866 677 802V753.781C677 751.599 678.018 749.541 679.753 748.217L714.753 721.5C717.261 719.586 720.739 719.586 723.247 721.5L758.247 748.217C759.982 749.541 761 751.599 761 753.781Z" fill="#4583FE" stroke="#4583FE" stroke-width="2"/>
<path d="M711 781C711 776.582 714.582 773 719 773H720C724.418 773 728 776.582 728 781V809H711V781Z" fill="#FEF5FB" stroke="#4583FE" stroke-width="2"/>
<path d="M702 779H703V778V767C703 763.134 699.866 760 696 760C692.134 760 689 763.134 689 767V778V779H690H702Z" fill="#FFFFFE" stroke="#4583FE" stroke-width="2"/>
<path d="M695.75 760V778.5" stroke="#4583FE"/>
<path d="M703.25 769.25L689 769.25" stroke="#4583FE"/>
<path d="M749.75 779H750.75V778V767C750.75 763.134 747.616 760 743.75 760C739.884 760 736.75 763.134 736.75 767V778V779H737.75H749.75Z" fill="#FFFFFE" stroke="#4583FE" stroke-width="2"/>
<path d="M743.75 761V779.5" stroke="#4583FE"/>
<path d="M751.25 770.25L737 770.25" stroke="#4583FE"/>
<circle cx="724" cy="793" r="2" fill="#4583FE"/>
<path d="M728 809H711C724.428 873.117 627.19 880.284 586.406 919.58C548.229 956.364 582.227 1001.87 631.58 1025.09C701.097 1028.39 836.642 1029.1 819.518 1026.1C793.596 1021.56 681.385 982.059 696.885 941.787C710.875 905.438 766.884 862.01 728 809Z" fill="#FEF5FB" stroke="#4583FE" stroke-width="2"/>
<mask id="path-31-outside-6_30_6824" maskUnits="userSpaceOnUse" x="665.99" y="714.988" width="104" height="44" fill="black">
<rect fill="white" x="665.99" y="714.988" width="104" height="44"/>
<path fill-rule="evenodd" clip-rule="evenodd" d="M670.027 751.999C668.908 752.807 668.655 754.37 669.464 755.489C670.272 756.609 671.834 756.861 672.954 756.053L719.407 722.513L763.84 754.594C764.96 755.402 766.522 755.15 767.331 754.03C768.139 752.911 767.887 751.348 766.767 750.54L720.954 717.462C720.488 717.126 719.947 716.973 719.414 716.99C718.878 716.97 718.331 717.123 717.862 717.462L670.027 751.999Z"/>
</mask>
<path fill-rule="evenodd" clip-rule="evenodd" d="M670.027 751.999C668.908 752.807 668.655 754.37 669.464 755.489C670.272 756.609 671.834 756.861 672.954 756.053L719.407 722.513L763.84 754.594C764.96 755.402 766.522 755.15 767.331 754.03C768.139 752.911 767.887 751.348 766.767 750.54L720.954 717.462C720.488 717.126 719.947 716.973 719.414 716.99C718.878 716.97 718.331 717.123 717.862 717.462L670.027 751.999Z" fill="#FEF5FB"/>
<path d="M669.464 755.489L667.842 756.66L667.842 756.66L669.464 755.489ZM670.027 751.999L671.198 753.62L671.198 753.62L670.027 751.999ZM672.954 756.053L674.125 757.674L674.125 757.674L672.954 756.053ZM719.407 722.513L720.578 720.891L719.407 720.046L718.237 720.891L719.407 722.513ZM763.84 754.594L762.669 756.215L762.669 756.215L763.84 754.594ZM767.331 754.03L768.952 755.201L768.952 755.201L767.331 754.03ZM766.767 750.54L767.938 748.918L767.938 748.918L766.767 750.54ZM720.954 717.462L719.783 719.084L719.783 719.084L720.954 717.462ZM719.414 716.99L719.342 718.989L719.409 718.991L719.476 718.989L719.414 716.99ZM717.862 717.462L716.691 715.84L716.691 715.84L717.862 717.462ZM671.085 754.318C670.923 754.094 670.974 753.782 671.198 753.62L668.856 750.377C666.841 751.832 666.387 754.645 667.842 756.66L671.085 754.318ZM671.783 754.431C671.559 754.593 671.247 754.542 671.085 754.318L667.842 756.66C669.297 758.675 672.11 759.129 674.125 757.674L671.783 754.431ZM718.237 720.891L671.783 754.431L674.125 757.674L720.578 724.134L718.237 720.891ZM718.237 724.134L762.669 756.215L765.011 752.972L720.578 720.891L718.237 724.134ZM762.669 756.215C764.684 757.67 767.497 757.216 768.952 755.201L765.709 752.859C765.547 753.083 765.235 753.134 765.011 752.972L762.669 756.215ZM768.952 755.201C770.407 753.186 769.953 750.373 767.938 748.918L765.596 752.161C765.82 752.323 765.871 752.635 765.709 752.859L768.952 755.201ZM767.938 748.918L722.124 715.84L719.783 719.084L765.596 752.161L767.938 748.918ZM722.124 715.84C721.289 715.237 720.311 714.961 719.353 714.991L719.476 718.989C719.583 718.986 719.688 719.015 719.783 719.084L722.124 715.84ZM719.033 719.083C719.128 719.014 719.234 718.985 719.342 718.989L719.487 714.991C718.521 714.956 717.534 715.232 716.691 715.84L719.033 719.083ZM671.198 753.62L719.033 719.083L716.691 715.84L668.856 750.377L671.198 753.62Z" fill="#4583FE" mask="url(#path-31-outside-6_30_6824)"/>
<mask id="path-33-inside-7_30_6824" fill="white">
<path fill-rule="evenodd" clip-rule="evenodd" d="M1040.22 128.863C1049 128.488 1056 121.253 1056 112.384C1056 103.274 1048.61 95.8889 1039.51 95.8889C1036.9 95.8889 1034.44 96.4925 1032.25 97.5675C1029.63 91.9183 1023.91 88 1017.27 88C1009.6 88 1003.16 93.2343 1001.31 100.325C1000.67 100.237 1000.01 100.192 999.343 100.192C991.422 100.192 985 106.614 985 114.535C985 122.457 991.422 128.879 999.343 128.879C999.365 128.879 999.387 128.879 999.409 128.878H1039.41C1039.44 128.879 1039.47 128.879 1039.51 128.879C1039.54 128.879 1039.57 128.879 1039.6 128.878H1040.22V128.863Z"/>
</mask>
<path fill-rule="evenodd" clip-rule="evenodd" d="M1040.22 128.863C1049 128.488 1056 121.253 1056 112.384C1056 103.274 1048.61 95.8889 1039.51 95.8889C1036.9 95.8889 1034.44 96.4925 1032.25 97.5675C1029.63 91.9183 1023.91 88 1017.27 88C1009.6 88 1003.16 93.2343 1001.31 100.325C1000.67 100.237 1000.01 100.192 999.343 100.192C991.422 100.192 985 106.614 985 114.535C985 122.457 991.422 128.879 999.343 128.879C999.365 128.879 999.387 128.879 999.409 128.878H1039.41C1039.44 128.879 1039.47 128.879 1039.51 128.879C1039.54 128.879 1039.57 128.879 1039.6 128.878H1040.22V128.863Z" fill="#FFFFFE"/>
<path d="M1040.22 128.863L1040.09 125.866L1037.22 125.989V128.863H1040.22ZM1032.25 97.5675L1029.52 98.8288L1030.81 101.612L1033.57 100.261L1032.25 97.5675ZM1001.31 100.325L1000.9 103.298L1003.54 103.659L1004.21 101.082L1001.31 100.325ZM999.409 128.878L999.409 125.878L999.396 125.879L999.409 128.878ZM1039.41 128.878L1039.42 125.879L1039.41 125.878H1039.41V128.878ZM1039.6 128.878V125.878H1039.6L1039.59 125.879L1039.6 128.878ZM1040.22 128.878V131.878H1043.22V128.878H1040.22ZM1040.35 131.861C1050.73 131.417 1059 122.867 1059 112.384H1053C1053 119.64 1047.27 125.559 1040.09 125.866L1040.35 131.861ZM1059 112.384C1059 101.617 1050.27 92.8889 1039.51 92.8889V98.8889C1046.96 98.8889 1053 104.931 1053 112.384H1059ZM1039.51 92.8889C1036.43 92.8889 1033.52 93.6019 1030.93 94.8744L1033.57 100.261C1035.36 99.3831 1037.37 98.8889 1039.51 98.8889V92.8889ZM1034.97 96.3061C1031.88 89.6363 1025.12 85 1017.27 85V91C1022.7 91 1027.38 94.2003 1029.52 98.8288L1034.97 96.3061ZM1017.27 85C1008.2 85 1000.59 91.1892 998.406 99.5692L1004.21 101.082C1005.72 95.2794 1011 91 1017.27 91V85ZM1001.72 97.3532C1000.94 97.2466 1000.15 97.1918 999.343 97.1918V103.192C999.874 103.192 1000.39 103.228 1000.9 103.298L1001.72 97.3532ZM999.343 97.1918C989.765 97.1918 982 104.957 982 114.535H988C988 108.27 993.079 103.192 999.343 103.192V97.1918ZM982 114.535C982 124.114 989.765 131.879 999.343 131.879V125.879C993.079 125.879 988 120.8 988 114.535H982ZM999.343 131.879C999.37 131.879 999.396 131.879 999.423 131.878L999.396 125.879C999.378 125.879 999.361 125.879 999.343 125.879V131.879ZM1039.41 125.878H999.409V131.878H1039.41V125.878ZM1039.39 131.878C1039.43 131.879 1039.47 131.879 1039.51 131.879V125.879C1039.48 125.879 1039.45 125.879 1039.42 125.879L1039.39 131.878ZM1039.51 131.879C1039.54 131.879 1039.58 131.879 1039.62 131.878L1039.59 125.879C1039.56 125.879 1039.53 125.879 1039.51 125.879V131.879ZM1040.22 125.878H1039.6V131.878H1040.22V125.878ZM1037.22 128.863V128.878H1043.22V128.863H1037.22Z" fill="#4583FE" mask="url(#path-33-inside-7_30_6824)"/>
<path d="M1440 1023.5H0V1024.5H1440V1023.5Z" fill="#597183" mask="url(#path-3-inside-2_30_6824)"/>
</g>
<path d="M1440 1023.5H0V1024.5H1440V1023.5Z" fill="#597183" mask="url(#path-1-inside-1_30_6824)"/>
<defs>
<clipPath id="clip0_30_6824">
<path d="M0 0H1440V1024H0V0Z" fill="white"/>
</clipPath>
</defs>
</svg>
