<svg width="1440" height="1024" viewBox="0 0 1440 1024" fill="none" xmlns="http://www.w3.org/2000/svg">
<g clip-path="url(#clip0_653_404)">
<mask id="path-1-inside-1_653_404" fill="white">
<path d="M0 0H1440V1024H0V0Z"/>
</mask>
<path d="M0 0H1440V1024H0V0Z" fill="#EAF1FF"/>
<g filter="url(#filter0_b_653_404)">
<path d="M92.9956 68.2671C92.7979 68.6328 92.2662 68.6114 92.0984 68.2311L80.3096 41.5072C80.1638 41.1767 80.4058 40.8054 80.767 40.8054L88.0754 40.8054C88.8657 40.8054 89.582 41.2708 89.903 41.993L97.3089 58.6529C97.5608 59.2196 97.5356 59.8711 97.2406 60.4166L92.9956 68.2671Z" fill="#597183"/>
<circle cx="100.833" cy="44.9674" r="4.16666" fill="#597183"/>
<circle cx="85.2083" cy="74.1352" r="4.16666" fill="#597183"/>
<rect x="1336" y="48.1509" width="24" height="2" fill="#597183"/>
<rect x="1336" y="58.1509" width="24" height="2" fill="#597183"/>
<rect x="1336" y="68.1509" width="15" height="2" fill="#597183"/>
</g>
<mask id="path-9-inside-2_653_404" fill="white">
<path d="M0 0H1440V1024H0V0Z"/>
</mask>
<path d="M0 0H1440V1024H0V0Z" fill="#19242D"/>
<path d="M2.59302 419.771C59.4789 324.836 114.881 292.113 169.602 295.736C224.567 299.375 279.488 339.665 335.371 392.519C360.427 416.218 385.606 442.37 411.014 468.76C413.901 471.759 416.791 474.76 419.683 477.761C448.025 507.165 476.659 536.545 505.673 562.768C563.642 615.162 623.408 655.223 685.752 657.499C787.537 661.215 858.351 626.615 916.484 575.208C958.988 537.622 994.772 490.977 1030.92 443.863C1044.11 426.671 1057.34 409.416 1070.97 392.516C1122.03 329.209 1178.7 270.685 1259.32 238.013C1339.74 205.427 1444.18 198.478 1590.96 238.552L1665.22 1184.66L-113.351 1065.59C-124.783 969.094 -135.164 873.621 -123.138 769.485C-111.065 664.934 -76.3947 551.59 2.59302 419.771Z" fill="#11161B" stroke="#597183" stroke-width="3"/>
<mask id="path-12-inside-3_653_404" fill="white">
<path fill-rule="evenodd" clip-rule="evenodd" d="M477 556.418C498.139 555.513 515 538.089 515 516.727C515 494.787 497.214 477 475.273 477C469 477 463.067 478.454 457.792 481.043C451.487 467.437 437.709 458 421.727 458C403.256 458 387.728 470.607 383.28 487.685C381.732 487.473 380.152 487.364 378.545 487.364C359.467 487.364 344 502.83 344 521.909C344 540.988 359.467 556.455 378.545 556.455H475.273H477V556.418Z"/>
</mask>
<path fill-rule="evenodd" clip-rule="evenodd" d="M477 556.418C498.139 555.513 515 538.089 515 516.727C515 494.787 497.214 477 475.273 477C469 477 463.067 478.454 457.792 481.043C451.487 467.437 437.709 458 421.727 458C403.256 458 387.728 470.607 383.28 487.685C381.732 487.473 380.152 487.364 378.545 487.364C359.467 487.364 344 502.83 344 521.909C344 540.988 359.467 556.455 378.545 556.455H475.273H477V556.418Z" fill="#19242D"/>
<path d="M477 556.418L476.829 552.421L473 552.585V556.418H477ZM457.792 481.043L454.162 482.725L455.882 486.436L459.554 484.634L457.792 481.043ZM383.28 487.685L382.737 491.648L386.256 492.131L387.151 488.694L383.28 487.685ZM477 556.455V560.455H481V556.455H477ZM477.171 560.414C500.442 559.419 519 540.241 519 516.727H511C511 535.937 495.837 551.608 476.829 552.421L477.171 560.414ZM519 516.727C519 492.577 499.423 473 475.273 473V481C495.004 481 511 496.996 511 516.727H519ZM475.273 473C468.376 473 461.841 474.6 456.029 477.452L459.554 484.634C464.293 482.308 469.624 481 475.273 481V473ZM461.421 479.361C454.485 464.394 439.324 454 421.727 454V462C436.094 462 448.488 470.48 454.162 482.725L461.421 479.361ZM421.727 454C401.39 454 384.305 467.88 379.409 486.677L387.151 488.694C391.152 473.333 405.121 462 421.727 462V454ZM383.823 483.722C382.096 483.486 380.334 483.364 378.545 483.364V491.364C379.969 491.364 381.369 491.461 382.737 491.648L383.823 483.722ZM378.545 483.364C357.257 483.364 340 500.621 340 521.909H348C348 505.039 361.676 491.364 378.545 491.364V483.364ZM340 521.909C340 543.197 357.257 560.455 378.545 560.455V552.455C361.676 552.455 348 538.779 348 521.909H340ZM475.273 552.455H378.545V560.455H475.273V552.455ZM477 552.455H475.273V560.455H477V552.455ZM473 556.418V556.455H481V556.418H473Z" fill="#597183" mask="url(#path-12-inside-3_653_404)"/>
<mask id="path-14-inside-4_653_404" fill="white">
<path fill-rule="evenodd" clip-rule="evenodd" d="M353.222 194.44C361.999 194.064 369 186.83 369 177.96C369 168.85 361.615 161.465 352.505 161.465C349.901 161.465 347.437 162.069 345.247 163.144C342.629 157.495 336.908 153.576 330.273 153.576C322.603 153.576 316.156 158.81 314.309 165.902C313.667 165.813 313.01 165.768 312.343 165.768C304.422 165.768 298 172.19 298 180.111C298 188.033 304.422 194.455 312.343 194.455C312.365 194.455 312.387 194.455 312.409 194.455H352.406C352.439 194.455 352.472 194.455 352.505 194.455C352.538 194.455 352.571 194.455 352.605 194.455H353.222V194.44Z"/>
</mask>
<path fill-rule="evenodd" clip-rule="evenodd" d="M353.222 194.44C361.999 194.064 369 186.83 369 177.96C369 168.85 361.615 161.465 352.505 161.465C349.901 161.465 347.437 162.069 345.247 163.144C342.629 157.495 336.908 153.576 330.273 153.576C322.603 153.576 316.156 158.81 314.309 165.902C313.667 165.813 313.01 165.768 312.343 165.768C304.422 165.768 298 172.19 298 180.111C298 188.033 304.422 194.455 312.343 194.455C312.365 194.455 312.387 194.455 312.409 194.455H352.406C352.439 194.455 352.472 194.455 352.505 194.455C352.538 194.455 352.571 194.455 352.605 194.455H353.222V194.44Z" fill="#19242D"/>
<path d="M353.222 194.44L353.051 190.443L349.222 190.607V194.44H353.222ZM345.247 163.144L341.618 164.825L343.337 168.537L347.009 166.734L345.247 163.144ZM314.309 165.902L313.766 169.864L317.285 170.347L318.18 166.91L314.309 165.902ZM312.409 194.455V190.455H312.4L312.391 190.455L312.409 194.455ZM352.406 194.455L352.429 190.455L352.417 190.455H352.406V194.455ZM352.605 194.455V190.455H352.593L352.581 190.455L352.605 194.455ZM353.222 194.455V198.455H357.222V194.455H353.222ZM353.393 198.436C364.302 197.969 373 188.982 373 177.96H365C365 184.678 359.697 190.159 353.051 190.443L353.393 198.436ZM373 177.96C373 166.641 363.824 157.465 352.505 157.465V165.465C359.406 165.465 365 171.059 365 177.96H373ZM352.505 157.465C349.276 157.465 346.211 158.215 343.484 159.553L347.009 166.734C348.663 165.923 350.525 165.465 352.505 165.465V157.465ZM348.876 161.462C345.628 154.452 338.524 149.576 330.273 149.576V157.576C335.293 157.576 339.63 160.537 341.618 164.825L348.876 161.462ZM330.273 149.576C320.738 149.576 312.733 156.084 310.438 164.893L318.18 166.91C319.58 161.537 324.469 157.576 330.273 157.576V149.576ZM314.852 161.939C314.03 161.826 313.193 161.768 312.343 161.768V169.768C312.828 169.768 313.303 169.801 313.766 169.864L314.852 161.939ZM312.343 161.768C302.213 161.768 294 169.981 294 180.111H302C302 174.399 306.631 169.768 312.343 169.768V161.768ZM294 180.111C294 190.242 302.213 198.455 312.343 198.455V190.455C306.631 190.455 302 185.824 302 180.111H294ZM312.343 198.455C312.371 198.455 312.399 198.455 312.427 198.455L312.391 190.455C312.375 190.455 312.359 190.455 312.343 190.455V198.455ZM352.406 190.455H312.409V198.455H352.406V190.455ZM352.382 198.455C352.423 198.455 352.464 198.455 352.505 198.455V190.455C352.48 190.455 352.454 190.455 352.429 190.455L352.382 198.455ZM352.505 198.455C352.546 198.455 352.587 198.455 352.628 198.455L352.581 190.455C352.556 190.455 352.53 190.455 352.505 190.455V198.455ZM353.222 190.455H352.605V198.455H353.222V190.455ZM349.222 194.44V194.455H357.222V194.44H349.222Z" fill="#597183" mask="url(#path-14-inside-4_653_404)"/>
<mask id="path-16-inside-5_653_404" fill="white">
<path fill-rule="evenodd" clip-rule="evenodd" d="M1183 330.418C1204.14 329.513 1221 312.089 1221 290.727C1221 268.787 1203.21 251 1181.27 251C1175 251 1169.07 252.454 1163.79 255.043C1157.49 241.437 1143.71 232 1127.73 232C1109.26 232 1093.73 244.607 1089.28 261.685C1087.73 261.473 1086.15 261.364 1084.55 261.364C1065.47 261.364 1050 276.83 1050 295.909C1050 314.988 1065.47 330.455 1084.55 330.455H1181.27H1183V330.418Z"/>
</mask>
<path fill-rule="evenodd" clip-rule="evenodd" d="M1183 330.418C1204.14 329.513 1221 312.089 1221 290.727C1221 268.787 1203.21 251 1181.27 251C1175 251 1169.07 252.454 1163.79 255.043C1157.49 241.437 1143.71 232 1127.73 232C1109.26 232 1093.73 244.607 1089.28 261.685C1087.73 261.473 1086.15 261.364 1084.55 261.364C1065.47 261.364 1050 276.83 1050 295.909C1050 314.988 1065.47 330.455 1084.55 330.455H1181.27H1183V330.418Z" fill="#19242D"/>
<path d="M1183 330.418L1182.83 326.421L1179 326.585V330.418H1183ZM1163.79 255.043L1160.16 256.725L1161.88 260.436L1165.55 258.634L1163.79 255.043ZM1089.28 261.685L1088.74 265.648L1092.26 266.131L1093.15 262.694L1089.28 261.685ZM1183 330.455V334.455H1187V330.455H1183ZM1183.17 334.414C1206.44 333.419 1225 314.241 1225 290.727H1217C1217 309.937 1201.84 325.608 1182.83 326.421L1183.17 334.414ZM1225 290.727C1225 266.577 1205.42 247 1181.27 247V255C1201 255 1217 270.996 1217 290.727H1225ZM1181.27 247C1174.38 247 1167.84 248.6 1162.03 251.452L1165.55 258.634C1170.29 256.308 1175.62 255 1181.27 255V247ZM1167.42 253.361C1160.49 238.394 1145.32 228 1127.73 228V236C1142.09 236 1154.49 244.48 1160.16 256.725L1167.42 253.361ZM1127.73 228C1107.39 228 1090.31 241.88 1085.41 260.677L1093.15 262.694C1097.15 247.333 1111.12 236 1127.73 236V228ZM1089.82 257.722C1088.1 257.486 1086.33 257.364 1084.55 257.364V265.364C1085.97 265.364 1087.37 265.461 1088.74 265.648L1089.82 257.722ZM1084.55 257.364C1063.26 257.364 1046 274.621 1046 295.909H1054C1054 279.039 1067.68 265.364 1084.55 265.364V257.364ZM1046 295.909C1046 317.197 1063.26 334.455 1084.55 334.455V326.455C1067.68 326.455 1054 312.779 1054 295.909H1046ZM1181.27 326.455H1084.55V334.455H1181.27V326.455ZM1183 326.455H1181.27V334.455H1183V326.455ZM1179 330.418V330.455H1187V330.418H1179Z" fill="#597183" mask="url(#path-16-inside-5_653_404)"/>
<path d="M876.83 824.517C930.685 825.51 936.738 832.429 934.944 842.606C895.052 860.873 863 838.984 795.765 842.857C743.454 845.871 748.799 832.077 794.226 821.027C813.509 816.336 856.77 824.147 876.83 824.517Z" fill="#19242D" stroke="#597183" stroke-width="2"/>
<path d="M639.114 712.129C651.85 712.129 662.249 722.528 662.249 735.264V780.822C662.249 793.557 651.85 803.957 639.114 803.957C626.379 803.957 615.979 793.557 615.979 780.822V735.264C615.979 722.528 626.379 712.129 639.114 712.129Z" fill="#19242D" stroke="#597183" stroke-width="2"/>
<path d="M639.115 843.735C639.657 843.735 640.2 843.193 640.2 842.651V738.247C640.2 737.704 639.657 737.162 639.115 737.162C638.573 737.162 638.03 737.704 638.03 738.247V842.651C638.03 843.464 638.573 843.735 639.115 843.735Z" fill="#597183"/>
<path d="M639.115 784.89C648.064 784.89 655.114 777.568 655.114 768.89C655.114 768.348 654.572 767.806 654.03 767.806C653.487 767.806 653.216 768.348 652.945 768.89C652.945 776.483 646.708 782.721 639.115 782.721C638.573 782.721 638.03 783.263 638.03 783.805C638.03 784.348 638.573 784.89 639.115 784.89Z" fill="#597183"/>
<path d="M639.114 761.026C639.656 761.026 640.198 760.483 640.198 759.941C640.198 759.399 639.656 758.856 639.114 758.856C631.521 758.856 625.284 752.619 625.284 745.026C625.284 744.484 624.741 743.941 624.199 743.941C623.657 743.941 623.114 744.484 623.114 745.026C623.114 753.704 630.165 761.026 639.114 761.026Z" fill="#597183"/>
<path d="M795.31 710C804.719 710 812.404 717.685 812.404 727.095V761.251C812.404 770.661 804.719 778.346 795.31 778.346C785.9 778.346 778.215 770.661 778.215 761.251V727.095C778.215 717.685 785.9 710 795.31 710Z" fill="#19242D" stroke="#597183" stroke-width="2"/>
<path d="M795.31 808.42C795.716 808.42 796.123 808.013 796.123 807.606V729.331C796.123 728.925 795.716 728.518 795.31 728.518C794.903 728.518 794.497 728.925 794.497 729.331V807.606C794.497 808.216 794.903 808.42 795.31 808.42Z" fill="#597183"/>
<path d="M795.31 764.301C802.019 764.301 807.305 758.812 807.305 752.306C807.305 751.899 806.899 751.493 806.492 751.493C806.085 751.493 805.882 751.899 805.679 752.306C805.679 757.999 801.003 762.675 795.31 762.675C794.903 762.675 794.497 763.081 794.497 763.488C794.497 763.895 794.903 764.301 795.31 764.301Z" fill="#597183"/>
<path d="M795.31 746.409C795.716 746.409 796.123 746.003 796.123 745.596C796.123 745.189 795.716 744.783 795.31 744.783C789.617 744.783 784.941 740.107 784.941 734.414C784.941 734.007 784.534 733.601 784.127 733.601C783.721 733.601 783.314 734.007 783.314 734.414C783.314 740.92 788.6 746.409 795.31 746.409Z" fill="#597183"/>
<path d="M677 753.781C677 751.599 678.018 749.541 679.753 748.217L714.753 721.5C717.261 719.586 720.739 719.586 723.247 721.5L758.247 748.217C759.982 749.541 761 751.599 761 753.781V802C761 805.866 757.866 809 754 809H684C680.134 809 677 805.866 677 802V753.781Z" fill="#11161B" stroke="#597183" stroke-width="2"/>
<path d="M711 781C711 776.582 714.582 773 719 773H720C724.418 773 728 776.582 728 781V809H711V781Z" fill="#11161B" stroke="#597183" stroke-width="2"/>
<path d="M702 779H703V778V767C703 763.134 699.866 760 696 760C692.134 760 689 763.134 689 767V778V779H690H702Z" fill="#FEF5FB" stroke="#597183" stroke-width="2"/>
<path d="M695.75 760V778.5" stroke="#597183"/>
<path d="M703.25 769.25L689 769.25" stroke="#597183"/>
<path d="M749.75 779H750.75V778V767C750.75 763.134 747.616 760 743.75 760C739.884 760 736.75 763.134 736.75 767V778V779H737.75H749.75Z" fill="#FEF5FB" stroke="#597183" stroke-width="2"/>
<path d="M743.75 761V779.5" stroke="#597183"/>
<path d="M751.25 770.25L737 770.25" stroke="#597183"/>
<g filter="url(#filter1_f_653_404)">
<path d="M738 767C738 763.686 740.686 761 744 761V761C747.314 761 750 763.686 750 767V778H738V767Z" fill="#FF9BD7"/>
</g>
<circle cx="724" cy="793" r="2" fill="#597183"/>
<g filter="url(#filter2_f_653_404)">
<path d="M690 767C690 763.686 692.686 761 696 761V761C699.314 761 702 763.686 702 767V778H690V767Z" fill="#FF9BD7"/>
</g>
<path d="M728 809H711C724.428 873.117 627.19 880.284 586.406 919.58C548.229 956.364 582.227 1001.87 631.58 1025.09C701.097 1028.39 836.642 1029.1 819.518 1026.1C793.596 1021.56 681.385 982.059 696.885 941.787C710.875 905.438 766.884 862.01 728 809Z" fill="#19242D" stroke="#597183" stroke-width="2"/>
<mask id="path-39-outside-6_653_404" maskUnits="userSpaceOnUse" x="665.99" y="714.99" width="104" height="44" fill="black">
<rect fill="white" x="665.99" y="714.99" width="104" height="44"/>
<path fill-rule="evenodd" clip-rule="evenodd" d="M670.027 752C668.908 752.808 668.655 754.371 669.464 755.491C670.272 756.61 671.834 756.862 672.954 756.054L719.407 722.514L763.84 754.595C764.96 755.403 766.522 755.151 767.331 754.032C768.139 752.912 767.887 751.349 766.767 750.541L720.954 717.463C720.488 717.128 719.947 716.975 719.414 716.991C718.878 716.972 718.331 717.124 717.862 717.463L670.027 752Z"/>
</mask>
<path fill-rule="evenodd" clip-rule="evenodd" d="M670.027 752C668.908 752.808 668.655 754.371 669.464 755.491C670.272 756.61 671.834 756.862 672.954 756.054L719.407 722.514L763.84 754.595C764.96 755.403 766.522 755.151 767.331 754.032C768.139 752.912 767.887 751.349 766.767 750.541L720.954 717.463C720.488 717.128 719.947 716.975 719.414 716.991C718.878 716.972 718.331 717.124 717.862 717.463L670.027 752Z" fill="#19242D"/>
<path d="M669.464 755.491L667.842 756.661L667.842 756.661L669.464 755.491ZM670.027 752L671.198 753.622H671.198L670.027 752ZM672.954 756.054L674.125 757.676H674.125L672.954 756.054ZM719.407 722.514L720.578 720.893L719.407 720.047L718.237 720.893L719.407 722.514ZM763.84 754.595L762.669 756.217H762.669L763.84 754.595ZM767.331 754.032L768.952 755.202V755.202L767.331 754.032ZM766.767 750.541L767.938 748.92L767.938 748.92L766.767 750.541ZM720.954 717.463L719.783 719.085L719.783 719.085L720.954 717.463ZM719.414 716.991L719.342 718.99L719.409 718.993L719.476 718.99L719.414 716.991ZM717.862 717.463L716.691 715.842V715.842L717.862 717.463ZM671.085 754.32C670.923 754.096 670.974 753.783 671.198 753.622L668.856 750.379C666.841 751.834 666.387 754.646 667.842 756.661L671.085 754.32ZM671.783 754.433C671.559 754.594 671.247 754.544 671.085 754.32L667.842 756.661C669.297 758.676 672.11 759.13 674.125 757.676L671.783 754.433ZM718.237 720.893L671.783 754.433L674.125 757.676L720.578 724.136L718.237 720.893ZM718.237 724.136L762.669 756.217L765.011 752.974L720.578 720.893L718.237 724.136ZM762.669 756.217C764.684 757.671 767.497 757.217 768.952 755.202L765.709 752.861C765.547 753.085 765.235 753.135 765.011 752.974L762.669 756.217ZM768.952 755.202C770.407 753.187 769.953 750.375 767.938 748.92L765.596 752.163C765.82 752.324 765.871 752.637 765.709 752.861L768.952 755.202ZM767.938 748.92L722.124 715.842L719.783 719.085L765.596 752.163L767.938 748.92ZM722.124 715.842C721.289 715.239 720.311 714.963 719.353 714.992L719.476 718.99C719.583 718.987 719.688 719.017 719.783 719.085L722.124 715.842ZM719.033 719.085C719.128 719.016 719.234 718.986 719.342 718.99L719.487 714.993C718.521 714.958 717.534 715.233 716.691 715.842L719.033 719.085ZM671.198 753.622L719.033 719.085L716.691 715.842L668.856 750.379L671.198 753.622Z" fill="#597183" mask="url(#path-39-outside-6_653_404)"/>
<mask id="path-41-inside-7_653_404" fill="white">
<path fill-rule="evenodd" clip-rule="evenodd" d="M1040.22 128.863C1049 128.488 1056 121.253 1056 112.384C1056 103.274 1048.61 95.8889 1039.51 95.8889C1036.9 95.8889 1034.44 96.4925 1032.25 97.5675C1029.63 91.9183 1023.91 88 1017.27 88C1009.6 88 1003.16 93.2343 1001.31 100.325C1000.67 100.237 1000.01 100.192 999.343 100.192C991.422 100.192 985 106.614 985 114.535C985 122.457 991.422 128.879 999.343 128.879C999.365 128.879 999.387 128.879 999.409 128.878H1039.41C1039.44 128.879 1039.47 128.879 1039.51 128.879C1039.54 128.879 1039.57 128.879 1039.6 128.878H1040.22V128.863Z"/>
</mask>
<path fill-rule="evenodd" clip-rule="evenodd" d="M1040.22 128.863C1049 128.488 1056 121.253 1056 112.384C1056 103.274 1048.61 95.8889 1039.51 95.8889C1036.9 95.8889 1034.44 96.4925 1032.25 97.5675C1029.63 91.9183 1023.91 88 1017.27 88C1009.6 88 1003.16 93.2343 1001.31 100.325C1000.67 100.237 1000.01 100.192 999.343 100.192C991.422 100.192 985 106.614 985 114.535C985 122.457 991.422 128.879 999.343 128.879C999.365 128.879 999.387 128.879 999.409 128.878H1039.41C1039.44 128.879 1039.47 128.879 1039.51 128.879C1039.54 128.879 1039.57 128.879 1039.6 128.878H1040.22V128.863Z" fill="#19242D"/>
<path d="M1040.22 128.863L1040.05 124.867L1036.22 125.031V128.863H1040.22ZM1032.25 97.5675L1028.62 99.2493L1030.34 102.96L1034.01 101.158L1032.25 97.5675ZM1001.31 100.325L1000.77 104.288L1004.28 104.771L1005.18 101.334L1001.31 100.325ZM999.409 128.878V124.878H999.4L999.391 124.879L999.409 128.878ZM1039.41 128.878L1039.43 124.879L1039.42 124.878H1039.41V128.878ZM1039.6 128.878V124.878H1039.59L1039.58 124.879L1039.6 128.878ZM1040.22 128.878V132.878H1044.22V128.878H1040.22ZM1040.39 132.86C1051.3 132.393 1060 123.405 1060 112.384H1052C1052 119.102 1046.7 124.583 1040.05 124.867L1040.39 132.86ZM1060 112.384C1060 101.065 1050.82 91.8889 1039.51 91.8889V99.8889C1046.41 99.8889 1052 105.483 1052 112.384H1060ZM1039.51 91.8889C1036.28 91.8889 1033.21 92.6384 1030.48 93.9767L1034.01 101.158C1035.66 100.347 1037.52 99.8889 1039.51 99.8889V91.8889ZM1035.88 95.8857C1032.63 88.8756 1025.52 84 1017.27 84V92C1022.29 92 1026.63 94.961 1028.62 99.2493L1035.88 95.8857ZM1017.27 84C1007.74 84 999.733 90.5075 997.438 99.3171L1005.18 101.334C1006.58 95.9611 1011.47 92 1017.27 92V84ZM1001.85 96.3624C1001.03 96.2497 1000.19 96.1918 999.343 96.1918V104.192C999.828 104.192 1000.3 104.225 1000.77 104.288L1001.85 96.3624ZM999.343 96.1918C989.213 96.1918 981 104.404 981 114.535H989C989 108.823 993.631 104.192 999.343 104.192V96.1918ZM981 114.535C981 124.666 989.213 132.879 999.343 132.879V124.879C993.631 124.879 989 120.248 989 114.535H981ZM999.343 132.879C999.371 132.879 999.399 132.879 999.427 132.878L999.391 124.879C999.375 124.879 999.359 124.879 999.343 124.879V132.879ZM1039.41 124.878H999.409V132.878H1039.41V124.878ZM1039.38 132.878C1039.42 132.879 1039.46 132.879 1039.51 132.879V124.879C1039.48 124.879 1039.45 124.879 1039.43 124.879L1039.38 132.878ZM1039.51 132.879C1039.55 132.879 1039.59 132.879 1039.63 132.878L1039.58 124.879C1039.56 124.879 1039.53 124.879 1039.51 124.879V132.879ZM1040.22 124.878H1039.6V132.878H1040.22V124.878ZM1036.22 128.863V128.878H1044.22V128.863H1036.22Z" fill="#597183" mask="url(#path-41-inside-7_653_404)"/>
<path d="M1440 1023.5H0V1024.5H1440V1023.5Z" fill="#597183" mask="url(#path-9-inside-2_653_404)"/>
<path d="M1328 62V78" stroke="#597183" stroke-width="2"/>
<path d="M1336 70L1320 70" stroke="#597183" stroke-width="2"/>
<path d="M361 55V71" stroke="#597183" stroke-width="2"/>
<path d="M369 63L353 63" stroke="#597183" stroke-width="2"/>
<path d="M66 154V170" stroke="#597183" stroke-width="2"/>
<path d="M74 162L58 162" stroke="#597183" stroke-width="2"/>
<path d="M1167 162V178" stroke="#597183" stroke-width="2"/>
<path d="M1175 170L1159 170" stroke="#597183" stroke-width="2"/>
<path d="M840 80V96" stroke="#597183" stroke-width="2"/>
<path d="M848 88L832 88" stroke="#597183" stroke-width="2"/>
<path d="M607 154V170" stroke="#597183" stroke-width="2"/>
<path d="M615 162L599 162" stroke="#597183" stroke-width="2"/>
<path d="M189 224V240" stroke="#597183" stroke-width="2"/>
<path d="M197 232L181 232" stroke="#597183" stroke-width="2"/>
<path d="M870 548V564" stroke="#597183" stroke-width="2"/>
<path d="M878 556L862 556" stroke="#597183" stroke-width="2"/>
<path d="M578 499V515" stroke="#597183" stroke-width="2"/>
<path d="M586 507L570 507" stroke="#597183" stroke-width="2"/>
<path d="M385 328V344" stroke="#597183" stroke-width="2"/>
<path d="M393 336L377 336" stroke="#597183" stroke-width="2"/>
</g>
<path d="M1440 1023.5H0V1024.5H1440V1023.5Z" fill="#597183" mask="url(#path-1-inside-1_653_404)"/>
<defs>
<filter id="filter0_b_653_404" x="-4" y="-4" width="1448" height="126.302" filterUnits="userSpaceOnUse" color-interpolation-filters="sRGB">
<feFlood flood-opacity="0" result="BackgroundImageFix"/>
<feGaussianBlur in="BackgroundImageFix" stdDeviation="2"/>
<feComposite in2="SourceAlpha" operator="in" result="effect1_backgroundBlur_653_404"/>
<feBlend mode="normal" in="SourceGraphic" in2="effect1_backgroundBlur_653_404" result="shape"/>
</filter>
<filter id="filter1_f_653_404" x="722" y="745" width="44" height="49" filterUnits="userSpaceOnUse" color-interpolation-filters="sRGB">
<feFlood flood-opacity="0" result="BackgroundImageFix"/>
<feBlend mode="normal" in="SourceGraphic" in2="BackgroundImageFix" result="shape"/>
<feGaussianBlur stdDeviation="8" result="effect1_foregroundBlur_653_404"/>
</filter>
<filter id="filter2_f_653_404" x="674" y="745" width="44" height="49" filterUnits="userSpaceOnUse" color-interpolation-filters="sRGB">
<feFlood flood-opacity="0" result="BackgroundImageFix"/>
<feBlend mode="normal" in="SourceGraphic" in2="BackgroundImageFix" result="shape"/>
<feGaussianBlur stdDeviation="8" result="effect1_foregroundBlur_653_404"/>
</filter>
<clipPath id="clip0_653_404">
<path d="M0 0H1440V1024H0V0Z" fill="white"/>
</clipPath>
</defs>
</svg>
