<svg width="2198" height="1313" viewBox="0 0 2198 1313" fill="none" xmlns="http://www.w3.org/2000/svg">
<g clip-path="url(#clip0_536_111)">
<path d="M2226.24 -6.10474H-20.5403V1354.51H2226.24V-6.10474Z" fill="#20253A"/>
<g filter="url(#filter0_d_536_111)">
<path d="M-248.761 731.405C-248.761 731.405 -43.1885 104.812 144.382 91.4556C325.565 78.0992 673.412 603.648 752.389 677.979C831.366 752.311 1455.05 950.335 1455.05 950.335C1455.05 950.335 2000.92 -4.9433 2075.83 -21.2034C2150.75 -37.4634 2301.15 3.76745 2301.15 3.76745L2406.26 1342.9L-195.335 1182.04L-248.761 731.405Z" fill="#20253A"/>
</g>
<path d="M-362 885.876C-362 885.876 -13.5721 224.44 208.26 197.146C322.661 183.209 529.395 435.24 604.888 433.498C708.835 431.175 790.716 282.512 866.209 281.931C937.056 281.931 1128.69 666.946 1286.65 649.524C1422.53 634.426 1674.56 278.447 1772.7 296.449C1871.42 314.451 2115.9 781.928 2156.55 810.964C2197.2 839.999 2324.38 1361.48 2324.38 1361.48L-42.6077 1342.32L-362 885.876Z" fill="#1F234A"/>
<path d="M2288.38 1310.96L2237.27 374.264C2237.27 374.264 2036.35 169.272 1821.48 424.206C1606.62 679.141 1273.21 1140.98 1048.5 1128.5C823.785 1116.02 734.387 906.201 603.146 781.927C471.905 657.654 59.5984 439.305 -27.5086 424.206C-114.616 409.107 -68.1585 1420.13 -68.1585 1420.13L2287.8 1394.58L2288.38 1310.96Z" fill="#002C84"/>
<path d="M1319.17 284.254C1283.74 280.189 1248.32 273.22 1213.48 278.447C1178.63 283.673 1117.66 304.579 1131.59 337.099C1140.89 359.747 1176.89 358.586 1200.7 357.424C1225.09 356.263 1247.16 342.906 1270.97 337.099C1334.26 320.839 1402.21 355.682 1464.92 337.68C1476.54 334.195 1498.02 325.485 1491.06 315.612C1457.96 263.929 1378.98 290.642 1319.17 284.254Z" fill="#002C84"/>
<path d="M331.952 211.083C317.434 208.179 301.174 200.63 297.69 186.112C294.206 172.175 305.239 158.238 318.015 150.689C355.181 129.783 400.476 147.785 442.868 151.269C460.87 152.431 478.873 151.269 497.455 149.527C543.913 145.462 597.919 112.361 637.407 137.913C653.087 148.366 632.181 175.659 615.921 185.531C599.661 195.404 580.497 196.565 561.334 197.146C533.46 197.727 505.585 197.146 477.711 194.823C466.097 193.662 455.063 192.5 443.449 194.823C402.799 203.534 374.925 219.794 331.952 211.083Z" fill="#002C84"/>
<path d="M1961.43 486.923C1999.76 486.923 2031.12 518.282 2031.12 556.609V687.851C2031.12 726.178 1999.76 757.537 1961.43 757.537C1923.11 757.537 1891.75 726.178 1891.75 687.851V556.028C1891.75 517.701 1923.11 486.923 1961.43 486.923Z" fill="#181D54"/>
<path d="M1961.43 869.035C1963.18 869.035 1964.34 867.873 1964.34 866.131V564.739C1964.34 562.997 1963.18 561.255 1961.43 561.255C1959.69 561.255 1957.95 562.416 1957.95 564.159V564.739V866.131C1957.95 867.873 1959.69 869.035 1961.43 869.035Z" fill="#BCD6FF"/>
<path d="M1961.43 698.885C1986.99 698.885 2007.89 677.979 2007.89 652.427C2007.89 650.685 2006.15 649.524 2004.41 649.524C2002.67 649.524 2001.5 650.685 2001.5 652.427C2001.5 674.494 1983.5 692.497 1961.43 692.497C1959.69 692.497 1957.95 693.658 1957.95 695.4C1957.95 697.142 1959.11 698.885 1961.43 698.885C1960.85 698.885 1960.85 698.885 1961.43 698.885Z" fill="#BCD6FF"/>
<path d="M1961.43 630.36C1963.18 630.36 1964.34 628.618 1964.34 626.876C1964.34 625.134 1963.18 623.973 1961.43 623.973C1939.37 623.973 1921.37 605.97 1921.37 583.903C1921.37 582.161 1920.2 580.419 1918.46 580.419C1916.72 580.419 1914.98 581.58 1914.98 583.322V583.903C1914.98 609.455 1935.88 630.36 1961.43 630.36Z" fill="#BCD6FF"/>
<path d="M196.646 873.276C176.321 873.276 160.061 857.016 160.061 836.69V767.585C160.061 747.26 176.321 731 196.646 731C216.971 731 233.231 747.26 233.231 767.585V836.69C233.811 856.435 216.971 873.276 196.646 873.276Z" fill="#181D54"/>
<path d="M196.646 931.927C195.485 931.927 194.904 931.346 194.904 930.185V771.649C194.904 770.488 196.065 770.488 197.227 770.488C197.807 770.488 198.388 771.068 198.388 771.649V930.185C198.388 931.346 197.807 931.927 196.646 931.927Z" fill="#BCD6FF"/>
<path d="M196.646 842.497C183.29 842.497 172.256 831.463 172.256 818.106C172.256 816.945 173.418 816.945 174.579 816.945C175.16 816.945 175.741 817.526 175.741 818.106C175.741 829.721 185.032 839.012 196.646 839.012C197.808 839.012 197.808 840.174 197.808 841.335C197.808 841.916 197.227 842.497 196.646 842.497Z" fill="#BCD6FF"/>
<path d="M196.647 806.492C195.485 806.492 194.904 806.492 194.324 805.331C194.324 804.17 194.324 803.589 195.485 803.008C196.066 803.008 196.066 803.008 196.647 803.008C208.261 803.008 217.552 793.717 217.552 782.102C217.552 780.941 218.714 780.941 219.875 780.941C220.456 780.941 221.037 781.522 221.037 782.102C221.037 795.459 210.584 806.492 196.647 806.492Z" fill="#BCD6FF"/>
<path d="M1636.82 956.723C1616.49 956.723 1600.23 940.463 1600.23 920.138V851.033C1600.23 830.708 1616.49 814.448 1636.82 814.448C1657.14 814.448 1673.4 830.708 1673.4 851.033V920.138C1673.4 940.463 1656.56 956.723 1636.82 956.723Z" fill="#181D54"/>
<path d="M1636.81 1015.96C1635.65 1015.96 1635.07 1015.38 1635.07 1014.21V855.678C1635.07 854.517 1636.23 854.517 1637.4 854.517C1637.98 854.517 1638.56 855.098 1638.56 855.678V1014.21C1637.98 1015.38 1637.4 1015.96 1636.81 1015.96Z" fill="#BCD6FF"/>
<path d="M1636.82 926.526C1623.46 926.526 1612.43 915.492 1612.43 902.136C1612.43 900.974 1612.43 900.394 1613.59 899.813C1614.75 899.813 1615.33 899.813 1615.91 900.974C1615.91 901.555 1615.91 901.555 1615.91 902.136C1615.91 913.75 1625.2 923.042 1636.82 923.042C1637.98 923.042 1637.98 924.203 1637.98 925.364C1637.4 925.945 1637.4 925.945 1636.82 926.526Z" fill="#BCD6FF"/>
<path d="M1636.82 890.521C1635.65 890.521 1635.07 890.521 1634.49 889.36C1633.91 888.199 1634.49 887.618 1635.65 887.037C1636.23 887.037 1636.23 887.037 1636.82 887.037C1648.43 887.037 1657.72 877.746 1657.72 866.131C1657.72 864.97 1658.88 864.97 1660.04 864.97C1660.62 864.97 1661.21 865.551 1661.21 866.131C1661.21 879.488 1650.17 890.521 1636.82 890.521Z" fill="#BCD6FF"/>
<path d="M561.335 861.485C589.79 861.485 613.018 884.714 613.018 913.169V1010.73C613.018 1039.18 589.79 1062.41 561.335 1062.41C532.88 1062.41 509.651 1039.18 509.651 1010.73V913.169C509.651 884.714 532.88 861.485 561.335 861.485Z" fill="#181D54"/>
<path d="M561.335 1145.46C562.496 1145.46 563.657 1144.29 563.657 1143.13V919.557C563.657 918.396 562.496 917.234 561.335 917.234C560.173 917.234 559.012 918.396 559.012 919.557V1143.13C559.012 1144.88 560.173 1145.46 561.335 1145.46Z" fill="#BCD6FF"/>
<path d="M561.335 1019.44C580.498 1019.44 595.597 1003.76 595.597 985.178C595.597 984.017 594.435 982.856 593.274 982.856C592.112 982.856 591.532 984.017 590.951 985.178C590.951 1001.44 577.595 1014.8 561.335 1014.8C560.173 1014.8 559.012 1015.96 559.012 1017.12C559.012 1018.28 560.173 1019.44 561.335 1019.44Z" fill="#BCD6FF"/>
<path d="M561.335 968.338C562.496 968.338 563.657 967.176 563.657 966.015C563.657 964.853 562.496 963.692 561.335 963.692C545.075 963.692 531.718 950.335 531.718 934.075C531.718 932.914 530.557 931.752 529.395 931.752C528.234 931.752 527.073 932.914 527.073 934.075C527.073 952.658 542.171 968.338 561.335 968.338Z" fill="#BCD6FF"/>
<path d="M468 473.2C476.809 473.2 484 480.391 484 489.2V519.402C484 528.211 476.809 535.402 468 535.402C459.191 535.402 452 528.211 452 519.402V489.2C452 480.391 459.191 473.2 468 473.2Z" fill="#002C84"/>
<path d="M468 561.111C468.36 561.111 468.719 560.751 468.719 560.391V491.178C468.719 490.818 468.36 490.458 468 490.458C467.641 490.458 467.281 490.818 467.281 491.178V560.391C467.281 560.931 467.641 561.111 468 561.111Z" fill="#BCD6FF"/>
<path d="M468 522.099C473.933 522.099 478.607 517.245 478.607 511.492C478.607 511.133 478.247 510.773 477.888 510.773C477.528 510.773 477.348 511.133 477.169 511.492C477.169 516.526 473.034 520.661 468 520.661C467.641 520.661 467.281 521.021 467.281 521.38C467.281 521.74 467.641 522.099 468 522.099Z" fill="#BCD6FF"/>
<path d="M468 506.279C468.36 506.279 468.719 505.919 468.719 505.56C468.719 505.2 468.36 504.841 468 504.841C462.966 504.841 458.832 500.706 458.832 495.672C458.832 495.312 458.472 494.953 458.112 494.953C457.753 494.953 457.393 495.312 457.393 495.672C457.393 501.425 462.067 506.279 468 506.279Z" fill="#BCD6FF"/>
<path d="M762.268 376C768.472 376 773.536 381.064 773.536 387.268V408.538C773.536 414.742 768.472 419.806 762.268 419.806C756.064 419.806 751 414.742 751 408.538V387.268C751 381.064 756.064 376 762.268 376Z" fill="#002C84"/>
<path d="M762.268 437.911C762.521 437.911 762.774 437.658 762.774 437.404V388.661C762.774 388.408 762.521 388.154 762.268 388.154C762.015 388.154 761.761 388.408 761.761 388.661V437.404C761.761 437.784 762.015 437.911 762.268 437.911Z" fill="#BCD6FF"/>
<path d="M762.268 410.437C766.446 410.437 769.738 407.019 769.738 402.967C769.738 402.714 769.484 402.461 769.231 402.461C768.978 402.461 768.851 402.714 768.725 402.967C768.725 406.512 765.813 409.424 762.268 409.424C762.015 409.424 761.761 409.677 761.761 409.931C761.761 410.184 762.015 410.437 762.268 410.437Z" fill="#BCD6FF"/>
<path d="M762.268 399.296C762.521 399.296 762.774 399.042 762.774 398.789C762.774 398.536 762.521 398.283 762.268 398.283C758.723 398.283 755.811 395.371 755.811 391.826C755.811 391.573 755.558 391.319 755.305 391.319C755.051 391.319 754.798 391.573 754.798 391.826C754.798 395.877 758.09 399.296 762.268 399.296Z" fill="#BCD6FF"/>
<path d="M1728.5 420C1732.63 420 1736 423.371 1736 427.5V441.657C1736 445.787 1732.63 449.157 1728.5 449.157C1724.37 449.157 1721 445.787 1721 441.657V427.5C1721 423.371 1724.37 420 1728.5 420Z" fill="#002C84"/>
<path d="M1728.5 461.208C1728.67 461.208 1728.84 461.04 1728.84 460.871V428.427C1728.84 428.259 1728.67 428.09 1728.5 428.09C1728.33 428.09 1728.16 428.259 1728.16 428.427V460.871C1728.16 461.124 1728.33 461.208 1728.5 461.208Z" fill="#BCD6FF"/>
<path d="M1728.5 442.922C1731.28 442.922 1733.47 440.646 1733.47 437.95C1733.47 437.781 1733.3 437.612 1733.13 437.612C1732.97 437.612 1732.88 437.781 1732.8 437.95C1732.8 440.309 1730.86 442.247 1728.5 442.247C1728.33 442.247 1728.16 442.416 1728.16 442.584C1728.16 442.753 1728.33 442.922 1728.5 442.922Z" fill="#BCD6FF"/>
<path d="M1728.5 435.506C1728.67 435.506 1728.84 435.337 1728.84 435.169C1728.84 435 1728.67 434.832 1728.5 434.832C1726.14 434.832 1724.2 432.893 1724.2 430.534C1724.2 430.365 1724.03 430.197 1723.87 430.197C1723.7 430.197 1723.53 430.365 1723.53 430.534C1723.53 433.23 1725.72 435.506 1728.5 435.506Z" fill="#BCD6FF"/>
<path d="M1167.27 1000C1161.06 1000 1156 1005.06 1156 1011.27V1032.54C1156 1038.74 1161.06 1043.81 1167.27 1043.81C1173.47 1043.81 1178.54 1038.74 1178.54 1032.54V1011.27C1178.54 1005.06 1173.47 1000 1167.27 1000Z" fill="#002C84"/>
<path d="M1167.27 1061.91C1167.01 1061.91 1166.76 1061.66 1166.76 1061.4V1012.66C1166.76 1012.41 1167.01 1012.15 1167.27 1012.15C1167.52 1012.15 1167.77 1012.41 1167.77 1012.66V1061.4C1167.77 1061.78 1167.52 1061.91 1167.27 1061.91Z" fill="#BCD6FF"/>
<path d="M1167.27 1034.44C1163.09 1034.44 1159.8 1031.02 1159.8 1026.97C1159.8 1026.71 1160.05 1026.46 1160.3 1026.46C1160.56 1026.46 1160.68 1026.71 1160.81 1026.97C1160.81 1030.51 1163.72 1033.42 1167.27 1033.42C1167.52 1033.42 1167.77 1033.68 1167.77 1033.93C1167.77 1034.18 1167.52 1034.44 1167.27 1034.44Z" fill="#BCD6FF"/>
<path d="M1167.27 1023.3C1167.01 1023.3 1166.76 1023.04 1166.76 1022.79C1166.76 1022.54 1167.01 1022.28 1167.27 1022.28C1170.81 1022.28 1173.72 1019.37 1173.72 1015.83C1173.72 1015.57 1173.98 1015.32 1174.23 1015.32C1174.48 1015.32 1174.74 1015.57 1174.74 1015.83C1174.74 1019.88 1171.45 1023.3 1167.27 1023.3Z" fill="#BCD6FF"/>
<path d="M1025.27 1035C1019.06 1035 1014 1040.06 1014 1046.27V1067.54C1014 1073.74 1019.06 1078.81 1025.27 1078.81C1031.47 1078.81 1036.54 1073.74 1036.54 1067.54V1046.27C1036.54 1040.06 1031.47 1035 1025.27 1035Z" fill="#002C84"/>
<path d="M1025.27 1096.91C1025.01 1096.91 1024.76 1096.66 1024.76 1096.4V1047.66C1024.76 1047.41 1025.01 1047.15 1025.27 1047.15C1025.52 1047.15 1025.77 1047.41 1025.77 1047.66V1096.4C1025.77 1096.78 1025.52 1096.91 1025.27 1096.91Z" fill="#BCD6FF"/>
<path d="M1025.27 1069.44C1021.09 1069.44 1017.8 1066.02 1017.8 1061.97C1017.8 1061.71 1018.05 1061.46 1018.3 1061.46C1018.56 1061.46 1018.68 1061.71 1018.81 1061.97C1018.81 1065.51 1021.72 1068.42 1025.27 1068.42C1025.52 1068.42 1025.77 1068.68 1025.77 1068.93C1025.77 1069.18 1025.52 1069.44 1025.27 1069.44Z" fill="#BCD6FF"/>
<path d="M1025.27 1058.3C1025.01 1058.3 1024.76 1058.04 1024.76 1057.79C1024.76 1057.54 1025.01 1057.28 1025.27 1057.28C1028.81 1057.28 1031.72 1054.37 1031.72 1050.83C1031.72 1050.57 1031.98 1050.32 1032.23 1050.32C1032.48 1050.32 1032.74 1050.57 1032.74 1050.83C1032.74 1054.88 1029.45 1058.3 1025.27 1058.3Z" fill="#BCD6FF"/>
<path d="M997.268 976C1003.47 976 1008.54 981.064 1008.54 987.268V1008.54C1008.54 1014.74 1003.47 1019.81 997.268 1019.81C991.064 1019.81 986 1014.74 986 1008.54V987.268C986 981.064 991.064 976 997.268 976Z" fill="#002C84"/>
<path d="M997.268 1037.91C997.521 1037.91 997.774 1037.66 997.774 1037.4V988.661C997.774 988.408 997.521 988.154 997.268 988.154C997.015 988.154 996.761 988.408 996.761 988.661V1037.4C996.761 1037.78 997.015 1037.91 997.268 1037.91Z" fill="#BCD6FF"/>
<path d="M997.268 1010.44C1001.45 1010.44 1004.74 1007.02 1004.74 1002.97C1004.74 1002.71 1004.48 1002.46 1004.23 1002.46C1003.98 1002.46 1003.85 1002.71 1003.72 1002.97C1003.72 1006.51 1000.81 1009.42 997.268 1009.42C997.015 1009.42 996.761 1009.68 996.761 1009.93C996.761 1010.18 997.015 1010.44 997.268 1010.44Z" fill="#BCD6FF"/>
<path d="M997.268 999.296C997.521 999.296 997.774 999.042 997.774 998.789C997.774 998.536 997.521 998.283 997.268 998.283C993.723 998.283 990.811 995.371 990.811 991.826C990.811 991.573 990.558 991.319 990.305 991.319C990.051 991.319 989.798 991.573 989.798 991.826C989.798 995.877 993.09 999.296 997.268 999.296Z" fill="#BCD6FF"/>
<path d="M978.264 1036C982.263 1036 985.528 1039.26 985.528 1043.26V1056.98C985.528 1060.97 982.263 1064.24 978.264 1064.24C974.265 1064.24 971 1060.97 971 1056.98V1043.26C971 1039.26 974.265 1036 978.264 1036Z" fill="#002C84"/>
<path d="M978.264 1075.91C978.427 1075.91 978.59 1075.75 978.59 1075.58V1044.16C978.59 1044 978.427 1043.84 978.264 1043.84C978.101 1043.84 977.938 1044 977.938 1044.16V1075.58C977.938 1075.83 978.101 1075.91 978.264 1075.91Z" fill="#BCD6FF"/>
<path d="M978.264 1058.2C980.957 1058.2 983.079 1056 983.079 1053.38C983.079 1053.22 982.916 1053.06 982.753 1053.06C982.59 1053.06 982.508 1053.22 982.426 1053.38C982.426 1055.67 980.549 1057.55 978.264 1057.55C978.101 1057.55 977.938 1057.71 977.938 1057.87C977.938 1058.04 978.101 1058.2 978.264 1058.2Z" fill="#BCD6FF"/>
<path d="M978.264 1051.02C978.427 1051.02 978.59 1050.85 978.59 1050.69C978.59 1050.53 978.427 1050.36 978.264 1050.36C975.979 1050.36 974.101 1048.49 974.101 1046.2C974.101 1046.04 973.938 1045.88 973.775 1045.88C973.612 1045.88 973.448 1046.04 973.448 1046.2C973.448 1048.81 975.571 1051.02 978.264 1051.02Z" fill="#BCD6FF"/>
<path d="M1128.26 1049C1132.26 1049 1135.53 1052.26 1135.53 1056.26V1069.98C1135.53 1073.97 1132.26 1077.24 1128.26 1077.24C1124.26 1077.24 1121 1073.97 1121 1069.98V1056.26C1121 1052.26 1124.26 1049 1128.26 1049Z" fill="#002C84"/>
<path d="M1128.26 1088.91C1128.43 1088.91 1128.59 1088.75 1128.59 1088.58V1057.16C1128.59 1057 1128.43 1056.84 1128.26 1056.84C1128.1 1056.84 1127.94 1057 1127.94 1057.16V1088.58C1127.94 1088.83 1128.1 1088.91 1128.26 1088.91Z" fill="#BCD6FF"/>
<path d="M1128.26 1071.2C1130.96 1071.2 1133.08 1069 1133.08 1066.38C1133.08 1066.22 1132.92 1066.06 1132.75 1066.06C1132.59 1066.06 1132.51 1066.22 1132.43 1066.38C1132.43 1068.67 1130.55 1070.55 1128.26 1070.55C1128.1 1070.55 1127.94 1070.71 1127.94 1070.87C1127.94 1071.04 1128.1 1071.2 1128.26 1071.2Z" fill="#BCD6FF"/>
<path d="M1128.26 1064.02C1128.43 1064.02 1128.59 1063.85 1128.59 1063.69C1128.59 1063.53 1128.43 1063.36 1128.26 1063.36C1125.98 1063.36 1124.1 1061.49 1124.1 1059.2C1124.1 1059.04 1123.94 1058.88 1123.77 1058.88C1123.61 1058.88 1123.45 1059.04 1123.45 1059.2C1123.45 1061.81 1125.57 1064.02 1128.26 1064.02Z" fill="#BCD6FF"/>
<path d="M1077.5 971C1087.13 971 1095 978.865 1095 988.5V1021.53C1095 1031.17 1087.13 1039.03 1077.5 1039.03C1067.87 1039.03 1060 1031.17 1060 1021.53V988.5C1060 978.865 1067.87 971 1077.5 971Z" fill="#002C84"/>
<path d="M1077.5 1067.15C1077.89 1067.15 1078.29 1066.76 1078.29 1066.37V990.663C1078.29 990.27 1077.89 989.877 1077.5 989.877C1077.11 989.877 1076.71 990.27 1076.71 990.663V1066.37C1076.71 1066.96 1077.11 1067.15 1077.5 1067.15Z" fill="#BCD6FF"/>
<path d="M1077.5 1024.48C1083.99 1024.48 1089.1 1019.17 1089.1 1012.88C1089.1 1012.49 1088.71 1012.1 1088.31 1012.1C1087.92 1012.1 1087.72 1012.49 1087.53 1012.88C1087.53 1018.39 1083.01 1022.91 1077.5 1022.91C1077.11 1022.91 1076.71 1023.3 1076.71 1023.7C1076.71 1024.09 1077.11 1024.48 1077.5 1024.48Z" fill="#BCD6FF"/>
<path d="M1077.5 1007.18C1077.89 1007.18 1078.29 1006.79 1078.29 1006.39C1078.29 1006 1077.89 1005.61 1077.5 1005.61C1071.99 1005.61 1067.47 1001.08 1067.47 995.579C1067.47 995.186 1067.08 994.792 1066.69 994.792C1066.29 994.792 1065.9 995.186 1065.9 995.579C1065.9 1001.87 1071.01 1007.18 1077.5 1007.18Z" fill="#BCD6FF"/>
<path d="M897.393 1009.89H931.656C935.132 1009.89 938.608 1012.87 938.608 1016.84V1042.17C938.608 1045.64 935.629 1049.12 931.656 1049.12H897.393C893.917 1049.12 890.441 1046.14 890.441 1042.17V1016.84C890.938 1012.87 893.917 1009.89 897.393 1009.89Z" fill="#002C84"/>
<path d="M931.16 994C932.649 994 934.636 995.49 934.636 997.476V1009.39C934.636 1010.88 933.146 1012.87 931.16 1012.87C929.67 1012.87 927.684 1011.38 927.684 1009.39V997.476C927.684 995.49 929.174 994 931.16 994Z" fill="#002C84"/>
<path d="M923.215 1023.79H930.167C930.664 1023.79 931.657 1024.29 931.657 1025.28V1032.24C931.657 1032.73 931.16 1033.73 930.167 1033.73H923.215C922.718 1033.73 921.725 1033.23 921.725 1032.24V1025.28C922.222 1024.29 922.718 1023.79 923.215 1023.79Z" fill="#FF7E1B"/>
<g filter="url(#filter1_f_536_111)">
<path d="M923.215 1023.79H930.167C930.664 1023.79 931.657 1024.29 931.657 1025.28V1032.24C931.657 1032.73 931.16 1033.73 930.167 1033.73H923.215C922.718 1033.73 921.725 1033.23 921.725 1032.24V1025.28C922.222 1024.29 922.718 1023.79 923.215 1023.79Z" fill="#E7E700"/>
</g>
<path d="M900.87 1023.79H909.808C910.801 1023.79 911.297 1024.29 911.297 1025.28V1047.63C911.297 1048.62 910.801 1049.12 909.808 1049.12H900.87C899.876 1049.12 899.38 1048.62 899.38 1047.63V1025.28C899.38 1024.29 899.876 1023.79 900.87 1023.79Z" fill="#20253A"/>
<path d="M942.085 1020.32H885.476C883.49 1020.32 882 1018.83 882 1016.84C882 1016.35 882.497 1015.85 882.497 1015.35L888.455 1004.43C888.952 1003.43 889.945 1002.94 890.938 1002.94H937.119C938.609 1002.94 939.602 1003.93 940.098 1005.42L944.071 1016.35C944.567 1017.84 943.574 1019.82 942.085 1020.81C942.581 1020.32 942.085 1020.32 942.085 1020.32Z" fill="#002C84"/>
<path d="M936.622 1043.16C936.125 1044.65 935.629 1045.64 935.132 1046.64C934.636 1047.13 934.636 1047.13 934.636 1047.13C934.139 1047.13 934.139 1047.13 934.139 1047.13C932.649 1046.64 931.656 1045.15 931.656 1043.66C931.16 1044.65 930.167 1046.14 929.173 1046.64C928.18 1047.63 926.691 1047.63 925.697 1047.13C925.201 1046.64 924.704 1046.64 924.208 1046.64C923.711 1046.64 923.215 1047.13 922.718 1047.63C921.228 1048.13 920.235 1048.13 919.242 1047.13C918.249 1046.14 917.752 1044.65 917.752 1043.66L916.263 1047.13C916.263 1047.63 915.766 1047.63 915.766 1047.63C915.27 1048.13 915.27 1048.13 914.773 1048.13C912.29 1048.62 909.807 1048.62 907.324 1048.62C905.835 1048.13 904.345 1048.13 902.855 1048.62C902.359 1049.12 901.366 1049.12 900.869 1049.12C899.379 1049.12 898.386 1048.13 898.386 1046.64C898.386 1046.14 898.386 1046.14 898.386 1045.64C897.89 1047.13 896.897 1048.13 895.903 1048.62C895.407 1047.63 894.91 1046.64 894.414 1045.64C893.421 1047.13 892.427 1048.13 891.434 1049.62C894.91 1051.6 898.883 1051.6 902.855 1051.6C911.794 1051.6 920.732 1052.1 929.67 1052.1C932.649 1052.59 935.629 1052.59 938.608 1052.1C939.105 1052.1 940.098 1051.6 940.594 1051.1C941.091 1050.11 940.594 1048.62 941.091 1047.63C940.098 1047.13 939.601 1047.13 938.608 1046.64C936.622 1045.15 936.125 1044.15 936.622 1043.16Z" fill="#20253A"/>
<path d="M728 74L728.898 76.7639H731.804L729.453 78.4721L730.351 81.2361L728 79.5279L725.649 81.2361L726.547 78.4721L724.196 76.7639H727.102L728 74Z" fill="#FFFF00"/>
<g filter="url(#filter2_f_536_111)">
<path d="M728 74L728.898 76.7639H731.804L729.453 78.4721L730.351 81.2361L728 79.5279L725.649 81.2361L726.547 78.4721L724.196 76.7639H727.102L728 74Z" fill="#FFFF00"/>
</g>
<path d="M550 265L550.898 267.764H553.804L551.453 269.472L552.351 272.236L550 270.528L547.649 272.236L548.547 269.472L546.196 267.764H549.102L550 265Z" fill="#FFFF00"/>
<g filter="url(#filter3_f_536_111)">
<path d="M550 265L550.898 267.764H553.804L551.453 269.472L552.351 272.236L550 270.528L547.649 272.236L548.547 269.472L546.196 267.764H549.102L550 265Z" fill="#FFFF00"/>
</g>
<path d="M93 66L94.3471 70.1459H98.7063L95.1796 72.7082L96.5267 76.8541L93 74.2918L89.4733 76.8541L90.8204 72.7082L87.2937 70.1459H91.6529L93 66Z" fill="#FFFF00"/>
<g filter="url(#filter4_f_536_111)">
<path d="M93 66L94.3471 70.1459H98.7063L95.1796 72.7082L96.5267 76.8541L93 74.2918L89.4733 76.8541L90.8204 72.7082L87.2937 70.1459H91.6529L93 66Z" fill="#FFFF00"/>
</g>
<path d="M967 206L968.347 210.146H972.706L969.18 212.708L970.527 216.854L967 214.292L963.473 216.854L964.82 212.708L961.294 210.146H965.653L967 206Z" fill="#FFFF00"/>
<g filter="url(#filter5_f_536_111)">
<path d="M967 206L968.347 210.146H972.706L969.18 212.708L970.527 216.854L967 214.292L963.473 216.854L964.82 212.708L961.294 210.146H965.653L967 206Z" fill="#FFFF00"/>
</g>
<path d="M1266 117L1266.9 119.764H1269.8L1267.45 121.472L1268.35 124.236L1266 122.528L1263.65 124.236L1264.55 121.472L1262.2 119.764H1265.1L1266 117Z" fill="#FFFF00"/>
<g filter="url(#filter6_f_536_111)">
<path d="M1266 117L1266.9 119.764H1269.8L1267.45 121.472L1268.35 124.236L1266 122.528L1263.65 124.236L1264.55 121.472L1262.2 119.764H1265.1L1266 117Z" fill="#FFFF00"/>
</g>
<path d="M1371 387L1372.35 391.146H1376.71L1373.18 393.708L1374.53 397.854L1371 395.292L1367.47 397.854L1368.82 393.708L1365.29 391.146H1369.65L1371 387Z" fill="#FFFF00"/>
<g filter="url(#filter7_f_536_111)">
<path d="M1371 387L1372.35 391.146H1376.71L1373.18 393.708L1374.53 397.854L1371 395.292L1367.47 397.854L1368.82 393.708L1365.29 391.146H1369.65L1371 387Z" fill="#FFFF00"/>
</g>
<path d="M1726 125L1727.35 129.146H1731.71L1728.18 131.708L1729.53 135.854L1726 133.292L1722.47 135.854L1723.82 131.708L1720.29 129.146H1724.65L1726 125Z" fill="#FFFF00"/>
<g filter="url(#filter8_f_536_111)">
<path d="M1726 125L1727.35 129.146H1731.71L1728.18 131.708L1729.53 135.854L1726 133.292L1722.47 135.854L1723.82 131.708L1720.29 129.146H1724.65L1726 125Z" fill="#FFFF00"/>
</g>
<path d="M1915 273L1915.9 275.764H1918.8L1916.45 277.472L1917.35 280.236L1915 278.528L1912.65 280.236L1913.55 277.472L1911.2 275.764H1914.1L1915 273Z" fill="#FFFF00"/>
<g filter="url(#filter9_f_536_111)">
<path d="M1915 273L1915.9 275.764H1918.8L1916.45 277.472L1917.35 280.236L1915 278.528L1912.65 280.236L1913.55 277.472L1911.2 275.764H1914.1L1915 273Z" fill="#FFFF00"/>
</g>
<path d="M2136 64L2136.9 66.7639H2139.8L2137.45 68.4721L2138.35 71.2361L2136 69.5279L2133.65 71.2361L2134.55 68.4721L2132.2 66.7639H2135.1L2136 64Z" fill="#FFFF00"/>
<g filter="url(#filter10_f_536_111)">
<path d="M2136 64L2136.9 66.7639H2139.8L2137.45 68.4721L2138.35 71.2361L2136 69.5279L2133.65 71.2361L2134.55 68.4721L2132.2 66.7639H2135.1L2136 64Z" fill="#FFFF00"/>
</g>
</g>
<defs>
<filter id="filter0_d_536_111" x="-252.761" y="-25" width="2663.02" height="1375.9" filterUnits="userSpaceOnUse" color-interpolation-filters="sRGB">
<feFlood flood-opacity="0" result="BackgroundImageFix"/>
<feColorMatrix in="SourceAlpha" type="matrix" values="0 0 0 0 0 0 0 0 0 0 0 0 0 0 0 0 0 0 127 0" result="hardAlpha"/>
<feOffset dy="4"/>
<feGaussianBlur stdDeviation="2"/>
<feColorMatrix type="matrix" values="0 0 0 0 0 0 0 0 0 0 0 0 0 0 0 0 0 0 0.25 0"/>
<feBlend mode="normal" in2="BackgroundImageFix" result="effect1_dropShadow_536_111"/>
<feBlend mode="normal" in="SourceGraphic" in2="effect1_dropShadow_536_111" result="shape"/>
</filter>
<filter id="filter1_f_536_111" x="913.725" y="1015.79" width="25.9314" height="25.9314" filterUnits="userSpaceOnUse" color-interpolation-filters="sRGB">
<feFlood flood-opacity="0" result="BackgroundImageFix"/>
<feBlend mode="normal" in="SourceGraphic" in2="BackgroundImageFix" result="shape"/>
<feGaussianBlur stdDeviation="4" result="effect1_foregroundBlur_536_111"/>
</filter>
<filter id="filter2_f_536_111" x="720.196" y="70" width="15.6084" height="15.2361" filterUnits="userSpaceOnUse" color-interpolation-filters="sRGB">
<feFlood flood-opacity="0" result="BackgroundImageFix"/>
<feBlend mode="normal" in="SourceGraphic" in2="BackgroundImageFix" result="shape"/>
<feGaussianBlur stdDeviation="2" result="effect1_foregroundBlur_536_111"/>
</filter>
<filter id="filter3_f_536_111" x="542.196" y="261" width="15.6084" height="15.2361" filterUnits="userSpaceOnUse" color-interpolation-filters="sRGB">
<feFlood flood-opacity="0" result="BackgroundImageFix"/>
<feBlend mode="normal" in="SourceGraphic" in2="BackgroundImageFix" result="shape"/>
<feGaussianBlur stdDeviation="2" result="effect1_foregroundBlur_536_111"/>
</filter>
<filter id="filter4_f_536_111" x="83.2937" y="62" width="19.4126" height="18.8541" filterUnits="userSpaceOnUse" color-interpolation-filters="sRGB">
<feFlood flood-opacity="0" result="BackgroundImageFix"/>
<feBlend mode="normal" in="SourceGraphic" in2="BackgroundImageFix" result="shape"/>
<feGaussianBlur stdDeviation="2" result="effect1_foregroundBlur_536_111"/>
</filter>
<filter id="filter5_f_536_111" x="957.294" y="202" width="19.4126" height="18.8541" filterUnits="userSpaceOnUse" color-interpolation-filters="sRGB">
<feFlood flood-opacity="0" result="BackgroundImageFix"/>
<feBlend mode="normal" in="SourceGraphic" in2="BackgroundImageFix" result="shape"/>
<feGaussianBlur stdDeviation="2" result="effect1_foregroundBlur_536_111"/>
</filter>
<filter id="filter6_f_536_111" x="1258.2" y="113" width="15.6084" height="15.2361" filterUnits="userSpaceOnUse" color-interpolation-filters="sRGB">
<feFlood flood-opacity="0" result="BackgroundImageFix"/>
<feBlend mode="normal" in="SourceGraphic" in2="BackgroundImageFix" result="shape"/>
<feGaussianBlur stdDeviation="2" result="effect1_foregroundBlur_536_111"/>
</filter>
<filter id="filter7_f_536_111" x="1361.29" y="383" width="19.4126" height="18.8541" filterUnits="userSpaceOnUse" color-interpolation-filters="sRGB">
<feFlood flood-opacity="0" result="BackgroundImageFix"/>
<feBlend mode="normal" in="SourceGraphic" in2="BackgroundImageFix" result="shape"/>
<feGaussianBlur stdDeviation="2" result="effect1_foregroundBlur_536_111"/>
</filter>
<filter id="filter8_f_536_111" x="1716.29" y="121" width="19.4126" height="18.8541" filterUnits="userSpaceOnUse" color-interpolation-filters="sRGB">
<feFlood flood-opacity="0" result="BackgroundImageFix"/>
<feBlend mode="normal" in="SourceGraphic" in2="BackgroundImageFix" result="shape"/>
<feGaussianBlur stdDeviation="2" result="effect1_foregroundBlur_536_111"/>
</filter>
<filter id="filter9_f_536_111" x="1907.2" y="269" width="15.6084" height="15.2361" filterUnits="userSpaceOnUse" color-interpolation-filters="sRGB">
<feFlood flood-opacity="0" result="BackgroundImageFix"/>
<feBlend mode="normal" in="SourceGraphic" in2="BackgroundImageFix" result="shape"/>
<feGaussianBlur stdDeviation="2" result="effect1_foregroundBlur_536_111"/>
</filter>
<filter id="filter10_f_536_111" x="2128.2" y="60" width="15.6084" height="15.2361" filterUnits="userSpaceOnUse" color-interpolation-filters="sRGB">
<feFlood flood-opacity="0" result="BackgroundImageFix"/>
<feBlend mode="normal" in="SourceGraphic" in2="BackgroundImageFix" result="shape"/>
<feGaussianBlur stdDeviation="2" result="effect1_foregroundBlur_536_111"/>
</filter>
<clipPath id="clip0_536_111">
<rect width="2198" height="1313" fill="white"/>
</clipPath>
</defs>
</svg>
