<svg width="800" height="478" viewBox="0 0 800 478" fill="none" xmlns="http://www.w3.org/2000/svg">
<g clip-path="url(#clip0)">
<path d="M810.278 -2.22192H-7.47598V492.999H810.278V-2.22192Z" fill="#FFEBF7"/>
<g filter="url(#filter0_d)">
<path d="M-90.5408 266.208C-90.5408 266.208 -15.7191 38.1482 52.5504 33.2869C118.495 28.4256 245.1 219.708 273.845 246.762C302.59 273.817 529.591 345.891 529.591 345.891C529.591 345.891 728.27 -1.79914 755.536 -7.71727C782.802 -13.6354 837.544 1.37129 837.544 1.37129L875.8 488.771L-71.0956 430.224L-90.5408 266.208Z" fill="#20253A"/>
</g>
<path d="M-131.756 322.43C-131.756 322.43 -4.93977 81.6889 75.8 71.7549C117.438 66.6822 192.682 158.413 220.159 157.779C257.993 156.934 287.795 102.825 315.272 102.614C341.058 102.614 410.807 242.747 468.297 236.406C517.755 230.91 609.486 101.346 645.206 107.898C681.137 114.45 770.12 284.596 784.915 295.164C799.71 305.732 845.998 495.535 845.998 495.535L-15.5078 488.56L-131.756 322.43Z" fill="white"/>
<path d="M832.725 501.5L818.125 160.573C818.125 160.573 666.703 171.712 588.5 264.5C495 396.25 456.5 429 386.5 423.5C316.5 418 259 351.5 179.5 279C100 206.5 21.5228 184.246 -10.1813 178.75C-41.8854 173.255 -24.9765 541.236 -24.9765 541.236L832.514 531.936L832.725 501.5Z" fill="#4583FE"/>
<path d="M480.133 103.459C467.24 101.98 454.347 99.4433 441.665 101.346C428.984 103.248 406.791 110.857 411.863 122.693C415.245 130.936 428.35 130.513 437.015 130.091C445.893 129.668 453.924 124.807 462.59 122.693C485.628 116.775 510.358 129.457 533.184 122.904C537.412 121.636 545.232 118.466 542.696 114.873C530.648 96.0615 501.903 105.784 480.133 103.459Z" fill="white"/>
<path d="M120.82 76.8275C115.536 75.7707 109.618 73.023 108.349 67.7389C107.081 62.6662 111.097 57.5935 115.747 54.8458C129.274 47.2368 145.76 53.789 161.19 55.0572C167.742 55.4799 174.294 55.0572 181.057 54.4231C197.966 52.9436 217.623 40.896 231.995 50.1959C237.702 54.0004 230.093 63.9344 224.175 67.5275C218.257 71.1207 211.282 71.5434 204.307 71.7548C194.162 71.9661 184.017 71.7548 173.871 70.9093C169.644 70.4866 165.628 70.0639 161.401 70.9093C146.606 74.0798 136.46 79.9979 120.82 76.8275Z" fill="white"/>
<path d="M292.196 405C295.057 405 297.392 407.335 297.392 410.196V420.004C297.392 422.864 295.057 425.2 292.196 425.2C289.335 425.2 287 422.864 287 420.004V410.196C287 407.335 289.335 405 292.196 405Z" fill="white"/>
<path d="M292.196 433.548C292.313 433.548 292.429 433.432 292.429 433.315V410.838C292.429 410.721 292.313 410.605 292.196 410.605C292.079 410.605 291.962 410.721 291.962 410.838V433.315C291.962 433.49 292.079 433.548 292.196 433.548Z" fill="#BCD6FF"/>
<path d="M292.196 420.879C294.122 420.879 295.64 419.303 295.64 417.435C295.64 417.318 295.524 417.201 295.407 417.201C295.29 417.201 295.232 417.318 295.173 417.435C295.173 419.07 293.831 420.412 292.196 420.412C292.079 420.412 291.962 420.529 291.962 420.646C291.962 420.763 292.079 420.879 292.196 420.879Z" fill="#BCD6FF"/>
<path d="M292.196 415.742C292.313 415.742 292.429 415.625 292.429 415.508C292.429 415.392 292.313 415.275 292.196 415.275C290.561 415.275 289.218 413.932 289.218 412.297C289.218 412.181 289.102 412.064 288.985 412.064C288.868 412.064 288.751 412.181 288.751 412.297C288.751 414.166 290.269 415.742 292.196 415.742Z" fill="#BCD6FF"/>
<path d="M312 423C309.247 423 307 425.247 307 428V437.438C307 440.191 309.247 442.438 312 442.438C314.753 442.438 317 440.191 317 437.438V428C317 425.247 314.753 423 312 423Z" fill="white"/>
<path d="M312 450.472C311.888 450.472 311.775 450.36 311.775 450.247V428.618C311.775 428.506 311.888 428.393 312 428.393C312.112 428.393 312.225 428.506 312.225 428.618V450.247C312.225 450.416 312.112 450.472 312 450.472Z" fill="#BCD6FF"/>
<path d="M312 438.281C310.146 438.281 308.685 436.764 308.685 434.966C308.685 434.854 308.798 434.741 308.91 434.741C309.022 434.741 309.079 434.854 309.135 434.966C309.135 436.539 310.427 437.831 312 437.831C312.112 437.831 312.225 437.944 312.225 438.056C312.225 438.168 312.112 438.281 312 438.281Z" fill="#BCD6FF"/>
<path d="M312 433.337C311.888 433.337 311.775 433.225 311.775 433.112C311.775 433 311.888 432.887 312 432.887C313.573 432.887 314.865 431.595 314.865 430.022C314.865 429.91 314.978 429.798 315.09 429.798C315.202 429.798 315.315 429.91 315.315 430.022C315.315 431.82 313.854 433.337 312 433.337Z" fill="#BCD6FF"/>
<path d="M470 437C472.753 437 475 439.247 475 442V451.438C475 454.191 472.753 456.438 470 456.438C467.247 456.438 465 454.191 465 451.438V442C465 439.247 467.247 437 470 437Z" fill="white"/>
<path d="M470 464.472C470.112 464.472 470.225 464.36 470.225 464.247V442.618C470.225 442.506 470.112 442.393 470 442.393C469.888 442.393 469.775 442.506 469.775 442.618V464.247C469.775 464.416 469.888 464.472 470 464.472Z" fill="#BCD6FF"/>
<path d="M470 452.281C471.854 452.281 473.315 450.764 473.315 448.966C473.315 448.854 473.202 448.741 473.09 448.741C472.978 448.741 472.921 448.854 472.865 448.966C472.865 450.539 471.573 451.831 470 451.831C469.888 451.831 469.775 451.944 469.775 452.056C469.775 452.168 469.888 452.281 470 452.281Z" fill="#BCD6FF"/>
<path d="M470 447.337C470.112 447.337 470.225 447.225 470.225 447.112C470.225 447 470.112 446.887 470 446.887C468.427 446.887 467.135 445.595 467.135 444.022C467.135 443.91 467.022 443.798 466.91 443.798C466.798 443.798 466.685 443.91 466.685 444.022C466.685 445.82 468.146 447.337 470 447.337Z" fill="#BCD6FF"/>
<path d="M494.5 416C498.629 416 502 419.371 502 423.5V437.657C502 441.787 498.629 445.158 494.5 445.158C490.371 445.158 487 441.787 487 437.657V423.5C487 419.371 490.371 416 494.5 416Z" fill="white"/>
<path d="M494.5 457.208C494.669 457.208 494.837 457.039 494.837 456.871V424.427C494.837 424.258 494.669 424.09 494.5 424.09C494.331 424.09 494.163 424.258 494.163 424.427V456.871C494.163 457.124 494.331 457.208 494.5 457.208Z" fill="#BCD6FF"/>
<path d="M494.5 438.922C497.281 438.922 499.472 436.646 499.472 433.95C499.472 433.781 499.303 433.613 499.135 433.613C498.966 433.613 498.882 433.781 498.798 433.95C498.798 436.309 496.859 438.247 494.5 438.247C494.331 438.247 494.163 438.416 494.163 438.585C494.163 438.753 494.331 438.922 494.5 438.922Z" fill="#BCD6FF"/>
<path d="M494.5 431.506C494.669 431.506 494.837 431.337 494.837 431.169C494.837 431 494.669 430.832 494.5 430.832C492.14 430.832 490.202 428.893 490.202 426.534C490.202 426.365 490.034 426.197 489.865 426.197C489.697 426.197 489.528 426.365 489.528 426.534C489.528 429.231 491.719 431.506 494.5 431.506Z" fill="#BCD6FF"/>
<path d="M445.395 367.776C443.137 367.776 441.294 369.62 441.294 371.878V379.619C441.294 381.877 443.137 383.72 445.395 383.72C447.653 383.72 449.496 381.877 449.496 379.619V371.878C449.496 369.62 447.653 367.776 445.395 367.776Z" fill="#FFEBF7"/>
<path d="M445.395 390.31C445.303 390.31 445.211 390.218 445.211 390.126V372.385C445.211 372.292 445.303 372.2 445.395 372.2C445.487 372.2 445.579 372.292 445.579 372.385V390.126C445.579 390.264 445.487 390.31 445.395 390.31Z" fill="#A2C1FE"/>
<path d="M445.395 380.31C443.874 380.31 442.676 379.066 442.676 377.592C442.676 377.499 442.768 377.407 442.861 377.407C442.953 377.407 442.999 377.499 443.045 377.592C443.045 378.882 444.105 379.942 445.395 379.942C445.487 379.942 445.579 380.034 445.579 380.126C445.579 380.218 445.487 380.31 445.395 380.31Z" fill="#A2C1FE"/>
<path d="M445.395 376.255C445.303 376.255 445.211 376.163 445.211 376.071C445.211 375.979 445.303 375.886 445.395 375.886C446.685 375.886 447.745 374.827 447.745 373.536C447.745 373.444 447.837 373.352 447.929 373.352C448.022 373.352 448.114 373.444 448.114 373.536C448.114 375.011 446.916 376.255 445.395 376.255Z" fill="#A2C1FE"/>
<path d="M375.712 380.515C373.454 380.515 371.611 382.358 371.611 384.616V392.358C371.611 394.616 373.454 396.459 375.712 396.459C377.97 396.459 379.813 394.616 379.813 392.358V384.616C379.813 382.358 377.97 380.515 375.712 380.515Z" fill="#FFEBF7"/>
<path d="M375.712 403.049C375.62 403.049 375.527 402.957 375.527 402.864V385.123C375.527 385.031 375.62 384.939 375.712 384.939C375.804 384.939 375.896 385.031 375.896 385.123V402.864C375.896 403.003 375.804 403.049 375.712 403.049Z" fill="#A2C1FE"/>
<path d="M375.712 393.049C374.191 393.049 372.993 391.805 372.993 390.33C372.993 390.238 373.085 390.146 373.177 390.146C373.269 390.146 373.316 390.238 373.362 390.33C373.362 391.621 374.421 392.68 375.712 392.68C375.804 392.68 375.896 392.773 375.896 392.865C375.896 392.957 375.804 393.049 375.712 393.049Z" fill="#A2C1FE"/>
<path d="M375.712 388.994C375.619 388.994 375.527 388.902 375.527 388.81C375.527 388.717 375.619 388.625 375.712 388.625C377.002 388.625 378.062 387.565 378.062 386.275C378.062 386.183 378.154 386.091 378.246 386.091C378.338 386.091 378.43 386.183 378.43 386.275C378.43 387.75 377.232 388.994 375.712 388.994Z" fill="#A2C1FE"/>
<path d="M365.521 359.041C367.779 359.041 369.622 360.884 369.622 363.142V370.884C369.622 373.142 367.779 374.985 365.521 374.985C363.263 374.985 361.419 373.142 361.419 370.884V363.142C361.419 360.884 363.263 359.041 365.521 359.041Z" fill="#FFEBF7"/>
<path d="M365.521 381.575C365.613 381.575 365.705 381.482 365.705 381.39V363.649C365.705 363.557 365.613 363.465 365.521 363.465C365.428 363.465 365.336 363.557 365.336 363.649V381.39C365.336 381.528 365.428 381.575 365.521 381.575Z" fill="#A2C1FE"/>
<path d="M365.521 371.575C367.041 371.575 368.239 370.331 368.239 368.856C368.239 368.764 368.147 368.672 368.055 368.672C367.963 368.672 367.917 368.764 367.871 368.856C367.871 370.146 366.811 371.206 365.521 371.206C365.428 371.206 365.336 371.298 365.336 371.391C365.336 371.483 365.428 371.575 365.521 371.575Z" fill="#A2C1FE"/>
<path d="M365.521 367.52C365.613 367.52 365.705 367.428 365.705 367.335C365.705 367.243 365.613 367.151 365.521 367.151C364.23 367.151 363.17 366.091 363.17 364.801C363.17 364.709 363.078 364.617 362.986 364.617C362.894 364.617 362.802 364.709 362.802 364.801C362.802 366.276 364 367.52 365.521 367.52Z" fill="#A2C1FE"/>
<path d="M358.604 380.879C360.059 380.879 361.247 382.067 361.247 383.523V388.514C361.247 389.969 360.059 391.157 358.604 391.157C357.148 391.157 355.96 389.969 355.96 388.514V383.523C355.96 382.067 357.148 380.879 358.604 380.879Z" fill="#FFEBF7"/>
<path d="M358.604 395.405C358.663 395.405 358.723 395.346 358.723 395.286V383.85C358.723 383.79 358.663 383.731 358.604 383.731C358.544 383.731 358.485 383.79 358.485 383.85V395.286C358.485 395.376 358.544 395.405 358.604 395.405Z" fill="#A2C1FE"/>
<path d="M358.604 388.959C359.584 388.959 360.356 388.157 360.356 387.207C360.356 387.147 360.297 387.088 360.238 387.088C360.178 387.088 360.149 387.147 360.119 387.207C360.119 388.038 359.436 388.722 358.604 388.722C358.544 388.722 358.485 388.781 358.485 388.841C358.485 388.9 358.544 388.959 358.604 388.959Z" fill="#A2C1FE"/>
<path d="M358.604 386.345C358.663 386.345 358.723 386.286 358.723 386.226C358.723 386.167 358.663 386.107 358.604 386.107C357.772 386.107 357.089 385.424 357.089 384.592C357.089 384.533 357.029 384.474 356.97 384.474C356.911 384.474 356.851 384.533 356.851 384.592C356.851 385.543 357.623 386.345 358.604 386.345Z" fill="#A2C1FE"/>
<path d="M431.199 385.611C432.654 385.611 433.843 386.799 433.843 388.254V393.245C433.843 394.701 432.654 395.889 431.199 395.889C429.743 395.889 428.555 394.701 428.555 393.245V388.254C428.555 386.799 429.743 385.611 431.199 385.611Z" fill="#FFEBF7"/>
<path d="M431.199 400.137C431.258 400.137 431.318 400.077 431.318 400.018V388.581C431.318 388.522 431.258 388.462 431.199 388.462C431.139 388.462 431.08 388.522 431.08 388.581V400.018C431.08 400.107 431.139 400.137 431.199 400.137Z" fill="#A2C1FE"/>
<path d="M431.199 393.691C432.179 393.691 432.952 392.889 432.952 391.938C432.952 391.879 432.892 391.819 432.833 391.819C432.773 391.819 432.744 391.879 432.714 391.938C432.714 392.77 432.031 393.453 431.199 393.453C431.139 393.453 431.08 393.513 431.08 393.572C431.08 393.631 431.139 393.691 431.199 393.691Z" fill="#A2C1FE"/>
<path d="M431.199 391.077C431.258 391.077 431.318 391.017 431.318 390.958C431.318 390.898 431.258 390.839 431.199 390.839C430.367 390.839 429.684 390.156 429.684 389.324C429.684 389.264 429.624 389.205 429.565 389.205C429.506 389.205 429.446 389.264 429.446 389.324C429.446 390.275 430.219 391.077 431.199 391.077Z" fill="#A2C1FE"/>
<path d="M329.17 371.376H341.64C342.905 371.376 344.17 372.46 344.17 373.906V383.124C344.17 384.389 343.086 385.654 341.64 385.654H329.17C327.904 385.654 326.639 384.57 326.639 383.124V373.906C326.82 372.46 327.904 371.376 329.17 371.376Z" fill="#20253A"/>
<path d="M341.459 365.593C342.002 365.593 342.725 366.135 342.725 366.858V371.195C342.725 371.738 342.182 372.461 341.459 372.461C340.917 372.461 340.194 371.918 340.194 371.195V366.858C340.194 366.135 340.737 365.593 341.459 365.593Z" fill="#20253A"/>
<path d="M338.568 376.437H341.098C341.279 376.437 341.64 376.618 341.64 376.979V379.509C341.64 379.69 341.46 380.051 341.098 380.051H338.568C338.387 380.051 338.026 379.871 338.026 379.509V376.979C338.206 376.618 338.387 376.437 338.568 376.437Z" fill="white"/>
<path d="M330.435 376.437H333.688C334.049 376.437 334.23 376.618 334.23 376.979V385.112C334.23 385.474 334.049 385.654 333.688 385.654H330.435C330.073 385.654 329.893 385.474 329.893 385.112V376.979C329.893 376.618 330.073 376.437 330.435 376.437Z" fill="white"/>
<path d="M345.436 375.172H324.832C324.109 375.172 323.567 374.629 323.567 373.906C323.567 373.726 323.748 373.545 323.748 373.364L325.916 369.388C326.097 369.026 326.459 368.846 326.82 368.846H343.628C344.171 368.846 344.532 369.207 344.713 369.749L346.159 373.726C346.339 374.268 345.978 374.991 345.436 375.352C345.616 375.172 345.436 375.172 345.436 375.172Z" fill="#20253A"/>
<path d="M343.447 383.485C343.267 384.027 343.086 384.389 342.905 384.75C342.725 384.931 342.725 384.931 342.725 384.931C342.544 384.931 342.544 384.931 342.544 384.931C342.002 384.75 341.64 384.208 341.64 383.666C341.459 384.027 341.098 384.569 340.736 384.75C340.375 385.112 339.833 385.112 339.471 384.931C339.291 384.75 339.11 384.75 338.929 384.75C338.748 384.75 338.568 384.931 338.387 385.112C337.845 385.292 337.483 385.292 337.122 384.931C336.76 384.569 336.58 384.027 336.58 383.666L336.037 384.931C336.037 385.112 335.857 385.112 335.857 385.112C335.676 385.292 335.676 385.292 335.495 385.292C334.591 385.473 333.688 385.473 332.784 385.473C332.242 385.292 331.7 385.292 331.158 385.473C330.977 385.654 330.615 385.654 330.435 385.654C329.892 385.654 329.531 385.292 329.531 384.75C329.531 384.569 329.531 384.569 329.531 384.389C329.35 384.931 328.989 385.292 328.627 385.473C328.447 385.112 328.266 384.75 328.085 384.389C327.724 384.931 327.362 385.292 327.001 385.835C328.266 386.558 329.712 386.558 331.158 386.558C334.411 386.558 337.664 386.738 340.917 386.738C342.002 386.919 343.086 386.919 344.17 386.738C344.351 386.738 344.713 386.558 344.893 386.377C345.074 386.015 344.893 385.473 345.074 385.112C344.713 384.931 344.532 384.931 344.17 384.75C343.447 384.208 343.267 383.847 343.447 383.485Z" fill="white"/>
</g>
<defs>
<filter id="filter0_d" x="-94.5408" y="-9.09912" width="974.341" height="505.871" filterUnits="userSpaceOnUse" color-interpolation-filters="sRGB">
<feFlood flood-opacity="0" result="BackgroundImageFix"/>
<feColorMatrix in="SourceAlpha" type="matrix" values="0 0 0 0 0 0 0 0 0 0 0 0 0 0 0 0 0 0 127 0"/>
<feOffset dy="4"/>
<feGaussianBlur stdDeviation="2"/>
<feColorMatrix type="matrix" values="0 0 0 0 0 0 0 0 0 0 0 0 0 0 0 0 0 0 0.25 0"/>
<feBlend mode="normal" in2="BackgroundImageFix" result="effect1_dropShadow"/>
<feBlend mode="normal" in="SourceGraphic" in2="effect1_dropShadow" result="shape"/>
</filter>
<clipPath id="clip0">
<rect width="800" height="477.889" fill="white"/>
</clipPath>
</defs>
</svg>
