<svg width="800" height="478" viewBox="0 0 800 478" fill="none" xmlns="http://www.w3.org/2000/svg">
<g clip-path="url(#clip0_537_221)">
<path d="M810.278 -2.22192H-7.47595V492.999H810.278V-2.22192Z" fill="#20253A"/>
<g filter="url(#filter0_d_537_221)">
<path d="M-90.5408 266.207C-90.5408 266.207 -15.7191 38.148 52.5504 33.2867C118.495 28.4253 245.1 219.708 273.845 246.762C302.59 273.816 529.591 345.891 529.591 345.891C529.591 345.891 728.27 -1.79938 755.536 -7.71751C782.801 -13.6356 837.544 1.37104 837.544 1.37104L875.8 488.771L-71.0956 430.224L-90.5408 266.207Z" fill="#20253A"/>
</g>
<path d="M-131.756 322.43C-131.756 322.43 -4.93976 81.6887 75.8 71.7547C117.438 66.682 192.682 158.413 220.159 157.779C257.993 156.933 287.795 102.825 315.272 102.613C341.058 102.613 410.807 242.746 468.297 236.405C517.755 230.91 609.486 101.345 645.205 107.898C681.137 114.45 770.12 284.596 784.915 295.164C799.71 305.732 845.998 495.535 845.998 495.535L-15.5078 488.56L-131.756 322.43Z" fill="#1F234A"/>
<path d="M832.894 477.146L814.294 136.22C814.294 136.22 741.163 61.6092 662.96 154.397C584.757 247.185 463.408 415.279 381.62 410.737C299.831 406.195 267.293 329.827 219.525 284.596C171.758 239.364 21.6919 159.892 -10.0122 154.397C-41.7163 148.902 -24.8074 516.882 -24.8074 516.882L832.683 507.582L832.894 477.146Z" fill="#002C84"/>
<path d="M480.133 103.459C467.24 101.979 454.347 99.443 441.665 101.345C428.984 103.248 406.791 110.857 411.863 122.693C415.245 130.936 428.35 130.513 437.015 130.091C445.892 129.668 453.924 124.806 462.59 122.693C485.628 116.775 510.357 129.456 533.184 122.904C537.412 121.636 545.232 118.466 542.696 114.872C530.648 96.0612 501.903 105.784 480.133 103.459Z" fill="#002C84"/>
<path d="M120.82 76.8272C115.536 75.7704 109.618 73.0227 108.349 67.7387C107.081 62.666 111.097 57.5933 115.747 54.8456C129.274 47.2366 145.76 53.7888 161.19 55.057C167.742 55.4797 174.294 55.057 181.058 54.4229C197.966 52.9433 217.623 40.8957 231.995 50.1956C237.702 54.0001 230.093 63.9342 224.175 67.5273C218.257 71.1205 211.282 71.5432 204.307 71.7545C194.162 71.9659 184.017 71.7545 173.871 70.9091C169.644 70.4864 165.628 70.0636 161.401 70.9091C146.606 74.0795 136.46 79.9976 120.82 76.8272Z" fill="#002C84"/>
<path d="M713.898 177.224C727.848 177.224 739.261 188.637 739.261 202.587V250.355C739.261 264.305 727.848 275.718 713.898 275.718C699.948 275.718 688.535 264.305 688.535 250.355V202.376C688.535 188.426 699.948 177.224 713.898 177.224Z" fill="#181D54"/>
<path d="M713.898 316.3C714.532 316.3 714.955 315.877 714.955 315.243V205.546C714.955 204.912 714.532 204.278 713.898 204.278C713.264 204.278 712.63 204.701 712.63 205.335V205.546V315.243C712.63 315.877 713.264 316.3 713.898 316.3Z" fill="#BCD6FF"/>
<path d="M713.898 254.371C723.198 254.371 730.807 246.762 730.807 237.462C730.807 236.828 730.173 236.405 729.539 236.405C728.904 236.405 728.482 236.828 728.482 237.462C728.482 245.494 721.93 252.046 713.898 252.046C713.264 252.046 712.63 252.469 712.63 253.103C712.63 253.737 713.052 254.371 713.898 254.371C713.686 254.371 713.686 254.371 713.898 254.371Z" fill="#BCD6FF"/>
<path d="M713.898 229.431C714.532 229.431 714.955 228.796 714.955 228.162C714.955 227.528 714.532 227.106 713.898 227.106C705.866 227.106 699.314 220.553 699.314 212.522C699.314 211.887 698.891 211.253 698.257 211.253C697.623 211.253 696.989 211.676 696.989 212.31V212.522C696.989 221.821 704.598 229.431 713.898 229.431Z" fill="#BCD6FF"/>
<path d="M71.5727 317.844C64.1751 317.844 58.257 311.926 58.257 304.528V279.376C58.257 271.978 64.1751 266.06 71.5727 266.06C78.9703 266.06 84.8884 271.978 84.8884 279.376V304.528C85.0998 311.714 78.9703 317.844 71.5727 317.844Z" fill="#181D54"/>
<path d="M71.5727 339.191C71.15 339.191 70.9386 338.979 70.9386 338.557V280.855C70.9386 280.432 71.3613 280.432 71.7841 280.432C71.9954 280.432 72.2068 280.643 72.2068 280.855V338.557C72.2068 338.979 71.9954 339.191 71.5727 339.191Z" fill="#BCD6FF"/>
<path d="M71.5728 306.641C66.7115 306.641 62.6957 302.625 62.6957 297.764C62.6957 297.341 63.1184 297.341 63.5411 297.341C63.7525 297.341 63.9638 297.552 63.9638 297.764C63.9638 301.991 67.3456 305.373 71.5728 305.373C71.9955 305.373 71.9956 305.796 71.9956 306.218C71.9956 306.43 71.7842 306.641 71.5728 306.641Z" fill="#BCD6FF"/>
<path d="M71.5729 293.537C71.1502 293.537 70.9388 293.537 70.7275 293.114C70.7275 292.691 70.7275 292.48 71.1502 292.269C71.3616 292.269 71.3616 292.269 71.5729 292.269C75.8001 292.269 79.1819 288.887 79.1819 284.66C79.1819 284.237 79.6046 284.237 80.0273 284.237C80.2387 284.237 80.4501 284.448 80.4501 284.66C80.4501 289.521 76.6456 293.537 71.5729 293.537Z" fill="#BCD6FF"/>
<path d="M595.747 348.216C588.349 348.216 582.431 342.298 582.431 334.9V309.748C582.431 302.35 588.349 296.432 595.747 296.432C603.145 296.432 609.063 302.35 609.063 309.748V334.9C609.063 342.298 602.933 348.216 595.747 348.216Z" fill="#181D54"/>
<path d="M595.747 369.775C595.324 369.775 595.113 369.563 595.113 369.141V311.439C595.113 311.016 595.536 311.016 595.958 311.016C596.17 311.016 596.381 311.227 596.381 311.439V369.141C596.17 369.563 595.958 369.775 595.747 369.775Z" fill="#BCD6FF"/>
<path d="M595.747 337.225C590.886 337.225 586.87 333.209 586.87 328.348C586.87 327.925 586.87 327.714 587.293 327.502C587.716 327.502 587.927 327.502 588.138 327.925C588.138 328.136 588.138 328.136 588.138 328.348C588.138 332.575 591.52 335.957 595.747 335.957C596.17 335.957 596.17 336.379 596.17 336.802C595.959 337.013 595.959 337.013 595.747 337.225Z" fill="#BCD6FF"/>
<path d="M595.747 324.12C595.324 324.12 595.113 324.12 594.902 323.697C594.69 323.275 594.901 323.063 595.324 322.852C595.536 322.852 595.536 322.852 595.747 322.852C599.974 322.852 603.356 319.47 603.356 315.243C603.356 314.82 603.779 314.82 604.201 314.82C604.413 314.82 604.624 315.032 604.624 315.243C604.624 320.104 600.608 324.12 595.747 324.12Z" fill="#BCD6FF"/>
<path d="M204.307 313.552C214.664 313.552 223.119 322.007 223.119 332.363V367.872C223.119 378.229 214.664 386.683 204.307 386.683C193.951 386.683 185.496 378.229 185.496 367.872V332.363C185.496 322.007 193.951 313.552 204.307 313.552Z" fill="#181D54"/>
<path d="M204.307 416.908C204.73 416.908 205.153 416.486 205.153 416.063V334.689C205.153 334.266 204.73 333.843 204.307 333.843C203.885 333.843 203.462 334.266 203.462 334.689V416.063C203.462 416.697 203.885 416.908 204.307 416.908Z" fill="#BCD6FF"/>
<path d="M204.307 371.043C211.282 371.043 216.778 365.336 216.778 358.572C216.778 358.15 216.355 357.727 215.932 357.727C215.509 357.727 215.298 358.15 215.087 358.572C215.087 364.491 210.225 369.352 204.307 369.352C203.885 369.352 203.462 369.775 203.462 370.197C203.462 370.62 203.885 371.043 204.307 371.043Z" fill="#BCD6FF"/>
<path d="M204.307 352.443C204.73 352.443 205.153 352.02 205.153 351.598C205.153 351.175 204.73 350.752 204.307 350.752C198.389 350.752 193.528 345.891 193.528 339.973C193.528 339.55 193.105 339.127 192.683 339.127C192.26 339.127 191.837 339.55 191.837 339.973C191.837 346.736 197.333 352.443 204.307 352.443Z" fill="#BCD6FF"/>
<path d="M170.337 172.229C173.543 172.229 176.16 174.847 176.16 178.053V189.045C176.16 192.252 173.543 194.869 170.337 194.869C167.131 194.869 164.513 192.252 164.513 189.045V178.053C164.513 174.847 167.131 172.229 170.337 172.229Z" fill="#002C84"/>
<path d="M170.337 204.226C170.468 204.226 170.598 204.095 170.598 203.964V178.772C170.598 178.641 170.468 178.51 170.337 178.51C170.206 178.51 170.075 178.641 170.075 178.772V203.964C170.075 204.16 170.206 204.226 170.337 204.226Z" fill="#BCD6FF"/>
<path d="M170.337 190.028C172.497 190.028 174.198 188.261 174.198 186.166C174.198 186.035 174.067 185.905 173.936 185.905C173.806 185.905 173.74 186.035 173.675 186.166C173.675 187.999 172.169 189.504 170.337 189.504C170.206 189.504 170.075 189.635 170.075 189.766C170.075 189.897 170.206 190.028 170.337 190.028Z" fill="#BCD6FF"/>
<path d="M170.338 184.27C170.469 184.27 170.599 184.139 170.599 184.008C170.599 183.877 170.469 183.746 170.338 183.746C168.505 183.746 167 182.241 167 180.408C167 180.277 166.869 180.146 166.738 180.146C166.607 180.146 166.476 180.277 166.476 180.408C166.476 182.503 168.178 184.27 170.338 184.27Z" fill="#BCD6FF"/>
<path d="M277.441 136.852C279.699 136.852 281.542 138.695 281.542 140.953V148.694C281.542 150.952 279.699 152.795 277.441 152.795C275.183 152.795 273.339 150.952 273.339 148.694V140.953C273.339 138.695 275.183 136.852 277.441 136.852Z" fill="#002C84"/>
<path d="M277.441 159.385C277.533 159.385 277.625 159.293 277.625 159.201V141.46C277.625 141.368 277.533 141.275 277.441 141.275C277.349 141.275 277.256 141.368 277.256 141.46V159.201C277.256 159.339 277.349 159.385 277.441 159.385Z" fill="#BCD6FF"/>
<path d="M277.441 149.386C278.962 149.386 280.16 148.142 280.16 146.667C280.16 146.575 280.068 146.482 279.976 146.482C279.884 146.482 279.837 146.575 279.791 146.667C279.791 147.957 278.731 149.017 277.441 149.017C277.349 149.017 277.256 149.11 277.256 149.202C277.256 149.294 277.349 149.386 277.441 149.386Z" fill="#BCD6FF"/>
<path d="M277.441 145.331C277.533 145.331 277.626 145.239 277.626 145.147C277.626 145.054 277.533 144.962 277.441 144.962C276.151 144.962 275.091 143.902 275.091 142.612C275.091 142.519 274.998 142.427 274.906 142.427C274.814 142.427 274.722 142.519 274.722 142.612C274.722 144.087 275.92 145.331 277.441 145.331Z" fill="#BCD6FF"/>
<path d="M629.117 152.866C630.62 152.866 631.847 154.093 631.847 155.596V160.749C631.847 162.252 630.62 163.479 629.117 163.479C627.614 163.479 626.387 162.252 626.387 160.749V155.596C626.387 154.093 627.614 152.866 629.117 152.866Z" fill="#002C84"/>
<path d="M629.117 167.864C629.179 167.864 629.24 167.803 629.24 167.742V155.933C629.24 155.872 629.179 155.811 629.117 155.811C629.056 155.811 628.995 155.872 628.995 155.933V167.742C628.995 167.834 629.056 167.864 629.117 167.864Z" fill="#BCD6FF"/>
<path d="M629.117 161.209C630.13 161.209 630.927 160.381 630.927 159.399C630.927 159.338 630.866 159.277 630.805 159.277C630.743 159.277 630.713 159.338 630.682 159.399C630.682 160.258 629.976 160.964 629.117 160.964C629.056 160.964 628.995 161.025 628.995 161.087C628.995 161.148 629.056 161.209 629.117 161.209Z" fill="#BCD6FF"/>
<path d="M629.118 158.51C629.179 158.51 629.241 158.449 629.241 158.387C629.241 158.326 629.179 158.265 629.118 158.265C628.259 158.265 627.553 157.559 627.553 156.7C627.553 156.639 627.492 156.577 627.431 156.577C627.369 156.577 627.308 156.639 627.308 156.7C627.308 157.682 628.106 158.51 629.118 158.51Z" fill="#BCD6FF"/>
<path d="M424.847 363.967C422.589 363.967 420.746 365.81 420.746 368.068V375.81C420.746 378.068 422.589 379.911 424.847 379.911C427.105 379.911 428.948 378.068 428.948 375.81V368.068C428.948 365.81 427.105 363.967 424.847 363.967Z" fill="#002C84"/>
<path d="M424.847 386.501C424.755 386.501 424.663 386.408 424.663 386.316V368.575C424.663 368.483 424.755 368.391 424.847 368.391C424.94 368.391 425.032 368.483 425.032 368.575V386.316C425.032 386.454 424.94 386.501 424.847 386.501Z" fill="#BCD6FF"/>
<path d="M424.847 376.502C423.326 376.502 422.128 375.257 422.128 373.782C422.128 373.69 422.22 373.598 422.312 373.598C422.405 373.598 422.451 373.69 422.497 373.782C422.497 375.073 423.557 376.133 424.847 376.133C424.94 376.133 425.032 376.225 425.032 376.317C425.032 376.409 424.94 376.502 424.847 376.502Z" fill="#BCD6FF"/>
<path d="M424.847 372.447C424.755 372.447 424.662 372.355 424.662 372.262C424.662 372.17 424.755 372.078 424.847 372.078C426.137 372.078 427.197 371.018 427.197 369.727C427.197 369.635 427.29 369.543 427.382 369.543C427.474 369.543 427.566 369.635 427.566 369.727C427.566 371.202 426.368 372.447 424.847 372.447Z" fill="#BCD6FF"/>
<path d="M373.164 376.706C370.906 376.706 369.063 378.549 369.063 380.807V388.549C369.063 390.806 370.906 392.65 373.164 392.65C375.422 392.65 377.265 390.806 377.265 388.549V380.807C377.265 378.549 375.422 376.706 373.164 376.706Z" fill="#002C84"/>
<path d="M373.164 399.239C373.072 399.239 372.98 399.147 372.98 399.055V381.314C372.98 381.222 373.072 381.13 373.164 381.13C373.256 381.13 373.348 381.222 373.348 381.314V399.055C373.348 399.193 373.256 399.239 373.164 399.239Z" fill="#BCD6FF"/>
<path d="M373.164 389.241C371.643 389.241 370.445 387.996 370.445 386.521C370.445 386.429 370.537 386.337 370.629 386.337C370.721 386.337 370.767 386.429 370.813 386.521C370.813 387.812 371.873 388.872 373.164 388.872C373.256 388.872 373.348 388.964 373.348 389.056C373.348 389.148 373.256 389.241 373.164 389.241Z" fill="#BCD6FF"/>
<path d="M373.163 385.185C373.071 385.185 372.979 385.093 372.979 385.001C372.979 384.909 373.071 384.817 373.163 384.817C374.454 384.817 375.514 383.757 375.514 382.466C375.514 382.374 375.606 382.282 375.698 382.282C375.791 382.282 375.883 382.374 375.883 382.466C375.883 383.941 374.684 385.185 373.163 385.185Z" fill="#BCD6FF"/>
<path d="M362.973 355.232C365.231 355.232 367.074 357.075 367.074 359.333V367.074C367.074 369.332 365.231 371.176 362.973 371.176C360.715 371.176 358.872 369.332 358.872 367.074V359.333C358.872 357.075 360.715 355.232 362.973 355.232Z" fill="#002C84"/>
<path d="M362.973 377.765C363.065 377.765 363.157 377.673 363.157 377.581V359.84C363.157 359.748 363.065 359.656 362.973 359.656C362.881 359.656 362.789 359.748 362.789 359.84V377.581C362.789 377.719 362.881 377.765 362.973 377.765Z" fill="#BCD6FF"/>
<path d="M362.973 367.766C364.494 367.766 365.692 366.522 365.692 365.047C365.692 364.955 365.6 364.863 365.508 364.863C365.416 364.863 365.37 364.955 365.324 365.047C365.324 366.337 364.264 367.398 362.973 367.398C362.881 367.398 362.789 367.49 362.789 367.582C362.789 367.674 362.881 367.766 362.973 367.766Z" fill="#BCD6FF"/>
<path d="M362.974 363.711C363.066 363.711 363.158 363.619 363.158 363.527C363.158 363.435 363.066 363.343 362.974 363.343C361.683 363.343 360.623 362.283 360.623 360.992C360.623 360.9 360.531 360.808 360.439 360.808C360.346 360.808 360.254 360.9 360.254 360.992C360.254 362.467 361.453 363.711 362.974 363.711Z" fill="#BCD6FF"/>
<path d="M356.056 377.07C357.512 377.07 358.7 378.258 358.7 379.714V384.704C358.7 386.16 357.512 387.348 356.056 387.348C354.6 387.348 353.412 386.16 353.412 384.704V379.714C353.412 378.258 354.6 377.07 356.056 377.07Z" fill="#002C84"/>
<path d="M356.056 391.596C356.115 391.596 356.175 391.537 356.175 391.477V380.04C356.175 379.981 356.115 379.922 356.056 379.922C355.997 379.922 355.937 379.981 355.937 380.04V391.477C355.937 391.566 355.997 391.596 356.056 391.596Z" fill="#BCD6FF"/>
<path d="M356.056 385.15C357.037 385.15 357.809 384.348 357.809 383.397C357.809 383.338 357.75 383.278 357.69 383.278C357.631 383.278 357.601 383.338 357.571 383.397C357.571 384.229 356.888 384.913 356.056 384.913C355.997 384.913 355.937 384.972 355.937 385.031C355.937 385.091 355.997 385.15 356.056 385.15Z" fill="#BCD6FF"/>
<path d="M356.057 382.536C356.116 382.536 356.175 382.477 356.175 382.417C356.175 382.358 356.116 382.299 356.057 382.299C355.225 382.299 354.541 381.615 354.541 380.783C354.541 380.724 354.482 380.664 354.422 380.664C354.363 380.664 354.303 380.724 354.303 380.783C354.303 381.734 355.076 382.536 356.057 382.536Z" fill="#BCD6FF"/>
<path d="M410.651 381.801C412.107 381.801 413.295 382.99 413.295 384.445V389.436C413.295 390.891 412.107 392.079 410.651 392.079C409.196 392.079 408.007 390.891 408.007 389.436V384.445C408.007 382.99 409.196 381.801 410.651 381.801Z" fill="#002C84"/>
<path d="M410.651 396.327C410.711 396.327 410.77 396.268 410.77 396.209V384.772C410.77 384.712 410.711 384.653 410.651 384.653C410.592 384.653 410.532 384.712 410.532 384.772V396.209C410.532 396.298 410.592 396.327 410.651 396.327Z" fill="#BCD6FF"/>
<path d="M410.651 389.882C411.632 389.882 412.404 389.079 412.404 388.129C412.404 388.069 412.345 388.01 412.285 388.01C412.226 388.01 412.196 388.069 412.167 388.129C412.167 388.961 411.483 389.644 410.651 389.644C410.592 389.644 410.532 389.703 410.532 389.763C410.532 389.822 410.592 389.882 410.651 389.882Z" fill="#BCD6FF"/>
<path d="M410.652 387.268C410.711 387.268 410.77 387.208 410.77 387.149C410.77 387.09 410.711 387.03 410.652 387.03C409.82 387.03 409.136 386.347 409.136 385.515C409.136 385.455 409.077 385.396 409.017 385.396C408.958 385.396 408.899 385.455 408.899 385.515C408.899 386.466 409.671 387.268 410.652 387.268Z" fill="#BCD6FF"/>
<path d="M392.175 353.412C395.681 353.412 398.544 356.275 398.544 359.781V371.805C398.544 375.311 395.681 378.174 392.175 378.174C388.668 378.174 385.805 375.311 385.805 371.805V359.781C385.805 356.275 388.668 353.412 392.175 353.412Z" fill="#002C84"/>
<path d="M392.175 388.408C392.318 388.408 392.461 388.265 392.461 388.122V360.569C392.461 360.426 392.318 360.282 392.175 360.282C392.032 360.282 391.889 360.426 391.889 360.569V388.122C391.889 388.337 392.032 388.408 392.175 388.408Z" fill="#BCD6FF"/>
<path d="M392.175 372.878C394.537 372.878 396.397 370.946 396.397 368.655C396.397 368.512 396.254 368.369 396.111 368.369C395.968 368.369 395.896 368.512 395.825 368.655C395.825 370.659 394.179 372.305 392.175 372.305C392.032 372.305 391.889 372.448 391.889 372.592C391.889 372.735 392.032 372.878 392.175 372.878Z" fill="#BCD6FF"/>
<path d="M392.175 366.58C392.318 366.58 392.461 366.437 392.461 366.294C392.461 366.151 392.318 366.008 392.175 366.008C390.171 366.008 388.525 364.362 388.525 362.358C388.525 362.215 388.382 362.072 388.239 362.072C388.096 362.072 387.952 362.215 387.952 362.358C387.952 364.648 389.813 366.58 392.175 366.58Z" fill="#BCD6FF"/>
<path d="M326.622 367.567H339.093C340.358 367.567 341.623 368.651 341.623 370.097V379.314C341.623 380.58 340.538 381.845 339.093 381.845H326.622C325.357 381.845 324.092 380.76 324.092 379.314V370.097C324.272 368.651 325.357 367.567 326.622 367.567Z" fill="#002C84"/>
<path d="M338.912 361.783C339.454 361.783 340.177 362.325 340.177 363.048V367.386C340.177 367.928 339.635 368.651 338.912 368.651C338.37 368.651 337.647 368.109 337.647 367.386V363.048C337.647 362.325 338.189 361.783 338.912 361.783Z" fill="#002C84"/>
<path d="M336.02 372.627H338.551C338.732 372.627 339.093 372.808 339.093 373.17V375.701C339.093 375.881 338.913 376.243 338.551 376.243H336.02C335.839 376.243 335.478 376.062 335.478 375.701V373.17C335.659 372.808 335.839 372.627 336.02 372.627Z" fill="#FF7E1B"/>
<g filter="url(#filter1_f_537_221)">
<path d="M336.02 372.627H338.551C338.732 372.627 339.093 372.808 339.093 373.17V375.701C339.093 375.881 338.913 376.243 338.551 376.243H336.02C335.839 376.243 335.478 376.062 335.478 375.701V373.17C335.659 372.808 335.839 372.627 336.02 372.627Z" fill="#E7E700"/>
</g>
<path d="M327.887 372.627H331.14C331.502 372.627 331.682 372.808 331.682 373.17V381.303C331.682 381.664 331.502 381.845 331.14 381.845H327.887C327.526 381.845 327.345 381.664 327.345 381.303V373.17C327.345 372.808 327.526 372.627 327.887 372.627Z" fill="#20253A"/>
<path d="M342.888 371.362H322.284C321.561 371.362 321.019 370.82 321.019 370.097C321.019 369.916 321.2 369.736 321.2 369.555L323.369 365.579C323.549 365.217 323.911 365.037 324.272 365.037H341.081C341.623 365.037 341.984 365.398 342.165 365.94L343.611 369.916C343.792 370.459 343.43 371.182 342.888 371.543C343.069 371.362 342.888 371.362 342.888 371.362Z" fill="#002C84"/>
<path d="M340.9 379.676C340.719 380.218 340.538 380.579 340.358 380.941C340.177 381.122 340.177 381.122 340.177 381.122C339.996 381.122 339.996 381.122 339.996 381.122C339.454 380.941 339.092 380.399 339.092 379.856C338.912 380.218 338.55 380.76 338.189 380.941C337.827 381.302 337.285 381.302 336.924 381.122C336.743 380.941 336.562 380.941 336.381 380.941C336.201 380.941 336.02 381.122 335.839 381.302C335.297 381.483 334.936 381.483 334.574 381.122C334.213 380.76 334.032 380.218 334.032 379.856L333.49 381.122C333.49 381.302 333.309 381.302 333.309 381.302C333.128 381.483 333.128 381.483 332.947 381.483C332.044 381.664 331.14 381.664 330.236 381.664C329.694 381.483 329.152 381.483 328.61 381.664C328.429 381.845 328.068 381.845 327.887 381.845C327.345 381.845 326.983 381.483 326.983 380.941C326.983 380.76 326.983 380.76 326.983 380.579C326.803 381.122 326.441 381.483 326.08 381.664C325.899 381.302 325.718 380.941 325.537 380.579C325.176 381.122 324.814 381.483 324.453 382.025C325.718 382.748 327.164 382.748 328.61 382.748C331.863 382.748 335.116 382.929 338.37 382.929C339.454 383.11 340.538 383.11 341.623 382.929C341.803 382.929 342.165 382.748 342.346 382.568C342.526 382.206 342.346 381.664 342.526 381.302C342.165 381.122 341.984 381.122 341.623 380.941C340.9 380.399 340.719 380.037 340.9 379.676Z" fill="#20253A"/>
<path d="M265.03 26.9397L265.357 27.9459H266.415L265.559 28.5678L265.886 29.574L265.03 28.9521L264.174 29.574L264.501 28.5678L263.645 27.9459H264.703L265.03 26.9397Z" fill="#FFFF00"/>
<g filter="url(#filter2_f_537_221)">
<path d="M265.03 26.9397L265.357 27.9459H266.415L265.559 28.5678L265.886 29.574L265.03 28.9521L264.174 29.574L264.501 28.5678L263.645 27.9459H264.703L265.03 26.9397Z" fill="#FFFF00"/>
</g>
<path d="M200.229 96.4739L200.555 97.4801H201.613L200.758 98.102L201.084 99.1082L200.229 98.4863L199.373 99.1082L199.7 98.102L198.844 97.4801H199.902L200.229 96.4739Z" fill="#FFFF00"/>
<g filter="url(#filter3_f_537_221)">
<path d="M200.229 96.4739L200.555 97.4801H201.613L200.758 98.102L201.084 99.1082L200.229 98.4863L199.373 99.1082L199.7 98.102L198.844 97.4801H199.902L200.229 96.4739Z" fill="#FFFF00"/>
</g>
<path d="M33.8568 24.0276L34.3472 25.5369L35.9342 25.5369L34.6503 26.4697L35.1407 27.979L33.8568 27.0462L32.5729 27.979L33.0633 26.4697L31.7794 25.5369L33.3664 25.5369L33.8568 24.0276Z" fill="#FFFF00"/>
<g filter="url(#filter4_f_537_221)">
<path d="M33.8568 24.0276L34.3472 25.5369L35.9342 25.5369L34.6503 26.4697L35.1407 27.979L33.8568 27.0462L32.5729 27.979L33.0633 26.4697L31.7794 25.5369L33.3664 25.5369L33.8568 24.0276Z" fill="#FFFF00"/>
</g>
<path d="M352.038 74.9946L352.528 76.504L354.115 76.504L352.832 77.4368L353.322 78.9461L352.038 78.0133L350.754 78.9461L351.245 77.4368L349.961 76.504L351.548 76.504L352.038 74.9946Z" fill="#FFFF00"/>
<g filter="url(#filter5_f_537_221)">
<path d="M352.038 74.9946L352.528 76.504L354.115 76.504L352.832 77.4368L353.322 78.9461L352.038 78.0133L350.754 78.9461L351.245 77.4368L349.961 76.504L351.548 76.504L352.038 74.9946Z" fill="#FFFF00"/>
</g>
<path d="M460.89 42.594L461.217 43.6002H462.275L461.419 44.2221L461.746 45.2283L460.89 44.6064L460.034 45.2283L460.361 44.2221L459.505 43.6002H460.563L460.89 42.594Z" fill="#FFFF00"/>
<g filter="url(#filter6_f_537_221)">
<path d="M460.89 42.594L461.217 43.6002H462.275L461.419 44.2221L461.746 45.2283L460.89 44.6064L460.034 45.2283L460.361 44.2221L459.505 43.6002H460.563L460.89 42.594Z" fill="#FFFF00"/>
</g>
<path d="M499.115 140.888L499.605 142.397L501.192 142.397L499.908 143.33L500.399 144.839L499.115 143.907L497.831 144.839L498.321 143.33L497.038 142.397L498.625 142.397L499.115 140.888Z" fill="#FFFF00"/>
<g filter="url(#filter7_f_537_221)">
<path d="M499.115 140.888L499.605 142.397L501.192 142.397L499.908 143.33L500.399 144.839L499.115 143.907L497.831 144.839L498.321 143.33L497.038 142.397L498.625 142.397L499.115 140.888Z" fill="#FFFF00"/>
</g>
<path d="M628.353 45.5066L628.844 47.0159L630.431 47.0159L629.147 47.9487L629.637 49.458L628.353 48.5252L627.069 49.458L627.56 47.9487L626.276 47.0159L627.863 47.0159L628.353 45.5066Z" fill="#FFFF00"/>
<g filter="url(#filter8_f_537_221)">
<path d="M628.353 45.5066L628.844 47.0159L630.431 47.0159L629.147 47.9487L629.637 49.458L628.353 48.5252L627.069 49.458L627.56 47.9487L626.276 47.0159L627.863 47.0159L628.353 45.5066Z" fill="#FFFF00"/>
</g>
<path d="M697.159 99.386L697.486 100.392H698.544L697.688 101.014L698.015 102.02L697.159 101.398L696.303 102.02L696.63 101.014L695.774 100.392H696.832L697.159 99.386Z" fill="#FFFF00"/>
<g filter="url(#filter9_f_537_221)">
<path d="M697.159 99.386L697.486 100.392H698.544L697.688 101.014L698.015 102.02L697.159 101.398L696.303 102.02L696.63 101.014L695.774 100.392H696.832L697.159 99.386Z" fill="#FFFF00"/>
</g>
<path d="M777.615 23.2993L777.941 24.3055H778.999L778.144 24.9274L778.47 25.9336L777.615 25.3117L776.759 25.9336L777.086 24.9274L776.23 24.3055H777.288L777.615 23.2993Z" fill="#FFFF00"/>
<g filter="url(#filter10_f_537_221)">
<path d="M777.615 23.2993L777.941 24.3055H778.999L778.144 24.9274L778.47 25.9336L777.615 25.3117L776.759 25.9336L777.086 24.9274L776.23 24.3055H777.288L777.615 23.2993Z" fill="#FFFF00"/>
</g>
</g>
<defs>
<filter id="filter0_d_537_221" x="-91.997" y="-9.09937" width="969.253" height="500.783" filterUnits="userSpaceOnUse" color-interpolation-filters="sRGB">
<feFlood flood-opacity="0" result="BackgroundImageFix"/>
<feColorMatrix in="SourceAlpha" type="matrix" values="0 0 0 0 0 0 0 0 0 0 0 0 0 0 0 0 0 0 127 0" result="hardAlpha"/>
<feOffset dy="1.45621"/>
<feGaussianBlur stdDeviation="0.728104"/>
<feColorMatrix type="matrix" values="0 0 0 0 0 0 0 0 0 0 0 0 0 0 0 0 0 0 0.25 0"/>
<feBlend mode="normal" in2="BackgroundImageFix" result="effect1_dropShadow_537_221"/>
<feBlend mode="normal" in="SourceGraphic" in2="effect1_dropShadow_537_221" result="shape"/>
</filter>
<filter id="filter1_f_537_221" x="332.565" y="369.715" width="9.44031" height="9.44031" filterUnits="userSpaceOnUse" color-interpolation-filters="sRGB">
<feFlood flood-opacity="0" result="BackgroundImageFix"/>
<feBlend mode="normal" in="SourceGraphic" in2="BackgroundImageFix" result="shape"/>
<feGaussianBlur stdDeviation="1.45621" result="effect1_foregroundBlur_537_221"/>
</filter>
<filter id="filter2_f_537_221" x="262.189" y="25.4835" width="5.68231" height="5.54669" filterUnits="userSpaceOnUse" color-interpolation-filters="sRGB">
<feFlood flood-opacity="0" result="BackgroundImageFix"/>
<feBlend mode="normal" in="SourceGraphic" in2="BackgroundImageFix" result="shape"/>
<feGaussianBlur stdDeviation="0.728104" result="effect1_foregroundBlur_537_221"/>
</filter>
<filter id="filter3_f_537_221" x="197.387" y="95.0177" width="5.68231" height="5.54669" filterUnits="userSpaceOnUse" color-interpolation-filters="sRGB">
<feFlood flood-opacity="0" result="BackgroundImageFix"/>
<feBlend mode="normal" in="SourceGraphic" in2="BackgroundImageFix" result="shape"/>
<feGaussianBlur stdDeviation="0.728104" result="effect1_foregroundBlur_537_221"/>
</filter>
<filter id="filter4_f_537_221" x="30.3232" y="22.5714" width="7.0672" height="6.86383" filterUnits="userSpaceOnUse" color-interpolation-filters="sRGB">
<feFlood flood-opacity="0" result="BackgroundImageFix"/>
<feBlend mode="normal" in="SourceGraphic" in2="BackgroundImageFix" result="shape"/>
<feGaussianBlur stdDeviation="0.728104" result="effect1_foregroundBlur_537_221"/>
</filter>
<filter id="filter5_f_537_221" x="348.504" y="73.5384" width="7.0672" height="6.86383" filterUnits="userSpaceOnUse" color-interpolation-filters="sRGB">
<feFlood flood-opacity="0" result="BackgroundImageFix"/>
<feBlend mode="normal" in="SourceGraphic" in2="BackgroundImageFix" result="shape"/>
<feGaussianBlur stdDeviation="0.728104" result="effect1_foregroundBlur_537_221"/>
</filter>
<filter id="filter6_f_537_221" x="458.049" y="41.1378" width="5.68231" height="5.54669" filterUnits="userSpaceOnUse" color-interpolation-filters="sRGB">
<feFlood flood-opacity="0" result="BackgroundImageFix"/>
<feBlend mode="normal" in="SourceGraphic" in2="BackgroundImageFix" result="shape"/>
<feGaussianBlur stdDeviation="0.728104" result="effect1_foregroundBlur_537_221"/>
</filter>
<filter id="filter7_f_537_221" x="495.581" y="139.432" width="7.0672" height="6.86383" filterUnits="userSpaceOnUse" color-interpolation-filters="sRGB">
<feFlood flood-opacity="0" result="BackgroundImageFix"/>
<feBlend mode="normal" in="SourceGraphic" in2="BackgroundImageFix" result="shape"/>
<feGaussianBlur stdDeviation="0.728104" result="effect1_foregroundBlur_537_221"/>
</filter>
<filter id="filter8_f_537_221" x="624.82" y="44.0504" width="7.0672" height="6.86383" filterUnits="userSpaceOnUse" color-interpolation-filters="sRGB">
<feFlood flood-opacity="0" result="BackgroundImageFix"/>
<feBlend mode="normal" in="SourceGraphic" in2="BackgroundImageFix" result="shape"/>
<feGaussianBlur stdDeviation="0.728104" result="effect1_foregroundBlur_537_221"/>
</filter>
<filter id="filter9_f_537_221" x="694.318" y="97.9298" width="5.68231" height="5.54669" filterUnits="userSpaceOnUse" color-interpolation-filters="sRGB">
<feFlood flood-opacity="0" result="BackgroundImageFix"/>
<feBlend mode="normal" in="SourceGraphic" in2="BackgroundImageFix" result="shape"/>
<feGaussianBlur stdDeviation="0.728104" result="effect1_foregroundBlur_537_221"/>
</filter>
<filter id="filter10_f_537_221" x="774.773" y="21.8431" width="5.68231" height="5.54669" filterUnits="userSpaceOnUse" color-interpolation-filters="sRGB">
<feFlood flood-opacity="0" result="BackgroundImageFix"/>
<feBlend mode="normal" in="SourceGraphic" in2="BackgroundImageFix" result="shape"/>
<feGaussianBlur stdDeviation="0.728104" result="effect1_foregroundBlur_537_221"/>
</filter>
<clipPath id="clip0_537_221">
<rect width="800" height="477.889" fill="white"/>
</clipPath>
</defs>
</svg>
