<svg width="2200" height="1400" viewBox="0 0 2200 1400" fill="none" xmlns="http://www.w3.org/2000/svg">
<g clip-path="url(#clip0_643_461)">
<g clip-path="url(#clip1_643_461)">
<mask id="path-1-inside-1_643_461" fill="white">
<path d="M0 0H2200V1584H0V0Z"/>
</mask>
<path d="M0 0H2200V1584H0V0Z" fill="#20253A"/>
<path d="M2321.11 1424.54L2269.32 282.058C2269.32 282.058 2065.67 32.0295 1847.89 342.971C1630.12 653.913 1292.19 1217.21 1064.43 1201.99C688.766 1176.89 376.736 427.009 -26.1543 342.971C-114.442 324.555 -67.3551 1557.7 -67.3551 1557.7L2320.52 1526.53L2321.11 1424.54Z" fill="#1F234A"/>
<path d="M-49.7457 577.734C40.652 432.82 128.733 382.795 215.809 388.333C303.235 393.893 390.557 455.442 479.364 536.125C519.19 572.308 559.211 612.237 599.594 652.528C604.181 657.104 608.773 661.686 613.37 666.267C658.415 711.158 703.925 756.012 750.037 796.045C842.181 876.043 937.138 937.17 1036.16 940.642C1316.41 950.471 1448.84 784.616 1584.6 614.579C1605.57 588.317 1626.62 561.954 1648.31 536.124C1729.45 439.477 1819.54 350.111 1947.71 300.218C2075.56 250.448 2241.62 239.845 2474.97 301.048L2592.99 1745.48L-234.016 1563.67C-252.186 1416.35 -268.685 1270.6 -249.573 1111.62C-230.385 952.019 -175.286 778.983 -49.7457 577.734Z" fill="#1F234A" stroke="#20253A" stroke-width="4.57917"/>
<mask id="path-7-inside-3_643_461" fill="white">
<path fill-rule="evenodd" clip-rule="evenodd" d="M483.01 571.224C515.277 569.843 541.013 543.247 541.013 510.641C541.013 477.151 513.863 450.001 480.373 450.001C470.799 450.001 461.742 452.22 453.69 456.172C444.067 435.405 423.037 421 398.642 421C370.447 421 346.746 440.243 339.957 466.312C337.594 465.988 335.181 465.821 332.73 465.821C303.608 465.821 280 489.428 280 518.55C280 547.672 303.608 571.28 332.73 571.28C332.811 571.28 332.892 571.28 332.973 571.28H480.169C480.237 571.28 480.305 571.28 480.373 571.28C480.441 571.28 480.509 571.28 480.577 571.28H483.01V571.224Z"/>
</mask>
<path fill-rule="evenodd" clip-rule="evenodd" d="M483.01 571.224C515.277 569.843 541.013 543.247 541.013 510.641C541.013 477.151 513.863 450.001 480.373 450.001C470.799 450.001 461.742 452.22 453.69 456.172C444.067 435.405 423.037 421 398.642 421C370.447 421 346.746 440.243 339.957 466.312C337.594 465.988 335.181 465.821 332.73 465.821C303.608 465.821 280 489.428 280 518.55C280 547.672 303.608 571.28 332.73 571.28C332.811 571.28 332.892 571.28 332.973 571.28H480.169C480.237 571.28 480.305 571.28 480.373 571.28C480.441 571.28 480.509 571.28 480.577 571.28H483.01V571.224Z" fill="#002C84"/>
<path d="M483.01 571.224L482.749 565.124L476.904 565.374V571.224H483.01ZM453.69 456.172L448.151 458.739L450.776 464.404L456.38 461.653L453.69 456.172ZM339.957 466.312L339.128 472.361L344.499 473.097L345.865 467.851L339.957 466.312ZM332.973 571.28V565.174H332.959L332.945 565.174L332.973 571.28ZM480.169 571.28L480.19 565.174L480.18 565.174H480.169V571.28ZM480.577 571.28V565.174H480.567L480.557 565.174L480.577 571.28ZM483.01 571.28V577.385H489.115V571.28H483.01ZM483.271 577.324C518.791 575.804 547.118 546.532 547.118 510.641H534.907C534.907 539.963 511.762 563.882 482.749 565.124L483.271 577.324ZM547.118 510.641C547.118 473.779 517.235 443.896 480.373 443.896V456.107C510.491 456.107 534.907 480.523 534.907 510.641H547.118ZM480.373 443.896C469.846 443.896 459.871 446.338 451 450.691L456.38 461.653C463.614 458.103 471.752 456.107 480.373 456.107V443.896ZM459.23 453.605C448.644 430.76 425.502 414.894 398.642 414.894V427.106C420.571 427.106 439.49 440.049 448.151 458.739L459.23 453.605ZM398.642 414.894C367.6 414.894 341.521 436.081 334.048 464.773L345.865 467.851C351.972 444.405 373.294 427.106 398.642 427.106V414.894ZM340.786 460.263C338.149 459.901 335.46 459.715 332.73 459.715V471.926C334.903 471.926 337.039 472.074 339.128 472.361L340.786 460.263ZM332.73 459.715C300.236 459.715 273.894 486.056 273.894 518.55H286.106C286.106 492.8 306.98 471.926 332.73 471.926V459.715ZM273.894 518.55C273.894 551.044 300.236 577.386 332.73 577.386V565.175C306.98 565.175 286.106 544.3 286.106 518.55H273.894ZM332.73 577.386C332.82 577.386 332.91 577.385 333.001 577.385L332.945 565.174C332.874 565.174 332.802 565.175 332.73 565.175V577.386ZM480.169 565.174H332.973V577.385H480.169V565.174ZM480.149 577.385C480.224 577.385 480.299 577.385 480.373 577.385V565.174C480.312 565.174 480.251 565.174 480.19 565.174L480.149 577.385ZM480.373 577.385C480.448 577.385 480.522 577.385 480.598 577.385L480.557 565.174C480.496 565.174 480.435 565.174 480.373 565.174V577.385ZM483.01 565.174H480.577V577.385H483.01V565.174ZM476.904 571.224V571.28H489.115V571.224H476.904Z" fill="#1F234A" mask="url(#path-7-inside-3_643_461)"/>
<mask id="path-9-inside-4_643_461" fill="white">
<path fill-rule="evenodd" clip-rule="evenodd" d="M540.154 317.791C553.552 317.217 564.237 306.175 564.237 292.636C564.237 278.731 552.965 267.459 539.06 267.459C535.084 267.459 531.324 268.38 527.981 270.021C523.985 261.398 515.253 255.417 505.124 255.417C493.418 255.417 483.577 263.406 480.758 274.23C479.777 274.096 478.775 274.026 477.757 274.026C465.666 274.026 455.864 283.828 455.864 295.92C455.864 308.011 465.666 317.814 477.757 317.814C477.771 317.814 477.785 317.813 477.799 317.813H538.901C538.954 317.814 539.007 317.814 539.06 317.814C539.113 317.814 539.165 317.814 539.218 317.813H540.154V317.791Z"/>
</mask>
<path fill-rule="evenodd" clip-rule="evenodd" d="M540.154 317.791C553.552 317.217 564.237 306.175 564.237 292.636C564.237 278.731 552.965 267.459 539.06 267.459C535.084 267.459 531.324 268.38 527.981 270.021C523.985 261.398 515.253 255.417 505.124 255.417C493.418 255.417 483.577 263.406 480.758 274.23C479.777 274.096 478.775 274.026 477.757 274.026C465.666 274.026 455.864 283.828 455.864 295.92C455.864 308.011 465.666 317.814 477.757 317.814C477.771 317.814 477.785 317.813 477.799 317.813H538.901C538.954 317.814 539.007 317.814 539.06 317.814C539.113 317.814 539.165 317.814 539.218 317.813H540.154V317.791Z" fill="#002C84"/>
<path d="M540.154 317.791L539.893 311.691L534.049 311.941V317.791H540.154ZM527.981 270.021L522.441 272.588L525.066 278.253L530.671 275.502L527.981 270.021ZM480.758 274.23L479.929 280.279L485.3 281.015L486.667 275.769L480.758 274.23ZM477.799 317.813L477.799 311.708L477.787 311.708L477.799 317.813ZM538.901 317.813L538.939 311.708L538.92 311.708H538.901V317.813ZM539.218 317.813V311.708H539.199L539.181 311.708L539.218 317.813ZM540.154 317.813V323.919H546.26V317.813H540.154ZM540.415 323.891C557.066 323.178 570.343 309.459 570.343 292.636H558.132C558.132 302.89 550.037 311.257 539.893 311.691L540.415 323.891ZM570.343 292.636C570.343 275.359 556.337 261.353 539.06 261.353V273.564C549.593 273.564 558.132 282.103 558.132 292.636H570.343ZM539.06 261.353C534.131 261.353 529.453 262.497 525.291 264.54L530.671 275.502C533.195 274.263 536.037 273.564 539.06 273.564V261.353ZM533.521 267.454C528.562 256.754 517.719 249.311 505.124 249.311V261.523C512.788 261.523 519.408 266.042 522.441 272.588L533.521 267.454ZM505.124 249.311C490.571 249.311 478.352 259.244 474.85 272.691L486.667 275.769C488.803 267.569 496.265 261.523 505.124 261.523V249.311ZM481.587 268.181C480.332 268.009 479.054 267.921 477.757 267.921V280.132C478.497 280.132 479.222 280.182 479.929 280.279L481.587 268.181ZM477.757 267.921C462.294 267.921 449.758 280.456 449.758 295.92H461.969C461.969 287.2 469.038 280.132 477.757 280.132V267.921ZM449.758 295.92C449.758 311.383 462.294 323.919 477.757 323.919V311.708C469.038 311.708 461.969 304.639 461.969 295.92H449.758ZM477.757 323.919C477.775 323.919 477.792 323.919 477.811 323.919L477.787 311.708C477.778 311.708 477.768 311.708 477.757 311.708V323.919ZM538.901 311.708H477.799V323.919H538.901V311.708ZM538.864 323.919C538.929 323.919 538.994 323.92 539.06 323.92V311.708C539.019 311.708 538.979 311.708 538.939 311.708L538.864 323.919ZM539.06 323.92C539.125 323.92 539.19 323.919 539.256 323.919L539.181 311.708C539.14 311.708 539.1 311.708 539.06 311.708V323.92ZM540.154 311.708H539.218V323.919H540.154V311.708ZM534.049 317.791V317.813H546.26V317.791H534.049Z" fill="#1F234A" mask="url(#path-9-inside-4_643_461)"/>
<mask id="path-11-inside-5_643_461" fill="white">
<path fill-rule="evenodd" clip-rule="evenodd" d="M1822.72 485.346C1854.99 483.965 1880.72 457.369 1880.72 424.763C1880.72 391.273 1853.57 364.123 1820.08 364.123C1810.51 364.123 1801.45 366.343 1793.4 370.294C1783.78 349.527 1762.75 335.122 1738.35 335.122C1710.16 335.122 1686.45 354.365 1679.67 380.434C1677.3 380.11 1674.89 379.943 1672.44 379.943C1643.32 379.943 1619.71 403.551 1619.71 432.672C1619.71 461.794 1643.32 485.402 1672.44 485.402C1672.52 485.402 1672.6 485.402 1672.68 485.402H1819.88C1819.95 485.402 1820.01 485.402 1820.08 485.402C1820.15 485.402 1820.22 485.402 1820.29 485.402H1822.72V485.346Z"/>
</mask>
<path fill-rule="evenodd" clip-rule="evenodd" d="M1822.72 485.346C1854.99 483.965 1880.72 457.369 1880.72 424.763C1880.72 391.273 1853.57 364.123 1820.08 364.123C1810.51 364.123 1801.45 366.343 1793.4 370.294C1783.78 349.527 1762.75 335.122 1738.35 335.122C1710.16 335.122 1686.45 354.365 1679.67 380.434C1677.3 380.11 1674.89 379.943 1672.44 379.943C1643.32 379.943 1619.71 403.551 1619.71 432.672C1619.71 461.794 1643.32 485.402 1672.44 485.402C1672.52 485.402 1672.6 485.402 1672.68 485.402H1819.88C1819.95 485.402 1820.01 485.402 1820.08 485.402C1820.15 485.402 1820.22 485.402 1820.29 485.402H1822.72V485.346Z" fill="#002C84"/>
<path d="M1822.72 485.346L1822.46 479.246L1816.61 479.496V485.346H1822.72ZM1793.4 370.294L1787.86 372.861L1790.48 378.526L1796.09 375.775L1793.4 370.294ZM1679.67 380.434L1678.84 386.483L1684.21 387.219L1685.57 381.973L1679.67 380.434ZM1672.68 485.402V479.296H1672.67L1672.65 479.296L1672.68 485.402ZM1819.88 485.402L1819.9 479.296L1819.89 479.296H1819.88V485.402ZM1820.29 485.402V479.296H1820.28L1820.27 479.296L1820.29 485.402ZM1822.72 485.402V491.507H1828.82V485.402H1822.72ZM1822.98 491.446C1858.5 489.926 1886.83 460.654 1886.83 424.763H1874.62C1874.62 454.085 1851.47 478.005 1822.46 479.246L1822.98 491.446ZM1886.83 424.763C1886.83 387.901 1856.94 358.018 1820.08 358.018V370.229C1850.2 370.229 1874.62 394.645 1874.62 424.763H1886.83ZM1820.08 358.018C1809.55 358.018 1799.58 360.46 1790.71 364.813L1796.09 375.775C1803.32 372.225 1811.46 370.229 1820.08 370.229V358.018ZM1798.94 367.727C1788.35 344.882 1765.21 329.017 1738.35 329.017V341.228C1760.28 341.228 1779.2 354.171 1787.86 372.861L1798.94 367.727ZM1738.35 329.017C1707.31 329.017 1681.23 350.203 1673.76 378.895L1685.57 381.973C1691.68 358.527 1713 341.228 1738.35 341.228V329.017ZM1680.49 374.385C1677.86 374.023 1675.17 373.837 1672.44 373.837V386.048C1674.61 386.048 1676.75 386.196 1678.84 386.483L1680.49 374.385ZM1672.44 373.837C1639.94 373.837 1613.6 400.179 1613.6 432.672H1625.81C1625.81 406.923 1646.69 386.048 1672.44 386.048V373.837ZM1613.6 432.672C1613.6 465.166 1639.94 491.508 1672.44 491.508V479.297C1646.69 479.297 1625.81 458.422 1625.81 432.672H1613.6ZM1672.44 491.508C1672.53 491.508 1672.62 491.508 1672.71 491.507L1672.65 479.296C1672.58 479.296 1672.51 479.297 1672.44 479.297V491.508ZM1819.88 479.296H1672.68V491.507H1819.88V479.296ZM1819.86 491.507C1819.93 491.507 1820.01 491.508 1820.08 491.508V479.296C1820.02 479.296 1819.96 479.296 1819.9 479.296L1819.86 491.507ZM1820.08 491.508C1820.16 491.508 1820.23 491.507 1820.31 491.507L1820.27 479.296C1820.2 479.296 1820.14 479.296 1820.08 479.296V491.508ZM1822.72 479.296H1820.29V491.507H1822.72V479.296ZM1816.61 485.346V485.402H1828.82V485.346H1816.61Z" fill="#1F234A" mask="url(#path-11-inside-5_643_461)"/>
<mask id="path-13-inside-6_643_461" fill="white">
<path fill-rule="evenodd" clip-rule="evenodd" d="M1588.78 217.696C1602.18 217.123 1612.87 206.08 1612.87 192.542C1612.87 178.636 1601.59 167.364 1587.69 167.364C1583.71 167.364 1579.95 168.285 1576.61 169.926C1572.61 161.303 1563.88 155.322 1553.75 155.322C1542.05 155.322 1532.21 163.312 1529.39 174.135C1528.41 174.001 1527.4 173.931 1526.39 173.931C1514.3 173.931 1504.49 183.734 1504.49 195.825C1504.49 207.917 1514.3 217.719 1526.39 217.719C1526.4 217.719 1526.42 217.719 1526.43 217.719H1587.53C1587.58 217.719 1587.64 217.719 1587.69 217.719C1587.74 217.719 1587.8 217.719 1587.85 217.719H1588.78V217.696Z"/>
</mask>
<path fill-rule="evenodd" clip-rule="evenodd" d="M1588.78 217.696C1602.18 217.123 1612.87 206.08 1612.87 192.542C1612.87 178.636 1601.59 167.364 1587.69 167.364C1583.71 167.364 1579.95 168.285 1576.61 169.926C1572.61 161.303 1563.88 155.322 1553.75 155.322C1542.05 155.322 1532.21 163.312 1529.39 174.135C1528.41 174.001 1527.4 173.931 1526.39 173.931C1514.3 173.931 1504.49 183.734 1504.49 195.825C1504.49 207.917 1514.3 217.719 1526.39 217.719C1526.4 217.719 1526.42 217.719 1526.43 217.719H1587.53C1587.58 217.719 1587.64 217.719 1587.69 217.719C1587.74 217.719 1587.8 217.719 1587.85 217.719H1588.78V217.696Z" fill="#002C84"/>
<path d="M1588.78 217.696L1588.52 211.596L1582.68 211.846V217.696H1588.78ZM1576.61 169.926L1571.07 172.493L1573.7 178.158L1579.3 175.407L1576.61 169.926ZM1529.39 174.135L1528.56 180.184L1533.93 180.921L1535.3 175.674L1529.39 174.135ZM1526.43 217.719L1526.43 211.613L1526.42 211.613L1526.43 217.719ZM1587.53 217.719L1587.57 211.613L1587.55 211.613H1587.53V217.719ZM1587.85 217.719V211.613H1587.83L1587.81 211.613L1587.85 217.719ZM1588.78 217.719V223.824H1594.89V217.719H1588.78ZM1589.04 223.796C1605.7 223.083 1618.97 209.365 1618.97 192.542H1606.76C1606.76 202.795 1598.67 211.162 1588.52 211.596L1589.04 223.796ZM1618.97 192.542C1618.97 175.264 1604.97 161.258 1587.69 161.258V173.469C1598.22 173.469 1606.76 182.008 1606.76 192.542H1618.97ZM1587.69 161.258C1582.76 161.258 1578.08 162.402 1573.92 164.445L1579.3 175.407C1581.82 174.168 1584.67 173.469 1587.69 173.469V161.258ZM1582.15 167.359C1577.19 156.659 1566.35 149.217 1553.75 149.217V161.428C1561.42 161.428 1568.04 165.948 1571.07 172.493L1582.15 167.359ZM1553.75 149.217C1539.2 149.217 1526.98 159.15 1523.48 172.596L1535.3 175.674C1537.43 167.474 1544.89 161.428 1553.75 161.428V149.217ZM1530.22 168.086C1528.96 167.914 1527.68 167.826 1526.39 167.826V180.037C1527.13 180.037 1527.85 180.087 1528.56 180.184L1530.22 168.086ZM1526.39 167.826C1510.92 167.826 1498.39 180.362 1498.39 195.825H1510.6C1510.6 187.106 1517.67 180.037 1526.39 180.037V167.826ZM1498.39 195.825C1498.39 211.289 1510.92 223.824 1526.39 223.824V211.613C1517.67 211.613 1510.6 204.545 1510.6 195.825H1498.39ZM1526.39 223.824C1526.41 223.824 1526.42 223.824 1526.44 223.824L1526.42 211.613C1526.41 211.613 1526.4 211.613 1526.39 211.613V223.824ZM1587.53 211.613H1526.43V223.824H1587.53V211.613ZM1587.49 223.824C1587.56 223.825 1587.62 223.825 1587.69 223.825V211.614C1587.65 211.614 1587.61 211.614 1587.57 211.613L1587.49 223.824ZM1587.69 223.825C1587.75 223.825 1587.82 223.825 1587.89 223.824L1587.81 211.613C1587.77 211.614 1587.73 211.614 1587.69 211.614V223.825ZM1588.78 211.613H1587.85V223.824H1588.78V211.613ZM1582.68 217.696V217.719H1594.89V217.696H1582.68Z" fill="#1F234A" mask="url(#path-13-inside-6_643_461)"/>
<path d="M1288.34 1191.53C1370.55 1193.05 1379.78 1203.61 1377.05 1219.14C1316.16 1247.03 1267.23 1213.62 1164.6 1219.53C1084.76 1224.13 1092.92 1203.07 1162.26 1186.21C1191.69 1179.05 1257.72 1190.97 1288.34 1191.53Z" fill="#002C84"/>
<path d="M925.495 1018.46C945.778 1018.46 962.334 1035.02 962.334 1055.3V1124.84C962.334 1145.12 945.778 1161.68 925.495 1161.68C905.213 1161.68 888.656 1145.12 888.656 1124.84V1055.3C888.656 1035.02 905.213 1018.46 925.495 1018.46Z" fill="#002C84"/>
<path d="M925.497 1220.87C926.324 1220.87 927.152 1220.04 927.152 1219.21V1059.85C927.152 1059.02 926.324 1058.2 925.497 1058.2C924.669 1058.2 923.841 1059.02 923.841 1059.85V1219.21C923.841 1220.45 924.669 1220.87 925.497 1220.87Z" fill="#BCD6FF"/>
<path d="M925.497 1131.05C939.156 1131.05 949.918 1119.87 949.918 1106.63C949.918 1105.8 949.09 1104.97 948.262 1104.97C947.434 1104.97 947.02 1105.8 946.607 1106.63C946.607 1118.22 937.086 1127.74 925.497 1127.74C924.669 1127.74 923.841 1128.56 923.841 1129.39C923.841 1130.22 924.669 1131.05 925.497 1131.05Z" fill="#BCD6FF"/>
<path d="M925.494 1094.62C926.322 1094.62 927.15 1093.79 927.15 1092.97C927.15 1092.14 926.322 1091.31 925.494 1091.31C913.904 1091.31 904.384 1081.79 904.384 1070.2C904.384 1069.37 903.556 1068.54 902.728 1068.54C901.901 1068.54 901.073 1069.37 901.073 1070.2C901.073 1083.45 911.835 1094.62 925.494 1094.62Z" fill="#BCD6FF"/>
<path d="M1163.91 1015.21C1179.12 1015.21 1191.53 1027.62 1191.53 1042.83V1094.97C1191.53 1110.17 1179.12 1122.59 1163.91 1122.59C1148.7 1122.59 1136.29 1110.17 1136.29 1094.97V1042.83C1136.29 1027.62 1148.7 1015.21 1163.91 1015.21Z" fill="#002C84"/>
<path d="M1163.91 1166.96C1164.53 1166.96 1165.15 1166.34 1165.15 1165.72V1046.24C1165.15 1045.62 1164.53 1045 1163.91 1045C1163.29 1045 1162.67 1045.62 1162.67 1046.24V1165.72C1162.67 1166.65 1163.29 1166.96 1163.91 1166.96Z" fill="#BCD6FF"/>
<path d="M1163.91 1099.62C1174.15 1099.62 1182.22 1091.24 1182.22 1081.31C1182.22 1080.69 1181.6 1080.07 1180.98 1080.07C1180.36 1080.07 1180.05 1080.69 1179.74 1081.31C1179.74 1090 1172.6 1097.14 1163.91 1097.14C1163.29 1097.14 1162.67 1097.76 1162.67 1098.38C1162.67 1099 1163.29 1099.62 1163.91 1099.62Z" fill="#BCD6FF"/>
<path d="M1163.91 1072.31C1164.53 1072.31 1165.15 1071.69 1165.15 1071.07C1165.15 1070.45 1164.53 1069.83 1163.91 1069.83C1155.22 1069.83 1148.08 1062.69 1148.08 1054C1148.08 1053.38 1147.46 1052.76 1146.84 1052.76C1146.22 1052.76 1145.6 1053.38 1145.6 1054C1145.6 1063.93 1153.67 1072.31 1163.91 1072.31Z" fill="#BCD6FF"/>
<path d="M1111.54 1083.56V1157.16C1111.54 1163.06 1106.76 1167.85 1100.86 1167.85H994.008C988.107 1167.85 983.324 1163.06 983.324 1157.16V1083.56C983.324 1080.23 984.877 1077.09 987.525 1075.07L1040.95 1034.29C1044.78 1031.37 1050.09 1031.37 1053.92 1034.29L1107.34 1075.07C1109.99 1077.09 1111.54 1080.23 1111.54 1083.56Z" fill="#002C84" stroke="#20253A" stroke-width="3.05278"/>
<path d="M1035.22 1125.11C1035.22 1118.37 1040.69 1112.9 1047.43 1112.9H1048.96C1055.7 1112.9 1061.17 1118.37 1061.17 1125.11V1167.85H1035.22V1125.11Z" fill="#20253A" stroke="#20253A" stroke-width="3.05278"/>
<path d="M1021.48 1122.06H1023.01V1120.53V1103.74C1023.01 1097.84 1018.23 1093.06 1012.33 1093.06C1006.42 1093.06 1001.64 1097.84 1001.64 1103.74V1120.53V1122.06H1003.17H1021.48Z" fill="#FFFFFE" stroke="#20253A" stroke-width="3.05278"/>
<path d="M1011.94 1093.06V1121.29" stroke="#20253A" stroke-width="1.52639"/>
<path d="M1023.39 1107.17L1001.64 1107.17" stroke="#20253A" stroke-width="1.52639"/>
<path d="M1094.37 1122.06H1095.9V1120.53V1103.74C1095.9 1097.84 1091.11 1093.06 1085.21 1093.06C1079.31 1093.06 1074.53 1097.84 1074.53 1103.74V1120.53V1122.06H1076.05H1094.37Z" fill="#FFFFFE" stroke="#20253A" stroke-width="3.05278"/>
<path d="M1085.21 1094.58V1122.82" stroke="#20253A" stroke-width="1.52639"/>
<path d="M1096.66 1108.7L1074.91 1108.7" stroke="#20253A" stroke-width="1.52639"/>
<circle cx="1055.06" cy="1143.43" r="3.05278" fill="#002C84"/>
<path d="M1061.17 1167.85H1035.22C1055.72 1265.72 907.294 1276.66 845.042 1336.64C786.769 1392.78 838.664 1462.24 913.995 1497.69C1020.11 1502.72 1227 1503.81 1200.86 1499.23C1161.29 1492.29 990.018 1432.01 1013.68 1370.53C1035.03 1315.05 1120.52 1248.76 1061.17 1167.85Z" fill="#002C84"/>
<mask id="path-34-outside-7_643_461" maskUnits="userSpaceOnUse" x="967.098" y="1023.41" width="158" height="68" fill="black">
<rect fill="white" x="967.098" y="1023.41" width="158" height="68"/>
<path fill-rule="evenodd" clip-rule="evenodd" d="M972.68 1080.84C970.971 1082.08 970.586 1084.46 971.82 1086.17C973.054 1087.88 975.439 1088.27 977.148 1087.03L1048.05 1035.84L1115.88 1084.81C1117.58 1086.04 1119.97 1085.65 1121.2 1083.95C1122.44 1082.24 1122.05 1079.85 1120.34 1078.62L1050.41 1028.13C1049.7 1027.62 1048.88 1027.38 1048.06 1027.41C1047.25 1027.38 1046.41 1027.61 1045.69 1028.13L972.68 1080.84Z"/>
</mask>
<path fill-rule="evenodd" clip-rule="evenodd" d="M972.68 1080.84C970.971 1082.08 970.586 1084.46 971.82 1086.17C973.054 1087.88 975.439 1088.27 977.148 1087.03L1048.05 1035.84L1115.88 1084.81C1117.58 1086.04 1119.97 1085.65 1121.2 1083.95C1122.44 1082.24 1122.05 1079.85 1120.34 1078.62L1050.41 1028.13C1049.7 1027.62 1048.88 1027.38 1048.06 1027.41C1047.25 1027.38 1046.41 1027.61 1045.69 1028.13L972.68 1080.84Z" fill="#20253A"/>
<path d="M971.82 1086.17L969.345 1087.96L969.345 1087.96L971.82 1086.17ZM972.68 1080.84L974.467 1083.32L974.467 1083.32L972.68 1080.84ZM977.148 1087.03L975.361 1084.56L975.361 1084.56L977.148 1087.03ZM1048.05 1035.84L1049.84 1033.36L1048.05 1032.07L1046.27 1033.36L1048.05 1035.84ZM1115.88 1084.81L1117.66 1082.33L1117.66 1082.33L1115.88 1084.81ZM1121.2 1083.95L1123.68 1085.73L1123.68 1085.73L1121.2 1083.95ZM1120.34 1078.62L1122.13 1076.14L1122.13 1076.14L1120.34 1078.62ZM1050.41 1028.13L1048.63 1030.6L1048.63 1030.6L1050.41 1028.13ZM1048.06 1027.41L1047.95 1030.46L1048.06 1030.46L1048.16 1030.46L1048.06 1027.41ZM1045.69 1028.13L1047.48 1030.6L1047.48 1030.6L1045.69 1028.13ZM974.295 1084.39C974.048 1084.04 974.125 1083.57 974.467 1083.32L970.893 1078.37C967.817 1080.59 967.124 1084.88 969.345 1087.96L974.295 1084.39ZM975.361 1084.56C975.019 1084.8 974.542 1084.73 974.295 1084.39L969.345 1087.96C971.566 1091.04 975.859 1091.73 978.935 1089.51L975.361 1084.56ZM1046.27 1033.36L975.361 1084.56L978.935 1089.51L1049.84 1038.31L1046.27 1033.36ZM1046.27 1038.31L1114.09 1087.28L1117.66 1082.33L1049.84 1033.36L1046.27 1038.31ZM1114.09 1087.28C1117.16 1089.5 1121.46 1088.81 1123.68 1085.73L1118.73 1082.16C1118.48 1082.5 1118 1082.58 1117.66 1082.33L1114.09 1087.28ZM1123.68 1085.73C1125.9 1082.66 1125.21 1078.36 1122.13 1076.14L1118.56 1081.09C1118.9 1081.34 1118.97 1081.82 1118.73 1082.16L1123.68 1085.73ZM1122.13 1076.14L1052.2 1025.65L1048.63 1030.6L1118.56 1081.09L1122.13 1076.14ZM1052.2 1025.65C1050.93 1024.73 1049.43 1024.31 1047.97 1024.36L1048.16 1030.46C1048.32 1030.45 1048.48 1030.5 1048.63 1030.6L1052.2 1025.65ZM1047.48 1030.6C1047.63 1030.5 1047.79 1030.45 1047.95 1030.46L1048.18 1024.36C1046.7 1024.3 1045.19 1024.72 1043.91 1025.65L1047.48 1030.6ZM974.467 1083.32L1047.48 1030.6L1043.91 1025.65L970.893 1078.37L974.467 1083.32Z" fill="#002C84" mask="url(#path-34-outside-7_643_461)"/>
<path d="M2333.32 1743.53L2281.53 807.154C2281.53 807.154 2077.88 602.231 1860.1 857.078C1642.33 1111.93 1304.4 1573.61 1076.65 1561.13C700.976 1540.56 388.947 925.956 -13.9434 857.078C-102.231 841.985 -55.1441 1852.67 -55.1441 1852.67L2332.73 1827.12L2333.32 1743.53Z" fill="#002C84"/>
<path d="M2199 1562.26H1V1563.79H2199V1562.26Z" fill="#597183" mask="url(#path-3-inside-2_643_461)"/>
</g>
<path d="M2200 1583.24H0V1584.76H2200V1583.24Z" fill="#597183" mask="url(#path-1-inside-1_643_461)"/>
<path d="M309.262 1170C334.181 1170 354.524 1190.34 354.524 1215.26V1300.7C354.524 1325.62 334.181 1345.96 309.262 1345.96C284.342 1345.96 264 1325.62 264 1300.7V1215.26C264 1190.34 284.342 1170 309.262 1170Z" fill="#1F234A"/>
<path d="M309.263 1418.69C310.28 1418.69 311.297 1417.67 311.297 1416.65V1220.86C311.297 1219.84 310.28 1218.82 309.263 1218.82C308.246 1218.82 307.229 1219.84 307.229 1220.86V1416.65C307.229 1418.18 308.246 1418.69 309.263 1418.69Z" fill="#BCD6FF"/>
<path d="M309.263 1308.33C326.046 1308.33 339.268 1294.6 339.268 1278.32C339.268 1277.31 338.251 1276.29 337.234 1276.29C336.217 1276.29 335.708 1277.31 335.2 1278.32C335.2 1292.56 323.503 1304.26 309.263 1304.26C308.246 1304.26 307.229 1305.28 307.229 1306.3C307.229 1307.31 308.246 1308.33 309.263 1308.33Z" fill="#BCD6FF"/>
<path d="M309.26 1263.58C310.277 1263.58 311.295 1262.56 311.295 1261.54C311.295 1260.52 310.277 1259.51 309.26 1259.51C295.021 1259.51 283.324 1247.81 283.324 1233.57C283.324 1232.55 282.307 1231.54 281.29 1231.54C280.272 1231.54 279.255 1232.55 279.255 1233.57C279.255 1249.84 292.478 1263.58 309.26 1263.58Z" fill="#BCD6FF"/>
<path d="M414.875 744C427.47 744 437.751 754.281 437.751 766.876V810.056C437.751 822.651 427.47 832.932 414.875 832.932C402.281 832.932 392 822.651 392 810.056V766.876C392 754.281 402.281 744 414.875 744Z" fill="#002C84"/>
<path d="M414.876 869.687C415.39 869.687 415.904 869.173 415.904 868.659V769.703C415.904 769.189 415.39 768.675 414.876 768.675C414.362 768.675 413.848 769.189 413.848 769.703V868.659C413.848 869.43 414.362 869.687 414.876 869.687Z" fill="#BCD6FF"/>
<path d="M414.876 813.912C423.358 813.912 430.041 806.972 430.041 798.747C430.041 798.233 429.527 797.719 429.013 797.719C428.499 797.719 428.242 798.233 427.985 798.747C427.985 805.944 422.073 811.856 414.876 811.856C414.362 811.856 413.848 812.37 413.848 812.884C413.848 813.398 414.362 813.912 414.876 813.912Z" fill="#BCD6FF"/>
<path d="M414.875 791.293C415.389 791.293 415.903 790.779 415.903 790.265C415.903 789.751 415.389 789.237 414.875 789.237C407.678 789.237 401.767 783.325 401.767 776.128C401.767 775.614 401.253 775.1 400.739 775.1C400.225 775.1 399.71 775.614 399.71 776.128C399.71 784.353 406.393 791.293 414.875 791.293Z" fill="#BCD6FF"/>
<path d="M1625.88 892C1613.28 892 1603 902.281 1603 914.876V958.056C1603 970.651 1613.28 980.932 1625.88 980.932C1638.47 980.932 1648.75 970.651 1648.75 958.056V914.876C1648.75 902.281 1638.47 892 1625.88 892Z" fill="#002C84"/>
<path d="M1625.87 1017.69C1625.36 1017.69 1624.85 1017.17 1624.85 1016.66V917.703C1624.85 917.189 1625.36 916.675 1625.87 916.675C1626.39 916.675 1626.9 917.189 1626.9 917.703V1016.66C1626.9 1017.43 1626.39 1017.69 1625.87 1017.69Z" fill="#BCD6FF"/>
<path d="M1625.87 961.912C1617.39 961.912 1610.71 954.972 1610.71 946.747C1610.71 946.233 1611.22 945.719 1611.74 945.719C1612.25 945.719 1612.51 946.233 1612.77 946.747C1612.77 953.944 1618.68 959.856 1625.87 959.856C1626.39 959.856 1626.9 960.37 1626.9 960.884C1626.9 961.398 1626.39 961.912 1625.87 961.912Z" fill="#BCD6FF"/>
<path d="M1625.88 939.293C1625.36 939.293 1624.85 938.779 1624.85 938.265C1624.85 937.751 1625.36 937.237 1625.88 937.237C1633.07 937.237 1638.98 931.325 1638.98 924.128C1638.98 923.614 1639.5 923.1 1640.01 923.1C1640.53 923.1 1641.04 923.614 1641.04 924.128C1641.04 932.353 1634.36 939.293 1625.88 939.293Z" fill="#BCD6FF"/>
<path d="M2012.88 462C2025.47 462 2035.75 472.281 2035.75 484.876V528.056C2035.75 540.651 2025.47 550.932 2012.88 550.932C2000.28 550.932 1990 540.651 1990 528.056V484.876C1990 472.281 2000.28 462 2012.88 462Z" fill="#002C84"/>
<path d="M2012.88 587.687C2013.39 587.687 2013.9 587.173 2013.9 586.659V487.703C2013.9 487.189 2013.39 486.675 2012.88 486.675C2012.36 486.675 2011.85 487.189 2011.85 487.703V586.659C2011.85 587.43 2012.36 587.687 2012.88 587.687Z" fill="#BCD6FF"/>
<path d="M2012.88 531.912C2021.36 531.912 2028.04 524.972 2028.04 516.747C2028.04 516.233 2027.53 515.719 2027.01 515.719C2026.5 515.719 2026.24 516.233 2025.98 516.747C2025.98 523.944 2020.07 529.856 2012.88 529.856C2012.36 529.856 2011.85 530.37 2011.85 530.884C2011.85 531.398 2012.36 531.912 2012.88 531.912Z" fill="#BCD6FF"/>
<path d="M2012.88 509.293C2013.39 509.293 2013.9 508.779 2013.9 508.265C2013.9 507.751 2013.39 507.237 2012.88 507.237C2005.68 507.237 1999.77 501.325 1999.77 494.128C1999.77 493.614 1999.25 493.1 1998.74 493.1C1998.22 493.1 1997.71 493.614 1997.71 494.128C1997.71 502.353 2004.39 509.293 2012.88 509.293Z" fill="#BCD6FF"/>
<path d="M1882 1001C1851.17 1001 1826 1026.17 1826 1057V1162.71C1826 1193.54 1851.17 1218.71 1882 1218.71C1912.83 1218.71 1938 1193.54 1938 1162.71V1057C1938 1026.17 1912.83 1001 1882 1001Z" fill="#1F234A"/>
<path d="M1882 1308.69C1880.74 1308.69 1879.48 1307.43 1879.48 1306.17V1063.92C1879.48 1062.66 1880.74 1061.4 1882 1061.4C1883.26 1061.4 1884.52 1062.66 1884.52 1063.92V1306.17C1884.52 1308.06 1883.26 1308.69 1882 1308.69Z" fill="#BCD6FF"/>
<path d="M1882 1172.15C1861.23 1172.15 1844.87 1155.16 1844.87 1135.02C1844.87 1133.77 1846.13 1132.51 1847.39 1132.51C1848.65 1132.51 1849.28 1133.77 1849.91 1135.02C1849.91 1152.64 1864.38 1167.11 1882 1167.11C1883.26 1167.11 1884.52 1168.37 1884.52 1169.63C1884.52 1170.89 1883.26 1172.15 1882 1172.15Z" fill="#BCD6FF"/>
<path d="M1882 1116.78C1880.74 1116.78 1879.48 1115.52 1879.48 1114.26C1879.48 1113 1880.74 1111.74 1882 1111.74C1899.62 1111.74 1914.09 1097.27 1914.09 1079.65C1914.09 1078.39 1915.35 1077.13 1916.61 1077.13C1917.87 1077.13 1919.12 1078.39 1919.12 1079.65C1919.12 1099.79 1902.77 1116.78 1882 1116.78Z" fill="#BCD6FF"/>
<path d="M2025.83 53.6479V77.986" stroke="#FFFF01" stroke-width="3.04225"/>
<path d="M2038 65.8169L2013.66 65.8169" stroke="#FFFF01" stroke-width="3.04225"/>
<path d="M554.901 43V67.338" stroke="#FFFF01" stroke-width="3.04225"/>
<path d="M567.071 55.1689L542.733 55.1689" stroke="#FFFF01" stroke-width="3.04225"/>
<path d="M106.169 193.592V217.93" stroke="#FFFF01" stroke-width="3.04225"/>
<path d="M118.338 205.76L93.9999 205.76" stroke="#FFFF01" stroke-width="3.04225"/>
<path d="M1780.93 205.76V230.099" stroke="#FFFF01" stroke-width="3.04225"/>
<path d="M1793.1 217.929L1768.76 217.929" stroke="#FFFF01" stroke-width="3.04225"/>
<path d="M1283.52 81.0283V105.366" stroke="#FFFF01" stroke-width="3.04225"/>
<path d="M1295.69 93.1973L1271.35 93.1973" stroke="#FFFF01" stroke-width="3.04225"/>
<path d="M929.099 193.591V217.929" stroke="#FFFF01" stroke-width="3.04225"/>
<path d="M941.267 205.76L916.929 205.76" stroke="#FFFF01" stroke-width="3.04225"/>
<path d="M293.268 300.07V324.408" stroke="#FFFF01" stroke-width="3.04225"/>
<path d="M305.437 312.239L281.098 312.239" stroke="#FFFF01" stroke-width="3.04225"/>
<path d="M1329.15 792.916V817.254" stroke="#FFFF01" stroke-width="3.04225"/>
<path d="M1341.32 805.084L1316.99 805.084" stroke="#FFFF01" stroke-width="3.04225"/>
<path d="M884.986 718.38V742.718" stroke="#FFFF01" stroke-width="3.04225"/>
<path d="M897.155 730.549L872.817 730.549" stroke="#FFFF01" stroke-width="3.04225"/>
<path d="M591.409 458.267V482.605" stroke="#FFFF01" stroke-width="3.04225"/>
<path d="M603.578 470.436L579.24 470.436" stroke="#FFFF01" stroke-width="3.04225"/>
</g>
<defs>
<clipPath id="clip0_643_461">
<rect width="2200" height="1400" fill="white"/>
</clipPath>
<clipPath id="clip1_643_461">
<path d="M0 0H2200V1584H0V0Z" fill="white"/>
</clipPath>
</defs>
</svg>
