<svg width="500" height="500" viewBox="0 0 500 500" fill="none" xmlns="http://www.w3.org/2000/svg">
<g clip-path="url(#clip0_664_1254)">
<rect width="500" height="500" transform="matrix(1 0 0 -1 0 500)" fill="#FFEBF7"/>
<path d="M221.281 297.853H286.741C286.741 297.853 286.741 385.399 310.659 417.328C334.576 449.257 277.842 456.328 256.529 457.465C233.645 458.686 177.565 423.508 199.423 410.118C221.281 396.729 221.281 297.853 221.281 297.853Z" fill="white"/>
<path d="M322.838 394.438L320.939 395.066C321.505 396.778 323.177 397.841 324.85 397.829C344.157 397.685 355.17 403.065 360.384 410.654C365.608 418.255 365.486 428.762 360.933 439.952C351.811 462.37 325.557 485.753 295.709 488.934C276.754 490.954 253.709 486.625 231.238 478.846C208.796 471.077 187.117 459.935 170.943 448.517C162.853 442.805 156.195 437.064 151.513 431.688C146.78 426.253 144.287 421.443 144.043 417.579C143.925 415.704 144.334 414.044 145.295 412.563C146.27 411.061 147.893 409.624 150.385 408.361C155.419 405.81 163.654 404.143 175.903 403.936C177.053 403.917 178.345 403.388 179.132 402.294C187.405 390.791 189.097 376.712 188.371 364.438C187.643 352.142 184.474 341.403 182.749 336.331C182.743 336.311 182.743 336.3 182.745 336.289C182.748 336.273 182.757 336.25 182.774 336.227C182.791 336.205 182.807 336.195 182.813 336.193L182.815 336.192L182.815 336.192L182.815 336.192L182.817 336.192C182.818 336.192 182.822 336.192 182.827 336.192L319.519 347.828C319.545 347.847 319.591 347.885 319.655 347.956C319.835 348.155 320.041 348.496 320.201 348.949C320.359 349.396 320.439 349.859 320.439 350.248C320.44 350.439 320.421 350.589 320.396 350.696C320.372 350.799 320.348 350.839 320.348 350.839L320.349 350.839C316.044 357.665 312.921 370.798 320.939 395.066L322.838 394.438ZM319.493 347.812C319.493 347.812 319.495 347.812 319.498 347.814C319.495 347.813 319.493 347.812 319.493 347.812Z" fill="white" stroke="#BCD6FF" stroke-width="4"/>
<path d="M37.4213 429.923C50.8987 392.317 128.95 392.742 163.331 396.846C167.991 397.402 171.602 400.861 173.132 405.298C178.943 422.147 192.243 441.62 247.831 472.946C308.602 507.192 325.602 453.665 335.378 426.598C345.596 398.304 285.421 386.686 391.921 395.73C453.728 400.978 472.571 481.179 474.395 493.906C476.22 506.632 381.352 541.176 322.971 533.904C264.591 526.631 208.035 510.269 151.479 510.269H30.2337C23.291 510.269 17.9299 504.403 19.0874 497.558C21.5532 482.976 26.9798 459.058 37.4213 429.923Z" fill="#11161B" stroke="#597183" stroke-width="3"/>
<path d="M238.321 181.721C237.783 193.727 232.437 202.601 223.748 208.629C214.887 214.776 202.246 218.144 187.135 218.144C172.179 218.144 160.249 214.259 152.176 207.92C144.21 201.666 139.7 192.812 139.7 181.945C139.7 176.297 138.589 170.805 137.664 166.234C137.472 165.286 137.288 164.377 137.124 163.515C136.077 158.019 135.877 154.631 136.949 152.146C137.841 150.08 140.211 147.444 147.866 145.356C155.517 143.269 167.493 142.01 185.969 142C203.573 143.627 215.714 145.449 224.056 147.637C232.546 149.864 236.284 152.273 238.029 154.436C239.62 156.41 240.187 158.968 239.942 163.619C239.834 165.686 239.584 167.931 239.291 170.557C239.254 170.895 239.215 171.24 239.176 171.592C238.842 174.609 238.488 178.004 238.321 181.721Z" stroke="#FFEBF7" stroke-width="10"/>
<path d="M283.701 181.721C284.239 193.727 289.585 202.601 298.274 208.629C307.135 214.776 319.776 218.144 334.887 218.144C349.843 218.144 361.773 214.259 369.846 207.92C377.812 201.666 382.322 192.812 382.322 181.945C382.322 176.297 383.433 170.805 384.358 166.234C384.55 165.286 384.734 164.377 384.898 163.515C385.945 158.019 386.146 154.631 385.073 152.146C384.181 150.08 381.812 147.444 374.156 145.356C366.506 143.269 354.529 142.01 336.053 142C318.449 143.627 306.308 145.449 297.967 147.637C289.476 149.864 285.738 152.273 283.994 154.436C282.402 156.41 281.835 158.968 282.08 163.619C282.189 165.686 282.439 167.931 282.731 170.557C282.769 170.895 282.807 171.24 282.846 171.592C283.18 174.609 283.534 178.004 283.701 181.721Z" stroke="#FFEBF7" stroke-width="10"/>
<path d="M241.444 180.2C241.444 169.269 250.304 160.409 261.235 160.409C272.165 160.409 281.026 169.269 281.026 180.2" stroke="#FFEBF7" stroke-width="10" stroke-linecap="round"/>
<path d="M142.325 203.694C142.325 219.543 132.207 231.563 120.636 231.563C109.065 231.563 98.947 219.543 98.947 203.694C98.947 187.846 109.065 175.825 120.636 175.825C132.207 175.825 142.325 187.846 142.325 203.694Z" fill="white" stroke="#BCD6FF" stroke-width="4"/>
<path d="M119.435 186.498C105.325 113.678 161.106 46.052 235.28 46.052H272.526C345.46 46.052 400.93 111.555 388.914 183.493L371.033 290.546C364.688 328.531 340.048 361.178 302.547 367.029C288.926 369.154 273.326 370.607 256.135 370.607C238.137 370.607 221.883 369.014 207.819 366.725C171.405 360.799 147.133 329.45 140.013 292.705L119.435 186.498Z" fill="white" stroke="#BCD6FF" stroke-width="4"/>
<circle cx="201.065" cy="199.176" r="7.74026" fill="#0A49DB"/>
<path d="M211.303 191.068C199.053 178.398 177.097 181.48 174.365 195.307" stroke="#0A49DB" stroke-width="5" stroke-linecap="round"/>
<circle cx="336.964" cy="198.084" r="7.74026" fill="#0A49DB"/>
<path d="M345.017 190.038C332.768 177.368 310.811 180.45 308.08 194.277" stroke="#0A49DB" stroke-width="5" stroke-linecap="round"/>
<path d="M242.067 200.976C241.84 212.519 237.107 221.091 229.333 226.987C221.403 233.002 209.951 236.48 196.12 236.803C182.452 237.121 171.499 233.68 164.011 227.844C156.617 222.08 152.257 213.73 152.013 203.29C151.887 197.872 150.741 192.626 149.787 188.26C149.589 187.355 149.399 186.488 149.229 185.664C148.141 180.413 147.883 177.17 148.81 174.777C149.56 172.842 151.592 170.335 158.483 168.203C165.406 166.061 176.339 164.599 193.326 164.191C209.554 165.374 220.732 166.857 228.413 168.764C236.229 170.704 239.623 172.899 241.215 174.858C242.69 176.674 243.278 179.095 243.156 183.577C243.102 185.562 242.922 187.72 242.711 190.246C242.684 190.571 242.656 190.903 242.629 191.24C242.388 194.142 242.138 197.406 242.067 200.976Z" stroke="#FFEBF7" stroke-width="10"/>
<path d="M284.654 199.983C285.42 211.504 290.547 219.846 298.587 225.373C306.788 231.012 318.391 233.953 332.221 233.631C345.889 233.312 356.67 229.364 363.878 223.185C370.995 217.083 374.962 208.54 374.719 198.099C374.592 192.681 375.493 187.388 376.243 182.982C376.398 182.069 376.547 181.193 376.679 180.363C377.521 175.067 377.628 171.816 376.59 169.469C375.751 167.57 373.604 165.16 366.622 163.352C359.606 161.535 348.617 160.583 331.629 160.968C315.474 162.905 304.378 164.907 296.793 167.17C289.077 169.473 285.788 171.823 284.289 173.855C282.901 175.737 282.426 178.182 282.757 182.654C282.903 184.634 283.183 186.782 283.511 189.295C283.554 189.619 283.597 189.949 283.64 190.285C284.015 193.172 284.418 196.421 284.654 199.983Z" stroke="#FFEBF7" stroke-width="10"/>
<path d="M245.303 199.44C245.058 188.955 253.022 180.265 263.09 180.03C273.159 179.796 281.519 188.105 281.763 198.59" stroke="#FFEBF7" stroke-width="10" stroke-linecap="round"/>
<path d="M280.434 112.031C262.681 97.7259 233.991 82.1598 198.972 82.1598C132.589 82.1598 173.726 77.3367 144.385 88.3395C133.054 92.5885 132.395 156.365 133.09 194.464C133.428 213.01 130.468 213.67 124.407 196.14C117.118 175.059 108.336 146.912 108.336 133.657C108.336 -6.17727 278.17 61.7059 365.284 78.2297C368.032 78.751 370.45 80.2097 371.904 82.5997C386.014 105.793 407.857 174.428 399.5 168C386.111 157.7 343.166 94.5192 343.166 106.879C343.166 108.484 342.964 109.664 342.625 110.58C339.79 118.25 326.833 121.237 322.122 114.553C316.636 106.768 314.986 99.669 299.908 99.669C290.744 99.669 290.34 102.28 292.564 106.583C297.234 115.615 288.351 118.411 280.434 112.031Z" fill="#0A49DB"/>
<path d="M223.063 362.73C197.214 364.9 177.759 349.122 160.216 337.441C157.857 335.871 155.671 337.908 157.335 340.202C160.541 344.622 164.987 349.714 169.53 354.295C195.568 380.549 221.917 386.484 258.78 385.915C289.984 385.433 311.821 375.862 334.901 361.096C357.982 346.33 358.585 327.757 352.357 334.462C346.129 341.167 329.327 353.966 311.332 356.224C293.379 358.477 284.313 343.993 266.296 345.337C247.646 346.727 241.757 361.161 223.063 362.73Z" fill="#0A49DB"/>
<path d="M226.774 287.199C237.6 301.275 248.476 303.902 258.507 298.327" stroke="#0A49DB" stroke-width="5" stroke-linecap="round"/>
<ellipse cx="270.329" cy="329.209" rx="11.3295" ry="7.20968" fill="#0A49DB"/>
<path d="M266 198.823C266 218.654 272 241.823 282 256.323C292 270.823 271.196 279.621 258 270.823" stroke="#0A49DB" stroke-width="5" stroke-linecap="round" stroke-linejoin="round"/>
<circle cx="116.5" cy="219.323" r="4.5" fill="#11161B"/>
<path d="M106.729 131.731C29.6842 -52.2543 465.37 -84.5456 395.781 131.68C388.415 113.538 209.256 102.632 180.169 109.066C143.91 117.086 119.878 155.88 106.729 131.731Z" fill="#11161B" stroke="#597183" stroke-width="3"/>
<rect x="80.5847" y="72.3795" width="338.33" height="71.6197" rx="18.5" transform="rotate(-1.24178 80.5847 72.3795)" fill="#11161B" stroke="#597183" stroke-width="3"/>
<rect x="200.124" y="85.7744" width="124" height="38" rx="18.5" transform="rotate(-1.17266 200.124 85.7744)" fill="#19242D" stroke="#597183" stroke-width="3"/>
</g>
<defs>
<clipPath id="clip0_664_1254">
<rect width="500" height="500" fill="white" transform="matrix(1 0 0 -1 0 500)"/>
</clipPath>
</defs>
</svg>
