<svg width="500" height="500" viewBox="0 0 500 500" fill="none" xmlns="http://www.w3.org/2000/svg">
<g clip-path="url(#clip0_663_627)">
<rect width="500" height="500" transform="matrix(1 0 0 -1 0 500)" fill="#FFEBF7"/>
<path d="M221.281 297.854H286.741C286.741 297.854 286.741 385.4 310.658 417.328C334.576 449.257 277.842 456.328 256.529 457.465C233.645 458.686 177.565 423.508 199.423 410.118C221.281 396.729 221.281 297.854 221.281 297.854Z" fill="white"/>
<path d="M182.827 336.191L319.519 347.827C319.545 347.846 319.591 347.884 319.655 347.955C319.835 348.154 320.041 348.495 320.201 348.948C320.359 349.395 320.439 349.858 320.439 350.247C320.44 350.438 320.421 350.588 320.396 350.696C320.37 350.804 320.345 350.844 320.348 350.838C316.043 357.664 312.921 370.798 320.939 395.065C321.505 396.777 323.177 397.841 324.85 397.828C344.157 397.684 355.17 403.065 360.384 410.653C365.607 418.255 365.486 428.761 360.933 439.951C351.811 462.369 325.557 485.752 295.709 488.933C276.754 490.953 253.709 486.624 231.238 478.846C208.796 471.077 187.117 459.934 170.943 448.516C162.852 442.805 156.195 437.064 151.513 431.687C146.78 426.252 144.287 421.443 144.043 417.578C143.925 415.704 144.334 414.044 145.295 412.563C146.27 411.061 147.893 409.623 150.385 408.36C155.419 405.809 163.654 404.142 175.903 403.936C177.053 403.916 178.345 403.387 179.132 402.294C187.405 390.79 189.097 376.711 188.371 364.438C187.643 352.141 184.474 341.402 182.749 336.33C182.743 336.311 182.743 336.299 182.745 336.288C182.748 336.272 182.757 336.249 182.774 336.227C182.791 336.204 182.807 336.195 182.813 336.192L182.815 336.191L182.815 336.191L182.815 336.191L182.817 336.191C182.818 336.191 182.822 336.191 182.827 336.191ZM319.493 347.811C319.493 347.811 319.495 347.812 319.498 347.814C319.495 347.812 319.493 347.811 319.493 347.811Z" fill="white" stroke="#BCD6FF" stroke-width="4"/>
<path d="M37.4213 429.922C50.8987 392.316 128.95 392.742 163.331 396.845C167.991 397.401 171.602 400.86 173.132 405.297C178.943 422.146 192.243 441.619 247.831 472.945C308.602 507.191 325.602 453.664 335.378 426.597C345.596 398.303 285.421 386.685 391.921 395.729C453.728 400.977 472.571 481.179 474.395 493.905C476.22 506.632 381.352 541.175 322.971 533.903C264.591 526.63 208.035 510.268 151.479 510.268H40.2502C33.3075 510.268 27.3261 504.392 27.1155 497.453C26.6728 482.861 27.0046 458.988 37.4213 429.922Z" fill="#405362" stroke="#597183" stroke-width="3"/>
<path d="M238.321 181.721C237.783 193.727 232.437 202.601 223.748 208.629C214.887 214.776 202.246 218.144 187.135 218.144C172.179 218.144 160.249 214.259 152.176 207.92C144.21 201.666 139.7 192.812 139.7 181.945C139.7 176.297 138.589 170.805 137.664 166.234C137.472 165.286 137.288 164.377 137.124 163.515C136.077 158.019 135.877 154.631 136.949 152.146C137.841 150.08 140.21 147.444 147.866 145.356C155.517 143.269 167.493 142.01 185.969 142C203.573 143.627 215.714 145.449 224.055 147.637C232.546 149.864 236.284 152.273 238.028 154.436C239.62 156.41 240.187 158.968 239.942 163.619C239.834 165.686 239.584 167.931 239.291 170.558C239.253 170.896 239.215 171.24 239.176 171.592C238.842 174.609 238.488 178.004 238.321 181.721Z" stroke="#FFEBF7" stroke-width="10"/>
<path d="M283.701 181.721C284.239 193.727 289.585 202.601 298.274 208.629C307.135 214.776 319.776 218.144 334.887 218.144C349.843 218.144 361.773 214.259 369.846 207.92C377.812 201.666 382.322 192.812 382.322 181.945C382.322 176.297 383.433 170.805 384.358 166.234C384.55 165.286 384.734 164.377 384.898 163.515C385.945 158.019 386.145 154.631 385.073 152.146C384.181 150.08 381.812 147.444 374.156 145.356C366.505 143.269 354.529 142.01 336.053 142C318.449 143.627 306.308 145.449 297.967 147.637C289.476 149.864 285.738 152.273 283.993 154.436C282.402 156.41 281.835 158.968 282.08 163.619C282.188 165.686 282.438 167.931 282.731 170.558C282.769 170.896 282.807 171.24 282.846 171.592C283.18 174.609 283.534 178.004 283.701 181.721Z" stroke="#FFEBF7" stroke-width="10"/>
<path d="M241.444 180.199C241.444 169.269 250.304 160.408 261.235 160.408C272.165 160.408 281.026 169.269 281.026 180.199" stroke="#FFEBF7" stroke-width="10" stroke-linecap="round"/>
<path d="M142.325 203.695C142.325 219.543 132.207 231.564 120.636 231.564C109.065 231.564 98.947 219.543 98.947 203.695C98.947 187.846 109.065 175.826 120.636 175.826C132.207 175.826 142.325 187.846 142.325 203.695Z" fill="white" stroke="#BCD6FF" stroke-width="4"/>
<path d="M235.28 46.0527H272.526C345.46 46.0527 400.93 111.556 388.914 183.493L371.032 290.547C364.688 328.532 340.048 361.179 302.547 367.03C288.926 369.155 273.326 370.608 256.135 370.608C238.137 370.608 221.884 369.015 207.819 366.726C171.405 360.8 147.133 329.451 140.013 292.706L119.435 186.499C105.325 113.679 161.106 46.0527 235.28 46.0527Z" fill="white" stroke="#BCD6FF" stroke-width="4"/>
<circle cx="201.065" cy="199.176" r="7.74026" fill="#4583FE"/>
<path d="M211.302 191.068C199.053 178.398 177.097 181.48 174.365 195.307" stroke="#4583FE" stroke-width="5" stroke-linecap="round"/>
<circle cx="336.964" cy="198.084" r="7.74026" fill="#4583FE"/>
<path d="M345.017 190.039C332.767 177.369 310.811 180.451 308.079 194.278" stroke="#4583FE" stroke-width="5" stroke-linecap="round"/>
<path d="M242.067 200.976C241.84 212.519 237.107 221.091 229.333 226.987C221.403 233.002 209.951 236.48 196.12 236.803C182.452 237.121 171.499 233.68 164.011 227.844C156.617 222.08 152.257 213.73 152.013 203.29C151.887 197.872 150.741 192.626 149.787 188.26C149.589 187.355 149.399 186.488 149.229 185.664C148.141 180.413 147.883 177.17 148.81 174.777C149.56 172.842 151.592 170.335 158.483 168.203C165.406 166.061 176.339 164.599 193.326 164.191C209.554 165.374 220.731 166.857 228.413 168.764C236.229 170.704 239.623 172.899 241.215 174.858C242.69 176.674 243.278 179.095 243.156 183.577C243.102 185.562 242.922 187.72 242.711 190.246C242.684 190.571 242.656 190.903 242.629 191.24C242.388 194.142 242.138 197.406 242.067 200.976Z" stroke="#FFEBF7" stroke-width="10"/>
<path d="M284.654 199.983C285.42 211.504 290.547 219.846 298.587 225.373C306.788 231.012 318.391 233.953 332.221 233.631C345.889 233.312 356.67 229.364 363.878 223.185C370.995 217.083 374.962 208.54 374.719 198.099C374.592 192.681 375.493 187.388 376.243 182.982C376.398 182.069 376.547 181.193 376.679 180.363C377.521 175.067 377.628 171.816 376.59 169.469C375.751 167.57 373.604 165.16 366.622 163.352C359.606 161.535 348.617 160.583 331.629 160.968C315.474 162.905 304.378 164.907 296.793 167.17C289.077 169.473 285.788 171.823 284.289 173.855C282.901 175.737 282.426 178.182 282.757 182.654C282.903 184.634 283.183 186.782 283.511 189.295C283.554 189.619 283.597 189.949 283.64 190.285C284.015 193.172 284.418 196.421 284.654 199.983Z" stroke="#FFEBF7" stroke-width="10"/>
<path d="M245.303 199.44C245.058 188.955 253.022 180.265 263.091 180.03C273.159 179.795 281.519 188.105 281.763 198.59" stroke="#FFEBF7" stroke-width="10" stroke-linecap="round"/>
<path d="M280.434 112.031C262.681 97.7261 233.991 82.16 198.972 82.16C132.589 82.16 173.726 77.3369 144.385 88.3398C133.054 92.5887 132.395 156.366 133.09 194.464C133.428 213.01 130.468 213.671 124.407 196.14C117.118 175.059 108.336 146.912 108.336 133.658C108.336 -6.17702 278.17 61.7061 365.284 78.2299C368.032 78.7513 370.45 80.21 371.904 82.6C386.014 105.793 407.857 174.429 399.5 168C386.111 157.7 343.166 94.5195 343.166 106.879C343.166 108.485 342.964 109.664 342.625 110.58C339.79 118.25 326.833 121.237 322.122 114.553C316.636 106.768 314.986 99.6693 299.908 99.6693C290.744 99.6693 290.34 102.28 292.564 106.583C297.234 115.615 288.351 118.411 280.434 112.031Z" fill="#4583FE"/>
<path d="M223.063 362.73C197.214 364.9 177.759 349.122 160.216 337.441C157.857 335.871 155.671 337.908 157.335 340.202C160.541 344.622 164.987 349.715 169.53 354.295C195.568 380.549 221.917 386.484 258.78 385.915C289.984 385.434 311.821 375.862 334.901 361.096C357.982 346.33 358.585 327.757 352.357 334.462C346.129 341.167 329.327 353.966 311.332 356.224C293.379 358.477 284.313 343.994 266.296 345.337C247.646 346.728 241.757 361.161 223.063 362.73Z" fill="#4583FE"/>
<path d="M226.774 287.199C237.6 301.275 248.476 303.902 258.507 298.326" stroke="#4583FE" stroke-width="5" stroke-linecap="round"/>
<ellipse cx="270.329" cy="329.21" rx="11.3295" ry="7.20968" fill="#4583FE"/>
<path d="M266 198.824C266 218.655 272 241.824 282 256.324C292 270.824 271.196 279.622 258 270.824" stroke="#4583FE" stroke-width="5" stroke-linecap="round" stroke-linejoin="round"/>
<circle cx="116.5" cy="219.324" r="4.5" fill="#11161B"/>
<path d="M106.729 131.73C29.6842 -52.2548 465.37 -84.5461 395.781 131.68C388.415 113.538 209.256 102.632 180.169 109.065C143.91 117.085 119.878 155.88 106.729 131.73Z" fill="#405362" stroke="#597183" stroke-width="3"/>
<rect x="80.5846" y="72.3792" width="338.33" height="71.6197" rx="18.5" transform="rotate(-1.24178 80.5846 72.3792)" fill="#405362" stroke="#597183" stroke-width="3"/>
<rect x="200.124" y="85.7737" width="124" height="38" rx="18.5" transform="rotate(-1.17266 200.124 85.7737)" fill="#3C4F5C" stroke="#597183" stroke-width="3"/>
</g>
<defs>
<clipPath id="clip0_663_627">
<rect width="500" height="500" fill="white" transform="matrix(1 0 0 -1 0 500)"/>
</clipPath>
</defs>
</svg>
