<svg width="500" height="500" viewBox="0 0 500 500" fill="none" xmlns="http://www.w3.org/2000/svg">
<g clip-path="url(#clip0_536_85)">
<rect width="500" height="500" transform="matrix(1 0 0 -1 0 500)" fill="#002C84"/>
<ellipse cx="119.636" cy="189.696" rx="23.6889" ry="29.8687" fill="white"/>
<path fill-rule="evenodd" clip-rule="evenodd" d="M286.32 300.931H220.86C220.86 300.931 220.86 372.033 207.531 401.812C195.085 401.937 182.423 401.845 169.134 401.127C138.647 399.479 126.219 405.246 123.816 408.336C135.488 425.846 166.868 468.898 199.002 501.032C232.059 534.089 268.603 527.385 296.581 522.254C302.599 521.15 308.222 520.118 313.327 519.571C342.166 516.481 371.005 450.564 363.795 427.905C355.597 402.142 326.958 398.058 299.529 398.658C286.32 359.863 286.32 300.931 286.32 300.931Z" fill="white"/>
<path fill-rule="evenodd" clip-rule="evenodd" d="M327.107 349.58L179.324 337C179.324 337 193.429 374.569 179.19 406.214C165.895 406.347 183.056 408.513 168.861 407.75C136.576 421.163 114.609 423.547 119.745 431.208C132.214 449.814 166.44 479.765 200.767 513.912C236.079 549.039 275.117 541.916 305.003 536.463C311.432 535.29 317.438 534.194 322.892 533.612C353.698 530.329 384.505 460.284 376.803 436.206C368.046 408.828 352.192 398.291 322.892 398.929C308.781 357.703 327.107 349.58 327.107 349.58Z" fill="white"/>
<path d="M116.471 172.879C102.123 98.8251 158.849 30.0529 234.28 30.0529H271.526C345.696 30.0529 402.106 96.6664 389.887 169.823L372.005 276.877C365.567 315.421 340.467 348.982 301.855 355.006C288.142 357.145 272.438 358.608 255.135 358.608C237.02 358.608 220.658 357.005 206.497 354.7C169.008 348.599 144.275 316.376 137.05 279.086L116.471 172.879Z" fill="white"/>
<path d="M47.0682 435.169C61.6633 394.444 145.701 393.959 174.283 398.807C188.27 418.806 183.553 440.037 247.41 476.023C308.181 510.27 325.18 456.742 334.956 429.675C345.175 401.382 296.458 394.935 364.511 398.807C426.44 402.331 472.15 484.257 473.974 496.983C475.798 509.71 380.93 544.253 322.55 536.981C264.17 529.709 207.614 513.346 151.058 513.346H27C27.6081 504.256 32.4732 475.894 47.0682 435.169Z" fill="#20253A"/>
<circle cx="200.065" cy="179.178" r="7.74026" fill="#4583FE"/>
<path d="M210.303 171.07C198.053 158.399 176.097 161.482 173.365 175.308" stroke="#4583FE" stroke-width="5" stroke-linecap="round"/>
<circle cx="335.964" cy="178.085" r="7.74026" fill="#4583FE"/>
<path d="M344.017 170.04C331.768 157.369 309.811 160.452 307.08 174.278" stroke="#4583FE" stroke-width="5" stroke-linecap="round"/>
<path d="M237.9 178.799C237.362 190.805 232.016 199.679 223.327 205.707C214.466 211.854 201.825 215.222 186.714 215.222C171.758 215.222 159.828 211.337 151.755 204.999C143.789 198.744 139.279 189.89 139.279 179.023C139.279 173.375 138.168 167.883 137.243 163.312C137.051 162.364 136.867 161.455 136.703 160.593C135.656 155.097 135.455 151.709 136.528 149.224C137.42 147.159 139.789 144.522 147.445 142.434C155.095 140.347 167.072 139.089 185.548 139.078C203.151 140.706 215.293 142.527 223.634 144.715C232.125 146.942 235.863 149.352 237.607 151.514C239.199 153.488 239.766 156.046 239.521 160.697C239.412 162.764 239.162 165.009 238.87 167.636C238.832 167.974 238.794 168.319 238.755 168.67C238.421 171.688 238.067 175.082 237.9 178.799Z" stroke="#FFEBF7" stroke-width="10"/>
<path d="M283.28 178.799C283.818 190.805 289.164 199.679 297.853 205.707C306.714 211.854 319.355 215.222 334.466 215.222C349.422 215.222 361.352 211.337 369.425 204.999C377.391 198.744 381.901 189.89 381.901 179.023C381.901 173.375 383.012 167.883 383.937 163.312C384.129 162.364 384.313 161.455 384.477 160.593C385.524 155.097 385.724 151.709 384.652 149.224C383.76 147.159 381.39 144.522 373.735 142.434C366.084 140.348 354.108 139.089 335.632 139.078C318.028 140.706 305.887 142.527 297.545 144.715C289.055 146.942 285.317 149.352 283.572 151.514C281.981 153.488 281.414 156.046 281.659 160.697C281.767 162.764 282.017 165.009 282.31 167.636C282.348 167.974 282.386 168.319 282.425 168.67C282.759 171.688 283.113 175.082 283.28 178.799Z" stroke="#FFEBF7" stroke-width="10"/>
<path d="M241.022 177.278C241.022 166.348 249.883 157.487 260.813 157.487C271.744 157.487 280.604 166.348 280.604 177.278" stroke="#FFEBF7" stroke-width="10" stroke-linecap="round"/>
<path d="M298.908 125.839C296.161 116.569 255.65 68.1612 197.972 68.1612C131.589 68.1612 172.726 63.3381 143.385 74.3409C126.906 80.5206 120.726 185.576 120.726 181.456C120.726 181.456 107.336 142.318 107.336 119.659C107.336 101.532 142.355 42.7556 159.864 15.6335L255.65 23.8731L342.166 47.5621C353.495 62.6681 381.709 97.0248 389.544 119.659C403.448 159.827 399.843 140.258 386.454 129.958C373.065 119.659 342.166 80.5206 342.166 92.88C342.166 102.768 348.346 112.449 357.615 125.839C337.016 115.539 321.567 85.6704 298.908 85.6704C276.249 85.6704 307.148 107.814 298.908 125.839Z" fill="#4583FE"/>
<path d="M220.914 349.424C191.444 351.465 171.691 329.194 152.39 317.387C154.218 322.461 161.267 331.439 168.596 339.048C194.248 365.68 220.507 371.999 257.374 371.969C288.582 371.943 310.556 362.692 333.85 348.265C357.144 333.838 358.019 315.275 351.693 321.889C345.368 328.502 328.38 341.054 310.354 343.049C292.37 345.039 283.517 330.425 265.483 331.505C246.814 332.623 239.629 348.128 220.914 349.424Z" fill="#4583FE"/>
<path d="M225.774 267.201C236.6 281.276 247.476 283.903 257.507 278.328" stroke="#4583FE" stroke-width="5" stroke-linecap="round"/>
<ellipse cx="260.799" cy="314.32" rx="11.3295" ry="7.20968" fill="#4583FE"/>
<path d="M93.3566 107.009C82.4744 87.8908 61.2519 19.9641 118 -32.1753C193.339 -29.2786 363.739 -66.9347 394.712 -32.1752C464.214 45.8248 405.873 98.6808 394.712 133.078C391.922 126.561 379.226 108.095 350.764 86.3701C315.188 59.2142 245.212 52.1058 180 67.8248C143.898 76.5269 106.959 130.906 93.3566 107.009Z" fill="#20253A"/>
<path d="M265 178.825C265 198.656 271 221.825 281 236.325C291 250.825 270.196 259.622 257 250.825" stroke="#4583FE" stroke-width="5" stroke-linecap="round" stroke-linejoin="round"/>
<circle cx="115.5" cy="207.325" r="4.5" fill="#20253A"/>
<path d="M314 400.525C314 397.148 315.7 394.036 318.459 392.201C319.268 391.662 320.223 391.407 321.185 391.262L400.285 379.356C400.574 379.312 400.852 379.217 401.131 379.131C403.012 378.553 405 379.953 405 382.004V525.027C405 528.969 402.685 532.542 399.088 534.153L318.227 570.379C316.242 571.268 314 569.816 314 567.641V400.525Z" fill="#20253A"/>
<path d="M307 397.525C307 394.148 308.7 391.036 311.459 389.201C312.268 388.662 313.223 388.407 314.185 388.262L393.285 376.356C393.574 376.312 393.852 376.217 394.131 376.131C396.012 375.553 398 376.953 398 379.004V522.027C398 525.969 395.685 529.542 392.088 531.153L311.227 567.379C309.242 568.268 307 566.816 307 564.641V397.525Z" fill="#20253A"/>
<path d="M396.207 376.257L403.206 379.256L402 381.772L393 383.272L396.207 376.257Z" fill="#20253A"/>
<path d="M315.807 570.394L309 567.471L310.5 564.772L319.5 563.272L315.807 570.394Z" fill="#20253A"/>
<path d="M318 407.743C318 402.855 321.534 398.683 326.356 397.879L398.507 385.854C400.335 385.55 402 386.96 402 388.813V520.82C402 524.748 399.7 528.312 396.122 529.931L322.236 563.356C320.251 564.254 318 562.802 318 560.622V407.743Z" fill="#4583FE"/>
<path d="M325 414.475C325 409.572 328.554 405.392 333.393 404.605L356.518 400.839C358.343 400.542 360 401.951 360 403.8V428.702C360 433.693 356.32 437.919 351.377 438.606L328.413 441.798C326.609 442.048 325 440.647 325 438.826V414.475Z" fill="#20253A"/>
<ellipse cx="349.824" cy="421.144" rx="5.5127" ry="6.61523" transform="rotate(-2.74961 349.824 421.144)" fill="#002C84"/>
<ellipse cx="335.824" cy="415.144" rx="5.5127" ry="6.61523" transform="rotate(-2.74961 335.824 415.144)" fill="#002C84"/>
<path d="M339.77 415.119C339.889 417.595 338.32 419.521 336.458 419.611C334.596 419.7 332.85 417.933 332.731 415.457C332.612 412.98 334.18 411.054 336.043 410.965C337.905 410.875 339.651 412.642 339.77 415.119Z" fill="#002C84" stroke="#20253A"/>
<path d="M353.77 421.119C353.889 423.595 352.32 425.521 350.458 425.611C348.596 425.7 346.85 423.933 346.731 421.457C346.612 418.98 348.18 417.054 350.043 416.965C351.905 416.875 353.651 418.642 353.77 421.119Z" fill="#002C84" stroke="#20253A"/>
<g filter="url(#filter0_f_536_85)">
<ellipse cx="348.579" cy="407.722" rx="4" ry="5" transform="rotate(-6.99083 348.579 407.722)" fill="white"/>
</g>
<g filter="url(#filter1_f_536_85)">
<ellipse cx="348.812" cy="413.121" rx="19.0087" ry="22.6294" transform="rotate(-4.73419 348.812 413.121)" fill="white"/>
</g>
<g filter="url(#filter2_f_536_85)">
<ellipse cx="354.257" cy="419.545" rx="30.3758" ry="36.1617" transform="rotate(-4.73419 354.257 419.545)" fill="white"/>
</g>
</g>
<defs>
<filter id="filter0_f_536_85" x="339.562" y="397.735" width="18.0344" height="19.974" filterUnits="userSpaceOnUse" color-interpolation-filters="sRGB">
<feFlood flood-opacity="0" result="BackgroundImageFix"/>
<feBlend mode="normal" in="SourceGraphic" in2="BackgroundImageFix" result="shape"/>
<feGaussianBlur stdDeviation="2.5" result="effect1_foregroundBlur_536_85"/>
</filter>
<filter id="filter1_f_536_85" x="313.774" y="374.513" width="70.0742" height="77.2153" filterUnits="userSpaceOnUse" color-interpolation-filters="sRGB">
<feFlood flood-opacity="0" result="BackgroundImageFix"/>
<feBlend mode="normal" in="SourceGraphic" in2="BackgroundImageFix" result="shape"/>
<feGaussianBlur stdDeviation="8" result="effect1_foregroundBlur_536_85"/>
</filter>
<filter id="filter2_f_536_85" x="296.836" y="356.418" width="114.842" height="126.254" filterUnits="userSpaceOnUse" color-interpolation-filters="sRGB">
<feFlood flood-opacity="0" result="BackgroundImageFix"/>
<feBlend mode="normal" in="SourceGraphic" in2="BackgroundImageFix" result="shape"/>
<feGaussianBlur stdDeviation="13.5" result="effect1_foregroundBlur_536_85"/>
</filter>
<clipPath id="clip0_536_85">
<rect width="500" height="500" fill="white" transform="matrix(1 0 0 -1 0 500)"/>
</clipPath>
</defs>
</svg>
