<svg width="256" height="142" viewBox="0 0 256 142" fill="none" xmlns="http://www.w3.org/2000/svg">
<path d="M37.8104 50.652C37.7204 52.292 37.1304 53.782 36.3404 55.202C35.6304 56.492 34.6804 57.592 33.6204 58.602C33.2704 58.932 32.8904 59.222 32.5004 59.482C32.2004 59.692 32.1704 59.792 32.5404 59.962C34.7204 60.912 36.5704 62.332 38.1704 64.072C39.0704 65.042 39.6204 66.212 40.1204 67.412C40.3904 68.072 40.6304 68.742 40.8404 69.422C40.9504 69.782 40.9804 70.172 41.0404 70.552C41.1904 71.492 41.2104 72.442 41.1704 73.402C41.0804 75.412 40.4504 77.262 39.4804 78.992C38.4004 80.942 37.0304 82.692 35.1604 83.942C32.9704 85.402 30.5704 86.392 27.9404 86.742C27.0504 86.862 26.1504 86.882 25.2504 86.882C18.3204 86.882 11.3904 86.882 4.46043 86.882C4.07043 86.882 3.68043 86.822 3.29043 86.872C2.83043 86.922 2.69043 86.742 2.69043 86.272C2.69043 82.812 2.70043 79.362 2.70043 75.902C2.70043 63.042 2.70043 50.182 2.70043 37.322C2.70043 37.202 2.70043 37.072 2.70043 36.952C2.6871 36.372 2.96377 36.082 3.53043 36.082C9.37043 36.082 15.2204 36.082 21.0604 36.082C23.4704 36.082 25.8604 36.192 28.1704 36.992C29.4204 37.422 30.5904 37.992 31.7104 38.702C33.0904 39.572 34.3604 40.612 35.3104 41.902C36.4804 43.482 37.2704 45.302 37.6304 47.262C37.7404 47.882 37.8504 48.502 37.8404 49.142C37.8404 49.242 37.8504 49.332 37.8604 49.432C37.9204 49.712 37.9104 49.992 37.8604 50.262C37.8604 50.302 37.8604 50.342 37.8504 50.382C37.8504 50.472 37.8504 50.552 37.8404 50.642L37.8104 50.652ZM12.7704 78.662C12.8904 78.662 13.0204 78.662 13.1404 78.662C13.4804 78.652 13.8204 78.632 14.1604 78.632C17.6204 78.612 21.0904 78.692 24.5504 78.592C25.9004 78.552 27.1804 78.192 28.2804 77.412C29.9104 76.252 30.8504 74.662 31.1204 72.652C31.6704 68.512 28.6204 64.832 24.4204 64.752C20.5804 64.682 16.7504 64.732 12.9104 64.712C12.5604 64.712 12.5504 64.882 12.5504 65.142C12.5504 69.492 12.5504 73.852 12.5504 78.202C12.5504 78.392 12.5304 78.582 12.7604 78.662H12.7704ZM12.5404 50.552C12.5404 50.552 12.5404 50.552 12.5504 50.552C12.5504 52.492 12.5504 54.422 12.5504 56.362C12.5504 56.632 12.6004 56.762 12.9004 56.752C16.0204 56.742 19.1504 56.802 22.2704 56.702C24.3704 56.632 26.0404 55.642 27.0904 53.762C27.5504 52.942 27.7604 52.062 27.8504 51.122C28.0404 49.162 27.5104 47.482 26.1504 46.082C25.0904 44.982 23.7404 44.432 22.2304 44.402C19.1104 44.342 15.9904 44.362 12.8604 44.332C12.4804 44.332 12.5304 44.552 12.5304 44.792C12.5304 46.712 12.5304 48.632 12.5304 50.552H12.5404Z" fill="#444242"/>
<path d="M165.69 94.5474C165.53 94.0474 165.9 94.1074 166.18 94.1074C168.7 94.1074 171.21 94.1174 173.73 94.1174C175.51 94.1174 177.23 93.8074 178.69 92.7574C179.88 91.8974 180.52 90.6374 180.75 89.1874C181.07 87.1774 180.9 85.1474 180.95 83.0574C180.52 83.2374 180.25 83.5374 179.92 83.7574C179.09 84.3174 178.25 84.8474 177.33 85.2774C175.97 85.9074 174.61 86.5074 173.15 86.7974C172.38 86.9474 171.6 87.0574 170.81 87.1274C169.95 87.2074 169.09 87.2574 168.23 87.2174C167.35 87.1874 166.45 87.1674 165.6 86.9374C164.98 86.7674 164.27 86.8874 163.73 86.4174C160.26 85.7474 157.47 83.8574 154.98 81.4674C153.98 80.5074 153.22 79.3374 152.47 78.1574C151.95 77.3474 151.47 76.5374 151.05 75.6774C150.06 73.6474 149.62 71.4674 149.43 69.2374C149.07 65.1474 150.14 61.3874 152.17 57.8474C153.57 55.4074 155.51 53.4974 157.79 51.9074C160.78 49.8174 164.12 48.7074 167.74 48.4374C171.38 48.1674 174.81 48.8974 177.98 50.6774C178.88 51.1874 179.83 51.6574 180.58 52.4174C180.65 52.4974 180.74 52.5974 180.86 52.5474C181.01 52.4874 180.96 52.3374 180.96 52.2174C180.96 51.4074 180.96 50.6074 180.93 49.7974C180.92 49.4374 181.05 49.3474 181.38 49.3474C184.29 49.3574 187.19 49.3674 190.1 49.3474C190.48 49.3474 190.47 49.5474 190.47 49.8274C190.47 54.6774 190.47 59.5274 190.48 64.3774C190.48 72.0774 190.48 79.7774 190.48 87.4774C190.48 89.2074 190.43 90.9374 189.89 92.6074C188.68 96.3374 186.54 99.2774 182.77 100.797C181.98 101.107 181.21 101.487 180.4 101.687C179.81 101.837 179.18 101.957 178.57 101.987C174.48 102.187 170.39 102.027 166.3 102.077C166.13 102.077 165.96 102.117 165.8 102.017C165.77 102.017 165.75 101.997 165.73 101.977V101.957H165.71C165.71 101.867 165.71 101.787 165.71 101.697H165.73H165.72C165.72 101.587 165.73 101.497 165.74 101.397C165.74 101.277 165.74 101.157 165.74 101.027C165.74 99.1774 165.74 97.3274 165.74 95.4774V95.4574C165.74 95.3374 165.74 95.2074 165.74 95.0874C165.74 94.9974 165.74 94.8974 165.73 94.8074C165.77 94.7174 165.78 94.6274 165.72 94.5374L165.69 94.5474ZM181 67.2174C180.88 65.7374 180.65 64.6974 180.25 63.6974C178.19 58.5074 172.56 55.6374 167.3 57.0374C162.49 58.3174 159.25 62.1274 158.85 67.2274C158.7 69.1074 159.19 71.0174 160.03 72.6974C160.49 73.6174 161.05 74.4674 161.76 75.2174C164.6 78.1874 168.05 79.3174 172.11 78.6274C172.78 78.5074 173.43 78.3174 174.06 78.0574C175.99 77.2674 177.62 76.0974 178.85 74.4074C179.65 73.3074 180.26 72.1174 180.61 70.7974C180.96 69.4874 181.16 68.1674 180.99 67.2174H181Z" fill="#444242"/>
<path d="M69.6202 71.3208C64.9402 71.3208 60.2602 71.3208 55.5902 71.3208C55.2202 71.3208 55.0902 71.3808 55.2302 71.7808C56.7002 75.9108 59.4202 78.6508 63.8502 79.4908C64.9402 79.7008 66.0402 79.6508 67.1502 79.5708C68.2802 79.4808 69.3502 79.2008 70.3802 78.7808C71.3402 78.3808 72.2102 77.8108 73.0502 77.1908C73.8402 76.6008 74.5102 75.9008 75.1402 75.1608C75.4102 74.8408 75.7002 74.8708 75.9602 75.0708C77.9202 76.5608 79.8902 78.0308 81.9002 79.4608C82.1302 79.6208 82.1702 79.7608 81.9902 79.9908C80.3202 82.1508 78.3702 84.0008 75.9502 85.2808C72.5102 87.1108 68.8502 87.9508 64.9302 87.8208C60.4802 87.6708 56.4402 86.4008 52.9002 83.7308C50.6102 82.0108 48.9102 79.7708 47.5202 77.2808C46.4102 75.3008 45.8902 73.1508 45.5502 70.9408C44.8502 66.3008 45.8702 62.0008 48.2102 57.9808C49.0802 56.4908 50.1302 55.1508 51.3902 53.9608C54.5202 51.0008 58.2202 49.2508 62.4802 48.6908C66.0702 48.2208 69.5202 48.7808 72.8502 50.1608C74.9402 51.0308 76.7402 52.3408 78.3902 53.8708C81.0502 56.3408 82.5102 59.4808 83.4002 62.9108C84.0902 65.5608 84.1702 68.2608 84.1502 70.9808C84.1502 71.3908 83.9002 71.3608 83.6202 71.3608C78.9602 71.3608 74.3002 71.3608 69.6302 71.3608L69.6202 71.3208ZM64.8302 63.9908C65.7902 63.9908 66.7602 63.9908 67.7202 63.9908C69.8302 63.9908 71.9402 63.9808 74.0502 64.0008C74.4602 64.0008 74.4802 63.8808 74.3502 63.5608C74.1102 62.9708 73.8102 62.4208 73.5102 61.8608C72.7002 60.3408 71.5402 59.0808 70.0902 58.2108C68.2802 57.1108 66.2602 56.6108 64.0902 56.7308C62.0602 56.8408 60.2602 57.4908 58.7102 58.7408C57.1502 59.9908 55.9802 61.5508 55.3802 63.5008C55.2202 64.0108 55.2002 64.0008 55.7502 64.0008C58.7802 64.0008 61.8102 64.0008 64.8302 64.0008V63.9908Z" fill="#444242"/>
<path d="M124.94 48.438C131.46 48.628 136.89 51.148 141.19 56.048C141.94 56.898 142.61 57.838 143.1 58.838C144.14 60.958 144.89 63.178 145.24 65.538C145.65 68.328 145.45 71.048 144.63 73.728C144.23 75.038 143.61 76.268 142.95 77.468C142.3 78.668 141.51 79.768 140.64 80.798C139.46 82.208 138.11 83.438 136.51 84.408C134.08 85.888 131.53 87.028 128.73 87.548C126.82 87.898 124.89 87.968 122.94 87.808C119.6 87.548 116.52 86.518 113.66 84.808C110.4 82.858 108.07 80.058 106.24 76.778C105.02 74.598 104.43 72.238 104.2 69.798C103.78 65.408 104.98 61.408 107.32 57.708C108.27 56.198 109.43 54.898 110.77 53.738C112.54 52.198 114.49 50.918 116.67 50.048C119.31 48.998 122.06 48.418 124.92 48.418L124.94 48.438ZM113.64 68.268C113.68 74.288 118.57 79.418 124.75 79.418C130.89 79.418 135.91 74.458 135.92 68.148C135.93 61.808 130.93 56.928 124.8 56.918C119.22 56.918 113.63 61.288 113.63 68.258L113.64 68.268Z" fill="#444242"/>
<path d="M237.64 65.8298C237.64 72.6798 237.64 79.5298 237.64 86.3798C237.64 86.8298 237.53 86.9398 237.07 86.9298C234.18 86.8998 231.29 86.8898 228.4 86.9098C227.92 86.9098 227.82 86.7898 227.82 86.3198C227.83 72.6698 227.82 59.0098 227.82 45.3598C227.82 44.7998 227.77 44.7398 227.18 44.7398C224.69 44.7398 222.21 44.7398 219.72 44.7398C217.4 44.7398 215.09 44.7298 212.77 44.7398C212.32 44.7398 212.16 44.6198 212.16 44.1398C212.18 41.6298 212.17 39.1198 212.16 36.6098C212.16 36.2198 212.24 36.0898 212.66 36.0898C226.06 36.0998 239.45 36.0998 252.85 36.0898C253.23 36.0898 253.3 36.1998 253.3 36.5498C253.29 39.1198 253.28 41.6898 253.3 44.2698C253.3 44.6498 253.18 44.7498 252.82 44.7498C247.92 44.7398 243.03 44.7498 238.13 44.7198C237.71 44.7198 237.61 44.8198 237.61 45.2298C237.62 52.0898 237.61 58.9598 237.61 65.8298H237.64Z" fill="#444242"/>
<path d="M197.35 61.4998C197.35 53.2298 197.35 44.9498 197.34 36.6798C197.34 36.1798 197.49 36.0898 197.95 36.0898C200.89 36.1098 203.82 36.1098 206.76 36.0898C207.09 36.0898 207.22 36.1498 207.22 36.5198C207.21 45.0998 207.2 53.6898 207.2 62.2698C207.2 70.2998 207.2 78.3198 207.2 86.3498C207.2 86.8698 207.05 87.0098 206.32 86.9498C205.69 86.8898 205.06 86.8998 204.42 86.8998C202.2 86.8998 199.98 86.8998 197.75 86.9198C197.37 86.9198 197.32 86.7898 197.32 86.4698C197.33 84.6298 197.32 82.7798 197.32 80.9398V61.5098L197.35 61.4998Z" fill="#444242"/>
<path d="M98.9396 86.1798C98.9396 86.3298 98.9596 86.4898 98.9596 86.6398C98.9596 86.8298 98.8796 86.9098 98.6696 86.9098C95.6896 86.8998 92.6996 86.8898 89.7196 86.8898C89.4196 86.8898 89.3596 86.7598 89.3596 86.4898C89.3596 85.5598 89.3596 84.6298 89.3596 83.6998C89.3596 67.9798 89.3596 52.2498 89.3496 36.5298C89.3496 36.1698 89.4396 36.0898 89.7896 36.0898C92.6796 36.0998 95.5696 36.1098 98.4596 36.0898C98.8696 36.0898 98.9496 36.2698 98.9496 36.5998C98.9396 37.7898 98.9196 38.9698 98.9196 40.1598C98.9196 54.7198 98.9196 69.2898 98.9196 83.8498C98.9196 84.6198 98.9296 85.3998 98.9396 86.1698V86.1798Z" fill="#444242"/>
<path d="M41.4098 102.881C41.2898 102.971 41.2198 103.011 41.1698 103.061C40.0598 104.241 38.7198 104.591 37.1598 104.161C33.4698 103.151 32.1698 98.871 34.7098 96.051C36.5298 94.031 39.8998 93.951 41.9198 95.861C42.6598 96.571 42.6498 96.551 41.8798 97.171C41.5198 97.461 41.3098 97.331 41.0798 97.041C39.8398 95.531 37.3198 95.491 36.0198 96.721C34.7498 97.921 34.5198 100.051 35.5598 101.471C36.6198 102.931 38.5598 103.371 40.0198 102.491C40.6598 102.111 41.0898 101.551 41.3098 100.851C41.4498 100.421 41.3598 100.331 40.9198 100.331C40.0798 100.331 39.2398 100.321 38.3998 100.341C38.0898 100.341 37.9998 100.231 37.9798 99.941C37.9465 99.2943 38.2498 98.9743 38.8898 98.981C40.0698 99.001 41.2498 99.011 42.4298 99.001C42.7398 99.001 42.8398 99.081 42.8298 99.391C42.8098 100.181 42.7898 100.971 42.8298 101.761C42.8698 102.431 42.7498 103.091 42.8098 103.761C42.8298 104.031 42.7698 104.141 42.4598 104.151C41.4398 104.181 41.4398 104.191 41.4098 103.171C41.4098 103.091 41.4098 103.021 41.3898 102.861L41.4098 102.881Z" fill="#444242"/>
<path d="M119.15 104.142C118.75 104.162 118.25 104.322 117.98 104.092C117.71 103.862 117.95 103.342 117.87 102.952C117.71 102.932 117.64 103.042 117.55 103.122C116.51 104.152 115.28 104.572 113.83 104.232C111.84 103.762 110.58 102.532 109.96 100.592C109.33 98.6218 110.6 96.2518 111.94 95.3518C114.12 93.8818 117.1 94.3518 118.75 96.2818C118.95 96.5118 118.95 96.6718 118.7 96.8318C118.66 96.8518 118.63 96.8918 118.59 96.9218C118.143 97.2684 117.717 97.2484 117.31 96.8618C116.31 95.8818 115.07 95.6618 113.79 95.9918C112.44 96.3418 111.67 97.3318 111.36 98.6918C110.85 100.892 112.9 103.482 115.51 102.862C116.61 102.602 117.38 101.962 117.72 100.852C117.88 100.352 117.85 100.322 117.34 100.322C116.5 100.322 115.66 100.322 114.82 100.342C114.51 100.342 114.42 100.242 114.42 99.9418C114.42 98.9818 114.4 98.9818 115.38 98.9918C116.56 99.0018 117.74 99.0018 118.92 98.9918C119.15 98.9918 119.27 99.0318 119.27 99.2918C119.25 100.882 119.24 102.482 119.23 104.072C119.2 104.092 119.17 104.102 119.14 104.122L119.15 104.142Z" fill="#444242"/>
<path d="M77.6096 104.158C76.7796 104.158 76.1096 104.158 75.4396 104.158C75.1796 104.158 75.0996 104.098 75.0996 103.818C75.1096 100.918 75.0996 98.0279 75.0996 95.1279C75.0996 94.7079 75.1996 94.5279 75.6796 94.5579C76.8696 94.6279 78.0796 94.4779 79.2596 94.6779C80.1796 94.8379 80.8796 95.3479 81.2496 96.2579C81.6296 97.2079 81.3996 98.0179 80.6796 98.6879C80.3596 98.9879 80.4396 99.1079 80.7796 99.2979C81.6196 99.7879 82.1596 100.508 82.0796 101.518C82.0096 102.498 81.4996 103.198 80.6396 103.728C79.6096 104.368 78.5096 104.038 77.6096 104.148V104.158ZM76.6096 101.338C76.6096 101.598 76.6096 101.868 76.6096 102.128C76.6096 102.868 76.6096 102.878 77.3796 102.878C78.0696 102.878 78.7696 102.928 79.4396 102.818C80.1496 102.708 80.5796 101.888 80.5096 101.048C80.4796 100.608 79.7896 99.9679 79.2596 99.8779C78.4896 99.7579 77.7096 99.8279 76.9396 99.8079C76.6796 99.8079 76.5896 99.9179 76.5996 100.178C76.6196 100.568 76.5996 100.948 76.5996 101.338H76.6096ZM76.6096 97.1979C76.6096 97.3679 76.6096 97.5379 76.6096 97.7079C76.6096 98.5779 76.6096 98.5979 77.4996 98.5779C78.1196 98.5579 78.7496 98.7179 79.3196 98.2679C79.7196 97.9479 79.9796 97.4679 79.8796 96.9479C79.7996 96.5679 79.2596 96.0479 78.8796 95.9879C78.2596 95.8879 77.6296 95.8679 76.9996 95.8679C76.7296 95.8679 76.5996 95.9379 76.6196 96.2379C76.6396 96.5579 76.6196 96.8879 76.6196 97.2079L76.6096 97.1979Z" fill="#444242"/>
<path d="M3.02023 99.3787C3.02023 97.9187 3.02023 96.4687 3.02023 95.0087C3.02023 94.6987 3.08023 94.5687 3.42023 94.5787C4.63023 94.6187 5.85023 94.5187 7.05023 94.6587C8.55023 94.8387 9.46023 96.0087 9.26023 97.4987C9.19023 98.0287 8.87023 98.4387 8.47023 98.7787C8.22023 98.9887 8.26023 99.1187 8.53023 99.2387C9.87023 99.8587 10.2702 101.349 9.68023 102.669C9.32023 103.469 8.60023 103.849 7.79023 104.059C7.46023 104.139 7.12023 104.169 6.77023 104.169C5.70023 104.169 4.63023 104.149 3.55023 104.169C3.15023 104.169 3.00023 104.099 3.01023 103.659C3.04023 102.239 3.02023 100.809 3.02023 99.3787ZM4.49023 101.309C4.49023 101.709 4.50023 102.119 4.49023 102.519C4.48023 102.799 4.57023 102.909 4.86023 102.899C5.54023 102.879 6.23023 102.879 6.91023 102.859C7.78023 102.829 8.40023 102.229 8.43023 101.419C8.46023 100.609 7.88023 99.9387 7.02023 99.8687C6.28023 99.8087 5.53023 99.8287 4.79023 99.8087C4.54023 99.8087 4.47023 99.9087 4.48023 100.149C4.50023 100.539 4.48023 100.919 4.48023 101.309H4.49023ZM4.49023 97.1587C4.49023 97.5787 4.49023 97.9387 4.49023 98.2987C4.49023 98.4687 4.51023 98.5987 4.74023 98.5887C5.31023 98.5787 5.89023 98.6187 6.46023 98.5687C7.31023 98.4987 7.82023 97.9187 7.78023 97.1287C7.75023 96.4187 7.17023 95.9087 6.36023 95.8887C6.19023 95.8887 6.02023 95.8787 5.85023 95.8887C5.42023 95.9187 4.86023 95.6887 4.59023 95.9387C4.29023 96.2187 4.54023 96.7887 4.49023 97.1587Z" fill="#444242"/>
<path d="M20.9204 99.4185C20.9204 97.9485 20.9204 96.4785 20.9204 95.0085C20.9204 94.7385 20.9504 94.5685 21.2904 94.5785C22.5904 94.6185 23.9004 94.5185 25.2004 94.6585C26.9404 94.8485 28.2404 95.7485 29.0104 97.2785C30.5204 100.258 28.5004 103.628 25.4404 104.068C24.0204 104.268 22.5904 104.108 21.1604 104.158C20.8304 104.168 20.9204 103.938 20.9204 103.778C20.9204 102.328 20.9204 100.868 20.9204 99.4185ZM22.4104 99.3185C22.4104 100.358 22.4104 101.388 22.4104 102.428C22.4104 102.748 22.5004 102.868 22.8404 102.848C23.4104 102.818 23.9904 102.848 24.5604 102.818C26.3304 102.738 27.8504 101.408 28.0104 99.8185C28.1904 98.0185 27.0904 96.4485 25.3204 96.0085C24.5004 95.8085 23.6504 95.9385 22.8204 95.8685C22.4804 95.8385 22.4104 95.9785 22.4104 96.2885C22.4304 97.2885 22.4104 98.2985 22.4104 99.3085V99.3185Z" fill="#444242"/>
<path d="M108.86 99.4305C108.96 100.82 108.33 101.92 107.39 102.86C106.5 103.75 105.4 104.32 104.13 104.34C100.94 104.37 98.8096 101.95 98.8096 99.3305C98.8096 96.7905 100.94 94.4805 103.93 94.4805C106.28 94.4805 109.04 96.5105 108.86 99.4305ZM107.38 99.4305C107.49 97.7705 105.92 95.5805 103.47 95.8805C101.8 96.0805 100.33 97.4505 100.31 99.3105C100.29 101.35 101.79 102.91 103.86 102.96C105.76 103 107.35 101.38 107.37 99.4305H107.38Z" fill="#444242"/>
<path d="M62.2104 104.139C61.1171 104.205 60.3937 103.749 60.0404 102.769C59.6404 101.659 59.6404 101.659 58.4404 101.659C57.4904 101.659 56.5504 101.659 55.6004 101.629C55.2504 101.619 55.0604 101.739 54.9504 102.069C54.7504 102.669 54.5104 103.249 54.3104 103.849C54.2304 104.099 54.0904 104.189 53.8304 104.179C53.4404 104.159 53.0604 104.179 52.6504 104.179C52.7004 103.729 52.9304 103.369 53.1004 102.999C54.0804 100.969 54.8904 98.8589 55.7804 96.7889C56.0404 96.1789 56.2804 95.5589 56.5104 94.9389C56.6104 94.6589 56.7704 94.5689 57.0604 94.5789C57.6904 94.6089 58.2004 94.4989 58.5304 95.3789C59.5104 97.9989 60.7204 100.539 61.7404 103.149C61.8704 103.479 62.0304 103.789 62.2004 104.149L62.2104 104.139ZM57.4504 96.4689C57.2804 96.5089 57.2604 96.6089 57.2304 96.6889C56.7604 97.7789 56.3704 98.9089 55.8204 99.9689C55.6604 100.269 55.7404 100.389 56.0804 100.389C56.9604 100.389 57.8504 100.329 58.7304 100.409C59.0704 100.439 58.9704 100.199 58.9104 100.039C58.4304 98.8489 57.9404 97.6689 57.4504 96.4689Z" fill="#444242"/>
<path d="M123.24 101.24C123.69 101.15 124.12 101.21 124.55 101.19C124.73 101.19 124.77 101.31 124.8 101.46C125.1 102.83 126.8 103.45 128.09 102.73C128.94 102.26 128.95 101.12 128.12 100.6C127.57 100.26 126.93 100.16 126.32 99.9895C125.77 99.8295 125.24 99.6195 124.73 99.3495C123.28 98.5995 122.86 96.5995 124.09 95.3395C124.61 94.8095 125.4 94.5595 126.19 94.4895C126.86 94.4295 127.52 94.5295 128.13 94.7895C128.54 94.9695 128.91 95.2795 129.19 95.6395C129.55 96.0995 129.77 96.6395 129.96 97.1995C130.05 97.4595 129.96 97.5495 129.71 97.5495C129.41 97.5495 129.12 97.5495 128.82 97.5495C128.57 97.5495 128.51 97.3795 128.45 97.2095C127.96 95.9895 127.29 95.5995 125.99 95.7895C125.48 95.8595 124.96 96.3595 124.87 96.8495C124.78 97.3995 125.03 97.9095 125.58 98.1795C126.11 98.4395 126.68 98.5895 127.25 98.7595C127.69 98.8895 128.14 99.0195 128.58 99.1895C129.61 99.5795 130.15 100.36 130.19 101.45C130.23 102.38 129.66 103.53 128.63 103.98C126.93 104.73 124.86 104.01 124.1 103.08C123.88 102.81 123.69 102.53 123.57 102.21C123.45 101.9 123.34 101.58 123.22 101.25L123.24 101.24Z" fill="#444242"/>
<path d="M155.42 104.288C153.61 104.268 152.16 103.418 151.71 101.758C151.57 101.238 151.6 101.198 152.12 101.188C152.23 101.188 152.34 101.198 152.45 101.188C152.86 101.128 153.07 101.248 153.19 101.698C153.55 103.018 155.61 103.468 156.67 102.538C157.11 102.148 157.15 101.088 156.56 100.688C156.07 100.358 155.51 100.228 154.96 100.078C154.24 99.8785 153.53 99.6585 152.89 99.2585C151.12 98.1685 151.39 95.9085 152.97 94.9885C154.79 93.9185 157.54 94.4485 158.27 97.1885C158.29 97.2685 158.36 97.3985 158.25 97.4385C157.96 97.5185 157.66 97.5685 157.35 97.5785C156.94 97.5985 156.83 97.3785 156.72 97.0585C156.28 95.7485 155 95.5685 153.98 95.9285C153.46 96.1085 153.17 96.5385 153.17 97.1185C153.17 97.6785 153.52 97.9985 153.97 98.2185C154.59 98.5085 155.25 98.6885 155.9 98.8785C156.47 99.0385 157.02 99.2285 157.54 99.5285C158.97 100.358 158.78 102.948 157.33 103.788C156.74 104.128 156.12 104.278 155.45 104.298L155.42 104.288Z" fill="#444242"/>
<path d="M11.04 99.4009C11.04 97.9609 11.04 96.5209 11.04 95.0809C11.04 94.7209 11.11 94.5609 11.53 94.5809C12.54 94.6209 13.55 94.6009 14.56 94.6009C15.26 94.6009 15.96 94.5409 16.66 94.6009C16.86 94.6209 16.95 94.6809 16.94 94.8809C16.94 94.9009 16.94 94.9109 16.94 94.9309C17.01 95.9709 17.01 95.9609 15.97 95.9409C15.01 95.9209 14.04 95.9309 13.08 95.9209C12.71 95.9209 12.51 96.0309 12.54 96.4709C12.58 97.0609 12.57 97.6509 12.54 98.2309C12.52 98.6109 12.64 98.7409 13.03 98.7409C14.12 98.7209 15.2 98.7209 16.29 98.7309C16.87 98.7309 16.84 98.8409 16.84 99.4209C16.84 100.091 16.48 100.031 16.04 100.021C15.02 100.001 13.99 100.021 12.97 100.001C12.61 100.001 12.52 100.121 12.53 100.461C12.55 101.131 12.55 101.791 12.53 102.461C12.52 102.801 12.65 102.881 12.96 102.881C14.14 102.871 15.32 102.881 16.5 102.861C16.84 102.861 16.93 102.961 16.93 103.281C16.93 104.191 16.94 104.191 16.03 104.191C14.52 104.191 13.02 104.181 11.51 104.191C11.11 104.191 11.02 104.061 11.03 103.691C11.05 102.271 11.03 100.841 11.03 99.4209L11.04 99.4009Z" fill="#444242"/>
<path d="M143.06 99.3875C143.06 100.887 143.96 102.187 145.33 102.697C146.76 103.227 148.33 102.847 149.3 101.677C149.59 101.327 149.78 101.337 150.12 101.607C150.88 102.207 150.9 102.187 150.19 102.887C147.49 105.567 142.97 104.337 141.77 100.827C141.55 100.167 141.36 99.4575 141.52 98.7775C141.99 96.8175 143.06 95.2975 145.1 94.6975C147.15 94.0975 148.92 94.6575 150.41 96.1675C150.69 96.4475 150.74 96.6775 150.36 96.8975C150.28 96.9475 150.2 96.9975 150.14 97.0675C149.79 97.4075 149.53 97.3675 149.19 96.9875C148.14 95.7975 146.69 95.5975 145.32 96.0675C143.93 96.5475 143.07 97.8975 143.07 99.3875H143.06Z" fill="#444242"/>
<path d="M83.2097 99.5191C83.2097 98.1391 83.1997 96.7591 83.2197 95.3891C83.2197 95.1491 82.9897 94.8891 83.1797 94.6991C83.4097 94.4791 83.7397 94.5991 84.0297 94.5991C85.5397 94.5991 87.0397 94.6091 88.5497 94.5991C88.8597 94.5991 89.0097 94.6691 88.9897 95.0091C88.9797 95.2191 88.9897 95.4291 89.0297 95.6491C89.0997 95.9491 88.8197 95.9091 88.6297 95.9091C87.4997 95.9091 86.3597 95.9291 85.2297 95.8991C84.7997 95.8891 84.6397 96.0091 84.6797 96.4491C84.7497 97.0891 84.6097 97.7391 84.7697 98.3791C84.8297 98.6291 84.9397 98.7191 85.1597 98.7191C86.2297 98.7191 87.2997 98.7191 88.3697 98.7091C88.7397 98.7091 88.9897 98.6591 88.8997 99.2091C88.7697 100.039 88.8297 100.029 87.9597 100.019C86.9797 99.9991 85.9997 100.019 85.0297 99.9991C84.7697 99.9991 84.6597 100.069 84.6797 100.339C84.7397 100.999 84.7697 101.679 84.7197 102.309C84.6597 103.059 85.0397 102.859 85.3997 102.859C86.4597 102.859 87.5097 102.869 88.5697 102.859C88.8597 102.859 89.0197 102.919 88.9697 103.239C88.9597 103.319 88.9897 103.399 88.9697 103.469C88.8997 103.699 89.2097 103.949 89.0097 104.109C88.8097 104.259 88.4997 104.159 88.2397 104.159C86.6997 104.159 85.1597 104.159 83.6297 104.169C83.2897 104.169 83.1797 104.099 83.1897 103.739C83.2097 102.329 83.1897 100.919 83.1897 99.5091L83.2097 99.5191Z" fill="#444242"/>
<path d="M51.1299 100.08C51.1299 101.32 51.1199 102.56 51.1299 103.79C51.1299 104.1 51.0399 104.17 50.7399 104.17C49.6299 104.17 49.6299 104.18 49.6299 103.08C49.6299 100.85 49.6199 98.6201 49.6299 96.3901C49.6299 95.9901 49.4999 95.8901 49.1299 95.9001C48.4199 95.9301 47.6999 95.9101 46.9899 95.9401C46.7299 95.9401 46.6399 95.8801 46.6299 95.6101C46.5899 94.5701 46.5799 94.5801 47.6399 94.5801C49.2999 94.5801 50.9599 94.5801 52.6199 94.6001C53.0399 94.6001 53.4499 94.4101 53.8799 94.6001C54.0199 94.6601 54.0999 94.6901 54.0899 94.8401C54.0899 94.8701 54.0899 94.9001 54.0899 94.9301C54.0699 96.1301 54.2499 95.9701 53.1099 95.9301C52.5699 95.9101 52.0199 95.9301 51.4799 95.9001C51.1799 95.8801 51.0899 95.9701 51.0899 96.2801C51.1099 97.5501 51.0899 98.8201 51.0899 100.09L51.1299 100.08Z" fill="#444242"/>
<path d="M134.99 103.94C134.96 103.99 134.94 104.04 134.91 104.1L134.9 104.12C134.87 104.13 134.84 104.15 134.81 104.15C133.903 104.23 133.45 103.823 133.45 102.93C133.45 100.68 133.45 98.4298 133.47 96.1798C133.47 95.8798 133.29 95.8998 133.1 95.8998C132.35 95.8998 131.61 95.8998 130.87 95.9298C130.56 95.9398 130.47 95.8398 130.47 95.5398C130.47 94.5898 130.45 94.5898 131.38 94.5898C133.41 94.5898 135.45 94.6098 137.48 94.5898C137.8 94.5898 137.88 94.6898 137.86 94.9898C137.85 95.1998 137.84 95.4098 137.9 95.6298C137.98 95.9398 137.71 95.8998 137.52 95.8998C136.67 95.8998 135.81 95.9098 134.96 95.9198H134.92V95.9498C134.93 98.4498 134.92 100.96 134.92 103.46C134.92 103.61 134.89 103.77 134.98 103.91V103.93L134.99 103.94Z" fill="#444242"/>
<path d="M62.8 99.4401C62.8 98.0001 62.81 96.5601 62.8 95.1201C62.8 94.6901 62.93 94.5601 63.36 94.5801C64.31 94.6301 64.3 94.6101 64.3 95.5401C64.3 97.8301 64.3 100.13 64.29 102.42C64.29 102.77 64.4 102.87 64.74 102.86C65.92 102.84 67.1 102.86 68.28 102.85C68.59 102.85 68.67 102.95 68.68 103.24C68.68 104.16 68.7 104.16 67.77 104.16C66.25 104.16 64.72 104.16 63.2 104.16C62.87 104.16 62.79 104.07 62.79 103.75C62.81 102.31 62.79 100.87 62.79 99.4301L62.8 99.4401Z" fill="#444242"/>
<path d="M94.5503 102.728C94.6903 102.908 94.8903 102.848 95.0703 102.848C96.2303 102.848 97.4003 102.848 98.5603 102.838C98.8703 102.838 98.9703 102.928 98.9803 103.228C99.0103 104.168 99.0203 104.168 98.0903 104.168C96.5503 104.168 95.0203 104.168 93.4803 104.168C93.1603 104.168 93.0703 104.078 93.0703 103.748C93.0903 100.888 93.0903 98.018 93.0703 95.158C93.0703 94.718 93.1503 94.4879 93.6503 94.5779C93.9103 94.6279 94.1703 94.5979 94.4403 94.6079C94.4403 94.6379 94.4603 94.6479 94.4903 94.6479C94.5103 94.6479 94.5203 94.6679 94.5203 94.6879C94.5103 94.7679 94.4903 94.848 94.5603 94.908C94.5603 97.448 94.5603 99.9779 94.5503 102.518C94.4903 102.588 94.4903 102.648 94.5503 102.718V102.728Z" fill="#444242"/>
<path d="M44.2301 99.3809C44.2301 97.9209 44.2301 96.4709 44.2301 95.0109C44.2301 94.6709 44.3201 94.5609 44.6801 94.5709C45.7301 94.6109 45.7301 94.6009 45.7301 95.6409C45.7301 98.1709 45.7301 100.691 45.7301 103.221C45.7301 103.251 45.7401 103.291 45.7301 103.311C45.5901 103.581 46.0501 103.951 45.7001 104.101C45.3001 104.271 44.8101 104.181 44.3601 104.141C44.1401 104.121 44.2301 103.891 44.2301 103.751C44.2301 102.291 44.2301 100.841 44.2301 99.3809Z" fill="#444242"/>
<path d="M32.21 99.3299C32.21 100.8 32.21 102.27 32.21 103.74C32.21 104.06 32.13 104.17 31.79 104.17C30.71 104.17 30.71 104.18 30.71 103.09C30.71 100.44 30.72 97.7899 30.71 95.1399C30.71 94.6999 30.82 94.5399 31.29 94.5699C32.21 94.6299 32.21 94.5999 32.2 95.5099C32.2 96.7799 32.2 98.0499 32.2 99.3199L32.21 99.3299Z" fill="#444242"/>
<path d="M122.12 99.3875C122.12 100.857 122.12 102.327 122.12 103.797C122.12 104.047 122.07 104.147 121.79 104.167C120.61 104.217 120.61 104.227 120.61 103.047C120.61 100.447 120.61 97.8475 120.62 95.2475C120.62 94.5675 120.62 94.5675 121.27 94.5875C122.12 94.6075 122.11 94.6075 122.1 95.4475C122.1 96.7575 122.1 98.0775 122.1 99.3875C122.1 99.3875 122.1 99.3875 122.11 99.3875H122.12Z" fill="#444242"/>
<path d="M138.88 99.3678C138.88 97.9478 138.89 96.5178 138.88 95.0978C138.88 94.7078 138.97 94.5478 139.4 94.5778C140.38 94.6278 140.37 94.6078 140.37 95.6178C140.37 98.2478 140.37 100.878 140.37 103.508C140.37 103.948 140.153 104.168 139.72 104.168C138.88 104.168 138.88 104.168 138.89 103.318C138.89 102.008 138.89 100.688 138.89 99.3778L138.88 99.3678Z" fill="#444242"/>
<path d="M71.3001 103.91C71.2601 104.75 70.8801 105.38 70.1501 105.79C69.9401 105.91 69.6901 106 69.5201 105.76C69.3701 105.53 69.6201 105.41 69.7501 105.27C69.7801 105.24 69.8201 105.21 69.8601 105.18C70.6101 104.58 70.6101 104.54 69.8501 104C69.4501 103.72 69.4101 103.46 69.7101 102.99C69.9501 102.62 70.3901 102.5 70.7201 102.68C71.2101 102.95 71.3101 103.4 71.3001 103.91Z" fill="#444242"/>
<path d="M94.5501 102.727C94.4901 102.657 94.5001 102.587 94.5501 102.527C94.7801 102.597 94.6301 102.667 94.5501 102.727Z" fill="#444242"/>
<path d="M165.72 101.039C165.72 101.159 165.72 101.279 165.72 101.409C165.67 101.289 165.68 101.169 165.72 101.039Z" fill="#444242"/>
<path d="M37.8403 49.4502C37.8403 49.3502 37.8303 49.2602 37.8203 49.1602C37.8703 49.2502 37.8703 49.3502 37.8403 49.4502Z" fill="#444242"/>
<path d="M165.69 94.5508C165.75 94.6408 165.75 94.7308 165.7 94.8208C165.7 94.7308 165.7 94.6408 165.69 94.5508Z" fill="#444242"/>
<path d="M94.5603 94.9192C94.4903 94.8592 94.5103 94.7792 94.5203 94.6992C94.6003 94.7592 94.5903 94.8392 94.5603 94.9192Z" fill="#444242"/>
<path d="M37.8203 50.3895C37.8203 50.3895 37.8203 50.3095 37.8303 50.2695C37.8303 50.3095 37.8303 50.3495 37.8203 50.3895Z" fill="#444242"/>
<path d="M119.15 104.14C119.15 104.14 119.21 104.11 119.24 104.09C119.24 104.16 119.19 104.15 119.15 104.14Z" fill="#444242"/>
<path d="M134.94 95.948L134.93 95.918H134.96V95.948H134.94Z" fill="#444242"/>
<path d="M165.7 101.688L165.71 101.707H165.7V101.688Z" fill="#444242"/>
<path d="M165.69 101.973H165.72V102.003L165.69 101.993V101.973Z" fill="#444242"/>
<path d="M165.72 95.4688V95.4887L165.7 95.4787L165.72 95.4688Z" fill="#444242"/>
<path d="M94.4904 94.6494C94.4904 94.6494 94.4404 94.6494 94.4404 94.6094H94.4804V94.6494H94.4904Z" fill="#444242"/>
<path d="M134.99 103.942V103.922C135 103.922 135.01 103.922 135.02 103.922C135.01 103.922 135 103.942 134.99 103.952V103.942Z" fill="#444242"/>
<path d="M98.9399 86.178L98.9199 86.168H98.9399V86.178Z" fill="#444242"/>
<path d="M134.9 104.122L134.91 104.102L134.92 104.122H134.9Z" fill="#444242"/>
<path d="M12.7598 78.6628C12.8798 78.6228 13.0098 78.6228 13.1298 78.6628C13.0098 78.6628 12.8798 78.6628 12.7598 78.6628Z" fill="#444242"/>
</svg>
