<svg width="256" height="142" viewBox="0 0 256 142" fill="none" xmlns="http://www.w3.org/2000/svg">
<path d="M37.81 50.6501C37.72 52.2901 37.13 53.7801 36.34 55.2001C35.63 56.4901 34.68 57.5901 33.62 58.6001C33.27 58.9301 32.89 59.2201 32.5 59.4801C32.2 59.6901 32.17 59.7901 32.54 59.9601C34.72 60.9101 36.57 62.3301 38.17 64.0701C39.07 65.0401 39.62 66.2101 40.12 67.4101C40.39 68.0701 40.63 68.7401 40.84 69.4201C40.95 69.7801 40.98 70.1701 41.04 70.5501C41.19 71.4901 41.21 72.4401 41.17 73.4001C41.08 75.4101 40.45 77.2601 39.48 78.9901C38.4 80.9401 37.03 82.6901 35.16 83.9401C32.97 85.4001 30.57 86.3901 27.94 86.7401C27.05 86.8601 26.15 86.8801 25.25 86.8801C18.32 86.8801 11.39 86.8801 4.46 86.8801C4.07 86.8801 3.68 86.8201 3.29 86.8701C2.83 86.9201 2.69 86.7401 2.69 86.2701C2.69 82.8101 2.7 79.3601 2.7 75.9001C2.7 63.0401 2.7 50.1801 2.7 37.3201C2.7 37.2001 2.7 37.0701 2.7 36.9501C2.68667 36.3701 2.96334 36.0801 3.53 36.0801C9.37 36.0801 15.22 36.0801 21.06 36.0801C23.47 36.0801 25.86 36.1901 28.17 36.9901C29.42 37.4201 30.59 37.9901 31.71 38.7001C33.09 39.5701 34.36 40.6101 35.31 41.9001C36.48 43.4801 37.27 45.3001 37.63 47.2601C37.74 47.8801 37.85 48.5001 37.84 49.1401C37.84 49.2401 37.85 49.3301 37.86 49.4301C37.92 49.7101 37.91 49.9901 37.86 50.2601C37.86 50.3001 37.86 50.3401 37.85 50.3801C37.85 50.4701 37.85 50.5501 37.84 50.6401L37.81 50.6501ZM12.77 78.6601C12.89 78.6601 13.02 78.6601 13.14 78.6601C13.48 78.6501 13.82 78.6301 14.16 78.6301C17.62 78.6101 21.09 78.6901 24.55 78.5901C25.9 78.5501 27.18 78.1901 28.28 77.4101C29.91 76.2501 30.85 74.6601 31.12 72.6501C31.67 68.5101 28.62 64.8301 24.42 64.7501C20.58 64.6801 16.75 64.7301 12.91 64.7101C12.56 64.7101 12.55 64.8801 12.55 65.1401C12.55 69.4901 12.55 73.8501 12.55 78.2001C12.55 78.3901 12.53 78.5801 12.76 78.6601H12.77ZM12.54 50.5501C12.54 50.5501 12.54 50.5501 12.55 50.5501C12.55 52.4901 12.55 54.4201 12.55 56.3601C12.55 56.6301 12.6 56.7601 12.9 56.7501C16.02 56.7401 19.15 56.8001 22.27 56.7001C24.37 56.6301 26.04 55.6401 27.09 53.7601C27.55 52.9401 27.76 52.0601 27.85 51.1201C28.04 49.1601 27.51 47.4801 26.15 46.0801C25.09 44.9801 23.74 44.4301 22.23 44.4001C19.11 44.3401 15.99 44.3601 12.86 44.3301C12.48 44.3301 12.53 44.5501 12.53 44.7901C12.53 46.7101 12.53 48.6301 12.53 50.5501H12.54Z" fill="#3C4A5B"/>
<path d="M165.69 94.5493C165.53 94.0493 165.9 94.1093 166.18 94.1093C168.7 94.1093 171.21 94.1193 173.73 94.1193C175.51 94.1193 177.23 93.8093 178.69 92.7593C179.88 91.8993 180.52 90.6393 180.75 89.1893C181.07 87.1793 180.9 85.1493 180.95 83.0593C180.52 83.2393 180.25 83.5393 179.92 83.7593C179.09 84.3193 178.25 84.8493 177.33 85.2793C175.97 85.9093 174.61 86.5093 173.15 86.7993C172.38 86.9493 171.6 87.0593 170.81 87.1293C169.95 87.2093 169.09 87.2593 168.23 87.2193C167.35 87.1893 166.45 87.1693 165.6 86.9393C164.98 86.7693 164.27 86.8893 163.73 86.4193C160.26 85.7493 157.47 83.8593 154.98 81.4693C153.98 80.5093 153.22 79.3393 152.47 78.1593C151.95 77.3493 151.47 76.5393 151.05 75.6793C150.06 73.6493 149.62 71.4693 149.43 69.2393C149.07 65.1493 150.14 61.3893 152.17 57.8493C153.57 55.4093 155.51 53.4993 157.79 51.9093C160.78 49.8193 164.12 48.7093 167.74 48.4393C171.38 48.1693 174.81 48.8993 177.98 50.6793C178.88 51.1893 179.83 51.6593 180.58 52.4193C180.65 52.4993 180.74 52.5993 180.86 52.5493C181.01 52.4893 180.96 52.3393 180.96 52.2193C180.96 51.4093 180.96 50.6093 180.93 49.7993C180.92 49.4393 181.05 49.3493 181.38 49.3493C184.29 49.3593 187.19 49.3693 190.1 49.3493C190.48 49.3493 190.47 49.5493 190.47 49.8293C190.47 54.6793 190.47 59.5293 190.48 64.3793C190.48 72.0793 190.48 79.7793 190.48 87.4793C190.48 89.2093 190.43 90.9393 189.89 92.6093C188.68 96.3393 186.54 99.2793 182.77 100.799C181.98 101.109 181.21 101.489 180.4 101.689C179.81 101.839 179.18 101.959 178.57 101.989C174.48 102.189 170.39 102.029 166.3 102.079C166.13 102.079 165.96 102.119 165.8 102.019C165.77 102.019 165.75 101.999 165.73 101.979V101.959H165.71C165.71 101.869 165.71 101.789 165.71 101.699H165.73H165.72C165.72 101.589 165.73 101.499 165.74 101.399C165.74 101.279 165.74 101.159 165.74 101.029C165.74 99.1793 165.74 97.3293 165.74 95.4793V95.4593C165.74 95.3393 165.74 95.2093 165.74 95.0893C165.74 94.9993 165.74 94.8993 165.73 94.8093C165.77 94.7193 165.78 94.6293 165.72 94.5393L165.69 94.5493ZM181 67.2193C180.88 65.7393 180.65 64.6993 180.25 63.6993C178.19 58.5093 172.56 55.6393 167.3 57.0393C162.49 58.3193 159.25 62.1293 158.85 67.2293C158.7 69.1093 159.19 71.0193 160.03 72.6993C160.49 73.6193 161.05 74.4693 161.76 75.2193C164.6 78.1893 168.05 79.3193 172.11 78.6293C172.78 78.5093 173.43 78.3193 174.06 78.0593C175.99 77.2693 177.62 76.0993 178.85 74.4093C179.65 73.3093 180.26 72.1193 180.61 70.7993C180.96 69.4893 181.16 68.1693 180.99 67.2193H181Z" fill="#3C4A5B"/>
<path d="M69.62 71.3208C64.94 71.3208 60.26 71.3208 55.59 71.3208C55.22 71.3208 55.09 71.3808 55.23 71.7808C56.7 75.9108 59.42 78.6508 63.85 79.4908C64.94 79.7008 66.04 79.6508 67.15 79.5708C68.28 79.4808 69.35 79.2008 70.38 78.7808C71.34 78.3808 72.21 77.8108 73.05 77.1908C73.84 76.6008 74.51 75.9008 75.14 75.1608C75.41 74.8408 75.7 74.8708 75.96 75.0708C77.92 76.5608 79.89 78.0308 81.9 79.4608C82.13 79.6208 82.17 79.7608 81.99 79.9908C80.32 82.1508 78.37 84.0008 75.95 85.2808C72.51 87.1108 68.85 87.9508 64.93 87.8208C60.48 87.6708 56.44 86.4008 52.9 83.7308C50.61 82.0108 48.91 79.7708 47.52 77.2808C46.41 75.3008 45.89 73.1508 45.55 70.9408C44.85 66.3008 45.87 62.0008 48.21 57.9808C49.08 56.4908 50.13 55.1508 51.39 53.9608C54.52 51.0008 58.22 49.2508 62.48 48.6908C66.07 48.2208 69.52 48.7808 72.85 50.1608C74.94 51.0308 76.74 52.3408 78.39 53.8708C81.05 56.3408 82.51 59.4808 83.4 62.9108C84.09 65.5608 84.17 68.2608 84.15 70.9808C84.15 71.3908 83.9 71.3608 83.62 71.3608C78.96 71.3608 74.3 71.3608 69.63 71.3608L69.62 71.3208ZM64.83 63.9908C65.79 63.9908 66.76 63.9908 67.72 63.9908C69.83 63.9908 71.94 63.9808 74.05 64.0008C74.46 64.0008 74.48 63.8808 74.35 63.5608C74.11 62.9708 73.81 62.4208 73.51 61.8608C72.7 60.3408 71.54 59.0808 70.09 58.2108C68.28 57.1108 66.26 56.6108 64.09 56.7308C62.06 56.8408 60.26 57.4908 58.71 58.7408C57.15 59.9908 55.98 61.5508 55.38 63.5008C55.22 64.0108 55.2 64.0008 55.75 64.0008C58.78 64.0008 61.81 64.0008 64.83 64.0008V63.9908Z" fill="#3C4A5B"/>
<path d="M124.94 48.4399C131.46 48.6299 136.89 51.1499 141.19 56.0499C141.94 56.8999 142.61 57.8399 143.1 58.8399C144.14 60.9599 144.89 63.1799 145.24 65.5399C145.65 68.3299 145.45 71.0499 144.63 73.7299C144.23 75.0399 143.61 76.2699 142.95 77.4699C142.3 78.6699 141.51 79.7699 140.64 80.7999C139.46 82.2099 138.11 83.4399 136.51 84.4099C134.08 85.8899 131.53 87.0299 128.73 87.5499C126.82 87.8999 124.89 87.9699 122.94 87.8099C119.6 87.5499 116.52 86.5199 113.66 84.8099C110.4 82.8599 108.07 80.0599 106.24 76.7799C105.02 74.5999 104.43 72.2399 104.2 69.7999C103.78 65.4099 104.98 61.4099 107.32 57.7099C108.27 56.1999 109.43 54.8999 110.77 53.7399C112.54 52.1999 114.49 50.9199 116.67 50.0499C119.31 48.9999 122.06 48.4199 124.92 48.4199L124.94 48.4399ZM113.64 68.2699C113.68 74.2899 118.57 79.4199 124.75 79.4199C130.89 79.4199 135.91 74.4599 135.92 68.1499C135.93 61.8099 130.93 56.9299 124.8 56.9199C119.22 56.9199 113.63 61.2899 113.63 68.2599L113.64 68.2699Z" fill="#3C4A5B"/>
<path d="M237.64 65.8298C237.64 72.6798 237.64 79.5298 237.64 86.3798C237.64 86.8298 237.53 86.9398 237.07 86.9298C234.18 86.8998 231.29 86.8898 228.4 86.9098C227.92 86.9098 227.82 86.7898 227.82 86.3198C227.83 72.6698 227.82 59.0098 227.82 45.3598C227.82 44.7998 227.77 44.7398 227.18 44.7398C224.69 44.7398 222.21 44.7398 219.72 44.7398C217.4 44.7398 215.09 44.7298 212.77 44.7398C212.32 44.7398 212.16 44.6198 212.16 44.1398C212.18 41.6298 212.17 39.1198 212.16 36.6098C212.16 36.2198 212.24 36.0898 212.66 36.0898C226.06 36.0998 239.45 36.0998 252.85 36.0898C253.23 36.0898 253.3 36.1998 253.3 36.5498C253.29 39.1198 253.28 41.6898 253.3 44.2698C253.3 44.6498 253.18 44.7498 252.82 44.7498C247.92 44.7398 243.03 44.7498 238.13 44.7198C237.71 44.7198 237.61 44.8198 237.61 45.2298C237.62 52.0898 237.61 58.9598 237.61 65.8298H237.64Z" fill="#3C4A5B"/>
<path d="M197.35 61.4998C197.35 53.2298 197.35 44.9498 197.34 36.6798C197.34 36.1798 197.49 36.0898 197.95 36.0898C200.89 36.1098 203.82 36.1098 206.76 36.0898C207.09 36.0898 207.22 36.1498 207.22 36.5198C207.21 45.0998 207.2 53.6898 207.2 62.2698C207.2 70.2998 207.2 78.3198 207.2 86.3498C207.2 86.8698 207.05 87.0098 206.32 86.9498C205.69 86.8898 205.06 86.8998 204.42 86.8998C202.2 86.8998 199.98 86.8998 197.75 86.9198C197.37 86.9198 197.32 86.7898 197.32 86.4698C197.33 84.6298 197.32 82.7798 197.32 80.9398V61.5098L197.35 61.4998Z" fill="#3C4A5B"/>
<path d="M98.94 86.1798C98.94 86.3298 98.96 86.4898 98.96 86.6398C98.96 86.8298 98.88 86.9098 98.67 86.9098C95.69 86.8998 92.7 86.8898 89.72 86.8898C89.42 86.8898 89.36 86.7598 89.36 86.4898C89.36 85.5598 89.36 84.6298 89.36 83.6998C89.36 67.9798 89.36 52.2498 89.35 36.5298C89.35 36.1698 89.44 36.0898 89.79 36.0898C92.68 36.0998 95.57 36.1098 98.46 36.0898C98.87 36.0898 98.95 36.2698 98.95 36.5998C98.94 37.7898 98.92 38.9698 98.92 40.1598C98.92 54.7198 98.92 69.2898 98.92 83.8498C98.92 84.6198 98.93 85.3998 98.94 86.1698V86.1798Z" fill="#3C4A5B"/>
<path d="M41.41 102.881C41.29 102.971 41.22 103.011 41.17 103.061C40.06 104.241 38.72 104.591 37.16 104.161C33.47 103.151 32.17 98.871 34.71 96.051C36.53 94.031 39.9 93.951 41.92 95.861C42.66 96.571 42.65 96.551 41.88 97.171C41.52 97.461 41.31 97.331 41.08 97.041C39.84 95.531 37.32 95.491 36.02 96.721C34.75 97.921 34.52 100.051 35.56 101.471C36.62 102.931 38.56 103.371 40.02 102.491C40.66 102.111 41.09 101.551 41.31 100.851C41.45 100.421 41.36 100.331 40.92 100.331C40.08 100.331 39.24 100.321 38.4 100.341C38.09 100.341 38 100.231 37.98 99.941C37.9467 99.2943 38.25 98.9743 38.89 98.981C40.07 99.001 41.25 99.011 42.43 99.001C42.74 99.001 42.84 99.081 42.83 99.391C42.81 100.181 42.79 100.971 42.83 101.761C42.87 102.431 42.75 103.091 42.81 103.761C42.83 104.031 42.77 104.141 42.46 104.151C41.44 104.181 41.44 104.191 41.41 103.171C41.41 103.091 41.41 103.021 41.39 102.861L41.41 102.881Z" fill="#3C4A5B"/>
<path d="M119.15 104.14C118.75 104.16 118.25 104.32 117.98 104.09C117.71 103.86 117.95 103.34 117.87 102.95C117.71 102.93 117.64 103.04 117.55 103.12C116.51 104.15 115.28 104.57 113.83 104.23C111.84 103.76 110.58 102.53 109.96 100.59C109.33 98.6199 110.6 96.2499 111.94 95.3499C114.12 93.8799 117.1 94.3499 118.75 96.2799C118.95 96.5099 118.95 96.6699 118.7 96.8299C118.66 96.8499 118.63 96.8899 118.59 96.9199C118.143 97.2665 117.717 97.2465 117.31 96.8599C116.31 95.8799 115.07 95.6599 113.79 95.9899C112.44 96.3399 111.67 97.3299 111.36 98.6899C110.85 100.89 112.9 103.48 115.51 102.86C116.61 102.6 117.38 101.96 117.72 100.85C117.88 100.35 117.85 100.32 117.34 100.32C116.5 100.32 115.66 100.32 114.82 100.34C114.51 100.34 114.42 100.24 114.42 99.9399C114.42 98.9799 114.4 98.9799 115.38 98.9899C116.56 98.9999 117.74 98.9999 118.92 98.9899C119.15 98.9899 119.27 99.0299 119.27 99.2899C119.25 100.88 119.24 102.48 119.23 104.07C119.2 104.09 119.17 104.1 119.14 104.12L119.15 104.14Z" fill="#3C4A5B"/>
<path d="M77.61 104.16C76.78 104.16 76.11 104.16 75.44 104.16C75.18 104.16 75.1 104.1 75.1 103.82C75.11 100.92 75.1 98.0298 75.1 95.1298C75.1 94.7098 75.2 94.5298 75.68 94.5598C76.87 94.6298 78.08 94.4798 79.26 94.6798C80.18 94.8398 80.88 95.3498 81.25 96.2598C81.63 97.2098 81.4 98.0198 80.68 98.6898C80.36 98.9898 80.44 99.1098 80.78 99.2998C81.62 99.7898 82.16 100.51 82.08 101.52C82.01 102.5 81.5 103.2 80.64 103.73C79.61 104.37 78.51 104.04 77.61 104.15V104.16ZM76.61 101.34C76.61 101.6 76.61 101.87 76.61 102.13C76.61 102.87 76.61 102.88 77.38 102.88C78.07 102.88 78.77 102.93 79.44 102.82C80.15 102.71 80.58 101.89 80.51 101.05C80.48 100.61 79.79 99.9698 79.26 99.8798C78.49 99.7598 77.71 99.8298 76.94 99.8098C76.68 99.8098 76.59 99.9198 76.6 100.18C76.62 100.57 76.6 100.95 76.6 101.34H76.61ZM76.61 97.1998C76.61 97.3698 76.61 97.5398 76.61 97.7098C76.61 98.5798 76.61 98.5998 77.5 98.5798C78.12 98.5598 78.75 98.7198 79.32 98.2698C79.72 97.9498 79.98 97.4698 79.88 96.9498C79.8 96.5698 79.26 96.0498 78.88 95.9898C78.26 95.8898 77.63 95.8698 77 95.8698C76.73 95.8698 76.6 95.9398 76.62 96.2398C76.64 96.5598 76.62 96.8898 76.62 97.2098L76.61 97.1998Z" fill="#3C4A5B"/>
<path d="M3.01999 99.3806C3.01999 97.9206 3.01999 96.4706 3.01999 95.0106C3.01999 94.7006 3.07999 94.5706 3.41999 94.5806C4.62999 94.6206 5.84999 94.5206 7.04999 94.6606C8.54999 94.8406 9.45999 96.0106 9.25999 97.5006C9.18999 98.0306 8.86999 98.4406 8.46999 98.7806C8.21999 98.9906 8.25999 99.1206 8.52999 99.2406C9.86999 99.8606 10.27 101.351 9.67999 102.671C9.31999 103.471 8.59999 103.851 7.78999 104.061C7.45999 104.141 7.11999 104.171 6.76999 104.171C5.69999 104.171 4.62999 104.151 3.54999 104.171C3.14999 104.171 2.99999 104.101 3.00999 103.661C3.03999 102.241 3.01999 100.811 3.01999 99.3806ZM4.48999 101.311C4.48999 101.711 4.49999 102.121 4.48999 102.521C4.47999 102.801 4.56999 102.911 4.85999 102.901C5.53999 102.881 6.22999 102.881 6.90999 102.861C7.77999 102.831 8.39999 102.231 8.42999 101.421C8.45999 100.611 7.87999 99.9406 7.01999 99.8706C6.27999 99.8106 5.52999 99.8306 4.78999 99.8106C4.53999 99.8106 4.46999 99.9106 4.47999 100.151C4.49999 100.541 4.47999 100.921 4.47999 101.311H4.48999ZM4.48999 97.1606C4.48999 97.5806 4.48999 97.9406 4.48999 98.3006C4.48999 98.4706 4.50999 98.6006 4.73999 98.5906C5.30999 98.5806 5.88999 98.6206 6.45999 98.5706C7.30999 98.5006 7.81999 97.9206 7.77999 97.1306C7.74999 96.4206 7.16999 95.9106 6.35999 95.8906C6.18999 95.8906 6.01999 95.8806 5.84999 95.8906C5.41999 95.9206 4.85999 95.6906 4.58999 95.9406C4.28999 96.2206 4.53999 96.7906 4.48999 97.1606Z" fill="#3C4A5B"/>
<path d="M20.92 99.4205C20.92 97.9505 20.92 96.4805 20.92 95.0105C20.92 94.7405 20.95 94.5705 21.29 94.5805C22.59 94.6205 23.9 94.5205 25.2 94.6605C26.94 94.8505 28.24 95.7505 29.01 97.2805C30.52 100.26 28.5 103.63 25.44 104.07C24.02 104.27 22.59 104.11 21.16 104.16C20.83 104.17 20.92 103.94 20.92 103.78C20.92 102.33 20.92 100.87 20.92 99.4205ZM22.41 99.3205C22.41 100.36 22.41 101.39 22.41 102.43C22.41 102.75 22.5 102.87 22.84 102.85C23.41 102.82 23.99 102.85 24.56 102.82C26.33 102.74 27.85 101.41 28.01 99.8205C28.19 98.0205 27.09 96.4505 25.32 96.0105C24.5 95.8105 23.65 95.9405 22.82 95.8705C22.48 95.8405 22.41 95.9805 22.41 96.2905C22.43 97.2905 22.41 98.3005 22.41 99.3105V99.3205Z" fill="#3C4A5B"/>
<path d="M108.86 99.4305C108.96 100.82 108.33 101.92 107.39 102.86C106.5 103.75 105.4 104.32 104.13 104.34C100.94 104.37 98.81 101.95 98.81 99.3305C98.81 96.7905 100.94 94.4805 103.93 94.4805C106.28 94.4805 109.04 96.5105 108.86 99.4305ZM107.38 99.4305C107.49 97.7705 105.92 95.5805 103.47 95.8805C101.8 96.0805 100.33 97.4505 100.31 99.3105C100.29 101.35 101.79 102.91 103.86 102.96C105.76 103 107.35 101.38 107.37 99.4305H107.38Z" fill="#3C4A5B"/>
<path d="M62.21 104.141C61.1167 104.207 60.3933 103.751 60.04 102.771C59.64 101.661 59.64 101.661 58.44 101.661C57.49 101.661 56.55 101.661 55.6 101.631C55.25 101.621 55.06 101.741 54.95 102.071C54.75 102.671 54.51 103.251 54.31 103.851C54.23 104.101 54.09 104.191 53.83 104.181C53.44 104.161 53.06 104.181 52.65 104.181C52.7 103.731 52.93 103.371 53.1 103.001C54.08 100.971 54.89 98.8608 55.78 96.7908C56.04 96.1808 56.28 95.5608 56.51 94.9408C56.61 94.6608 56.77 94.5708 57.06 94.5808C57.69 94.6108 58.2 94.5008 58.53 95.3808C59.51 98.0008 60.72 100.541 61.74 103.151C61.87 103.481 62.03 103.791 62.2 104.151L62.21 104.141ZM57.45 96.4708C57.28 96.5108 57.26 96.6108 57.23 96.6908C56.76 97.7808 56.37 98.9108 55.82 99.9708C55.66 100.271 55.74 100.391 56.08 100.391C56.96 100.391 57.85 100.331 58.73 100.411C59.07 100.441 58.97 100.201 58.91 100.041C58.43 98.8508 57.94 97.6708 57.45 96.4708Z" fill="#3C4A5B"/>
<path d="M123.24 101.24C123.69 101.15 124.12 101.21 124.55 101.19C124.73 101.19 124.77 101.31 124.8 101.46C125.1 102.83 126.8 103.45 128.09 102.73C128.94 102.26 128.95 101.12 128.12 100.6C127.57 100.26 126.93 100.16 126.32 99.9895C125.77 99.8295 125.24 99.6195 124.73 99.3495C123.28 98.5995 122.86 96.5995 124.09 95.3395C124.61 94.8095 125.4 94.5595 126.19 94.4895C126.86 94.4295 127.52 94.5295 128.13 94.7895C128.54 94.9695 128.91 95.2795 129.19 95.6395C129.55 96.0995 129.77 96.6395 129.96 97.1995C130.05 97.4595 129.96 97.5495 129.71 97.5495C129.41 97.5495 129.12 97.5495 128.82 97.5495C128.57 97.5495 128.51 97.3795 128.45 97.2095C127.96 95.9895 127.29 95.5995 125.99 95.7895C125.48 95.8595 124.96 96.3595 124.87 96.8495C124.78 97.3995 125.03 97.9095 125.58 98.1795C126.11 98.4395 126.68 98.5895 127.25 98.7595C127.69 98.8895 128.14 99.0195 128.58 99.1895C129.61 99.5795 130.15 100.36 130.19 101.45C130.23 102.38 129.66 103.53 128.63 103.98C126.93 104.73 124.86 104.01 124.1 103.08C123.88 102.81 123.69 102.53 123.57 102.21C123.45 101.9 123.34 101.58 123.22 101.25L123.24 101.24Z" fill="#3C4A5B"/>
<path d="M155.42 104.29C153.61 104.27 152.16 103.42 151.71 101.76C151.57 101.24 151.6 101.2 152.12 101.19C152.23 101.19 152.34 101.2 152.45 101.19C152.86 101.13 153.07 101.25 153.19 101.7C153.55 103.02 155.61 103.47 156.67 102.54C157.11 102.15 157.15 101.09 156.56 100.69C156.07 100.36 155.51 100.23 154.96 100.08C154.24 99.8804 153.53 99.6604 152.89 99.2604C151.12 98.1704 151.39 95.9104 152.97 94.9904C154.79 93.9204 157.54 94.4504 158.27 97.1904C158.29 97.2704 158.36 97.4004 158.25 97.4404C157.96 97.5204 157.66 97.5704 157.35 97.5804C156.94 97.6004 156.83 97.3804 156.72 97.0604C156.28 95.7504 155 95.5704 153.98 95.9304C153.46 96.1104 153.17 96.5404 153.17 97.1204C153.17 97.6804 153.52 98.0004 153.97 98.2204C154.59 98.5104 155.25 98.6904 155.9 98.8804C156.47 99.0404 157.02 99.2304 157.54 99.5304C158.97 100.36 158.78 102.95 157.33 103.79C156.74 104.13 156.12 104.28 155.45 104.3L155.42 104.29Z" fill="#3C4A5B"/>
<path d="M11.04 99.4009C11.04 97.9609 11.04 96.5209 11.04 95.0809C11.04 94.7209 11.11 94.5609 11.53 94.5809C12.54 94.6209 13.55 94.6009 14.56 94.6009C15.26 94.6009 15.96 94.5409 16.66 94.6009C16.86 94.6209 16.95 94.6809 16.94 94.8809C16.94 94.9009 16.94 94.9109 16.94 94.9309C17.01 95.9709 17.01 95.9609 15.97 95.9409C15.01 95.9209 14.04 95.9309 13.08 95.9209C12.71 95.9209 12.51 96.0309 12.54 96.4709C12.58 97.0609 12.57 97.6509 12.54 98.2309C12.52 98.6109 12.64 98.7409 13.03 98.7409C14.12 98.7209 15.2 98.7209 16.29 98.7309C16.87 98.7309 16.84 98.8409 16.84 99.4209C16.84 100.091 16.48 100.031 16.04 100.021C15.02 100.001 13.99 100.021 12.97 100.001C12.61 100.001 12.52 100.121 12.53 100.461C12.55 101.131 12.55 101.791 12.53 102.461C12.52 102.801 12.65 102.881 12.96 102.881C14.14 102.871 15.32 102.881 16.5 102.861C16.84 102.861 16.93 102.961 16.93 103.281C16.93 104.191 16.94 104.191 16.03 104.191C14.52 104.191 13.02 104.181 11.51 104.191C11.11 104.191 11.02 104.061 11.03 103.691C11.05 102.271 11.03 100.841 11.03 99.4209L11.04 99.4009Z" fill="#3C4A5B"/>
<path d="M143.06 99.3894C143.06 100.889 143.96 102.189 145.33 102.699C146.76 103.229 148.33 102.849 149.3 101.679C149.59 101.329 149.78 101.339 150.12 101.609C150.88 102.209 150.9 102.189 150.19 102.889C147.49 105.569 142.97 104.339 141.77 100.829C141.55 100.169 141.36 99.4594 141.52 98.7794C141.99 96.8194 143.06 95.2994 145.1 94.6994C147.15 94.0994 148.92 94.6594 150.41 96.1694C150.69 96.4494 150.74 96.6794 150.36 96.8994C150.28 96.9494 150.2 96.9994 150.14 97.0694C149.79 97.4094 149.53 97.3694 149.19 96.9894C148.14 95.7994 146.69 95.5994 145.32 96.0694C143.93 96.5494 143.07 97.8994 143.07 99.3894H143.06Z" fill="#3C4A5B"/>
<path d="M83.21 99.5191C83.21 98.1391 83.2 96.7591 83.22 95.3891C83.22 95.1491 82.99 94.8891 83.18 94.6991C83.41 94.4791 83.74 94.5991 84.03 94.5991C85.54 94.5991 87.04 94.6091 88.55 94.5991C88.86 94.5991 89.01 94.6691 88.99 95.0091C88.98 95.2191 88.99 95.4291 89.03 95.6491C89.1 95.9491 88.82 95.9091 88.63 95.9091C87.5 95.9091 86.36 95.9291 85.23 95.8991C84.8 95.8891 84.64 96.0091 84.68 96.4491C84.75 97.0891 84.61 97.7391 84.77 98.3791C84.83 98.6291 84.94 98.7191 85.16 98.7191C86.23 98.7191 87.3 98.7191 88.37 98.7091C88.74 98.7091 88.99 98.6591 88.9 99.2091C88.77 100.039 88.83 100.029 87.96 100.019C86.98 99.9991 86 100.019 85.03 99.9991C84.77 99.9991 84.66 100.069 84.68 100.339C84.74 100.999 84.77 101.679 84.72 102.309C84.66 103.059 85.04 102.859 85.4 102.859C86.46 102.859 87.51 102.869 88.57 102.859C88.86 102.859 89.02 102.919 88.97 103.239C88.96 103.319 88.99 103.399 88.97 103.469C88.9 103.699 89.21 103.949 89.01 104.109C88.81 104.259 88.5 104.159 88.24 104.159C86.7 104.159 85.16 104.159 83.63 104.169C83.29 104.169 83.18 104.099 83.19 103.739C83.21 102.329 83.19 100.919 83.19 99.5091L83.21 99.5191Z" fill="#3C4A5B"/>
<path d="M51.13 100.08C51.13 101.32 51.12 102.56 51.13 103.79C51.13 104.1 51.04 104.17 50.74 104.17C49.63 104.17 49.63 104.18 49.63 103.08C49.63 100.85 49.62 98.6201 49.63 96.3901C49.63 95.9901 49.5 95.8901 49.13 95.9001C48.42 95.9301 47.7 95.9101 46.99 95.9401C46.73 95.9401 46.64 95.8801 46.63 95.6101C46.59 94.5701 46.58 94.5801 47.64 94.5801C49.3 94.5801 50.96 94.5801 52.62 94.6001C53.04 94.6001 53.45 94.4101 53.88 94.6001C54.02 94.6601 54.1 94.6901 54.09 94.8401C54.09 94.8701 54.09 94.9001 54.09 94.9301C54.07 96.1301 54.25 95.9701 53.11 95.9301C52.57 95.9101 52.02 95.9301 51.48 95.9001C51.18 95.8801 51.09 95.9701 51.09 96.2801C51.11 97.5501 51.09 98.8201 51.09 100.09L51.13 100.08Z" fill="#3C4A5B"/>
<path d="M134.99 103.94C134.96 103.99 134.94 104.04 134.91 104.1L134.9 104.12C134.87 104.13 134.84 104.15 134.81 104.15C133.903 104.23 133.45 103.823 133.45 102.93C133.45 100.68 133.45 98.4298 133.47 96.1798C133.47 95.8798 133.29 95.8998 133.1 95.8998C132.35 95.8998 131.61 95.8998 130.87 95.9298C130.56 95.9398 130.47 95.8398 130.47 95.5398C130.47 94.5898 130.45 94.5898 131.38 94.5898C133.41 94.5898 135.45 94.6098 137.48 94.5898C137.8 94.5898 137.88 94.6898 137.86 94.9898C137.85 95.1998 137.84 95.4098 137.9 95.6298C137.98 95.9398 137.71 95.8998 137.52 95.8998C136.67 95.8998 135.81 95.9098 134.96 95.9198H134.92V95.9498C134.93 98.4498 134.92 100.96 134.92 103.46C134.92 103.61 134.89 103.77 134.98 103.91V103.93L134.99 103.94Z" fill="#3C4A5B"/>
<path d="M62.8 99.4401C62.8 98.0001 62.81 96.5601 62.8 95.1201C62.8 94.6901 62.93 94.5601 63.36 94.5801C64.31 94.6301 64.3 94.6101 64.3 95.5401C64.3 97.8301 64.3 100.13 64.29 102.42C64.29 102.77 64.4 102.87 64.74 102.86C65.92 102.84 67.1 102.86 68.28 102.85C68.59 102.85 68.67 102.95 68.68 103.24C68.68 104.16 68.7 104.16 67.77 104.16C66.25 104.16 64.72 104.16 63.2 104.16C62.87 104.16 62.79 104.07 62.79 103.75C62.81 102.31 62.79 100.87 62.79 99.4301L62.8 99.4401Z" fill="#3C4A5B"/>
<path d="M94.55 102.73C94.69 102.91 94.89 102.85 95.07 102.85C96.23 102.85 97.4 102.85 98.56 102.84C98.87 102.84 98.97 102.93 98.98 103.23C99.01 104.17 99.02 104.17 98.09 104.17C96.55 104.17 95.02 104.17 93.48 104.17C93.16 104.17 93.07 104.08 93.07 103.75C93.09 100.89 93.09 98.0199 93.07 95.1599C93.07 94.7199 93.15 94.4898 93.65 94.5798C93.91 94.6298 94.17 94.5998 94.44 94.6098C94.44 94.6398 94.46 94.6498 94.49 94.6498C94.51 94.6498 94.52 94.6698 94.52 94.6898C94.51 94.7698 94.49 94.8499 94.56 94.9099C94.56 97.4499 94.56 99.9798 94.55 102.52C94.49 102.59 94.49 102.65 94.55 102.72V102.73Z" fill="#3C4A5B"/>
<path d="M44.23 99.3809C44.23 97.9209 44.23 96.4709 44.23 95.0109C44.23 94.6709 44.32 94.5609 44.68 94.5709C45.73 94.6109 45.73 94.6009 45.73 95.6409C45.73 98.1709 45.73 100.691 45.73 103.221C45.73 103.251 45.74 103.291 45.73 103.311C45.59 103.581 46.05 103.951 45.7 104.101C45.3 104.271 44.81 104.181 44.36 104.141C44.14 104.121 44.23 103.891 44.23 103.751C44.23 102.291 44.23 100.841 44.23 99.3809Z" fill="#3C4A5B"/>
<path d="M32.21 99.3299C32.21 100.8 32.21 102.27 32.21 103.74C32.21 104.06 32.13 104.17 31.79 104.17C30.71 104.17 30.71 104.18 30.71 103.09C30.71 100.44 30.72 97.7899 30.71 95.1399C30.71 94.6999 30.82 94.5399 31.29 94.5699C32.21 94.6299 32.21 94.5999 32.2 95.5099C32.2 96.7799 32.2 98.0499 32.2 99.3199L32.21 99.3299Z" fill="#3C4A5B"/>
<path d="M122.12 99.3894C122.12 100.859 122.12 102.329 122.12 103.799C122.12 104.049 122.07 104.149 121.79 104.169C120.61 104.219 120.61 104.229 120.61 103.049C120.61 100.449 120.61 97.8494 120.62 95.2494C120.62 94.5694 120.62 94.5694 121.27 94.5894C122.12 94.6094 122.11 94.6094 122.1 95.4494C122.1 96.7594 122.1 98.0794 122.1 99.3894C122.1 99.3894 122.1 99.3894 122.11 99.3894H122.12Z" fill="#3C4A5B"/>
<path d="M138.88 99.3697C138.88 97.9497 138.89 96.5197 138.88 95.0997C138.88 94.7097 138.97 94.5497 139.4 94.5797C140.38 94.6297 140.37 94.6097 140.37 95.6197C140.37 98.2497 140.37 100.88 140.37 103.51C140.37 103.95 140.153 104.17 139.72 104.17C138.88 104.17 138.88 104.17 138.89 103.32C138.89 102.01 138.89 100.69 138.89 99.3797L138.88 99.3697Z" fill="#3C4A5B"/>
<path d="M71.3 103.91C71.26 104.75 70.88 105.38 70.15 105.79C69.94 105.91 69.69 106 69.52 105.76C69.37 105.53 69.62 105.41 69.75 105.27C69.78 105.24 69.82 105.21 69.86 105.18C70.61 104.58 70.61 104.54 69.85 104C69.45 103.72 69.41 103.46 69.71 102.99C69.95 102.62 70.39 102.5 70.72 102.68C71.21 102.95 71.31 103.4 71.3 103.91Z" fill="#3C4A5B"/>
<path d="M94.55 102.729C94.49 102.659 94.5 102.589 94.55 102.529C94.78 102.599 94.63 102.669 94.55 102.729Z" fill="#3C4A5B"/>
<path d="M165.72 101.039C165.72 101.159 165.72 101.279 165.72 101.409C165.67 101.289 165.68 101.169 165.72 101.039Z" fill="#3C4A5B"/>
<path d="M37.84 49.4502C37.84 49.3502 37.83 49.2602 37.82 49.1602C37.87 49.2502 37.87 49.3502 37.84 49.4502Z" fill="#3C4A5B"/>
<path d="M165.69 94.5508C165.75 94.6408 165.75 94.7308 165.7 94.8208C165.7 94.7308 165.7 94.6408 165.69 94.5508Z" fill="#3C4A5B"/>
<path d="M94.56 94.9192C94.49 94.8592 94.51 94.7792 94.52 94.6992C94.6 94.7592 94.59 94.8392 94.56 94.9192Z" fill="#3C4A5B"/>
<path d="M37.82 50.3895C37.82 50.3895 37.82 50.3095 37.83 50.2695C37.83 50.3095 37.83 50.3495 37.82 50.3895Z" fill="#3C4A5B"/>
<path d="M119.15 104.14C119.15 104.14 119.21 104.11 119.24 104.09C119.24 104.16 119.19 104.15 119.15 104.14Z" fill="#3C4A5B"/>
<path d="M134.94 95.9499L134.93 95.9199H134.96V95.9499H134.94Z" fill="#3C4A5B"/>
<path d="M165.7 101.689L165.71 101.709H165.7V101.689Z" fill="#3C4A5B"/>
<path d="M165.69 101.971H165.72V102.001L165.69 101.991V101.971Z" fill="#3C4A5B"/>
<path d="M165.72 95.4707V95.4907L165.7 95.4807L165.72 95.4707Z" fill="#3C4A5B"/>
<path d="M94.49 94.6494C94.49 94.6494 94.44 94.6494 94.44 94.6094H94.48V94.6494H94.49Z" fill="#3C4A5B"/>
<path d="M134.99 103.94V103.92C135 103.92 135.01 103.92 135.02 103.92C135.01 103.92 135 103.94 134.99 103.95V103.94Z" fill="#3C4A5B"/>
<path d="M98.94 86.1799L98.92 86.1699H98.94V86.1799Z" fill="#3C4A5B"/>
<path d="M134.9 104.12L134.91 104.1L134.92 104.12H134.9Z" fill="#3C4A5B"/>
<path d="M12.76 78.6609C12.88 78.6209 13.01 78.6209 13.13 78.6609C13.01 78.6609 12.88 78.6609 12.76 78.6609Z" fill="#3C4A5B"/>
</svg>
