<svg width="256" height="142" viewBox="0 0 256 142" fill="none" xmlns="http://www.w3.org/2000/svg">
<path d="M77.02 56.2699C76.81 57.1299 76.68 58.0199 76.39 58.8499C75.74 60.6899 75.61 62.5099 76.17 64.3899C76.41 65.2099 76.58 66.0499 76.74 66.8899C76.95 68.0299 76.82 69.1399 76.22 70.1599C75.87 70.7499 75.58 71.3999 75.13 71.8899C73.34 73.8199 72.59 76.1499 72.37 78.6999C72.19 80.7499 71.28 82.3399 69.48 83.3899C69.01 83.6699 68.56 83.9899 68.08 84.2599C66.44 85.1599 65.19 86.4299 64.25 88.0299C63.85 88.7099 63.45 89.3899 63.01 90.0399C62.16 91.2799 61.01 92.0899 59.5 92.3199C58.65 92.4499 57.81 92.6099 56.96 92.7099C55.5 92.8999 54.18 93.4099 53.01 94.3199C52.44 94.7599 51.83 95.1399 51.26 95.5799C49.57 96.8899 47.72 97.2899 45.65 96.6199C45.23 96.4799 44.78 96.4299 44.35 96.2999C42.56 95.7599 40.77 95.7699 38.98 96.2799C38.52 96.4099 38.04 96.4899 37.59 96.6399C35.52 97.3099 33.67 96.7899 31.97 95.5599C31.58 95.2799 31.21 94.9799 30.82 94.6899C29.41 93.6199 27.89 92.7899 26.08 92.6399C25.74 92.6099 25.4 92.5099 25.06 92.4899C22.49 92.2899 20.56 91.0899 19.42 88.7799C18.23 86.3499 16.44 84.5499 14.04 83.3299C13.74 83.1799 13.46 82.9599 13.18 82.7599C12.01 81.9399 11.2 80.8699 10.93 79.4499C10.74 78.4799 10.57 77.4999 10.44 76.5199C10.21 74.8199 9.56997 73.2999 8.52997 71.9299C7.64997 70.7899 6.83997 69.6099 6.39997 68.2099C6.24997 67.7399 6.16997 67.2999 6.33997 66.8199C6.54997 66.2099 6.62997 65.5499 6.86997 64.9499C7.67997 62.9499 7.62997 60.9499 7.05997 58.9099C6.87997 58.2499 6.71997 57.5799 6.58997 56.9099C6.28997 55.3899 6.55997 53.9899 7.50997 52.7299C8.12997 51.9099 8.72997 51.0799 9.31997 50.2399C10.05 49.2199 10.48 48.0799 10.65 46.8299C10.76 45.9799 10.93 45.1399 11.02 44.2899C11.21 42.4599 12.26 41.2199 13.74 40.2699C14.43 39.8299 15.14 39.4099 15.85 38.9999C17.18 38.2099 18.18 37.1199 18.94 35.7799C19.48 34.8299 20.08 33.9199 20.73 33.0299C21.45 32.0399 22.5 31.5399 23.68 31.3099C24.49 31.1499 25.3 31.0099 26.11 30.9099C27.79 30.7099 29.28 30.0999 30.61 29.0599C31.8 28.1399 33.02 27.2599 34.44 26.6899C35.18 26.3899 35.85 26.3499 36.63 26.6099C37.76 26.9899 38.93 27.2799 40.1 27.5299C41.43 27.8099 42.76 27.6999 44.07 27.3599C44.96 27.1199 45.86 26.8799 46.74 26.6099C47.42 26.3999 48.06 26.4099 48.74 26.6699C50.11 27.1799 51.35 27.9099 52.44 28.8399C54.04 30.2099 55.9 30.8899 57.96 31.0799C58.1 31.0899 58.23 31.1199 58.37 31.1299C60.9 31.3399 62.75 32.5599 63.9 34.8299C64.07 35.1699 64.29 35.4699 64.47 35.7999C65.41 37.5399 66.79 38.8199 68.52 39.7599C69.32 40.1999 70.06 40.7699 70.79 41.3499C71.62 42.0099 72.11 42.9199 72.31 43.9599C72.52 45.0299 72.69 46.1199 72.84 47.1999C73.08 48.8299 73.71 50.2799 74.72 51.5799C75.26 52.2799 75.74 53.0399 76.21 53.7899C76.66 54.5299 76.92 55.3399 76.98 56.2499L77.02 56.2699ZM41.11 38.2899C28.44 38.5299 17.84 48.9299 18.17 62.3399C18.49 75.4499 29.08 85.7799 42.71 85.2999C55.03 84.8599 66.25 74.4399 65.1 59.7799C64.1 47.1499 53.51 38.0099 41.12 38.2899H41.11Z" fill="#3C4A5B"/>
<path d="M175.77 33.5998C176.2 34.7998 176.12 35.0598 174.98 35.4498C173.58 35.9298 172.98 36.9098 172.96 38.3198C172.96 38.9398 172.96 39.5498 172.96 40.1698C172.96 49.5798 172.96 58.9898 172.96 68.4098C172.96 70.6498 173.19 72.8498 173.96 74.9698C174.94 77.6698 176.69 79.6798 179.27 80.9698C181.22 81.9498 183.3 82.4898 185.46 82.7298C189.57 83.1898 193.66 83.1398 197.72 82.2498C199.27 81.9098 200.74 81.3298 202.08 80.4998C204.88 78.7798 206.45 76.2198 207.05 73.0398C207.28 71.8398 207.42 70.5998 207.43 69.3798C207.46 59.2798 207.45 49.1898 207.45 39.0898C207.45 38.8198 207.45 38.5398 207.45 38.2698C207.45 36.9698 206.92 36.0298 205.65 35.5798C205.26 35.4398 204.88 35.2898 204.42 35.1098C204.39 34.6598 204.37 34.1898 204.33 33.5698C206.19 33.4898 207.99 33.5398 209.79 33.5298C211.64 33.5298 213.49 33.5298 215.34 33.5298C217.15 33.5298 218.95 33.5298 220.8 33.5298C220.83 33.9198 220.85 34.1798 220.87 34.4498C220.9 34.9298 220.71 35.2298 220.21 35.3298C220.01 35.3698 219.82 35.4498 219.62 35.5198C218.42 35.9598 217.82 36.8298 217.78 38.0898C217.76 38.7698 217.76 39.4598 217.76 40.1398C217.76 49.8598 217.77 59.5798 217.76 69.2998C217.76 72.4298 217.43 75.5298 216.44 78.5098C214.61 84.0398 210.82 87.5998 205.31 89.4398C201.24 90.8098 197.04 91.3598 192.78 91.4398C190.14 91.4898 187.5 91.4498 184.87 91.2798C181 91.0198 177.2 90.3698 173.56 88.8898C167.84 86.5698 164.56 82.3098 163.25 76.3798C162.49 72.9798 162.48 69.5298 162.49 66.0698C162.51 57.0698 162.49 48.0698 162.47 39.0698C162.47 38.7998 162.45 38.5198 162.46 38.2498C162.51 36.8298 161.81 35.9398 160.51 35.4498C159.4 35.0298 159.39 34.9598 159.62 33.6098H175.77V33.5998Z" fill="#3C4A5B"/>
<path d="M149.74 37.3793C150.1 37.6193 150.41 37.8193 150.78 38.0693C148.25 42.2993 145.74 46.4793 143.24 50.6593C142.22 50.4193 142.19 50.4193 142.31 49.4793C142.42 48.5993 142.15 47.8693 141.61 47.1993C140.8 46.1893 139.75 45.4693 138.64 44.8693C133.22 41.9393 127.44 40.5193 121.27 40.7093C118.52 40.7993 115.8 41.1293 113.18 41.9993C107.38 43.9293 102.98 47.5093 100.47 53.1793C99.27 55.9093 98.81 58.7793 98.8 61.7793C98.79 64.7993 99.23 67.6993 100.37 70.4993C101.79 73.9693 104.16 76.6693 107.19 78.7893C110.75 81.2893 114.78 82.4793 119.1 82.8593C122.27 83.1293 125.39 82.9893 128.5 82.3393C131.62 81.6893 134.51 80.4593 137.24 78.8593C138.57 78.0793 139.81 77.1693 141.08 76.2993C141.33 76.1293 141.56 75.9093 141.78 75.6893C142.96 74.5293 143.1 73.8293 142.45 72.2993C142.4 72.1693 142.34 72.0493 142.23 71.8193C142.69 71.4593 143.15 71.0993 143.69 70.6793C146.82 74.5593 149.91 78.3793 153.05 82.2593C152.71 82.5393 152.4 82.7893 152.05 83.0793C151.67 82.8793 151.31 82.6893 150.96 82.4993C150.23 82.0993 149.55 82.1293 148.84 82.5993C147.32 83.5893 145.81 84.5993 144.24 85.4993C139.78 88.0493 135.04 89.8993 129.95 90.7593C123.28 91.8893 116.64 91.8393 110.12 89.8393C102.46 87.4993 96.3 83.1293 92.14 76.1893C90.05 72.6993 88.91 68.8993 88.56 64.8393C88.23 61.0493 88.46 57.3193 89.51 53.6593C91.24 47.6093 94.81 42.8393 99.74 39.0193C103.82 35.8493 108.46 33.9093 113.52 32.9293C119.29 31.8193 125.02 32.0693 130.77 33.2193C135.57 34.1693 140.1 35.8993 144.6 37.7593C145.33 38.0593 146.08 38.3093 146.8 38.6093C147.52 38.9093 148.13 38.7593 148.69 38.2593C149 37.9893 149.32 37.7393 149.73 37.3893L149.74 37.3793Z" fill="#3C4A5B"/>
<path d="M248.63 88.7098C248.66 89.0298 248.71 89.2998 248.71 89.5698C248.71 89.7698 248.66 89.9698 248.63 90.2298H232.32C231.94 88.9898 232.03 88.7298 233.15 88.3998C234.39 88.0298 235.06 87.2498 235.14 85.9698C235.18 85.3898 235.21 84.8098 235.21 84.2298C235.21 69.5798 235.21 54.9398 235.21 40.2898C235.21 39.4698 235.14 38.6498 235.1 37.8298C235.04 36.5698 234.33 35.8498 233.18 35.4498C232.01 35.0398 232 34.9898 232.24 33.5898H248.6V35.1198C248.23 35.2598 247.88 35.3798 247.53 35.5098C246.34 35.9498 245.7 36.7798 245.71 38.0698C245.71 38.3798 245.71 38.6898 245.71 38.9898C245.71 54.2498 245.71 69.5098 245.71 84.7698C245.71 87.4498 245.93 87.7598 248.62 88.6998L248.63 88.7098Z" fill="#3C4A5B"/>
<path d="M221.32 105.25C222.26 105.25 223.07 105.25 223.89 105.25C224.36 105.25 224.51 105.57 224.61 105.97C225.02 107.59 225.45 109.21 225.87 110.83C225.95 111.15 226.04 111.47 226.3 111.81C226.59 110.73 226.87 109.64 227.19 108.56C227.51 107.48 227.88 106.42 228.27 105.23C229.05 105.23 229.83 105.2 230.6 105.23C231.23 105.26 231.3 105.38 231.33 106.08C231.41 107.79 231.48 109.5 231.56 111.21C231.62 112.5 231.69 113.8 231.75 115.19H229.57C229.42 112.84 229.24 110.44 229.17 107.99C229.03 108.36 228.87 108.72 228.76 109.09C228.28 110.66 227.81 112.23 227.36 113.81C226.98 115.13 226.95 115.16 225.61 115.1C225.48 115.1 225.34 115.06 225.1 115.02C224.51 112.75 223.91 110.46 223.31 108.17C223.26 108.17 223.22 108.19 223.17 108.2C223.06 110.54 222.94 112.87 222.83 115.23H220.73C220.93 111.92 221.12 108.66 221.33 105.23L221.32 105.25Z" fill="#3C4A5B"/>
<path d="M76.36 115.25H74.33V105.37C75.08 105.09 75.86 105.22 76.63 105.28C76.86 105.3 77.12 105.63 77.26 105.88C78.24 107.68 79.19 109.5 80.16 111.31C80.23 111.44 80.32 111.57 80.55 111.66C80.5 109.57 80.45 107.48 80.39 105.31H82.42C82.69 106.07 82.7 114.17 82.41 115.31C81.85 115.31 81.24 115.36 80.64 115.29C80.39 115.26 80.09 115.01 79.96 114.78C78.99 113.05 78.06 111.3 77.12 109.55C76.9 109.15 76.68 108.75 76.42 108.27C76.42 109.57 76.42 110.72 76.42 111.86C76.42 112.98 76.39 114.1 76.37 115.26L76.36 115.25Z" fill="#3C4A5B"/>
<path d="M29.78 111.78V105.33H31.78V115.23C31.11 115.26 30.43 115.36 29.78 115.27C29.49 115.23 29.19 114.83 29.02 114.52C28.27 113.18 27.56 111.81 26.84 110.46C26.46 109.74 26.09 109.02 25.57 108.35V115.19H23.71C23.5 114.5 23.47 106.45 23.7 105.25C24.38 105.25 25.09 105.25 25.8 105.25C26.25 105.25 26.43 105.56 26.62 105.91C27.63 107.81 28.66 109.7 29.79 111.79L29.78 111.78Z" fill="#3C4A5B"/>
<path d="M170.42 115.17V105.52C170.42 105.52 170.5 105.43 170.56 105.42C172.29 105.12 174.04 105.04 175.76 105.45C178.11 106 179.43 107.91 179.25 110.32C179.18 111.21 179.02 112.07 178.55 112.87C177.97 113.86 177.18 114.57 176.08 114.91C174.25 115.46 172.4 115.58 170.43 115.18L170.42 115.17ZM172.7 113.44C174.85 113.89 176.52 112.85 176.77 110.92C176.84 110.39 176.83 109.82 176.74 109.29C176.43 107.46 174.54 106.47 172.7 107.19V113.44Z" fill="#3C4A5B"/>
<path d="M195.83 115.09V105.45C196.21 105.39 196.58 105.29 196.94 105.27C197.86 105.23 198.8 105.15 199.71 105.24C200.55 105.32 201.4 105.53 202.18 105.83C203.33 106.27 204.07 107.16 204.41 108.35C204.8 109.74 204.81 111.12 204.19 112.45C203.78 113.34 203.15 114.05 202.29 114.54C200.75 115.41 197.67 115.69 195.84 115.09H195.83ZM198.11 107.09V113.45C199.78 113.73 201.03 113.29 201.71 112.21C202.38 111.15 202.35 109.07 201.65 108.1C200.93 107.11 199.57 106.72 198.11 107.09Z" fill="#3C4A5B"/>
<path d="M59.86 110.319C59.68 111.069 59.59 111.899 59.29 112.639C58.34 114.969 55.76 115.699 54.29 115.469C52 115.109 50.43 113.379 50.16 110.999C50.03 109.809 50.22 108.679 50.78 107.619C51.68 105.909 53.56 104.909 55.46 105.069C57.93 105.279 59.11 106.949 59.55 108.539C59.7 109.089 59.76 109.679 59.87 110.319H59.86ZM57.37 109.979C57.39 109.239 57.17 108.289 56.4 107.549C55.48 106.659 54.28 106.699 53.42 107.639C52.29 108.869 52.27 111.659 53.39 112.889C54.24 113.839 55.59 113.849 56.47 112.919C57.17 112.169 57.37 111.249 57.38 109.979H57.37Z" fill="#3C4A5B"/>
<path d="M166 110.15C165.9 110.79 165.85 111.45 165.68 112.06C165.02 114.35 162.97 115.5 160.98 115.51C158.96 115.51 156.98 113.87 156.49 111.9C156.26 110.95 156.24 110.02 156.45 109.06C157.03 106.45 159.21 104.8 161.74 105.07C164.29 105.34 165.99 107.39 166 110.14V110.15ZM158.65 110.11C158.79 110.86 158.83 111.48 159.04 112.04C159.38 112.92 160.04 113.51 161.02 113.6C161.94 113.69 162.63 113.22 163.03 112.44C163.77 110.99 163.81 109.46 163 108.03C162.11 106.47 160.14 106.5 159.29 108.08C158.95 108.72 158.84 109.48 158.65 110.1V110.11Z" fill="#3C4A5B"/>
<path d="M209.8 110.32C209.95 109.59 210.01 108.83 210.27 108.14C211.22 105.62 213.56 104.92 215.22 105.08C217.42 105.29 219.04 106.86 219.41 109.09C219.59 110.15 219.54 111.2 219.18 112.23C218.42 114.38 216.16 115.86 214.06 115.49C211.17 114.99 209.91 112.77 209.9 110.75C209.9 110.61 209.9 110.48 209.9 110.34C209.86 110.34 209.83 110.33 209.79 110.32H209.8ZM217.12 110.46C216.97 109.7 216.93 108.96 216.67 108.31C216.05 106.72 214.07 106.43 213.02 107.71C212.02 108.94 211.99 111.49 212.96 112.72C214 114.03 215.84 113.89 216.58 112.38C216.87 111.79 216.95 111.09 217.12 110.46Z" fill="#3C4A5B"/>
<path d="M143.82 105.43C144.21 105.36 144.58 105.26 144.94 105.25C145.83 105.22 146.72 105.19 147.61 105.23C148.15 105.26 148.71 105.35 149.21 105.53C151.16 106.25 151.59 108.62 150.05 110.01C149.87 110.17 149.68 110.31 149.55 110.4C149.93 111.19 150.35 111.92 150.63 112.7C150.92 113.5 151.06 114.35 151.29 115.28C150.63 115.28 150.03 115.28 149.43 115.28C149.06 115.28 148.88 115.05 148.79 114.72C148.63 114.13 148.46 113.54 148.3 112.94C147.94 111.6 147.58 111.33 145.98 111.34V115.23H143.94C143.69 114.56 143.58 108.07 143.79 105.42L143.82 105.43ZM146.07 109.56C146.39 109.6 146.59 109.64 146.79 109.64C147.06 109.64 147.34 109.62 147.6 109.56C148.22 109.43 148.71 108.87 148.73 108.29C148.75 107.67 148.34 107.13 147.68 106.97C147.16 106.84 146.62 106.83 146.08 107.02V109.55L146.07 109.56Z" fill="#3C4A5B"/>
<path d="M49.4 115.211C49.19 115.271 49.1 115.321 49 115.321C46.68 115.261 47.13 115.581 46.54 113.501C46.47 113.271 46.44 113.031 46.38 112.801C46.05 111.531 45.76 111.331 44.19 111.341V115.211H42.06C41.85 114.501 41.77 106.991 41.95 105.421C42.21 105.371 42.5 105.261 42.8 105.251C43.86 105.221 44.92 105.211 45.98 105.221C46.35 105.221 46.73 105.301 47.09 105.411C48.16 105.731 48.89 106.401 49.07 107.531C49.25 108.611 48.82 109.461 47.99 110.141C47.86 110.251 47.71 110.331 47.47 110.471C48.92 111.751 48.86 113.561 49.4 115.191V115.211ZM44.21 109.581C45.01 109.781 45.67 109.691 46.25 109.291C46.99 108.781 47.01 107.881 46.34 107.291C45.69 106.721 44.97 106.881 44.21 107.021V109.591V109.581Z" fill="#3C4A5B"/>
<path d="M106.11 115.321V105.441C106.36 105.381 106.58 105.281 106.81 105.271C107.94 105.251 109.07 105.191 110.2 105.271C110.8 105.311 111.43 105.481 111.95 105.761C113.49 106.611 113.72 108.621 112.47 109.871C112.23 110.101 111.96 110.301 111.65 110.571C113.13 111.811 112.93 113.661 113.57 115.181C113.41 115.251 113.38 115.281 113.35 115.281C110.94 115.301 111.28 115.551 110.7 113.331C110.67 113.231 110.65 113.131 110.63 113.031C110.28 111.551 110.01 111.341 108.35 111.361V115.231C107.59 115.271 106.92 115.301 106.11 115.341V115.321ZM108.38 109.501C109.3 109.741 110.14 109.771 110.75 108.941C111.09 108.481 111.08 107.821 110.68 107.421C110.03 106.761 109.23 106.811 108.38 107.011V109.501Z" fill="#3C4A5B"/>
<path d="M70.04 105.299H72.16C72.23 105.399 72.3 105.449 72.3 105.509C72.31 107.599 72.44 109.689 72.3 111.769C72.1 114.679 69.2 116.309 66.5 115.169C65.23 114.629 64.48 113.639 64.32 112.289C64.21 111.409 64.25 110.509 64.24 109.629C64.23 108.229 64.24 106.829 64.24 105.389C65 105.169 65.69 105.219 66.5 105.389C66.5 105.839 66.5 106.279 66.5 106.719C66.5 108.229 66.47 109.729 66.52 111.239C66.54 111.769 66.69 112.319 66.9 112.809C67.15 113.389 67.69 113.649 68.33 113.629C69.01 113.609 69.54 113.309 69.79 112.679C69.95 112.279 70.04 111.819 70.05 111.389C70.08 109.749 70.06 108.099 70.06 106.459C70.06 106.119 70.06 105.779 70.06 105.309L70.04 105.299Z" fill="#3C4A5B"/>
<path d="M235 115.221H232.7C233.72 111.861 234.71 108.611 235.72 105.301H238.73C239.75 108.621 240.76 111.901 241.8 115.301C241.07 115.301 240.44 115.301 239.8 115.301C239.42 115.301 239.25 115.071 239.15 114.761C239.01 114.301 238.87 113.851 238.76 113.381C238.65 112.911 238.42 112.671 237.91 112.691C237.23 112.711 236.55 112.691 235.8 112.691C235.52 113.561 235.25 114.391 234.98 115.221H235ZM237.21 107.371C237.14 107.381 237.07 107.401 237.01 107.411C236.71 108.561 236.42 109.711 236.11 110.931H238.23C237.87 109.681 237.54 108.521 237.22 107.371H237.21Z" fill="#3C4A5B"/>
<path d="M142.48 115.28H140.07C139.78 114.44 139.5 113.61 139.18 112.69C138.47 112.69 137.75 112.69 137.04 112.69C136.6 112.69 136.34 112.92 136.24 113.34C136.13 113.77 135.99 114.2 135.91 114.63C135.83 115.07 135.62 115.3 135.16 115.3C134.62 115.3 134.07 115.3 133.47 115.3C133.49 115.06 133.47 114.89 133.52 114.74C134.4 111.86 135.28 108.98 136.17 106.11C136.43 105.27 136.44 105.27 137.3 105.25C137.78 105.25 138.26 105.27 138.74 105.25C139.22 105.24 139.47 105.46 139.61 105.93C140.36 108.42 141.14 110.9 141.9 113.38C142.09 113.99 142.27 114.61 142.48 115.29V115.28ZM138.9 110.94C138.55 109.64 138.23 108.47 137.92 107.3C137.87 107.3 137.82 107.29 137.77 107.28C137.45 108.48 137.12 109.68 136.78 110.94H138.9Z" fill="#3C4A5B"/>
<path d="M104.2 107.149H100.57V109.149H104.07V110.999H100.57V113.369C101.87 113.399 103.18 113.429 104.55 113.459V115.249H98.23V105.289H104.19C104.47 105.879 104.41 106.469 104.2 107.149Z" fill="#3C4A5B"/>
<path d="M15.72 115.24V105.25C17.76 105.21 19.78 105.16 21.87 105.27V107.08H18.01V109.16H21.54V110.97H17.98V113.38H21.93V115.23H15.72V115.24Z" fill="#3C4A5B"/>
<path d="M180.82 105.27H186.8V107.13H183.03V109.11H186.59V111.02H183.07V113.42H187.06V115.22H180.88C180.66 114.55 180.59 106.7 180.82 105.28V105.27Z" fill="#3C4A5B"/>
<path d="M87.94 105.23C88.58 105.23 89.09 105.27 89.6 105.23C90.21 105.17 90.45 105.47 90.59 106.01C91.11 107.96 91.65 109.9 92.18 111.84C92.25 112.08 92.33 112.32 92.48 112.8C93.23 110.19 93.92 107.82 94.61 105.42C95.39 105.13 96.16 105.28 97 105.3C96.98 105.5 96.98 105.66 96.93 105.81C95.95 108.72 94.96 111.63 94 114.55C93.84 115.05 93.57 115.27 93.06 115.32C91.18 115.5 91.1 115.46 90.53 113.69C89.69 111.09 88.86 108.49 88.03 105.89C87.98 105.73 87.98 105.56 87.94 105.26V105.23Z" fill="#3C4A5B"/>
<path d="M249.02 105.53C249.17 106.21 248.92 106.75 248.65 107.29C247.93 107.19 247.27 107.04 246.6 107.03C246.22 107.03 245.78 107.16 245.47 107.39C244.95 107.77 245 108.27 245.58 108.63C246.07 108.93 246.64 109.11 247.14 109.4C247.76 109.75 248.41 110.09 248.93 110.56C249.92 111.47 249.98 112.83 249.14 113.89C248.25 115.02 247.02 115.52 245.64 115.52C244.87 115.52 244.1 115.26 243.33 115.09C242.93 115 242.77 114.72 242.85 114.32C242.94 113.89 243.05 113.47 243.16 112.98C243.54 113.1 243.86 113.25 244.18 113.29C244.92 113.38 245.66 113.44 246.41 113.44C246.81 113.44 247.08 113.16 247.2 112.75C247.32 112.33 247.18 111.99 246.85 111.76C246.49 111.51 246.09 111.31 245.7 111.11C245.21 110.87 244.68 110.7 244.21 110.42C242.57 109.44 242.33 107.49 243.71 106.18C244.09 105.82 244.6 105.52 245.1 105.35C246.41 104.93 247.72 105.09 249.02 105.54V105.53Z" fill="#3C4A5B"/>
<path d="M120.88 105.671C120.74 106.191 120.59 106.741 120.42 107.331C119.8 107.221 119.24 107.101 118.68 107.031C118.38 106.991 118.06 107.011 117.77 107.061C117.29 107.151 116.88 107.461 116.9 107.931C116.91 108.221 117.25 108.561 117.53 108.751C117.92 109.011 118.4 109.141 118.83 109.351C119.29 109.581 119.77 109.791 120.17 110.101C121.82 111.361 121.64 113.801 119.83 114.811C118.26 115.681 116.63 115.651 114.98 115.011C114.59 114.861 114.47 114.601 114.58 114.201C114.68 113.841 114.75 113.481 114.86 113.021C115.18 113.111 115.46 113.221 115.74 113.261C116.48 113.351 117.22 113.431 117.97 113.451C118.46 113.461 118.78 113.161 118.92 112.661C119.06 112.121 118.77 111.791 118.38 111.561C117.97 111.321 117.51 111.171 117.08 110.961C116.62 110.741 116.13 110.551 115.72 110.251C114.13 109.101 114.22 106.811 115.89 105.771C116.94 105.121 119.05 104.691 120.89 105.661L120.88 105.671Z" fill="#3C4A5B"/>
<path d="M14.37 105.481C14.18 106.201 14.04 106.721 13.88 107.321C13.51 107.241 13.22 107.181 12.93 107.131C11.65 106.881 10.44 106.971 9.54 108.031C8.58 109.161 8.55 110.511 9.05 111.811C9.44 112.831 10.32 113.431 11.44 113.471C12.22 113.501 13 113.401 13.88 113.361C13.97 113.871 14.08 114.421 14.17 114.941C12.37 115.831 10.68 115.651 9.03 114.891C7.21 114.051 6.19 112.081 6.38 109.981C6.72 106.251 9.8 104.901 12.45 105.111C13.05 105.161 13.63 105.341 14.36 105.491L14.37 105.481Z" fill="#3C4A5B"/>
<path d="M133.95 105.36V107.15C133.45 107.15 133.02 107.15 132.59 107.15C132.19 107.15 131.78 107.15 131.24 107.15C131.2 108.56 131.22 109.87 131.22 111.19C131.22 112.51 131.22 113.83 131.22 115.22H129V107.17H126.35V105.41C127.07 105.17 132.54 105.11 133.97 105.35L133.95 105.36Z" fill="#3C4A5B"/>
<path d="M38 107.121V115.211H35.7V107.181H33.09V105.401C33.92 105.161 39.54 105.151 40.68 105.401V107.131H38V107.121Z" fill="#3C4A5B"/>
<path d="M206.12 115.21V105.33H208.36C208.47 108.6 208.42 111.87 208.38 115.21H206.12Z" fill="#3C4A5B"/>
<path d="M122.84 115.231V105.311H125.04C125.06 105.591 125.08 105.811 125.08 106.041C125.11 108.801 125.13 111.561 125.17 114.331C125.18 115.201 125.1 115.321 124.19 115.331C123.92 115.331 123.64 115.321 123.37 115.311C123.24 115.311 123.1 115.281 122.84 115.241V115.231Z" fill="#3C4A5B"/>
<path d="M154.79 115.24H152.74C152.51 114.42 152.47 106.49 152.68 105.34C153.36 105.13 154.05 105.25 154.79 105.3V115.23V115.24Z" fill="#3C4A5B"/>
<path d="M193.83 115.23H191.68V105.35C192.38 105.11 193.07 105.24 193.83 105.33V115.22V115.23Z" fill="#3C4A5B"/>
<path d="M84.57 105.289H86.71V115.259H84.57V105.289Z" fill="#3C4A5B"/>
<path d="M51.18 75.7694C49.63 75.9494 48.94 77.2794 47.66 77.9394C47.72 77.7194 47.75 77.5694 47.81 77.3594C47.13 77.3594 46.78 77.9794 46.15 78.1394C46.22 77.9394 46.28 77.7694 46.36 77.5694C45.89 77.1794 45.48 77.8094 44.94 77.6594C45.18 77.3994 45.39 77.1694 45.6 76.9394C45.58 76.8894 45.56 76.8394 45.54 76.7894C44.99 76.8994 44.45 77.0094 43.67 77.1594C43.92 76.9294 44.02 76.8494 44.11 76.7594C44.2 76.6694 44.34 76.5694 44.36 76.4594C44.38 76.3094 44.31 76.1394 44.27 75.9694C45.85 75.6694 47.43 75.3894 48.99 75.0594C49.37 74.9794 49.72 74.7494 50.1 74.5994C50.27 74.5294 50.46 74.4494 50.64 74.4494C51.28 74.4694 51.63 74.2794 51.74 73.7094C51.84 73.2194 51.86 72.7094 51.93 72.0294C51.48 72.2394 51.15 72.3894 50.83 72.5394C48.25 73.7094 45.56 74.5894 42.7 74.3894C39.9 74.1894 37.12 73.7494 34.5 72.6294C32.74 71.8794 31.23 70.7794 30.05 69.2494C29.3 68.2694 28.81 67.2094 28.87 65.9394C28.89 65.5294 28.87 65.1194 28.87 64.6494C26.45 63.9294 24.98 61.8494 22.87 60.7294C22.76 60.6694 22.68 60.5494 22.51 60.3994C22.77 60.1794 23 60.0094 23.21 59.8094C23.88 59.1994 24.42 58.5094 24.49 57.5494C24.57 56.3994 24.36 55.4194 22.95 54.9594C23.3 54.7594 23.5 54.5894 23.74 54.5094C25.84 53.7994 27.95 53.0994 30.06 52.3994C33.34 51.2994 36.61 50.1994 39.88 49.0794C40.51 48.8594 41.05 48.8994 41.63 49.2494C42.33 49.6794 43.08 50.0094 43.82 50.3694C48.07 52.4294 52.46 54.1894 56.61 56.4394C57.06 56.6794 57.52 56.9194 57.95 57.1894C59.36 58.0694 59.97 59.3894 59.95 60.9994C59.93 62.2094 59.66 63.3694 59.15 64.4794C58.88 65.0794 58.44 65.4394 57.85 65.7194C56.77 66.2194 55.72 66.7994 54.65 67.3394C54.17 67.5794 53.9 67.9094 53.99 68.4794C54.02 68.6794 53.97 68.8894 53.99 69.0894C54.11 69.9694 53.8 70.6394 53.03 71.0794C52.48 71.3994 52.32 71.8594 52.39 72.4594C52.42 72.7294 52.39 73.0094 52.44 73.2794C52.55 74.0094 52.38 74.5394 51.6 74.7894C51.17 74.9194 50.91 75.2394 51.16 75.7594L51.18 75.7694ZM24.39 60.3194C25.11 60.9194 25.66 61.4294 26.26 61.8794C26.66 62.1794 27.12 62.4194 27.56 62.6694C29.01 63.5094 30.55 64.2094 31.88 65.2094C33.12 66.1494 34.36 67.0294 35.75 67.7094C36.49 68.0694 37.18 68.5194 37.92 68.8794C39.36 69.5894 40.81 70.2694 42.28 70.9294C42.56 71.0594 42.96 71.0794 43.26 70.9994C43.98 70.7894 44.89 69.2294 44.6 68.5594C44.31 67.8894 43.91 67.1094 43.32 66.7594C41.87 65.8694 40.29 65.1894 38.75 64.4394C37.77 63.9594 36.74 63.5794 35.79 63.0394C33.48 61.7194 31.39 60.0094 28.87 59.0494C28.52 58.9194 28.23 58.6494 27.9 58.4694C27.11 58.0394 26.31 57.6394 25.29 57.0994C25.55 58.4894 25.54 59.6094 24.39 60.3094V60.3194ZM52.47 67.5294C52.81 67.3994 53.06 67.3294 53.29 67.1994C54.51 66.5094 55.7 65.7594 56.95 65.1194C58.81 64.1694 59.27 62.5494 59.23 60.6594C59.22 60.0894 59 59.5994 58.43 59.2294C56.64 60.1194 54.83 61.0094 53.04 61.9194C52.85 62.0094 52.64 62.2494 52.62 62.4394C52.43 64.0894 52.39 65.7494 52.48 67.5294H52.47ZM45.05 66.3694C45.32 67.2594 45.68 68.0194 45.75 68.7994C45.81 69.5694 45.58 70.3594 45.44 71.3794C47.65 70.1594 49.66 69.0494 51.59 67.9794V62.7494C49.2 63.8394 47.08 65.0894 45.05 66.3594V66.3694Z" fill="#3C4A5B"/>
</svg>
