<svg width="256" height="142" viewBox="0 0 256 142" fill="none" xmlns="http://www.w3.org/2000/svg">
<g clip-path="url(#clip0_53_2)">
<path fill-rule="evenodd" clip-rule="evenodd" d="M29.7542 40H39.0044V92.4183H34.3793C31.8098 92.4183 29.6514 91.9044 29.4458 91.2877C29.343 90.671 28.1097 90.7738 26.1568 91.8016C24.5123 92.7266 20.915 93.4461 18.1399 93.4461C15.4676 93.4461 11.5619 92.6238 9.50632 91.596C7.4507 90.671 4.57284 87.9987 3.1339 85.8403C1.28385 83.0652 0.358819 79.9818 0.0504764 76.0761C-0.155085 72.0676 0.256038 69.2926 1.48941 66.723C2.41444 64.7702 4.26449 61.9951 5.49786 60.7617C6.62845 59.4256 8.88963 57.6783 10.5341 56.8561C12.0758 56.0338 15.4676 55.4171 18.2427 55.4171C20.915 55.5199 24.204 56.1366 25.6429 56.9589C27.0819 57.7811 28.5208 58.3978 29.0347 58.5006C29.4458 58.5006 29.7542 54.3893 29.7542 49.2503V40ZM9.71188 73.5066C8.88963 78.3373 8.99241 78.6456 12.0758 81.8318C14.6454 84.5041 16.2899 85.2236 19.2705 85.2236C22.1484 85.2236 23.7929 84.6069 25.7457 82.4485C27.2874 80.804 28.7264 78.3373 29.1375 76.6928C29.4458 75.1511 29.1375 72.376 28.418 70.5259C27.6985 68.7787 25.9513 66.4147 24.5123 65.3869C23.1762 64.4619 20.6067 63.6396 18.7566 63.6396C16.701 63.6396 14.5426 64.5646 13.1037 66.0036C11.6647 67.4425 10.3286 70.4232 9.71188 73.5066ZM235.727 55.4171C238.605 55.4171 242.305 56.1366 244.052 57.0616C246.005 58.0894 247.239 58.1922 247.341 57.5755C247.547 56.9589 249.705 56.4449 256.9 56.4449V92.4183H252.275C249.705 92.4183 247.65 91.9044 247.65 91.3905C247.65 90.7738 246.314 91.0821 244.566 91.9044C242.819 92.7266 239.119 93.4461 236.344 93.4461C233.466 93.4461 229.971 92.8294 228.327 92.0071C226.785 91.2877 224.318 89.2321 222.674 87.382C221.132 85.6347 219.385 82.243 218.768 79.7762C218.152 77.4123 217.946 73.6094 218.254 71.3482C218.563 69.087 220.104 65.5925 221.543 63.6396C223.085 61.6868 225.757 59.0145 227.402 57.7811C229.766 56.0338 231.924 55.4171 235.727 55.4171ZM227.505 71.6565C227.094 73.1982 227.094 75.9733 227.505 77.7206C227.813 79.6734 229.252 81.9346 230.896 83.168C232.541 84.4014 235.316 85.3264 237.063 85.2236C238.913 85.2236 241.586 84.4014 243.127 83.3735C244.566 82.4485 246.211 79.9818 246.725 78.0289C247.341 76.0761 247.547 73.1982 247.239 71.5537C246.93 70.012 245.183 67.6481 243.538 66.2091C241.483 64.5646 239.222 63.6396 236.858 63.6396C234.288 63.6396 232.438 64.4619 230.691 66.2091C229.252 67.6481 227.813 70.012 227.505 71.5537V71.6565ZM170.564 60.7617C172.517 60.7617 176.011 61.584 178.273 62.6118C180.534 63.6396 183.617 65.798 185.159 67.4425C186.701 69.087 188.448 71.6565 188.962 73.1982C189.578 74.8427 190.092 76.7956 190.092 77.6178C190.092 78.7484 188.962 79.1595 186.187 79.1595C182.898 79.2623 182.178 78.7484 180.842 75.9733C180.02 74.226 178.17 72.0676 176.731 71.2454C175.292 70.3204 172.722 69.6009 170.975 69.4981C169.228 69.3953 166.453 70.1148 164.911 70.9371C163.369 71.7593 161.417 73.7121 160.697 75.2539C159.875 76.8984 159.258 79.7762 159.258 81.7291C159.258 83.6819 160.183 86.6625 161.314 88.4098C162.547 90.2599 164.911 91.9044 167.172 92.6238C170.358 93.5489 171.797 93.4461 174.881 92.1099C177.45 91.0821 179.403 89.2321 180.534 86.8681C182.178 83.6819 182.795 83.2708 186.187 83.2708C188.962 83.2708 190.092 83.6819 190.092 84.8125C190.092 85.6347 189.578 87.5876 188.962 89.1293C188.448 90.7738 186.701 93.3433 185.159 94.885C183.617 96.5295 180.637 98.6879 178.478 99.8185C176.423 100.846 172.825 101.771 170.564 101.771C168.303 101.771 164.911 101.052 163.061 100.127C161.314 99.2018 158.23 97.0434 156.38 95.1934C154.222 93.1377 152.475 90.0543 151.55 86.5598C150.213 81.9346 150.213 80.4957 151.55 75.7678C152.475 72.376 154.222 69.1898 156.38 67.1342C158.23 65.2841 161.417 63.1257 163.369 62.3035C165.322 61.4812 168.611 60.7617 170.564 60.7617ZM87.3115 45.2418H97.5896V56.5477H108.895V64.7702H97.5896V73.5066C97.5896 80.4957 97.8979 82.5513 99.3368 83.8875C100.365 84.8125 102.112 85.2236 103.243 84.9153C104.373 84.6069 106.018 84.093 106.84 83.7847C107.97 83.3736 108.793 84.2986 109.615 87.0737C110.746 90.4654 110.746 91.1849 109.101 92.3155C108.176 93.035 104.681 93.5489 101.392 93.5489C96.6645 93.5489 94.9173 93.035 92.4505 90.9793C90.7032 89.5404 88.956 86.6625 88.3393 84.5041C87.8254 82.4485 87.3115 77.1039 87.3115 64.7702H83.7141C80.2196 64.7702 80.1168 64.6674 80.1168 60.659C80.1168 56.6505 80.2196 56.5477 87.3115 56.5477V45.2418ZM195.231 45.2418H204.482V56.5477H215.788V63.7424H204.482V72.6843C204.379 80.4957 204.687 82.0374 206.537 83.7847C208.49 85.6347 209.107 85.7375 215.788 83.2708L216.918 87.0737C217.946 90.4654 217.843 91.1849 216.199 92.3155C215.068 93.035 212.087 93.5489 209.312 93.5489C206.64 93.5489 203.351 93.035 201.912 92.5211C200.473 92.0071 198.418 89.9515 197.287 88.1015C195.643 85.4292 195.231 82.9624 195.231 64.7702L191.326 64.4619C187.728 64.2563 187.523 64.0507 187.009 56.5477H195.231V45.2418ZM60.794 55.5199C63.5691 55.5199 66.9609 56.1366 68.6054 56.9589C70.1471 57.7811 72.4082 59.5284 73.6416 60.8645C74.875 62.0979 76.6223 64.9758 77.4445 67.0314C78.3695 69.1898 79.089 72.2732 79.089 77.1039H65.7275C54.5244 77.1039 52.366 77.3095 52.366 78.6456C52.366 79.4679 53.4966 81.3179 54.9355 82.7569C56.7855 84.6069 58.6356 85.3264 61.4107 85.3264C63.8774 85.3264 65.933 84.5041 67.2692 83.168C68.9137 81.5235 70.1471 81.2152 73.7444 81.6263C76.1084 81.9346 78.0612 82.7569 78.0612 83.2708C78.0612 83.7847 76.8278 85.7375 75.2861 87.4848C73.6416 89.3348 71.0721 91.3905 69.3248 92.3155C67.5775 93.1377 63.9802 93.8572 61.1023 93.8572C58.3273 93.8572 54.6271 93.1377 52.8799 92.2127C51.2354 91.3905 48.7686 89.5404 47.638 88.2043C46.4047 86.9709 44.9657 84.9153 44.4518 83.7847C43.8351 82.6541 43.1157 79.9818 42.7046 77.8234C42.3962 75.7678 42.6018 72.0676 43.2185 69.6009C43.8351 67.2369 45.3769 63.8452 46.6102 62.2007C47.9464 60.4534 50.5159 58.295 52.4687 57.37C54.4216 56.3422 58.1217 55.5199 60.8968 55.5199H60.794ZM51.7493 69.3953C63.8774 69.9092 67.7831 69.7037 68.297 69.3953C68.8109 69.087 68.0914 67.7508 66.6525 66.3119C64.9052 64.5646 62.9524 63.7424 60.6912 63.7424C58.43 63.7424 56.4772 64.6674 54.5244 66.5175L51.7493 69.3953ZM129.863 55.8283C134.18 56.0338 137.057 56.8561 139.421 58.3978C141.169 59.6312 143.533 62.4062 144.663 64.5646C145.691 66.723 146.822 70.4232 147.849 77.1039H133.974C126.368 77.1039 120.099 77.4123 120.099 77.6178C120.099 77.9262 120.612 79.2623 121.332 80.4957C121.949 81.7291 123.182 83.3736 124.107 84.093C125.032 84.7097 127.396 85.3264 129.349 85.4292C131.404 85.4292 134.18 84.6069 135.824 83.3735C137.777 81.8318 139.627 81.4207 142.196 81.7291C144.458 82.1402 145.794 82.8596 145.794 83.7847C145.794 84.7097 144.149 86.9709 142.196 88.9237C139.627 91.4932 137.16 92.8294 133.768 93.4461C130.788 94.0628 127.19 93.96 124.724 93.4461C122.463 92.8294 119.482 91.596 118.043 90.5682C116.604 89.6432 114.343 86.5598 113.007 83.7847C111.054 79.7762 110.643 77.515 110.951 72.9927C111.259 69.087 112.184 66.1064 113.932 63.5368C115.371 61.4812 118.146 58.8089 120.099 57.6783C122.874 55.931 125.032 55.5199 129.863 55.8283ZM121.126 69.3953C121.435 69.7037 125.34 69.8065 129.863 69.7037L138.085 69.3953C133.46 64.7702 131.302 63.7424 129.452 63.7424C127.704 63.7424 125.135 64.873 123.49 66.3119C121.949 67.6481 120.818 68.9842 121.126 69.3953ZM169.125 74.0205C170.256 74.0205 170.975 75.0483 171.181 77.1039C171.386 79.5707 172.106 80.3929 174.572 81.0096C176.32 81.4207 177.656 82.3457 177.656 83.0652C177.656 83.7847 176.731 85.3264 175.6 86.3542C174.47 87.5876 172.208 88.4098 170.461 88.4098C168.714 88.4098 166.453 87.5876 165.322 86.3542C164.192 85.2236 163.267 82.9624 163.267 81.2151C163.267 79.5707 164.192 77.3095 165.322 76.0761C166.453 74.9455 168.2 74.0205 169.125 74.0205Z" fill="#3C4A5B"/>
</g>
<defs>
<clipPath id="clip0_53_2">
<rect width="256" height="142" fill="white"/>
</clipPath>
</defs>
</svg>
