<svg width="256" height="142" viewBox="0 0 256 142" fill="none" xmlns="http://www.w3.org/2000/svg">
<path d="M165.96 30.3186C165.64 35.0786 165.32 39.8886 164.94 45.6586C181.7 40.2586 197.8 35.0786 214.15 29.8086C213.22 33.9586 212.35 37.8686 211.48 41.7686C211.35 41.7586 211.22 41.7386 211.08 41.7286C211.19 39.1386 211.31 36.5486 211.44 33.4586C193.7 37.6186 177.17 44.1886 160.76 51.2186C190.91 46.4086 221.16 42.9086 251.73 41.3086C250.16 48.2986 248.64 55.0786 247.07 62.0886V47.2286C242.54 47.4886 237.92 47.5886 233.34 48.0286C197.91 51.4186 163.68 60.3887 129.72 70.5487C128.66 70.8687 127.53 71.0687 126.57 71.5787C122.04 73.9587 118.8 72.0786 116.02 68.5286C114.53 66.6186 113.06 64.6987 111.53 62.7187C129.75 51.8687 147.74 41.1586 165.94 30.3286L165.96 30.3186ZM135.88 53.8586C136.43 54.0986 136.65 54.2886 136.8 54.2386C145.57 51.5686 154.35 48.8986 163.09 46.1186C163.7 45.9186 164.47 44.8786 164.45 44.2486C164.37 40.9586 164.06 37.6786 163.8 33.9186C153.45 39.3786 144.65 46.4086 135.88 53.8486V53.8586Z" fill="#444242"/>
<path d="M52.93 84.6686V72.0586H60.87V111.219H53.58C53.46 110.149 53.33 109.099 53.21 108.069C52.94 108.069 52.62 107.979 52.54 108.079C49.92 111.459 46.56 112.939 42.35 111.789C38.1 110.629 35.94 107.319 35.35 103.349C34.77 99.4786 34.62 95.4187 35.1 91.5387C36.19 82.5887 44.77 78.1887 52.93 84.6587V84.6686ZM53.04 96.6786C52.91 94.9786 52.89 93.0886 52.58 91.2486C52.23 89.1286 51.03 87.0887 48.75 87.5087C47.11 87.8087 44.67 89.3687 44.44 90.6887C43.77 94.5187 43.79 98.5186 44.04 102.419C44.18 104.659 45.99 106.669 48.32 106.009C50.01 105.529 51.69 103.719 52.55 102.079C53.3 100.659 52.91 98.6286 53.03 96.6786H53.04Z" fill="#444242"/>
<path d="M148.75 111.38H141.47C141.2 110.27 140.92 109.14 140.54 107.56C138.02 110.62 134.98 112.24 131.15 112.15C126.54 112.04 123.26 109.77 122.41 106C121.47 101.79 123.24 97.6002 127.33 95.8402C130.02 94.6802 133.05 94.3102 135.95 93.6902C137.33 93.3902 138.76 93.3302 140.2 93.1502C140.72 90.5402 140.53 88.3002 138.01 87.3702C135.43 86.4202 133.1 86.9802 131.32 89.4702C130.75 90.2802 129.39 90.8202 128.34 90.9202C126.74 91.0702 125.1 90.7402 123.21 90.5802C123.59 87.3502 124.93 85.1002 127.54 83.7102C132.83 80.8902 138.38 80.7802 143.91 82.7202C146.83 83.7402 148.67 86.0002 148.7 89.2402C148.77 96.5002 148.72 103.76 148.72 111.36L148.75 111.38ZM141.09 98.3702C140.68 97.9902 140.27 97.6102 139.85 97.2302C137.73 97.9602 135.4 98.3602 133.55 99.5302C132.4 100.26 131.44 102.1 131.37 103.49C131.32 104.54 132.71 106.43 133.67 106.57C135.19 106.79 137.58 106.38 138.33 105.32C139.73 103.35 140.22 100.73 141.09 98.3802V98.3702Z" fill="#444242"/>
<path d="M31.8206 98.1092H13.8506C13.0106 102.249 14.0906 104.679 17.0006 105.799C20.1706 107.009 22.1306 105.949 24.6106 101.529C26.7806 101.699 29.0506 101.869 31.3506 102.049C30.2806 109.089 23.9706 113.109 16.1306 112.029C8.15054 110.929 3.30054 103.679 4.39054 94.4792C5.42054 85.8292 12.0306 80.5992 20.5906 81.6592C27.9606 82.5792 32.7106 89.3592 31.8106 98.1092H31.8206ZM23.4606 93.2292C23.3406 88.9992 21.5206 86.8392 18.4906 86.9792C15.3806 87.1192 13.5006 89.5592 13.8506 93.2292H23.4606Z" fill="#444242"/>
<path d="M65.3298 82.3988H73.0498C73.0498 86.0888 73.0498 89.7887 73.0498 93.4987C73.0498 95.9287 73.0398 98.3587 73.0698 100.799C73.0998 103.149 73.4698 105.339 76.4598 105.559C78.9898 105.749 81.3298 103.659 81.4398 100.849C81.6098 96.5387 81.4798 92.2287 81.5498 87.9187C81.6498 81.4987 80.4298 82.2888 87.4198 82.2188C88.0798 82.2188 88.7298 82.3087 89.6798 82.3787V111.259H82.5598C82.3698 110.269 82.1498 109.149 81.7998 107.319C79.3498 111.299 75.9898 112.459 71.9998 112.119C68.2598 111.799 65.6198 109.999 65.4598 106.329C65.1098 98.4287 65.3498 90.5087 65.3498 82.4087L65.3298 82.3988Z" fill="#444242"/>
<path d="M120.23 92.6221C117.85 92.7621 115.49 92.9021 113.05 93.0521C112.69 92.1321 112.6 91.2321 112.1 90.7721C110.88 89.6521 109.51 88.0021 108.13 87.9321C106.73 87.8621 104.57 89.0721 103.92 90.3321C101.85 94.3321 101.97 98.7521 103.68 102.842C104.95 105.902 109.77 106.532 111 103.712C113.24 98.5921 116.79 100.562 120.26 100.862C119.58 106.752 116.47 110.342 111.01 111.712C105.04 113.202 99.02 111.222 95.91 106.752C92.29 101.552 92.19 92.8621 95.67 87.5621C98.84 82.7321 105.2 80.3821 111.19 81.8221C116.32 83.0521 119.69 86.9721 120.22 92.6321L120.23 92.6221Z" fill="#444242"/>
<path d="M203.65 85.7407C203.65 82.8607 203.51 79.9707 203.7 77.1007C203.81 75.4807 202.62 73.0107 205.48 72.7307C205.84 72.7007 206.88 75.4907 206.9 76.9807C207.03 87.1407 207.01 97.3007 206.9 107.461C206.89 108.661 206.08 109.851 205.64 111.041C205.02 110.031 204.41 109.021 203.78 108.011C203.62 107.751 203.43 107.501 203.07 107.001C202.34 107.561 201.62 108.011 201.04 108.591C196.4 113.191 191.07 113.091 186.65 108.281C181.19 102.341 181.7 89.6207 187.61 84.2807C191.21 81.0307 196.92 81.0207 200.65 84.2807C201.28 84.8307 201.92 85.3607 202.56 85.9007C202.92 85.8407 203.28 85.7907 203.64 85.7307L203.65 85.7407ZM203.68 95.5107C203.58 94.4607 203.55 92.6807 203.23 90.9507C202.61 87.5407 199.57 84.7107 196.25 84.2907C192.89 83.8607 189.55 85.8107 188.12 89.2907C186.11 94.2107 186.32 99.2007 188.09 104.141C189.84 109.021 195.08 110.601 199.4 107.741C203.69 104.901 203.57 100.561 203.66 95.5107H203.68Z" fill="#444242"/>
<path d="M177.4 104.858C174.52 109.998 169.5 112.638 164.43 111.828C158.48 110.878 154.81 107.268 153.7 101.238C152.92 97.0381 152.82 92.8982 154.82 88.9282C157.56 83.4982 163.23 80.7381 168.88 82.1381C174.45 83.5181 178.42 88.8082 178.04 94.7182C177.99 95.4282 176.42 96.5782 175.52 96.6082C170.66 96.7982 165.79 96.6782 160.92 96.6982C157.08 96.7182 156.69 97.3082 157.21 100.968C157.79 105.048 160.03 107.758 163.86 108.808C167.68 109.858 171.13 108.808 173.58 105.488C174.64 104.058 175.63 103.128 177.4 104.858ZM165.68 94.2982C165.68 94.2982 165.68 94.3182 165.68 94.3282C167.67 94.3282 169.66 94.2882 171.66 94.3282C174.17 94.3882 174.68 93.0182 174.24 90.8882C173.36 86.6281 169.95 83.9282 165.66 84.1482C161.8 84.3382 157.59 88.2082 157.49 91.9782C157.47 92.7282 158.63 94.0682 159.39 94.1882C161.45 94.4982 163.58 94.2982 165.68 94.2982Z" fill="#444242"/>
<path d="M232.5 105.82C231.34 107.13 230.64 107.81 230.07 108.58C227.93 111.52 224.9 112.35 221.57 111.79C218.32 111.25 215.64 109.34 214.94 106.05C214.2 102.53 214.11 98.85 213.94 95.24C213.79 91.93 213.79 88.6 214 85.29C214.05 84.41 215.09 83.6 215.68 82.75C216.27 83.64 217.33 84.5 217.36 85.41C217.53 90.71 217.42 96.02 217.49 101.33C217.55 105.63 219.09 108.08 222.09 108.86C225.5 109.76 229.42 108.3 230.98 104.74C232.13 102.12 232.47 99.04 232.68 96.14C232.93 92.74 232.5 89.28 232.7 85.87C232.76 84.88 233.97 83.97 234.65 83.02C235.15 83.97 236.07 84.92 236.09 85.88C236.21 93.29 236.2 100.7 236.09 108.11C236.08 109.1 235.26 110.08 234.82 111.07C234.24 110.2 233.59 109.36 233.11 108.44C232.83 107.91 232.82 107.24 232.5 105.82Z" fill="#444242"/>
</svg>
