<svg width="256" height="142" viewBox="0 0 256 142" fill="none" xmlns="http://www.w3.org/2000/svg">
<path d="M165.96 30.3205C165.64 35.0805 165.32 39.8905 164.94 45.6605C181.7 40.2605 197.8 35.0805 214.15 29.8105C213.22 33.9605 212.35 37.8705 211.48 41.7705C211.35 41.7605 211.22 41.7405 211.08 41.7305C211.19 39.1405 211.31 36.5505 211.44 33.4605C193.7 37.6205 177.17 44.1905 160.76 51.2205C190.91 46.4105 221.16 42.9105 251.73 41.3105C250.16 48.3005 248.64 55.0805 247.07 62.0905V47.2305C242.54 47.4905 237.92 47.5905 233.34 48.0305C197.91 51.4205 163.68 60.3906 129.72 70.5506C128.66 70.8706 127.53 71.0706 126.57 71.5806C122.04 73.9606 118.8 72.0805 116.02 68.5305C114.53 66.6205 113.06 64.7006 111.53 62.7206C129.75 51.8706 147.74 41.1605 165.94 30.3305L165.96 30.3205ZM135.88 53.8605C136.43 54.1005 136.65 54.2905 136.8 54.2405C145.57 51.5705 154.35 48.9005 163.09 46.1205C163.7 45.9205 164.47 44.8805 164.45 44.2505C164.37 40.9605 164.06 37.6805 163.8 33.9205C153.45 39.3805 144.65 46.4105 135.88 53.8505V53.8605Z" fill="#3C4A5B"/>
<path d="M52.93 84.6705V72.0605H60.87V111.221H53.58C53.46 110.151 53.33 109.101 53.21 108.071C52.94 108.071 52.62 107.981 52.54 108.081C49.92 111.461 46.56 112.941 42.35 111.791C38.1 110.631 35.94 107.321 35.35 103.351C34.77 99.4805 34.62 95.4206 35.1 91.5406C36.19 82.5906 44.77 78.1906 52.93 84.6606V84.6705ZM53.04 96.6805C52.91 94.9805 52.89 93.0905 52.58 91.2505C52.23 89.1305 51.03 87.0906 48.75 87.5106C47.11 87.8106 44.67 89.3706 44.44 90.6906C43.77 94.5206 43.79 98.5205 44.04 102.421C44.18 104.661 45.99 106.671 48.32 106.011C50.01 105.531 51.69 103.721 52.55 102.081C53.3 100.661 52.91 98.6305 53.03 96.6805H53.04Z" fill="#3C4A5B"/>
<path d="M148.75 111.38H141.47C141.2 110.27 140.92 109.14 140.54 107.56C138.02 110.62 134.98 112.24 131.15 112.15C126.54 112.04 123.26 109.77 122.41 106C121.47 101.79 123.24 97.6002 127.33 95.8402C130.02 94.6802 133.05 94.3102 135.95 93.6902C137.33 93.3902 138.76 93.3302 140.2 93.1502C140.72 90.5402 140.53 88.3002 138.01 87.3702C135.43 86.4202 133.1 86.9802 131.32 89.4702C130.75 90.2802 129.39 90.8202 128.34 90.9202C126.74 91.0702 125.1 90.7402 123.21 90.5802C123.59 87.3502 124.93 85.1002 127.54 83.7102C132.83 80.8902 138.38 80.7802 143.91 82.7202C146.83 83.7402 148.67 86.0002 148.7 89.2402C148.77 96.5002 148.72 103.76 148.72 111.36L148.75 111.38ZM141.09 98.3702C140.68 97.9902 140.27 97.6102 139.85 97.2302C137.73 97.9602 135.4 98.3602 133.55 99.5302C132.4 100.26 131.44 102.1 131.37 103.49C131.32 104.54 132.71 106.43 133.67 106.57C135.19 106.79 137.58 106.38 138.33 105.32C139.73 103.35 140.22 100.73 141.09 98.3802V98.3702Z" fill="#3C4A5B"/>
<path d="M31.8201 98.1092H13.8501C13.0101 102.249 14.0901 104.679 17.0001 105.799C20.1701 107.009 22.1301 105.949 24.6101 101.529C26.7801 101.699 29.0501 101.869 31.3501 102.049C30.2801 109.089 23.9701 113.109 16.1301 112.029C8.15005 110.929 3.30005 103.679 4.39005 94.4792C5.42005 85.8292 12.0301 80.5992 20.5901 81.6592C27.9601 82.5792 32.7101 89.3592 31.8101 98.1092H31.8201ZM23.4601 93.2292C23.3401 88.9992 21.5201 86.8392 18.4901 86.9792C15.3801 87.1192 13.5001 89.5592 13.8501 93.2292H23.4601Z" fill="#3C4A5B"/>
<path d="M65.33 82.4007H73.05C73.05 86.0907 73.05 89.7907 73.05 93.5007C73.05 95.9307 73.04 98.3607 73.07 100.801C73.1 103.151 73.47 105.341 76.46 105.561C78.99 105.751 81.33 103.661 81.44 100.851C81.61 96.5407 81.48 92.2307 81.55 87.9207C81.65 81.5007 80.43 82.2907 87.42 82.2207C88.08 82.2207 88.73 82.3107 89.68 82.3807V111.261H82.56C82.37 110.271 82.15 109.151 81.8 107.321C79.35 111.301 75.99 112.461 72 112.121C68.26 111.801 65.62 110.001 65.46 106.331C65.11 98.4307 65.35 90.5107 65.35 82.4107L65.33 82.4007Z" fill="#3C4A5B"/>
<path d="M120.23 92.6202C117.85 92.7602 115.49 92.9002 113.05 93.0502C112.69 92.1302 112.6 91.2302 112.1 90.7702C110.88 89.6502 109.51 88.0002 108.13 87.9302C106.73 87.8602 104.57 89.0702 103.92 90.3302C101.85 94.3302 101.97 98.7502 103.68 102.84C104.95 105.9 109.77 106.53 111 103.71C113.24 98.5902 116.79 100.56 120.26 100.86C119.58 106.75 116.47 110.34 111.01 111.71C105.04 113.2 99.02 111.22 95.91 106.75C92.29 101.55 92.19 92.8602 95.67 87.5602C98.84 82.7302 105.2 80.3802 111.19 81.8202C116.32 83.0502 119.69 86.9702 120.22 92.6302L120.23 92.6202Z" fill="#3C4A5B"/>
<path d="M203.65 85.7407C203.65 82.8607 203.51 79.9707 203.7 77.1007C203.81 75.4807 202.62 73.0107 205.48 72.7307C205.84 72.7007 206.88 75.4907 206.9 76.9807C207.03 87.1407 207.01 97.3007 206.9 107.461C206.89 108.661 206.08 109.851 205.64 111.041C205.02 110.031 204.41 109.021 203.78 108.011C203.62 107.751 203.43 107.501 203.07 107.001C202.34 107.561 201.62 108.011 201.04 108.591C196.4 113.191 191.07 113.091 186.65 108.281C181.19 102.341 181.7 89.6207 187.61 84.2807C191.21 81.0307 196.92 81.0207 200.65 84.2807C201.28 84.8307 201.92 85.3607 202.56 85.9007C202.92 85.8407 203.28 85.7907 203.64 85.7307L203.65 85.7407ZM203.68 95.5107C203.58 94.4607 203.55 92.6807 203.23 90.9507C202.61 87.5407 199.57 84.7107 196.25 84.2907C192.89 83.8607 189.55 85.8107 188.12 89.2907C186.11 94.2107 186.32 99.2007 188.09 104.141C189.84 109.021 195.08 110.601 199.4 107.741C203.69 104.901 203.57 100.561 203.66 95.5107H203.68Z" fill="#3C4A5B"/>
<path d="M177.4 104.86C174.52 110 169.5 112.64 164.43 111.83C158.48 110.88 154.81 107.27 153.7 101.24C152.92 97.0401 152.82 92.9001 154.82 88.9301C157.56 83.5001 163.23 80.7401 168.88 82.1401C174.45 83.5201 178.42 88.8101 178.04 94.7201C177.99 95.4301 176.42 96.5801 175.52 96.6101C170.66 96.8001 165.79 96.6801 160.92 96.7001C157.08 96.7201 156.69 97.3101 157.21 100.97C157.79 105.05 160.03 107.76 163.86 108.81C167.68 109.86 171.13 108.81 173.58 105.49C174.64 104.06 175.63 103.13 177.4 104.86ZM165.68 94.3001C165.68 94.3001 165.68 94.3201 165.68 94.3301C167.67 94.3301 169.66 94.2901 171.66 94.3301C174.17 94.3901 174.68 93.0201 174.24 90.8901C173.36 86.6301 169.95 83.9301 165.66 84.1501C161.8 84.3401 157.59 88.2101 157.49 91.9801C157.47 92.7301 158.63 94.0701 159.39 94.1901C161.45 94.5001 163.58 94.3001 165.68 94.3001Z" fill="#3C4A5B"/>
<path d="M232.5 105.82C231.34 107.13 230.64 107.81 230.07 108.58C227.93 111.52 224.9 112.35 221.57 111.79C218.32 111.25 215.64 109.34 214.94 106.05C214.2 102.53 214.11 98.85 213.94 95.24C213.79 91.93 213.79 88.6 214 85.29C214.05 84.41 215.09 83.6 215.68 82.75C216.27 83.64 217.33 84.5 217.36 85.41C217.53 90.71 217.42 96.02 217.49 101.33C217.55 105.63 219.09 108.08 222.09 108.86C225.5 109.76 229.42 108.3 230.98 104.74C232.13 102.12 232.47 99.04 232.68 96.14C232.93 92.74 232.5 89.28 232.7 85.87C232.76 84.88 233.97 83.97 234.65 83.02C235.15 83.97 236.07 84.92 236.09 85.88C236.21 93.29 236.2 100.7 236.09 108.11C236.08 109.1 235.26 110.08 234.82 111.07C234.24 110.2 233.59 109.36 233.11 108.44C232.83 107.91 232.82 107.24 232.5 105.82Z" fill="#3C4A5B"/>
</svg>
