<svg width="256" height="142" viewBox="0 0 256 142" fill="none" xmlns="http://www.w3.org/2000/svg">
<path d="M142.38 21.9601C143.24 21.9601 143.68 21.9601 144.13 21.9601C151.31 21.9601 158.49 21.9401 165.67 21.9601C170.51 21.9801 174.28 24.0001 176.98 28.0301C178.03 29.6001 178.46 31.3601 178.58 33.1701C178.61 33.6301 177.96 34.1701 177.57 34.6201C177.27 34.9601 176.86 35.2201 176.51 35.5201C176.79 35.7901 177.03 36.1501 177.36 36.3301C178.51 36.9501 178.95 37.8501 178.96 39.1601C178.99 44.1601 179.18 49.1601 179.15 54.1701C179.13 56.7201 178.78 59.2701 178.55 61.8201C178.28 64.7001 176.68 66.7901 174.46 68.4901C172.87 69.7001 172.78 69.8301 174.36 70.9301C177.45 73.0801 178.44 76.1301 178.45 79.6401C178.48 89.7301 178.46 99.8301 178.45 109.92C178.45 112.24 179 114.34 180.76 115.99C182.06 117.2 182.48 117.13 183.39 115.62C184.26 114.16 184.58 112.6 184.69 110.91C184.89 107.75 185.23 104.58 185.69 101.44C185.92 99.8901 186.33 98.4601 186.27 96.7901C186.13 93.3501 186.69 89.8901 186.97 86.4301C187.19 83.7201 187.45 81.0101 187.65 78.2901C187.98 73.7601 188.27 69.2301 188.57 64.7001C188.76 61.7701 188.94 58.8501 189.15 55.9201C189.45 51.6001 189.78 47.2701 190.07 42.9501C190.34 38.8701 190.64 34.7901 190.82 30.7101C190.92 28.5201 190.4 26.4501 188.95 24.6801C188.69 24.3701 188.64 23.8801 188.5 23.4701C188.92 23.3701 189.35 23.1401 189.75 23.1801C191.37 23.3601 192.98 23.7901 194.6 23.8301C199.13 23.9401 203.67 24.1301 208.15 23.0601C209.17 22.8201 210.3 22.9101 211.37 22.9701C212.68 23.0501 213.34 23.9101 212.67 24.9901C210.35 28.7501 211.74 32.7301 211.77 36.6201C211.77 38.1001 211.98 39.5801 212.08 41.0701C212.41 45.9701 212.72 50.8801 213.05 55.7801C213.39 60.7201 213.72 65.6701 214.1 70.6101C214.55 76.3701 215.05 82.1301 215.51 87.9001C215.79 91.3201 216.04 94.7301 216.32 98.1501C216.73 103.09 217.05 108.04 217.65 112.95C217.81 114.24 218.86 115.42 219.47 116.67C219.67 117.08 220.01 117.67 219.86 117.95C219.68 118.28 219.05 118.53 218.6 118.54C213.33 118.66 208.07 118.74 202.8 118.8C202.42 118.8 201.89 118.67 201.72 118.41C201.59 118.21 201.82 117.64 202.04 117.35C203.83 115.11 204.41 112.63 203.93 109.79C203.67 108.26 203.72 106.66 203.79 105.1C203.9 102.69 203.23 101.92 200.83 101.92C198.13 101.92 197.26 102.71 197.15 105.39C197.03 108.23 196.86 111.07 196.95 113.91C196.99 115.14 197.62 116.36 198.02 117.58C198.31 118.45 198.04 118.81 197.12 118.82C193.6 118.88 190.07 118.99 186.55 119.03C185.48 119.04 184.37 119.03 183.34 118.76C178.72 117.57 174.01 118.21 169.35 118.06C168.11 118.02 166.86 118.03 165.62 118.06C164.81 118.08 164.46 117.75 164.54 116.96C164.72 115.15 164.92 113.35 165.09 111.54C165.25 109.81 165.5 108.09 165.51 106.36C165.56 97.6701 165.54 88.9801 165.53 80.2901C165.53 77.4901 164.07 75.8001 161.41 75.4001C159.98 75.1801 159.3 75.6901 159.12 77.1101C159.07 77.5201 159.08 77.9401 159.08 78.3501C159.08 89.4401 159.09 100.53 159.05 111.62C159.05 113.4 159.48 114.95 160.55 116.36C160.79 116.68 161.02 117.28 160.88 117.54C160.72 117.83 160.13 118.02 159.72 118.03C154.83 118.14 149.93 118.24 145.04 118.27C144.47 118.27 143.65 118.08 143.4 117.69C143.19 117.37 143.56 116.55 143.85 116.07C145.01 114.19 145.62 112.19 145.61 109.97C145.59 101.82 145.58 93.6701 145.61 85.5201C145.67 68.3501 145.78 51.1901 145.84 34.0201C145.84 32.2001 145.92 30.3401 145.53 28.5901C145.17 26.9401 144.26 25.4101 143.55 23.8401C143.3 23.3001 142.94 22.8101 142.44 21.9601H142.38ZM158.77 58.7101C158.86 58.7101 158.94 58.7101 159.03 58.7101C159.03 59.9901 159.05 61.2701 159.03 62.5501C159.01 63.4801 159.43 63.9701 160.34 64.2101C162.46 64.7801 164.47 63.8401 165.13 61.6001C165.55 60.1601 165.66 58.6001 165.7 57.0901C165.84 52.1401 165.9 47.1901 165.94 42.2301C165.95 41.0801 165.87 39.9201 165.68 38.7801C165.24 36.1101 163.83 34.9101 161.14 34.7801C159.24 34.6901 158.79 35.1101 158.79 37.0301C158.79 44.2501 158.79 51.4801 158.79 58.7001L158.77 58.7101ZM198.05 89.4801C198.05 89.4801 198.09 89.4801 198.1 89.4801C198.1 89.6001 198.09 89.7301 198.08 89.8501C197.95 91.3901 198.3 91.7301 200.22 91.9401C202.22 92.1601 203.51 91.5901 203.7 90.3901C203.72 90.2701 203.72 90.1401 203.71 90.0201C203.62 89.0301 203.51 88.0501 203.42 87.0701C202.88 81.1601 202.36 75.2501 201.8 69.3401C201.68 68.0701 201.47 66.8001 201.24 65.5501C201.18 65.2501 200.84 65.0001 200.63 64.7301C200.45 65.0101 200.14 65.2701 200.11 65.5601C199.9 67.4401 199.74 69.3301 199.58 71.2201C199.07 77.3001 198.56 83.3901 198.05 89.4701V89.4801ZM210.86 65.7801C210.74 65.6601 210.61 65.5401 210.49 65.4201C210.1 65.6001 209.7 65.7601 209.33 65.9801C208.26 66.6201 208.05 66.4901 207.76 65.3201C207.66 64.9001 207.15 64.2501 206.88 64.2701C206.17 64.3401 205.45 64.6601 204.84 65.0401C204.73 65.1101 204.99 66.1301 205.33 66.4501C206.66 67.7401 206.84 68.4401 206.14 70.1801C205.99 70.5601 206.04 71.0101 206 71.4301C206.46 71.3601 207 71.4301 207.37 71.2101C209.5 69.9801 209.69 67.5901 210.85 65.7701L210.86 65.7801ZM209.03 40.8101C208.96 40.7201 208.89 40.6401 208.82 40.5501C208.75 40.1501 208.71 39.7301 208.59 39.3401C208.15 37.8901 207.38 37.6101 206.27 38.6301C205.56 39.2801 204.97 40.1101 204.48 40.9501C204.3 41.2501 204.54 42.1901 204.67 42.2101C205.6 42.3401 206.61 42.4901 207.48 42.2501C208.08 42.0901 208.52 41.3101 209.02 40.8101H209.03ZM210.55 100.27C211.65 100.15 212.62 99.5801 213.08 98.5701C213.33 98.0301 213.19 97.0401 212.82 96.5501C212.23 95.7701 211.3 95.9401 210.74 96.2601C210.67 97.6401 210.62 98.8301 210.55 100.26V100.27ZM196.95 39.8701C195.64 39.8401 194.91 40.5301 194.87 41.5701C194.85 42.2401 195.03 42.7001 195.81 42.7201C197.12 42.7601 198.35 42.0501 198.31 41.2401C198.26 40.2701 197.61 39.9201 196.95 39.8701ZM206.96 91.1701C206.96 92.0301 208.17 93.1301 209.2 93.0601C209.45 93.0401 209.86 92.5901 209.88 92.3201C209.97 90.8401 209.35 89.8501 208.42 89.8701C207.6 89.8901 206.97 90.2101 206.96 91.1701ZM190.4 114.96C190.52 115.13 190.73 115.66 191.09 115.83C191.35 115.95 191.94 115.66 192.2 115.38C192.7 114.85 193.13 114.22 193.48 113.57C193.59 113.38 193.43 112.82 193.24 112.73C192.09 112.18 190.4 113.34 190.4 114.96ZM189.19 107.52C189.11 107.56 189.04 107.6 188.96 107.65C189.2 107.96 189.45 108.54 189.67 108.53C190.08 108.51 190.63 108.23 190.83 107.89C191.43 106.87 191.03 105.9 190.39 105.02C190.28 104.86 189.94 104.73 189.77 104.78C189.6 104.83 189.41 105.12 189.38 105.32C189.28 106.05 189.24 106.79 189.18 107.52H189.19ZM193.99 102.8C193.4 102.41 193.08 102.13 192.72 102.02C192.6 101.98 192.15 102.54 192.19 102.6C192.41 102.92 192.69 103.23 193.03 103.4C193.16 103.46 193.49 103.13 194 102.81L193.99 102.8Z" fill="#3C4A5B"/>
<path d="M128.91 76.2593C125.9 73.3993 122.36 73.6193 118.87 73.6093C117.84 73.6093 117.4 74.0093 117.4 75.0993C117.43 84.7793 117.43 94.4593 117.4 104.149C117.4 105.239 117.84 105.649 118.87 105.629C119.7 105.609 120.53 105.629 121.36 105.629C124.18 105.649 124.62 105.219 124.62 102.439C124.62 97.6793 124.71 92.9193 124.59 88.1693C124.51 85.2293 125.46 83.1493 128.12 81.6493C130.56 80.2693 132.75 78.4493 135.08 76.8693C135.45 76.6193 136.1 76.3593 136.37 76.5193C136.68 76.6993 136.82 77.3593 136.83 77.8093C136.85 90.6393 136.85 103.459 136.83 116.289C136.83 118.049 136.29 118.559 134.49 118.569C124.16 118.589 113.82 118.589 103.49 118.599C103.16 118.599 102.83 118.599 102.49 118.579C100.9 118.509 100.64 118.089 101.54 116.819C103.77 113.639 104.18 110.019 104.18 106.299C104.18 83.9993 104.18 61.6993 104.19 39.3993C104.19 36.5893 104.26 33.7793 104.17 30.9793C104.1 28.7093 103.84 26.4693 102.46 24.4993C101.63 23.3193 101.98 22.7593 103.43 22.7493C108.15 22.6993 112.88 22.7493 117.6 22.6593C122.65 22.5693 127.71 22.3693 132.76 22.2493C135.41 22.1793 135.8 22.5893 135.85 25.1893C136 33.4593 136.17 41.7193 136.31 49.9893C136.35 52.3393 136.37 54.6993 136.29 57.0493C136.27 57.6193 135.97 58.4693 135.54 58.6793C135.04 58.9193 134.17 58.7993 133.63 58.5093C131.78 57.5093 130.05 56.3093 128.21 55.2793C125.68 53.8593 124.76 51.5693 124.62 48.8893C124.55 47.4993 124.79 46.0893 124.78 44.6893C124.76 42.2093 124.71 39.7293 124.56 37.2593C124.47 35.7093 123.17 34.6493 121.61 34.6393C121.07 34.6393 120.53 34.6893 119.99 34.6993C118.22 34.7493 117.51 35.3393 117.53 37.0593C117.56 40.6993 117.77 44.3293 117.78 47.9693C117.78 51.7293 117.63 55.4793 117.54 59.2393C117.53 59.7793 117.42 60.3193 117.47 60.8393C117.57 61.9893 118.21 62.7393 119.39 62.6993C122.41 62.5993 125.45 62.5893 128.08 60.7093C129.17 59.9393 129.61 60.2293 129.59 61.5993C129.52 65.8193 129.44 70.0393 129.33 74.2493C129.31 74.8493 129.08 75.4493 128.89 76.3093L128.91 76.2593ZM115.86 110.239C115.38 109.539 115.01 109.049 114.7 108.519C114.16 107.589 113.55 106.689 113.15 105.699C112.24 103.459 110.81 103.589 108.67 104.669C108.08 104.969 107.8 105.529 108.67 105.939C109.37 106.269 109.48 106.599 108.94 107.239C107.24 109.239 107.56 111.749 106.98 114.339C108.59 113.919 109.67 113.289 110.23 112.159C110.68 111.259 111.22 111.069 112.1 111.229C112.54 111.309 113.01 111.269 113.46 111.229C114.33 111.169 115.02 111.349 115.24 112.349C115.29 112.559 115.51 112.729 115.77 113.059C116.52 112.029 117.24 111.109 117.86 110.129C117.99 109.929 117.78 109.219 117.65 109.199C117.25 109.129 116.78 109.199 116.4 109.359C116.2 109.439 116.11 109.809 115.88 110.219L115.86 110.239ZM111.56 86.4593C111.4 86.4993 111.25 86.5293 111.09 86.5693C111.02 86.5293 110.93 86.4993 110.89 86.4393C110.5 85.9393 110.21 85.0993 109.38 85.7493C108.61 86.3593 108.89 87.0993 109.49 87.6693C110.06 88.2093 110.7 88.6693 111.35 89.1093C111.96 89.5293 112.62 90.0493 113.32 89.2493C113.97 88.5093 113.92 87.1693 113.35 86.4893C112.87 85.9093 112.43 85.2693 112.14 84.5893C111.45 82.9493 109.77 82.1093 108.34 82.8493C107.99 83.0293 107.78 83.4693 107.51 83.7893C107.89 84.0293 108.24 84.3493 108.65 84.5093C109.48 84.8293 110.38 84.9893 111.18 85.3693C111.42 85.4893 111.44 86.0793 111.56 86.4593ZM130.2 26.3393C129.08 26.2193 128.05 25.9493 127.04 26.0393C125.96 26.1293 125.43 27.4693 126 28.4093C126.49 29.1993 127.09 29.9193 127.75 30.8093C128.54 29.3693 129.29 28.0093 130.2 26.3493V26.3393ZM113.38 80.4993C112.05 79.2493 110.49 79.0093 109.55 79.7593C109.24 80.0093 108.87 80.5993 108.97 80.8293C109.12 81.1693 109.73 81.5693 110.06 81.4993C111.13 81.2893 112.16 80.8793 113.38 80.4993Z" fill="#3C4A5B"/>
<path d="M65.4001 76.1609C65.2201 76.0909 65.0901 76.0709 65.0001 75.9909C62.6501 73.7309 59.5901 73.7209 56.6501 73.4509C54.3101 73.2309 53.1601 74.6009 53.3601 76.9009C53.5201 78.7809 53.4501 80.6809 53.4501 82.5709C53.4501 89.5209 53.4601 96.4709 53.4101 103.411C53.3901 105.351 53.2201 107.291 52.9801 109.211C52.7001 111.491 53.27 113.521 54.35 115.501C55.6801 117.941 55.2801 118.541 52.5201 118.541C48.3301 118.541 44.1401 118.541 39.9501 118.541C39.2901 118.541 38.6301 118.461 37.9801 118.361C36.9001 118.181 36.6801 117.751 37.3601 116.871C39.6901 113.851 40.2101 110.381 40.2001 106.701C40.1801 83.6209 40.16 60.5409 40.26 37.4609C40.27 33.9809 40.4601 30.5209 39.6801 27.1109C39.4601 26.1409 38.9401 25.2109 38.4001 24.3509C37.7201 23.2709 37.9201 22.6609 39.2001 22.4709C39.5701 22.4209 39.9501 22.4409 40.3201 22.4409C47.1701 22.4409 54.0101 22.4809 60.8601 22.4209C63.5501 22.4009 66.24 22.1709 68.92 21.9709C70.87 21.8209 71.8201 22.4309 71.8701 24.3509C72.0201 30.7109 72.08 37.0809 72.18 43.4409C72.25 47.7809 72.34 52.1109 72.34 56.4509C72.34 57.1609 72.0701 58.2609 71.6101 58.4709C71.0201 58.7309 70.03 58.4209 69.35 58.0709C67.85 57.3009 66.4701 56.2909 64.9801 55.4909C61.4101 53.5709 60.5001 50.4109 60.6601 46.7309C60.7901 43.6509 60.7101 40.5509 60.5701 37.4609C60.5101 36.1309 59.7901 35.0009 58.3801 34.5809C56.8701 34.1309 55.3801 34.2909 54.1301 35.2509C53.7801 35.5209 53.67 36.2709 53.67 36.8009C53.64 43.3809 53.6701 49.9509 53.6401 56.5309C53.6401 57.7709 53.4501 59.0009 53.4501 60.2409C53.4501 61.8109 53.97 62.3709 55.51 62.4009C58.55 62.4509 61.5601 62.3809 64.1901 60.4709C65.0601 59.8409 65.5701 60.0909 65.5801 61.1009C65.6101 66.0209 65.58 70.9409 65.56 75.8609C65.56 75.9309 65.48 76.0009 65.38 76.1509L65.4001 76.1609ZM66.7301 27.8009C66.4501 27.2409 66.2501 26.6309 65.8601 26.1909C65.6401 25.9409 64.9001 25.7609 64.7301 25.9109C64.3801 26.2309 63.9901 26.9009 64.1201 27.2309C64.3201 27.7409 64.9201 28.1309 65.4101 28.4909C65.6401 28.6609 66.0701 28.7909 66.2901 28.6909C66.5001 28.5909 66.57 28.1709 66.74 27.8009H66.7301ZM63.8401 32.0209C64.2401 31.5209 64.7101 31.1809 64.6601 30.9609C64.5701 30.5809 64.1501 30.2809 63.8701 29.9509C63.6201 30.2109 63.17 30.4809 63.17 30.7409C63.17 31.1009 63.5201 31.4509 63.8401 32.0209Z" fill="#3C4A5B"/>
<path d="M87.67 22.9299C90.28 22.9299 92.9 22.9099 95.51 22.9299C97.65 22.9599 98.03 23.6099 96.92 25.3699C95.21 28.0899 94.57 31.1099 94.57 34.2499C94.57 53.0699 94.63 71.8999 94.69 90.7199C94.71 96.5899 94.83 102.47 94.82 108.34C94.82 111.21 95.26 113.9 96.88 116.36C97.9 117.92 97.62 118.33 95.73 118.36C90.75 118.44 85.78 118.5 80.8 118.54C78.73 118.56 78.38 118.01 79.37 116.18C80.87 113.41 81.49 110.45 81.49 107.36C81.52 83.6899 81.52 60.0299 81.52 36.3599C81.52 32.2499 80.72 28.3199 78.81 24.6399C78.03 23.1499 78.18 22.9499 79.82 22.9499C82.43 22.9499 85.05 22.9499 87.66 22.9499V22.9199L87.67 22.9299ZM85.28 74.7299C87.34 74.8699 88.88 74.3999 90.36 73.6899C90.58 73.5899 90.74 73.0099 90.66 72.7299C90.38 71.7799 89.98 70.8599 89.69 70.1099C88.24 71.6399 86.87 73.0699 85.28 74.7399V74.7299ZM89.38 97.6899C89.45 96.4199 89.53 95.0699 89.62 93.7199C89.64 93.4399 89.81 93.0999 89.71 92.8799C89.52 92.4799 89.24 91.9899 88.88 91.8599C88.64 91.7699 88.02 92.1499 87.87 92.4599C87.51 93.2299 87.23 94.0799 87.12 94.9199C87.06 95.3799 87.3 95.9999 87.62 96.3399C88.16 96.9099 88.88 97.3199 89.37 97.6899H89.38Z" fill="#3C4A5B"/>
<path d="M210.87 65.7803C209.72 67.6003 209.52 69.9903 207.39 71.2203C207.02 71.4403 206.48 71.3703 206.02 71.4403C206.06 71.0203 206 70.5603 206.16 70.1903C206.86 68.4503 206.67 67.7503 205.35 66.4603C205.01 66.1303 204.75 65.1103 204.86 65.0503C205.47 64.6703 206.19 64.3503 206.9 64.2803C207.17 64.2503 207.67 64.9103 207.78 65.3303C208.07 66.5003 208.28 66.6203 209.35 65.9903C209.72 65.7703 210.12 65.6203 210.51 65.4303C210.63 65.5503 210.76 65.6703 210.88 65.7903L210.87 65.7803Z" fill="#3C4A5B"/>
<path d="M209.04 40.8098C208.53 41.3098 208.1 42.0898 207.5 42.2498C206.62 42.4898 205.62 42.3398 204.69 42.2098C204.56 42.1898 204.33 41.2598 204.5 40.9498C204.99 40.1098 205.57 39.2798 206.29 38.6298C207.4 37.6098 208.17 37.8898 208.61 39.3398C208.73 39.7298 208.76 40.1398 208.84 40.5498C208.91 40.6398 208.98 40.7198 209.05 40.8098H209.04Z" fill="#3C4A5B"/>
<path d="M210.55 100.271C210.62 98.8407 210.68 97.6507 210.74 96.2707C211.29 95.9507 212.23 95.7807 212.82 96.5607C213.19 97.0507 213.32 98.0307 213.08 98.5807C212.62 99.5907 211.65 100.161 210.55 100.281V100.271Z" fill="#3C4A5B"/>
<path d="M196.96 39.8603C197.62 39.9203 198.26 40.2603 198.32 41.2303C198.36 42.0403 197.13 42.7503 195.82 42.7103C195.05 42.6903 194.86 42.2303 194.88 41.5603C194.92 40.5103 195.65 39.8303 196.96 39.8603Z" fill="#3C4A5B"/>
<path d="M206.97 91.1597C206.97 90.1897 207.61 89.8697 208.43 89.8597C209.36 89.8397 209.98 90.8397 209.89 92.3097C209.87 92.5797 209.46 93.0397 209.21 93.0497C208.18 93.1097 206.97 92.0197 206.97 91.1597Z" fill="#3C4A5B"/>
<path d="M190.41 114.95C190.41 113.33 192.1 112.17 193.25 112.72C193.43 112.81 193.59 113.37 193.49 113.56C193.14 114.21 192.72 114.83 192.21 115.37C191.95 115.65 191.36 115.94 191.1 115.82C190.73 115.65 190.53 115.12 190.41 114.95Z" fill="#3C4A5B"/>
<path d="M189.2 107.511C189.26 106.781 189.3 106.041 189.4 105.311C189.43 105.111 189.61 104.821 189.79 104.771C189.96 104.721 190.29 104.851 190.41 105.011C191.04 105.881 191.44 106.861 190.85 107.881C190.65 108.221 190.1 108.491 189.69 108.521C189.47 108.531 189.22 107.951 188.98 107.641C189.06 107.601 189.13 107.561 189.21 107.511H189.2Z" fill="#3C4A5B"/>
<path d="M194 102.789C193.48 103.119 193.16 103.449 193.03 103.379C192.69 103.209 192.41 102.899 192.19 102.579C192.15 102.519 192.61 101.969 192.72 101.999C193.09 102.109 193.4 102.399 193.99 102.779L194 102.789Z" fill="#3C4A5B"/>
<path d="M115.86 110.241C116.1 109.831 116.18 109.461 116.38 109.381C116.77 109.221 117.23 109.141 117.63 109.221C117.76 109.241 117.97 109.951 117.84 110.151C117.22 111.131 116.5 112.051 115.75 113.081C115.5 112.751 115.27 112.581 115.22 112.371C115 111.371 114.32 111.191 113.44 111.251C112.99 111.281 112.52 111.321 112.08 111.251C111.2 111.091 110.66 111.281 110.21 112.181C109.65 113.311 108.56 113.941 106.96 114.361C107.54 111.771 107.23 109.261 108.92 107.261C109.46 106.621 109.36 106.291 108.65 105.961C107.79 105.551 108.07 104.991 108.65 104.691C110.78 103.611 112.22 103.481 113.13 105.721C113.53 106.711 114.14 107.611 114.68 108.541C114.99 109.071 115.37 109.561 115.84 110.261L115.86 110.241ZM109.84 109.031C110.23 109.561 110.49 109.921 110.76 110.271C111 109.861 111.37 109.471 111.42 109.041C111.45 108.761 111.01 108.421 110.78 108.111C110.5 108.381 110.22 108.651 109.84 109.031Z" fill="#3C4A5B"/>
<path d="M111.56 86.4591C111.44 86.0791 111.42 85.4891 111.18 85.3691C110.38 84.9891 109.48 84.8291 108.65 84.5091C108.24 84.3491 107.89 84.0391 107.51 83.7891C107.78 83.4691 108 83.0291 108.34 82.8491C109.77 82.1091 111.45 82.9491 112.14 84.5891C112.43 85.2791 112.87 85.9191 113.35 86.4891C113.91 87.1691 113.96 88.5091 113.32 89.2491C112.62 90.0491 111.96 89.5291 111.35 89.1091C110.7 88.6691 110.06 88.1991 109.49 87.6691C108.89 87.0991 108.61 86.3591 109.38 85.7491C110.21 85.0991 110.5 85.9391 110.89 86.4391C110.94 86.4991 111.02 86.5291 111.09 86.5691C111.25 86.5291 111.4 86.4991 111.56 86.4591Z" fill="#3C4A5B"/>
<path d="M130.2 26.33C129.29 27.99 128.54 29.35 127.75 30.79C127.1 29.9 126.49 29.19 126 28.39C125.42 27.45 125.96 26.11 127.04 26.02C128.05 25.93 129.09 26.2 130.2 26.32V26.33Z" fill="#3C4A5B"/>
<path d="M113.38 80.499C112.16 80.889 111.13 81.289 110.06 81.499C109.73 81.559 109.12 81.159 108.97 80.829C108.87 80.599 109.24 80.009 109.55 79.759C110.49 79.009 112.05 79.249 113.38 80.499Z" fill="#3C4A5B"/>
<path d="M66.73 27.7997C66.56 28.1697 66.5 28.5897 66.28 28.6897C66.06 28.7897 65.63 28.6597 65.4 28.4897C64.91 28.1297 64.32 27.7397 64.11 27.2297C63.98 26.8997 64.38 26.2297 64.72 25.9097C64.89 25.7597 65.63 25.9297 65.85 26.1897C66.24 26.6297 66.43 27.2397 66.72 27.7997H66.73Z" fill="#3C4A5B"/>
<path d="M63.84 32.0192C63.52 31.4492 63.17 31.0892 63.17 30.7392C63.17 30.4792 63.62 30.2192 63.87 29.9492C64.15 30.2792 64.57 30.5792 64.66 30.9592C64.71 31.1792 64.24 31.5292 63.84 32.0192Z" fill="#3C4A5B"/>
<path d="M85.28 74.7198C86.87 73.0498 88.23 71.6198 89.69 70.0898C89.98 70.8398 90.38 71.7598 90.66 72.7098C90.74 72.9898 90.58 73.5698 90.36 73.6698C88.89 74.3798 87.34 74.8498 85.28 74.7098V74.7198Z" fill="#3C4A5B"/>
<path d="M89.38 97.6794C88.89 97.3094 88.17 96.8994 87.63 96.3294C87.31 95.9894 87.07 95.3594 87.13 94.9094C87.24 94.0694 87.52 93.2294 87.88 92.4494C88.02 92.1394 88.65 91.7594 88.89 91.8494C89.25 91.9794 89.53 92.4694 89.72 92.8694C89.82 93.0894 89.65 93.4194 89.63 93.7094C89.54 95.0594 89.47 96.4194 89.39 97.6794H89.38Z" fill="#3C4A5B"/>
<path d="M109.84 109.029C110.23 108.649 110.51 108.379 110.78 108.109C111.01 108.419 111.45 108.759 111.42 109.039C111.37 109.469 110.99 109.859 110.76 110.269C110.5 109.909 110.23 109.559 109.84 109.029Z" fill="#3C4A5B"/>
</svg>
