<svg width="256" height="142" viewBox="0 0 256 142" fill="none" xmlns="http://www.w3.org/2000/svg">
<path d="M62.89 65.2702C62.89 65.1702 62.89 65.0602 62.89 64.9602C62.89 64.8202 62.89 64.6802 62.89 64.5302C62.65 63.4402 63.08 63.0902 64.19 63.1102C68.49 63.1602 72.8 63.1302 77.11 63.1302C77.8 63.1302 78.5 63.0002 78.02 64.1502C77.8 64.6702 77.94 65.3802 78.05 65.9802C78.37 67.6102 78.21 67.8502 76.54 67.8702C73.73 67.8902 70.91 67.8802 68.1 67.9102C67.7 67.9102 67.04 67.7302 67.04 68.3902C67.04 69.0202 67.61 69.0702 68.14 69.0302C68.55 69.0002 68.97 69.0302 69.38 69.0302C69.75 69.0502 70.14 69.2002 70.44 68.8502C70.6 68.8502 70.77 68.8402 70.93 68.8302C71.1 69.0702 71.26 69.0702 71.43 68.8302C71.6 68.8302 71.76 68.8302 71.93 68.8302C72.09 69.0802 72.25 69.0802 72.42 68.8302C72.59 68.8302 72.75 68.8302 72.92 68.8202C73.46 69.2802 74.1 68.9802 74.69 69.0402L74.7 69.0502C74.67 69.4102 74.6 69.7702 74.86 70.0802C74.86 70.2402 74.86 70.4002 74.86 70.5602C74.8 70.7402 74.74 70.9202 74.69 71.1002C74.53 71.7502 74.88 72.4602 74.46 73.0902C74.28 73.1602 74.1 73.2302 73.91 73.3002C73.66 73.3002 73.42 73.2902 73.17 73.2802C73.09 73.1502 73 73.1502 72.91 73.2802C72.67 73.2802 72.42 73.2802 72.18 73.2802C72.09 73.1502 72 73.1502 71.91 73.2802C71.67 73.2802 71.43 73.2802 71.19 73.2702C71.1 73.1402 71.01 73.1402 70.92 73.2702C70.68 73.2702 70.44 73.2702 70.2 73.2702C70.11 73.1402 70.02 73.1502 69.93 73.2702C69.69 73.2702 69.45 73.2702 69.21 73.2702C69.12 73.1402 69.03 73.1402 68.94 73.2702C68.7 73.2702 68.46 73.2602 68.22 73.2502C68.12 73.0902 68.03 73.1102 67.95 73.2602C67.46 73.2402 67.03 73.4502 66.88 73.8802C66.78 74.1502 67.2 74.2602 67.45 74.3702C67.57 74.4002 67.68 74.4302 67.8 74.4602C68 74.4702 68.2 74.4802 68.4 74.5002C68.94 74.6102 69.48 74.6202 70.01 74.5002C70.13 74.5002 70.25 74.5002 70.37 74.5002C70.59 74.5002 70.8 74.4902 71.02 74.4802C71.13 74.4802 71.24 74.4802 71.35 74.4802C72.57 74.6402 73.78 74.6602 75 74.4802C75.31 74.4802 75.61 74.4602 75.92 74.4502C76.03 74.4502 76.14 74.4602 76.25 74.4702C76.8 74.4602 77.35 74.4402 77.9 74.4302C77.97 74.4802 78.05 74.5202 78.12 74.5702C78.19 74.6002 78.23 74.6502 78.24 74.7202C78.24 74.8502 78.23 74.9802 78.22 75.1202C78.23 76.0602 78.24 77.0002 78.25 77.9402C78.21 78.1202 78.18 78.3002 78.14 78.4802C77.39 78.9902 76.64 79.1002 75.71 78.8702C74.89 78.6702 73.98 78.7802 73.12 78.8202C69.99 78.9602 66.85 78.5602 63.72 79.0102C62.99 79.1102 62.68 78.7402 62.68 78.0002C62.72 74.2902 62.56 70.5702 62.76 66.8602C62.98 66.6902 62.97 66.4802 62.85 66.2602C62.85 66.0802 62.85 65.9002 62.85 65.7202C62.86 65.5702 62.87 65.4202 62.88 65.2702H62.89Z" fill="#3C4A5B"/>
<path d="M180.97 63.1303C182.75 63.1303 184.54 63.1603 186.32 63.1203C187.2 63.1003 187.51 63.4303 187.44 64.2903C187.38 65.0303 187.4 65.7803 187.46 66.5203C187.54 67.5703 187.05 67.9103 186.06 67.8903C183.24 67.8403 180.42 67.8303 177.6 67.8203C176.02 67.8203 175.99 67.8803 176.01 69.4103C176.03 70.6903 176.06 71.9703 176.03 73.2503C176.01 74.1203 176.29 74.5603 177.24 74.5303C178.9 74.4803 180.56 74.4903 182.22 74.4603C182.62 74.4603 183.18 74.5003 183.2 73.9503C183.23 73.3503 182.68 73.3103 182.21 73.2803C180.623 73.1736 179.807 72.327 179.76 70.7403C179.76 70.6203 179.76 70.4903 179.76 70.3703C179.73 68.5903 179.73 68.5903 181.48 68.5903C183.06 68.5903 184.63 68.6303 186.21 68.6103C186.92 68.6103 187.19 68.8203 187.29 69.5803C187.66 72.3403 187.36 75.1003 187.48 77.8603C187.51 78.7103 186.9 78.7303 186.29 78.7303C184.17 78.7303 182.06 78.7503 179.94 78.7503C178.59 78.7503 177.24 78.6803 175.89 78.7603C175.09 78.8103 174.66 78.5103 174.32 77.8703C174.13 77.5103 173.95 77.0703 173.63 76.8503C171.98 75.7303 171.93 74.1103 172.01 72.3603C172.09 70.6303 172.04 68.8903 172.01 67.1503C172.01 66.5203 172.15 66.0303 172.73 65.6903C173.32 65.3503 173.81 64.8503 174.06 64.2503C174.47 63.2803 175.13 63.0403 176.11 63.0803C177.72 63.1503 179.34 63.1003 180.96 63.1003L180.97 63.1303Z" fill="#3C4A5B"/>
<path d="M45.54 75.2706C44.76 76.5606 43.43 77.3406 42.51 78.5006C42.24 78.8406 41.77 78.8306 41.35 78.8206C38.74 78.8006 36.12 78.7606 33.51 78.7806C32.92 78.7806 32.52 78.5606 32.1 78.1906C30.11 76.4106 29.27 74.3006 29.79 71.6106C30.02 70.4206 29.82 69.1406 29.82 67.9006C29.82 66.0606 30.77 64.7106 32.09 63.5606C32.49 63.2106 32.96 63.1406 33.48 63.1406C35.89 63.1606 38.29 63.1406 40.7 63.1406C41.65 63.1406 42.45 63.4706 43.07 64.2006C44.04 65.3506 45.61 66.0906 45.61 67.9106C45.61 69.3806 45.65 70.8506 45.65 72.3106C45.65 73.2206 45.6 74.1306 45.57 75.0406C45.52 75.1106 45.51 75.1906 45.54 75.2706ZM39.59 74.3406C40.6 74.4406 40.96 74.0306 40.88 72.9906C40.78 71.6806 40.85 70.3506 40.84 69.0306C40.84 68.6306 40.93 68.1706 40.34 68.0506C40.19 67.8606 40.02 67.7906 39.83 67.9906C38.34 67.9906 36.85 67.9606 35.37 67.9806C34.99 67.9806 34.4 67.8706 34.41 68.4706C34.45 70.4206 34.09 72.3906 34.61 74.3206C34.92 74.6106 35.26 74.6306 35.61 74.4006C36.18 74.3906 36.76 74.3806 37.33 74.3706C37.42 74.4906 37.51 74.4906 37.6 74.3706C37.76 74.3706 37.92 74.3706 38.08 74.3706C38.25 74.5706 38.42 74.5706 38.6 74.3706C38.76 74.3706 38.92 74.3706 39.08 74.3706C39.26 74.5706 39.43 74.5506 39.6 74.3506L39.59 74.3406Z" fill="#3C4A5B"/>
<path d="M156.4 78.7494C154.74 78.7494 153.08 78.7194 151.42 78.7594C150.63 78.7794 150.34 78.5294 150.33 77.6894C150.32 73.2294 150 68.7794 150.12 64.3194C150.15 63.3494 150.16 62.9794 151.44 63.0594C154.62 63.2694 157.82 63.1694 161.01 63.1094C162 63.0894 162.68 63.4194 163.21 64.1894C163.37 64.4294 163.53 64.7194 163.76 64.8494C165.69 65.9194 165.75 67.6894 165.61 69.5694C165.56 70.2694 165.49 70.9894 165.61 71.6694C166.06 74.3494 164.95 76.3794 163.06 78.1294C162.6 78.5594 162.11 78.7494 161.5 78.7394C159.8 78.7394 158.1 78.7394 156.4 78.7394V78.7494ZM154.35 71.1294C154.35 71.1294 154.39 71.1294 154.41 71.1294C154.41 71.9994 154.41 72.8594 154.41 73.7294C154.41 74.2694 154.63 74.5694 155.23 74.5494C157.04 74.4894 158.86 74.6794 160.66 74.3294C161.1 74.2394 161.33 74.1394 161.33 73.6594C161.33 72.0894 161.36 70.5294 161.38 68.9594C161.38 68.4394 161.24 68.0094 160.63 68.0794C158.89 68.2794 157.19 67.7794 155.45 67.7994C154.62 67.8094 154.23 67.9894 154.33 68.8994C154.41 69.6294 154.35 70.3794 154.35 71.1194V71.1294Z" fill="#3C4A5B"/>
<path d="M209.62 73.5791C209.62 72.3391 209.67 71.0991 209.6 69.8591C209.56 69.0291 209.9 68.6291 210.61 68.2491C212.52 67.2291 214.09 65.8091 215.12 63.8591C215.34 63.4391 215.66 63.1391 216.17 63.1291C216.38 63.1291 216.59 63.1491 216.79 63.1291C219.06 62.8791 221.04 63.0091 222.1 65.5891C222.57 66.7291 223.8 67.4891 224.88 68.1791C225.54 68.5991 225.83 69.1791 225.83 69.9391C225.83 72.5791 225.83 75.2191 225.86 77.8691C225.86 78.3191 225.73 78.5791 225.25 78.5991C224.26 78.6491 223.27 78.6991 222.28 78.7591C221.52 78.8091 221.24 78.4491 221.3 77.7091C221.35 77.0891 221.26 76.4591 221.34 75.8491C221.47 74.8391 221.15 74.4391 220.08 74.4891C218.55 74.5591 217.02 74.5191 215.48 74.4891C214.77 74.4691 214.58 74.7491 214.58 75.4491C214.58 78.7591 214.56 78.7591 211.3 78.7691C210.18 78.7691 209.62 78.1991 209.62 77.0591C209.62 75.8991 209.62 74.7491 209.62 73.5891V73.5791ZM218.06 70.3191C218.8 70.3191 219.54 70.3291 220.29 70.3191C220.61 70.3191 220.88 70.2591 220.65 69.8091C219.64 67.7991 216.85 67.5591 215.46 69.3491C214.98 69.9691 215.19 70.2591 215.84 70.3091C216.58 70.3691 217.32 70.3191 218.07 70.3191H218.06Z" fill="#3C4A5B"/>
<path d="M128.06 75.5306C128.09 75.3606 128.11 75.1906 128.14 75.0306C128.26 74.7806 128.2 74.6206 127.92 74.5806C126.23 74.5706 124.54 74.5706 122.84 74.5306C121.98 74.5106 121.63 74.8806 121.73 75.7206C121.77 76.0506 121.7 76.3806 121.75 76.7106C122.09 78.8406 122.09 78.8806 119.99 78.7806C119.07 78.7406 118.11 79.0506 117.22 78.5706C117.46 75.5506 116.92 72.5506 116.97 69.5306C116.89 69.1206 117.08 68.8406 117.4 68.6006C119.3 67.1806 120.94 65.5006 122.38 63.6406C122.7 63.2306 123.1 63.2206 123.55 63.1206C126.18 62.5506 127.82 63.8306 129.31 65.8206C130.18 66.9906 131.29 68.1406 132.93 68.3906C132.65 69.3506 132.69 70.3406 132.69 71.3206C132.69 73.7906 132.69 76.2706 132.68 78.7506C131.41 78.8406 130.14 78.9306 128.87 79.0306C128.13 79.0906 127.91 78.7206 128.03 78.0506C128.06 78.0206 128.11 77.9906 128.1 77.9706C128.08 77.9006 128.04 77.8406 128.01 77.7806C128.01 77.2906 128.01 76.8006 128.01 76.3106C128.25 76.0706 128.27 75.8206 128.05 75.5506L128.06 75.5306ZM124.87 70.3206C125.45 70.3206 126.03 70.3206 126.61 70.3206C126.9 70.3206 127.26 70.3206 127.33 70.0106C127.38 69.8206 127.23 69.5306 127.09 69.3406C126.02 67.8706 124.16 67.7806 122.95 69.1306C122.74 69.3706 122.39 69.6106 122.54 69.9706C122.7 70.3706 123.13 70.3506 123.5 70.3406C123.96 70.3406 124.41 70.3406 124.87 70.3406V70.3206Z" fill="#3C4A5B"/>
<path d="M17.76 73.1499C17.84 74.5299 17.94 75.9199 17.98 77.3099C18.03 78.8599 17.86 79.0099 16.33 79.0099C15.62 79.0099 14.91 78.9499 14.21 79.0199C12.97 79.1399 12.64 78.5599 12.67 77.4299C12.8 73.0899 12.82 68.7499 12.67 64.4099C12.63 63.3399 13.03 63.0899 14.03 63.0999C17.56 63.1499 21.08 63.1199 24.61 63.1199C24.98 63.1199 25.38 63.0199 25.7 63.2799C27.45 64.6899 29.43 65.9199 29.22 68.6499C29.09 70.3399 26.88 73.1499 25.17 73.2699C23.15 73.4099 21.11 73.2999 19.07 73.3099C18.74 73.3099 18.55 73.0899 18.34 72.8999C18.36 71.9899 18.43 71.0799 18.39 70.1799C18.36 69.3599 18.7 69.0799 19.49 69.0999C20.81 69.1299 22.14 69.1099 23.47 69.0699C23.87 69.0599 24.38 68.9499 24.38 68.4299C24.38 67.8999 23.91 67.8199 23.47 67.8199C21.85 67.8199 20.24 67.8199 18.62 67.8199C17.96 67.8199 17.58 68.0899 17.65 68.7799C17.82 70.2399 17.79 71.6999 17.76 73.1599V73.1499Z" fill="#3C4A5B"/>
<path d="M90.37 66.8595C90.37 66.6495 90.37 66.4495 90.37 66.2395C90.37 63.0095 90.37 63.0395 93.63 63.1095C94.43 63.1295 94.68 63.4295 94.6 64.1295C94.34 66.4295 94.35 68.7295 94.42 71.0395C94.49 73.2495 94.18 75.4695 94.53 77.6895C94.61 78.1895 94.46 78.7795 93.59 78.7995C92.29 78.8295 91.17 78.6895 90.3 77.5695C88.66 75.4495 86.39 73.9495 84.63 71.9395C84.35 71.6195 84.03 71.1395 83.51 71.3195C82.93 71.5295 83.26 72.0995 83.25 72.4895C83.21 74.0995 83.2 75.7095 83.24 77.3195C83.26 78.3395 82.94 78.7895 81.82 78.7795C79.18 78.7595 79.27 78.7995 79.13 76.1795C78.96 72.8895 78.94 69.6095 79.35 66.3395C79.43 65.6795 79.24 65.0395 79.15 64.3995C78.99 63.2095 79.57 62.8295 80.78 63.0495C82.25 63.3195 83.02 64.4095 83.98 65.3595C85.79 67.1495 87.68 68.8595 89.57 70.5695C90.14 71.0795 90.36 70.6295 90.37 70.0895C90.39 69.0195 90.37 67.9395 90.37 66.8695V66.8595Z" fill="#3C4A5B"/>
<path d="M110.77 78.7391C107.29 78.7591 103.81 78.7391 100.33 78.8091C99.2 78.8291 98.32 78.4791 97.59 77.6491C96.99 76.9691 96.45 76.2591 95.73 75.6791C95.44 75.4391 95.32 75.0191 95.32 74.5691C95.34 72.1691 95.32 69.7791 95.32 67.3791C95.32 66.6491 95.52 66.0791 96.15 65.5991C96.76 65.1291 97.21 64.4691 97.76 63.9091C98.15 63.5091 98.55 63.1191 99.2 63.1191C103.01 63.1391 106.83 63.1391 110.64 63.1491C110.76 63.1491 110.88 63.2191 110.99 63.2491C110.75 64.0791 110.79 64.9391 110.77 65.7991C110.75 66.4791 111 67.1891 110.53 67.8191C109.94 68.3791 109.27 67.9591 108.64 67.9591C106.11 67.9791 103.58 67.9191 101.05 67.9491C100.46 67.9491 99.62 67.7191 99.62 68.8191C99.62 70.3891 99.58 71.9591 99.55 73.5291C99.54 74.2291 99.8 74.6091 100.58 74.5591C101.65 74.4791 102.72 74.4491 103.79 74.3991C103.88 74.5191 103.97 74.5191 104.07 74.3991C104.31 74.3991 104.55 74.3991 104.79 74.3991C104.88 74.5191 104.97 74.5191 105.07 74.3991C106.89 74.3991 108.7 74.3891 110.52 74.3791C111 75.8091 110.78 77.2791 110.78 78.7391H110.77Z" fill="#3C4A5B"/>
<path d="M201.45 63.1294C203.77 63.1294 206.1 63.1594 208.42 63.1194C209.24 63.1094 209.53 63.3694 209.47 64.1894C209.4 65.0094 209.4 65.8494 209.47 66.6694C209.57 67.7994 208.99 68.1594 207.99 68.0994C206.88 68.0294 205.77 67.9494 204.67 67.8494C203.71 67.7694 203.29 68.1494 203.4 69.1394C203.72 71.8894 203.58 74.6594 203.65 77.4194C203.67 78.4294 203.34 78.8794 202.29 78.7694C201.23 78.6594 199.85 79.2094 199.17 78.5694C198.47 77.9194 198.96 76.5394 198.94 75.4794C198.9 73.2894 198.9 71.0994 198.94 68.9094C198.96 68.1394 198.67 67.8994 197.93 67.9194C196.77 67.9494 195.61 67.8894 194.45 67.8894C193.72 67.8894 193.39 67.5194 193.41 66.8094C193.41 66.7694 193.41 66.7294 193.41 66.6894C193.317 64.3228 194.463 63.1394 196.85 63.1394C198.38 63.1394 199.92 63.1394 201.45 63.1394V63.1294Z" fill="#3C4A5B"/>
<path d="M234.41 78.75C232.17 78.75 229.93 78.72 227.7 78.76C226.79 78.78 226.41 78.48 226.47 77.55C226.75 72.93 226.15 68.34 225.86 63.74C225.83 63.29 225.98 63.13 226.39 63.13C227.76 63.13 229.13 63.11 230.49 63.13C231.27 63.15 231.08 63.78 231.08 64.24C231.08 67.21 231.08 70.19 231.01 73.16C230.98 74.19 231.32 74.53 232.36 74.51C235.3 74.46 238.24 74.51 241.18 74.48C241.97 74.48 242.36 74.7 242.29 75.53C242.27 75.78 242.29 76.03 242.29 76.27C242.29 77.9033 241.447 78.72 239.76 78.72C237.98 78.72 236.2 78.72 234.41 78.72V78.75Z" fill="#3C4A5B"/>
<path d="M51.03 68.0109C50.79 68.0109 50.54 68.0009 50.3 67.9909C50.21 67.8709 50.12 67.8809 50.03 67.9909C49.79 67.9909 49.55 67.9909 49.31 67.9909C49.22 67.8809 49.13 67.8709 49.04 67.9809C48.32 67.9609 47.6 67.9409 46.88 67.9309C46.79 67.9009 46.69 67.8709 46.6 67.8409C46.59 66.5209 46.6 65.2009 46.55 63.8809C46.53 63.2509 46.81 63.1309 47.37 63.1309C51.89 63.1409 56.41 63.1609 60.94 63.1309C62.12 63.1309 61.91 63.8409 61.84 64.5409C61.84 64.6809 61.84 64.8309 61.84 64.9709C61.85 65.4809 61.87 65.9909 61.88 66.5009C61.7 66.8609 61.73 67.2409 61.76 67.6209C61.65 67.8309 61.45 67.8509 61.24 67.8509C61.15 67.8509 61.06 67.8609 60.97 67.8709C60.75 67.8909 60.53 67.9009 60.31 67.9209C59.84 67.8009 59.37 67.8009 58.91 67.9409C57.13 67.9475 56.25 68.8442 56.27 70.6309C56.29 72.9809 56.28 75.3309 56.34 77.6809C56.36 78.5009 56.01 78.8109 55.25 78.8109C55.21 78.8109 55.17 78.8109 55.13 78.8109C54.07 78.6909 52.4 79.3009 52.07 78.5609C51.55 77.3909 51.68 75.8409 51.83 74.4409C52.05 72.3309 52.15 70.2109 51.77 68.1009C51.55 67.7909 51.3 67.8009 51.02 68.0209L51.03 68.0109Z" fill="#3C4A5B"/>
<path d="M139.43 74.4204C142.16 74.4104 144.89 74.3904 147.63 74.3804C147.71 74.5004 147.81 74.5104 147.9 74.4004C148.06 74.4004 148.23 74.4104 148.39 74.4204C148.69 74.6404 149.04 74.5404 149.36 74.5604C149.34 74.8204 149.32 75.0704 149.5 75.2904C149.5 75.4504 149.5 75.6104 149.5 75.7704C149.32 75.9404 149.33 76.1104 149.5 76.2804C149.51 76.6904 149.52 77.1004 149.53 77.5004C149.27 77.8104 149.35 78.1704 149.4 78.5204V78.5304C149.3 78.5904 149.21 78.6504 149.11 78.7104C144.13 78.8704 139.16 78.8204 134.18 78.7304C133.89 77.8104 133.92 76.8704 133.93 75.9304C133.94 74.2404 134.01 72.5504 133.9 70.8704C133.84 69.9204 134.04 68.8404 133.22 68.0504C133.21 66.6504 133.2 65.2504 133.18 63.8504C133.18 63.1704 133.27 62.8504 134.17 63.0404C135.2 63.2504 136.31 63.1304 137.38 63.0904C137.96 63.0704 138.2 63.2404 138.16 63.8504C138 66.7504 138.4 69.6704 137.92 72.5704C137.78 73.4004 137.59 74.4804 139.06 74.4304C139.17 74.4204 139.28 74.4104 139.4 74.4004L139.43 74.4204Z" fill="#3C4A5B"/>
<path d="M11.19 65.3605C11.69 66.9205 10.51 67.6905 9.21 68.3505C8.47 68.7205 7.8 69.1905 7.15 69.6905C6.27 70.3705 6.38 71.0205 7.03 71.7605C7.96 72.8205 9 73.8205 10.25 74.4105C11.34 74.9305 11.61 75.6505 11.44 76.6605C11.33 77.3605 11.92 78.2905 10.84 78.7005C9.74 79.1105 7.57 78.7705 7.11 77.9505C6.07 76.0905 4.68 74.7005 2.8 73.6505C1.79 73.0905 1.19 71.9305 1.23 70.6105C1.26 69.7505 1.59 69.1205 2.38 68.7405C4.17 67.8805 6.5 64.8305 6.5 64.8305C6.5 64.8305 9.08 62.6205 10.81 63.1205C11.21 63.2405 11.19 63.4805 11.2 63.7705C11.2 64.2205 11.2 64.6805 11.2 65.3505L11.19 65.3605Z" fill="#3C4A5B"/>
<path d="M245.49 78.759C245.02 78.619 244.26 79.099 244.01 78.169C243.63 76.699 244.01 75.2191 245.04 74.7991C246.64 74.1591 247.72 72.9191 248.93 71.7991C249.59 71.1891 249.46 70.7091 248.89 70.1591C248.08 69.3691 247.16 68.769 246.15 68.249C244.49 67.399 243.68 65.349 244.24 63.589C244.31 63.379 244.39 63.209 244.62 63.159C245.41 62.999 247.87 63.189 248.46 64.039C248.91 64.679 249.5 65.229 249.9 65.899C250.66 67.189 251.68 68.119 253.03 68.799C255.15 69.869 255.3 71.0791 253.64 72.7291C253.18 73.1891 252.66 73.6191 252.12 73.9791C251.08 74.6791 250.28 75.5791 249.57 76.6191C248.36 78.3891 247.53 78.759 245.47 78.759H245.49Z" fill="#3C4A5B"/>
<path d="M112.06 63.1996C113.29 63.1796 114.53 63.1796 115.76 63.1196C116.37 63.0896 116.54 63.3396 116.53 63.9096C116.5 65.4696 116.53 67.0296 116.53 68.5896C116.29 68.8196 116.07 69.0896 116.11 69.4396C116.48 72.4696 116.52 75.5196 116.56 78.5596C114.96 78.8696 113.37 79.0096 111.8 78.4596C111.74 76.9896 112.09 75.4996 111.59 74.0496C111.57 72.1496 111.54 70.2496 111.52 68.3496C111.72 68.2396 111.76 68.0496 111.81 67.8396C112.22 66.3096 111.99 64.7496 112.07 63.1996H112.06Z" fill="#3C4A5B"/>
<path d="M192.48 70.8598C192.48 73.0898 192.46 75.3198 192.49 77.5498C192.5 78.2898 192.25 78.6198 191.49 78.5898C190.7 78.5598 189.91 78.5498 189.13 78.5898C188.31 78.6398 188.17 78.2298 188.21 77.5298C188.36 74.7698 188.14 72.0098 188.14 69.2498C188.14 67.4098 188.04 65.4898 188.53 63.7598C188.92 62.3898 190.54 63.3298 191.58 63.1398C192.3 63.0098 192.46 63.5198 192.46 64.1598C192.44 66.0598 192.46 67.9598 192.46 69.8598C192.46 70.1898 192.46 70.5198 192.46 70.8498C192.46 70.8498 192.48 70.8498 192.49 70.8498L192.48 70.8598Z" fill="#3C4A5B"/>
<path d="M170.74 70.9398C170.74 73.1698 170.74 75.3998 170.74 77.6298C170.74 78.7998 170.39 79.0698 169.23 78.8098C166.69 78.2598 166.74 78.2598 166.73 75.6898C166.73 71.8898 166.67 68.0998 166.57 64.2998C166.55 63.3998 166.74 63.0898 167.71 63.0998C170.75 63.1198 170.75 63.0798 170.75 66.1098C170.75 67.7198 170.75 69.3298 170.75 70.9398H170.74Z" fill="#3C4A5B"/>
<path d="M75.01 74.4704C73.79 74.6404 72.58 74.6204 71.36 74.4704C72.58 74.2004 73.79 74.3104 75.01 74.4704Z" fill="#3C4A5B"/>
<path d="M74.71 69.0394C74.12 68.9794 73.48 69.2694 72.94 68.8194C73.54 68.7894 74.18 68.4994 74.71 69.0394Z" fill="#3C4A5B"/>
<path d="M70.02 74.4805C69.48 74.6105 68.95 74.6005 68.41 74.4805C68.95 74.2205 69.48 74.2405 70.02 74.4805Z" fill="#3C4A5B"/>
<path d="M58.91 67.9299C59.37 67.7899 59.84 67.7899 60.31 67.9099C59.85 68.1299 59.38 68.1399 58.91 67.9299Z" fill="#3C4A5B"/>
<path d="M74.89 70.0905C74.62 69.7805 74.7 69.4205 74.73 69.0605C75.09 69.3605 74.95 69.7305 74.89 70.0905Z" fill="#3C4A5B"/>
<path d="M61.75 67.62C61.72 67.24 61.69 66.86 61.87 66.5C62.09 66.9 62.19 67.29 61.75 67.62Z" fill="#3C4A5B"/>
<path d="M149.36 74.5605C149.03 74.5405 148.69 74.6405 148.39 74.4205C148.73 74.3305 149.09 74.1405 149.36 74.5605Z" fill="#3C4A5B"/>
<path d="M70.45 68.8501C70.14 69.2001 69.75 69.0501 69.39 69.0301C69.69 68.6301 70.08 68.7701 70.45 68.8501Z" fill="#3C4A5B"/>
<path d="M149.42 78.5395C149.37 78.1895 149.29 77.8295 149.55 77.5195C149.66 77.8795 149.77 78.2395 149.42 78.5395Z" fill="#3C4A5B"/>
<path d="M51.03 68.0092C51.31 67.7992 51.56 67.7792 51.78 68.0892C51.53 68.0592 51.28 68.0292 51.03 68.0092Z" fill="#3C4A5B"/>
<path d="M149.51 75.3003C149.32 75.0803 149.35 74.8303 149.37 74.5703C149.66 74.7703 149.66 75.0203 149.51 75.3003Z" fill="#3C4A5B"/>
<path d="M128.06 75.5293C128.28 75.7993 128.26 76.0493 128.02 76.2893C128.03 76.0393 128.05 75.7793 128.06 75.5293Z" fill="#3C4A5B"/>
<path d="M72.44 68.8301C72.27 69.0701 72.11 69.0701 71.95 68.8301C72.11 68.8301 72.28 68.8301 72.44 68.8301Z" fill="#3C4A5B"/>
<path d="M78.15 78.4795C78.19 78.2995 78.22 78.1195 78.26 77.9395C78.43 78.1595 78.6 78.3895 78.15 78.4795Z" fill="#3C4A5B"/>
<path d="M149.52 76.2893C149.35 76.1193 149.34 75.9493 149.52 75.7793C149.62 75.9493 149.62 76.1193 149.52 76.2893Z" fill="#3C4A5B"/>
<path d="M127.92 74.5801C128.21 74.6201 128.27 74.7801 128.14 75.0301C128.07 74.8801 127.99 74.7301 127.92 74.5801Z" fill="#3C4A5B"/>
<path d="M73.94 73.2999C74.12 73.2299 74.3 73.1598 74.49 73.0898C74.39 73.3698 74.18 73.3699 73.94 73.2999Z" fill="#3C4A5B"/>
<path d="M62.86 66.25C62.98 66.47 62.99 66.68 62.77 66.85C62.66 66.63 62.68 66.43 62.86 66.25Z" fill="#3C4A5B"/>
<path d="M71.45 68.8301C71.29 69.0801 71.12 69.0801 70.95 68.8301C71.12 68.8301 71.28 68.8301 71.45 68.8301Z" fill="#3C4A5B"/>
<path d="M71.03 74.4591C70.81 74.4591 70.6 74.4691 70.38 74.4791C70.59 74.2891 70.81 74.2891 71.03 74.4591Z" fill="#3C4A5B"/>
<path d="M74.71 71.1103C74.77 70.9303 74.83 70.7503 74.88 70.5703C74.96 70.7903 74.96 70.9903 74.71 71.1103Z" fill="#3C4A5B"/>
<path d="M69.94 73.2596C70.03 73.1296 70.12 73.1296 70.21 73.2596C70.12 73.2596 70.03 73.2596 69.94 73.2596Z" fill="#3C4A5B"/>
<path d="M78.13 74.5602C78.06 74.5102 77.98 74.4702 77.91 74.4202C78.05 74.3602 78.11 74.4302 78.13 74.5602Z" fill="#3C4A5B"/>
<path d="M67.95 73.27C68.03 73.12 68.12 73.1 68.22 73.26C68.13 73.26 68.04 73.26 67.95 73.27Z" fill="#3C4A5B"/>
<path d="M76.26 74.4607C76.15 74.4607 76.04 74.4507 75.93 74.4407C76.05 74.3407 76.15 74.3607 76.26 74.4607Z" fill="#3C4A5B"/>
<path d="M60.97 67.8598C61.06 67.8598 61.15 67.8498 61.24 67.8398C61.15 67.8398 61.06 67.8498 60.97 67.8598Z" fill="#3C4A5B"/>
<path d="M50.02 67.9907C50.11 67.8807 50.2 67.8807 50.29 67.9907C50.2 67.9907 50.11 67.9907 50.02 67.9907Z" fill="#3C4A5B"/>
<path d="M49.03 67.9703C49.13 67.8703 49.22 67.8703 49.3 67.9803C49.21 67.9803 49.12 67.9803 49.03 67.9703Z" fill="#3C4A5B"/>
<path d="M139.43 74.4199C139.32 74.4299 139.21 74.4399 139.09 74.4499C139.2 74.4399 139.31 74.4299 139.43 74.4199Z" fill="#3C4A5B"/>
<path d="M147.9 74.4009C147.8 74.5109 147.71 74.5009 147.63 74.3809C147.72 74.3809 147.81 74.3909 147.9 74.4009Z" fill="#3C4A5B"/>
<path d="M46.59 67.8301C46.68 67.8601 46.77 67.8901 46.87 67.9201C46.73 68.0501 46.62 68.0701 46.59 67.8301Z" fill="#3C4A5B"/>
<path d="M68.95 73.2694C69.04 73.1394 69.13 73.1394 69.22 73.2694C69.13 73.2694 69.04 73.2694 68.95 73.2694Z" fill="#3C4A5B"/>
<path d="M72.93 73.2795C73.02 73.1595 73.11 73.1595 73.19 73.2795C73.1 73.2795 73.01 73.2795 72.93 73.2795Z" fill="#3C4A5B"/>
<path d="M62.89 65.2695C62.89 65.4195 62.87 65.5695 62.86 65.7195C62.71 65.5595 62.72 65.4095 62.89 65.2695Z" fill="#3C4A5B"/>
<path d="M78.23 75.1109C78.23 74.9809 78.24 74.8509 78.25 74.7109C78.42 74.8509 78.4 74.9809 78.23 75.1109Z" fill="#3C4A5B"/>
<path d="M45.54 75.2691C45.5 75.1891 45.51 75.1091 45.57 75.0391C45.59 75.0991 45.61 75.1491 45.62 75.2091C45.62 75.2291 45.57 75.2491 45.54 75.2691Z" fill="#3C4A5B"/>
<path d="M62.9 64.5293C62.9 64.6693 62.9 64.8093 62.9 64.9593C62.74 64.8193 62.74 64.6693 62.9 64.5293Z" fill="#3C4A5B"/>
<path d="M71.93 73.2696C72.02 73.1396 72.11 73.1496 72.2 73.2696C72.11 73.2696 72.02 73.2696 71.93 73.2696Z" fill="#3C4A5B"/>
<path d="M61.83 64.9593C61.83 64.8193 61.83 64.6693 61.83 64.5293C61.98 64.6693 61.98 64.8093 61.83 64.9593Z" fill="#3C4A5B"/>
<path d="M128.02 77.7598C128.05 77.8198 128.09 77.8798 128.11 77.9498C128.11 77.9698 128.06 78.0098 128.04 78.0298C128.04 77.9398 128.03 77.8498 128.02 77.7598Z" fill="#3C4A5B"/>
<path d="M70.94 73.2498C71.03 73.1198 71.12 73.1198 71.21 73.2498C71.12 73.2498 71.03 73.2498 70.94 73.2498Z" fill="#3C4A5B"/>
<path d="M149.12 78.7308C149.22 78.6708 149.31 78.6108 149.41 78.5508C149.38 78.7108 149.27 78.7608 149.12 78.7308Z" fill="#3C4A5B"/>
<path d="M34.6 74.3203C34.93 74.3503 35.27 74.3703 35.6 74.4003C35.24 74.6303 34.91 74.6103 34.6 74.3203Z" fill="#3C4A5B"/>
<path d="M40.33 68.0494C40.16 68.0294 39.99 68.0094 39.82 67.9894C40.02 67.7894 40.18 67.8594 40.33 68.0494Z" fill="#3C4A5B"/>
<path d="M38.07 74.3594C38.24 74.3594 38.42 74.3594 38.59 74.3594C38.42 74.5494 38.24 74.5494 38.07 74.3594Z" fill="#3C4A5B"/>
<path d="M39.07 74.3501C39.24 74.3501 39.41 74.3401 39.59 74.3301C39.42 74.5201 39.25 74.5501 39.07 74.3501Z" fill="#3C4A5B"/>
<path d="M37.32 74.3594C37.41 74.3594 37.5 74.3594 37.59 74.3594C37.5 74.4794 37.41 74.4794 37.32 74.3594Z" fill="#3C4A5B"/>
<path d="M103.8 74.3906C103.89 74.3906 103.98 74.3906 104.08 74.3906C103.99 74.5106 103.9 74.5106 103.8 74.3906Z" fill="#3C4A5B"/>
<path d="M104.8 74.3906C104.89 74.3906 104.98 74.3906 105.08 74.3906C104.99 74.5106 104.9 74.5106 104.8 74.3906Z" fill="#3C4A5B"/>
</svg>
