<svg width="256" height="142" viewBox="0 0 256 142" fill="none" xmlns="http://www.w3.org/2000/svg">
<path d="M62.8903 65.2702C62.8903 65.1702 62.8903 65.0602 62.8903 64.9602C62.8903 64.8202 62.8903 64.6802 62.8903 64.5302C62.6503 63.4402 63.0803 63.0902 64.1903 63.1102C68.4903 63.1602 72.8003 63.1302 77.1103 63.1302C77.8003 63.1302 78.5003 63.0002 78.0203 64.1502C77.8003 64.6702 77.9403 65.3802 78.0503 65.9802C78.3703 67.6102 78.2103 67.8502 76.5403 67.8702C73.7303 67.8902 70.9103 67.8802 68.1003 67.9102C67.7003 67.9102 67.0403 67.7302 67.0403 68.3902C67.0403 69.0202 67.6103 69.0702 68.1403 69.0302C68.5503 69.0002 68.9703 69.0302 69.3803 69.0302C69.7503 69.0502 70.1403 69.2002 70.4403 68.8502C70.6003 68.8502 70.7703 68.8402 70.9303 68.8302C71.1003 69.0702 71.2603 69.0702 71.4303 68.8302C71.6003 68.8302 71.7603 68.8302 71.9303 68.8302C72.0903 69.0802 72.2503 69.0802 72.4203 68.8302C72.5903 68.8302 72.7503 68.8302 72.9203 68.8202C73.4603 69.2802 74.1003 68.9802 74.6903 69.0402L74.7003 69.0502C74.6703 69.4102 74.6003 69.7702 74.8603 70.0802C74.8603 70.2402 74.8603 70.4002 74.8603 70.5602C74.8003 70.7402 74.7403 70.9202 74.6903 71.1002C74.5303 71.7502 74.8803 72.4602 74.4603 73.0902C74.2803 73.1602 74.1003 73.2302 73.9103 73.3002C73.6603 73.3002 73.4203 73.2902 73.1703 73.2802C73.0903 73.1502 73.0003 73.1502 72.9103 73.2802C72.6703 73.2802 72.4203 73.2802 72.1803 73.2802C72.0903 73.1502 72.0003 73.1502 71.9103 73.2802C71.6703 73.2802 71.4303 73.2802 71.1903 73.2702C71.1003 73.1402 71.0103 73.1402 70.9203 73.2702C70.6803 73.2702 70.4403 73.2702 70.2003 73.2702C70.1103 73.1402 70.0203 73.1502 69.9303 73.2702C69.6903 73.2702 69.4503 73.2702 69.2103 73.2702C69.1203 73.1402 69.0303 73.1402 68.9403 73.2702C68.7003 73.2702 68.4603 73.2602 68.2203 73.2502C68.1203 73.0902 68.0303 73.1102 67.9503 73.2602C67.4603 73.2402 67.0303 73.4502 66.8803 73.8802C66.7803 74.1502 67.2003 74.2602 67.4503 74.3702C67.5703 74.4002 67.6803 74.4302 67.8003 74.4602C68.0003 74.4702 68.2003 74.4802 68.4003 74.5002C68.9403 74.6102 69.4803 74.6202 70.0103 74.5002C70.1303 74.5002 70.2503 74.5002 70.3703 74.5002C70.5903 74.5002 70.8003 74.4902 71.0203 74.4802C71.1303 74.4802 71.2403 74.4802 71.3503 74.4802C72.5703 74.6402 73.7803 74.6602 75.0003 74.4802C75.3103 74.4802 75.6103 74.4602 75.9203 74.4502C76.0303 74.4502 76.1403 74.4602 76.2503 74.4702C76.8003 74.4602 77.3503 74.4402 77.9003 74.4302C77.9703 74.4802 78.0503 74.5202 78.1203 74.5702C78.1903 74.6002 78.2303 74.6502 78.2403 74.7202C78.2403 74.8502 78.2303 74.9802 78.2203 75.1202C78.2303 76.0602 78.2403 77.0002 78.2503 77.9402C78.2103 78.1202 78.1803 78.3002 78.1403 78.4802C77.3903 78.9902 76.6403 79.1002 75.7103 78.8702C74.8903 78.6702 73.9803 78.7802 73.1203 78.8202C69.9903 78.9602 66.8503 78.5602 63.7203 79.0102C62.9903 79.1102 62.6803 78.7402 62.6803 78.0002C62.7203 74.2902 62.5603 70.5702 62.7603 66.8602C62.9803 66.6902 62.9703 66.4802 62.8503 66.2602C62.8503 66.0802 62.8503 65.9002 62.8503 65.7202C62.8603 65.5702 62.8703 65.4202 62.8803 65.2702H62.8903Z" fill="#444242"/>
<path d="M180.97 63.1284C182.75 63.1284 184.54 63.1584 186.32 63.1184C187.2 63.0984 187.51 63.4284 187.44 64.2884C187.38 65.0284 187.4 65.7784 187.46 66.5184C187.54 67.5684 187.05 67.9084 186.06 67.8884C183.24 67.8384 180.42 67.8284 177.6 67.8184C176.02 67.8184 175.99 67.8784 176.01 69.4084C176.03 70.6884 176.06 71.9684 176.03 73.2484C176.01 74.1184 176.29 74.5583 177.24 74.5283C178.9 74.4783 180.56 74.4884 182.22 74.4584C182.62 74.4584 183.18 74.4984 183.2 73.9484C183.23 73.3484 182.68 73.3083 182.21 73.2783C180.623 73.1716 179.807 72.3251 179.76 70.7384C179.76 70.6184 179.76 70.4884 179.76 70.3684C179.73 68.5884 179.73 68.5884 181.48 68.5884C183.06 68.5884 184.63 68.6284 186.21 68.6084C186.92 68.6084 187.19 68.8184 187.29 69.5784C187.66 72.3384 187.36 75.0984 187.48 77.8584C187.51 78.7084 186.9 78.7284 186.29 78.7284C184.17 78.7284 182.06 78.7484 179.94 78.7484C178.59 78.7484 177.24 78.6784 175.89 78.7584C175.09 78.8084 174.66 78.5084 174.32 77.8684C174.13 77.5084 173.95 77.0684 173.63 76.8484C171.98 75.7284 171.93 74.1084 172.01 72.3584C172.09 70.6284 172.04 68.8884 172.01 67.1484C172.01 66.5184 172.15 66.0284 172.73 65.6884C173.32 65.3484 173.81 64.8484 174.06 64.2484C174.47 63.2784 175.13 63.0384 176.11 63.0784C177.72 63.1484 179.34 63.0984 180.96 63.0984L180.97 63.1284Z" fill="#444242"/>
<path d="M45.5403 75.2706C44.7603 76.5606 43.4303 77.3406 42.5103 78.5006C42.2403 78.8406 41.7703 78.8306 41.3503 78.8206C38.7403 78.8006 36.1203 78.7606 33.5103 78.7806C32.9203 78.7806 32.5203 78.5606 32.1003 78.1906C30.1103 76.4106 29.2703 74.3006 29.7903 71.6106C30.0203 70.4206 29.8203 69.1406 29.8203 67.9006C29.8203 66.0606 30.7703 64.7106 32.0903 63.5606C32.4903 63.2106 32.9603 63.1406 33.4803 63.1406C35.8903 63.1606 38.2903 63.1406 40.7003 63.1406C41.6503 63.1406 42.4503 63.4706 43.0703 64.2006C44.0403 65.3506 45.6103 66.0906 45.6103 67.9106C45.6103 69.3806 45.6503 70.8506 45.6503 72.3106C45.6503 73.2206 45.6003 74.1306 45.5703 75.0406C45.5203 75.1106 45.5103 75.1906 45.5403 75.2706ZM39.5903 74.3406C40.6003 74.4406 40.9603 74.0306 40.8803 72.9906C40.7803 71.6806 40.8503 70.3506 40.8403 69.0306C40.8403 68.6306 40.9303 68.1706 40.3403 68.0506C40.1903 67.8606 40.0203 67.7906 39.8303 67.9906C38.3403 67.9906 36.8503 67.9606 35.3703 67.9806C34.9903 67.9806 34.4003 67.8706 34.4103 68.4706C34.4503 70.4206 34.0903 72.3906 34.6103 74.3206C34.9203 74.6106 35.2603 74.6306 35.6103 74.4006C36.1803 74.3906 36.7603 74.3806 37.3303 74.3706C37.4203 74.4906 37.5103 74.4906 37.6003 74.3706C37.7603 74.3706 37.9203 74.3706 38.0803 74.3706C38.2503 74.5706 38.4203 74.5706 38.6003 74.3706C38.7603 74.3706 38.9203 74.3706 39.0803 74.3706C39.2603 74.5706 39.4303 74.5506 39.6003 74.3506L39.5903 74.3406Z" fill="#444242"/>
<path d="M156.4 78.7513C154.74 78.7513 153.08 78.7213 151.42 78.7613C150.63 78.7813 150.34 78.5313 150.33 77.6913C150.32 73.2313 150 68.7813 150.12 64.3213C150.15 63.3513 150.16 62.9813 151.44 63.0613C154.62 63.2713 157.82 63.1713 161.01 63.1113C162 63.0913 162.68 63.4213 163.21 64.1913C163.37 64.4313 163.53 64.7213 163.76 64.8513C165.69 65.9213 165.75 67.6913 165.61 69.5713C165.56 70.2713 165.49 70.9913 165.61 71.6713C166.06 74.3513 164.95 76.3813 163.06 78.1313C162.6 78.5613 162.11 78.7513 161.5 78.7413C159.8 78.7413 158.1 78.7413 156.4 78.7413V78.7513ZM154.35 71.1313C154.35 71.1313 154.39 71.1313 154.41 71.1313C154.41 72.0013 154.41 72.8613 154.41 73.7313C154.41 74.2713 154.63 74.5713 155.23 74.5513C157.04 74.4913 158.86 74.6813 160.66 74.3313C161.1 74.2413 161.33 74.1413 161.33 73.6613C161.33 72.0913 161.36 70.5313 161.38 68.9613C161.38 68.4413 161.24 68.0113 160.63 68.0813C158.89 68.2813 157.19 67.7813 155.45 67.8013C154.62 67.8113 154.23 67.9913 154.33 68.9013C154.41 69.6313 154.35 70.3813 154.35 71.1213V71.1313Z" fill="#444242"/>
<path d="M209.62 73.581C209.62 72.341 209.67 71.101 209.6 69.861C209.56 69.031 209.9 68.631 210.61 68.251C212.52 67.231 214.09 65.811 215.12 63.861C215.34 63.441 215.66 63.141 216.17 63.131C216.38 63.131 216.59 63.151 216.79 63.131C219.06 62.881 221.04 63.011 222.1 65.591C222.57 66.731 223.8 67.491 224.88 68.181C225.54 68.601 225.83 69.181 225.83 69.941C225.83 72.581 225.83 75.221 225.86 77.871C225.86 78.321 225.73 78.581 225.25 78.601C224.26 78.651 223.27 78.701 222.28 78.761C221.52 78.811 221.24 78.451 221.3 77.711C221.35 77.091 221.26 76.461 221.34 75.851C221.47 74.841 221.15 74.441 220.08 74.491C218.55 74.561 217.02 74.521 215.48 74.491C214.77 74.471 214.58 74.751 214.58 75.451C214.58 78.761 214.56 78.761 211.3 78.771C210.18 78.771 209.62 78.201 209.62 77.061C209.62 75.901 209.62 74.751 209.62 73.591V73.581ZM218.06 70.321C218.8 70.321 219.54 70.331 220.29 70.321C220.61 70.321 220.88 70.261 220.65 69.811C219.64 67.801 216.85 67.561 215.46 69.351C214.98 69.971 215.19 70.261 215.84 70.311C216.58 70.371 217.32 70.321 218.07 70.321H218.06Z" fill="#444242"/>
<path d="M128.06 75.5306C128.09 75.3606 128.11 75.1906 128.14 75.0306C128.26 74.7806 128.2 74.6206 127.92 74.5806C126.23 74.5706 124.54 74.5706 122.84 74.5306C121.98 74.5106 121.63 74.8806 121.73 75.7206C121.77 76.0506 121.7 76.3806 121.75 76.7106C122.09 78.8406 122.09 78.8806 119.99 78.7806C119.07 78.7406 118.11 79.0506 117.22 78.5706C117.46 75.5506 116.92 72.5506 116.97 69.5306C116.89 69.1206 117.08 68.8406 117.4 68.6006C119.3 67.1806 120.94 65.5006 122.38 63.6406C122.7 63.2306 123.1 63.2206 123.55 63.1206C126.18 62.5506 127.82 63.8306 129.31 65.8206C130.18 66.9906 131.29 68.1406 132.93 68.3906C132.65 69.3506 132.69 70.3406 132.69 71.3206C132.69 73.7906 132.69 76.2706 132.68 78.7506C131.41 78.8406 130.14 78.9306 128.87 79.0306C128.13 79.0906 127.91 78.7206 128.03 78.0506C128.06 78.0206 128.11 77.9906 128.1 77.9706C128.08 77.9006 128.04 77.8406 128.01 77.7806C128.01 77.2906 128.01 76.8006 128.01 76.3106C128.25 76.0706 128.27 75.8206 128.05 75.5506L128.06 75.5306ZM124.87 70.3206C125.45 70.3206 126.03 70.3206 126.61 70.3206C126.9 70.3206 127.26 70.3206 127.33 70.0106C127.38 69.8206 127.23 69.5306 127.09 69.3406C126.02 67.8706 124.16 67.7806 122.95 69.1306C122.74 69.3706 122.39 69.6106 122.54 69.9706C122.7 70.3706 123.13 70.3506 123.5 70.3406C123.96 70.3406 124.41 70.3406 124.87 70.3406V70.3206Z" fill="#444242"/>
<path d="M17.7597 73.1518C17.8397 74.5318 17.9397 75.9218 17.9797 77.3118C18.0297 78.8618 17.8597 79.0119 16.3297 79.0119C15.6197 79.0119 14.9097 78.9518 14.2097 79.0218C12.9697 79.1418 12.6397 78.5618 12.6697 77.4318C12.7997 73.0918 12.8197 68.7518 12.6697 64.4118C12.6297 63.3418 13.0297 63.0918 14.0297 63.1018C17.5597 63.1518 21.0797 63.1218 24.6097 63.1218C24.9797 63.1218 25.3797 63.0218 25.6997 63.2818C27.4497 64.6918 29.4297 65.9219 29.2197 68.6519C29.0897 70.3419 26.8797 73.1518 25.1697 73.2718C23.1497 73.4118 21.1097 73.3018 19.0697 73.3118C18.7397 73.3118 18.5497 73.0918 18.3397 72.9018C18.3597 71.9918 18.4297 71.0818 18.3897 70.1818C18.3597 69.3618 18.6997 69.0818 19.4897 69.1018C20.8097 69.1318 22.1397 69.1118 23.4697 69.0718C23.8697 69.0618 24.3797 68.9518 24.3797 68.4318C24.3797 67.9018 23.9097 67.8218 23.4697 67.8218C21.8497 67.8218 20.2397 67.8218 18.6197 67.8218C17.9597 67.8218 17.5797 68.0918 17.6497 68.7818C17.8197 70.2418 17.7897 71.7018 17.7597 73.1618V73.1518Z" fill="#444242"/>
<path d="M90.3698 66.8614C90.3698 66.6514 90.3698 66.4515 90.3698 66.2415C90.3698 63.0115 90.3698 63.0415 93.6298 63.1115C94.4298 63.1315 94.6798 63.4315 94.5998 64.1315C94.3398 66.4315 94.3498 68.7314 94.4198 71.0414C94.4898 73.2514 94.1798 75.4715 94.5298 77.6915C94.6098 78.1915 94.4598 78.7815 93.5898 78.8015C92.2898 78.8315 91.1698 78.6915 90.2998 77.5715C88.6598 75.4515 86.3898 73.9515 84.6298 71.9415C84.3498 71.6215 84.0298 71.1415 83.5098 71.3215C82.9298 71.5315 83.2598 72.1015 83.2498 72.4915C83.2098 74.1015 83.1998 75.7115 83.2398 77.3215C83.2598 78.3415 82.9398 78.7915 81.8198 78.7815C79.1798 78.7615 79.2698 78.8014 79.1298 76.1814C78.9598 72.8914 78.9398 69.6115 79.3498 66.3415C79.4298 65.6815 79.2398 65.0415 79.1498 64.4015C78.9898 63.2115 79.5698 62.8315 80.7798 63.0515C82.2498 63.3215 83.0198 64.4114 83.9798 65.3614C85.7898 67.1514 87.6798 68.8615 89.5698 70.5715C90.1398 71.0815 90.3598 70.6315 90.3698 70.0915C90.3898 69.0215 90.3698 67.9415 90.3698 66.8715V66.8614Z" fill="#444242"/>
<path d="M110.77 78.7372C107.29 78.7572 103.81 78.7372 100.33 78.8072C99.2003 78.8272 98.3203 78.4772 97.5903 77.6472C96.9903 76.9672 96.4503 76.2572 95.7303 75.6772C95.4403 75.4372 95.3203 75.0172 95.3203 74.5672C95.3403 72.1672 95.3203 69.7772 95.3203 67.3772C95.3203 66.6472 95.5203 66.0772 96.1503 65.5972C96.7603 65.1272 97.2103 64.4672 97.7603 63.9072C98.1503 63.5072 98.5503 63.1172 99.2003 63.1172C103.01 63.1372 106.83 63.1372 110.64 63.1472C110.76 63.1472 110.88 63.2172 110.99 63.2472C110.75 64.0772 110.79 64.9372 110.77 65.7972C110.75 66.4772 111 67.1872 110.53 67.8172C109.94 68.3772 109.27 67.9572 108.64 67.9572C106.11 67.9772 103.58 67.9172 101.05 67.9472C100.46 67.9472 99.6203 67.7172 99.6203 68.8172C99.6203 70.3872 99.5803 71.9572 99.5503 73.5272C99.5403 74.2272 99.8003 74.6072 100.58 74.5572C101.65 74.4772 102.72 74.4472 103.79 74.3972C103.88 74.5172 103.97 74.5172 104.07 74.3972C104.31 74.3972 104.55 74.3972 104.79 74.3972C104.88 74.5172 104.97 74.5172 105.07 74.3972C106.89 74.3972 108.7 74.3872 110.52 74.3772C111 75.8072 110.78 77.2772 110.78 78.7372H110.77Z" fill="#444242"/>
<path d="M201.45 63.1275C203.77 63.1275 206.1 63.1575 208.42 63.1175C209.24 63.1075 209.53 63.3675 209.47 64.1875C209.4 65.0075 209.4 65.8475 209.47 66.6675C209.57 67.7975 208.99 68.1575 207.99 68.0975C206.88 68.0275 205.77 67.9475 204.67 67.8475C203.71 67.7675 203.29 68.1475 203.4 69.1375C203.72 71.8875 203.58 74.6575 203.65 77.4175C203.67 78.4275 203.34 78.8775 202.29 78.7675C201.23 78.6575 199.85 79.2075 199.17 78.5675C198.47 77.9175 198.96 76.5375 198.94 75.4775C198.9 73.2875 198.9 71.0975 198.94 68.9075C198.96 68.1375 198.67 67.8975 197.93 67.9175C196.77 67.9475 195.61 67.8875 194.45 67.8875C193.72 67.8875 193.39 67.5175 193.41 66.8075C193.41 66.7675 193.41 66.7275 193.41 66.6875C193.317 64.3209 194.463 63.1375 196.85 63.1375C198.38 63.1375 199.92 63.1375 201.45 63.1375V63.1275Z" fill="#444242"/>
<path d="M234.41 78.75C232.17 78.75 229.93 78.72 227.7 78.76C226.79 78.78 226.41 78.48 226.47 77.55C226.75 72.93 226.15 68.34 225.86 63.74C225.83 63.29 225.98 63.13 226.39 63.13C227.76 63.13 229.13 63.11 230.49 63.13C231.27 63.15 231.08 63.78 231.08 64.24C231.08 67.21 231.08 70.19 231.01 73.16C230.98 74.19 231.32 74.53 232.36 74.51C235.3 74.46 238.24 74.51 241.18 74.48C241.97 74.48 242.36 74.7 242.29 75.53C242.27 75.78 242.29 76.03 242.29 76.27C242.29 77.9033 241.447 78.72 239.76 78.72C237.98 78.72 236.2 78.72 234.41 78.72V78.75Z" fill="#444242"/>
<path d="M51.0298 68.0128C50.7898 68.0128 50.5398 68.0028 50.2998 67.9928C50.2098 67.8728 50.1198 67.8828 50.0298 67.9928C49.7898 67.9928 49.5498 67.9928 49.3098 67.9928C49.2198 67.8828 49.1298 67.8728 49.0398 67.9828C48.3198 67.9628 47.5998 67.9428 46.8798 67.9328C46.7898 67.9028 46.6898 67.8728 46.5998 67.8428C46.5898 66.5228 46.5998 65.2028 46.5498 63.8828C46.5298 63.2528 46.8098 63.1328 47.3698 63.1328C51.8898 63.1428 56.4098 63.1628 60.9398 63.1328C62.1198 63.1328 61.9098 63.8428 61.8398 64.5428C61.8398 64.6828 61.8398 64.8328 61.8398 64.9728C61.8498 65.4828 61.8698 65.9928 61.8798 66.5028C61.6998 66.8628 61.7298 67.2428 61.7598 67.6228C61.6498 67.8328 61.4498 67.8528 61.2398 67.8528C61.1498 67.8528 61.0598 67.8628 60.9698 67.8728C60.7498 67.8928 60.5298 67.9028 60.3098 67.9228C59.8398 67.8028 59.3698 67.8028 58.9098 67.9428C57.1298 67.9494 56.2498 68.8461 56.2698 70.6328C56.2898 72.9828 56.2798 75.3328 56.3398 77.6828C56.3598 78.5028 56.0098 78.8128 55.2498 78.8128C55.2098 78.8128 55.1698 78.8128 55.1298 78.8128C54.0698 78.6928 52.3998 79.3028 52.0698 78.5628C51.5498 77.3928 51.6798 75.8428 51.8298 74.4428C52.0498 72.3328 52.1498 70.2128 51.7698 68.1028C51.5498 67.7928 51.2998 67.8028 51.0198 68.0228L51.0298 68.0128Z" fill="#444242"/>
<path d="M139.43 74.4185C142.16 74.4085 144.89 74.3885 147.63 74.3785C147.71 74.4985 147.81 74.5085 147.9 74.3985C148.06 74.3985 148.23 74.4085 148.39 74.4185C148.69 74.6385 149.04 74.5385 149.36 74.5585C149.34 74.8185 149.32 75.0685 149.5 75.2885C149.5 75.4485 149.5 75.6085 149.5 75.7685C149.32 75.9385 149.33 76.1085 149.5 76.2785C149.51 76.6885 149.52 77.0985 149.53 77.4985C149.27 77.8085 149.35 78.1685 149.4 78.5185V78.5285C149.3 78.5885 149.21 78.6485 149.11 78.7085C144.13 78.8685 139.16 78.8185 134.18 78.7285C133.89 77.8085 133.92 76.8685 133.93 75.9285C133.94 74.2385 134.01 72.5485 133.9 70.8685C133.84 69.9185 134.04 68.8385 133.22 68.0485C133.21 66.6485 133.2 65.2485 133.18 63.8485C133.18 63.1685 133.27 62.8485 134.17 63.0385C135.2 63.2485 136.31 63.1285 137.38 63.0885C137.96 63.0685 138.2 63.2385 138.16 63.8485C138 66.7485 138.4 69.6685 137.92 72.5685C137.78 73.3985 137.59 74.4785 139.06 74.4285C139.17 74.4185 139.28 74.4085 139.4 74.3985L139.43 74.4185Z" fill="#444242"/>
<path d="M11.1904 65.3605C11.6904 66.9205 10.5104 67.6905 9.2104 68.3505C8.4704 68.7205 7.8004 69.1905 7.1504 69.6905C6.2704 70.3705 6.3804 71.0205 7.0304 71.7605C7.9604 72.8205 9.0004 73.8205 10.2504 74.4105C11.3404 74.9305 11.6104 75.6505 11.4404 76.6605C11.3304 77.3605 11.9204 78.2905 10.8404 78.7005C9.7404 79.1105 7.5704 78.7705 7.1104 77.9505C6.0704 76.0905 4.6804 74.7005 2.8004 73.6505C1.7904 73.0905 1.1904 71.9305 1.2304 70.6105C1.2604 69.7505 1.5904 69.1205 2.3804 68.7405C4.1704 67.8805 6.5004 64.8305 6.5004 64.8305C6.5004 64.8305 9.0804 62.6205 10.8104 63.1205C11.2104 63.2405 11.1904 63.4805 11.2004 63.7705C11.2004 64.2205 11.2004 64.6805 11.2004 65.3505L11.1904 65.3605Z" fill="#444242"/>
<path d="M245.49 78.7571C245.02 78.6171 244.26 79.0971 244.01 78.1671C243.63 76.6971 244.01 75.2172 245.04 74.7972C246.64 74.1572 247.72 72.9172 248.93 71.7972C249.59 71.1872 249.46 70.7072 248.89 70.1572C248.08 69.3672 247.16 68.7671 246.15 68.2471C244.49 67.3971 243.68 65.3471 244.24 63.5871C244.31 63.3771 244.39 63.2071 244.62 63.1571C245.41 62.9971 247.87 63.1871 248.46 64.0371C248.91 64.6771 249.5 65.2271 249.9 65.8971C250.66 67.1871 251.68 68.1171 253.03 68.7971C255.15 69.8671 255.3 71.0772 253.64 72.7272C253.18 73.1872 252.66 73.6172 252.12 73.9772C251.08 74.6772 250.28 75.5772 249.57 76.6172C248.36 78.3872 247.53 78.7571 245.47 78.7571H245.49Z" fill="#444242"/>
<path d="M112.06 63.1996C113.29 63.1796 114.53 63.1796 115.76 63.1196C116.37 63.0896 116.54 63.3396 116.53 63.9096C116.5 65.4696 116.53 67.0296 116.53 68.5896C116.29 68.8196 116.07 69.0896 116.11 69.4396C116.48 72.4696 116.52 75.5196 116.56 78.5596C114.96 78.8696 113.37 79.0096 111.8 78.4596C111.74 76.9896 112.09 75.4996 111.59 74.0496C111.57 72.1496 111.54 70.2496 111.52 68.3496C111.72 68.2396 111.76 68.0496 111.81 67.8396C112.22 66.3096 111.99 64.7496 112.07 63.1996H112.06Z" fill="#444242"/>
<path d="M192.48 70.8598C192.48 73.0898 192.46 75.3198 192.49 77.5498C192.5 78.2898 192.25 78.6198 191.49 78.5898C190.7 78.5598 189.91 78.5498 189.13 78.5898C188.31 78.6398 188.17 78.2298 188.21 77.5298C188.36 74.7698 188.14 72.0098 188.14 69.2498C188.14 67.4098 188.04 65.4898 188.53 63.7598C188.92 62.3898 190.54 63.3298 191.58 63.1398C192.3 63.0098 192.46 63.5198 192.46 64.1598C192.44 66.0598 192.46 67.9598 192.46 69.8598C192.46 70.1898 192.46 70.5198 192.46 70.8498C192.46 70.8498 192.48 70.8498 192.49 70.8498L192.48 70.8598Z" fill="#444242"/>
<path d="M170.74 70.9379C170.74 73.1679 170.74 75.3979 170.74 77.6279C170.74 78.7979 170.39 79.0679 169.23 78.8079C166.69 78.2579 166.74 78.2579 166.73 75.6879C166.73 71.8879 166.67 68.0979 166.57 64.2979C166.55 63.3979 166.74 63.0879 167.71 63.0979C170.75 63.1179 170.75 63.0779 170.75 66.1079C170.75 67.7179 170.75 69.3279 170.75 70.9379H170.74Z" fill="#444242"/>
<path d="M75.0104 74.4685C73.7904 74.6385 72.5804 74.6185 71.3604 74.4685C72.5804 74.1985 73.7904 74.3085 75.0104 74.4685Z" fill="#444242"/>
<path d="M74.7104 69.0394C74.1204 68.9794 73.4804 69.2694 72.9404 68.8194C73.5404 68.7894 74.1804 68.4994 74.7104 69.0394Z" fill="#444242"/>
<path d="M70.0201 74.4805C69.4801 74.6105 68.9502 74.6005 68.4102 74.4805C68.9502 74.2205 69.4801 74.2405 70.0201 74.4805Z" fill="#444242"/>
<path d="M58.9102 67.928C59.3702 67.788 59.8402 67.788 60.3102 67.908C59.8502 68.128 59.3802 68.138 58.9102 67.928Z" fill="#444242"/>
<path d="M74.8899 70.0886C74.6199 69.7786 74.7 69.4186 74.73 69.0586C75.09 69.3586 74.9499 69.7286 74.8899 70.0886Z" fill="#444242"/>
<path d="M61.7502 67.62C61.7202 67.24 61.6902 66.86 61.8702 66.5C62.0902 66.9 62.1902 67.29 61.7502 67.62Z" fill="#444242"/>
<path d="M149.36 74.5586C149.03 74.5386 148.69 74.6386 148.39 74.4186C148.73 74.3286 149.09 74.1386 149.36 74.5586Z" fill="#444242"/>
<path d="M70.4496 68.852C70.1396 69.202 69.7496 69.052 69.3896 69.032C69.6896 68.632 70.0796 68.772 70.4496 68.852Z" fill="#444242"/>
<path d="M149.42 78.5395C149.37 78.1895 149.29 77.8295 149.55 77.5195C149.66 77.8795 149.77 78.2395 149.42 78.5395Z" fill="#444242"/>
<path d="M51.0303 68.0111C51.3103 67.8011 51.5603 67.7811 51.7803 68.0911C51.5303 68.0611 51.2803 68.0311 51.0303 68.0111Z" fill="#444242"/>
<path d="M149.51 75.3003C149.32 75.0803 149.35 74.8303 149.37 74.5703C149.66 74.7703 149.66 75.0203 149.51 75.3003Z" fill="#444242"/>
<path d="M128.06 75.5312C128.28 75.8013 128.26 76.0513 128.02 76.2913C128.03 76.0413 128.05 75.7812 128.06 75.5312Z" fill="#444242"/>
<path d="M72.4402 68.832C72.2702 69.072 72.1102 69.072 71.9502 68.832C72.1102 68.832 72.2802 68.832 72.4402 68.832Z" fill="#444242"/>
<path d="M78.1504 78.4814C78.1904 78.3014 78.2204 78.1214 78.2604 77.9414C78.4304 78.1614 78.6004 78.3914 78.1504 78.4814Z" fill="#444242"/>
<path d="M149.52 76.2913C149.35 76.1213 149.34 75.9513 149.52 75.7812C149.62 75.9513 149.62 76.1213 149.52 76.2913Z" fill="#444242"/>
<path d="M127.92 74.582C128.21 74.622 128.27 74.782 128.14 75.032C128.07 74.882 127.99 74.732 127.92 74.582Z" fill="#444242"/>
<path d="M73.9404 73.2999C74.1204 73.2299 74.3004 73.1598 74.4904 73.0898C74.3904 73.3698 74.1804 73.3699 73.9404 73.2999Z" fill="#444242"/>
<path d="M62.8598 66.25C62.9798 66.47 62.9898 66.68 62.7698 66.85C62.6598 66.63 62.6798 66.43 62.8598 66.25Z" fill="#444242"/>
<path d="M71.4502 68.832C71.2902 69.082 71.1202 69.082 70.9502 68.832C71.1202 68.832 71.2802 68.832 71.4502 68.832Z" fill="#444242"/>
<path d="M71.0299 74.461C70.8099 74.461 70.5999 74.471 70.3799 74.481C70.5899 74.291 70.8099 74.291 71.0299 74.461Z" fill="#444242"/>
<path d="M74.71 71.1103C74.77 70.9303 74.83 70.7503 74.88 70.5703C74.96 70.7903 74.96 70.9903 74.71 71.1103Z" fill="#444242"/>
<path d="M69.9404 73.2577C70.0304 73.1277 70.1204 73.1277 70.2104 73.2577C70.1204 73.2577 70.0304 73.2577 69.9404 73.2577Z" fill="#444242"/>
<path d="M78.1301 74.5602C78.0601 74.5102 77.9802 74.4702 77.9102 74.4202C78.0502 74.3602 78.1101 74.4302 78.1301 74.5602Z" fill="#444242"/>
<path d="M67.9502 73.27C68.0302 73.12 68.1202 73.1 68.2202 73.26C68.1302 73.26 68.0402 73.26 67.9502 73.27Z" fill="#444242"/>
<path d="M76.2597 74.4607C76.1497 74.4607 76.0397 74.4507 75.9297 74.4407C76.0497 74.3407 76.1497 74.3607 76.2597 74.4607Z" fill="#444242"/>
<path d="M60.9697 67.8598C61.0597 67.8598 61.1497 67.8498 61.2397 67.8398C61.1497 67.8398 61.0597 67.8498 60.9697 67.8598Z" fill="#444242"/>
<path d="M50.0195 67.9887C50.1095 67.8787 50.1995 67.8787 50.2895 67.9887C50.1995 67.9887 50.1095 67.9887 50.0195 67.9887Z" fill="#444242"/>
<path d="M49.0303 67.9722C49.1303 67.8722 49.2203 67.8722 49.3003 67.9822C49.2103 67.9822 49.1203 67.9822 49.0303 67.9722Z" fill="#444242"/>
<path d="M139.43 74.418C139.32 74.428 139.21 74.438 139.09 74.448C139.2 74.438 139.31 74.428 139.43 74.418Z" fill="#444242"/>
<path d="M147.9 74.4028C147.8 74.5128 147.71 74.5028 147.63 74.3828C147.72 74.3828 147.81 74.3928 147.9 74.4028Z" fill="#444242"/>
<path d="M46.5898 67.832C46.6798 67.862 46.7698 67.892 46.8698 67.922C46.7298 68.052 46.6198 68.072 46.5898 67.832Z" fill="#444242"/>
<path d="M68.9502 73.2694C69.0402 73.1394 69.1302 73.1394 69.2202 73.2694C69.1302 73.2694 69.0402 73.2694 68.9502 73.2694Z" fill="#444242"/>
<path d="M72.9297 73.2814C73.0197 73.1614 73.1097 73.1614 73.1897 73.2814C73.0997 73.2814 73.0097 73.2814 72.9297 73.2814Z" fill="#444242"/>
<path d="M62.8904 65.2695C62.8904 65.4195 62.8704 65.5695 62.8604 65.7195C62.7104 65.5595 62.7204 65.4095 62.8904 65.2695Z" fill="#444242"/>
<path d="M78.2305 75.1109C78.2305 74.9809 78.2405 74.8509 78.2505 74.7109C78.4205 74.8509 78.4005 74.9809 78.2305 75.1109Z" fill="#444242"/>
<path d="M45.5396 75.2691C45.4996 75.1891 45.5096 75.1091 45.5696 75.0391C45.5896 75.0991 45.6096 75.1491 45.6196 75.2091C45.6196 75.2291 45.5696 75.2491 45.5396 75.2691Z" fill="#444242"/>
<path d="M62.9003 64.5312C62.9003 64.6713 62.9003 64.8113 62.9003 64.9613C62.7403 64.8213 62.7403 64.6713 62.9003 64.5312Z" fill="#444242"/>
<path d="M71.9297 73.2696C72.0197 73.1396 72.1097 73.1496 72.1997 73.2696C72.1097 73.2696 72.0197 73.2696 71.9297 73.2696Z" fill="#444242"/>
<path d="M61.8301 64.9613C61.8301 64.8213 61.8301 64.6713 61.8301 64.5312C61.9801 64.6713 61.9801 64.8113 61.8301 64.9613Z" fill="#444242"/>
<path d="M128.02 77.7617C128.05 77.8217 128.09 77.8817 128.11 77.9517C128.11 77.9717 128.06 78.0117 128.04 78.0317C128.04 77.9417 128.03 77.8517 128.02 77.7617Z" fill="#444242"/>
<path d="M70.9404 73.2498C71.0304 73.1198 71.1204 73.1198 71.2104 73.2498C71.1204 73.2498 71.0304 73.2498 70.9404 73.2498Z" fill="#444242"/>
<path d="M149.12 78.7308C149.22 78.6708 149.31 78.6108 149.41 78.5508C149.38 78.7108 149.27 78.7608 149.12 78.7308Z" fill="#444242"/>
<path d="M34.5996 74.3203C34.9296 74.3503 35.2696 74.3703 35.5996 74.4003C35.2396 74.6303 34.9096 74.6103 34.5996 74.3203Z" fill="#444242"/>
<path d="M40.3303 68.0513C40.1603 68.0313 39.9903 68.0113 39.8203 67.9913C40.0203 67.7913 40.1803 67.8613 40.3303 68.0513Z" fill="#444242"/>
<path d="M38.0703 74.3594C38.2403 74.3594 38.4203 74.3594 38.5903 74.3594C38.4203 74.5494 38.2403 74.5494 38.0703 74.3594Z" fill="#444242"/>
<path d="M39.0703 74.352C39.2403 74.352 39.4103 74.342 39.5903 74.332C39.4203 74.522 39.2503 74.552 39.0703 74.352Z" fill="#444242"/>
<path d="M37.3203 74.3594C37.4103 74.3594 37.5003 74.3594 37.5903 74.3594C37.5003 74.4794 37.4103 74.4794 37.3203 74.3594Z" fill="#444242"/>
<path d="M103.8 74.3906C103.89 74.3906 103.98 74.3906 104.08 74.3906C103.99 74.5106 103.9 74.5106 103.8 74.3906Z" fill="#444242"/>
<path d="M104.8 74.3906C104.89 74.3906 104.98 74.3906 105.08 74.3906C104.99 74.5106 104.9 74.5106 104.8 74.3906Z" fill="#444242"/>
</svg>
