<svg width="256" height="142" viewBox="0 0 256 142" fill="none" xmlns="http://www.w3.org/2000/svg">
<path d="M245.85 105.54H10.17C10.34 105.26 10.28 105.06 9.98003 104.9C9.74003 104.78 9.51003 104.65 9.29003 104.49C8.52003 103.96 7.74003 103.46 7.00003 102.87C5.97003 102.05 5.15003 101.16 4.76003 99.9204C4.59003 99.3604 4.51003 98.7804 4.39003 98.2104C4.42003 98.1804 4.41003 98.1504 4.38003 98.1304C4.38003 98.0904 4.37003 98.0504 4.36003 98.0004C4.38003 97.8604 4.38003 97.7304 4.25003 97.6304C4.08003 96.9504 4.12003 96.2504 4.12003 95.5604C4.12003 80.2004 4.12003 64.8304 4.12003 49.4704C4.12003 47.5904 3.96003 45.7104 4.35003 43.8404L4.40003 43.4604C4.52003 43.1404 4.63003 42.8104 4.61003 42.4604C4.68003 42.2604 4.75003 42.0604 4.82003 41.8604C5.09003 41.3204 5.35003 40.7904 5.62003 40.2504C5.74003 40.1404 5.98003 40.1204 5.91003 39.8704C6.28003 39.4804 6.65003 39.0904 7.02003 38.7004C7.98003 37.6904 9.17003 37.0304 10.55 36.8404C12.05 36.6304 13.57 36.4404 15.09 36.4404C90.85 36.4204 166.61 36.4204 242.37 36.4304C242.79 36.4304 243.2 36.4804 243.62 36.5204C244.73 36.6204 245.77 36.9304 246.79 37.4004C248.05 37.9904 249.15 38.7504 249.97 39.8404C250.46 40.5004 251.05 41.0904 251.44 41.8204C251.52 41.9704 251.65 42.1404 251.89 42.1004V98.1004C251.67 98.3204 251.48 98.5504 251.4 98.8604C250.76 101.44 248.87 103.1 246.94 104.75C246.88 104.8 246.8 104.87 246.73 104.87C246.27 104.87 246.01 105.12 245.85 105.51V105.54ZM217.68 76.2004C217.94 75.9404 218.16 75.6604 218.32 75.3304C218.49 75.2004 218.63 75.0404 218.71 74.8404C220.03 73.3904 221.11 71.7604 222.18 70.1404C222.27 70.0104 222.35 69.8804 222.44 69.7504C222.47 69.7204 222.49 69.6804 222.52 69.6504C222.59 69.5704 222.66 69.5004 222.72 69.4104C225 66.3604 226.86 63.0304 229.34 60.1204C230.21 59.1004 230.75 57.9804 231 56.6904C231.15 55.9104 231 55.5504 230.21 55.3604C229.36 55.1604 228.49 55.0404 227.61 55.1104C227.18 55.0904 226.76 54.9504 226.31 54.9604C220.85 55.0704 215.39 54.8904 209.93 55.1204C209.32 55.1504 208.71 55.2504 208.17 55.6004C207.49 56.0504 207.39 56.5704 207.98 57.1004C208.37 57.4504 208.87 57.6504 209.39 57.6604C211.31 57.7004 213.23 57.7204 215.16 57.7604C218.4 57.8204 221.65 57.7504 224.9 57.8104C225.71 57.8204 225.89 58.0004 225.9 58.7904C225.86 59.0604 225.78 59.3104 225.63 59.5304C224.92 60.6004 224 61.5304 223.28 62.6004C222.76 63.3704 222.07 64.0404 221.59 64.8304C220.53 66.5704 219.23 68.1304 218.03 69.7604C217.58 70.4604 217.13 71.1604 216.67 71.8704C216.03 72.4604 215.77 73.2904 215.26 73.9504C213.17 76.7004 211.35 79.6304 209.34 82.4404C208.38 83.7804 207.41 85.1304 207.18 86.8404C207.08 87.5604 207.06 87.5804 207.84 87.5804C209.22 87.5804 210.61 87.5504 211.99 87.5404C215.18 87.5404 218.36 87.5404 221.55 87.5404C222.78 87.5804 224.02 87.6504 225.25 87.6504C227.19 87.6504 229.13 87.8104 231.07 87.6504C231.2 87.6404 231.3 87.6104 231.4 87.5104C231.96 86.9604 231.65 85.4604 230.91 85.2404C230.62 85.1504 230.3 85.0704 230 85.0704C227.74 85.0704 225.48 85.0904 223.22 85.1104C220.88 85.0904 218.53 85.1104 216.19 85.0504C215.12 85.0204 214.07 85.2304 213.01 85.1804C211.75 85.1204 211.45 84.5804 212.09 83.5504C212.22 83.3404 212.37 83.1404 212.53 82.9504C214.28 80.9104 216.02 78.8704 217.41 76.5604C217.55 76.4804 217.65 76.3704 217.69 76.2204L217.68 76.2004ZM176.86 85.0904C174.81 85.0404 172.76 85.0404 170.71 85.1104C168.44 85.1604 166.16 85.1604 163.89 85.0604C163.37 85.0404 163.14 84.8604 163.11 84.3504C163.06 83.5104 163.01 82.6804 163.09 81.8404C163.22 80.8904 163.2 79.9304 163.22 78.9704C163.26 76.6504 163.01 74.3204 163.29 72.0004C165.12 72.0204 166.95 72.0604 168.78 72.0604C171.64 72.0704 174.51 72.0604 177.37 72.0604C177.68 72.1104 177.98 72.1304 178.27 71.9904C179.25 71.9604 179.38 72.2004 179.38 70.9204C179.38 70.7604 179.37 70.5904 179.38 70.4304C179.41 70.0704 179.24 69.8804 178.89 69.7604C178.14 69.5004 177.38 69.4604 176.6 69.4704C173.71 69.4904 170.82 69.4904 167.93 69.5104C166.73 69.5204 165.53 69.4004 164.32 69.6004C163.31 69.7604 163.05 69.4604 163.01 68.4404C162.96 67.2304 163.03 66.0304 163.11 64.8304C163.19 62.7704 163.24 60.7204 163.14 58.6604C163.14 58.4904 163.16 58.3304 163.16 58.1604C163.45 57.8904 163.89 57.8504 164.14 57.5204C164.9 57.4104 165.67 57.3604 166.43 57.4404C167.13 57.5104 167.83 57.6004 168.54 57.5204C168.82 57.5704 169.11 57.6704 169.39 57.6704C171.92 57.7404 174.45 57.7804 176.99 57.8504C177.73 57.8704 178.45 57.7404 179.14 57.4904C179.87 57.2304 180.19 56.7804 180.12 56.1104C180.06 55.5804 179.65 55.2204 178.93 55.1204C178.35 55.0404 177.77 55.0104 177.19 54.9904C174.35 54.8804 171.5 54.9904 168.66 55.1504C167.16 55.1704 165.66 55.1804 164.16 55.2004C164.04 55.1404 163.91 55.1304 163.79 55.1904C162.75 55.0404 161.71 55.3304 160.67 55.1004C160.61 55.0904 160.54 55.1604 160.47 55.2004C159.91 55.2204 159.55 55.6304 159.63 56.0604C159.89 57.5204 159.57 58.9704 159.62 60.4204C159.67 61.7704 159.65 63.1204 159.67 64.4704C159.61 64.8004 159.61 65.1304 159.67 65.4704C159.64 65.5004 159.65 65.5304 159.68 65.5604C159.68 65.7304 159.7 65.8904 159.71 66.0604C159.71 66.0704 159.68 66.0904 159.69 66.1004C159.69 66.1304 159.71 66.1604 159.73 66.1804C159.51 66.6504 159.73 67.1304 159.73 67.6004C159.73 69.0204 159.73 70.4504 159.75 71.8704C159.67 75.1204 159.59 78.3704 159.62 81.6204C159.51 82.1404 159.71 82.6304 159.73 83.1404C159.78 84.0704 159.56 84.9704 159.59 85.8904C159.62 86.8104 160.15 87.3704 161.07 87.4104C162.24 87.4504 163.42 87.5704 164.59 87.5104C166.2 87.4304 167.8 87.8204 169.41 87.5804C172.01 87.7604 174.62 87.6704 177.22 87.6204C178.31 87.7104 179.37 87.6104 180.45 87.4404C180.86 87.3804 181.06 87.2104 181.12 86.8704C181.32 85.7804 181.11 85.3804 179.97 85.1904C178.94 85.0104 177.89 85.1004 176.84 85.1004L176.86 85.0904ZM122.27 77.6504C122.32 77.4504 122.33 77.2404 122.27 77.0404C122.29 76.7104 122.33 76.3904 122.32 76.0604C122.29 72.7204 122.25 69.3804 122.2 66.0404C122.18 64.5504 122.35 63.0604 122.01 61.5804C121.93 61.2504 121.77 60.8604 121.92 60.4204C122.42 60.8104 122.83 61.2204 123.36 61.4604C123.39 61.5104 123.42 61.5604 123.44 61.6104C123.35 61.7804 123.45 61.8304 123.59 61.8704C124.08 63.0104 124.52 64.1804 125.03 65.3104C125.92 67.2604 126.96 69.1504 127.81 71.1204C128.54 72.8004 129.02 74.6104 130.01 76.1504C130.87 77.4904 131.29 78.9804 131.9 80.4004C132.64 82.1304 133.08 84.0004 134.19 85.5704C134.5 86.0104 134.75 86.4804 134.92 86.9904C135.13 87.6304 135.72 87.7804 136.28 87.8704C136.7 87.9404 136.93 87.5604 137.07 87.2104C137.55 85.9704 138.23 84.8004 138.71 83.5604C140.11 79.9404 141.91 76.4904 143.26 72.8504C143.85 71.2404 144.58 69.6604 145.3 68.0904C146.07 66.3904 146.48 64.5504 147.39 62.9004C147.78 62.2004 148.15 61.4804 148.43 60.7304C148.61 60.2404 148.66 59.7104 149.06 59.3204C149.14 60.9104 149.23 62.4904 149.2 64.0904C149.1 70.5904 149.15 77.0804 149.15 83.5804C149.15 84.0704 149.16 84.5704 149.17 85.0604C149.17 85.2404 149.17 85.4304 149.17 85.6104C149.18 86.7104 149.86 87.6004 150.92 87.8804C151.76 88.1104 152.58 87.3104 152.57 86.2704C152.57 82.9604 152.57 79.6604 152.55 76.3504C152.54 74.3604 152.63 72.3704 152.45 70.3804C152.52 70.2104 152.51 70.0404 152.43 69.8804C152.43 68.7304 152.4 67.5804 152.41 66.4304C152.45 63.0804 152.5 59.7304 152.43 56.3804C152.41 55.5104 151.97 55.0904 151.06 55.0804C150.56 55.0804 150.05 55.0804 149.55 55.0804C148.12 55.0804 147.36 55.6304 146.92 56.9604C146.67 57.7204 146.42 58.4804 146.13 59.2304C145.44 61.0304 144.82 62.8604 144 64.6104C142.71 67.3704 141.12 70.0004 140.07 72.8804C139.79 73.6504 139.34 74.3604 139.08 75.1404C138.47 76.9804 137.33 78.6004 136.89 80.5004C136.78 80.9504 136.42 81.2504 135.86 81.2404C135.32 81.2404 135.22 80.8304 135.1 80.4704C134.76 79.4804 134.53 78.4404 134.01 77.5204C132.58 75.0304 131.85 72.2404 130.55 69.6904C129.47 67.5604 128.57 65.3304 127.68 63.1104C126.83 60.9804 125.65 58.9904 124.89 56.8104C124.65 56.1204 124.15 55.5004 123.44 55.3204C122.38 55.0404 121.28 54.8604 120.16 54.9604C119.7 55.0004 119.3 55.2104 119.19 55.6804C119 56.4904 118.86 57.3104 118.97 58.1604C118.97 58.3204 118.94 58.4904 118.94 58.6504C118.94 67.4104 118.94 76.1704 118.94 84.9304C118.94 85.0904 118.96 85.2604 118.97 85.4204C118.95 86.2804 119.21 86.9804 119.95 87.5504C120.54 88.0104 121.13 87.9104 121.67 87.7204C122.2 87.5404 122.37 86.9504 122.37 86.4404C122.37 84.5404 122.34 82.6404 122.31 80.7404C122.34 79.7104 122.35 78.6804 122.25 77.6504H122.27ZM110.67 86.9004C110.86 85.7404 110.81 84.5704 110.68 83.4104C110.59 82.6004 110.26 82.3804 109.43 82.3404C108.92 82.3104 108.44 82.4604 107.94 82.4604C104.44 82.4604 100.94 82.4604 97.43 82.4604C96.67 82.4604 96.55 82.3604 96.55 81.6304C96.61 73.2904 96.55 64.9504 96.7 56.6004C96.7 56.2704 96.7 55.9404 96.7 55.6204C96.7 55.2304 96.5 55.0204 96.09 54.9804C94.48 54.8504 92.87 54.9204 91.26 54.9604C90.75 54.9704 90.48 55.2404 90.48 55.8204C90.49 57.9704 90.48 60.1304 90.56 62.2804C90.68 65.7604 90.64 69.2504 90.71 72.7404C90.8 77.1104 90.68 81.4804 90.5 85.8404C90.44 87.3004 90.63 87.4604 92.09 87.4604C95.74 87.4404 99.39 87.4304 103.04 87.4204C105.28 87.4204 107.52 87.5604 109.76 87.3904C110.08 87.2604 110.77 87.7904 110.67 86.9004ZM37.47 88.0104C38 88.0704 38.5 87.8204 38.98 87.8104C40.07 87.7804 41.02 87.3904 41.97 86.9904C43.82 86.2204 45.48 85.1304 46.56 83.4404C48.19 80.8804 48.48 78.1604 47.47 75.2404C46.77 73.2204 45.43 71.8604 43.68 70.7504C42.11 69.7604 40.43 69.0404 38.71 68.3704C37.77 68.0104 36.9 67.4804 35.92 67.2204C34.65 66.8804 33.69 66.1604 33.05 65.0504C32.52 64.1104 32.14 63.0704 32.82 62.1204C33.57 61.0704 34.59 60.2204 35.9 59.8904C38.39 59.2604 40.62 59.8104 42.53 61.5104C43.17 62.0804 44.08 62.1004 44.58 61.4504C45.04 60.8504 45.64 60.3504 46.19 59.8104C46.65 59.3604 47.1 58.9004 47.47 58.3704C47.86 57.8204 47.79 57.2904 47.3 56.8304C47.1 56.6504 46.88 56.4904 46.65 56.3504C45.4 55.5604 43.98 55.2504 42.55 54.9304C41.41 54.6704 40.26 54.5804 39.11 54.4604H38.98C38.88 54.4404 38.79 54.4404 38.69 54.4404C38.63 54.4304 38.57 54.4104 38.51 54.4004C38.38 54.4004 38.24 54.4004 38.11 54.3904C38.07 54.3704 38.04 54.3604 38 54.3904C37.87 54.3904 37.74 54.3904 37.61 54.4004C37.54 54.4104 37.48 54.4304 37.41 54.4404C37.32 54.4404 37.23 54.4504 37.13 54.4604C37.05 54.4604 36.97 54.4704 36.89 54.4804C36.58 54.5204 36.27 54.5504 35.97 54.6004C33.6 55.0504 31.27 55.6404 29.48 57.3504C27.42 59.3104 26.25 61.6704 26.28 64.5704C26.3 66.7504 27.29 68.4604 28.74 69.9704C29.85 71.1304 31.25 71.9404 32.73 72.5704C34.49 73.3304 36.3 73.9604 38.08 74.6804C39.44 75.2304 40.63 76.0204 41.37 77.3204C41.92 78.2804 41.95 79.2304 41.35 80.1804C41.07 80.6204 40.77 81.0404 40.4 81.4004C39.04 82.7004 37.37 83.3004 35.53 83.0104C33.58 82.7104 31.89 81.7104 30.3 80.5804C29.9 80.3004 29.45 80.1404 28.99 80.0004C28.74 79.9204 28.52 79.9504 28.38 80.1704C27.8 81.1404 26.85 81.7904 26.2 82.7104C25.3 83.9804 25.26 83.9904 26.45 85.0304C26.62 85.1804 26.79 85.3404 26.99 85.4504C28.75 86.4804 30.51 87.5104 32.59 87.8504C32.67 87.8704 32.75 87.8904 32.83 87.9104C34.34 88.1204 35.86 88.2304 37.38 88.0104L37.43 88.0304L37.48 88.0004L37.47 88.0104ZM66.87 54.4804C66.65 54.5204 66.42 54.5704 66.2 54.5804C63.54 54.7804 61.12 55.6704 58.9 57.0804C57.24 58.1404 55.67 59.2904 54.62 61.0004C53.58 62.7004 52.5 64.3804 51.95 66.3304C51.49 67.9804 51.04 69.6304 51.13 71.3604C51.13 71.4804 51.13 71.6104 51.14 71.7304C50.99 72.8004 51.34 73.8104 51.54 74.8304C51.56 74.9004 51.58 74.9704 51.6 75.0404C51.6 75.1404 51.58 75.2504 51.61 75.3504C52.12 77.2604 52.57 79.1704 53.78 80.8404C54.82 82.2704 56.03 83.5004 57.39 84.6104C58.4 85.4404 59.56 86.0204 60.75 86.5804C62.87 87.5704 65.09 88.1004 67.43 88.1304C68.86 88.1504 70.28 88.1304 71.72 87.9604C73.41 87.7604 74.99 87.3704 76.53 86.7304C78.79 85.8004 80.54 84.1704 82.14 82.4304C84.39 79.9704 85.95 77.1404 86.1 73.7304C86.1 73.6104 86.17 73.5004 86.21 73.3904C86.21 73.2804 86.21 73.1704 86.22 73.0704C86.22 72.9604 86.22 72.8504 86.22 72.7404C86.27 72.6704 86.28 72.6004 86.22 72.5304C86.22 72.4504 86.22 72.3604 86.22 72.2804C86.29 72.1904 86.29 72.1004 86.24 72.0004C86.39 71.0004 86.3 69.9904 86.16 69.0004C85.93 67.3304 85.35 65.7504 84.77 64.1804C83.86 61.7304 82.16 59.8404 80.2 58.1804C78.71 56.9204 76.98 56.0804 75.06 55.5004C73.17 54.9304 71.25 54.6404 69.3 54.4604C69.11 54.4404 68.92 54.4204 68.72 54.4004L68.31 54.3704C68.31 54.3704 68.24 54.3404 68.2 54.3704C67.89 54.3304 67.58 54.3204 67.28 54.4204C67.14 54.4304 67 54.4504 66.86 54.4604L66.87 54.4804ZM196.18 54.2704C193.25 54.3104 192.06 54.6604 190.14 55.6504C187.15 57.2004 185.56 59.6804 185.43 63.0204C185.41 63.3904 185.43 63.7604 185.43 64.1304C185.44 66.6304 186.6 68.5204 188.61 69.9704C190.29 71.1804 192.21 71.9504 194.11 72.7504C195.29 73.2404 196.51 73.6104 197.7 74.0604C199.67 74.8004 201 76.0904 201.77 77.9804C202.42 79.5904 202.08 81.1304 201.16 82.4904C199.77 84.5504 197.62 85.4304 195.21 85.5304C192.99 85.6204 191.04 84.7004 189.23 83.4704C188.3 82.8404 187.4 82.1504 186.28 81.8204C185.57 81.6104 185.35 81.6704 185.12 82.3604C184.69 83.6404 185.06 84.7204 186.22 85.5404C186.64 85.8304 187.05 86.1504 187.5 86.3904C189.48 87.4804 191.58 88.2204 193.88 88.2804C195.22 88.3104 196.52 88.1704 197.84 87.9504C200.78 87.4604 203.12 86.2704 204.34 83.4304C204.8 82.3704 205.14 81.3104 205.3 80.1604C205.61 77.9704 205.4 75.9204 203.86 74.1704C202.1 72.1704 199.73 71.1204 197.27 70.2604C195.46 69.6304 193.6 69.1304 191.85 68.3504C190.14 67.5904 188.83 66.4604 188.33 64.5904C188.02 63.4404 188.32 62.3604 188.57 61.2704C188.89 59.9004 189.56 58.7304 190.86 58.0504C191.87 57.5204 192.96 57.1804 194.11 57.0404C196.02 56.8004 197.74 57.4404 199.42 58.1704C200.66 58.7104 201.76 59.5504 203.09 59.9204C203.27 59.9704 203.39 60.1104 203.57 59.8904C204.33 58.9604 204.28 57.9804 203.44 57.1104C201.32 54.9004 198.56 54.4204 196.18 54.2804V54.2704Z" fill="#3C4A5B"/>
<path d="M57.46 70.0099C57.84 64.7399 62.35 60.2699 67.59 59.6299C70.18 59.3199 72.64 59.9199 74.83 61.4399C77.59 63.3499 79.22 65.8999 79.69 69.2099C80 71.4299 79.82 73.5899 79.14 75.6999C78.03 79.1599 75.56 81.3099 72.1 82.4599C70.95 82.8399 69.76 83.0699 68.56 83.0799C67.14 83.0799 65.79 82.6399 64.45 82.1999C62.07 81.4299 60.36 79.7299 59.17 77.7399C58.02 75.8099 57.44 73.5699 57.49 71.2599C57.49 70.9699 57.47 70.6899 57.46 70.3999C57.46 70.2699 57.46 70.1499 57.46 70.0199V70.0099Z" fill="#3C4A5B"/>
</svg>
