<svg width="256" height="142" viewBox="0 0 256 142" fill="none" xmlns="http://www.w3.org/2000/svg">
<path d="M38.34 38.4404C43.9 38.2804 47.76 42.5204 47.88 48.0204C47.98 52.6904 43.54 57.6704 38.3 57.5804C33.29 57.5004 28.73 52.9404 28.73 47.8204C28.73 42.9704 32.97 38.1404 38.34 38.4304V38.4404Z" fill="#3C4A5B"/>
<path d="M15.31 38.4401C20.72 38.3201 24.85 42.3501 24.95 47.8401C25.04 52.8601 20.56 57.5101 15.53 57.5801C10.43 57.6501 6.16 53.5201 5.82 48.1201C5.52 43.2701 9.93 38.1501 15.31 38.4501V38.4401Z" fill="#3C4A5B"/>
<path d="M38.4 61.4796C43.84 61.3896 47.79 65.3896 47.88 71.1196C47.97 76.7096 42.51 80.8296 37.98 80.6096C33 80.3696 28.84 76.0096 28.78 70.8796C28.73 66.3296 33.01 61.0696 38.4 61.4796Z" fill="#3C4A5B"/>
<path d="M51.86 47.6395C51.86 42.4795 56.13 38.4395 61.59 38.4395C66.83 38.4395 70.85 42.5895 70.85 47.9995C70.85 53.4095 66.46 57.5395 61.22 57.5695C56.34 57.5995 51.55 52.9095 51.86 47.6295V47.6395Z" fill="#3C4A5B"/>
<path d="M38.22 103.571C33.14 103.791 28.79 99.2009 28.77 93.8609C28.75 88.8709 33.25 84.2809 38.48 84.4109C43.85 84.5409 47.93 88.3009 47.85 94.3509C47.8 98.7109 44.09 103.701 38.22 103.571Z" fill="#3C4A5B"/>
<path d="M162.16 52.3601C162.16 51.8801 162.16 51.4001 162.16 50.9201C162.11 48.9601 162.07 46.9901 162 45.0301C161.98 44.3601 162.21 44.0901 162.92 44.0701C166.07 43.9801 166.06 43.9601 166.06 47.1501C166.06 53.7201 166.06 60.2901 166.08 66.8501C166.08 67.7201 165.93 68.2301 164.93 67.9501C164.81 67.9201 164.67 67.9501 164.53 67.9401C163.423 67.9268 162.667 67.4134 162.26 66.4001C162.21 66.2801 162.12 66.1801 162.01 65.9901C161.77 66.1301 161.5 66.2101 161.34 66.3901C159.08 69.0001 154.47 68.5001 152.14 66.5901C147.26 62.6001 147.8 54.4101 153.18 51.1801C155.53 49.7701 158.83 50.0301 160.92 51.7901C161.21 52.0401 161.54 52.2401 161.86 52.4701C161.96 52.4301 162.06 52.3901 162.16 52.3501V52.3601ZM157.54 64.5201C159.11 64.5201 160.48 63.9601 161.25 62.5901C162.39 60.5701 162.55 58.4001 161.41 56.2901C160.26 54.1401 157.53 53.3701 155.39 54.5101C153.87 55.3201 153.19 56.6901 152.92 58.2901C152.46 60.9801 153.88 64.5501 157.54 64.5101V64.5201Z" fill="#3C4A5B"/>
<path d="M97.38 47.9705C97.38 49.8505 97.38 51.6505 97.38 53.4405C97.38 54.1305 97.92 54.1005 98.38 54.1005C101.24 54.1005 104.1 54.1405 106.95 54.0505C107.83 54.0205 108 54.3305 107.97 55.0605C107.95 55.5905 107.96 56.1305 107.97 56.6605C107.98 57.9005 107.85 57.9605 106.59 57.9205C103.83 57.8305 101.08 57.8205 98.32 57.7405C97.51 57.7205 97.33 58.0805 97.34 58.8305C97.38 61.5305 97.36 64.2305 97.36 66.9305C97.36 67.2505 97.32 67.5805 97.3 67.9405C96.22 67.9405 95.23 67.8905 94.24 67.9505C93.44 68.0005 93.14 67.7905 93.15 66.9105C93.19 60.0405 93.17 53.1705 93.17 46.3005C93.17 44.0605 93.17 44.0805 95.37 44.0805C99.46 44.0805 103.55 44.1105 107.64 44.0605C108.57 44.0605 108.85 44.3605 108.83 45.2705C108.75 47.8905 108.78 47.9005 106.2 47.8905C103.51 47.8905 100.82 47.8705 98.12 47.8705C97.93 47.8705 97.73 47.9105 97.38 47.9405V47.9705Z" fill="#3C4A5B"/>
<path d="M124.94 97.0808C124.3 99.0508 122.99 100.211 121.5 101.061C116.4 103.951 109.09 101.351 108.36 94.1208C107.94 89.9108 109.76 86.8008 113.45 85.0208C118.2 82.7308 124.13 85.1708 125.29 90.8008C125.48 91.7008 125.44 92.6508 125.5 93.5808C125.55 94.2908 125.24 94.5908 124.5 94.5708C121.91 94.5008 119.32 94.4608 116.73 94.4508C115.48 94.4508 114.22 94.5308 112.97 94.5708C112.41 94.5908 112.31 94.8808 112.43 95.3708C113.22 98.6008 117.68 99.9808 120.15 97.7108C120.78 97.1308 121.33 96.9308 122.18 97.0708C123.01 97.2108 123.89 97.1008 124.94 97.1008V97.0808ZM116.92 91.7408C118.18 91.7408 119.44 91.7408 120.7 91.7408C121.27 91.7408 121.59 91.5908 121.42 90.9208C120.98 89.1508 119.3 87.6308 117.66 87.5508C115.33 87.4408 113.22 88.7408 112.61 90.6508C112.37 91.4108 112.61 91.7308 113.45 91.7408C114.61 91.7508 115.77 91.7408 116.93 91.7408H116.92Z" fill="#3C4A5B"/>
<path d="M139.3 94.4006C139.75 96.5806 140.71 97.9306 142.47 98.5006C144.24 99.0806 145.99 98.9406 147.38 97.5306C147.9 97.0106 148.36 96.9006 149.05 97.0006C149.95 97.1306 150.87 97.1106 151.95 97.1706C151.14 99.0506 149.93 100.351 148.32 101.191C142.8 104.081 136.15 100.461 135.42 94.5106C134.83 89.6706 137.37 85.7606 141.76 84.4906C146.46 83.1306 151.19 85.5706 152.44 91.0606C152.62 91.8606 152.61 92.7106 152.62 93.5406C152.62 94.1906 152.34 94.5706 151.58 94.5406C148.89 94.4606 146.2 94.4206 143.51 94.3806C142.18 94.3606 140.84 94.3806 139.32 94.3806L139.3 94.4006ZM144.22 91.8206C144.22 91.8206 144.22 91.7706 144.22 91.7406C145.05 91.7406 145.88 91.7706 146.7 91.7306C147.3 91.7006 147.89 91.5706 148.49 91.4806C148.27 90.8706 148.12 90.2206 147.81 89.6606C146.89 87.9906 145.18 87.2506 143.15 87.5706C141.72 87.8006 139.85 89.5406 139.52 90.9506C139.37 91.5906 139.52 91.8606 140.25 91.8306C141.57 91.7806 142.89 91.8206 144.22 91.8206Z" fill="#3C4A5B"/>
<path d="M184.29 67.9403C183.41 67.9403 182.58 68.0103 181.77 67.9003C181.47 67.8603 181.1 67.4203 180.99 67.0903C180.67 66.1403 180.4 65.9803 179.77 66.7103C178.22 68.5103 173.63 68.6603 171.59 67.1203C169.86 65.8203 169.05 64.1003 169.41 61.9803C169.76 59.9403 171.05 58.4303 173.01 57.9703C174.98 57.5003 177.07 57.4703 179.11 57.3303C180.49 57.2403 180.68 57.0603 180.26 55.7203C179.88 54.5203 179.12 53.7303 177.83 53.4903C176.45 53.2303 175.27 53.6303 174.47 54.7103C173.91 55.4703 173.35 55.7303 172.47 55.5803C171.99 55.5003 171.48 55.5803 170.98 55.5803C169.9 55.5803 169.8 55.4403 170.25 54.4203C171.29 52.0603 173.08 50.7003 175.64 50.4003C178.24 50.1003 180.67 50.3703 182.67 52.3203C183.72 53.3603 184.3 54.6503 184.33 56.0703C184.42 59.8303 184.39 63.6003 184.39 67.3703C184.39 67.5603 184.33 67.7503 184.29 67.9403ZM177.85 60.3103C177.85 60.3103 177.85 60.3303 177.85 60.3403C177.16 60.3403 176.46 60.3003 175.77 60.3403C174.56 60.4203 173.4 61.3103 173.22 62.2303C173.02 63.2203 173.43 64.1403 174.39 64.6403C175.84 65.4003 177.28 65.2003 178.64 64.3803C179.92 63.6103 180.43 62.3703 180.42 60.9303C180.42 60.7203 180.01 60.3603 179.75 60.3203C179.13 60.2303 178.5 60.2903 177.87 60.2903L177.85 60.3103Z" fill="#3C4A5B"/>
<path d="M183.17 93.27C183.19 98.26 179.48 102.07 174.64 102.19C169.3 102.32 165.6 97.84 165.58 93.4C165.55 87.87 169.6 84.21 174.3 84.18C179.7 84.14 183.27 87.87 183.17 93.28V93.27ZM174.39 87.95C171.75 87.95 169.6 90.3 169.61 93.18C169.61 96.03 171.86 98.5 174.48 98.54C177 98.58 179.15 96.18 179.17 93.31C179.19 90.08 177.3 87.96 174.4 87.96L174.39 87.95Z" fill="#3C4A5B"/>
<path d="M222.31 68.1795C217.79 68.4995 213.52 64.1595 213.66 59.0495C213.8 53.8495 217.5 50.1895 222.77 50.3095C228.15 50.4295 231.38 54.2195 231.33 59.3995C231.28 64.6595 227.62 68.1595 222.31 68.1695V68.1795ZM227.24 59.2695C227.24 59.0995 227.25 58.9395 227.24 58.7695C226.89 55.2995 224.23 53.7095 222.04 53.9995C219.83 54.2895 218.4 55.6995 217.88 57.8995C217.37 60.0395 217.85 61.9895 219.5 63.4395C220.93 64.6995 222.71 64.9295 224.44 64.0795C226.37 63.1195 227.22 61.4095 227.25 59.2795L227.24 59.2695Z" fill="#3C4A5B"/>
<path d="M239.29 91.3206C240.09 91.3206 240.88 91.3306 241.68 91.3206C242.33 91.3006 242.64 91.0406 242.48 90.3006C242.15 88.7806 241.17 87.6406 239.81 87.4106C238.29 87.1606 237.08 87.6106 236.25 89.0106C236.09 89.2906 235.64 89.5206 235.3 89.5506C234.48 89.6306 233.64 89.5506 232.81 89.5706C232.1 89.5806 231.92 89.3006 232.19 88.6406C233.32 85.9006 235.46 84.4706 238.29 84.1806C240.91 83.9106 243.27 84.6006 245.05 86.7806C246.3 88.3206 246.43 90.0706 246.42 91.9306C246.4 94.7806 246.44 97.6406 246.58 100.481C246.63 101.551 246.6 101.771 245.49 101.771C245.06 101.771 244.63 101.751 244.19 101.771C243.55 101.791 243.14 101.601 242.97 100.891C242.76 100.031 242.52 100.011 241.85 100.601C240.91 101.431 239.83 102.071 238.54 101.991C237.17 101.901 235.72 101.881 234.47 101.401C232.37 100.591 231.29 98.9006 231.42 96.5306C231.54 94.2706 232.72 92.7106 234.72 91.9606C236.14 91.4306 237.74 91.3906 239.26 91.1206C239.27 91.1906 239.28 91.2506 239.3 91.3206H239.29ZM240.09 94.1906C240.09 94.1906 240.09 94.1606 240.09 94.1406C239.17 94.2206 238.24 94.2506 237.33 94.3906C236.04 94.5806 235.28 95.4206 235.24 96.5506C235.21 97.7106 235.89 98.6106 237.15 98.8606C238.93 99.2006 240.6 98.8606 241.65 97.2906C242.15 96.5506 242.2 95.5106 242.46 94.6006C241.74 94.4606 241.02 94.3306 240.3 94.2006C240.24 94.1906 240.17 94.2006 240.1 94.2006L240.09 94.1906Z" fill="#3C4A5B"/>
<path d="M202.12 96.051C202.12 97.721 202.1 99.381 202.13 101.051C202.14 101.751 201.88 102.011 201.19 101.971C200.49 101.931 199.79 101.911 199.1 101.971C198.29 102.041 198.07 101.701 198.08 100.931C198.11 98.001 198.1 95.061 198.07 92.131C198.04 89.501 196.49 87.931 194.03 87.941C191.87 87.941 190.18 89.591 190.16 91.791C190.13 94.821 190.13 97.861 190.17 100.891C190.18 101.741 189.9 102.031 189.08 101.971C188.39 101.921 187.68 101.941 186.99 101.971C186.4 101.991 186.14 101.761 186.15 101.161C186.15 95.931 186.15 90.711 186.14 85.481C186.14 84.801 186.34 84.481 187.05 84.541C187.58 84.581 188.12 84.581 188.64 84.541C189.46 84.471 190.04 84.531 190.04 85.631C190.04 86.321 190.6 86.421 191.26 85.821C192.61 84.621 194.16 84.251 195.94 84.281C198.99 84.331 201.45 86.701 201.91 89.691C202.07 90.741 202.07 91.811 202.1 92.871C202.13 93.941 202.1 95.001 202.1 96.071L202.12 96.051Z" fill="#3C4A5B"/>
<path d="M234.2 59.2391C234.2 56.7091 234.23 54.1691 234.18 51.6391C234.16 50.8591 234.46 50.6291 235.16 50.6591C235.66 50.6791 236.16 50.6891 236.65 50.6591C237.4 50.5991 237.89 50.7291 238.03 51.6391C238.17 52.5191 238.72 52.2291 239.18 51.8391C240.87 50.3791 242.82 50.0591 244.96 50.4891C247.59 51.0191 249.86 53.4491 249.96 56.1191C250.1 59.6791 250.1 63.2491 250.18 66.8091C250.2 67.6491 249.91 68.0691 249.01 67.9591C248.68 67.9191 248.35 67.9591 248.01 67.9591C245.93 67.9591 245.95 67.8591 246.02 65.7591C246.12 62.9291 246.08 60.0991 245.97 57.2691C245.9 55.5091 244.39 54.1391 242.65 53.9591C240.87 53.7791 239.08 54.8491 238.57 56.4791C238.36 57.1691 238.25 57.9091 238.23 58.6291C238.19 61.3991 238.19 64.1591 238.23 66.9291C238.23 67.6991 238.03 68.0391 237.21 67.9591C236.58 67.8991 235.94 67.8991 235.32 67.9591C234.46 68.0391 234.15 67.7491 234.17 66.8491C234.23 64.3191 234.19 61.7791 234.19 59.2491C234.19 59.2491 234.19 59.2491 234.18 59.2491L234.2 59.2391Z" fill="#3C4A5B"/>
<path d="M146.13 67.9406C145.04 67.9406 144.11 67.8906 143.18 67.9506C142.39 68.0006 142.23 67.6606 142.24 66.9506C142.26 64.0206 142.25 61.0806 142.22 58.1506C142.2 56.0606 141.27 54.7206 139.55 54.1506C136.94 53.2806 134.36 55.1806 134.31 58.1006C134.26 61.0006 134.26 63.9006 134.31 66.8006C134.33 67.7406 134.03 68.0606 133.11 67.9506C132.49 67.8806 131.85 67.9006 131.22 67.9406C130.51 67.9806 130.28 67.6506 130.28 66.9906C130.28 61.8206 130.28 56.6506 130.27 51.4806C130.27 50.8506 130.53 50.6506 131.11 50.6906C131.54 50.7206 131.97 50.6906 132.41 50.6906C133.443 50.6906 134.053 51.2306 134.24 52.3106C134.79 51.9906 135.28 51.7406 135.75 51.4306C138.09 49.8806 140.5 49.8806 142.92 51.1506C144.94 52.2206 145.96 54.0606 146.06 56.2806C146.2 59.4406 146.13 62.6106 146.14 65.7806C146.14 66.5006 146.14 67.2206 146.14 67.9206L146.13 67.9406Z" fill="#3C4A5B"/>
<path d="M91.24 78.0703H109.95C109.95 79.0503 109.93 80.0703 109.95 81.0903C109.97 81.7403 109.7 81.9703 109.06 81.9603C107.33 81.9303 105.6 81.9903 103.88 81.9303C102.99 81.9003 102.74 82.2503 102.75 83.1003C102.78 88.9703 102.75 94.8303 102.79 100.7C102.79 101.66 102.53 102.06 101.56 101.98C100.93 101.93 100.3 101.94 99.67 101.98C98.81 102.02 98.54 101.65 98.54 100.79C98.57 95.0303 98.54 89.2603 98.54 83.4903C98.54 81.9703 98.52 81.9603 96.98 81.9603C95.58 81.9603 94.19 81.9603 92.79 81.9703C91.24 81.9803 90.71 81.2203 91.33 79.7603C91.57 79.2003 92.02 78.7103 90.9 78.2503C91.02 78.2003 91.14 78.1403 91.26 78.0903L91.24 78.0703Z" fill="#3C4A5B"/>
<path d="M122.27 66.1209C121.96 66.2909 121.63 66.4109 121.36 66.6209C119.34 68.2409 117.1 68.6409 114.73 67.6509C112.26 66.6109 110.73 64.6409 110.59 61.9909C110.4 58.4309 110.52 54.8609 110.55 51.3009C110.55 51.0909 110.93 50.8909 111.13 50.6909C111.15 50.6709 111.19 50.6909 111.23 50.6809C114.53 50.2909 114.54 50.3009 114.54 53.5609C114.54 55.8909 114.51 58.2309 114.55 60.5609C114.61 63.5909 117.36 65.3609 120.15 64.1909C121.39 63.6709 122.24 62.7309 122.28 61.4109C122.39 58.1509 122.38 54.8909 122.35 51.6209C122.35 50.8909 122.52 50.6609 123.21 50.6809C124.01 50.7109 124.8 50.6809 125.6 50.6509C126.19 50.6309 126.42 50.8709 126.42 51.4809C126.39 56.6109 126.36 61.7509 126.37 66.8809C126.37 67.7209 126.09 68.0509 125.28 67.9409C125.21 67.9409 125.15 67.9409 125.08 67.9409C123.733 67.9409 122.797 67.3375 122.27 66.1309V66.1209Z" fill="#3C4A5B"/>
<path d="M203.99 56.7294C202.67 56.7294 201.49 56.7594 200.32 56.6994C200.1 56.6894 199.85 56.3794 199.69 56.1494C198.41 54.2694 196.69 53.5494 194.74 54.1194C192.68 54.7194 191.1 56.6494 191.18 58.7794C191.22 59.8794 191.44 61.0394 191.89 62.0294C192.66 63.7294 194.17 64.5094 196.01 64.4894C197.7 64.4794 199.03 63.7894 199.72 62.1394C199.77 62.0194 199.87 61.8294 199.94 61.8294C201.16 61.7994 202.37 61.7994 203.59 61.8294C203.64 61.8294 203.76 62.3594 203.7 62.5994C203.08 65.2494 199.97 67.8394 197.23 68.1394C191.38 68.7894 187.37 64.9194 187 59.5794C186.82 56.9694 187.83 54.6194 189.77 52.7594C193.01 49.6594 197.79 49.3594 201.32 52.0994C202.76 53.2194 203.44 54.8494 203.98 56.7194L203.99 56.7294Z" fill="#3C4A5B"/>
<path d="M229.29 90.6791C228.62 90.6491 227.87 90.5291 227.14 90.5991C226.04 90.6991 225.31 90.4491 224.59 89.4591C223.09 87.3791 219.82 87.3691 218.01 89.3491C216.59 90.8991 216.07 92.7491 216.71 94.8091C217.36 96.9191 218.82 98.1891 221 98.4791C222.7 98.6991 224.1 97.9891 224.92 96.4791C225.35 95.6891 225.86 95.4691 226.66 95.5391C227.25 95.5891 227.86 95.5591 228.45 95.5391C229.21 95.5191 229.38 95.8591 229.12 96.5491C227.48 100.949 224.12 102.649 219.8 102.079C214.32 101.359 209.78 94.1991 214.18 87.8391C216.31 84.7591 219.51 83.7091 223.14 84.3791C226.49 84.9891 228.38 87.2991 229.37 90.4391C229.37 90.4591 229.35 90.4991 229.27 90.6791H229.29Z" fill="#3C4A5B"/>
<path d="M160.89 84.54C161.89 84.54 162.85 84.55 163.8 84.54C164.39 84.53 164.67 84.77 164.62 85.37C164.6 85.7 164.61 86.04 164.6 86.37C164.56 88.53 164.94 88.35 162.53 88.36C162.36 88.36 162.19 88.38 162.03 88.35C160.99 88.12 160.78 88.65 160.8 89.56C160.85 91.56 160.83 93.56 160.83 95.56C160.83 97.59 160.83 99.61 160.83 101.78C159.66 101.78 158.47 101.81 157.29 101.74C157.11 101.73 156.81 101.25 156.82 100.99C156.85 97.26 156.91 93.53 156.97 89.8C157 88.39 156.98 88.36 155.54 88.36C154.507 88.36 153.993 87.8333 154 86.78C154 86.71 154 86.65 154 86.58C154 84.62 154 84.58 155.97 84.56C156.9 84.55 157 84.09 156.89 83.34C156.67 81.88 156.9 80.49 157.71 79.23C158.33 78.26 159.27 77.79 160.38 77.74C161.47 77.69 162.57 77.73 163.67 77.73C163.77 77.73 163.89 77.7 163.97 77.74C165.22 78.37 164.37 79.5 164.58 80.38C164.73 81 164.27 81.23 163.73 81.14C160.78 80.6 160.65 82.02 160.88 84.54H160.89Z" fill="#3C4A5B"/>
<path d="M132.49 89.9096C132.49 93.5396 132.46 97.1696 132.51 100.8C132.51 101.62 132.26 101.87 131.48 101.8C130.75 101.74 130.02 101.76 129.29 101.78C128.72 101.8 128.45 101.63 128.45 100.99C128.47 93.5596 128.46 86.1296 128.45 78.6996C128.45 78.0496 128.71 77.8896 129.28 77.9196C129.98 77.9496 130.68 77.9796 131.37 77.9196C132.23 77.8396 132.52 78.1096 132.51 79.0196C132.46 82.6496 132.49 86.2796 132.49 89.9096Z" fill="#3C4A5B"/>
<path d="M210.74 59.36C210.74 61.86 210.71 64.36 210.76 66.86C210.78 67.74 210.51 68.08 209.61 67.97C209.02 67.9 208.41 67.9 207.82 67.96C206.9 68.06 206.68 67.63 206.69 66.79C206.71 61.83 206.72 56.87 206.69 51.91C206.69 50.96 206.94 50.55 207.92 50.66C208.48 50.72 209.05 50.71 209.61 50.66C210.46 50.57 210.78 50.84 210.76 51.76C210.7 54.29 210.74 56.83 210.74 59.36Z" fill="#3C4A5B"/>
<path d="M209.52 101.719H205.63C205.63 97.4793 205.63 93.2993 205.63 89.1193C205.63 87.8893 205.69 86.6593 205.67 85.4293C205.65 84.6693 205.97 84.3993 206.68 84.4893C206.88 84.5093 207.08 84.4993 207.28 84.5093C208.78 84.536 209.53 85.3193 209.53 86.8593C209.53 91.7793 209.53 96.6993 209.53 101.719H209.52Z" fill="#3C4A5B"/>
<path d="M206.45 45.3299C206.45 43.8599 207.3 43.0799 208.88 43.0899C210.17 43.0899 211.11 44.0799 211.09 45.3999C211.07 46.6299 209.99 47.7199 208.8 47.7199C207.36 47.7199 206.44 46.7899 206.45 45.3399V45.3299Z" fill="#3C4A5B"/>
<path d="M180.19 77.1108C178.93 78.5908 177.86 79.8908 176.75 81.1508C175.76 82.2708 174.47 81.5308 173.2 81.5508C173.82 80.6008 174.56 79.7008 175.04 78.6808C175.67 77.3208 176.61 76.8808 178.02 77.0908C178.63 77.1808 179.27 77.1108 180.19 77.1108Z" fill="#3C4A5B"/>
<path d="M227.83 43.5904C226.75 44.9204 225.82 46.4404 224.52 47.4904C223.79 48.0804 222.44 47.8804 221.37 48.0404C221.32 47.9204 221.26 47.7904 221.21 47.6704C221.67 46.9204 222.12 46.1704 222.59 45.4304C222.73 45.2104 222.89 44.9904 223.06 44.7904C223.46 44.2804 223.8 43.4504 224.29 43.3504C225.38 43.1304 226.55 43.2804 227.69 43.2804C227.74 43.3904 227.79 43.4904 227.84 43.6004L227.83 43.5904Z" fill="#3C4A5B"/>
<path d="M209.95 79.23C209.95 80.59 209.07 81.53 207.77 81.55C206.44 81.57 205.32 80.5 205.3 79.2C205.28 78.03 206.45 76.94 207.73 76.92C208.98 76.91 209.95 77.91 209.95 79.22V79.23Z" fill="#3C4A5B"/>
</svg>
