<svg width="256" height="142" viewBox="0 0 256 142" fill="none" xmlns="http://www.w3.org/2000/svg">
<path d="M27.21 75.8003H7.75001V66.1002H27.13C27.16 66.0002 27.18 65.9102 27.21 65.8102C27.03 65.7102 26.87 65.5603 26.68 65.5103C17.09 63.2203 11.11 57.2002 8.43001 47.8602C7.98001 46.3002 7.87001 44.6402 7.61001 43.0202C7.54001 42.6002 7.56001 42.1902 8.17001 42.1902C11.24 42.1902 14.31 42.1902 17.46 42.1902C17.2 46.6602 19.03 50.0602 22.03 52.9102C23.64 54.4402 25.89 55.6102 27.1 55.6502C27.1 55.3202 27.1 55.0002 27.1 54.6802C27.08 50.8102 27.07 46.9402 27.02 43.0702C27.02 42.3802 27.22 42.1602 27.92 42.1702C30.56 42.2002 33.21 42.2002 35.85 42.1702C36.55 42.1702 36.73 42.4002 36.73 43.0902C36.68 47.0502 36.68 51.0202 36.67 54.9802C36.67 55.2202 36.71 55.4602 36.74 55.8502C37.24 55.6502 37.67 55.5102 38.07 55.3102C43.1 52.7702 45.92 48.7202 46.45 43.1202C46.52 42.4102 46.73 42.1702 47.45 42.1802C50.06 42.2102 52.68 42.2102 55.29 42.1802C55.99 42.1802 56.18 42.4102 56.13 43.1102C55.41 53.4602 48.97 61.7603 39.06 65.0503C38.59 65.2103 38.09 65.2602 37.62 65.4002C37.26 65.5002 36.92 65.6502 36.57 65.7802C36.59 65.8802 36.61 65.9802 36.63 66.0802H55.98C56.02 66.4602 56.06 66.7003 56.06 66.9403C56.08 69.6003 56.08 72.2702 56.12 74.9302C56.12 75.5502 55.97 75.8003 55.29 75.8003C49.97 75.7803 44.65 75.8002 39.33 75.7802C38.42 75.7802 37.51 75.6902 36.6 75.6402C36.57 75.7602 36.54 75.8903 36.51 76.0103C36.96 76.1903 37.4 76.4103 37.86 76.5503C41.33 77.5503 44.57 79.0102 47.34 81.3602C52.23 85.5102 55.19 90.7102 55.93 97.1002C56.02 97.9202 56.1 98.7403 56.18 99.6203H46.66C46.13 93.1103 42.87 88.6502 36.76 85.9902V99.6203H27.11V86.0602C24.13 87.2102 21.76 88.8402 20.03 91.3302C18.34 93.7802 17.25 96.4302 17.48 99.5902H7.59001C8.66001 87.1502 15.29 79.3902 27.4 76.0802C27.34 75.9802 27.27 75.8902 27.21 75.7902V75.8003Z" fill="#3C4A5B"/>
<path d="M159.78 92.6293C159.78 90.1893 159.81 87.7593 159.76 85.3193C159.74 84.4793 159.84 84.0593 160.85 84.1893C161.73 84.3093 162.65 84.2393 163.55 84.1893C164.17 84.1593 164.37 84.4193 164.37 85.0093C164.36 89.6793 164.37 94.3493 164.37 99.0193C164.37 99.5793 164.17 99.7793 163.59 99.7493C162.57 99.6993 161.54 99.6893 160.52 99.7193C159.92 99.7393 159.57 99.5193 159.24 99.0093C157.67 96.6293 156.05 94.2893 154.44 91.9393C154.31 91.7393 154.12 91.5793 153.8 91.2193C153.74 91.7493 153.66 92.0893 153.66 92.4193C153.68 94.5893 153.69 96.7493 153.75 98.9193C153.77 99.5693 153.58 99.7993 152.91 99.7693C151.7 99.7193 150.49 99.7593 149.19 99.7593C149.19 99.0893 149.19 98.4893 149.19 97.8893C149.19 93.5593 149.19 89.2293 149.16 84.8993C149.16 84.2993 149.37 84.1493 149.92 84.1793C150.82 84.2293 151.73 84.2993 152.62 84.2493C153.49 84.1993 153.97 84.5893 154.42 85.2693C155.96 87.5893 157.55 89.8793 159.13 92.1693C159.26 92.3593 159.42 92.5293 159.57 92.6993C159.64 92.6693 159.71 92.6493 159.77 92.6193L159.78 92.6293Z" fill="#3C4A5B"/>
<path d="M118.35 63.1501C119.74 63.1501 121.04 63.11 122.34 63.18C122.66 63.2 123.06 63.5 123.26 63.78C124.93 66.16 126.56 68.57 128.21 70.97C128.4 71.24 128.61 71.5001 129 72.0101V63.2H133.48V78.7601C132.08 78.7601 130.69 78.79 129.31 78.74C129.07 78.74 128.79 78.44 128.62 78.21C127 75.87 125.4 73.51 123.78 71.17C123.59 70.89 123.34 70.64 122.91 70.47C122.91 72.87 122.87 75.2701 122.93 77.6601C122.95 78.5401 122.75 78.8701 121.82 78.8001C120.68 78.7201 119.54 78.78 118.35 78.78V63.16V63.1501Z" fill="#3C4A5B"/>
<path d="M98.15 50.5409V42.3309H102.68V57.9409C101.29 57.9409 99.96 58.0109 98.65 57.8909C98.27 57.8609 97.87 57.3309 97.6 56.9409C96.4 55.2109 95.25 53.4509 94.06 51.7109C93.54 50.9509 92.96 50.2209 92.22 49.5309V57.9109H87.71C87.69 57.6109 87.67 57.2909 87.66 56.9609C87.63 52.3209 87.62 47.6809 87.58 43.0409C87.58 42.3809 87.82 42.2809 88.44 42.1909C91.02 41.8109 92.83 42.5609 94.05 45.0309C94.93 46.8209 96.27 48.3809 97.41 50.0309C97.56 50.2509 97.75 50.4409 97.93 50.6409C98 50.6109 98.08 50.5809 98.15 50.5509V50.5409Z" fill="#3C4A5B"/>
<path d="M79.81 92.7195C79.81 92.1495 79.82 91.5795 79.81 91.0095C79.76 88.9695 79.73 86.9295 79.65 84.8895C79.63 84.3195 79.89 84.1895 80.37 84.1895C81.37 84.1995 82.36 84.2495 83.35 84.1895C84.11 84.1395 84.32 84.4195 84.31 85.1395C84.27 87.8295 84.26 90.5195 84.26 93.2195C84.26 95.1095 84.26 96.9995 84.31 98.8795C84.33 99.5495 84.17 99.8195 83.42 99.7495C82.5 99.6695 81.55 99.6795 80.63 99.7495C79.98 99.7895 79.59 99.5595 79.24 99.0395C77.94 97.0795 76.62 95.1295 75.28 93.1895C74.83 92.5395 74.29 91.9595 73.6 91.4495C73.6 92.4395 73.6 93.4295 73.6 94.4195C73.62 95.9395 73.64 97.4495 73.68 98.9695C73.7 99.5595 73.5 99.7895 72.87 99.7595C71.7 99.7095 70.52 99.7495 69.28 99.7495C69.26 99.3995 69.23 99.1695 69.23 98.9395C69.21 94.2995 69.21 89.6595 69.15 85.0095C69.15 84.3695 69.35 84.1695 69.93 84.1995C70.02 84.1995 70.12 84.2195 70.21 84.1995C72.7 83.7795 74.37 84.6495 75.58 86.9695C76.64 89.0095 78.15 90.8095 79.47 92.7195C79.58 92.7195 79.69 92.7195 79.8 92.7195H79.81Z" fill="#3C4A5B"/>
<path d="M158.54 50.7505C161.18 52.4905 161.99 55.3105 163.56 57.9405C161.65 57.9405 159.97 57.9405 158.28 57.9205C158.16 57.9205 158 57.7205 157.92 57.5805C157.08 56.0005 156.33 54.3605 155.4 52.8405C155.03 52.2305 154.32 51.7905 153.69 51.4005C153.14 51.0605 152.84 51.3505 152.84 52.0005C152.85 53.6405 152.79 55.2805 152.84 56.9205C152.87 57.7305 152.64 58.0205 151.79 57.9705C150.62 57.9005 149.44 57.9505 148.08 57.9505C148.08 57.0605 148.08 56.2305 148.08 55.4105C148.06 51.2605 148.05 47.1205 148.02 42.9705C148.02 42.4405 148.15 42.1705 148.75 42.1905C151.86 42.2605 154.97 42.2405 158.08 42.3605C160.4 42.4505 161.63 43.7005 162.26 45.9005C162.71 47.4805 160.89 50.6405 159.1 50.5505C158.97 50.5505 158.83 50.6405 158.54 50.7505ZM156.47 48.2705C157.27 48.1205 157.57 47.4605 157.49 46.7205C157.41 46.0305 157.04 45.4905 156.25 45.4405C155.17 45.3705 154.09 45.3205 152.82 45.2605C152.82 46.2905 152.78 47.1505 152.85 48.0005C152.87 48.2205 153.24 48.6005 153.43 48.5905" fill="#3C4A5B"/>
<path d="M224.37 57.9308V42.4708C224.44 42.4108 224.48 42.3408 224.53 42.3408C227.48 42.3408 230.43 42.2008 233.37 42.4208C235.5 42.5808 237.1 43.8608 237.99 45.8608C239.05 48.2508 239.15 50.7608 238.46 53.2108C237.55 56.4708 234.95 57.7208 231.81 57.9108C229.37 58.0608 226.91 57.9408 224.37 57.9408V57.9308ZM229.15 50.0108H229.18C229.18 50.8408 229.17 51.6808 229.18 52.5108C229.207 53.8841 229.92 54.4841 231.32 54.3108C233.13 54.0908 233.82 53.5008 233.96 51.7008C234.06 50.4508 233.99 49.1708 233.83 47.9208C233.69 46.8508 233.04 46.0408 231.89 45.8208C231.29 45.7008 230.66 45.6908 230.05 45.6108C229.37 45.5208 229.1 45.7708 229.13 46.4808C229.18 47.6508 229.14 48.8208 229.14 50.0008L229.15 50.0108Z" fill="#3C4A5B"/>
<path d="M189.96 57.9497C189.96 57.4097 189.96 56.9897 189.96 56.5597C189.93 52.0197 189.9 47.4697 189.86 42.9297C189.86 42.4297 190.01 42.1797 190.55 42.1897C193.25 42.2497 195.96 42.1897 198.65 42.3797C200.88 42.5297 202.58 43.7397 203.48 45.8197C204.6 48.3797 204.7 51.0497 203.8 53.6897C203.13 55.6497 201.74 56.9997 199.66 57.4497C198.49 57.7097 197.28 57.8897 196.08 57.9297C194.1 58.0097 192.11 57.9497 189.96 57.9497ZM194.64 49.9597C194.64 49.9597 194.69 49.9597 194.71 49.9597C194.71 50.8297 194.71 51.6897 194.71 52.5597C194.71 53.8997 195.393 54.4997 196.76 54.3597C198.47 54.1897 199.25 53.5397 199.5 51.8897C199.64 50.9797 199.7 50.0397 199.61 49.1297C199.34 46.4097 198.06 45.4097 195.31 45.6097C194.78 45.6497 194.62 45.8497 194.63 46.3497C194.66 47.5597 194.63 48.7597 194.63 49.9697L194.64 49.9597Z" fill="#3C4A5B"/>
<path d="M177.09 79.0405C174.83 79.0405 172.67 78.2305 171.02 76.1705C168.92 73.5405 168.86 66.7305 172.58 64.3405C175.8 62.2705 181.02 62.5305 183.61 65.0505C185.75 67.1305 186.06 69.7905 185.77 72.5305C185.31 76.8505 182.09 79.2905 177.09 79.0505V79.0405ZM181.06 71.1005C180.96 70.3905 180.91 69.6105 180.75 68.8605C180.42 67.3505 179.25 66.4805 177.64 66.4505C176.19 66.4305 174.71 67.4505 174.54 68.8805C174.37 70.2705 174.36 71.7305 174.58 73.1105C174.83 74.7405 176.23 75.6305 177.93 75.5605C179.44 75.5005 180.55 74.5005 180.84 72.9105C180.94 72.3305 180.99 71.7505 181.07 71.1005H181.06Z" fill="#3C4A5B"/>
<path d="M196.57 73.0497V69.9297H204.08C204.08 71.9497 204.1 73.9897 204.06 76.0197C204.06 76.2997 203.8 76.6797 203.55 76.8397C200.17 79.0297 196.54 79.8297 192.64 78.4797C190.05 77.5797 188.65 75.6197 188.2 72.9797C187.63 69.6297 188.16 66.5997 191.07 64.4197C191.7 63.9497 192.47 63.5797 193.23 63.3697C195.49 62.7797 197.79 62.7897 200.06 63.3597C201.78 63.7897 202.87 64.9897 203.54 66.5997C203.74 67.0897 203.66 67.3297 203.08 67.4197C202.01 67.5797 200.95 67.8297 199.87 67.9697C199.62 67.9997 199.2 67.8397 199.07 67.6397C198.19 66.2697 196.9 66.0297 195.47 66.3497C194.07 66.6697 193.14 67.6097 193 69.0397C192.87 70.4097 192.82 71.8197 193.01 73.1697C193.21 74.6197 194.39 75.6597 195.84 75.6897C196.93 75.7097 198.04 75.4197 199.1 75.1297C199.42 75.0397 199.76 74.5497 199.86 74.1897C200.12 73.2797 199.86 73.0297 198.91 73.0397C198.14 73.0397 197.38 73.0397 196.57 73.0397V73.0497Z" fill="#3C4A5B"/>
<path d="M152.65 71.0093C152.65 75.1393 150.69 77.9093 146.99 78.7993C144.8 79.3293 142.61 79.2693 140.51 78.3393C138.1 77.2693 136.97 75.2693 136.42 72.8193C135.98 70.8393 136.31 68.9393 137.1 67.1193C138.24 64.4793 140.46 63.2793 143.18 63.0293C144.55 62.8993 146.02 62.9593 147.32 63.3293C150.86 64.3293 152.64 67.0393 152.64 71.0093H152.65ZM147.94 70.9893C147.94 70.9893 147.85 70.9894 147.8 70.9794C147.8 70.5194 147.84 70.0493 147.8 69.5893C147.65 68.0093 146.51 66.7493 145.04 66.5093C143.55 66.2593 142.06 66.9293 141.55 68.2093C140.82 70.0193 140.73 71.8693 141.46 73.7093C141.96 74.9493 143.21 75.6793 144.66 75.6393C145.99 75.5993 147.16 74.7993 147.53 73.5293C147.77 72.7093 147.81 71.8393 147.94 70.9893Z" fill="#3C4A5B"/>
<path d="M137.56 83.9494C141.19 83.9694 143.78 84.7894 145.45 87.4894C147.83 91.3594 146.28 97.5094 142.4 99.2694C139.63 100.529 134.79 100.589 132.22 97.8195C130.13 95.5795 129.49 91.3495 130.89 88.2295C132.3 85.0995 134.99 84.0495 137.57 83.9395L137.56 83.9494ZM141.71 91.8394C141.56 91.1294 141.44 90.1194 141.11 89.1694C140.7 87.9794 139.65 87.5195 138.46 87.4795C137.22 87.4295 136.08 87.7995 135.5 89.0095C134.55 90.9795 134.48 92.9894 135.48 94.9894C136.1 96.2194 137.4 96.7995 138.94 96.5695C140.28 96.3695 141.18 95.5295 141.43 94.1795C141.55 93.5195 141.59 92.8294 141.71 91.8494V91.8394Z" fill="#3C4A5B"/>
<path d="M145.23 54.3307V57.9107H131.99C131.99 57.3007 131.99 56.7207 131.99 56.1407C131.96 51.7107 131.93 47.2907 131.93 42.8607C131.93 42.6407 132.26 42.2307 132.43 42.2307C136.5 42.2107 140.58 42.2307 144.65 42.2607C144.8 42.2607 144.94 42.3407 145.14 42.4007C145.14 43.2507 145.12 44.0707 145.14 44.9007C145.16 45.5307 144.74 45.5007 144.33 45.5107C142.09 45.5107 139.85 45.5507 137.61 45.5107C136.93 45.5007 136.76 45.7107 136.77 46.3507C136.79 48.1207 136.77 48.1207 138.53 48.1107C140.45 48.1107 142.37 48.1107 144.36 48.1107V51.2407C142.18 51.2407 139.98 51.3007 137.79 51.2107C136.96 51.1807 136.77 51.4007 136.77 52.1607C136.8 54.4007 136.77 54.3907 139.01 54.3607C141.03 54.3307 143.04 54.3607 145.21 54.3607L145.23 54.3307Z" fill="#3C4A5B"/>
<path d="M69.21 42.2102C70.71 42.2102 72.19 42.1902 73.67 42.2502C73.81 42.2502 74.03 42.8102 74.03 43.1202C74.05 46.0302 74.01 48.9402 74.03 51.8502C74.04 54.0302 75.99 55.2302 77.99 54.3102C79 53.8502 79.47 53.0502 79.46 51.9402C79.46 49.0002 79.46 46.0602 79.46 43.1202C79.46 42.8802 79.49 42.6402 79.51 42.2202C81 42.2202 82.45 42.2102 83.9 42.2402C84.04 42.2402 84.29 42.5502 84.29 42.7202C84.26 46.1802 84.34 49.6602 84.1 53.1102C83.93 55.6202 81.48 57.7902 78.96 57.9702C77.45 58.0702 75.91 58.0702 74.4 57.9402C71.73 57.7002 69.57 55.4602 69.4 52.6602C69.23 49.9102 69.26 47.1602 69.21 44.4002C69.2 43.7502 69.21 43.1102 69.21 42.2302V42.2102Z" fill="#3C4A5B"/>
<path d="M89.98 75.3907H98.31V78.7107H85.21V63.2207H98.19V66.4907H90.11C90.02 66.6407 89.97 66.6907 89.97 66.7407C89.84 69.0607 89.84 69.0507 92.12 69.0207C93.74 69.0007 95.35 69.0507 96.97 69.0207C97.58 69.0107 97.72 69.2507 97.66 69.8007C97.61 70.3507 97.59 70.9207 97.66 71.4707C97.72 72.0707 97.49 72.2107 96.93 72.2007C94.88 72.1707 92.82 72.2007 90.77 72.1707C90.16 72.1607 89.92 72.3107 89.97 72.9407C90.02 73.7107 89.98 74.4807 89.98 75.3807V75.3907Z" fill="#3C4A5B"/>
<path d="M103.04 99.7396C101.47 99.7396 100.05 99.7696 98.63 99.7096C98.4 99.6996 98.06 99.2896 97.98 99.0096C97.48 97.3496 97.5 97.3396 95.77 97.3396C94.44 97.3396 93.1 97.3396 91.72 97.3396C91.65 97.5696 91.58 97.7696 91.53 97.9696C91.2367 99.1563 90.49 99.7496 89.29 99.7496C88.3 99.7496 87.31 99.7496 86.25 99.7496C86.3 99.5296 86.31 99.3496 86.37 99.1896C88.14 94.5096 89.93 89.8496 91.68 85.1596C91.93 84.4996 92.21 84.1696 93 84.2296C94.17 84.3196 95.36 84.2696 96.54 84.2496C97.08 84.2496 97.39 84.4296 97.59 84.9496C99.34 89.6296 101.12 94.2996 102.89 98.9796C102.96 99.1696 102.99 99.3796 103.07 99.7396H103.04ZM94.65 88.5496C94.58 88.5596 94.5 88.5696 94.43 88.5896C93.9 90.3196 93.36 92.0596 92.82 93.8296H96.35C95.75 91.9796 95.2 90.2696 94.65 88.5496Z" fill="#3C4A5B"/>
<path d="M222.52 57.9101H217.64C217.42 57.1901 217.24 56.4601 216.95 55.7901C216.84 55.5301 216.46 55.2401 216.19 55.2301C214.76 55.1801 213.33 55.2201 211.9 55.2001C211.31 55.2001 211.03 55.4101 210.86 56.0001C210.32 57.9601 210.29 57.9601 208.21 57.9601C207.37 57.9601 206.54 57.9601 205.58 57.9601C205.68 57.5601 205.73 57.2301 205.84 56.9301C207.59 52.3101 209.37 47.7001 211.1 43.0701C211.33 42.4501 211.65 42.1901 212.31 42.2101C213.55 42.2501 214.8 42.2101 216.04 42.2601C216.32 42.2701 216.75 42.5301 216.84 42.7701C218.65 47.5001 220.43 52.2401 222.21 56.9901C222.31 57.2401 222.37 57.5101 222.49 57.9101H222.52ZM215.8 51.9501C215.21 50.0201 214.65 48.1701 214.09 46.3201C214 46.3201 213.91 46.3201 213.82 46.3301C213.28 48.1701 212.74 50.0201 212.18 51.9401H215.8V51.9501Z" fill="#3C4A5B"/>
<path d="M178.14 46.4604C176.72 46.5804 175.49 46.7104 174.25 46.7504C173.99 46.7504 173.6 46.4504 173.48 46.1904C172.91 44.9704 171.71 44.3304 170.45 44.8104C169.98 44.9904 169.5 45.5504 169.37 46.0204C169.3 46.2804 169.89 46.9204 170.3 47.0704C171.31 47.4404 172.4 47.6104 173.44 47.9004C174.21 48.1204 174.98 48.3804 175.72 48.6804C177.53 49.4204 178.64 50.8304 178.65 52.7304C178.66 54.6904 177.73 56.3804 175.86 57.2204C173.2 58.4204 170.42 58.4404 167.69 57.4704C165.59 56.7204 164.8 54.9204 164.34 52.7204C165.95 52.6504 167.47 52.5804 168.96 52.5104C169.32 54.6204 170.55 55.4104 172.52 55.0104C173.42 54.8304 174.01 54.1904 174 53.4604C174 52.9404 173.37 52.2604 172.84 51.9604C172.17 51.5704 171.3 51.5104 170.54 51.2604C169.45 50.9004 168.33 50.5904 167.32 50.0904C165.75 49.3104 164.89 47.9804 165.01 46.1804C165.12 44.4204 166.15 43.1804 167.72 42.6004C170.34 41.6204 173.03 41.6404 175.62 42.7704C177.14 43.4404 177.77 44.7904 178.14 46.4504V46.4604Z" fill="#3C4A5B"/>
<path d="M231.38 78.7802C232.67 75.4102 233.9 72.2102 235.11 69.0102C235.77 67.2802 236.38 65.5202 237.08 63.8102C237.2 63.5202 237.67 63.2002 238 63.1802C239.24 63.1102 240.49 63.1802 241.73 63.1402C242.28 63.1202 242.55 63.2902 242.75 63.8302C244.32 68.0902 245.92 72.3402 247.52 76.6002C247.78 77.2902 248.08 77.9602 248.4 78.7502C246.79 78.7502 245.26 78.7902 243.73 78.7102C243.48 78.7002 243.15 78.1302 243.05 77.7602C242.62 76.2002 242.65 76.2002 241.02 76.2102C239.93 76.2202 238.84 76.2402 237.75 76.2202C237.25 76.2202 236.97 76.3202 236.81 76.8702C236.25 78.8202 236.23 78.8102 234.2 78.7802C233.3 78.7702 232.4 78.7802 231.37 78.7802H231.38ZM237.97 72.7602H241.61C241.06 70.9002 240.53 69.1002 240.01 67.3102C239.93 67.2902 239.85 67.2702 239.77 67.2502C239.19 69.0502 238.6 70.8502 237.98 72.7502L237.97 72.7602Z" fill="#3C4A5B"/>
<path d="M183.17 99.7406C181.51 99.7406 180 99.7806 178.5 99.7006C178.28 99.6906 177.98 99.1606 177.9 98.8306C177.53 97.3506 177.56 97.3406 176.05 97.3406C174.81 97.3406 173.56 97.3606 172.32 97.3306C171.79 97.3206 171.5 97.4606 171.48 98.0306C171.48 98.3306 171.33 98.6406 171.34 98.9406C171.34 99.4606 171.09 99.6706 170.61 99.6706C169.19 99.6706 167.76 99.6706 166.22 99.6706C166.67 98.4706 167.11 97.3306 167.54 96.1906C168.93 92.4906 170.34 88.8006 171.71 85.0906C171.94 84.4706 172.25 84.2106 172.93 84.2406C174.08 84.2906 175.23 84.3106 176.38 84.2606C177.1 84.2306 177.41 84.5206 177.65 85.1706C179.27 89.5406 180.92 93.9006 182.57 98.2706C182.73 98.7006 182.92 99.1206 183.18 99.7506L183.17 99.7406ZM174.71 88.4506C174.59 88.4606 174.48 88.4706 174.36 88.4906C173.85 90.2506 173.35 92.0206 172.83 93.8306H176.45C175.84 91.9406 175.27 90.2006 174.71 88.4506Z" fill="#3C4A5B"/>
<path d="M115.43 93.5109C116.77 93.8909 118.05 94.2409 119.31 94.6409C119.43 94.6809 119.54 95.0509 119.49 95.2209C118.75 97.9609 116.66 99.7109 113.81 99.9409C112.82 100.021 111.82 100.031 110.84 99.9409C107.38 99.6109 104.86 97.1609 104.52 93.7109C104.39 92.3409 104.33 90.9109 104.58 89.5609C105.15 86.3609 107.91 84.1009 111.25 83.9909C112.48 83.9509 113.72 84.1009 114.94 84.3109C117.04 84.6609 118.24 86.1309 119.12 87.9309C119.43 88.5609 119.23 88.8509 118.59 88.9709C117.68 89.1409 116.77 89.3609 115.85 89.4909C115.63 89.5209 115.27 89.3309 115.15 89.1309C114.3 87.7809 113.17 87.2009 111.83 87.4909C110.27 87.8209 109.47 88.7008 109.36 90.4108C109.28 91.5508 109.27 92.7009 109.38 93.8309C109.54 95.5409 110.44 96.3609 112.14 96.5309C113.62 96.6809 114.68 95.9409 115.21 94.3909C115.29 94.1609 115.34 93.9209 115.45 93.5209L115.43 93.5109Z" fill="#3C4A5B"/>
<path d="M108.64 62.9593C111.45 62.8093 113.78 63.8593 115.26 66.5093C115.86 67.5793 115.78 67.7193 114.62 67.9793C114.38 68.0293 114.13 68.0793 113.9 68.1593C112.6 68.6293 111.63 68.6493 110.66 67.2693C109.53 65.6693 106.5 66.3793 105.83 68.2793C105.21 70.0493 105.24 71.8793 105.76 73.6693C106.15 75.0193 107.29 75.6793 108.78 75.6293C110.15 75.5793 111.21 74.7593 111.55 73.3193C111.7 72.6893 111.92 72.5593 112.5 72.7393C113.47 73.0493 114.46 73.3193 115.45 73.5893C116.1 73.7593 115.87 74.1393 115.72 74.5193C114.27 78.0093 111.62 79.5193 107.7 79.0893C103.26 78.5993 100.81 75.8893 100.74 71.4193C100.71 69.4093 100.93 67.4693 102.15 65.7693C103.72 63.5793 105.95 62.9193 108.64 62.9693V62.9593Z" fill="#3C4A5B"/>
<path d="M230.21 67.6803C228.87 68.0203 227.68 68.3403 226.47 68.6003C226.31 68.6303 226 68.3703 225.88 68.1803C225.13 66.8903 224 66.2403 222.78 66.4403C221.19 66.7103 220.19 67.6503 220.05 69.2803C219.94 70.5603 219.96 71.8803 220.09 73.1603C220.23 74.5503 221.3 75.4903 222.6 75.6103C224.14 75.7503 225.37 75.0603 225.87 73.7103C226.36 72.3603 226.32 72.5703 227.6 72.9403C228.31 73.1503 229.02 73.3803 229.74 73.5903C230.28 73.7403 230.4 74.0103 230.18 74.5503C229.11 77.2903 227.23 78.9503 224.18 79.0103C223.07 79.0303 221.92 79.0603 220.84 78.8503C217.84 78.2603 215.77 75.9903 215.34 72.9303C215.03 70.7303 215.03 68.5403 216.16 66.5103C216.81 65.3403 217.72 64.4203 218.95 63.8603C221.31 62.7803 223.76 62.6403 226.22 63.4303C228.25 64.0803 229.48 65.5803 230.22 67.6903L230.21 67.6803Z" fill="#3C4A5B"/>
<path d="M119.25 57.9492C117.24 52.6892 115.26 47.5392 113.22 42.1992C114.1 42.1992 114.95 42.1992 115.79 42.1992C118.13 42.1992 118.13 42.1992 118.84 44.3892C119.6 46.7692 120.34 49.1692 121.11 51.5492C121.3 52.1192 121.57 52.6692 122.03 53.2092C123.03 49.8892 124.06 46.5692 125.02 43.2292C125.21 42.5492 125.48 42.2192 126.2 42.2392C127.47 42.2592 128.74 42.2392 130.08 42.2392C130.06 42.4392 130.08 42.6292 130.03 42.7892C128.25 47.5392 126.45 52.2692 124.69 57.0292C124.44 57.7092 124.12 58.0092 123.35 57.9692C121.99 57.8992 120.62 57.9492 119.26 57.9492H119.25Z" fill="#3C4A5B"/>
<path d="M68.16 63.2109H82.95C82.95 64.3409 82.99 65.4109 82.92 66.4809C82.91 66.6709 82.44 66.9809 82.18 66.9909C80.82 67.0409 79.46 67.0109 78.01 67.0109V78.7309H73.14C73.14 78.2709 73.14 77.8509 73.14 77.4309C73.14 74.2109 73.11 71.0009 73.14 67.7809C73.14 67.0409 72.89 66.9009 72.21 66.9409C71.1 67.0109 69.97 67.0009 68.86 66.9709C68.62 66.9709 68.2 66.7309 68.19 66.5909C68.13 65.4609 68.16 64.3309 68.16 63.2109Z" fill="#3C4A5B"/>
<path d="M155.35 63.1797H160.08V75.0297H167.69V78.7397H155.35V63.1797Z" fill="#3C4A5B"/>
<path d="M184.93 84.1997C186.34 84.1997 187.83 84.1698 189.3 84.2398C189.46 84.2398 189.72 84.7798 189.73 85.0698C189.75 88.3798 189.76 91.6898 189.7 94.9998C189.69 95.8598 190 96.0298 190.78 96.0098C192.97 95.9598 195.17 95.9898 197.41 95.9898V99.6198C197.13 99.6498 196.87 99.6898 196.6 99.6898C193 99.6898 189.39 99.6898 185.79 99.7198C185.05 99.7198 184.93 99.4398 184.93 98.7998C184.95 94.8698 184.93 90.9497 184.93 87.0197C184.93 86.1297 184.93 85.2397 184.93 84.1997Z" fill="#3C4A5B"/>
<path d="M122.27 99.7503C122.27 94.9503 122.27 90.3203 122.27 85.6803C122.27 85.4603 122.27 85.2403 122.25 85.0303C122.15 84.3703 122.44 84.1603 123.09 84.1703C124.45 84.2003 125.81 84.1803 127.21 84.1803C127.23 84.6303 127.26 84.9003 127.26 85.1703C127.26 89.7203 127.25 94.2603 127.28 98.8103C127.28 99.5303 127.12 99.8003 126.35 99.7603C125.02 99.7003 123.69 99.7403 122.28 99.7403L122.27 99.7503Z" fill="#3C4A5B"/>
<path d="M106.25 57.9509C106.25 56.7209 106.25 55.5909 106.25 54.4509C106.24 50.6509 106.23 46.8409 106.2 43.0409C106.2 42.3909 106.42 42.1609 107.07 42.1809C108.19 42.2209 109.31 42.2309 110.43 42.1809C111 42.1609 111.12 42.4209 111.12 42.9009C111.1 47.6909 111.08 52.4909 111.08 57.2809C111.08 57.8209 110.83 57.9609 110.33 57.9509C109.06 57.9309 107.78 57.9509 106.26 57.9509H106.25Z" fill="#3C4A5B"/>
<path d="M181.51 57.9003V42.3203H186.22V57.9003H181.51Z" fill="#3C4A5B"/>
<path d="M207.23 63.1992H211.97V78.7492H207.23V63.1992Z" fill="#3C4A5B"/>
</svg>
