<svg width="256" height="142" viewBox="0 0 256 142" fill="none" xmlns="http://www.w3.org/2000/svg">
<path d="M27.21 75.7984H7.74998V66.0983H27.13C27.16 65.9983 27.18 65.9083 27.21 65.8083C27.03 65.7083 26.87 65.5584 26.68 65.5084C17.09 63.2184 11.11 57.1983 8.42998 47.8583C7.97998 46.2983 7.86998 44.6383 7.60998 43.0183C7.53998 42.5983 7.55998 42.1883 8.16998 42.1883C11.24 42.1883 14.31 42.1883 17.46 42.1883C17.2 46.6583 19.03 50.0583 22.03 52.9083C23.64 54.4383 25.89 55.6083 27.1 55.6483C27.1 55.3183 27.1 54.9983 27.1 54.6783C27.08 50.8083 27.07 46.9383 27.02 43.0683C27.02 42.3783 27.22 42.1583 27.92 42.1683C30.56 42.1983 33.21 42.1983 35.85 42.1683C36.55 42.1683 36.73 42.3983 36.73 43.0883C36.68 47.0483 36.68 51.0183 36.67 54.9783C36.67 55.2183 36.71 55.4583 36.74 55.8483C37.24 55.6483 37.67 55.5083 38.07 55.3083C43.1 52.7683 45.92 48.7183 46.45 43.1183C46.52 42.4083 46.73 42.1683 47.45 42.1783C50.06 42.2083 52.68 42.2083 55.29 42.1783C55.99 42.1783 56.18 42.4083 56.13 43.1083C55.41 53.4583 48.97 61.7584 39.06 65.0484C38.59 65.2084 38.09 65.2583 37.62 65.3983C37.26 65.4983 36.92 65.6483 36.57 65.7783C36.59 65.8783 36.61 65.9783 36.63 66.0783H55.98C56.02 66.4583 56.06 66.6984 56.06 66.9384C56.08 69.5984 56.08 72.2683 56.12 74.9283C56.12 75.5483 55.97 75.7984 55.29 75.7984C49.97 75.7784 44.65 75.7983 39.33 75.7783C38.42 75.7783 37.51 75.6883 36.6 75.6383C36.57 75.7583 36.54 75.8884 36.51 76.0084C36.96 76.1884 37.4 76.4084 37.86 76.5484C41.33 77.5484 44.57 79.0083 47.34 81.3583C52.23 85.5083 55.19 90.7083 55.93 97.0983C56.02 97.9183 56.1 98.7384 56.18 99.6184H46.66C46.13 93.1084 42.87 88.6483 36.76 85.9883V99.6184H27.11V86.0583C24.13 87.2083 21.76 88.8383 20.03 91.3283C18.34 93.7783 17.25 96.4283 17.48 99.5883H7.58998C8.65998 87.1483 15.29 79.3883 27.4 76.0783C27.34 75.9783 27.27 75.8883 27.21 75.7883V75.7984Z" fill="#444242"/>
<path d="M159.78 92.6312C159.78 90.1912 159.81 87.7612 159.76 85.3212C159.74 84.4812 159.84 84.0612 160.85 84.1912C161.73 84.3112 162.65 84.2412 163.55 84.1912C164.17 84.1612 164.37 84.4212 164.37 85.0112C164.36 89.6812 164.37 94.3512 164.37 99.0212C164.37 99.5812 164.17 99.7812 163.59 99.7512C162.57 99.7012 161.54 99.6912 160.52 99.7212C159.92 99.7412 159.57 99.5212 159.24 99.0112C157.67 96.6312 156.05 94.2912 154.44 91.9412C154.31 91.7412 154.12 91.5812 153.8 91.2212C153.74 91.7512 153.66 92.0912 153.66 92.4212C153.68 94.5912 153.69 96.7512 153.75 98.9212C153.77 99.5712 153.58 99.8012 152.91 99.7712C151.7 99.7212 150.49 99.7612 149.19 99.7612C149.19 99.0912 149.19 98.4912 149.19 97.8912C149.19 93.5612 149.19 89.2312 149.16 84.9012C149.16 84.3012 149.37 84.1512 149.92 84.1812C150.82 84.2312 151.73 84.3012 152.62 84.2512C153.49 84.2012 153.97 84.5912 154.42 85.2712C155.96 87.5912 157.55 89.8812 159.13 92.1712C159.26 92.3612 159.42 92.5312 159.57 92.7012C159.64 92.6712 159.71 92.6512 159.77 92.6212L159.78 92.6312Z" fill="#444242"/>
<path d="M118.35 63.1482C119.74 63.1482 121.04 63.1081 122.34 63.1781C122.66 63.1981 123.06 63.498 123.26 63.778C124.93 66.1581 126.56 68.5681 128.21 70.9681C128.4 71.2381 128.61 71.4982 129 72.0082V63.1981H133.48V78.7582C132.08 78.7582 130.69 78.788 129.31 78.738C129.07 78.738 128.79 78.438 128.62 78.208C127 75.868 125.4 73.508 123.78 71.168C123.59 70.888 123.34 70.6381 122.91 70.4681C122.91 72.8681 122.87 75.2682 122.93 77.6582C122.95 78.5382 122.75 78.8682 121.82 78.7982C120.68 78.7182 119.54 78.778 118.35 78.778V63.1581V63.1482Z" fill="#444242"/>
<path d="M98.1501 50.5409V42.3309H102.68V57.9409C101.29 57.9409 99.9601 58.0109 98.6501 57.8909C98.2701 57.8609 97.8701 57.3309 97.6001 56.9409C96.4001 55.2109 95.2501 53.4509 94.0601 51.7109C93.5401 50.9509 92.9601 50.2209 92.2201 49.5309V57.9109H87.7101C87.6901 57.6109 87.6701 57.2909 87.6601 56.9609C87.6301 52.3209 87.6201 47.6809 87.5801 43.0409C87.5801 42.3809 87.8201 42.2809 88.4401 42.1909C91.0201 41.8109 92.8301 42.5609 94.0501 45.0309C94.9301 46.8209 96.2701 48.3809 97.4101 50.0309C97.5601 50.2509 97.7501 50.4409 97.9301 50.6409C98.0001 50.6109 98.0801 50.5809 98.1501 50.5509V50.5409Z" fill="#444242"/>
<path d="M79.8104 92.7195C79.8104 92.1495 79.8204 91.5795 79.8104 91.0095C79.7604 88.9695 79.7304 86.9295 79.6504 84.8895C79.6304 84.3195 79.8904 84.1895 80.3704 84.1895C81.3704 84.1995 82.3604 84.2495 83.3504 84.1895C84.1104 84.1395 84.3204 84.4195 84.3104 85.1395C84.2704 87.8295 84.2604 90.5195 84.2604 93.2195C84.2604 95.1095 84.2604 96.9995 84.3104 98.8795C84.3304 99.5495 84.1704 99.8195 83.4204 99.7495C82.5004 99.6695 81.5504 99.6795 80.6304 99.7495C79.9804 99.7895 79.5904 99.5595 79.2404 99.0395C77.9404 97.0795 76.6204 95.1295 75.2804 93.1895C74.8304 92.5395 74.2904 91.9595 73.6004 91.4495C73.6004 92.4395 73.6004 93.4295 73.6004 94.4195C73.6204 95.9395 73.6404 97.4495 73.6804 98.9695C73.7004 99.5595 73.5004 99.7895 72.8704 99.7595C71.7004 99.7095 70.5204 99.7495 69.2804 99.7495C69.2604 99.3995 69.2304 99.1695 69.2304 98.9395C69.2104 94.2995 69.2104 89.6595 69.1504 85.0095C69.1504 84.3695 69.3504 84.1695 69.9304 84.1995C70.0204 84.1995 70.1204 84.2195 70.2104 84.1995C72.7004 83.7795 74.3704 84.6495 75.5804 86.9695C76.6404 89.0095 78.1504 90.8095 79.4704 92.7195C79.5804 92.7195 79.6904 92.7195 79.8004 92.7195H79.8104Z" fill="#444242"/>
<path d="M158.54 50.7524C161.18 52.4924 161.99 55.3124 163.56 57.9424C161.65 57.9424 159.97 57.9424 158.28 57.9224C158.16 57.9224 158 57.7224 157.92 57.5824C157.08 56.0024 156.33 54.3624 155.4 52.8424C155.03 52.2324 154.32 51.7924 153.69 51.4024C153.14 51.0624 152.84 51.3524 152.84 52.0024C152.85 53.6424 152.79 55.2824 152.84 56.9224C152.87 57.7324 152.64 58.0224 151.79 57.9724C150.62 57.9024 149.44 57.9524 148.08 57.9524C148.08 57.0624 148.08 56.2324 148.08 55.4124C148.06 51.2624 148.05 47.1224 148.02 42.9724C148.02 42.4424 148.15 42.1724 148.75 42.1924C151.86 42.2624 154.97 42.2424 158.08 42.3624C160.4 42.4524 161.63 43.7024 162.26 45.9024C162.71 47.4824 160.89 50.6424 159.1 50.5524C158.97 50.5524 158.83 50.6424 158.54 50.7524ZM156.47 48.2724C157.27 48.1224 157.57 47.4624 157.49 46.7224C157.41 46.0324 157.04 45.4924 156.25 45.4424C155.17 45.3724 154.09 45.3224 152.82 45.2624C152.82 46.2924 152.78 47.1524 152.85 48.0024C152.87 48.2224 153.24 48.6024 153.43 48.5924" fill="#444242"/>
<path d="M224.37 57.9308V42.4708C224.44 42.4108 224.48 42.3408 224.53 42.3408C227.48 42.3408 230.43 42.2008 233.37 42.4208C235.5 42.5808 237.1 43.8608 237.99 45.8608C239.05 48.2508 239.15 50.7608 238.46 53.2108C237.55 56.4708 234.95 57.7208 231.81 57.9108C229.37 58.0608 226.91 57.9408 224.37 57.9408V57.9308ZM229.15 50.0108H229.18C229.18 50.8408 229.17 51.6808 229.18 52.5108C229.207 53.8841 229.92 54.4841 231.32 54.3108C233.13 54.0908 233.82 53.5008 233.96 51.7008C234.06 50.4508 233.99 49.1708 233.83 47.9208C233.69 46.8508 233.04 46.0408 231.89 45.8208C231.29 45.7008 230.66 45.6908 230.05 45.6108C229.37 45.5208 229.1 45.7708 229.13 46.4808C229.18 47.6508 229.14 48.8208 229.14 50.0008L229.15 50.0108Z" fill="#444242"/>
<path d="M189.96 57.9478C189.96 57.4078 189.96 56.9878 189.96 56.5578C189.93 52.0178 189.9 47.4678 189.86 42.9278C189.86 42.4278 190.01 42.1778 190.55 42.1878C193.25 42.2478 195.96 42.1878 198.65 42.3778C200.88 42.5278 202.58 43.7378 203.48 45.8178C204.6 48.3778 204.7 51.0478 203.8 53.6878C203.13 55.6478 201.74 56.9978 199.66 57.4478C198.49 57.7078 197.28 57.8878 196.08 57.9278C194.1 58.0078 192.11 57.9478 189.96 57.9478ZM194.64 49.9578C194.64 49.9578 194.69 49.9578 194.71 49.9578C194.71 50.8278 194.71 51.6878 194.71 52.5578C194.71 53.8978 195.393 54.4978 196.76 54.3578C198.47 54.1878 199.25 53.5378 199.5 51.8878C199.64 50.9778 199.7 50.0378 199.61 49.1278C199.34 46.4078 198.06 45.4078 195.31 45.6078C194.78 45.6478 194.62 45.8478 194.63 46.3478C194.66 47.5578 194.63 48.7578 194.63 49.9678L194.64 49.9578Z" fill="#444242"/>
<path d="M177.09 79.0386C174.83 79.0386 172.67 78.2286 171.02 76.1686C168.92 73.5386 168.86 66.7286 172.58 64.3386C175.8 62.2686 181.02 62.5286 183.61 65.0486C185.75 67.1286 186.06 69.7886 185.77 72.5286C185.31 76.8486 182.09 79.2886 177.09 79.0486V79.0386ZM181.06 71.0986C180.96 70.3886 180.91 69.6086 180.75 68.8586C180.42 67.3486 179.25 66.4786 177.64 66.4486C176.19 66.4286 174.71 67.4486 174.54 68.8786C174.37 70.2686 174.36 71.7286 174.58 73.1086C174.83 74.7386 176.23 75.6286 177.93 75.5586C179.44 75.4986 180.55 74.4986 180.84 72.9086C180.94 72.3286 180.99 71.7486 181.07 71.0986H181.06Z" fill="#444242"/>
<path d="M196.57 73.0497V69.9297H204.08C204.08 71.9497 204.1 73.9897 204.06 76.0197C204.06 76.2997 203.8 76.6797 203.55 76.8397C200.17 79.0297 196.54 79.8297 192.64 78.4797C190.05 77.5797 188.65 75.6197 188.2 72.9797C187.63 69.6297 188.16 66.5997 191.07 64.4197C191.7 63.9497 192.47 63.5797 193.23 63.3697C195.49 62.7797 197.79 62.7897 200.06 63.3597C201.78 63.7897 202.87 64.9897 203.54 66.5997C203.74 67.0897 203.66 67.3297 203.08 67.4197C202.01 67.5797 200.95 67.8297 199.87 67.9697C199.62 67.9997 199.2 67.8397 199.07 67.6397C198.19 66.2697 196.9 66.0297 195.47 66.3497C194.07 66.6697 193.14 67.6097 193 69.0397C192.87 70.4097 192.82 71.8197 193.01 73.1697C193.21 74.6197 194.39 75.6597 195.84 75.6897C196.93 75.7097 198.04 75.4197 199.1 75.1297C199.42 75.0397 199.76 74.5497 199.86 74.1897C200.12 73.2797 199.86 73.0297 198.91 73.0397C198.14 73.0397 197.38 73.0397 196.57 73.0397V73.0497Z" fill="#444242"/>
<path d="M152.65 71.0074C152.65 75.1374 150.69 77.9074 146.99 78.7974C144.8 79.3274 142.61 79.2674 140.51 78.3374C138.1 77.2674 136.97 75.2674 136.42 72.8174C135.98 70.8374 136.31 68.9374 137.1 67.1174C138.24 64.4774 140.46 63.2774 143.18 63.0274C144.55 62.8974 146.02 62.9574 147.32 63.3274C150.86 64.3274 152.64 67.0374 152.64 71.0074H152.65ZM147.94 70.9874C147.94 70.9874 147.85 70.9875 147.8 70.9775C147.8 70.5175 147.84 70.0474 147.8 69.5874C147.65 68.0074 146.51 66.7474 145.04 66.5074C143.55 66.2574 142.06 66.9274 141.55 68.2074C140.82 70.0174 140.73 71.8674 141.46 73.7074C141.96 74.9474 143.21 75.6774 144.66 75.6374C145.99 75.5974 147.16 74.7974 147.53 73.5274C147.77 72.7074 147.81 71.8374 147.94 70.9874Z" fill="#444242"/>
<path d="M137.56 83.9513C141.19 83.9713 143.78 84.7913 145.45 87.4913C147.83 91.3613 146.28 97.5113 142.4 99.2713C139.63 100.531 134.79 100.591 132.22 97.8214C130.13 95.5814 129.49 91.3514 130.89 88.2314C132.3 85.1014 134.99 84.0514 137.57 83.9414L137.56 83.9513ZM141.71 91.8413C141.56 91.1313 141.44 90.1213 141.11 89.1713C140.7 87.9813 139.65 87.5214 138.46 87.4814C137.22 87.4314 136.08 87.8014 135.5 89.0114C134.55 90.9814 134.48 92.9913 135.48 94.9913C136.1 96.2213 137.4 96.8014 138.94 96.5714C140.28 96.3714 141.18 95.5314 141.43 94.1814C141.55 93.5214 141.59 92.8313 141.71 91.8513V91.8413Z" fill="#444242"/>
<path d="M145.23 54.3307V57.9107H131.99C131.99 57.3007 131.99 56.7207 131.99 56.1407C131.96 51.7107 131.93 47.2907 131.93 42.8607C131.93 42.6407 132.26 42.2307 132.43 42.2307C136.5 42.2107 140.58 42.2307 144.65 42.2607C144.8 42.2607 144.94 42.3407 145.14 42.4007C145.14 43.2507 145.12 44.0707 145.14 44.9007C145.16 45.5307 144.74 45.5007 144.33 45.5107C142.09 45.5107 139.85 45.5507 137.61 45.5107C136.93 45.5007 136.76 45.7107 136.77 46.3507C136.79 48.1207 136.77 48.1207 138.53 48.1107C140.45 48.1107 142.37 48.1107 144.36 48.1107V51.2407C142.18 51.2407 139.98 51.3007 137.79 51.2107C136.96 51.1807 136.77 51.4007 136.77 52.1607C136.8 54.4007 136.77 54.3907 139.01 54.3607C141.03 54.3307 143.04 54.3607 145.21 54.3607L145.23 54.3307Z" fill="#444242"/>
<path d="M69.2095 42.2102C70.7095 42.2102 72.1895 42.1902 73.6695 42.2502C73.8095 42.2502 74.0295 42.8102 74.0295 43.1202C74.0495 46.0302 74.0095 48.9402 74.0295 51.8502C74.0395 54.0302 75.9895 55.2302 77.9895 54.3102C78.9995 53.8502 79.4695 53.0502 79.4595 51.9402C79.4595 49.0002 79.4595 46.0602 79.4595 43.1202C79.4595 42.8802 79.4895 42.6402 79.5095 42.2202C80.9995 42.2202 82.4495 42.2102 83.8995 42.2402C84.0395 42.2402 84.2895 42.5502 84.2895 42.7202C84.2595 46.1802 84.3395 49.6602 84.0995 53.1102C83.9295 55.6202 81.4795 57.7902 78.9595 57.9702C77.4495 58.0702 75.9095 58.0702 74.3995 57.9402C71.7295 57.7002 69.5695 55.4602 69.3995 52.6602C69.2295 49.9102 69.2595 47.1602 69.2095 44.4002C69.1995 43.7502 69.2095 43.1102 69.2095 42.2302V42.2102Z" fill="#444242"/>
<path d="M89.98 75.3888H98.31V78.7088H85.21V63.2188H98.19V66.4888H90.11C90.02 66.6388 89.97 66.6888 89.97 66.7388C89.84 69.0588 89.84 69.0487 92.12 69.0187C93.74 68.9987 95.35 69.0487 96.97 69.0187C97.58 69.0087 97.72 69.2487 97.66 69.7987C97.61 70.3487 97.59 70.9188 97.66 71.4688C97.72 72.0688 97.49 72.2087 96.93 72.1987C94.88 72.1687 92.82 72.1988 90.77 72.1688C90.16 72.1588 89.92 72.3087 89.97 72.9387C90.02 73.7087 89.98 74.4787 89.98 75.3787V75.3888Z" fill="#444242"/>
<path d="M103.04 99.7396C101.47 99.7396 100.05 99.7696 98.63 99.7096C98.4 99.6996 98.06 99.2896 97.98 99.0096C97.48 97.3496 97.5 97.3396 95.77 97.3396C94.44 97.3396 93.1 97.3396 91.72 97.3396C91.65 97.5696 91.58 97.7696 91.53 97.9696C91.2367 99.1563 90.49 99.7496 89.29 99.7496C88.3 99.7496 87.31 99.7496 86.25 99.7496C86.3 99.5296 86.31 99.3496 86.37 99.1896C88.14 94.5096 89.93 89.8496 91.68 85.1596C91.93 84.4996 92.21 84.1696 93 84.2296C94.17 84.3196 95.36 84.2696 96.54 84.2496C97.08 84.2496 97.39 84.4296 97.59 84.9496C99.34 89.6296 101.12 94.2996 102.89 98.9796C102.96 99.1696 102.99 99.3796 103.07 99.7396H103.04ZM94.65 88.5496C94.58 88.5596 94.5 88.5696 94.43 88.5896C93.9 90.3196 93.36 92.0596 92.82 93.8296H96.35C95.75 91.9796 95.2 90.2696 94.65 88.5496Z" fill="#444242"/>
<path d="M222.52 57.912H217.64C217.42 57.192 217.24 56.462 216.95 55.792C216.84 55.532 216.46 55.242 216.19 55.232C214.76 55.182 213.33 55.222 211.9 55.202C211.31 55.202 211.03 55.412 210.86 56.002C210.32 57.962 210.29 57.962 208.21 57.962C207.37 57.962 206.54 57.962 205.58 57.962C205.68 57.562 205.73 57.232 205.84 56.932C207.59 52.312 209.37 47.702 211.1 43.072C211.33 42.452 211.65 42.192 212.31 42.212C213.55 42.252 214.8 42.212 216.04 42.262C216.32 42.272 216.75 42.532 216.84 42.772C218.65 47.502 220.43 52.242 222.21 56.992C222.31 57.242 222.37 57.512 222.49 57.912H222.52ZM215.8 51.952C215.21 50.022 214.65 48.172 214.09 46.322C214 46.322 213.91 46.322 213.82 46.332C213.28 48.172 212.74 50.022 212.18 51.942H215.8V51.952Z" fill="#444242"/>
<path d="M178.14 46.4585C176.72 46.5785 175.49 46.7085 174.25 46.7485C173.99 46.7485 173.6 46.4485 173.48 46.1885C172.91 44.9685 171.71 44.3285 170.45 44.8085C169.98 44.9885 169.5 45.5485 169.37 46.0185C169.3 46.2785 169.89 46.9185 170.3 47.0685C171.31 47.4385 172.4 47.6085 173.44 47.8985C174.21 48.1185 174.98 48.3785 175.72 48.6785C177.53 49.4185 178.64 50.8285 178.65 52.7285C178.66 54.6885 177.73 56.3785 175.86 57.2185C173.2 58.4185 170.42 58.4385 167.69 57.4685C165.59 56.7185 164.8 54.9185 164.34 52.7185C165.95 52.6485 167.47 52.5785 168.96 52.5085C169.32 54.6185 170.55 55.4085 172.52 55.0085C173.42 54.8285 174.01 54.1885 174 53.4585C174 52.9385 173.37 52.2585 172.84 51.9585C172.17 51.5685 171.3 51.5085 170.54 51.2585C169.45 50.8985 168.33 50.5885 167.32 50.0885C165.75 49.3085 164.89 47.9785 165.01 46.1785C165.12 44.4185 166.15 43.1785 167.72 42.5985C170.34 41.6185 173.03 41.6385 175.62 42.7685C177.14 43.4385 177.77 44.7885 178.14 46.4485V46.4585Z" fill="#444242"/>
<path d="M231.38 78.7783C232.67 75.4083 233.9 72.2083 235.11 69.0083C235.77 67.2783 236.38 65.5183 237.08 63.8083C237.2 63.5183 237.67 63.1983 238 63.1783C239.24 63.1083 240.49 63.1783 241.73 63.1383C242.28 63.1183 242.55 63.2883 242.75 63.8283C244.32 68.0883 245.92 72.3383 247.52 76.5983C247.78 77.2883 248.08 77.9583 248.4 78.7483C246.79 78.7483 245.26 78.7883 243.73 78.7083C243.48 78.6983 243.15 78.1283 243.05 77.7583C242.62 76.1983 242.65 76.1983 241.02 76.2083C239.93 76.2183 238.84 76.2383 237.75 76.2183C237.25 76.2183 236.97 76.3183 236.81 76.8683C236.25 78.8183 236.23 78.8083 234.2 78.7783C233.3 78.7683 232.4 78.7783 231.37 78.7783H231.38ZM237.97 72.7583H241.61C241.06 70.8983 240.53 69.0983 240.01 67.3083C239.93 67.2883 239.85 67.2683 239.77 67.2483C239.19 69.0483 238.6 70.8483 237.98 72.7483L237.97 72.7583Z" fill="#444242"/>
<path d="M183.17 99.7406C181.51 99.7406 180 99.7806 178.5 99.7006C178.28 99.6906 177.98 99.1606 177.9 98.8306C177.53 97.3506 177.56 97.3406 176.05 97.3406C174.81 97.3406 173.56 97.3606 172.32 97.3306C171.79 97.3206 171.5 97.4606 171.48 98.0306C171.48 98.3306 171.33 98.6406 171.34 98.9406C171.34 99.4606 171.09 99.6706 170.61 99.6706C169.19 99.6706 167.76 99.6706 166.22 99.6706C166.67 98.4706 167.11 97.3306 167.54 96.1906C168.93 92.4906 170.34 88.8006 171.71 85.0906C171.94 84.4706 172.25 84.2106 172.93 84.2406C174.08 84.2906 175.23 84.3106 176.38 84.2606C177.1 84.2306 177.41 84.5206 177.65 85.1706C179.27 89.5406 180.92 93.9006 182.57 98.2706C182.73 98.7006 182.92 99.1206 183.18 99.7506L183.17 99.7406ZM174.71 88.4506C174.59 88.4606 174.48 88.4706 174.36 88.4906C173.85 90.2506 173.35 92.0206 172.83 93.8306H176.45C175.84 91.9406 175.27 90.2006 174.71 88.4506Z" fill="#444242"/>
<path d="M115.43 93.5109C116.77 93.8909 118.05 94.2409 119.31 94.6409C119.43 94.6809 119.54 95.0509 119.49 95.2209C118.75 97.9609 116.66 99.7109 113.81 99.9409C112.82 100.021 111.82 100.031 110.84 99.9409C107.38 99.6109 104.86 97.1609 104.52 93.7109C104.39 92.3409 104.33 90.9109 104.58 89.5609C105.15 86.3609 107.91 84.1009 111.25 83.9909C112.48 83.9509 113.72 84.1009 114.94 84.3109C117.04 84.6609 118.24 86.1309 119.12 87.9309C119.43 88.5609 119.23 88.8509 118.59 88.9709C117.68 89.1409 116.77 89.3609 115.85 89.4909C115.63 89.5209 115.27 89.3309 115.15 89.1309C114.3 87.7809 113.17 87.2009 111.83 87.4909C110.27 87.8209 109.47 88.7008 109.36 90.4108C109.28 91.5508 109.27 92.7009 109.38 93.8309C109.54 95.5409 110.44 96.3609 112.14 96.5309C113.62 96.6809 114.68 95.9409 115.21 94.3909C115.29 94.1609 115.34 93.9209 115.45 93.5209L115.43 93.5109Z" fill="#444242"/>
<path d="M108.64 62.9593C111.45 62.8093 113.78 63.8593 115.26 66.5093C115.86 67.5793 115.78 67.7193 114.62 67.9793C114.38 68.0293 114.13 68.0793 113.9 68.1593C112.6 68.6293 111.63 68.6493 110.66 67.2693C109.53 65.6693 106.5 66.3793 105.83 68.2793C105.21 70.0493 105.24 71.8793 105.76 73.6693C106.15 75.0193 107.29 75.6793 108.78 75.6293C110.15 75.5793 111.21 74.7593 111.55 73.3193C111.7 72.6893 111.92 72.5593 112.5 72.7393C113.47 73.0493 114.46 73.3193 115.45 73.5893C116.1 73.7593 115.87 74.1393 115.72 74.5193C114.27 78.0093 111.62 79.5193 107.7 79.0893C103.26 78.5993 100.81 75.8893 100.74 71.4193C100.71 69.4093 100.93 67.4693 102.15 65.7693C103.72 63.5793 105.95 62.9193 108.64 62.9693V62.9593Z" fill="#444242"/>
<path d="M230.21 67.6822C228.87 68.0222 227.68 68.3422 226.47 68.6022C226.31 68.6322 226 68.3722 225.88 68.1822C225.13 66.8922 224 66.2422 222.78 66.4422C221.19 66.7122 220.19 67.6522 220.05 69.2822C219.94 70.5622 219.96 71.8822 220.09 73.1622C220.23 74.5522 221.3 75.4922 222.6 75.6122C224.14 75.7522 225.37 75.0622 225.87 73.7122C226.36 72.3622 226.32 72.5722 227.6 72.9422C228.31 73.1522 229.02 73.3822 229.74 73.5922C230.28 73.7422 230.4 74.0122 230.18 74.5522C229.11 77.2922 227.23 78.9522 224.18 79.0122C223.07 79.0322 221.92 79.0622 220.84 78.8522C217.84 78.2622 215.77 75.9922 215.34 72.9322C215.03 70.7322 215.03 68.5422 216.16 66.5122C216.81 65.3422 217.72 64.4222 218.95 63.8622C221.31 62.7822 223.76 62.6422 226.22 63.4322C228.25 64.0822 229.48 65.5822 230.22 67.6922L230.21 67.6822Z" fill="#444242"/>
<path d="M119.25 57.9492C117.24 52.6892 115.26 47.5392 113.22 42.1992C114.1 42.1992 114.95 42.1992 115.79 42.1992C118.13 42.1992 118.13 42.1992 118.84 44.3892C119.6 46.7692 120.34 49.1692 121.11 51.5492C121.3 52.1192 121.57 52.6692 122.03 53.2092C123.03 49.8892 124.06 46.5692 125.02 43.2292C125.21 42.5492 125.48 42.2192 126.2 42.2392C127.47 42.2592 128.74 42.2392 130.08 42.2392C130.06 42.4392 130.08 42.6292 130.03 42.7892C128.25 47.5392 126.45 52.2692 124.69 57.0292C124.44 57.7092 124.12 58.0092 123.35 57.9692C121.99 57.8992 120.62 57.9492 119.26 57.9492H119.25Z" fill="#444242"/>
<path d="M68.1598 63.2109H82.9498C82.9498 64.3409 82.9898 65.4109 82.9198 66.4809C82.9098 66.6709 82.4398 66.9809 82.1798 66.9909C80.8198 67.0409 79.4598 67.0109 78.0098 67.0109V78.7309H73.1398C73.1398 78.2709 73.1398 77.8509 73.1398 77.4309C73.1398 74.2109 73.1098 71.0009 73.1398 67.7809C73.1398 67.0409 72.8898 66.9009 72.2098 66.9409C71.0998 67.0109 69.9698 67.0009 68.8598 66.9709C68.6198 66.9709 68.1998 66.7309 68.1898 66.5909C68.1298 65.4609 68.1598 64.3309 68.1598 63.2109Z" fill="#444242"/>
<path d="M155.35 63.1797H160.08V75.0297H167.69V78.7397H155.35V63.1797Z" fill="#444242"/>
<path d="M184.93 84.1978C186.34 84.1978 187.83 84.1679 189.3 84.2379C189.46 84.2379 189.72 84.7779 189.73 85.0679C189.75 88.3779 189.76 91.6879 189.7 94.9979C189.69 95.8579 190 96.0279 190.78 96.0079C192.97 95.9579 195.17 95.9879 197.41 95.9879V99.6179C197.13 99.6479 196.87 99.6878 196.6 99.6878C193 99.6878 189.39 99.6879 185.79 99.7179C185.05 99.7179 184.93 99.4379 184.93 98.7979C184.95 94.8679 184.93 90.9478 184.93 87.0178C184.93 86.1278 184.93 85.2378 184.93 84.1978Z" fill="#444242"/>
<path d="M122.27 99.7522C122.27 94.9522 122.27 90.3222 122.27 85.6822C122.27 85.4622 122.27 85.2422 122.25 85.0322C122.15 84.3722 122.44 84.1622 123.09 84.1722C124.45 84.2022 125.81 84.1822 127.21 84.1822C127.23 84.6322 127.26 84.9022 127.26 85.1722C127.26 89.7222 127.25 94.2622 127.28 98.8122C127.28 99.5322 127.12 99.8022 126.35 99.7622C125.02 99.7022 123.69 99.7422 122.28 99.7422L122.27 99.7522Z" fill="#444242"/>
<path d="M106.25 57.9509C106.25 56.7209 106.25 55.5909 106.25 54.4509C106.24 50.6509 106.23 46.8409 106.2 43.0409C106.2 42.3909 106.42 42.1609 107.07 42.1809C108.19 42.2209 109.31 42.2309 110.43 42.1809C111 42.1609 111.12 42.4209 111.12 42.9009C111.1 47.6909 111.08 52.4909 111.08 57.2809C111.08 57.8209 110.83 57.9609 110.33 57.9509C109.06 57.9309 107.78 57.9509 106.26 57.9509H106.25Z" fill="#444242"/>
<path d="M181.51 57.9003V42.3203H186.22V57.9003H181.51Z" fill="#444242"/>
<path d="M207.23 63.1992H211.97V78.7492H207.23V63.1992Z" fill="#444242"/>
</svg>
