<svg width="256" height="142" viewBox="0 0 256 142" fill="none" xmlns="http://www.w3.org/2000/svg">
<g clip-path="url(#clip0_37_556)">
<mask id="mask0_37_556" style="mask-type:luminance" maskUnits="userSpaceOnUse" x="0" y="0" width="256" height="142">
<path d="M256 0H0V142H256V0Z" fill="white"/>
</mask>
<g mask="url(#mask0_37_556)">
<mask id="mask1_37_556" style="mask-type:luminance" maskUnits="userSpaceOnUse" x="0" y="0" width="256" height="142">
<path d="M256 0H0V142H256V0Z" fill="white"/>
</mask>
<g mask="url(#mask1_37_556)">
<path d="M42.0093 27.3878C38.6464 28.1103 35.8222 26.0479 33.3394 23.7359C31.1588 21.713 30.0554 18.8361 29.7401 15.9068C29.3461 12.2681 29.924 8.73451 31.9601 5.50302C34.1276 2.06135 37.3066 0.4062 41.208 0.0646606C46.1603 -0.368832 50.2062 1.36514 52.8991 5.63438C53.4771 6.55391 53.5822 7.81498 53.753 8.94469C53.8187 9.39132 53.2538 9.40446 52.8729 9.40446C52.0584 9.40446 51.244 9.36505 50.4295 9.39132C49.1816 9.43073 48.3146 9.29936 47.7104 7.81498C46.4362 4.72799 41.2343 3.92669 38.5676 6.27805C35.7828 8.73451 35.1391 11.8871 35.7828 15.4208C36.0323 16.7475 36.1637 18.0743 36.8336 19.309C38.1735 21.7524 40.0389 22.3829 42.8237 22.2909C46.1209 22.1859 47.3688 20.2154 48.2358 17.6276C48.4329 17.0496 48.6824 16.984 49.1291 16.984C50.2194 16.984 51.3097 17.0628 52.3868 16.9577C53.7267 16.8263 54.1733 17.2467 53.8318 18.5997C52.9517 22.0545 51.152 24.6555 47.8549 26.3894C46.0421 27.3484 44.3081 27.3615 42.0093 27.4009V27.3878Z" fill="#3C4A5B"/>
<path d="M208.405 61.2403C209.994 61.2403 211.452 61.2666 212.91 61.2272C213.475 61.214 213.62 61.5556 213.856 61.9234C214.881 63.5391 216.707 64.2747 218.559 63.8281C220.24 63.4209 221.199 62.1467 221.528 60.2945C221.698 59.283 221.869 58.2978 221.777 57.2206C220.923 57.26 220.372 57.9037 219.702 58.2584C216.694 59.861 213.804 59.8479 211.058 57.6804C209.469 56.4325 208.746 54.6591 208.273 52.7806C207.262 48.761 208.063 45.1879 211.045 42.2192C213.436 39.8284 217.666 39.7233 220.227 41.8908C220.91 42.4688 221.62 42.9811 221.83 41.523C221.922 40.9187 222.29 40.7742 222.841 40.7085C226.611 40.2619 226.73 40.3538 226.73 44.0582C226.73 48.9317 226.769 53.8184 226.716 58.6919C226.69 61.0301 226.204 63.3027 224.221 64.8527C220.135 68.0711 212.884 68.5046 209.456 63.6442C208.943 62.9217 208.786 62.1467 208.431 61.214L208.405 61.2403ZM221.488 50.114C221.488 49.3127 221.541 48.761 221.488 48.2224C221.291 46.3308 219.728 44.715 217.6 44.3604C216.063 44.0976 214.763 44.8333 214.106 46.1075C213.015 48.2224 212.963 50.5212 213.804 52.7675C214.763 55.3553 217.469 56.2092 219.912 54.3307C221.357 53.2273 221.712 51.5984 221.501 50.1008L221.488 50.114Z" fill="#3C4A5B"/>
<path d="M205.738 116.11C205.712 110.593 205.659 105.076 205.659 99.5586C205.659 95.3288 207.945 92.6884 211.702 91.1646C215.722 89.5357 221.961 90.8887 224.694 94.2779C226.322 96.3008 226.651 98.9281 226.638 101.529C226.625 105.917 226.638 110.304 226.638 114.692C226.638 115.519 226.638 116.557 225.784 116.741C224.72 116.977 223.524 116.859 222.421 116.688C222.014 116.636 222.198 115.927 222.184 115.506C222.119 113.68 222.368 111.828 222.001 110.015C221.79 109.766 221.528 109.647 221.199 109.726C218.178 109.779 215.17 109.844 212.148 109.884C209.692 109.91 209.955 109.779 210.034 111.894C210.06 112.59 210.034 113.299 210.034 113.996C210.034 116.964 208.759 117.726 205.843 116.505C205.856 116.465 205.909 116.413 205.896 116.373C205.856 116.281 205.804 116.202 205.751 116.124L205.738 116.11ZM215.945 106.56C217.521 106.547 219.084 106.495 220.661 106.56C221.764 106.6 222.185 106.193 222.211 105.063C222.263 103.014 222.158 100.978 221.909 98.9543C221.554 95.9856 219.938 94.3567 217.088 94.6851C216.286 94.777 215.459 94.7114 214.658 94.6851C212.267 94.6325 211.045 95.3944 210.375 97.6801C209.6 100.36 210.139 103.132 210.047 105.864C210.02 106.639 210.677 106.574 211.242 106.56C212.818 106.547 214.382 106.56 215.958 106.56H215.945Z" fill="#3C4A5B"/>
<path d="M180.937 9.70627C181.384 7.05277 180.582 4.50436 180.674 1.9034C180.714 0.708015 181.068 0.300796 182.277 0.300796C186.257 0.300796 186.257 0.261387 186.257 4.21536C186.257 11.0987 186.192 17.982 186.31 24.8785C186.336 26.5336 185.64 27.0459 184.26 27.0591C182.947 27.0591 181.554 27.2298 180.99 25.4959C180.753 24.7734 180.307 25.3908 180.044 25.6009C178.573 26.862 176.97 27.5451 174.947 27.44C172.018 27.2824 169.824 26.0082 168.405 23.5517C165.883 19.1905 166.093 14.7374 168.563 10.455C169.298 9.18082 170.757 8.35324 172.188 7.93289C174.921 7.11845 177.574 7.24981 179.899 9.20709C180.175 9.43041 180.346 9.85076 180.924 9.73254L180.937 9.70627ZM171.886 17.2464C171.637 18.4418 172.202 19.4926 172.596 20.491C173.279 22.2118 174.605 23.4598 176.563 23.4335C178.297 23.4072 179.531 22.3038 180.254 20.7668C181.462 18.2184 181.16 15.7226 179.834 13.2793C178.691 11.1906 175.354 10.7308 173.686 12.4385C172.372 13.7784 172.044 15.473 171.886 17.2332V17.2464Z" fill="#3C4A5B"/>
<path d="M159.696 115.151C159.696 110.817 159.696 106.482 159.67 102.134C159.657 100.268 159.643 98.3894 158.724 96.6686C158.435 96.13 158.172 95.552 157.555 95.4338C155.387 95.0265 153.338 93.8968 151 94.7244C148.977 95.4469 147.795 96.8393 147.781 98.928C147.755 103.434 147.703 107.94 147.781 112.432C147.808 113.575 147.19 114.665 147.689 115.861C147.834 116.202 147.506 116.991 146.639 116.925C145.772 116.846 144.905 116.859 144.038 116.925C143.407 116.964 143.171 116.78 143.184 116.124C143.197 110.212 142.96 104.288 143.289 98.3894C143.486 95.0397 145.627 92.4519 148.911 91.2827C152.392 90.0479 155.886 90.2844 159.302 91.7951C162.77 93.332 163.886 96.3533 164.018 99.703C164.215 104.958 164.044 110.225 164.097 115.48C164.097 116.596 163.571 116.872 162.665 116.899C162.074 116.912 161.456 116.833 160.878 116.912C159.959 117.03 159.591 116.623 159.538 115.782C159.906 115.651 159.814 115.401 159.696 115.138V115.151Z" fill="#3C4A5B"/>
<path d="M94.5932 100.385C94.5932 97.7317 94.6195 95.065 94.5801 92.4115C94.5669 91.5708 94.6458 91.1636 95.6704 91.1636C98.915 91.1242 98.915 91.0716 98.915 94.3294C98.915 98.6643 98.8625 103.013 98.9675 107.348C99.0726 111.249 100.991 114.297 105.654 113.075C106.744 112.786 108.018 113.075 109.03 112.392C110.409 111.485 110.803 110.014 110.869 108.504C111.132 103.092 111.132 97.666 110.869 92.2539C110.816 91.1505 111.447 91.1111 112.169 91.0322C112.366 91.0191 112.563 91.1505 112.774 91.1899C113.759 91.3738 115.125 90.6513 115.664 91.5051C116.136 92.2408 115.782 93.5018 115.782 94.5396C115.782 98.3885 115.795 102.238 115.782 106.1C115.769 108.556 115.309 110.934 113.969 113.049C112.353 115.597 109.936 116.99 106.981 117.213C103.618 117.462 100.281 117.449 97.5094 114.875C95.5259 113.022 94.7114 110.763 94.6063 108.215C94.5013 105.614 94.5801 103.013 94.5801 100.399L94.5932 100.385Z" fill="#3C4A5B"/>
<path d="M130.849 52.8851C130.849 54.9475 130.81 56.9967 130.875 59.0591C130.875 59.4269 130.941 59.5189 130.573 59.7159C129.496 60.2939 126.593 60.0443 125.976 59.0985C125.476 58.3366 125.095 58.7307 124.662 58.954C123.361 59.5977 122.035 60.0443 120.603 60.3727C116.609 61.2922 112.603 58.0082 112.826 54.3432C112.971 52.0181 114.757 50.0871 117.109 49.5091C119.224 48.9968 121.444 49.0494 123.506 48.2743C124.478 47.9065 125.253 47.5781 125.266 46.3433C125.266 45.1217 124.714 44.5831 123.558 44.2678C121.286 43.6504 120.235 43.9263 119 45.7916C118.343 46.7899 114.862 47.4599 113.917 46.7637C113.47 46.4353 113.444 45.9624 113.601 45.4501C114.363 42.8885 116.925 41.0495 119.618 40.7079C121.877 40.4189 124.097 40.3138 126.317 40.813C129.352 41.4961 130.731 43.3614 130.796 46.895C130.836 48.9049 130.796 50.9016 130.796 52.9114C130.81 52.9114 130.836 52.9114 130.849 52.9114V52.8851ZM125.673 52.7932C125.279 52.2808 126.159 51.0461 124.951 51.2037C123.086 51.4401 121.115 51.4533 119.407 52.4385C118.133 53.1741 117.936 55.6962 119.079 56.3793C120.695 57.3383 122.337 57.1412 123.939 56.3399C125.411 55.6174 125.398 54.133 125.673 52.7932Z" fill="#3C4A5B"/>
<path d="M109.056 54.0675C107.178 60.6355 99.782 62.3038 94.5538 58.7176C91.5851 56.6815 89.8774 51.8869 90.7706 48.3138C92.058 43.1907 94.4356 40.9182 99.874 40.4584C104.747 40.0381 108.426 43.7425 109.266 48.0905C109.411 48.8524 109.647 49.5223 109.963 50.2317C110.37 51.1906 109.437 51.6504 108.57 51.6767C106.784 51.7424 104.984 51.7161 103.197 51.7161C101.463 51.7161 99.7163 51.6898 97.9824 51.7029C96.3272 51.7029 95.7886 52.5305 96.4192 54.0806C97.0891 55.7357 98.7443 56.4582 100.61 56.4057C102.16 56.3663 103.211 55.7751 104.275 54.7637C105.654 53.4501 107.454 54.2645 109.096 54.0543L109.056 54.0675ZM95.9594 48.2219C98.0874 48.2219 100.189 48.2481 102.278 48.2087C102.751 48.2087 103.473 48.5765 103.657 47.8409C103.828 47.1841 103.789 46.5142 103.211 45.8968C101.871 44.4518 100.202 43.9526 98.4027 44.4124C96.6162 44.859 96.1564 46.4616 95.9463 48.2219H95.9594Z" fill="#3C4A5B"/>
<path d="M41.497 51.7298C39.5397 51.7298 37.5825 51.7298 35.6252 51.7298C34.7713 51.7298 34.5086 51.8481 34.7713 52.9646C35.6514 56.6427 38.6728 56.669 41.3788 56.1436C41.6809 56.091 42.0881 55.9203 42.2064 55.6838C43.2047 53.6871 45.0569 54.1469 46.7383 54.0549C47.5922 54.0155 47.7367 54.2651 47.4214 55.1058C46.318 58.1009 44.006 59.5721 41.0898 60.2421C35.1654 61.6082 29.1753 57.0106 29.2673 50.4819C29.3461 44.6626 33.7073 40.1963 38.8961 40.4328C44.584 40.6955 47.4214 43.7037 48.2359 49.5755C48.5249 51.651 48.3804 51.6904 46.226 51.7036C44.6497 51.7167 43.0734 51.7036 41.497 51.7036V51.7298ZM38.8041 48.2225C39.7762 48.2225 40.7614 48.1962 41.7335 48.2225C42.8106 48.2619 42.942 47.7233 42.5479 46.922C41.8123 45.4508 40.6957 44.5444 38.988 44.2948C37.1358 44.0189 36.0324 45.1355 35.0735 46.344C34.3378 47.2767 34.9684 48.2094 36.2163 48.2225C37.0833 48.2225 37.9503 48.2225 38.8173 48.2225H38.8041Z" fill="#3C4A5B"/>
<path d="M70.4359 18.6518C68.2422 18.7701 66.0353 18.4154 63.8153 18.8752C62.8169 19.0853 62.8563 19.4531 63.0534 20.1625C64.0255 23.6042 68.2816 24.8258 70.8037 22.2511C72.1699 20.8587 73.8119 21.1477 75.3882 20.9375C76.045 20.8456 76.2158 22.2249 75.6378 23.0393C71.1715 29.2133 63.4081 28.7667 59.3753 23.2101C57.0239 19.9523 57.0896 16.1034 58.8498 12.5041C60.4524 9.23322 63.211 7.63062 66.9154 7.51239C69.2011 7.44671 71.2766 7.86707 73.1025 9.19382C75.0335 10.5863 75.8611 12.7406 76.2552 14.9212C77.0959 19.5582 77.0828 18.5073 73.0237 18.665C72.1567 18.7044 71.2897 18.665 70.4228 18.665L70.4359 18.6518ZM67.165 15.197V15.2364C68.1371 15.2364 69.1091 15.2102 70.0812 15.2364C71.0927 15.2627 71.316 14.8686 70.9351 13.9491C70.1732 12.0969 69.096 11.3876 66.968 11.427C65.2077 11.4664 63.8153 12.5829 63.1191 14.2775C62.7775 15.1182 63.3292 15.1445 63.7496 15.1708C64.8793 15.2364 66.0222 15.197 67.1519 15.197H67.165Z" fill="#3C4A5B"/>
<path d="M199.59 7.52557C204.674 7.11835 208.641 11.2956 208.773 15.7356C208.786 16.2085 209.022 16.6683 209.062 17.1412C209.18 18.5993 208.707 18.7701 207.249 18.7175C203.557 18.5862 199.866 18.6519 196.175 18.6913C195.19 18.6913 195.308 19.4663 195.479 20.1362C196.346 23.5254 200.484 24.7864 203.163 22.3694C204.424 21.2265 205.83 20.9638 207.393 20.885C208.602 20.8193 208.641 21.371 208.234 22.2512C206.776 25.3907 204.214 27.059 200.878 27.3742C194.099 28.0179 189.751 22.7766 190.224 16.5107C190.592 11.6634 193.916 7.36793 199.577 7.5387L199.59 7.52557ZM199.498 15.2759C199.498 15.2759 199.498 15.3153 199.498 15.3284C200.47 15.3284 201.456 15.3547 202.428 15.3284C203.387 15.3021 203.807 14.9737 203.321 13.9097C202.467 12.0444 201.626 11.4401 199.498 11.4401C197.554 11.4401 196.608 12.1757 195.702 14.0805C195.242 15.0394 195.663 15.2496 196.425 15.2759C197.449 15.3284 198.487 15.2759 199.512 15.2759H199.498Z" fill="#3C4A5B"/>
<path d="M151.355 17.1155C151.355 22.475 149.056 25.8773 144.695 27.3091C140.491 28.6884 134.856 26.1663 133.03 21.9102C131.401 18.1007 131.48 14.3306 134.067 10.889C135.368 9.16815 137.141 7.97276 139.309 7.65749C143.775 7.00069 148.123 7.80199 150.54 12.4127C151.368 14.0022 151.433 15.6836 151.341 17.1155H151.355ZM146.139 17.4045C146.126 16.393 146.166 15.3946 145.864 14.3963C145.391 12.8856 144.405 11.8348 142.934 11.5195C141.529 11.2174 140.084 11.2568 138.954 12.5704C137.102 14.6984 136.747 18.9151 138.35 21.3716C139.663 23.3946 141.121 23.7755 143.341 22.9085C145.956 21.8839 146.258 19.769 146.166 17.4045H146.139Z" fill="#3C4A5B"/>
<path d="M190.75 43.5198C193.232 39.9468 196.201 40.0125 199.472 40.8401C201.876 41.4575 203.111 43.9665 203.268 47.0929C203.452 50.5477 203.479 54.0025 203.518 57.4573C203.544 59.9269 203.518 59.9269 201.101 59.9269C198.001 59.9269 198.067 59.9269 197.988 56.8005C197.896 53.6215 198.329 50.4426 197.699 47.2768C197.344 45.5165 196.661 44.7678 194.901 44.6101C193.127 44.4394 191.59 45.2932 191.223 46.817C191.026 47.6183 190.829 48.4328 190.855 49.326C190.934 52.3605 190.815 55.3949 190.842 58.4294C190.842 59.5591 190.461 59.9269 189.318 59.94C185.443 59.9794 185.443 60.0188 185.469 56.1699C185.482 51.5066 185.522 46.8433 185.495 42.18C185.495 40.8007 186.021 40.4066 187.282 40.8926C187.334 40.9058 187.387 40.9583 187.426 40.9583C189.239 40.735 190.631 41.1422 190.763 43.4936L190.75 43.5198Z" fill="#3C4A5B"/>
<path d="M80.8791 17.2736C80.8791 14.5676 80.9448 11.8484 80.8529 9.14233C80.8135 7.99949 81.2207 7.7499 82.219 7.84186C82.8102 7.90754 83.4276 7.93381 84.0056 7.84186C85.0827 7.65795 85.6476 8.19653 85.7395 9.1292C85.8709 10.5348 86.4489 9.96991 86.948 9.44447C89.5621 6.75156 92.6097 7.17191 95.7098 8.26221C97.1548 8.77452 97.8904 10.0225 98.2057 11.4149C99.2829 16.2622 99.0333 21.2013 98.6786 26.0617C98.521 28.216 95.9594 26.6134 94.5539 27.0338C93.5687 27.3359 93.5949 26.5346 93.5949 25.8515C93.5949 23.0273 93.7263 20.203 93.5424 17.3919C93.4373 15.8024 93.6081 14.1078 92.4652 12.6497C91.3486 11.2047 89.9037 11.8616 88.6032 11.809C87.5654 11.7696 87.0663 12.5709 86.7773 13.5298C86.3963 14.804 86.0811 16.0651 86.1073 17.4444C86.173 20.203 86.1073 22.9747 86.1073 25.7464C86.1073 26.6923 85.7789 27.0732 84.7806 27.0995C80.8529 27.2177 80.8529 27.244 80.8529 23.3031C80.8529 21.2933 80.8529 19.2966 80.8529 17.2868C80.8529 17.2868 80.866 17.2868 80.8791 17.2868V17.2736Z" fill="#3C4A5B"/>
<path d="M157.226 53.6594C157.226 55.6167 157.187 57.2456 157.239 58.8613C157.266 59.7283 156.964 59.9254 156.123 59.9517C151.959 60.0699 151.985 60.0961 152.011 56.0502C152.038 52.5297 152.011 49.0093 152.011 45.4888C152.011 44.3591 151.525 43.295 151.657 42.1522C151.775 41.2327 152.077 40.5233 153.128 40.7466C154.533 41.0488 156.228 40.3919 157.226 42.1259C157.647 42.8747 158.395 42.1916 158.737 41.8632C160.839 39.9059 163.282 40.1949 165.712 40.7598C167.893 41.2721 169.548 43.5183 169.601 46.0668C169.679 50.1652 170.271 54.2374 169.995 58.349C169.916 59.5313 169.614 59.9517 168.392 59.9517C164.675 59.9517 164.714 60.0042 164.661 56.2341C164.622 53.0683 164.964 49.8631 164.083 46.763C163.624 45.1472 162.441 44.4641 160.497 44.6086C158.882 44.7269 157.857 45.8697 157.528 47.3804C157.056 49.5741 157.371 51.781 157.239 53.6463L157.226 53.6594Z" fill="#3C4A5B"/>
<path d="M69.1354 46.0804C69.1354 41.9951 69.1748 38.5271 69.1091 35.0592C69.096 33.9163 69.4638 33.4697 70.6066 33.5617C71.4211 33.6273 72.2487 33.6799 73.05 33.5617C74.7314 33.3252 75.0467 34.2053 75.0335 35.6109C74.9941 41.5747 75.0598 47.5254 74.9678 53.4892C74.9547 54.8291 75.3751 55.1049 76.6099 55.0787C79.9727 55.013 83.3356 55.0655 86.7115 55.0655C86.8166 55.0655 86.948 54.9604 87.0137 54.9998C88.4849 55.9456 87.4734 57.4038 87.7099 58.5991C87.815 59.1509 88.012 59.9522 86.8954 59.939C81.1944 59.9128 75.4933 59.9128 69.7922 59.939C68.6494 59.939 68.7282 59.2165 68.8201 58.5466C69.4112 54.1854 68.9778 49.8111 69.1223 46.0673L69.1354 46.0804Z" fill="#3C4A5B"/>
<path d="M56.0124 141.988C41.891 142.461 30.3969 129.469 29.6219 117.265C28.5053 99.7151 42.7712 88.1553 56.3145 88.221C71.4211 88.2867 83.283 100.609 83.2304 115.334C83.1648 129.929 70.8693 142.382 56.0124 141.988ZM56.6166 140.753C71.0138 141.094 81.2863 129.429 82.0876 116.99C83.1385 100.701 70.6329 90.3491 58.2587 89.5478C41.2605 88.4312 31.3953 101.712 30.7647 112.904C30.3444 120.326 32.2622 127.236 37.6218 132.805C42.7449 138.126 48.9714 140.91 56.6035 140.753H56.6166Z" fill="#3C4A5B"/>
<path d="M119.788 94.9986C118.435 94.0923 119.237 92.726 119.092 91.57C119.04 91.1103 119.526 91.2153 119.828 91.2022C126.238 90.9132 132.649 91.084 139.059 91.0971C139.637 91.0971 140.018 91.2548 139.926 91.9247C139.913 92.0823 139.926 92.2531 139.926 92.4107C139.952 94.206 139.094 95.1036 137.351 95.1036C135.998 95.1036 134.632 95.1825 133.279 95.0774C132.084 94.9854 131.847 95.4452 131.861 96.5486C131.9 102.683 131.874 108.818 131.861 114.939C131.861 115.662 132.123 116.752 131.138 116.844C129.956 116.949 128.642 117.317 127.526 116.503C127.158 116.24 127.302 115.819 127.302 115.452C127.302 108.726 127.315 102 127.329 95.2744C124.833 94.749 122.324 95.0906 119.815 95.0118H119.788V94.9986Z" fill="#3C4A5B"/>
<path d="M110.58 16.7861C110.58 18.1391 110.58 19.4922 110.58 20.8583C110.58 22.658 111.04 23.1703 112.826 23.1309C113.995 23.1046 114.363 23.3936 114.205 24.6415C113.877 27.2556 113.759 27.5446 111.066 27.3476C108.754 27.1768 106.35 26.7959 105.536 24.1292C105.142 22.8287 104.958 21.4363 105.023 20.0176C105.128 17.6925 105.115 15.3674 105.128 13.0292C105.128 11.9783 104.826 11.2689 103.526 11.4134C101.503 11.6368 102.265 10.0341 102.081 9.0621C101.858 7.8273 102.646 7.8273 103.539 7.8273C105.339 7.8273 105.693 7.34127 105.325 5.54162C104.844 3.1596 105.776 1.94231 108.123 1.88977C108.61 1.88977 109.109 1.91604 109.595 1.87663C110.396 1.81095 110.632 2.17877 110.606 2.92753C110.567 4.17546 110.646 5.42339 110.58 6.67132C110.527 7.57772 110.803 7.98494 111.736 7.84044C111.946 7.81417 112.169 7.81417 112.393 7.84044C113.076 7.91926 114.389 7.85358 114.337 7.99807C113.982 8.93074 114.586 10.0473 113.93 10.796C113.352 11.466 112.458 11.6762 111.565 11.2689C110.632 10.8223 110.58 11.3872 110.58 12.0702C110.58 13.6466 110.58 15.2229 110.58 16.7861Z" fill="#3C4A5B"/>
<path d="M122.862 11.0201C123.742 9.87731 124.517 9.04973 125.503 8.36665C126.619 7.60476 127.92 7.64417 129.102 7.26322C129.154 7.25008 129.22 7.23695 129.26 7.26322C130.902 8.22216 129.864 9.81163 130.113 11.0858C130.297 12.0053 129.719 12.1104 128.944 12.0973C127.118 12.0579 125.161 12.0053 124.202 13.9758C123.269 15.8936 122.744 17.9823 123.086 20.1366C123.401 22.1333 123.02 24.1169 123.191 26.1136C123.23 26.5996 122.902 26.9543 122.402 26.9674C121.155 27.0068 119.907 27.0331 118.659 27.0068C117.844 27.0068 117.752 26.3894 117.765 25.7457C117.792 20.1629 117.818 14.58 117.805 9.01032C117.805 8.07766 118.186 7.73612 119.079 7.85435C119.132 7.85435 119.184 7.85435 119.237 7.85435C121.312 7.81932 122.516 8.87459 122.849 11.0201H122.862Z" fill="#3C4A5B"/>
<path d="M135.972 50.3099C135.972 47.5513 136.025 44.7796 135.946 42.021C135.92 40.9044 136.301 40.576 137.338 40.7074C137.929 40.7862 138.534 40.7074 139.125 40.7468C140.215 40.8125 141.161 41.0489 140.911 42.5071C140.846 42.8749 140.832 43.3609 141.266 43.4791C141.739 43.6105 141.765 43.0719 142.002 42.8092C143.315 41.2985 144.918 40.3659 146.993 40.4053C147.217 40.4053 147.545 40.3265 147.624 40.4315C148.596 41.6926 147.887 43.1639 148.084 44.53C148.202 45.397 147.532 45.3313 147.006 45.2788C145.089 45.0817 143.394 45.6072 142.409 47.2755C141.121 49.4561 141.121 51.9257 141.253 54.3953C141.332 55.9585 141.66 57.6924 141.148 59.0717C140.425 60.9896 138.402 59.5709 137.01 59.9256C136.09 60.162 135.998 59.5052 135.998 58.7565C136.025 55.9453 135.998 53.1211 135.998 50.3099C135.998 50.3099 135.998 50.3099 135.985 50.3099H135.972Z" fill="#3C4A5B"/>
<path d="M175.105 50.3111C175.105 47.6051 175.131 44.8859 175.105 42.1799C175.091 40.9451 175.367 40.4722 176.72 40.9713C177.443 41.2341 178.336 41.129 179.137 41.037C180.201 40.9188 180.412 41.3654 180.398 42.3243C180.359 47.7496 180.359 53.1748 180.398 58.6C180.398 59.559 180.07 59.9268 179.085 59.9662C175.105 60.1238 175.105 60.1501 175.118 56.1698C175.118 54.2126 175.118 52.2684 175.118 50.3111H175.105Z" fill="#3C4A5B"/>
<path d="M198.342 93.8961C200.549 96.5365 199.472 100.385 197.489 101.778C196.95 102.159 196.425 102.461 196.254 103.131C195.426 104.05 194.388 104.484 193.206 104.142C192.129 103.827 191.065 103.998 190.001 103.867C188.779 103.722 187.584 104.366 186.336 103.932C185.719 103.722 185.39 104.3 185.127 104.786C184.838 105.009 184.523 105.128 184.155 105.049C183.223 104.064 182.435 103.092 182.921 101.541C183.17 100.753 182.986 99.8337 182.973 98.9798C182.973 98.7696 182.907 98.5069 182.632 98.5332C182.461 98.5595 182.185 98.7171 182.159 98.8616C182.054 99.2688 181.962 99.7286 182.027 100.123C182.474 102.435 181.226 104.366 180.674 106.454C180.569 106.822 180.359 107.151 179.86 106.993C179.86 102.645 179.86 98.2836 179.86 93.9355C181.489 93.8042 183.118 94.6055 184.76 93.8304C185.167 93.6465 185.889 93.791 185.771 94.6317C185.233 94.8945 184.182 94.3165 184.234 95.525C184.313 97.2458 183.774 98.9141 183.88 100.648C183.932 101.581 184.3 101.896 185.141 101.883C186.664 101.87 188.214 101.712 189.725 101.857C191.827 102.067 193.574 101.541 195.058 100.07C196.044 99.6235 196.714 98.0997 196.333 97.1539C195.755 95.7352 196.14 94.7938 197.489 94.3296C197.791 94.2245 198.053 94.0275 198.329 93.883L198.342 93.8961Z" fill="#3C4A5B"/>
<path d="M185.114 104.8C185.377 104.314 185.705 103.723 186.323 103.946C187.571 104.38 188.753 103.736 189.988 103.881C191.052 104.012 192.129 103.841 193.193 104.157C194.375 104.498 195.413 104.065 196.241 103.145C196.451 103.224 196.674 103.303 196.884 103.395C196.687 103.605 196.608 103.868 196.845 104.038C197.2 104.288 197.37 104.012 197.489 103.71C201.679 105.575 201.64 113.418 197.489 115.178C197.344 114.731 196.937 114.771 196.582 114.639C194.586 113.904 192.615 114.757 190.632 114.692C189.436 114.652 188.635 114.35 188.32 113.155C189.673 113.142 191.039 113.142 192.392 113.102C194.362 113.05 195.833 112.13 196.122 110.79C196.976 106.876 195.623 105.142 191.577 104.984C189.41 104.892 187.242 104.866 185.075 104.813L185.114 104.8Z" fill="#3C4A5B"/>
<path d="M179.847 107.006C180.346 107.177 180.569 106.848 180.661 106.467C181.213 104.379 182.461 102.448 182.014 100.136C181.935 99.7291 182.041 99.2823 182.146 98.8751C182.185 98.7306 182.448 98.573 182.619 98.5467C182.881 98.5204 182.96 98.7833 182.96 98.9934C182.96 99.8473 183.144 100.78 182.907 101.555C182.421 103.105 183.21 104.077 184.129 105.062C184.024 105.377 183.932 105.706 183.84 106.021C183.485 105.863 183.341 106.047 183.446 106.336C183.551 106.612 183.774 106.862 184.142 106.612C184.142 108.635 184.129 110.658 184.116 112.681C184.024 112.72 183.866 112.747 183.84 112.812C183.63 113.325 184.103 113.246 184.339 113.39C185.924 114.371 186.384 115.413 185.719 116.517C183.985 116.937 182.198 116.582 180.451 116.819C179.82 116.898 179.794 116.464 179.807 116.004C179.834 114.94 179.847 113.863 179.86 112.799C180.057 112.957 180.254 112.93 180.254 112.668C180.254 112.418 180.057 112.379 179.86 112.536C179.86 110.684 179.86 108.832 179.86 106.98L179.847 107.006Z" fill="#3C4A5B"/>
<path d="M185.771 94.6308C185.876 93.7901 185.167 93.6456 184.76 93.8295C183.118 94.6046 181.476 93.7901 179.86 93.9346C179.742 91.2811 179.742 91.3468 182.356 91.2417C185.902 91.0972 189.462 91.5044 193.009 90.979C194.139 90.8082 197.764 92.818 198.356 93.8821C198.08 94.0397 197.817 94.2367 197.515 94.3287C196.166 94.7928 195.781 95.7343 196.359 97.153C196.74 98.0856 196.083 99.6226 195.085 100.069C195.19 98.3746 195.544 96.6407 194.296 95.1694C194.572 94.3812 194.296 93.8427 193.469 93.8295C192.917 93.8295 191.945 93.3698 192.037 94.6308C189.948 94.6308 187.873 94.6308 185.784 94.6308H185.771Z" fill="#3C4A5B"/>
<path d="M57.904 52.124C56.3933 52.124 54.8695 52.1109 53.3589 52.124C52.5576 52.124 52.2292 51.8219 52.1635 50.9812C51.9139 47.5526 51.8876 47.6183 55.2899 47.5395C57.9303 47.4738 60.5312 48.1832 63.1716 47.8285C63.2635 47.8285 63.3555 47.7628 63.4343 47.7234C63.7496 48.9976 63.6182 50.3112 63.5394 51.5854C63.4868 52.5181 62.6067 52.0583 62.1075 52.0715C60.702 52.1371 59.2964 52.0977 57.8908 52.0977L57.904 52.124Z" fill="#3C4A5B"/>
<path d="M185.719 116.529C186.384 115.425 185.924 114.383 184.339 113.402C184.103 113.258 183.63 113.337 183.84 112.824C183.866 112.759 184.024 112.732 184.116 112.693C185.456 113.56 186.967 112.732 188.346 113.127C188.661 114.322 189.449 114.624 190.658 114.663C192.641 114.742 194.612 113.875 196.608 114.611C196.963 114.742 197.37 114.703 197.515 115.149C195.755 116.411 193.745 116.765 191.643 116.7C189.673 116.634 187.676 117.107 185.719 116.516V116.529Z" fill="#3C4A5B"/>
<path d="M172.136 112.038C173.935 112.064 174.855 113.023 174.842 114.849C174.842 116.413 173.712 117.28 171.742 117.24C170.179 117.214 169.272 116.124 169.312 114.324C169.351 112.866 170.415 112.012 172.136 112.038Z" fill="#3C4A5B"/>
<path d="M177.522 37.8046C174.711 37.8046 174.238 37.1872 174.829 34.4286C174.921 34.0214 175.065 33.6273 175.459 33.6142C176.865 33.5617 178.257 33.5748 179.663 33.5879C180.004 33.5879 180.044 33.9032 180.044 34.1791C180.044 34.5075 180.031 34.8227 180.057 35.1511C180.215 36.9201 179.37 37.8046 177.522 37.8046Z" fill="#3C4A5B"/>
<path d="M199.314 136.76C198.605 136.721 197.896 136.366 197.383 137.338C197.029 138.008 196.149 137.785 195.61 137.522C194.769 137.115 195.965 136.839 195.794 136.406C195.781 136.353 195.794 136.301 195.794 136.248C195.912 135.368 195.334 133.936 196.083 133.726C197.344 133.358 198.855 133.279 200.168 134.002C200.287 134.462 200.011 134.475 199.682 134.435C199.367 134.409 199.012 134.462 198.763 134.33C198.053 133.962 197.738 134.37 197.607 134.908C197.423 135.618 197.935 135.67 198.474 135.618C199.498 135.499 199.039 136.419 199.314 136.826V136.787V136.76Z" fill="#3C4A5B"/>
<path d="M138.192 137.77C137.089 138.164 136.143 138.111 135.276 137.967C134.632 137.862 133.621 137.639 134.527 136.43C135.25 135.458 133.975 134.604 134.028 133.619H137.811C137.483 134.565 136.248 134.735 136.274 135.773C136.301 136.942 137.456 137.034 138.192 137.757V137.77Z" fill="#3C4A5B"/>
<path d="M158.369 135.865C159.341 135.169 158.895 133.908 159.867 133.238C160.497 134.052 159.867 134.788 159.748 135.471C159.551 136.522 159.748 137.113 160.931 137.113C161.351 137.113 161.929 137.047 161.719 137.731C161.574 138.217 161.154 138.072 160.799 137.862C160.248 137.547 159.643 137.691 159.052 137.678C157.358 137.625 155.886 135.051 156.767 133.632C156.845 133.514 157.029 133.382 157.161 133.396C157.568 133.422 157.502 133.75 157.423 134C157.134 134.933 157.752 135.379 158.369 135.852V135.865Z" fill="#3C4A5B"/>
<path d="M199.682 134.421C200.011 134.461 200.287 134.447 200.168 133.988C200.536 133.41 201.114 133.62 201.64 133.58C202.126 133.541 202.769 133.462 202.94 133.961C203.098 134.487 202.362 134.447 202.06 134.71C201.206 135.446 201.416 136.457 202.52 137.18C202.993 137.495 203.702 137.337 204.135 138.007C203.032 138.007 202.021 137.968 201.022 138.007C200.063 138.06 199.512 137.679 199.315 136.746L199.301 136.786C200.536 137.009 200.562 136.287 200.234 135.472C200.09 135.117 199.617 134.894 199.669 134.395L199.682 134.421Z" fill="#3C4A5B"/>
<path d="M147.322 133.58C149.016 133.594 150.54 135.433 150.356 136.93C150.356 137.035 150.317 137.14 150.251 137.219C150.133 137.39 146.599 137.942 146.442 137.823C145.167 137.009 144.918 135.748 145.259 134.447C145.575 133.278 146.678 133.541 147.322 133.58ZM147.243 134.067C146.336 133.896 145.824 134.723 145.837 135.551C145.837 136.378 146.507 137.154 147.492 137.127C148.478 137.101 149.161 136.681 149.134 135.472C149.108 134.277 148.412 134.119 147.243 134.08V134.067Z" fill="#3C4A5B"/>
<path d="M151.604 127.432C151.643 126.998 151.696 126.696 151.67 126.381C151.63 125.947 151.039 125.54 151.565 125.094C151.67 125.002 152.143 125.094 152.156 125.146C152.248 125.737 153.22 125.855 152.957 126.591C152.76 127.143 153.259 127.708 152.655 128.312C151.906 129.061 151.604 129.639 150.816 128.312C150.238 127.353 148.622 127.274 148.373 125.829C148.294 125.422 147.703 124.975 148.149 124.634C148.793 124.148 149.121 124.923 149.371 125.291C149.923 126.105 150.369 126.998 151.617 127.445L151.604 127.432Z" fill="#3C4A5B"/>
<path d="M171.834 135.445C171.807 137.954 171.637 138.072 169.036 137.389C168.458 137.231 167.512 137.717 167.341 136.916C167.144 135.97 167.328 134.946 167.381 133.96C167.42 133.356 167.932 133.54 168.248 133.593C168.786 133.685 168.445 133.987 168.379 134.289C168.274 134.749 168.3 135.248 168.3 135.734C168.3 136.535 168.734 137.192 169.495 137.113C170.218 137.047 171.124 136.824 170.993 135.655C170.927 135.13 170.967 134.578 170.98 134.039C170.98 133.737 170.901 133.356 171.387 133.317C171.912 133.277 171.807 133.685 171.821 133.974C171.847 134.46 171.821 134.946 171.821 135.432L171.834 135.445Z" fill="#3C4A5B"/>
<path d="M102.685 124.807C102.291 126.12 102.711 127.368 102.764 128.642C102.764 128.879 102.816 129.207 102.436 129.26C102.081 129.312 101.831 129.247 101.713 128.839C101.371 127.736 100.688 127.171 99.4274 127.302C98.6129 127.394 98.4816 126.724 98.5341 126.081C98.5735 125.582 98.232 124.833 98.9019 124.649C99.5456 124.478 99.8608 125.135 100.124 125.674C100.216 125.857 100.36 126.015 100.465 126.199C100.754 126.698 101.201 126.816 101.713 126.685C102.462 126.488 101.529 126.133 101.779 125.818C102.015 125.516 102.028 125.03 102.672 124.807H102.685Z" fill="#3C4A5B"/>
<path d="M159.446 129.403C156.596 128.668 156.425 128.457 156.583 126.461C156.609 126.053 156.675 125.712 157.003 125.489C157.384 125.226 157.686 124.648 158.225 124.897C158.684 125.108 158.461 125.673 158.448 126.067C158.422 127.288 158.33 128.497 159.446 129.416V129.403Z" fill="#3C4A5B"/>
<path d="M119.053 128.34C118.278 128.235 117.91 127.578 117.424 127.105C116.912 126.593 116.32 125.936 115.664 126.383C115.072 126.79 115.401 127.644 115.559 128.301C115.611 128.485 115.913 128.563 115.782 128.839C115.401 128.971 115.112 128.747 114.954 128.498C114.586 127.907 113.286 127.723 113.903 126.711C114.534 125.687 116.386 125.371 117.161 126.041C117.923 126.698 118.869 127.145 119.46 127.999C119.315 128.117 119.184 128.235 119.04 128.353L119.053 128.34Z" fill="#3C4A5B"/>
<path d="M194.178 137.034C192.93 136.548 191.774 136.391 190.579 137.153C191.315 136.207 192.063 135.471 191.866 134.236C191.814 133.947 192.024 133.317 192.471 133.29C192.97 133.264 193.154 133.842 193.206 134.21C193.351 135.208 193.719 136.102 194.165 137.034H194.178Z" fill="#3C4A5B"/>
<path d="M180.215 129.403C179.177 128.668 178.783 127.656 177.627 127.945C177.088 128.076 176.944 127.551 177.18 127.223C177.719 126.461 177.377 124.976 178.27 124.858C179.137 124.74 178.901 126.185 179.348 126.855C179.755 127.472 179.86 128.3 180.215 129.39V129.403Z" fill="#3C4A5B"/>
<path d="M96.8921 127.446C97.365 128.786 96.879 129.259 95.9857 129.613C94.9874 130.007 94.9085 129.009 94.7115 128.641C94.2255 127.787 93.989 126.776 93.7394 125.817C93.6081 125.318 94.1335 124.924 94.4488 124.924C94.764 124.924 94.7772 125.331 94.6721 125.791C94.5276 126.408 94.6852 127.183 94.9479 127.787C95.5259 129.114 96.209 128.549 96.8921 127.446Z" fill="#3C4A5B"/>
<path d="M116.373 137.482C116.623 136.943 117.227 137.075 117.621 136.93C119.237 136.339 119.552 135.814 118.803 134.356C118.632 134.04 118.225 133.659 118.593 133.397C119.026 133.108 119.683 133.081 120.13 133.344C120.55 133.594 120.261 134.014 119.985 134.277C119.683 134.566 119.67 134.92 119.644 135.301C119.486 137.521 118.711 138.034 116.386 137.469V137.482H116.373Z" fill="#3C4A5B"/>
<path d="M142.803 124.346C141.305 124.806 141.148 125.673 141.87 126.815C142.015 127.039 142.238 127.183 141.949 127.446C141.121 128.195 141.713 128.851 142.133 129.521C141.45 129.705 141.029 129.508 140.938 128.825C140.754 127.538 140.36 126.198 140.53 124.963C140.648 124.188 141.831 124.122 142.816 124.359L142.803 124.346Z" fill="#3C4A5B"/>
<path d="M196.083 128.235C195.518 127.197 196.622 125.634 194.927 124.846C196.136 124.859 197.134 125.122 197.278 126.343C197.41 127.394 197.673 128.721 195.925 128.826C195.978 128.629 196.031 128.432 196.083 128.235Z" fill="#3C4A5B"/>
<path d="M202.323 129.284C200.549 127.786 200.523 125.908 202.178 124.883C202.323 124.791 202.625 124.805 202.756 124.91C203.045 125.12 203.124 125.685 202.901 125.737C201.6 126.079 202.454 126.88 202.533 127.445C202.625 128.062 202.638 128.627 202.31 129.297L202.323 129.284Z" fill="#3C4A5B"/>
<path d="M102.212 137.048C103.132 136.037 103.184 134.973 103.46 133.975C103.565 133.607 103.723 133.16 104.169 133.291C104.603 133.423 104.879 133.922 104.642 134.329C104.248 134.986 104.183 135.446 104.879 135.945C105.142 136.129 105.115 136.72 104.761 136.681C103.972 136.615 103.276 137.114 102.225 137.048H102.212Z" fill="#3C4A5B"/>
<path d="M189.476 126.946C189.423 127.484 189.778 128.456 188.832 128.535C187.965 128.614 187.873 127.734 187.912 127.025C187.965 126.184 187.965 124.923 188.766 124.87C189.581 124.831 189.489 126.052 189.476 126.933V126.946Z" fill="#3C4A5B"/>
<path d="M99.2171 137.599C99.2171 136.246 99.2302 135.221 99.2171 134.197C99.2171 133.763 99.3747 133.474 99.7294 133.29C100.15 133.08 100.478 133.409 100.741 133.619C101.345 134.105 100.452 134.039 100.412 134.341C100.294 135.392 100.504 136.575 99.2171 137.599Z" fill="#3C4A5B"/>
<path d="M108.189 124.831C108.938 124.791 109.424 124.778 110.054 124.752C109.805 125.094 109.345 125.369 109.595 125.619C110.54 126.539 110.593 127.563 110.251 128.745C110.186 128.982 110.935 129.415 110.186 129.534C109.792 129.599 109.673 129.139 109.647 128.719C109.595 127.366 109.069 126.171 108.189 124.844V124.831Z" fill="#3C4A5B"/>
<path d="M124.452 136.234C125.2 136.628 126.015 136.904 126.856 136.97C127.801 137.048 128.773 137.075 129.141 135.787C129.693 136.602 129.154 136.93 128.787 137.272C128.156 137.837 124.504 137.705 123.926 137.101C123.742 136.904 123.69 136.615 123.992 136.418C124.189 136.484 124.373 136.51 124.452 136.247V136.234Z" fill="#3C4A5B"/>
<path d="M164.399 135.773C164.504 135.261 164.254 134.683 164.609 134.092C164.858 133.671 165.016 133.343 165.555 133.566C166.146 133.803 165.949 134.197 165.712 134.565C165.226 135.327 165.292 136.049 165.752 136.811C165.909 137.074 166.592 137.52 165.712 137.73C165.174 137.862 164.569 137.849 164.425 137.126C164.346 136.706 164.412 136.259 164.412 135.773H164.399Z" fill="#3C4A5B"/>
<path d="M208.956 126.093C209.364 127.459 208.641 128.142 207.853 128.549C207.393 128.786 207.222 127.958 207.328 127.696C207.708 126.802 207.222 125.331 208.615 125.108C209.469 124.976 208.864 125.935 208.956 126.093Z" fill="#3C4A5B"/>
<path d="M139.768 133.804C141.016 132.95 142.422 133.449 143.617 133.712C144.983 134.001 143.709 134.986 143.657 135.669H143.591L143.578 135.577C143.512 134.224 142.737 133.843 141.516 134.08C141.056 134.172 140.596 134.224 140.136 134.29C140.018 134.119 139.9 133.961 139.782 133.791L139.768 133.804Z" fill="#3C4A5B"/>
<path d="M171.032 127.512C171.006 126.92 170.98 126.342 170.954 125.751C170.94 125.344 170.98 124.989 171.545 125.095C171.991 125.173 172.596 124.989 172.543 125.764C172.491 126.566 172.596 127.354 172.845 128.116C172.136 128.221 171.663 127.604 171.019 127.525L171.032 127.512Z" fill="#3C4A5B"/>
<path d="M183.013 137.365C184.812 136.314 184.904 135.302 183.512 133.726C185.022 133.516 185.022 133.516 184.891 135.026C184.852 135.512 184.825 135.999 184.891 136.485C185.101 138.245 184.182 137.824 182.999 137.365H183.013Z" fill="#3C4A5B"/>
<path d="M133.253 133.672C132.071 134.553 133.489 136.05 132.438 137.062C132.176 137.311 132.044 137.784 131.65 137.626C131.374 137.508 131.427 137.088 131.624 136.786C132.031 136.195 131.795 135.525 131.768 134.894C131.729 133.843 131.9 133.16 133.253 133.672Z" fill="#3C4A5B"/>
<path d="M176.011 134.396C174.96 134.278 174.119 134.54 173.712 135.604C173.463 135.237 173.134 134.921 173.003 134.54C172.871 134.159 172.753 133.621 173.134 133.332C173.41 133.122 173.922 133.122 174.172 133.463C174.645 134.12 175.197 133.752 175.735 133.66C175.945 133.857 176.169 134.054 176.024 134.396H176.011Z" fill="#3C4A5B"/>
<path d="M171.032 127.512C171.676 127.59 172.149 128.208 172.858 128.103C173.423 128.234 173.673 128.943 174.605 128.694C174.054 129.337 173.633 129.39 173.318 129.075C172.727 128.484 172.162 128.497 171.453 128.838C170.77 129.154 169.982 128.733 169.863 128.208C169.706 127.512 170.704 127.866 171.046 127.512H171.032Z" fill="#3C4A5B"/>
<path d="M211.794 128.969C211.242 129.271 210.598 129.415 210.191 128.89C209.745 128.325 210.585 128.167 210.743 127.773C210.914 127.34 211.071 126.867 211.084 126.407C211.098 125.908 211.36 125.606 211.794 124.896C211.794 126.289 211.505 127.314 211.741 128.312C211.61 128.535 211.662 128.759 211.794 128.969Z" fill="#3C4A5B"/>
<path d="M143.578 135.59V135.682H143.657C143.998 137.758 143.854 137.85 141.029 137.613C141.266 137.39 141.187 137.14 141.056 136.904C141.988 136.654 142.553 135.695 143.565 135.603L143.578 135.59Z" fill="#3C4A5B"/>
<path d="M109.069 133.541C107.703 134.185 107.322 135.314 107.388 136.195C107.519 138.296 106.376 137.206 105.562 137.114C107.559 136.746 106.1 133.41 109.069 133.541Z" fill="#3C4A5B"/>
<path d="M164.491 125.238C166.356 126.933 166.435 127.524 165.2 128.667C164.924 128.916 164.609 129.061 164.32 128.916C163.847 128.68 164.189 128.404 164.399 128.167C165.147 127.3 164.359 126.355 164.491 125.238Z" fill="#3C4A5B"/>
<path d="M130.954 129.231C131.466 128.706 132.057 129.087 132.701 128.772C133.555 128.364 134.277 128.141 134.107 127.011C134.041 126.539 134.238 126.052 134.764 126.144C135.25 126.223 134.974 126.775 134.987 127.117C135.039 128.68 133.87 128.982 132.714 129.218C132.149 129.337 131.545 129.245 130.954 129.245V129.231Z" fill="#3C4A5B"/>
<path d="M131.309 127.853C130.941 126.789 130.402 125.673 131.361 124.753C132.189 123.965 132.872 124.806 133.752 124.937C133.016 125.712 131.9 124.898 131.532 125.554C131.191 126.172 131.361 127.065 131.296 127.84L131.309 127.853Z" fill="#3C4A5B"/>
<path d="M105.89 125.541C106.915 126.303 107.467 127.288 107.283 128.602C107.243 128.838 107.348 129.18 106.941 129.206C106.613 129.232 106.481 129.049 106.389 128.746C106.14 127.879 105.864 127.012 105.601 126.145C105.693 125.948 105.798 125.738 105.89 125.541Z" fill="#3C4A5B"/>
<path d="M192.878 124.818C192.471 126.276 191.288 127.248 192.405 128.456C192.589 128.653 192.326 128.929 191.998 128.942C191.538 128.969 190.934 128.89 190.999 128.417C191.183 127.195 191.183 125.816 192.878 124.831V124.818Z" fill="#3C4A5B"/>
<path d="M129.838 127.865C128.668 127.773 127.329 126.105 127.565 125.146C127.631 124.91 127.749 124.673 127.946 124.791C128.248 124.975 128.826 125.002 128.774 125.435C128.629 126.46 129.496 127.025 129.838 127.852V127.865Z" fill="#3C4A5B"/>
<path d="M206.211 129.022C205.436 128.838 204.766 129.246 204.569 128.471C204.372 127.669 203.085 126.737 204.07 126.145C204.819 125.699 204.884 127.236 205.436 127.761C205.725 128.05 205.883 128.471 206.211 129.022Z" fill="#3C4A5B"/>
<path d="M154.468 136.929C154.179 136.259 154.494 135.734 155.006 135.064C155.295 136.088 156.386 136.85 155.505 137.849C155.033 138.387 154.77 137.573 154.481 137.244C154.52 137.218 154.586 137.166 154.573 137.153C154.547 137.074 154.507 136.995 154.468 136.929Z" fill="#3C4A5B"/>
<path d="M120.55 127.67C119.736 127.066 120.248 126.186 120.117 125.45C120.051 125.069 120.432 125.122 120.682 125.122C121.102 125.122 121.26 125.411 121.194 125.752C121.089 126.422 121.246 127.145 120.905 127.775C120.787 127.736 120.668 127.71 120.55 127.67Z" fill="#3C4A5B"/>
<path d="M120.55 127.668C120.668 127.708 120.787 127.734 120.905 127.773C121.207 128.102 121.641 128.588 121.01 128.785C120.379 128.995 119.447 129.507 119.04 128.338C119.184 128.22 119.315 128.102 119.46 127.983C119.815 127.878 120.182 127.773 120.537 127.668H120.55Z" fill="#3C4A5B"/>
<path d="M114.061 136.996C114.192 136.011 113.444 135.196 113.562 134.237C113.601 133.909 113.588 133.567 114.074 133.607C114.468 133.633 114.468 133.948 114.442 134.185C114.311 135.117 114.639 136.089 114.061 136.996Z" fill="#3C4A5B"/>
<path d="M139.768 133.805C139.887 133.976 140.005 134.133 140.123 134.304C139.808 135.302 139.611 136.301 140.399 137.194C140.386 137.233 140.36 137.26 140.36 137.299C140.36 137.365 140.386 137.43 140.399 137.496C140.097 137.641 139.755 137.693 139.506 137.47C139.059 137.063 139.282 134.357 139.755 133.805H139.768Z" fill="#3C4A5B"/>
<path d="M162.56 125.135C161.955 126.278 161.272 127.118 162.06 128.183C162.166 128.314 161.968 128.669 161.916 128.918C161.732 128.826 161.496 128.787 161.377 128.642C160.734 127.88 161.338 125.739 162.56 125.135Z" fill="#3C4A5B"/>
<path d="M109.647 133.318C111.302 133.397 111.657 134.198 111.434 136.996C110.357 135.998 111.21 134.198 109.647 133.318Z" fill="#3C4A5B"/>
<path d="M125.292 125.632C126.54 126.302 126.803 127.458 126.816 128.745C125.936 127.878 125.2 126.933 125.319 125.58L125.292 125.632Z" fill="#3C4A5B"/>
<path d="M176.011 134.394C176.169 134.052 175.945 133.855 175.722 133.658C176.234 133.396 176.655 133.671 177.088 133.868C177.601 134.105 178.704 133.868 178.323 134.841C178.073 135.484 177.22 135.143 176.655 134.827C176.431 134.696 176.221 134.538 175.998 134.394H176.011Z" fill="#3C4A5B"/>
<path d="M116.373 137.482C116.373 137.482 116.373 137.456 116.373 137.469C116.307 137.311 116.215 137.298 116.11 137.429C115.769 136.457 115.887 135.446 115.808 134.461C115.756 133.791 116.071 133.436 116.82 133.646C116.084 134.855 116.439 136.195 116.36 137.469L116.373 137.482Z" fill="#3C4A5B"/>
<path d="M187.348 138.06C186.94 137.994 186.481 137.666 186.651 137.39C186.94 136.917 187.072 136.168 187.873 136.129C188.372 136.103 188.49 136.287 188.53 136.759C188.595 137.666 187.781 137.653 187.348 138.06Z" fill="#3C4A5B"/>
<path d="M185.377 127.104C185.758 127.893 187.045 128.287 186.402 129.6C185.509 129.049 184.642 128.523 184.825 127.249C185.049 127.328 185.246 127.341 185.39 127.104H185.377Z" fill="#3C4A5B"/>
<path d="M204.911 135.116C204.411 135.024 203.965 134.46 204.004 134.302C204.201 133.593 204.963 133.501 205.554 133.251C205.712 133.185 206.132 133.304 206.04 133.474C205.725 134.039 205.58 134.762 204.911 135.103V135.116Z" fill="#3C4A5B"/>
<path d="M124.452 136.233C124.373 136.496 124.189 136.469 123.992 136.404C123.427 136.456 122.967 136.22 122.547 135.839C123.598 135.243 124.237 135.37 124.465 136.22L124.452 136.233Z" fill="#3C4A5B"/>
<path d="M144.432 126.25C144.458 126.093 144.432 125.988 144.484 125.922C144.931 125.2 145.378 124.359 146.231 124.162C146.849 124.017 146.809 124.595 146.402 124.832C145.916 125.108 145.483 125.41 145.154 125.83C144.983 126.04 144.905 126.316 144.419 126.25H144.432Z" fill="#3C4A5B"/>
<path d="M152.129 135.643C151.473 135.117 150.803 134.592 150.133 134.053C151.841 132.819 151.788 134.75 152.497 135.275C152.379 135.393 152.248 135.525 152.129 135.643Z" fill="#3C4A5B"/>
<path d="M146.494 129.548C145.286 129.416 144.826 128.523 144.13 127.971C143.893 127.787 144.09 127.695 144.169 127.617C144.274 127.498 144.405 127.446 144.55 127.617C145.062 128.313 146.047 128.523 146.507 129.535L146.494 129.548Z" fill="#3C4A5B"/>
<path d="M200.589 128.824C199.66 129.437 198.907 129.437 198.329 128.824H200.589Z" fill="#3C4A5B"/>
<path d="M137.575 124.846C137.496 124.531 137.575 124.281 137.942 124.386C138.389 124.504 138.665 124.807 138.665 125.319C138.652 126.33 138.665 127.342 138.56 128.366C138.192 127.184 138.639 125.818 137.588 124.846H137.575Z" fill="#3C4A5B"/>
<path d="M105.89 125.54C105.798 125.737 105.693 125.947 105.601 126.144C104.813 126.105 104.8 125.264 103.959 124.936C104.984 124.739 105.615 124.66 105.89 125.54Z" fill="#3C4A5B"/>
<path d="M211.794 128.969C211.662 128.759 211.61 128.537 211.741 128.312C212.385 128.653 213.016 128.982 213.869 129.428C212.937 129.52 212.293 129.547 211.781 128.969H211.794Z" fill="#3C4A5B"/>
<path d="M125.319 125.582C124.268 125.857 123.545 124.728 122.534 124.885C123.742 123.979 124.491 124.898 125.292 125.634L125.319 125.582Z" fill="#3C4A5B"/>
<path d="M179.545 137.745C178.691 137.403 178.599 136.759 178.783 136.024C178.809 135.932 179.085 135.814 179.15 135.853C179.873 136.326 179.873 136.956 179.545 137.745Z" fill="#3C4A5B"/>
<path d="M187.689 134.027C187.413 134.369 187.269 134.92 186.638 134.776C186.402 134.723 186.257 134.553 186.336 134.316C186.494 133.764 187.019 133.475 187.466 133.344C187.886 133.213 187.807 133.699 187.728 134.001L187.676 133.975V134.027H187.689Z" fill="#3C4A5B"/>
<path d="M196.083 128.235C196.03 128.432 195.978 128.629 195.925 128.826C195.452 129.549 194.743 128.958 194.178 129.168C194.664 128.984 195.413 129.325 195.505 128.419C195.544 128.077 195.715 127.749 196.083 128.248V128.235Z" fill="#3C4A5B"/>
<path d="M152.471 136.97C152.432 136.562 152.379 136.155 152.34 135.748L152.458 135.774L152.537 135.682C153.062 136.103 153.575 136.523 154.1 136.943C153.68 137.062 153.272 137.193 152.852 137.311C152.747 137.206 152.629 137.088 152.524 136.983L152.537 136.917L152.484 136.97H152.471Z" fill="#3C4A5B"/>
<path d="M181.515 135.668C181.66 136.364 181.699 137.113 182.842 137.35C180.687 137.704 181.016 136.745 181.528 135.668V135.786V135.681L181.515 135.668Z" fill="#3C4A5B"/>
<path d="M183.472 127.447C183.407 127.302 183.341 127.158 183.275 127.013C183.078 126.593 182.645 126.094 183.249 125.779C183.591 125.595 183.801 126.081 183.998 126.422C184.379 127.105 184.208 127.394 183.472 127.447Z" fill="#3C4A5B"/>
<path d="M152.839 137.298C153.259 137.18 153.667 137.048 154.087 136.93C154.218 136.93 154.336 136.93 154.468 136.93C154.507 137.009 154.547 137.075 154.573 137.154C154.573 137.18 154.507 137.219 154.481 137.245C153.929 137.14 153.417 138.073 152.852 137.285L152.839 137.298Z" fill="#3C4A5B"/>
<path d="M155.834 124.924C155.361 125.16 154.822 124.871 154.363 125.173C154.801 124.657 155.291 124.573 155.834 124.924Z" fill="#3C4A5B"/>
<path d="M140.399 137.494C140.399 137.494 140.36 137.363 140.36 137.297C140.36 137.258 140.386 137.231 140.399 137.192C140.596 137.034 140.714 136.732 141.056 136.89C141.187 137.139 141.253 137.376 141.029 137.599C140.793 137.704 140.57 137.731 140.399 137.481V137.494Z" fill="#3C4A5B"/>
<path d="M197.515 103.696C197.397 103.998 197.213 104.274 196.871 104.024C196.635 103.853 196.714 103.591 196.911 103.381C197.2 103.315 197.37 103.499 197.528 103.696H197.515Z" fill="#3C4A5B"/>
<path d="M163.913 124.543C163.834 124.792 163.597 124.74 163.427 124.727C163.203 124.714 162.849 124.806 162.888 124.398C162.914 124.162 163.111 124.07 163.335 124.083C163.637 124.083 163.768 124.306 163.899 124.556L163.913 124.543Z" fill="#3C4A5B"/>
<path d="M221.16 109.724C221.488 109.659 221.751 109.764 221.961 110.013C221.79 110.289 221.528 110.289 221.265 110.21C220.95 110.118 221.042 109.921 221.16 109.724Z" fill="#3C4A5B"/>
<path d="M185.508 126.512C184.983 126.013 185.114 125.645 185.508 125.002V126.512Z" fill="#3C4A5B"/>
<path d="M159.696 115.15C159.814 115.4 159.906 115.65 159.538 115.794C159.184 115.82 159.289 115.558 159.289 115.387C159.289 115.124 159.446 115.032 159.696 115.15Z" fill="#3C4A5B"/>
<path d="M205.738 116.11C205.791 116.189 205.843 116.281 205.883 116.36C205.883 116.399 205.856 116.452 205.83 116.491C205.502 116.78 205.37 116.413 205.344 116.255C205.318 115.953 205.541 115.992 205.738 116.097V116.11Z" fill="#3C4A5B"/>
<path d="M183.472 127.445H183.459C183.499 127.786 183.538 128.141 183.577 128.483C183.551 128.483 183.512 128.483 183.485 128.483V127.458L183.472 127.445Z" fill="#3C4A5B"/>
<path d="M181.515 135.67V135.775V135.657C181.476 135.355 181.449 135.066 181.41 134.764H181.555C181.541 135.053 181.515 135.355 181.502 135.657L181.515 135.67Z" fill="#3C4A5B"/>
<path d="M179.86 112.563C180.057 112.405 180.254 112.431 180.254 112.694C180.254 112.944 180.057 112.983 179.86 112.825C179.768 112.747 179.768 112.655 179.86 112.576V112.563Z" fill="#3C4A5B"/>
<path d="M185.377 127.104C185.246 127.341 185.035 127.328 184.812 127.249C184.72 127.249 184.589 127.315 184.536 127.275C184.326 127.091 184.536 127.078 184.655 127.078C184.891 127.078 185.141 127.091 185.377 127.104Z" fill="#3C4A5B"/>
<path d="M152.524 135.681L152.445 135.773L152.327 135.747C152.208 135.826 152.116 135.826 152.116 135.655C152.235 135.537 152.366 135.405 152.484 135.287C152.524 135.379 152.563 135.471 152.576 135.563C152.576 135.602 152.537 135.655 152.51 135.694L152.524 135.681Z" fill="#3C4A5B"/>
<path d="M187.689 134.027L187.676 133.975L187.728 134.001L187.689 134.027Z" fill="#3C4A5B"/>
<path d="M152.471 136.97L152.537 136.904L152.51 136.97H152.471Z" fill="#3C4A5B"/>
<path d="M116.123 137.43L116.084 137.47L116.11 137.43H116.123Z" fill="#3C4A5B"/>
<path d="M183.853 106.021C184.024 106.192 184.366 106.27 184.155 106.625C183.788 106.875 183.564 106.625 183.459 106.336C183.354 106.034 183.499 105.85 183.853 106.021Z" fill="#3C4A5B"/>
<path d="M194.283 95.1831C193.535 94.9992 192.773 94.8284 192.024 94.6445C191.932 93.3834 192.904 93.83 193.456 93.8432C194.283 93.8563 194.559 94.3949 194.283 95.1831Z" fill="#3C4A5B"/>
<path d="M33.9043 115.058C33.1293 104.207 43.4149 91.1369 58.4558 92.5031C69.2931 93.4883 79.0401 102.145 79.1452 114.966C79.2503 127.773 69.1092 138.335 55.1849 138.006C44.1111 137.744 33.3789 127.484 33.9043 115.058ZM56.3015 136.772C67.6511 137.008 78.7643 127.195 77.9629 114.125C77.2536 102.736 68.8071 93.5409 56.2358 93.5803C43.717 93.6065 34.9421 102.736 34.7582 114.9C34.5743 126.328 43.2047 136.64 56.3015 136.772Z" fill="#3C4A5B"/>
<path d="M59.6118 117.239C61.3326 118.329 63.0271 119.341 64.4458 120.812C66.1404 122.572 67.0205 124.674 67.4672 126.986C67.5985 127.656 67.3621 128.392 66.3506 128.326C65.812 128.287 65.2603 128.273 64.7217 128.326C63.4606 128.457 62.8301 128.142 62.9221 126.658C63.0271 124.976 60.6232 122.178 59.0206 121.824C58.3901 121.679 58.0091 121.824 58.0354 122.612C58.088 124.122 57.996 125.646 58.0748 127.17C58.1142 128.09 57.8252 128.457 56.8926 128.326C56.5248 128.273 56.1307 128.273 55.7497 128.326C54.7776 128.457 54.3704 128.129 54.4361 127.091C54.5149 125.738 54.4755 124.385 54.4361 123.032C54.4361 122.638 54.6726 122.113 54.1865 121.863C53.6479 121.6 53.0831 121.863 52.689 122.191C51.244 123.387 49.8647 124.648 49.5363 126.671C49.4444 127.236 49.4969 128.142 48.8007 128.26C47.7498 128.431 46.6332 128.379 45.5561 128.26C45.1226 128.208 45.3459 127.617 45.3196 127.249C45.0569 123.689 48.4986 119.591 51.3097 118.264C51.7301 118.067 52.1636 117.948 52.6102 117.41C50.8894 117.095 49.2999 117.292 47.7235 117.265C45.3065 117.226 45.3722 117.265 45.2802 114.927C45.2408 113.719 45.4904 113.219 46.8303 113.311C48.7876 113.443 50.758 113.351 52.781 113.167C49.6546 111.866 47.4608 109.712 46.0421 106.743C45.8845 106.415 45.7794 106.06 45.6349 105.719C45.2277 104.76 44.8861 103.354 45.4904 102.855C46.3311 102.146 47.7761 102.592 48.9452 102.658C49.5495 102.684 49.5232 103.328 49.5757 103.814C49.8253 106.205 51.3491 107.663 53.3195 108.766C54.1603 109.239 54.4624 108.885 54.4492 108.004C54.423 106.546 54.4755 105.075 54.4361 103.617C54.4098 102.881 54.5543 102.487 55.3951 102.605C55.8811 102.671 56.3803 102.658 56.8532 102.605C57.7464 102.5 58.1011 102.789 58.0485 103.748C57.9697 105.154 58.0486 106.573 58.0223 107.978C57.996 109.055 58.4164 109.2 59.2571 108.661C61.1749 107.44 62.9615 106.126 62.9221 103.525C62.9221 103 63.1848 102.671 63.6708 102.658C64.7611 102.619 65.8514 102.592 66.9286 102.658C67.835 102.711 67.4672 103.367 67.3752 103.853C66.6002 107.939 64.4196 110.921 60.5576 112.615C60.3736 112.694 60.216 112.825 60.0584 112.944C60.0321 112.97 60.0584 113.036 60.019 113.377C62.0419 113.377 64.0649 113.443 66.0747 113.351C67.1782 113.298 67.7036 113.548 67.5066 114.743C67.4409 115.111 67.4409 115.505 67.5066 115.873C67.6905 117.003 67.2832 117.357 66.1141 117.305C63.9467 117.2 61.7661 117.279 59.5986 117.279L59.6118 117.239Z" fill="#3C4A5B"/>
</g>
</g>
</g>
<defs>
<clipPath id="clip0_37_556">
<rect width="256" height="142" fill="white"/>
</clipPath>
</defs>
</svg>
