<svg width="256" height="142" viewBox="0 0 256 142" fill="none" xmlns="http://www.w3.org/2000/svg">
<path d="M77.0197 56.2699C76.8097 57.1299 76.6797 58.0199 76.3897 58.8499C75.7397 60.6899 75.6097 62.5099 76.1697 64.3899C76.4097 65.2099 76.5797 66.0499 76.7397 66.8899C76.9497 68.0299 76.8197 69.1399 76.2197 70.1599C75.8697 70.7499 75.5797 71.3999 75.1297 71.8899C73.3397 73.8199 72.5897 76.1499 72.3697 78.6999C72.1897 80.7499 71.2797 82.3399 69.4797 83.3899C69.0097 83.6699 68.5597 83.9899 68.0797 84.2599C66.4397 85.1599 65.1897 86.4299 64.2497 88.0299C63.8497 88.7099 63.4497 89.3899 63.0097 90.0399C62.1597 91.2799 61.0097 92.0899 59.4997 92.3199C58.6497 92.4499 57.8097 92.6099 56.9597 92.7099C55.4997 92.8999 54.1797 93.4099 53.0097 94.3199C52.4397 94.7599 51.8297 95.1399 51.2597 95.5799C49.5697 96.8899 47.7197 97.2899 45.6497 96.6199C45.2297 96.4799 44.7797 96.4299 44.3497 96.2999C42.5597 95.7599 40.7697 95.7699 38.9797 96.2799C38.5197 96.4099 38.0397 96.4899 37.5897 96.6399C35.5197 97.3099 33.6697 96.7899 31.9697 95.5599C31.5797 95.2799 31.2097 94.9799 30.8197 94.6899C29.4097 93.6199 27.8897 92.7899 26.0797 92.6399C25.7397 92.6099 25.3997 92.5099 25.0597 92.4899C22.4897 92.2899 20.5597 91.0899 19.4197 88.7799C18.2297 86.3499 16.4397 84.5499 14.0397 83.3299C13.7397 83.1799 13.4597 82.9599 13.1797 82.7599C12.0097 81.9399 11.1997 80.8699 10.9297 79.4499C10.7397 78.4799 10.5697 77.4999 10.4397 76.5199C10.2097 74.8199 9.56967 73.2999 8.52967 71.9299C7.64967 70.7899 6.83967 69.6099 6.39967 68.2099C6.24967 67.7399 6.16967 67.2999 6.33967 66.8199C6.54967 66.2099 6.62967 65.5499 6.86967 64.9499C7.67967 62.9499 7.62967 60.9499 7.05967 58.9099C6.87967 58.2499 6.71967 57.5799 6.58967 56.9099C6.28967 55.3899 6.55967 53.9899 7.50967 52.7299C8.12967 51.9099 8.72967 51.0799 9.31967 50.2399C10.0497 49.2199 10.4797 48.0799 10.6497 46.8299C10.7597 45.9799 10.9297 45.1399 11.0197 44.2899C11.2097 42.4599 12.2597 41.2199 13.7397 40.2699C14.4297 39.8299 15.1397 39.4099 15.8497 38.9999C17.1797 38.2099 18.1797 37.1199 18.9397 35.7799C19.4797 34.8299 20.0797 33.9199 20.7297 33.0299C21.4497 32.0399 22.4997 31.5399 23.6797 31.3099C24.4897 31.1499 25.2997 31.0099 26.1097 30.9099C27.7897 30.7099 29.2797 30.0999 30.6097 29.0599C31.7997 28.1399 33.0197 27.2599 34.4397 26.6899C35.1797 26.3899 35.8497 26.3499 36.6297 26.6099C37.7597 26.9899 38.9297 27.2799 40.0997 27.5299C41.4297 27.8099 42.7597 27.6999 44.0697 27.3599C44.9597 27.1199 45.8597 26.8799 46.7397 26.6099C47.4197 26.3999 48.0597 26.4099 48.7397 26.6699C50.1097 27.1799 51.3497 27.9099 52.4397 28.8399C54.0397 30.2099 55.8997 30.8899 57.9597 31.0799C58.0997 31.0899 58.2297 31.1199 58.3697 31.1299C60.8997 31.3399 62.7497 32.5599 63.8997 34.8299C64.0697 35.1699 64.2897 35.4699 64.4697 35.7999C65.4097 37.5399 66.7897 38.8199 68.5197 39.7599C69.3197 40.1999 70.0597 40.7699 70.7897 41.3499C71.6197 42.0099 72.1097 42.9199 72.3097 43.9599C72.5197 45.0299 72.6897 46.1199 72.8397 47.1999C73.0797 48.8299 73.7097 50.2799 74.7197 51.5799C75.2597 52.2799 75.7397 53.0399 76.2097 53.7899C76.6597 54.5299 76.9197 55.3399 76.9797 56.2499L77.0197 56.2699ZM41.1097 38.2899C28.4397 38.5299 17.8397 48.9299 18.1697 62.3399C18.4897 75.4499 29.0797 85.7799 42.7097 85.2999C55.0297 84.8599 66.2497 74.4399 65.0997 59.7799C64.0997 47.1499 53.5097 38.0099 41.1197 38.2899H41.1097Z" fill="#8A8A8A"/>
<path d="M175.77 33.5998C176.2 34.7998 176.12 35.0598 174.98 35.4498C173.58 35.9298 172.98 36.9098 172.96 38.3198C172.96 38.9398 172.96 39.5498 172.96 40.1698C172.96 49.5798 172.96 58.9898 172.96 68.4098C172.96 70.6498 173.19 72.8498 173.96 74.9698C174.94 77.6698 176.69 79.6798 179.27 80.9698C181.22 81.9498 183.3 82.4898 185.46 82.7298C189.57 83.1898 193.66 83.1398 197.72 82.2498C199.27 81.9098 200.74 81.3298 202.08 80.4998C204.88 78.7798 206.45 76.2198 207.05 73.0398C207.28 71.8398 207.42 70.5998 207.43 69.3798C207.46 59.2798 207.45 49.1898 207.45 39.0898C207.45 38.8198 207.45 38.5398 207.45 38.2698C207.45 36.9698 206.92 36.0298 205.65 35.5798C205.26 35.4398 204.88 35.2898 204.42 35.1098C204.39 34.6598 204.37 34.1898 204.33 33.5698C206.19 33.4898 207.99 33.5398 209.79 33.5298C211.64 33.5298 213.49 33.5298 215.34 33.5298C217.15 33.5298 218.95 33.5298 220.8 33.5298C220.83 33.9198 220.85 34.1798 220.87 34.4498C220.9 34.9298 220.71 35.2298 220.21 35.3298C220.01 35.3698 219.82 35.4498 219.62 35.5198C218.42 35.9598 217.82 36.8298 217.78 38.0898C217.76 38.7698 217.76 39.4598 217.76 40.1398C217.76 49.8598 217.77 59.5798 217.76 69.2998C217.76 72.4298 217.43 75.5298 216.44 78.5098C214.61 84.0398 210.82 87.5998 205.31 89.4398C201.24 90.8098 197.04 91.3598 192.78 91.4398C190.14 91.4898 187.5 91.4498 184.87 91.2798C181 91.0198 177.2 90.3698 173.56 88.8898C167.84 86.5698 164.56 82.3098 163.25 76.3798C162.49 72.9798 162.48 69.5298 162.49 66.0698C162.51 57.0698 162.49 48.0698 162.47 39.0698C162.47 38.7998 162.45 38.5198 162.46 38.2498C162.51 36.8298 161.81 35.9398 160.51 35.4498C159.4 35.0298 159.39 34.9598 159.62 33.6098H175.77V33.5998Z" fill="#8A8A8A"/>
<path d="M149.74 37.3793C150.1 37.6193 150.41 37.8193 150.78 38.0693C148.25 42.2993 145.74 46.4793 143.24 50.6593C142.22 50.4193 142.19 50.4193 142.31 49.4793C142.42 48.5993 142.15 47.8693 141.61 47.1993C140.8 46.1893 139.75 45.4693 138.64 44.8693C133.22 41.9393 127.44 40.5193 121.27 40.7093C118.52 40.7993 115.8 41.1293 113.18 41.9993C107.38 43.9293 102.98 47.5093 100.47 53.1793C99.2697 55.9093 98.8097 58.7793 98.7997 61.7793C98.7897 64.7993 99.2297 67.6993 100.37 70.4993C101.79 73.9693 104.16 76.6693 107.19 78.7893C110.75 81.2893 114.78 82.4793 119.1 82.8593C122.27 83.1293 125.39 82.9893 128.5 82.3393C131.62 81.6893 134.51 80.4593 137.24 78.8593C138.57 78.0793 139.81 77.1693 141.08 76.2993C141.33 76.1293 141.56 75.9093 141.78 75.6893C142.96 74.5293 143.1 73.8293 142.45 72.2993C142.4 72.1693 142.34 72.0493 142.23 71.8193C142.69 71.4593 143.15 71.0993 143.69 70.6793C146.82 74.5593 149.91 78.3793 153.05 82.2593C152.71 82.5393 152.4 82.7893 152.05 83.0793C151.67 82.8793 151.31 82.6893 150.96 82.4993C150.23 82.0993 149.55 82.1293 148.84 82.5993C147.32 83.5893 145.81 84.5993 144.24 85.4993C139.78 88.0493 135.04 89.8993 129.95 90.7593C123.28 91.8893 116.64 91.8393 110.12 89.8393C102.46 87.4993 96.2997 83.1293 92.1397 76.1893C90.0497 72.6993 88.9097 68.8993 88.5597 64.8393C88.2297 61.0493 88.4597 57.3193 89.5097 53.6593C91.2397 47.6093 94.8097 42.8393 99.7397 39.0193C103.82 35.8493 108.46 33.9093 113.52 32.9293C119.29 31.8193 125.02 32.0693 130.77 33.2193C135.57 34.1693 140.1 35.8993 144.6 37.7593C145.33 38.0593 146.08 38.3093 146.8 38.6093C147.52 38.9093 148.13 38.7593 148.69 38.2593C149 37.9893 149.32 37.7393 149.73 37.3893L149.74 37.3793Z" fill="#8A8A8A"/>
<path d="M248.63 88.7098C248.66 89.0298 248.71 89.2998 248.71 89.5698C248.71 89.7698 248.66 89.9698 248.63 90.2298H232.32C231.94 88.9898 232.03 88.7298 233.15 88.3998C234.39 88.0298 235.06 87.2498 235.14 85.9698C235.18 85.3898 235.21 84.8098 235.21 84.2298C235.21 69.5798 235.21 54.9398 235.21 40.2898C235.21 39.4698 235.14 38.6498 235.1 37.8298C235.04 36.5698 234.33 35.8498 233.18 35.4498C232.01 35.0398 232 34.9898 232.24 33.5898H248.6V35.1198C248.23 35.2598 247.88 35.3798 247.53 35.5098C246.34 35.9498 245.7 36.7798 245.71 38.0698C245.71 38.3798 245.71 38.6898 245.71 38.9898C245.71 54.2498 245.71 69.5098 245.71 84.7698C245.71 87.4498 245.93 87.7598 248.62 88.6998L248.63 88.7098Z" fill="#8A8A8A"/>
<path d="M221.32 105.248C222.26 105.248 223.07 105.248 223.89 105.248C224.36 105.248 224.51 105.568 224.61 105.968C225.02 107.588 225.45 109.208 225.87 110.828C225.95 111.148 226.04 111.468 226.3 111.808C226.59 110.728 226.87 109.638 227.19 108.558C227.51 107.478 227.88 106.418 228.27 105.228C229.05 105.228 229.83 105.198 230.6 105.228C231.23 105.258 231.3 105.378 231.33 106.078C231.41 107.788 231.48 109.498 231.56 111.208C231.62 112.498 231.69 113.798 231.75 115.188H229.57C229.42 112.838 229.24 110.438 229.17 107.988C229.03 108.358 228.87 108.718 228.76 109.088C228.28 110.658 227.81 112.228 227.36 113.808C226.98 115.128 226.95 115.158 225.61 115.098C225.48 115.098 225.34 115.058 225.1 115.018C224.51 112.748 223.91 110.458 223.31 108.168C223.26 108.168 223.22 108.188 223.17 108.198C223.06 110.538 222.94 112.868 222.83 115.228H220.73C220.93 111.918 221.12 108.658 221.33 105.228L221.32 105.248Z" fill="#8A8A8A"/>
<path d="M76.3601 115.248H74.3301V105.368C75.0801 105.088 75.8601 105.218 76.6301 105.278C76.8601 105.298 77.1201 105.628 77.2601 105.878C78.2401 107.678 79.1901 109.498 80.1601 111.308C80.2301 111.438 80.3201 111.568 80.5501 111.658C80.5001 109.568 80.4501 107.478 80.3901 105.308H82.4201C82.6901 106.068 82.7001 114.168 82.4101 115.308C81.8501 115.308 81.2401 115.358 80.6401 115.288C80.3901 115.258 80.0901 115.008 79.9601 114.778C78.9901 113.048 78.0601 111.298 77.1201 109.548C76.9001 109.148 76.6801 108.748 76.4201 108.268C76.4201 109.568 76.4201 110.718 76.4201 111.858C76.4201 112.978 76.3901 114.098 76.3701 115.258L76.3601 115.248Z" fill="#8A8A8A"/>
<path d="M29.7804 111.78V105.33H31.7804V115.23C31.1104 115.26 30.4304 115.36 29.7804 115.27C29.4904 115.23 29.1904 114.83 29.0204 114.52C28.2704 113.18 27.5604 111.81 26.8404 110.46C26.4604 109.74 26.0904 109.02 25.5704 108.35V115.19H23.7104C23.5004 114.5 23.4704 106.45 23.7004 105.25C24.3804 105.25 25.0904 105.25 25.8004 105.25C26.2504 105.25 26.4304 105.56 26.6204 105.91C27.6304 107.81 28.6604 109.7 29.7904 111.79L29.7804 111.78Z" fill="#8A8A8A"/>
<path d="M170.42 115.17V105.52C170.42 105.52 170.5 105.43 170.56 105.42C172.29 105.12 174.04 105.04 175.76 105.45C178.11 106 179.43 107.91 179.25 110.32C179.18 111.21 179.02 112.07 178.55 112.87C177.97 113.86 177.18 114.57 176.08 114.91C174.25 115.46 172.4 115.58 170.43 115.18L170.42 115.17ZM172.7 113.44C174.85 113.89 176.52 112.85 176.77 110.92C176.84 110.39 176.83 109.82 176.74 109.29C176.43 107.46 174.54 106.47 172.7 107.19V113.44Z" fill="#8A8A8A"/>
<path d="M195.83 115.09V105.45C196.21 105.39 196.58 105.29 196.94 105.27C197.86 105.23 198.8 105.15 199.71 105.24C200.55 105.32 201.4 105.53 202.18 105.83C203.33 106.27 204.07 107.16 204.41 108.35C204.8 109.74 204.81 111.12 204.19 112.45C203.78 113.34 203.15 114.05 202.29 114.54C200.75 115.41 197.67 115.69 195.84 115.09H195.83ZM198.11 107.09V113.45C199.78 113.73 201.03 113.29 201.71 112.21C202.38 111.15 202.35 109.07 201.65 108.1C200.93 107.11 199.57 106.72 198.11 107.09Z" fill="#8A8A8A"/>
<path d="M59.8603 110.317C59.6803 111.067 59.5903 111.897 59.2903 112.637C58.3403 114.967 55.7603 115.697 54.2903 115.467C52.0003 115.107 50.4303 113.377 50.1603 110.997C50.0303 109.807 50.2203 108.677 50.7803 107.617C51.6803 105.907 53.5603 104.907 55.4603 105.067C57.9303 105.277 59.1103 106.947 59.5503 108.537C59.7003 109.087 59.7603 109.677 59.8703 110.317H59.8603ZM57.3703 109.977C57.3903 109.237 57.1703 108.287 56.4003 107.547C55.4803 106.657 54.2803 106.697 53.4203 107.637C52.2903 108.867 52.2703 111.657 53.3903 112.887C54.2403 113.837 55.5903 113.847 56.4703 112.917C57.1703 112.167 57.3703 111.247 57.3803 109.977H57.3703Z" fill="#8A8A8A"/>
<path d="M166 110.152C165.9 110.792 165.85 111.452 165.68 112.062C165.02 114.352 162.97 115.502 160.98 115.512C158.96 115.512 156.98 113.872 156.49 111.902C156.26 110.952 156.24 110.022 156.45 109.062C157.03 106.452 159.21 104.802 161.74 105.072C164.29 105.342 165.99 107.392 166 110.142V110.152ZM158.65 110.112C158.79 110.862 158.83 111.482 159.04 112.042C159.38 112.922 160.04 113.512 161.02 113.602C161.94 113.692 162.63 113.222 163.03 112.442C163.77 110.992 163.81 109.462 163 108.032C162.11 106.472 160.14 106.502 159.29 108.082C158.95 108.722 158.84 109.482 158.65 110.102V110.112Z" fill="#8A8A8A"/>
<path d="M209.8 110.32C209.95 109.59 210.01 108.83 210.27 108.14C211.22 105.62 213.56 104.92 215.22 105.08C217.42 105.29 219.04 106.86 219.41 109.09C219.59 110.15 219.54 111.2 219.18 112.23C218.42 114.38 216.16 115.86 214.06 115.49C211.17 114.99 209.91 112.77 209.9 110.75C209.9 110.61 209.9 110.48 209.9 110.34C209.86 110.34 209.83 110.33 209.79 110.32H209.8ZM217.12 110.46C216.97 109.7 216.93 108.96 216.67 108.31C216.05 106.72 214.07 106.43 213.02 107.71C212.02 108.94 211.99 111.49 212.96 112.72C214 114.03 215.84 113.89 216.58 112.38C216.87 111.79 216.95 111.09 217.12 110.46Z" fill="#8A8A8A"/>
<path d="M143.82 105.43C144.21 105.36 144.58 105.26 144.94 105.25C145.83 105.22 146.72 105.19 147.61 105.23C148.15 105.26 148.71 105.35 149.21 105.53C151.16 106.25 151.59 108.62 150.05 110.01C149.87 110.17 149.68 110.31 149.55 110.4C149.93 111.19 150.35 111.92 150.63 112.7C150.92 113.5 151.06 114.35 151.29 115.28C150.63 115.28 150.03 115.28 149.43 115.28C149.06 115.28 148.88 115.05 148.79 114.72C148.63 114.13 148.46 113.54 148.3 112.94C147.94 111.6 147.58 111.33 145.98 111.34V115.23H143.94C143.69 114.56 143.58 108.07 143.79 105.42L143.82 105.43ZM146.07 109.56C146.39 109.6 146.59 109.64 146.79 109.64C147.06 109.64 147.34 109.62 147.6 109.56C148.22 109.43 148.71 108.87 148.73 108.29C148.75 107.67 148.34 107.13 147.68 106.97C147.16 106.84 146.62 106.83 146.08 107.02V109.55L146.07 109.56Z" fill="#8A8A8A"/>
<path d="M49.4003 115.212C49.1903 115.272 49.1003 115.322 49.0003 115.322C46.6803 115.262 47.1303 115.582 46.5403 113.502C46.4703 113.272 46.4403 113.033 46.3803 112.803C46.0503 111.533 45.7603 111.333 44.1903 111.343V115.212H42.0603C41.8503 114.502 41.7703 106.992 41.9503 105.422C42.2103 105.372 42.5003 105.262 42.8003 105.252C43.8603 105.222 44.9203 105.213 45.9803 105.223C46.3503 105.223 46.7303 105.303 47.0903 105.413C48.1603 105.733 48.8903 106.402 49.0703 107.532C49.2503 108.612 48.8203 109.462 47.9903 110.142C47.8603 110.252 47.7103 110.333 47.4703 110.473C48.9203 111.753 48.8603 113.563 49.4003 115.193V115.212ZM44.2103 109.583C45.0103 109.783 45.6703 109.693 46.2503 109.293C46.9903 108.783 47.0103 107.882 46.3403 107.292C45.6903 106.722 44.9703 106.883 44.2103 107.023V109.593V109.583Z" fill="#8A8A8A"/>
<path d="M106.11 115.321V105.441C106.36 105.381 106.58 105.281 106.81 105.271C107.94 105.251 109.07 105.191 110.2 105.271C110.8 105.311 111.43 105.481 111.95 105.761C113.49 106.611 113.72 108.621 112.47 109.871C112.23 110.101 111.96 110.301 111.65 110.571C113.13 111.811 112.93 113.661 113.57 115.181C113.41 115.251 113.38 115.281 113.35 115.281C110.94 115.301 111.28 115.551 110.7 113.331C110.67 113.231 110.65 113.131 110.63 113.031C110.28 111.551 110.01 111.341 108.35 111.361V115.231C107.59 115.271 106.92 115.301 106.11 115.341V115.321ZM108.38 109.501C109.3 109.741 110.14 109.771 110.75 108.941C111.09 108.481 111.08 107.821 110.68 107.421C110.03 106.761 109.23 106.811 108.38 107.011V109.501Z" fill="#8A8A8A"/>
<path d="M70.0398 105.299H72.1598C72.2298 105.399 72.2998 105.449 72.2998 105.509C72.3098 107.599 72.4398 109.689 72.2998 111.769C72.0998 114.679 69.1998 116.309 66.4998 115.169C65.2298 114.629 64.4798 113.639 64.3198 112.289C64.2098 111.409 64.2498 110.509 64.2398 109.629C64.2298 108.229 64.2398 106.829 64.2398 105.389C64.9998 105.169 65.6898 105.219 66.4998 105.389C66.4998 105.839 66.4998 106.279 66.4998 106.719C66.4998 108.229 66.4698 109.729 66.5198 111.239C66.5398 111.769 66.6898 112.319 66.8998 112.809C67.1498 113.389 67.6898 113.649 68.3298 113.629C69.0098 113.609 69.5398 113.309 69.7898 112.679C69.9498 112.279 70.0398 111.819 70.0498 111.389C70.0798 109.749 70.0598 108.099 70.0598 106.459C70.0598 106.119 70.0598 105.779 70.0598 105.309L70.0398 105.299Z" fill="#8A8A8A"/>
<path d="M235 115.221H232.7C233.72 111.861 234.71 108.611 235.72 105.301H238.73C239.75 108.621 240.76 111.901 241.8 115.301C241.07 115.301 240.44 115.301 239.8 115.301C239.42 115.301 239.25 115.071 239.15 114.761C239.01 114.301 238.87 113.851 238.76 113.381C238.65 112.911 238.42 112.671 237.91 112.691C237.23 112.711 236.55 112.691 235.8 112.691C235.52 113.561 235.25 114.391 234.98 115.221H235ZM237.21 107.371C237.14 107.381 237.07 107.401 237.01 107.411C236.71 108.561 236.42 109.711 236.11 110.931H238.23C237.87 109.681 237.54 108.521 237.22 107.371H237.21Z" fill="#8A8A8A"/>
<path d="M142.48 115.28H140.07C139.78 114.44 139.5 113.61 139.18 112.69C138.47 112.69 137.75 112.69 137.04 112.69C136.6 112.69 136.34 112.92 136.24 113.34C136.13 113.77 135.99 114.2 135.91 114.63C135.83 115.07 135.62 115.3 135.16 115.3C134.62 115.3 134.07 115.3 133.47 115.3C133.49 115.06 133.47 114.89 133.52 114.74C134.4 111.86 135.28 108.98 136.17 106.11C136.43 105.27 136.44 105.27 137.3 105.25C137.78 105.25 138.26 105.27 138.74 105.25C139.22 105.24 139.47 105.46 139.61 105.93C140.36 108.42 141.14 110.9 141.9 113.38C142.09 113.99 142.27 114.61 142.48 115.29V115.28ZM138.9 110.94C138.55 109.64 138.23 108.47 137.92 107.3C137.87 107.3 137.82 107.29 137.77 107.28C137.45 108.48 137.12 109.68 136.78 110.94H138.9Z" fill="#8A8A8A"/>
<path d="M104.2 107.149H100.57V109.149H104.07V110.999H100.57V113.369C101.87 113.399 103.18 113.429 104.55 113.459V115.249H98.2305V105.289H104.19C104.47 105.879 104.41 106.469 104.2 107.149Z" fill="#8A8A8A"/>
<path d="M15.7197 115.24V105.25C17.7597 105.21 19.7797 105.16 21.8697 105.27V107.08H18.0097V109.16H21.5397V110.97H17.9797V113.38H21.9297V115.23H15.7197V115.24Z" fill="#8A8A8A"/>
<path d="M180.82 105.27H186.8V107.13H183.03V109.11H186.59V111.02H183.07V113.42H187.06V115.22H180.88C180.66 114.55 180.59 106.7 180.82 105.28V105.27Z" fill="#8A8A8A"/>
<path d="M87.9404 105.23C88.5804 105.23 89.0904 105.27 89.6004 105.23C90.2104 105.17 90.4504 105.47 90.5904 106.01C91.1104 107.96 91.6504 109.9 92.1804 111.84C92.2504 112.08 92.3304 112.32 92.4804 112.8C93.2304 110.19 93.9204 107.82 94.6104 105.42C95.3904 105.13 96.1604 105.28 97.0004 105.3C96.9804 105.5 96.9804 105.66 96.9304 105.81C95.9504 108.72 94.9604 111.63 94.0004 114.55C93.8404 115.05 93.5704 115.27 93.0604 115.32C91.1804 115.5 91.1004 115.46 90.5304 113.69C89.6904 111.09 88.8604 108.49 88.0304 105.89C87.9804 105.73 87.9804 105.56 87.9404 105.26V105.23Z" fill="#8A8A8A"/>
<path d="M249.02 105.53C249.17 106.21 248.92 106.75 248.65 107.29C247.93 107.19 247.27 107.04 246.6 107.03C246.22 107.03 245.78 107.16 245.47 107.39C244.95 107.77 245 108.27 245.58 108.63C246.07 108.93 246.64 109.11 247.14 109.4C247.76 109.75 248.41 110.09 248.93 110.56C249.92 111.47 249.98 112.83 249.14 113.89C248.25 115.02 247.02 115.52 245.64 115.52C244.87 115.52 244.1 115.26 243.33 115.09C242.93 115 242.77 114.72 242.85 114.32C242.94 113.89 243.05 113.47 243.16 112.98C243.54 113.1 243.86 113.25 244.18 113.29C244.92 113.38 245.66 113.44 246.41 113.44C246.81 113.44 247.08 113.16 247.2 112.75C247.32 112.33 247.18 111.99 246.85 111.76C246.49 111.51 246.09 111.31 245.7 111.11C245.21 110.87 244.68 110.7 244.21 110.42C242.57 109.44 242.33 107.49 243.71 106.18C244.09 105.82 244.6 105.52 245.1 105.35C246.41 104.93 247.72 105.09 249.02 105.54V105.53Z" fill="#8A8A8A"/>
<path d="M120.88 105.672C120.74 106.192 120.59 106.742 120.42 107.332C119.8 107.222 119.24 107.102 118.68 107.032C118.38 106.992 118.06 107.012 117.77 107.062C117.29 107.152 116.88 107.462 116.9 107.932C116.91 108.222 117.25 108.562 117.53 108.752C117.92 109.012 118.4 109.142 118.83 109.352C119.29 109.582 119.77 109.792 120.17 110.102C121.82 111.362 121.64 113.802 119.83 114.812C118.26 115.682 116.63 115.652 114.98 115.012C114.59 114.862 114.47 114.602 114.58 114.202C114.68 113.842 114.75 113.482 114.86 113.022C115.18 113.112 115.46 113.222 115.74 113.262C116.48 113.352 117.22 113.432 117.97 113.452C118.46 113.462 118.78 113.162 118.92 112.662C119.06 112.122 118.77 111.792 118.38 111.562C117.97 111.322 117.51 111.172 117.08 110.962C116.62 110.742 116.13 110.552 115.72 110.252C114.13 109.102 114.22 106.812 115.89 105.772C116.94 105.122 119.05 104.692 120.89 105.662L120.88 105.672Z" fill="#8A8A8A"/>
<path d="M14.37 105.481C14.18 106.201 14.04 106.721 13.88 107.321C13.51 107.241 13.22 107.181 12.93 107.131C11.65 106.881 10.44 106.971 9.54 108.031C8.58 109.161 8.55 110.511 9.05 111.811C9.44 112.831 10.32 113.431 11.44 113.471C12.22 113.501 13 113.401 13.88 113.361C13.97 113.871 14.08 114.421 14.17 114.941C12.37 115.831 10.68 115.651 9.03 114.891C7.21 114.051 6.19 112.081 6.38 109.981C6.72 106.251 9.8 104.901 12.45 105.111C13.05 105.161 13.63 105.341 14.36 105.491L14.37 105.481Z" fill="#8A8A8A"/>
<path d="M133.95 105.358V107.148C133.45 107.148 133.02 107.148 132.59 107.148C132.19 107.148 131.78 107.148 131.24 107.148C131.2 108.558 131.22 109.868 131.22 111.188C131.22 112.508 131.22 113.828 131.22 115.218H129V107.168H126.35V105.408C127.07 105.168 132.54 105.108 133.97 105.348L133.95 105.358Z" fill="#8A8A8A"/>
<path d="M37.9998 107.123V115.213H35.6998V107.183H33.0898V105.403C33.9198 105.163 39.5398 105.153 40.6798 105.403V107.133H37.9998V107.123Z" fill="#8A8A8A"/>
<path d="M206.12 115.208V105.328H208.36C208.47 108.598 208.42 111.868 208.38 115.208H206.12Z" fill="#8A8A8A"/>
<path d="M122.84 115.233V105.312H125.04C125.06 105.593 125.08 105.813 125.08 106.043C125.11 108.803 125.13 111.563 125.17 114.333C125.18 115.203 125.1 115.323 124.19 115.333C123.92 115.333 123.64 115.322 123.37 115.312C123.24 115.312 123.1 115.283 122.84 115.243V115.233Z" fill="#8A8A8A"/>
<path d="M154.79 115.238H152.74C152.51 114.418 152.47 106.488 152.68 105.338C153.36 105.128 154.05 105.248 154.79 105.298V115.228V115.238Z" fill="#8A8A8A"/>
<path d="M193.83 115.232H191.68V105.352C192.38 105.112 193.07 105.242 193.83 105.332V115.222V115.232Z" fill="#8A8A8A"/>
<path d="M84.5703 105.289H86.7103V115.259H84.5703V105.289Z" fill="#8A8A8A"/>
<path d="M51.1798 75.7675C49.6298 75.9475 48.9398 77.2774 47.6598 77.9374C47.7198 77.7174 47.7498 77.5674 47.8098 77.3574C47.1298 77.3574 46.7798 77.9774 46.1498 78.1374C46.2198 77.9374 46.2798 77.7674 46.3598 77.5674C45.8898 77.1774 45.4798 77.8074 44.9398 77.6574C45.1798 77.3974 45.3898 77.1674 45.5998 76.9374C45.5798 76.8874 45.5598 76.8374 45.5398 76.7874C44.9898 76.8974 44.4498 77.0074 43.6698 77.1574C43.9198 76.9274 44.0198 76.8474 44.1098 76.7574C44.1998 76.6674 44.3398 76.5674 44.3598 76.4574C44.3798 76.3074 44.3098 76.1374 44.2698 75.9674C45.8498 75.6674 47.4298 75.3875 48.9898 75.0575C49.3698 74.9775 49.7198 74.7475 50.0998 74.5975C50.2698 74.5275 50.4598 74.4475 50.6398 74.4475C51.2798 74.4675 51.6298 74.2774 51.7398 73.7074C51.8398 73.2174 51.8598 72.7075 51.9298 72.0275C51.4798 72.2375 51.1498 72.3874 50.8298 72.5374C48.2498 73.7074 45.5598 74.5874 42.6998 74.3874C39.8998 74.1874 37.1198 73.7475 34.4998 72.6275C32.7398 71.8775 31.2298 70.7774 30.0498 69.2474C29.2998 68.2674 28.8098 67.2074 28.8698 65.9374C28.8898 65.5274 28.8698 65.1174 28.8698 64.6474C26.4498 63.9274 24.9798 61.8474 22.8698 60.7274C22.7598 60.6674 22.6798 60.5474 22.5098 60.3974C22.7698 60.1774 22.9998 60.0074 23.2098 59.8074C23.8798 59.1974 24.4198 58.5074 24.4898 57.5474C24.5698 56.3974 24.3598 55.4174 22.9498 54.9574C23.2998 54.7574 23.4998 54.5874 23.7398 54.5074C25.8398 53.7974 27.9498 53.0974 30.0598 52.3974C33.3398 51.2974 36.6098 50.1974 39.8798 49.0774C40.5098 48.8574 41.0498 48.8975 41.6298 49.2475C42.3298 49.6775 43.0798 50.0074 43.8198 50.3674C48.0698 52.4274 52.4598 54.1874 56.6098 56.4374C57.0598 56.6774 57.5198 56.9174 57.9498 57.1874C59.3598 58.0674 59.9698 59.3874 59.9498 60.9974C59.9298 62.2074 59.6598 63.3674 59.1498 64.4774C58.8798 65.0774 58.4398 65.4374 57.8498 65.7174C56.7698 66.2174 55.7198 66.7975 54.6498 67.3375C54.1698 67.5775 53.8998 67.9074 53.9898 68.4774C54.0198 68.6774 53.9698 68.8875 53.9898 69.0875C54.1098 69.9675 53.7998 70.6374 53.0298 71.0774C52.4798 71.3974 52.3198 71.8574 52.3898 72.4574C52.4198 72.7274 52.3898 73.0075 52.4398 73.2775C52.5498 74.0075 52.3798 74.5374 51.5998 74.7874C51.1698 74.9174 50.9098 75.2374 51.1598 75.7574L51.1798 75.7675ZM24.3898 60.3174C25.1098 60.9174 25.6598 61.4274 26.2598 61.8774C26.6598 62.1774 27.1198 62.4174 27.5598 62.6674C29.0098 63.5074 30.5498 64.2074 31.8798 65.2074C33.1198 66.1474 34.3598 67.0274 35.7498 67.7074C36.4898 68.0674 37.1798 68.5175 37.9198 68.8775C39.3598 69.5875 40.8098 70.2674 42.2798 70.9274C42.5598 71.0574 42.9598 71.0774 43.2598 70.9974C43.9798 70.7874 44.8898 69.2275 44.5998 68.5575C44.3098 67.8875 43.9098 67.1074 43.3198 66.7574C41.8698 65.8674 40.2898 65.1874 38.7498 64.4374C37.7698 63.9574 36.7398 63.5774 35.7898 63.0374C33.4798 61.7174 31.3898 60.0074 28.8698 59.0474C28.5198 58.9174 28.2298 58.6474 27.8998 58.4674C27.1098 58.0374 26.3098 57.6374 25.2898 57.0974C25.5498 58.4874 25.5398 59.6074 24.3898 60.3074V60.3174ZM52.4698 67.5275C52.8098 67.3975 53.0598 67.3275 53.2898 67.1975C54.5098 66.5075 55.6998 65.7574 56.9498 65.1174C58.8098 64.1674 59.2698 62.5474 59.2298 60.6574C59.2198 60.0874 58.9998 59.5974 58.4298 59.2274C56.6398 60.1174 54.8298 61.0074 53.0398 61.9174C52.8498 62.0074 52.6398 62.2474 52.6198 62.4374C52.4298 64.0874 52.3898 65.7475 52.4798 67.5275H52.4698ZM45.0498 66.3674C45.3198 67.2574 45.6798 68.0174 45.7498 68.7974C45.8098 69.5674 45.5798 70.3575 45.4398 71.3775C47.6498 70.1575 49.6598 69.0474 51.5898 67.9774V62.7474C49.1998 63.8374 47.0798 65.0874 45.0498 66.3574V66.3674Z" fill="#8A8A8A"/>
</svg>
