<svg width="256" height="142" viewBox="0 0 256 142" fill="none" xmlns="http://www.w3.org/2000/svg">
<path d="M142.38 21.962C143.24 21.962 143.68 21.962 144.13 21.962C151.31 21.962 158.49 21.942 165.67 21.962C170.51 21.982 174.28 24.002 176.98 28.032C178.03 29.602 178.46 31.362 178.58 33.172C178.61 33.632 177.96 34.172 177.57 34.622C177.27 34.962 176.86 35.222 176.51 35.522C176.79 35.792 177.03 36.152 177.36 36.332C178.51 36.952 178.95 37.852 178.96 39.162C178.99 44.162 179.18 49.162 179.15 54.172C179.13 56.722 178.78 59.272 178.55 61.822C178.28 64.702 176.68 66.792 174.46 68.492C172.87 69.702 172.78 69.832 174.36 70.932C177.45 73.082 178.44 76.132 178.45 79.642C178.48 89.732 178.46 99.832 178.45 109.922C178.45 112.242 179 114.342 180.76 115.992C182.06 117.202 182.48 117.132 183.39 115.622C184.26 114.162 184.58 112.602 184.69 110.912C184.89 107.752 185.23 104.582 185.69 101.442C185.92 99.892 186.33 98.462 186.27 96.792C186.13 93.352 186.69 89.892 186.97 86.432C187.19 83.722 187.45 81.012 187.65 78.292C187.98 73.762 188.27 69.232 188.57 64.702C188.76 61.772 188.94 58.852 189.15 55.922C189.45 51.602 189.78 47.272 190.07 42.952C190.34 38.872 190.64 34.792 190.82 30.712C190.92 28.522 190.4 26.452 188.95 24.682C188.69 24.372 188.64 23.882 188.5 23.472C188.92 23.372 189.35 23.142 189.75 23.182C191.37 23.362 192.98 23.792 194.6 23.832C199.13 23.942 203.67 24.132 208.15 23.062C209.17 22.822 210.3 22.912 211.37 22.972C212.68 23.052 213.34 23.912 212.67 24.992C210.35 28.752 211.74 32.732 211.77 36.622C211.77 38.102 211.98 39.582 212.08 41.072C212.41 45.972 212.72 50.882 213.05 55.782C213.39 60.722 213.72 65.672 214.1 70.612C214.55 76.372 215.05 82.132 215.51 87.902C215.79 91.322 216.04 94.732 216.32 98.152C216.73 103.092 217.05 108.042 217.65 112.952C217.81 114.242 218.86 115.422 219.47 116.672C219.67 117.082 220.01 117.672 219.86 117.952C219.68 118.282 219.05 118.532 218.6 118.542C213.33 118.662 208.07 118.742 202.8 118.802C202.42 118.802 201.89 118.672 201.72 118.412C201.59 118.212 201.82 117.642 202.04 117.352C203.83 115.112 204.41 112.632 203.93 109.792C203.67 108.262 203.72 106.662 203.79 105.102C203.9 102.692 203.23 101.922 200.83 101.922C198.13 101.922 197.26 102.712 197.15 105.392C197.03 108.232 196.86 111.072 196.95 113.912C196.99 115.142 197.62 116.362 198.02 117.582C198.31 118.452 198.04 118.812 197.12 118.822C193.6 118.882 190.07 118.992 186.55 119.032C185.48 119.042 184.37 119.032 183.34 118.762C178.72 117.572 174.01 118.212 169.35 118.062C168.11 118.022 166.86 118.032 165.62 118.062C164.81 118.082 164.46 117.752 164.54 116.962C164.72 115.152 164.92 113.352 165.09 111.542C165.25 109.812 165.5 108.092 165.51 106.362C165.56 97.672 165.54 88.982 165.53 80.292C165.53 77.492 164.07 75.802 161.41 75.402C159.98 75.182 159.3 75.692 159.12 77.112C159.07 77.522 159.08 77.942 159.08 78.352C159.08 89.442 159.09 100.532 159.05 111.622C159.05 113.402 159.48 114.952 160.55 116.362C160.79 116.682 161.02 117.282 160.88 117.542C160.72 117.832 160.13 118.022 159.72 118.032C154.83 118.142 149.93 118.242 145.04 118.272C144.47 118.272 143.65 118.082 143.4 117.692C143.19 117.372 143.56 116.552 143.85 116.072C145.01 114.192 145.62 112.192 145.61 109.972C145.59 101.822 145.58 93.672 145.61 85.522C145.67 68.352 145.78 51.192 145.84 34.022C145.84 32.202 145.92 30.342 145.53 28.592C145.17 26.942 144.26 25.412 143.55 23.842C143.3 23.302 142.94 22.812 142.44 21.962H142.38ZM158.77 58.712C158.86 58.712 158.94 58.712 159.03 58.712C159.03 59.992 159.05 61.272 159.03 62.552C159.01 63.482 159.43 63.972 160.34 64.212C162.46 64.782 164.47 63.842 165.13 61.602C165.55 60.162 165.66 58.602 165.7 57.092C165.84 52.142 165.9 47.192 165.94 42.232C165.95 41.082 165.87 39.922 165.68 38.782C165.24 36.112 163.83 34.912 161.14 34.782C159.24 34.692 158.79 35.112 158.79 37.032C158.79 44.252 158.79 51.482 158.79 58.702L158.77 58.712ZM198.05 89.482C198.05 89.482 198.09 89.482 198.1 89.482C198.1 89.602 198.09 89.732 198.08 89.852C197.95 91.392 198.3 91.732 200.22 91.942C202.22 92.162 203.51 91.592 203.7 90.392C203.72 90.272 203.72 90.142 203.71 90.022C203.62 89.032 203.51 88.052 203.42 87.072C202.88 81.162 202.36 75.252 201.8 69.342C201.68 68.072 201.47 66.802 201.24 65.552C201.18 65.252 200.84 65.002 200.63 64.732C200.45 65.012 200.14 65.272 200.11 65.562C199.9 67.442 199.74 69.332 199.58 71.222C199.07 77.302 198.56 83.392 198.05 89.472V89.482ZM210.86 65.782C210.74 65.662 210.61 65.542 210.49 65.422C210.1 65.602 209.7 65.762 209.33 65.982C208.26 66.622 208.05 66.492 207.76 65.322C207.66 64.902 207.15 64.252 206.88 64.272C206.17 64.342 205.45 64.662 204.84 65.042C204.73 65.112 204.99 66.132 205.33 66.452C206.66 67.742 206.84 68.442 206.14 70.182C205.99 70.562 206.04 71.012 206 71.432C206.46 71.362 207 71.432 207.37 71.212C209.5 69.982 209.69 67.592 210.85 65.772L210.86 65.782ZM209.03 40.812C208.96 40.722 208.89 40.642 208.82 40.552C208.75 40.152 208.71 39.732 208.59 39.342C208.15 37.892 207.38 37.612 206.27 38.632C205.56 39.282 204.97 40.112 204.48 40.952C204.3 41.252 204.54 42.192 204.67 42.212C205.6 42.342 206.61 42.492 207.48 42.252C208.08 42.092 208.52 41.312 209.02 40.812H209.03ZM210.55 100.272C211.65 100.152 212.62 99.582 213.08 98.572C213.33 98.032 213.19 97.042 212.82 96.552C212.23 95.772 211.3 95.942 210.74 96.262C210.67 97.642 210.62 98.832 210.55 100.262V100.272ZM196.95 39.872C195.64 39.842 194.91 40.532 194.87 41.572C194.85 42.242 195.03 42.702 195.81 42.722C197.12 42.762 198.35 42.052 198.31 41.242C198.26 40.272 197.61 39.922 196.95 39.872ZM206.96 91.172C206.96 92.032 208.17 93.132 209.2 93.062C209.45 93.042 209.86 92.592 209.88 92.322C209.97 90.842 209.35 89.852 208.42 89.872C207.6 89.892 206.97 90.212 206.96 91.172ZM190.4 114.962C190.52 115.132 190.73 115.662 191.09 115.832C191.35 115.952 191.94 115.662 192.2 115.382C192.7 114.852 193.13 114.222 193.48 113.572C193.59 113.382 193.43 112.822 193.24 112.732C192.09 112.182 190.4 113.342 190.4 114.962ZM189.19 107.522C189.11 107.562 189.04 107.602 188.96 107.652C189.2 107.962 189.45 108.542 189.67 108.532C190.08 108.512 190.63 108.232 190.83 107.892C191.43 106.872 191.03 105.902 190.39 105.022C190.28 104.862 189.94 104.732 189.77 104.782C189.6 104.832 189.41 105.122 189.38 105.322C189.28 106.052 189.24 106.792 189.18 107.522H189.19ZM193.99 102.802C193.4 102.412 193.08 102.132 192.72 102.022C192.6 101.982 192.15 102.542 192.19 102.602C192.41 102.922 192.69 103.232 193.03 103.402C193.16 103.462 193.49 103.132 194 102.812L193.99 102.802Z" fill="#8A8A8A"/>
<path d="M128.91 76.2593C125.9 73.3993 122.36 73.6193 118.87 73.6093C117.84 73.6093 117.4 74.0093 117.4 75.0993C117.43 84.7793 117.43 94.4593 117.4 104.149C117.4 105.239 117.84 105.649 118.87 105.629C119.7 105.609 120.53 105.629 121.36 105.629C124.18 105.649 124.62 105.219 124.62 102.439C124.62 97.6793 124.71 92.9193 124.59 88.1693C124.51 85.2293 125.46 83.1493 128.12 81.6493C130.56 80.2693 132.75 78.4493 135.08 76.8693C135.45 76.6193 136.1 76.3593 136.37 76.5193C136.68 76.6993 136.82 77.3593 136.83 77.8093C136.85 90.6393 136.85 103.459 136.83 116.289C136.83 118.049 136.29 118.559 134.49 118.569C124.16 118.589 113.82 118.589 103.49 118.599C103.16 118.599 102.83 118.599 102.49 118.579C100.9 118.509 100.64 118.089 101.54 116.819C103.77 113.639 104.18 110.019 104.18 106.299C104.18 83.9993 104.18 61.6993 104.19 39.3993C104.19 36.5893 104.26 33.7793 104.17 30.9793C104.1 28.7093 103.84 26.4693 102.46 24.4993C101.63 23.3193 101.98 22.7593 103.43 22.7493C108.15 22.6993 112.88 22.7493 117.6 22.6593C122.65 22.5693 127.71 22.3693 132.76 22.2493C135.41 22.1793 135.8 22.5893 135.85 25.1893C136 33.4593 136.17 41.7193 136.31 49.9893C136.35 52.3393 136.37 54.6993 136.29 57.0493C136.27 57.6193 135.97 58.4693 135.54 58.6793C135.04 58.9193 134.17 58.7993 133.63 58.5093C131.78 57.5093 130.05 56.3093 128.21 55.2793C125.68 53.8593 124.76 51.5693 124.62 48.8893C124.55 47.4993 124.79 46.0893 124.78 44.6893C124.76 42.2093 124.71 39.7293 124.56 37.2593C124.47 35.7093 123.17 34.6493 121.61 34.6393C121.07 34.6393 120.53 34.6893 119.99 34.6993C118.22 34.7493 117.51 35.3393 117.53 37.0593C117.56 40.6993 117.77 44.3293 117.78 47.9693C117.78 51.7293 117.63 55.4793 117.54 59.2393C117.53 59.7793 117.42 60.3193 117.47 60.8393C117.57 61.9893 118.21 62.7393 119.39 62.6993C122.41 62.5993 125.45 62.5893 128.08 60.7093C129.17 59.9393 129.61 60.2293 129.59 61.5993C129.52 65.8193 129.44 70.0393 129.33 74.2493C129.31 74.8493 129.08 75.4493 128.89 76.3093L128.91 76.2593ZM115.86 110.239C115.38 109.539 115.01 109.049 114.7 108.519C114.16 107.589 113.55 106.689 113.15 105.699C112.24 103.459 110.81 103.589 108.67 104.669C108.08 104.969 107.8 105.529 108.67 105.939C109.37 106.269 109.48 106.599 108.94 107.239C107.24 109.239 107.56 111.749 106.98 114.339C108.59 113.919 109.67 113.289 110.23 112.159C110.68 111.259 111.22 111.069 112.1 111.229C112.54 111.309 113.01 111.269 113.46 111.229C114.33 111.169 115.02 111.349 115.24 112.349C115.29 112.559 115.51 112.729 115.77 113.059C116.52 112.029 117.24 111.109 117.86 110.129C117.99 109.929 117.78 109.219 117.65 109.199C117.25 109.129 116.78 109.199 116.4 109.359C116.2 109.439 116.11 109.809 115.88 110.219L115.86 110.239ZM111.56 86.4593C111.4 86.4993 111.25 86.5293 111.09 86.5693C111.02 86.5293 110.93 86.4993 110.89 86.4393C110.5 85.9393 110.21 85.0993 109.38 85.7493C108.61 86.3593 108.89 87.0993 109.49 87.6693C110.06 88.2093 110.7 88.6693 111.35 89.1093C111.96 89.5293 112.62 90.0493 113.32 89.2493C113.97 88.5093 113.92 87.1693 113.35 86.4893C112.87 85.9093 112.43 85.2693 112.14 84.5893C111.45 82.9493 109.77 82.1093 108.34 82.8493C107.99 83.0293 107.78 83.4693 107.51 83.7893C107.89 84.0293 108.24 84.3493 108.65 84.5093C109.48 84.8293 110.38 84.9893 111.18 85.3693C111.42 85.4893 111.44 86.0793 111.56 86.4593ZM130.2 26.3393C129.08 26.2193 128.05 25.9493 127.04 26.0393C125.96 26.1293 125.43 27.4693 126 28.4093C126.49 29.1993 127.09 29.9193 127.75 30.8093C128.54 29.3693 129.29 28.0093 130.2 26.3493V26.3393ZM113.38 80.4993C112.05 79.2493 110.49 79.0093 109.55 79.7593C109.24 80.0093 108.87 80.5993 108.97 80.8293C109.12 81.1693 109.73 81.5693 110.06 81.4993C111.13 81.2893 112.16 80.8793 113.38 80.4993Z" fill="#8A8A8A"/>
<path d="M65.4002 76.1609C65.2202 76.0909 65.0902 76.0709 65.0002 75.9909C62.6502 73.7309 59.5902 73.7209 56.6502 73.4509C54.3102 73.2309 53.1602 74.6009 53.3602 76.9009C53.5202 78.7809 53.4502 80.6809 53.4502 82.5709C53.4502 89.5209 53.4602 96.4709 53.4102 103.411C53.3902 105.351 53.2202 107.291 52.9802 109.211C52.7002 111.491 53.2701 113.521 54.3501 115.501C55.6802 117.941 55.2802 118.541 52.5202 118.541C48.3302 118.541 44.1402 118.541 39.9502 118.541C39.2902 118.541 38.6302 118.461 37.9802 118.361C36.9002 118.181 36.6802 117.751 37.3602 116.871C39.6902 113.851 40.2102 110.381 40.2002 106.701C40.1802 83.6209 40.1601 60.5409 40.2601 37.4609C40.2701 33.9809 40.4602 30.5209 39.6802 27.1109C39.4602 26.1409 38.9402 25.2109 38.4002 24.3509C37.7202 23.2709 37.9202 22.6609 39.2002 22.4709C39.5702 22.4209 39.9502 22.4409 40.3202 22.4409C47.1702 22.4409 54.0102 22.4809 60.8602 22.4209C63.5502 22.4009 66.2401 22.1709 68.9201 21.9709C70.8701 21.8209 71.8202 22.4309 71.8702 24.3509C72.0202 30.7109 72.0801 37.0809 72.1801 43.4409C72.2501 47.7809 72.3401 52.1109 72.3401 56.4509C72.3401 57.1609 72.0702 58.2609 71.6102 58.4709C71.0202 58.7309 70.0301 58.4209 69.3501 58.0709C67.8501 57.3009 66.4702 56.2909 64.9802 55.4909C61.4102 53.5709 60.5002 50.4109 60.6602 46.7309C60.7902 43.6509 60.7102 40.5509 60.5702 37.4609C60.5102 36.1309 59.7902 35.0009 58.3802 34.5809C56.8702 34.1309 55.3802 34.2909 54.1302 35.2509C53.7802 35.5209 53.6701 36.2709 53.6701 36.8009C53.6401 43.3809 53.6702 49.9509 53.6402 56.5309C53.6402 57.7709 53.4502 59.0009 53.4502 60.2409C53.4502 61.8109 53.9701 62.3709 55.5101 62.4009C58.5501 62.4509 61.5602 62.3809 64.1902 60.4709C65.0602 59.8409 65.5702 60.0909 65.5802 61.1009C65.6102 66.0209 65.5801 70.9409 65.5601 75.8609C65.5601 75.9309 65.4801 76.0009 65.3801 76.1509L65.4002 76.1609ZM66.7302 27.8009C66.4502 27.2409 66.2502 26.6309 65.8602 26.1909C65.6402 25.9409 64.9002 25.7609 64.7302 25.9109C64.3802 26.2309 63.9902 26.9009 64.1202 27.2309C64.3202 27.7409 64.9202 28.1309 65.4102 28.4909C65.6402 28.6609 66.0702 28.7909 66.2902 28.6909C66.5002 28.5909 66.5701 28.1709 66.7401 27.8009H66.7302ZM63.8402 32.0209C64.2402 31.5209 64.7102 31.1809 64.6602 30.9609C64.5702 30.5809 64.1502 30.2809 63.8702 29.9509C63.6202 30.2109 63.1701 30.4809 63.1701 30.7409C63.1701 31.1009 63.5202 31.4509 63.8402 32.0209Z" fill="#8A8A8A"/>
<path d="M87.6701 22.928C90.2801 22.928 92.9001 22.908 95.5101 22.928C97.6501 22.958 98.0301 23.608 96.9201 25.368C95.2101 28.088 94.5701 31.108 94.5701 34.248C94.5701 53.068 94.6301 71.898 94.6901 90.718C94.7101 96.588 94.8301 102.468 94.8201 108.338C94.8201 111.208 95.2601 113.898 96.8801 116.358C97.9001 117.918 97.6201 118.328 95.7301 118.358C90.7501 118.438 85.7801 118.498 80.8001 118.538C78.7301 118.558 78.3801 118.008 79.3701 116.178C80.8701 113.408 81.4901 110.448 81.4901 107.358C81.5201 83.688 81.5201 60.028 81.5201 36.358C81.5201 32.248 80.7201 28.318 78.8101 24.638C78.0301 23.148 78.1801 22.948 79.8201 22.948C82.4301 22.948 85.0501 22.948 87.6601 22.948V22.918L87.6701 22.928ZM85.2801 74.728C87.3401 74.868 88.8801 74.398 90.3601 73.688C90.5801 73.588 90.7401 73.008 90.6601 72.728C90.3801 71.778 89.9801 70.858 89.6901 70.108C88.2401 71.638 86.8701 73.068 85.2801 74.738V74.728ZM89.3801 97.688C89.4501 96.418 89.5301 95.068 89.6201 93.718C89.6401 93.438 89.8101 93.098 89.7101 92.878C89.5201 92.478 89.2401 91.988 88.8801 91.858C88.6401 91.768 88.0201 92.148 87.8701 92.458C87.5101 93.228 87.2301 94.078 87.1201 94.918C87.0601 95.378 87.3001 95.998 87.6201 96.338C88.1601 96.908 88.8801 97.318 89.3701 97.688H89.3801Z" fill="#8A8A8A"/>
<path d="M210.87 65.7822C209.72 67.6022 209.52 69.9922 207.39 71.2222C207.02 71.4422 206.48 71.3722 206.02 71.4422C206.06 71.0222 206 70.5622 206.16 70.1922C206.86 68.4522 206.67 67.7522 205.35 66.4622C205.01 66.1322 204.75 65.1122 204.86 65.0522C205.47 64.6722 206.19 64.3522 206.9 64.2822C207.17 64.2522 207.67 64.9122 207.78 65.3322C208.07 66.5022 208.28 66.6222 209.35 65.9922C209.72 65.7722 210.12 65.6222 210.51 65.4322C210.63 65.5522 210.76 65.6722 210.88 65.7922L210.87 65.7822Z" fill="#8A8A8A"/>
<path d="M209.04 40.8079C208.53 41.3079 208.1 42.0879 207.5 42.2479C206.62 42.4879 205.62 42.3379 204.69 42.2079C204.56 42.1879 204.33 41.2579 204.5 40.9479C204.99 40.1079 205.57 39.2779 206.29 38.6279C207.4 37.6079 208.17 37.8879 208.61 39.3379C208.73 39.7279 208.76 40.1379 208.84 40.5479C208.91 40.6379 208.98 40.7179 209.05 40.8079H209.04Z" fill="#8A8A8A"/>
<path d="M210.55 100.269C210.62 98.8387 210.68 97.6487 210.74 96.2687C211.29 95.9487 212.23 95.7787 212.82 96.5587C213.19 97.0487 213.32 98.0287 213.08 98.5787C212.62 99.5887 211.65 100.159 210.55 100.279V100.269Z" fill="#8A8A8A"/>
<path d="M196.96 39.8603C197.62 39.9203 198.26 40.2603 198.32 41.2303C198.36 42.0403 197.13 42.7503 195.82 42.7103C195.05 42.6903 194.86 42.2303 194.88 41.5603C194.92 40.5103 195.65 39.8303 196.96 39.8603Z" fill="#8A8A8A"/>
<path d="M206.97 91.1597C206.97 90.1897 207.61 89.8697 208.43 89.8597C209.36 89.8397 209.98 90.8397 209.89 92.3097C209.87 92.5797 209.46 93.0397 209.21 93.0497C208.18 93.1097 206.97 92.0197 206.97 91.1597Z" fill="#8A8A8A"/>
<path d="M190.41 114.95C190.41 113.33 192.1 112.17 193.25 112.72C193.43 112.81 193.59 113.37 193.49 113.56C193.14 114.21 192.72 114.83 192.21 115.37C191.95 115.65 191.36 115.94 191.1 115.82C190.73 115.65 190.53 115.12 190.41 114.95Z" fill="#8A8A8A"/>
<path d="M189.2 107.513C189.26 106.783 189.3 106.043 189.4 105.313C189.43 105.113 189.61 104.823 189.79 104.773C189.96 104.723 190.29 104.853 190.41 105.013C191.04 105.883 191.44 106.863 190.85 107.883C190.65 108.223 190.1 108.493 189.69 108.523C189.47 108.533 189.22 107.953 188.98 107.643C189.06 107.603 189.13 107.563 189.21 107.513H189.2Z" fill="#8A8A8A"/>
<path d="M194 102.787C193.48 103.117 193.16 103.447 193.03 103.377C192.69 103.207 192.41 102.897 192.19 102.577C192.15 102.517 192.61 101.967 192.72 101.997C193.09 102.107 193.4 102.397 193.99 102.777L194 102.787Z" fill="#8A8A8A"/>
<path d="M115.86 110.241C116.1 109.831 116.18 109.461 116.38 109.381C116.77 109.221 117.23 109.141 117.63 109.221C117.76 109.241 117.97 109.951 117.84 110.151C117.22 111.131 116.5 112.051 115.75 113.081C115.5 112.751 115.27 112.581 115.22 112.371C115 111.371 114.32 111.191 113.44 111.251C112.99 111.281 112.52 111.321 112.08 111.251C111.2 111.091 110.66 111.281 110.21 112.181C109.65 113.311 108.56 113.941 106.96 114.361C107.54 111.771 107.23 109.261 108.92 107.261C109.46 106.621 109.36 106.291 108.65 105.961C107.79 105.551 108.07 104.991 108.65 104.691C110.78 103.611 112.22 103.481 113.13 105.721C113.53 106.711 114.14 107.611 114.68 108.541C114.99 109.071 115.37 109.561 115.84 110.261L115.86 110.241ZM109.84 109.031C110.23 109.561 110.49 109.921 110.76 110.271C111 109.861 111.37 109.471 111.42 109.041C111.45 108.761 111.01 108.421 110.78 108.111C110.5 108.381 110.22 108.651 109.84 109.031Z" fill="#8A8A8A"/>
<path d="M111.56 86.4591C111.44 86.0791 111.42 85.4891 111.18 85.3691C110.38 84.9891 109.48 84.8291 108.65 84.5091C108.24 84.3491 107.89 84.0391 107.51 83.7891C107.78 83.4691 108 83.0291 108.34 82.8491C109.77 82.1091 111.45 82.9491 112.14 84.5891C112.43 85.2791 112.87 85.9191 113.35 86.4891C113.91 87.1691 113.96 88.5091 113.32 89.2491C112.62 90.0491 111.96 89.5291 111.35 89.1091C110.7 88.6691 110.06 88.1991 109.49 87.6691C108.89 87.0991 108.61 86.3591 109.38 85.7491C110.21 85.0991 110.5 85.9391 110.89 86.4391C110.94 86.4991 111.02 86.5291 111.09 86.5691C111.25 86.5291 111.4 86.4991 111.56 86.4591Z" fill="#8A8A8A"/>
<path d="M130.2 26.3319C129.29 27.9919 128.54 29.3519 127.75 30.7919C127.1 29.9019 126.49 29.1919 126 28.3919C125.42 27.4519 125.96 26.1119 127.04 26.0219C128.05 25.9319 129.09 26.2019 130.2 26.3219V26.3319Z" fill="#8A8A8A"/>
<path d="M113.38 80.4971C112.16 80.8871 111.13 81.2871 110.06 81.4971C109.73 81.5571 109.12 81.1571 108.97 80.8271C108.87 80.5971 109.24 80.0071 109.55 79.7571C110.49 79.0071 112.05 79.2471 113.38 80.4971Z" fill="#8A8A8A"/>
<path d="M66.7301 27.8016C66.5601 28.1716 66.5001 28.5916 66.2801 28.6916C66.0601 28.7916 65.6301 28.6616 65.4001 28.4916C64.9101 28.1316 64.3201 27.7416 64.1101 27.2316C63.9801 26.9016 64.3801 26.2316 64.7201 25.9116C64.8901 25.7616 65.6301 25.9316 65.8501 26.1916C66.2401 26.6316 66.4301 27.2416 66.7201 27.8016H66.7301Z" fill="#8A8A8A"/>
<path d="M63.8399 32.0192C63.5199 31.4492 63.1699 31.0892 63.1699 30.7392C63.1699 30.4792 63.6199 30.2192 63.8699 29.9492C64.1499 30.2792 64.5699 30.5792 64.6599 30.9592C64.7099 31.1792 64.2399 31.5292 63.8399 32.0192Z" fill="#8A8A8A"/>
<path d="M85.2803 74.7198C86.8703 73.0498 88.2303 71.6198 89.6903 70.0898C89.9803 70.8398 90.3803 71.7598 90.6603 72.7098C90.7403 72.9898 90.5803 73.5698 90.3603 73.6698C88.8903 74.3798 87.3403 74.8498 85.2803 74.7098V74.7198Z" fill="#8A8A8A"/>
<path d="M89.3803 97.6794C88.8903 97.3094 88.1703 96.8994 87.6303 96.3294C87.3103 95.9894 87.0703 95.3594 87.1303 94.9094C87.2403 94.0694 87.5203 93.2294 87.8803 92.4494C88.0203 92.1394 88.6503 91.7594 88.8903 91.8494C89.2503 91.9794 89.5303 92.4694 89.7203 92.8694C89.8203 93.0894 89.6503 93.4194 89.6303 93.7094C89.5403 95.0594 89.4703 96.4194 89.3903 97.6794H89.3803Z" fill="#8A8A8A"/>
<path d="M109.84 109.029C110.23 108.649 110.51 108.379 110.78 108.109C111.01 108.419 111.45 108.759 111.42 109.039C111.37 109.469 110.99 109.859 110.76 110.269C110.5 109.909 110.23 109.559 109.84 109.029Z" fill="#8A8A8A"/>
</svg>
