<svg width="256" height="142" viewBox="0 0 256 142" fill="none" xmlns="http://www.w3.org/2000/svg">
<path d="M245.85 105.542H10.1704C10.3404 105.262 10.2804 105.062 9.98039 104.902C9.74039 104.782 9.51039 104.652 9.29039 104.492C8.52039 103.962 7.74039 103.462 7.00039 102.872C5.97039 102.052 5.15039 101.162 4.76039 99.9224C4.59039 99.3624 4.51039 98.7824 4.39039 98.2124C4.42039 98.1824 4.41039 98.1524 4.38039 98.1324C4.38039 98.0924 4.37039 98.0523 4.36039 98.0023C4.38039 97.8623 4.38039 97.7324 4.25039 97.6324C4.08039 96.9524 4.12039 96.2524 4.12039 95.5624C4.12039 80.2024 4.12039 64.8324 4.12039 49.4724C4.12039 47.5924 3.96039 45.7124 4.35039 43.8424L4.40039 43.4623C4.52039 43.1423 4.63039 42.8123 4.61039 42.4623C4.68039 42.2623 4.75039 42.0624 4.82039 41.8624C5.09039 41.3224 5.35039 40.7924 5.62039 40.2524C5.74039 40.1424 5.98039 40.1223 5.91039 39.8723C6.28039 39.4823 6.65039 39.0924 7.02039 38.7024C7.98039 37.6924 9.17039 37.0324 10.5504 36.8424C12.0504 36.6324 13.5704 36.4423 15.0904 36.4423C90.8504 36.4223 166.61 36.4224 242.37 36.4324C242.79 36.4324 243.2 36.4824 243.62 36.5224C244.73 36.6224 245.77 36.9323 246.79 37.4023C248.05 37.9923 249.15 38.7524 249.97 39.8424C250.46 40.5024 251.05 41.0924 251.44 41.8224C251.52 41.9724 251.65 42.1423 251.89 42.1023V98.1024C251.67 98.3224 251.48 98.5523 251.4 98.8623C250.76 101.442 248.87 103.102 246.94 104.752C246.88 104.802 246.8 104.872 246.73 104.872C246.27 104.872 246.01 105.122 245.85 105.512V105.542ZM217.68 76.2024C217.94 75.9424 218.16 75.6623 218.32 75.3323C218.49 75.2023 218.63 75.0424 218.71 74.8424C220.03 73.3923 221.11 71.7624 222.18 70.1424C222.27 70.0124 222.35 69.8823 222.44 69.7523C222.47 69.7223 222.49 69.6823 222.52 69.6523C222.59 69.5723 222.66 69.5023 222.72 69.4123C225 66.3623 226.86 63.0323 229.34 60.1223C230.21 59.1023 230.75 57.9823 231 56.6923C231.15 55.9123 231 55.5524 230.21 55.3624C229.36 55.1624 228.49 55.0424 227.61 55.1124C227.18 55.0924 226.76 54.9523 226.31 54.9623C220.85 55.0723 215.39 54.8923 209.93 55.1223C209.32 55.1523 208.71 55.2523 208.17 55.6023C207.49 56.0523 207.39 56.5723 207.98 57.1023C208.37 57.4523 208.87 57.6523 209.39 57.6623C211.31 57.7023 213.23 57.7223 215.16 57.7623C218.4 57.8223 221.65 57.7523 224.9 57.8123C225.71 57.8223 225.89 58.0024 225.9 58.7924C225.86 59.0624 225.78 59.3123 225.63 59.5323C224.92 60.6023 224 61.5323 223.28 62.6023C222.76 63.3723 222.07 64.0423 221.59 64.8323C220.53 66.5723 219.23 68.1323 218.03 69.7623C217.58 70.4623 217.13 71.1623 216.67 71.8723C216.03 72.4623 215.77 73.2924 215.26 73.9524C213.17 76.7024 211.35 79.6323 209.34 82.4423C208.38 83.7823 207.41 85.1323 207.18 86.8424C207.08 87.5624 207.06 87.5823 207.84 87.5823C209.22 87.5823 210.61 87.5523 211.99 87.5423C215.18 87.5423 218.36 87.5423 221.55 87.5423C222.78 87.5823 224.02 87.6523 225.25 87.6523C227.19 87.6523 229.13 87.8123 231.07 87.6523C231.2 87.6423 231.3 87.6123 231.4 87.5123C231.96 86.9623 231.65 85.4624 230.91 85.2424C230.62 85.1524 230.3 85.0723 230 85.0723C227.74 85.0723 225.48 85.0923 223.22 85.1123C220.88 85.0923 218.53 85.1123 216.19 85.0523C215.12 85.0223 214.07 85.2323 213.01 85.1823C211.75 85.1223 211.45 84.5823 212.09 83.5523C212.22 83.3423 212.37 83.1424 212.53 82.9524C214.28 80.9124 216.02 78.8724 217.41 76.5624C217.55 76.4824 217.65 76.3723 217.69 76.2223L217.68 76.2024ZM176.86 85.0924C174.81 85.0424 172.76 85.0423 170.71 85.1123C168.44 85.1623 166.16 85.1624 163.89 85.0624C163.37 85.0424 163.14 84.8624 163.11 84.3524C163.06 83.5124 163.01 82.6823 163.09 81.8424C163.22 80.8924 163.2 79.9323 163.22 78.9723C163.26 76.6523 163.01 74.3223 163.29 72.0023C165.12 72.0223 166.95 72.0624 168.78 72.0624C171.64 72.0724 174.51 72.0624 177.37 72.0624C177.68 72.1124 177.98 72.1324 178.27 71.9924C179.25 71.9624 179.38 72.2024 179.38 70.9224C179.38 70.7624 179.37 70.5923 179.38 70.4323C179.41 70.0723 179.24 69.8823 178.89 69.7623C178.14 69.5023 177.38 69.4623 176.6 69.4723C173.71 69.4923 170.82 69.4923 167.93 69.5123C166.73 69.5223 165.53 69.4024 164.32 69.6024C163.31 69.7624 163.05 69.4623 163.01 68.4423C162.96 67.2323 163.03 66.0323 163.11 64.8323C163.19 62.7723 163.24 60.7223 163.14 58.6623C163.14 58.4923 163.16 58.3323 163.16 58.1623C163.45 57.8923 163.89 57.8524 164.14 57.5224C164.9 57.4124 165.67 57.3623 166.43 57.4423C167.13 57.5123 167.83 57.6024 168.54 57.5224C168.82 57.5724 169.11 57.6723 169.39 57.6723C171.92 57.7423 174.45 57.7823 176.99 57.8523C177.73 57.8723 178.45 57.7423 179.14 57.4923C179.87 57.2323 180.19 56.7824 180.12 56.1124C180.06 55.5824 179.65 55.2223 178.93 55.1223C178.35 55.0423 177.77 55.0123 177.19 54.9923C174.35 54.8823 171.5 54.9923 168.66 55.1523C167.16 55.1723 165.66 55.1824 164.16 55.2024C164.04 55.1424 163.91 55.1323 163.79 55.1923C162.75 55.0423 161.71 55.3323 160.67 55.1023C160.61 55.0923 160.54 55.1624 160.47 55.2024C159.91 55.2224 159.55 55.6323 159.63 56.0623C159.89 57.5223 159.57 58.9723 159.62 60.4223C159.67 61.7723 159.65 63.1223 159.67 64.4723C159.61 64.8023 159.61 65.1323 159.67 65.4723C159.64 65.5023 159.65 65.5324 159.68 65.5624C159.68 65.7324 159.7 65.8924 159.71 66.0624C159.71 66.0724 159.68 66.0924 159.69 66.1024C159.69 66.1324 159.71 66.1623 159.73 66.1823C159.51 66.6523 159.73 67.1324 159.73 67.6024C159.73 69.0224 159.73 70.4523 159.75 71.8723C159.67 75.1223 159.59 78.3723 159.62 81.6223C159.51 82.1423 159.71 82.6324 159.73 83.1424C159.78 84.0724 159.56 84.9724 159.59 85.8924C159.62 86.8124 160.15 87.3723 161.07 87.4123C162.24 87.4523 163.42 87.5723 164.59 87.5123C166.2 87.4323 167.8 87.8223 169.41 87.5823C172.01 87.7623 174.62 87.6723 177.22 87.6223C178.31 87.7123 179.37 87.6123 180.45 87.4423C180.86 87.3823 181.06 87.2123 181.12 86.8723C181.32 85.7823 181.11 85.3823 179.97 85.1923C178.94 85.0123 177.89 85.1024 176.84 85.1024L176.86 85.0924ZM122.27 77.6523C122.32 77.4523 122.33 77.2423 122.27 77.0423C122.29 76.7123 122.33 76.3924 122.32 76.0624C122.29 72.7224 122.25 69.3823 122.2 66.0423C122.18 64.5523 122.35 63.0623 122.01 61.5823C121.93 61.2523 121.77 60.8623 121.92 60.4223C122.42 60.8123 122.83 61.2223 123.36 61.4623C123.39 61.5123 123.42 61.5624 123.44 61.6124C123.35 61.7824 123.45 61.8323 123.59 61.8723C124.08 63.0123 124.52 64.1824 125.03 65.3124C125.92 67.2624 126.96 69.1523 127.81 71.1223C128.54 72.8023 129.02 74.6123 130.01 76.1523C130.87 77.4923 131.29 78.9823 131.9 80.4023C132.64 82.1323 133.08 84.0023 134.19 85.5723C134.5 86.0123 134.75 86.4824 134.92 86.9924C135.13 87.6324 135.72 87.7823 136.28 87.8723C136.7 87.9423 136.93 87.5624 137.07 87.2124C137.55 85.9724 138.23 84.8024 138.71 83.5624C140.11 79.9424 141.91 76.4924 143.26 72.8524C143.85 71.2424 144.58 69.6624 145.3 68.0924C146.07 66.3923 146.48 64.5523 147.39 62.9023C147.78 62.2023 148.15 61.4823 148.43 60.7323C148.61 60.2423 148.66 59.7123 149.06 59.3223C149.14 60.9123 149.23 62.4923 149.2 64.0924C149.1 70.5924 149.15 77.0823 149.15 83.5823C149.15 84.0723 149.16 84.5724 149.17 85.0624C149.17 85.2424 149.17 85.4323 149.17 85.6123C149.18 86.7123 149.86 87.6024 150.92 87.8824C151.76 88.1124 152.58 87.3124 152.57 86.2724C152.57 82.9624 152.57 79.6624 152.55 76.3524C152.54 74.3624 152.63 72.3724 152.45 70.3824C152.52 70.2124 152.51 70.0424 152.43 69.8824C152.43 68.7324 152.4 67.5823 152.41 66.4323C152.45 63.0823 152.5 59.7324 152.43 56.3824C152.41 55.5124 151.97 55.0923 151.06 55.0823C150.56 55.0823 150.05 55.0823 149.55 55.0823C148.12 55.0823 147.36 55.6323 146.92 56.9623C146.67 57.7223 146.42 58.4823 146.13 59.2323C145.44 61.0323 144.82 62.8623 144 64.6123C142.71 67.3723 141.12 70.0024 140.07 72.8824C139.79 73.6524 139.34 74.3624 139.08 75.1424C138.47 76.9824 137.33 78.6023 136.89 80.5023C136.78 80.9523 136.42 81.2524 135.86 81.2424C135.32 81.2424 135.22 80.8323 135.1 80.4723C134.76 79.4823 134.53 78.4424 134.01 77.5224C132.58 75.0324 131.85 72.2423 130.55 69.6923C129.47 67.5623 128.57 65.3324 127.68 63.1124C126.83 60.9824 125.65 58.9923 124.89 56.8123C124.65 56.1223 124.15 55.5023 123.44 55.3223C122.38 55.0423 121.28 54.8623 120.16 54.9623C119.7 55.0023 119.3 55.2124 119.19 55.6824C119 56.4924 118.86 57.3123 118.97 58.1623C118.97 58.3223 118.94 58.4923 118.94 58.6523C118.94 67.4123 118.94 76.1723 118.94 84.9323C118.94 85.0923 118.96 85.2624 118.97 85.4224C118.95 86.2824 119.21 86.9823 119.95 87.5523C120.54 88.0123 121.13 87.9123 121.67 87.7223C122.2 87.5423 122.37 86.9523 122.37 86.4423C122.37 84.5423 122.34 82.6424 122.31 80.7424C122.34 79.7124 122.35 78.6823 122.25 77.6523H122.27ZM110.67 86.9023C110.86 85.7423 110.81 84.5723 110.68 83.4123C110.59 82.6023 110.26 82.3824 109.43 82.3424C108.92 82.3124 108.44 82.4624 107.94 82.4624C104.44 82.4624 100.94 82.4624 97.4304 82.4624C96.6704 82.4624 96.5504 82.3624 96.5504 81.6324C96.6104 73.2924 96.5504 64.9523 96.7004 56.6023C96.7004 56.2723 96.7004 55.9423 96.7004 55.6223C96.7004 55.2323 96.5004 55.0223 96.0904 54.9823C94.4804 54.8523 92.8704 54.9223 91.2604 54.9623C90.7504 54.9723 90.4804 55.2423 90.4804 55.8223C90.4904 57.9723 90.4804 60.1323 90.5604 62.2823C90.6804 65.7623 90.6404 69.2524 90.7104 72.7424C90.8004 77.1124 90.6804 81.4823 90.5004 85.8424C90.4404 87.3024 90.6304 87.4624 92.0904 87.4624C95.7404 87.4424 99.3904 87.4324 103.04 87.4224C105.28 87.4224 107.52 87.5624 109.76 87.3924C110.08 87.2624 110.77 87.7923 110.67 86.9023ZM37.4704 88.0123C38.0004 88.0723 38.5004 87.8224 38.9804 87.8124C40.0704 87.7824 41.0204 87.3924 41.9704 86.9924C43.8204 86.2224 45.4804 85.1323 46.5604 83.4423C48.1904 80.8823 48.4804 78.1624 47.4704 75.2424C46.7704 73.2224 45.4304 71.8623 43.6804 70.7523C42.1104 69.7623 40.4304 69.0423 38.7104 68.3723C37.7704 68.0123 36.9004 67.4823 35.9204 67.2223C34.6504 66.8823 33.6904 66.1623 33.0504 65.0523C32.5204 64.1123 32.1404 63.0723 32.8204 62.1223C33.5704 61.0723 34.5904 60.2223 35.9004 59.8923C38.3904 59.2623 40.6204 59.8123 42.5304 61.5123C43.1704 62.0823 44.0804 62.1024 44.5804 61.4524C45.0404 60.8524 45.6404 60.3523 46.1904 59.8123C46.6504 59.3623 47.1004 58.9023 47.4704 58.3723C47.8604 57.8223 47.7904 57.2923 47.3004 56.8323C47.1004 56.6523 46.8804 56.4923 46.6504 56.3523C45.4004 55.5623 43.9804 55.2524 42.5504 54.9324C41.4104 54.6724 40.2604 54.5823 39.1104 54.4623H38.9804C38.8804 54.4423 38.7904 54.4423 38.6904 54.4423C38.6304 54.4323 38.5704 54.4123 38.5104 54.4023C38.3804 54.4023 38.2404 54.4023 38.1104 54.3923C38.0704 54.3723 38.0404 54.3623 38.0004 54.3923C37.8704 54.3923 37.7404 54.3923 37.6104 54.4023C37.5404 54.4123 37.4804 54.4323 37.4104 54.4423C37.3204 54.4423 37.2304 54.4523 37.1304 54.4623C37.0504 54.4623 36.9704 54.4723 36.8904 54.4823C36.5804 54.5223 36.2704 54.5523 35.9704 54.6023C33.6004 55.0523 31.2704 55.6423 29.4804 57.3523C27.4204 59.3123 26.2504 61.6723 26.2804 64.5723C26.3004 66.7523 27.2904 68.4623 28.7404 69.9723C29.8504 71.1323 31.2504 71.9423 32.7304 72.5723C34.4904 73.3323 36.3004 73.9623 38.0804 74.6823C39.4404 75.2323 40.6304 76.0223 41.3704 77.3223C41.9204 78.2823 41.9504 79.2323 41.3504 80.1823C41.0704 80.6223 40.7704 81.0423 40.4004 81.4023C39.0404 82.7023 37.3704 83.3023 35.5304 83.0123C33.5804 82.7123 31.8904 81.7123 30.3004 80.5823C29.9004 80.3023 29.4504 80.1423 28.9904 80.0023C28.7404 79.9223 28.5204 79.9524 28.3804 80.1724C27.8004 81.1424 26.8504 81.7924 26.2004 82.7124C25.3004 83.9824 25.2604 83.9924 26.4504 85.0324C26.6204 85.1824 26.7904 85.3424 26.9904 85.4524C28.7504 86.4824 30.5104 87.5124 32.5904 87.8524C32.6704 87.8724 32.7504 87.8923 32.8304 87.9123C34.3404 88.1223 35.8604 88.2323 37.3804 88.0123L37.4304 88.0324L37.4804 88.0023L37.4704 88.0123ZM66.8704 54.4823C66.6504 54.5223 66.4204 54.5723 66.2004 54.5823C63.5404 54.7823 61.1204 55.6723 58.9004 57.0823C57.2404 58.1423 55.6704 59.2923 54.6204 61.0023C53.5804 62.7023 52.5004 64.3823 51.9504 66.3323C51.4904 67.9823 51.0404 69.6323 51.1304 71.3623C51.1304 71.4823 51.1304 71.6123 51.1404 71.7323C50.9904 72.8023 51.3404 73.8123 51.5404 74.8323C51.5604 74.9023 51.5804 74.9723 51.6004 75.0423C51.6004 75.1423 51.5804 75.2524 51.6104 75.3524C52.1204 77.2624 52.5704 79.1724 53.7804 80.8424C54.8204 82.2723 56.0304 83.5023 57.3904 84.6123C58.4004 85.4423 59.5604 86.0223 60.7504 86.5823C62.8704 87.5723 65.0904 88.1024 67.4304 88.1324C68.8604 88.1524 70.2804 88.1324 71.7204 87.9624C73.4104 87.7624 74.9904 87.3723 76.5304 86.7323C78.7904 85.8023 80.5404 84.1723 82.1404 82.4323C84.3904 79.9723 85.9504 77.1423 86.1004 73.7323C86.1004 73.6123 86.1704 73.5024 86.2104 73.3924C86.2104 73.2824 86.2104 73.1723 86.2204 73.0723C86.2204 72.9623 86.2204 72.8524 86.2204 72.7424C86.2704 72.6724 86.2804 72.6024 86.2204 72.5324C86.2204 72.4524 86.2204 72.3624 86.2204 72.2824C86.2904 72.1924 86.2904 72.1023 86.2404 72.0023C86.3904 71.0023 86.3004 69.9923 86.1604 69.0023C85.9304 67.3323 85.3504 65.7523 84.7704 64.1823C83.8604 61.7323 82.1604 59.8424 80.2004 58.1824C78.7104 56.9224 76.9804 56.0823 75.0604 55.5023C73.1704 54.9323 71.2504 54.6423 69.3004 54.4623C69.1104 54.4423 68.9204 54.4223 68.7204 54.4023L68.3104 54.3723C68.3104 54.3723 68.2404 54.3423 68.2004 54.3723C67.8904 54.3323 67.5804 54.3223 67.2804 54.4223C67.1404 54.4323 67.0004 54.4523 66.8604 54.4623L66.8704 54.4823ZM196.18 54.2724C193.25 54.3124 192.06 54.6623 190.14 55.6523C187.15 57.2023 185.56 59.6824 185.43 63.0224C185.41 63.3924 185.43 63.7624 185.43 64.1324C185.44 66.6324 186.6 68.5223 188.61 69.9723C190.29 71.1823 192.21 71.9523 194.11 72.7523C195.29 73.2423 196.51 73.6124 197.7 74.0624C199.67 74.8024 201 76.0923 201.77 77.9823C202.42 79.5923 202.08 81.1324 201.16 82.4924C199.77 84.5524 197.62 85.4324 195.21 85.5324C192.99 85.6224 191.04 84.7023 189.23 83.4723C188.3 82.8423 187.4 82.1523 186.28 81.8223C185.57 81.6123 185.35 81.6723 185.12 82.3623C184.69 83.6423 185.06 84.7223 186.22 85.5423C186.64 85.8323 187.05 86.1524 187.5 86.3924C189.48 87.4824 191.58 88.2224 193.88 88.2824C195.22 88.3124 196.52 88.1724 197.84 87.9524C200.78 87.4624 203.12 86.2723 204.34 83.4323C204.8 82.3723 205.14 81.3123 205.3 80.1623C205.61 77.9723 205.4 75.9224 203.86 74.1724C202.1 72.1724 199.73 71.1223 197.27 70.2623C195.46 69.6323 193.6 69.1324 191.85 68.3524C190.14 67.5924 188.83 66.4624 188.33 64.5924C188.02 63.4424 188.32 62.3624 188.57 61.2724C188.89 59.9024 189.56 58.7323 190.86 58.0523C191.87 57.5223 192.96 57.1824 194.11 57.0424C196.02 56.8024 197.74 57.4423 199.42 58.1723C200.66 58.7123 201.76 59.5523 203.09 59.9223C203.27 59.9723 203.39 60.1123 203.57 59.8923C204.33 58.9623 204.28 57.9824 203.44 57.1124C201.32 54.9024 198.56 54.4223 196.18 54.2823V54.2724Z" fill="#8A8A8A"/>
<path d="M57.46 70.0099C57.84 64.7399 62.35 60.2699 67.59 59.6299C70.18 59.3199 72.64 59.9199 74.83 61.4399C77.59 63.3499 79.22 65.8999 79.69 69.2099C80 71.4299 79.82 73.5899 79.14 75.6999C78.03 79.1599 75.56 81.3099 72.1 82.4599C70.95 82.8399 69.76 83.0699 68.56 83.0799C67.14 83.0799 65.79 82.6399 64.45 82.1999C62.07 81.4299 60.36 79.7299 59.17 77.7399C58.02 75.8099 57.44 73.5699 57.49 71.2599C57.49 70.9699 57.47 70.6899 57.46 70.3999C57.46 70.2699 57.46 70.1499 57.46 70.0199V70.0099Z" fill="#8A8A8A"/>
</svg>
