<svg width="48" height="48" viewBox="0 0 48 48" fill="none" xmlns="http://www.w3.org/2000/svg">
<rect width="48" height="48" rx="12" fill="#F3F3F3"/>
<path d="M29.0381 32.5963V27.0122C29.0381 25.6779 29.0183 23.9643 27.1879 23.9643C25.332 23.9643 25.0538 25.4186 25.0538 26.9128V32.5963H21.4939V21.1094H24.9017V22.6832H24.9483C25.2903 22.0979 25.7848 21.6165 26.379 21.2903C26.9732 20.964 27.6448 20.8052 28.3222 20.8308C31.9291 20.8308 32.5984 23.2075 32.5984 26.302V32.5963H29.0381ZM19.2455 32.5963H15.68V21.1094H19.2464V32.5954L19.2455 32.5963ZM15.4014 17.4714C15.402 17.0625 15.5238 16.6629 15.7514 16.3232C15.9791 15.9835 16.3023 15.7189 16.6802 15.5628C17.0582 15.4067 17.474 15.3662 17.875 15.4463C18.2759 15.5265 18.6442 15.7237 18.9331 16.0131C19.2221 16.3025 19.4187 16.671 19.4983 17.0721C19.5778 17.4732 19.5367 17.8889 19.3801 18.2666C19.2234 18.6444 18.9583 18.9672 18.6183 19.1943C18.2782 19.4214 17.8785 19.5427 17.4696 19.5427C16.9208 19.5416 16.395 19.3229 16.0072 18.9347C15.6195 18.5464 15.4016 18.0201 15.4014 17.4714Z" fill="#1C1B1B"/>
</svg>
