<svg width="548" height="475" viewBox="0 0 548 475" fill="none" xmlns="http://www.w3.org/2000/svg">
<path d="M434 325.7C432.8 317.8 422.8 306.9 418.6 300L401.6 271.8C394.2 259.7 392.5 244.6 386 232C375.9 212.7 367 183 353 161.4C341.7 138.3 329.7 129.5 314.9 108.5C313.8 107 311.7 106.7 310.2 107.7C310 107.8 309.9 108 309.7 108.1C306.1 111.8 302.9 115.8 300.2 120.2C298.3 118.5 296.6 116.7 295 114.7C282.5 99.2001 273.9 81.0001 269.9 61.5001C269.4 58.8001 267.2 56.7001 264.5 56.4001C261.4 56.1001 259.9 58.6001 258.7 60.9001L206.9 161.4C200.5 173.8 194.1 186.5 190.1 199.8C158.8 239.9 136.1 285.9 114.1 331.9C113.2 333.9 114 336.3 116 337.2C116.7 337.5 117.5 337.7 118.3 337.5C127.5 336 140.3 337.5 146.9 337.2C156.2 336.8 153.4 332.5 162.6 333.9C191.1 338.5 220.1 339.1 248.7 335.6C252.4 335.2 256.1 334.4 259.6 333.2V333.3C260.8 335.5 262.9 334.3 265 335.6C267.4 336.9 270.3 333.2 273 333.2C313.3 333.6 352.9 336 393.2 336.4C404.4 336.8 436.9 344.6 434 325.7Z" fill="#BCD6FF"/>
<path d="M292.5 295.5C292.5 295.5 243.9 227.7 244.4 222.3C244.9 216.9 255.5 151.9 247.3 146.8C240.1 142.4 226.4 156.3 223.1 170.7C219.8 185.1 220.3 193.3 210.1 194.9C199.9 196.5 195.1 196.5 191.9 184.2C188.7 171.9 180.1 136.5 176.4 139.2C172.7 141.9 166.8 168.1 167.3 173.5C167.8 178.9 175.3 215.3 169.4 223.3C163.5 231.3 159.8 230.8 161.4 242.6C162.9 254.1 163.5 265.6 163 277.2C162.9 281.6 162.2 286 161 290.3C157.8 300 141.6 320.2 144.9 327.7C148.2 335.2 165.1 349.1 174.3 351.4C180.9 353 195.2 349.8 199.5 341.8C203.8 333.8 206.5 312.3 209.7 310.7C212.9 309.1 226.3 336.6 226.3 336.6L276.4 335.1L292.5 295.5Z" fill="white" stroke="#FFEBF7" stroke-width="3" stroke-miterlimit="10"/>
<path d="M162.6 282.6C162.6 282.6 190.4 271.8 201.5 286.3C210.2 297.7 209.5 312 209.5 312" stroke="#FFEBF7" stroke-width="3" stroke-miterlimit="10"/>
<path d="M244.5 222.3C244.5 241.8 220.7 291.3 208.1 296.8" stroke="#FFEBF7" stroke-width="3" stroke-miterlimit="10"/>
<path d="M237.7 275.2C237.7 275.2 233.5 294.5 217 304.5C215.3 305.5 209.1 305.8 209.1 305.8" stroke="#FFEBF7" stroke-width="3" stroke-miterlimit="10" stroke-linecap="round"/>
<path d="M224.3 229.9C224.3 229.9 211.5 229.4 208.9 236.5C206.3 243.6 219.8 238.9 222 236.5C223 235.5 224.3 229.9 224.3 229.9Z" fill="#FFEBF7"/>
<path d="M172.8 326.3C172.8 326.3 180.6 328.7 181.1 326.3C181.6 323.9 182.7 315.7 180.2 314.9C178.1 314.2 172.1 321.1 172.9 322.2C173.7 323.3 172.8 326.3 172.8 326.3Z" fill="#FFEBF7"/>
<path d="M208.6 184C208.6 184 185.4 188.4 183.6 193.8C181.8 199.2 182.5 206.3 181.7 207.6C180.9 208.9 186.4 206.6 186.4 206.6C186.4 206.6 182.9 214.7 183.6 215.7C184.3 216.7 193.4 207.7 193.4 207.7C193.4 207.7 194.3 214.2 195.1 215.8C195.9 217.4 201.8 211.2 207.5 204.2C213.2 197.2 219.5 192.9 216.5 189.4C214.3 187 211.6 185.2 208.6 184Z" fill="#FFEBF7"/>
<path d="M172.065 383C170.485 383 169.075 382.66 167.835 381.98C166.595 381.3 165.615 380.39 164.895 379.25C164.175 378.09 163.815 376.79 163.815 375.35C163.815 373.91 164.175 372.62 164.895 371.48C165.615 370.32 166.595 369.4 167.835 368.72C169.075 368.04 170.485 367.7 172.065 367.7H173.865V370.07H171.975C170.955 370.07 170.035 370.31 169.215 370.79C168.415 371.25 167.775 371.88 167.295 372.68C166.835 373.48 166.605 374.37 166.605 375.35C166.605 376.33 166.835 377.22 167.295 378.02C167.775 378.82 168.415 379.46 169.215 379.94C170.035 380.4 170.955 380.63 171.975 380.63H173.865V383H172.065ZM183.378 383.36C181.878 383.36 180.588 383.01 179.508 382.31C178.448 381.59 177.628 380.63 177.048 379.43C176.468 378.21 176.178 376.85 176.178 375.35C176.178 373.85 176.498 372.5 177.138 371.3C177.778 370.08 178.698 369.12 179.898 368.42C181.098 367.7 182.538 367.34 184.218 367.34C185.818 367.34 187.198 367.69 188.358 368.39C189.538 369.09 190.438 370.04 191.058 371.24C191.698 372.44 192.018 373.78 192.018 375.26V383H189.228V379.88H189.168C188.868 380.44 188.458 380.99 187.938 381.53C187.418 382.07 186.778 382.51 186.018 382.85C185.278 383.19 184.398 383.36 183.378 383.36ZM184.098 380.99C185.098 380.99 185.978 380.74 186.738 380.24C187.518 379.74 188.118 379.06 188.538 378.2C188.978 377.34 189.198 376.37 189.198 375.29C189.198 374.23 188.988 373.28 188.568 372.44C188.168 371.6 187.588 370.94 186.828 370.46C186.068 369.96 185.178 369.71 184.158 369.71C183.078 369.71 182.148 369.96 181.368 370.46C180.608 370.96 180.018 371.64 179.598 372.5C179.198 373.36 178.998 374.32 178.998 375.38C178.998 376.42 179.198 377.37 179.598 378.23C179.998 379.07 180.578 379.74 181.338 380.24C182.098 380.74 183.018 380.99 184.098 380.99ZM201.633 383C200.273 383 199.203 382.61 198.423 381.83C197.663 381.05 197.283 379.99 197.283 378.65V370.07H194.643V367.7H197.283V363.86H200.043V367.7H205.293V370.07H200.043V378.47C200.043 379.13 200.223 379.66 200.583 380.06C200.963 380.44 201.483 380.63 202.143 380.63H205.233V383H201.633ZM214.521 383.36C213.021 383.36 211.731 383.01 210.651 382.31C209.591 381.59 208.771 380.63 208.191 379.43C207.611 378.21 207.321 376.85 207.321 375.35C207.321 373.85 207.641 372.5 208.281 371.3C208.921 370.08 209.841 369.12 211.041 368.42C212.241 367.7 213.681 367.34 215.361 367.34C216.961 367.34 218.341 367.69 219.501 368.39C220.681 369.09 221.581 370.04 222.201 371.24C222.841 372.44 223.161 373.78 223.161 375.26V383H220.371V379.88H220.311C220.011 380.44 219.601 380.99 219.081 381.53C218.561 382.07 217.921 382.51 217.161 382.85C216.421 383.19 215.541 383.36 214.521 383.36ZM215.241 380.99C216.241 380.99 217.121 380.74 217.881 380.24C218.661 379.74 219.261 379.06 219.681 378.2C220.121 377.34 220.341 376.37 220.341 375.29C220.341 374.23 220.131 373.28 219.711 372.44C219.311 371.6 218.731 370.94 217.971 370.46C217.211 369.96 216.321 369.71 215.301 369.71C214.221 369.71 213.291 369.96 212.511 370.46C211.751 370.96 211.161 371.64 210.741 372.5C210.341 373.36 210.141 374.32 210.141 375.38C210.141 376.42 210.341 377.37 210.741 378.23C211.141 379.07 211.721 379.74 212.481 380.24C213.241 380.74 214.161 380.99 215.241 380.99ZM234.605 383.36C236.085 383.36 237.415 383.04 238.595 382.4C239.775 381.76 240.705 380.84 241.385 379.64C242.085 378.42 242.435 376.96 242.435 375.26V361.1H239.675V370.43H239.615C239.115 369.51 238.375 368.77 237.395 368.21C236.415 367.63 235.335 367.34 234.155 367.34C232.755 367.34 231.485 367.66 230.345 368.3C229.225 368.94 228.335 369.85 227.675 371.03C227.035 372.19 226.715 373.57 226.715 375.17C226.715 376.85 227.045 378.31 227.705 379.55C228.385 380.77 229.315 381.71 230.495 382.37C231.695 383.03 233.065 383.36 234.605 383.36ZM234.605 380.99C233.665 380.99 232.805 380.76 232.025 380.3C231.265 379.84 230.655 379.19 230.195 378.35C229.735 377.51 229.505 376.51 229.505 375.35C229.505 374.23 229.725 373.25 230.165 372.41C230.625 371.57 231.235 370.91 231.995 370.43C232.775 369.95 233.635 369.71 234.575 369.71C235.515 369.71 236.365 369.94 237.125 370.4C237.905 370.86 238.515 371.52 238.955 372.38C239.415 373.22 239.645 374.22 239.645 375.38C239.645 376.52 239.415 377.51 238.955 378.35C238.515 379.19 237.915 379.84 237.155 380.3C236.395 380.76 235.545 380.99 234.605 380.99ZM253.915 383.36C252.355 383.36 250.965 383.01 249.745 382.31C248.545 381.59 247.595 380.63 246.895 379.43C246.215 378.21 245.875 376.85 245.875 375.35C245.875 373.85 246.215 372.5 246.895 371.3C247.595 370.08 248.545 369.12 249.745 368.42C250.965 367.7 252.355 367.34 253.915 367.34C255.475 367.34 256.855 367.7 258.055 368.42C259.275 369.12 260.225 370.08 260.905 371.3C261.605 372.5 261.955 373.85 261.955 375.35C261.955 376.85 261.605 378.21 260.905 379.43C260.225 380.63 259.275 381.59 258.055 382.31C256.855 383.01 255.475 383.36 253.915 383.36ZM253.915 380.99C254.975 380.99 255.895 380.74 256.675 380.24C257.455 379.74 258.065 379.07 258.505 378.23C258.945 377.37 259.165 376.41 259.165 375.35C259.165 374.29 258.945 373.34 258.505 372.5C258.065 371.64 257.455 370.96 256.675 370.46C255.895 369.96 254.975 369.71 253.915 369.71C252.875 369.71 251.955 369.96 251.155 370.46C250.375 370.96 249.765 371.64 249.325 372.5C248.885 373.34 248.665 374.29 248.665 375.35C248.665 376.41 248.885 377.37 249.325 378.23C249.765 379.07 250.375 379.74 251.155 380.24C251.955 380.74 252.875 380.99 253.915 380.99ZM265.405 383V372.05C265.405 370.69 265.785 369.63 266.545 368.87C267.325 368.09 268.395 367.7 269.755 367.7H272.905V370.07H270.265C269.585 370.07 269.065 370.27 268.705 370.67C268.345 371.05 268.165 371.57 268.165 372.23V383H265.405ZM290.445 383.36C291.925 383.36 293.255 383.04 294.435 382.4C295.615 381.76 296.545 380.84 297.225 379.64C297.925 378.42 298.275 376.96 298.275 375.26V361.1H295.515V370.43H295.455C294.955 369.51 294.215 368.77 293.235 368.21C292.255 367.63 291.175 367.34 289.995 367.34C288.595 367.34 287.325 367.66 286.185 368.3C285.065 368.94 284.175 369.85 283.515 371.03C282.875 372.19 282.555 373.57 282.555 375.17C282.555 376.85 282.885 378.31 283.545 379.55C284.225 380.77 285.155 381.71 286.335 382.37C287.535 383.03 288.905 383.36 290.445 383.36ZM290.445 380.99C289.505 380.99 288.645 380.76 287.865 380.3C287.105 379.84 286.495 379.19 286.035 378.35C285.575 377.51 285.345 376.51 285.345 375.35C285.345 374.23 285.565 373.25 286.005 372.41C286.465 371.57 287.075 370.91 287.835 370.43C288.615 369.95 289.475 369.71 290.415 369.71C291.355 369.71 292.205 369.94 292.965 370.4C293.745 370.86 294.355 371.52 294.795 372.38C295.255 373.22 295.485 374.22 295.485 375.38C295.485 376.52 295.255 377.51 294.795 378.35C294.355 379.19 293.755 379.84 292.995 380.3C292.235 380.76 291.385 380.99 290.445 380.99ZM310.325 383C308.625 383 307.125 382.69 305.825 382.07C304.545 381.43 303.535 380.54 302.795 379.4C302.075 378.24 301.715 376.89 301.715 375.35C301.715 373.83 302.025 372.47 302.645 371.27C303.265 370.05 304.125 369.09 305.225 368.39C306.325 367.69 307.605 367.34 309.065 367.34C310.645 367.34 311.955 367.68 312.995 368.36C314.055 369.04 314.845 369.96 315.365 371.12C315.885 372.26 316.145 373.54 316.145 374.96C316.145 375.44 316.115 375.88 316.055 376.28H304.655C304.755 377.22 305.065 378.02 305.585 378.68C306.105 379.32 306.765 379.81 307.565 380.15C308.385 380.47 309.285 380.63 310.265 380.63H314.255V383H310.325ZM304.625 374.33H313.355C313.355 373.67 313.225 372.98 312.965 372.26C312.705 371.54 312.265 370.93 311.645 370.43C311.025 369.91 310.165 369.65 309.065 369.65C308.145 369.65 307.355 369.89 306.695 370.37C306.055 370.83 305.555 371.42 305.195 372.14C304.855 372.84 304.665 373.57 304.625 374.33ZM335.014 383C333.434 383 332.024 382.66 330.784 381.98C329.544 381.3 328.564 380.39 327.844 379.25C327.124 378.09 326.764 376.79 326.764 375.35C326.764 373.91 327.124 372.62 327.844 371.48C328.564 370.32 329.544 369.4 330.784 368.72C332.024 368.04 333.434 367.7 335.014 367.7H336.814V370.07H334.924C333.904 370.07 332.984 370.31 332.164 370.79C331.364 371.25 330.724 371.88 330.244 372.68C329.784 373.48 329.554 374.37 329.554 375.35C329.554 376.33 329.784 377.22 330.244 378.02C330.724 378.82 331.364 379.46 332.164 379.94C332.984 380.4 333.904 380.63 334.924 380.63H336.814V383H335.014ZM346.327 383.36C344.827 383.36 343.537 383.01 342.457 382.31C341.397 381.59 340.577 380.63 339.997 379.43C339.417 378.21 339.127 376.85 339.127 375.35C339.127 373.85 339.447 372.5 340.087 371.3C340.727 370.08 341.647 369.12 342.847 368.42C344.047 367.7 345.487 367.34 347.167 367.34C348.767 367.34 350.147 367.69 351.307 368.39C352.487 369.09 353.387 370.04 354.007 371.24C354.647 372.44 354.967 373.78 354.967 375.26V383H352.177V379.88H352.117C351.817 380.44 351.407 380.99 350.887 381.53C350.367 382.07 349.727 382.51 348.967 382.85C348.227 383.19 347.347 383.36 346.327 383.36ZM347.047 380.99C348.047 380.99 348.927 380.74 349.687 380.24C350.467 379.74 351.067 379.06 351.487 378.2C351.927 377.34 352.147 376.37 352.147 375.29C352.147 374.23 351.937 373.28 351.517 372.44C351.117 371.6 350.537 370.94 349.777 370.46C349.017 369.96 348.127 369.71 347.107 369.71C346.027 369.71 345.097 369.96 344.317 370.46C343.557 370.96 342.967 371.64 342.547 372.5C342.147 373.36 341.947 374.32 341.947 375.38C341.947 376.42 342.147 377.37 342.547 378.23C342.947 379.07 343.527 379.74 344.287 380.24C345.047 380.74 345.967 380.99 347.047 380.99ZM360.262 383V370.07H357.592V367.7H360.262V365.45C360.262 364.09 360.642 363.03 361.402 362.27C362.182 361.49 363.252 361.1 364.612 361.1H368.392V363.47H365.152C364.472 363.47 363.952 363.67 363.592 364.07C363.232 364.45 363.052 364.97 363.052 365.63V367.7H367.792V370.07H363.052V383H360.262ZM377.386 383C375.686 383 374.186 382.69 372.886 382.07C371.606 381.43 370.596 380.54 369.856 379.4C369.136 378.24 368.776 376.89 368.776 375.35C368.776 373.83 369.086 372.47 369.706 371.27C370.326 370.05 371.186 369.09 372.286 368.39C373.386 367.69 374.666 367.34 376.126 367.34C377.706 367.34 379.016 367.68 380.056 368.36C381.116 369.04 381.906 369.96 382.426 371.12C382.946 372.26 383.206 373.54 383.206 374.96C383.206 375.44 383.176 375.88 383.116 376.28H371.716C371.816 377.22 372.126 378.02 372.646 378.68C373.166 379.32 373.826 379.81 374.626 380.15C375.446 380.47 376.346 380.63 377.326 380.63H381.316V383H377.386ZM371.686 374.33H380.416C380.416 373.67 380.286 372.98 380.026 372.26C379.766 371.54 379.326 370.93 378.706 370.43C378.086 369.91 377.226 369.65 376.126 369.65C375.206 369.65 374.416 369.89 373.756 370.37C373.116 370.83 372.616 371.42 372.256 372.14C371.916 372.84 371.726 373.57 371.686 374.33ZM375.046 365.69L377.806 362H380.476L377.716 365.69H375.046ZM209.36 413C207.78 413 206.37 412.66 205.13 411.98C203.89 411.3 202.91 410.39 202.19 409.25C201.47 408.09 201.11 406.79 201.11 405.35C201.11 403.91 201.47 402.62 202.19 401.48C202.91 400.32 203.89 399.4 205.13 398.72C206.37 398.04 207.78 397.7 209.36 397.7H211.16V400.07H209.27C208.25 400.07 207.33 400.31 206.51 400.79C205.71 401.25 205.07 401.88 204.59 402.68C204.13 403.48 203.9 404.37 203.9 405.35C203.9 406.33 204.13 407.22 204.59 408.02C205.07 408.82 205.71 409.46 206.51 409.94C207.33 410.4 208.25 410.63 209.27 410.63H211.16V413H209.36ZM222.083 413C220.383 413 218.883 412.69 217.583 412.07C216.303 411.43 215.293 410.54 214.553 409.4C213.833 408.24 213.473 406.89 213.473 405.35C213.473 403.83 213.783 402.47 214.403 401.27C215.023 400.05 215.883 399.09 216.983 398.39C218.083 397.69 219.363 397.34 220.823 397.34C222.403 397.34 223.713 397.68 224.753 398.36C225.813 399.04 226.603 399.96 227.123 401.12C227.643 402.26 227.903 403.54 227.903 404.96C227.903 405.44 227.873 405.88 227.813 406.28H216.413C216.513 407.22 216.823 408.02 217.343 408.68C217.863 409.32 218.523 409.81 219.323 410.15C220.143 410.47 221.043 410.63 222.023 410.63H226.013V413H222.083ZM216.383 404.33H225.113C225.113 403.67 224.983 402.98 224.723 402.26C224.463 401.54 224.023 400.93 223.403 400.43C222.783 399.91 221.923 399.65 220.823 399.65C219.903 399.65 219.113 399.89 218.453 400.37C217.813 400.83 217.313 401.42 216.953 402.14C216.613 402.84 216.423 403.57 216.383 404.33ZM231.332 413V402.05C231.332 400.69 231.712 399.63 232.472 398.87C233.252 398.09 234.322 397.7 235.682 397.7H238.832V400.07H236.192C235.512 400.07 234.992 400.27 234.632 400.67C234.272 401.05 234.092 401.57 234.092 402.23V413H231.332ZM247.189 413C245.829 413 244.759 412.61 243.979 411.83C243.219 411.05 242.839 409.99 242.839 408.65V400.07H240.199V397.7H242.839V393.86H245.599V397.7H250.849V400.07H245.599V408.47C245.599 409.13 245.779 409.66 246.139 410.06C246.519 410.44 247.039 410.63 247.699 410.63H250.789V413H247.189ZM254.186 413V397.7H256.976V413H254.186ZM255.596 395.27C255.076 395.27 254.636 395.09 254.276 394.73C253.916 394.35 253.736 393.91 253.736 393.41C253.736 392.91 253.916 392.48 254.276 392.12C254.636 391.74 255.076 391.55 255.596 391.55C256.096 391.55 256.526 391.74 256.886 392.12C257.266 392.48 257.456 392.91 257.456 393.41C257.456 393.91 257.266 394.35 256.886 394.73C256.526 395.09 256.096 395.27 255.596 395.27ZM262.235 413V400.07H259.565V397.7H262.235V395.45C262.235 394.09 262.615 393.03 263.375 392.27C264.155 391.49 265.225 391.1 266.585 391.1H269.885V393.47H267.125C266.445 393.47 265.925 393.66 265.565 394.04C265.205 394.42 265.025 394.95 265.025 395.63V397.7H275.345V413H272.585V400.07H265.025V413H262.235ZM273.965 395.21C273.465 395.21 273.025 395.03 272.645 394.67C272.285 394.31 272.105 393.87 272.105 393.35C272.105 392.85 272.285 392.42 272.645 392.06C273.025 391.68 273.465 391.49 273.965 391.49C274.485 391.49 274.925 391.68 275.285 392.06C275.645 392.42 275.825 392.85 275.825 393.35C275.825 393.87 275.645 394.31 275.285 394.67C274.925 395.03 274.485 395.21 273.965 395.21ZM287.143 413C285.563 413 284.153 412.66 282.913 411.98C281.673 411.3 280.693 410.39 279.973 409.25C279.253 408.09 278.893 406.79 278.893 405.35C278.893 403.91 279.253 402.62 279.973 401.48C280.693 400.32 281.673 399.4 282.913 398.72C284.153 398.04 285.563 397.7 287.143 397.7H288.943V400.07H287.053C286.033 400.07 285.113 400.31 284.293 400.79C283.493 401.25 282.853 401.88 282.373 402.68C281.913 403.48 281.683 404.37 281.683 405.35C281.683 406.33 281.913 407.22 282.373 408.02C282.853 408.82 283.493 409.46 284.293 409.94C285.113 410.4 286.033 410.63 287.053 410.63H288.943V413H287.143ZM298.456 413.36C296.956 413.36 295.666 413.01 294.586 412.31C293.526 411.59 292.706 410.63 292.126 409.43C291.546 408.21 291.256 406.85 291.256 405.35C291.256 403.85 291.576 402.5 292.216 401.3C292.856 400.08 293.776 399.12 294.976 398.42C296.176 397.7 297.616 397.34 299.296 397.34C300.896 397.34 302.276 397.69 303.436 398.39C304.616 399.09 305.516 400.04 306.136 401.24C306.776 402.44 307.096 403.78 307.096 405.26V413H304.306V409.88H304.246C303.946 410.44 303.536 410.99 303.016 411.53C302.496 412.07 301.856 412.51 301.096 412.85C300.356 413.19 299.476 413.36 298.456 413.36ZM299.176 410.99C300.176 410.99 301.056 410.74 301.816 410.24C302.596 409.74 303.196 409.06 303.616 408.2C304.056 407.34 304.276 406.37 304.276 405.29C304.276 404.23 304.066 403.28 303.646 402.44C303.246 401.6 302.666 400.94 301.906 400.46C301.146 399.96 300.256 399.71 299.236 399.71C298.156 399.71 297.226 399.96 296.446 400.46C295.686 400.96 295.096 401.64 294.676 402.5C294.276 403.36 294.076 404.32 294.076 405.38C294.076 406.42 294.276 407.37 294.676 408.23C295.076 409.07 295.656 409.74 296.416 410.24C297.176 410.74 298.096 410.99 299.176 410.99ZM318.541 413.36C320.021 413.36 321.351 413.04 322.531 412.4C323.711 411.76 324.641 410.84 325.321 409.64C326.021 408.42 326.371 406.96 326.371 405.26V391.1H323.611V400.43H323.551C323.051 399.51 322.311 398.77 321.331 398.21C320.351 397.63 319.271 397.34 318.091 397.34C316.691 397.34 315.421 397.66 314.281 398.3C313.161 398.94 312.271 399.85 311.611 401.03C310.971 402.19 310.651 403.57 310.651 405.17C310.651 406.85 310.981 408.31 311.641 409.55C312.321 410.77 313.251 411.71 314.431 412.37C315.631 413.03 317.001 413.36 318.541 413.36ZM318.541 410.99C317.601 410.99 316.741 410.76 315.961 410.3C315.201 409.84 314.591 409.19 314.131 408.35C313.671 407.51 313.441 406.51 313.441 405.35C313.441 404.23 313.661 403.25 314.101 402.41C314.561 401.57 315.171 400.91 315.931 400.43C316.711 399.95 317.571 399.71 318.511 399.71C319.451 399.71 320.301 399.94 321.061 400.4C321.841 400.86 322.451 401.52 322.891 402.38C323.351 403.22 323.581 404.22 323.581 405.38C323.581 406.52 323.351 407.51 322.891 408.35C322.451 409.19 321.851 409.84 321.091 410.3C320.331 410.76 319.481 410.99 318.541 410.99ZM337.851 413.36C336.291 413.36 334.901 413.01 333.681 412.31C332.481 411.59 331.531 410.63 330.831 409.43C330.151 408.21 329.811 406.85 329.811 405.35C329.811 403.85 330.151 402.5 330.831 401.3C331.531 400.08 332.481 399.12 333.681 398.42C334.901 397.7 336.291 397.34 337.851 397.34C339.411 397.34 340.791 397.7 341.991 398.42C343.211 399.12 344.161 400.08 344.841 401.3C345.541 402.5 345.891 403.85 345.891 405.35C345.891 406.85 345.541 408.21 344.841 409.43C344.161 410.63 343.211 411.59 341.991 412.31C340.791 413.01 339.411 413.36 337.851 413.36ZM337.851 410.99C338.911 410.99 339.831 410.74 340.611 410.24C341.391 409.74 342.001 409.07 342.441 408.23C342.881 407.37 343.101 406.41 343.101 405.35C343.101 404.29 342.881 403.34 342.441 402.5C342.001 401.64 341.391 400.96 340.611 400.46C339.831 399.96 338.911 399.71 337.851 399.71C336.811 399.71 335.891 399.96 335.091 400.46C334.311 400.96 333.701 401.64 333.261 402.5C332.821 403.34 332.601 404.29 332.601 405.35C332.601 406.41 332.821 407.37 333.261 408.23C333.701 409.07 334.311 409.74 335.091 410.24C335.891 410.74 336.811 410.99 337.851 410.99Z" fill="#20253A"/>
<path d="M309.454 148.061L340.361 152.066C344.366 152.579 347.138 156.173 346.625 160.178L345.495 169.111C344.982 173.115 341.388 175.888 337.383 175.374L306.476 171.37C302.472 170.856 299.699 167.263 300.213 163.258L301.342 154.325C301.753 150.32 305.449 147.548 309.454 148.061Z" fill="#20253A"/>
<path d="M377.218 201.235C379.196 181.77 353.494 163.215 319.811 159.793C286.128 156.37 257.219 169.375 255.241 188.84C253.263 208.305 278.965 226.859 312.648 230.282C346.331 233.704 375.24 220.7 377.218 201.235Z" fill="#20253A"/>
<path fill-rule="evenodd" clip-rule="evenodd" d="M308.531 261.69H328.366C328.366 261.69 328.366 281.661 331.971 291.201C333.48 291.329 335.271 291.592 337.522 292.052C346.586 293.906 357.249 298.335 357.977 299.271C355.698 302.69 350.853 307.233 345.091 312.638C341.911 315.62 338.452 318.864 334.99 322.326C324.973 332.343 313.899 330.312 305.421 328.756C303.598 328.422 301.894 328.109 300.347 327.944C291.608 327.007 285.627 307.088 287.812 300.222C290.198 292.723 297.317 291.266 304.526 291.309C308.531 279.554 308.531 261.69 308.531 261.69Z" fill="white"/>
<path fill-rule="evenodd" clip-rule="evenodd" d="M297.951 279.453L338.463 276C338.463 276 334.597 286.313 338.5 295C342.145 295.036 337.44 295.631 341.332 295.421C350.182 299.103 356.204 299.758 354.796 301.861C351.378 306.968 341.995 315.19 332.585 324.564C322.905 334.207 312.203 332.251 304.011 330.754C302.248 330.432 300.602 330.132 299.107 329.972C290.662 329.071 282.217 309.843 284.328 303.233C286.729 295.718 291.075 292.825 299.107 293C302.975 281.683 297.951 279.453 297.951 279.453Z" fill="white"/>
<path d="M358.96 225.329C363.183 203.537 346.49 183.299 324.292 183.299H313.331C291.505 183.299 274.905 202.902 278.501 224.43L283.763 255.933C285.658 267.275 293.044 277.152 304.406 278.924C308.442 279.554 313.063 279.984 318.155 279.984C323.486 279.984 328.301 279.512 332.468 278.834C343.5 277.039 350.778 267.556 352.904 256.583L358.96 225.329Z" fill="white"/>
<path d="M351.058 230.278C351.058 235.132 354.179 239.067 358.029 239.067C361.879 239.067 365 235.132 365 230.278C365 225.424 361.879 221.488 358.029 221.488C354.179 221.488 351.058 225.424 351.058 230.278Z" fill="white"/>
<path fill-rule="evenodd" clip-rule="evenodd" d="M342.36 228.766C342.759 228.687 343.018 228.3 342.939 227.902C342.456 225.454 340.288 224.06 337.924 223.766C335.547 223.471 332.795 224.242 330.819 226.286C330.537 226.578 330.545 227.043 330.837 227.326C331.129 227.608 331.595 227.6 331.877 227.308C333.506 225.623 335.787 224.983 337.742 225.227C339.711 225.471 341.176 226.566 341.496 228.187C341.575 228.585 341.962 228.845 342.36 228.766Z" fill="#4583FE"/>
<path fill-rule="evenodd" clip-rule="evenodd" d="M303.012 228.462C303.41 228.384 303.669 227.997 303.591 227.598C303.107 225.15 300.94 223.757 298.575 223.463C296.198 223.167 293.446 223.938 291.47 225.982C291.188 226.274 291.196 226.74 291.488 227.022C291.78 227.305 292.246 227.297 292.528 227.005C294.157 225.32 296.438 224.68 298.394 224.923C300.362 225.168 301.827 226.262 302.147 227.883C302.226 228.282 302.613 228.541 303.012 228.462Z" fill="#4583FE"/>
<path fill-rule="evenodd" clip-rule="evenodd" d="M328.354 233.781C326.168 232.264 324.835 230.072 324.697 227.005C324.646 225.861 324.537 224.822 324.438 223.929C324.427 223.825 324.415 223.724 324.404 223.626C324.317 222.844 324.249 222.23 324.219 221.667C324.153 220.41 324.337 220.116 324.459 219.966C324.67 219.704 325.388 219.097 327.798 218.464C330.122 217.855 333.577 217.329 338.7 216.854C344.061 216.86 347.408 217.23 349.459 217.79C351.468 218.338 351.691 218.909 351.707 218.949C351.707 218.95 351.707 218.951 351.707 218.951C351.822 219.217 351.876 219.786 351.561 221.438C351.518 221.665 351.468 221.913 351.414 222.178C351.142 223.518 350.777 225.311 350.777 227.137C350.777 229.881 349.66 232.061 347.669 233.624C345.615 235.237 342.451 236.318 338.29 236.318C334.038 236.318 330.641 235.367 328.354 233.781ZM338.565 213.911C356.083 213.911 355.329 217.651 354.281 222.852C354.011 224.196 353.72 225.637 353.72 227.137C353.72 234.442 347.573 239.261 338.29 239.261C329.007 239.261 322.116 235.136 321.757 227.137C321.705 225.973 321.587 224.914 321.479 223.948C320.815 217.989 320.545 215.571 338.565 213.911Z" fill="#FFEBF7"/>
<path fill-rule="evenodd" clip-rule="evenodd" d="M304.746 233.78C306.932 232.264 308.266 230.072 308.403 227.005C308.454 225.86 308.563 224.821 308.662 223.929C308.674 223.825 308.685 223.724 308.696 223.626C308.783 222.844 308.851 222.229 308.881 221.667C308.947 220.41 308.763 220.116 308.642 219.966C308.43 219.704 307.712 219.096 305.302 218.464C302.978 217.855 299.523 217.329 294.4 216.854C289.039 216.86 285.692 217.23 283.641 217.789C281.632 218.337 281.409 218.908 281.393 218.949C281.393 218.95 281.393 218.951 281.393 218.951C281.278 219.217 281.224 219.786 281.539 221.438C281.582 221.665 281.632 221.912 281.686 222.178C281.958 223.518 282.323 225.311 282.323 227.137C282.323 229.881 283.44 232.06 285.431 233.624C287.485 235.236 290.649 236.318 294.81 236.318C299.062 236.318 302.459 235.367 304.746 233.78ZM294.535 213.911C277.017 213.911 277.771 217.65 278.819 222.852C279.089 224.196 279.38 225.637 279.38 227.137C279.38 234.442 285.527 239.261 294.81 239.261C304.093 239.261 310.984 235.135 311.343 227.137C311.395 225.973 311.513 224.914 311.621 223.948C312.285 217.989 312.555 215.571 294.535 213.911Z" fill="#FFEBF7"/>
<path fill-rule="evenodd" clip-rule="evenodd" d="M310.66 228.095C311.473 228.095 312.132 227.436 312.132 226.624C312.132 224.22 314.08 222.271 316.484 222.271C318.888 222.271 320.837 224.22 320.837 226.624C320.837 227.436 321.496 228.095 322.308 228.095C323.121 228.095 323.78 227.436 323.78 226.624C323.78 222.594 320.513 219.328 316.484 219.328C312.455 219.328 309.189 222.594 309.189 226.624C309.189 227.436 309.848 228.095 310.66 228.095Z" fill="#FFEBF7"/>
<path d="M305.274 211.486C306.082 208.758 318.004 194.513 334.977 194.513C354.511 194.513 342.406 193.094 351.04 196.332C355.89 198.15 357.708 229.065 357.708 227.853C357.708 227.853 361.648 216.336 361.648 209.668C361.648 204.333 351.343 187.037 346.191 179.056L318.004 181.48L292.544 188.451C289.21 192.897 280.908 203.007 278.602 209.668C274.511 221.488 275.571 215.729 279.511 212.698C283.452 209.668 292.544 198.15 292.544 201.787C292.544 204.697 290.726 207.546 287.998 211.486C294.06 208.455 298.606 199.666 305.274 199.666C311.942 199.666 302.849 206.182 305.274 211.486Z" fill="#4583FE"/>
<path d="M328.226 277.282C336.898 277.882 342.711 271.328 348.391 267.854C347.853 269.347 345.778 271.989 343.622 274.228C336.073 282.065 328.345 283.925 317.497 283.916C308.313 283.908 301.846 281.186 294.992 276.94C288.137 272.695 287.879 267.232 289.741 269.178C291.602 271.125 296.601 274.818 301.906 275.405C307.198 275.991 309.803 271.69 315.11 272.008C320.604 272.337 322.719 276.9 328.226 277.282Z" fill="#4583FE"/>
<path d="M311.154 266.951C311.154 268.123 312.647 269.073 314.488 269.073C316.33 269.073 317.822 268.123 317.822 266.951C317.822 265.78 316.33 264.83 314.488 264.83C312.647 264.83 311.154 265.78 311.154 266.951Z" fill="#4583FE"/>
<path fill-rule="evenodd" clip-rule="evenodd" d="M315.252 226.343C314.846 226.343 314.516 226.673 314.516 227.079C314.516 232.804 312.776 239.466 309.938 243.582C309.114 244.777 308.857 245.961 309.15 247.026C309.439 248.077 310.224 248.862 311.176 249.357C313.058 250.336 315.846 250.324 318.014 248.879C318.352 248.653 318.444 248.197 318.218 247.859C317.993 247.521 317.536 247.429 317.198 247.655C315.483 248.798 313.268 248.786 311.854 248.051C311.158 247.689 310.721 247.189 310.569 246.635C310.42 246.095 310.502 245.356 311.149 244.417C314.196 239.999 315.988 233.025 315.988 227.079C315.988 226.673 315.658 226.343 315.252 226.343Z" fill="#4583FE"/>
<path d="M357.922 235.466C357.922 236.197 358.515 236.79 359.246 236.79C359.977 236.79 360.57 236.197 360.57 235.466C360.57 234.734 359.977 234.141 359.246 234.141C358.515 234.141 357.922 234.734 357.922 235.466Z" fill="#20253A"/>
<path d="M279.587 206.189C292.617 190.276 357.669 189.145 362.5 219.5C363.406 224.999 369.491 198.771 369.491 198.771L352 179.5L337.416 173.244L310.197 170.554L290.763 173.927L279.473 183.957L277.098 210.476C277.852 208.983 278.606 207.491 279.587 206.189Z" fill="#20253A"/>
<path d="M278.034 300.933C285.182 298.736 291.159 293.064 298.515 291.897C301.014 297.596 306.14 301.138 312.247 302.58C318.355 304.022 324.739 303.267 330.846 301.756C332.72 301.276 334.594 300.727 335.982 299.491C338.341 297.294 339.327 295.513 337.522 292.904C347.099 295.101 355.552 296.882 364.713 300.452L364.713 300.452C367.489 301.55 370.265 302.649 372.555 304.503C374.429 306.15 376.025 308.073 377.205 310.27C379.773 314.595 381.299 319.469 381.855 324.481C382.202 327.708 381.438 331.621 378.385 332.582C377.76 332.72 377.066 332.857 376.442 333.063C374.984 333.75 374.429 335.466 374.36 337.045C374.29 338.624 373.527 331.965 372.555 333.2C369.293 337.182 365.546 335.741 362.215 336.77C351.041 340.34 401.659 346.696 390 348C340.692 345.856 291.837 338 242.5 338C241.785 337.075 246.173 328.582 247.151 327.227L256.173 314.732C259.435 310.201 262.974 305.395 268.248 303.335C271.371 302.1 274.841 301.962 278.034 300.933Z" fill="#20253A"/>
<path d="M336.745 291.184L337.023 291.252L336.953 291.184H336.745Z" fill="#F6E2AF"/>
<path d="M336.051 299.491C335.912 299.628 335.774 299.766 335.565 299.834H363.047C359.924 298.598 356.802 297.431 353.679 296.264H337.925C337.647 297.569 336.953 298.667 336.051 299.491Z" fill="white"/>
<path fill-rule="evenodd" clip-rule="evenodd" d="M298.516 291.659C294.49 292.277 290.525 294.136 287.055 296.333H287.055C285.043 297.637 282.961 298.804 280.81 299.903H305.724C304.128 298.873 302.601 297.706 301.352 296.333H301.351C299.971 294.899 299.355 293.528 298.529 291.69L298.529 291.69L298.529 291.69L298.529 291.69L298.529 291.69L298.529 291.69L298.516 291.659ZM336.809 291.728C337.78 293.127 338.127 294.844 337.711 296.433H338.268C337.911 296.72 337.509 297.049 337.08 297.4C334.9 299.183 332.035 301.526 330.916 301.757C324.809 303.267 318.424 304.022 312.317 302.58C310.027 302.031 307.806 301.139 305.793 299.903H280.879L280.879 299.903C279.977 300.315 279.075 300.727 278.103 301.001C276.673 301.463 275.187 301.745 273.701 302.027C271.871 302.375 270.042 302.722 268.318 303.404C266.336 304.216 264.556 305.36 262.978 306.837H262.766C261.586 307.936 260.476 309.103 259.435 310.407H259.505C258.325 311.849 257.215 313.359 256.174 314.801C255.861 315.247 255.549 315.676 255.237 316.105C254.94 316.512 254.644 316.92 254.348 317.341H254.3L251.732 320.911H381.369C381.343 320.801 381.317 320.689 381.29 320.577C381.038 319.51 380.775 318.398 380.398 317.341H380.374C379.757 315.571 379.027 313.839 378.156 312.144L386 312.5C380.538 307.587 369.859 302.214 363 299.5L363.048 299.834L344.572 296.433H353.458C347.978 294.526 342.428 292.999 336.809 291.728Z" fill="#20253A"/>
<path fill-rule="evenodd" clip-rule="evenodd" d="M246.781 327.845L247.151 327.296L251.732 320.911C251.732 320.911 345.203 285.484 381.369 320.911C384.771 324.244 386.829 326.554 389.5 330C400.77 344.542 320.178 336.835 275.349 331.545L245.07 331.415C245.347 330.111 245.903 328.944 246.735 327.845H246.781Z" fill="#20253A"/>
<path d="M299.232 291.445C298.884 291.822 298.814 292.325 299.023 292.764C299.232 293.204 299.512 293.581 299.861 293.958C300.558 294.712 301.326 295.402 302.164 295.968C302.303 296.156 302.513 296.345 302.652 296.533C302.792 296.721 303.001 296.91 303.21 297.035C303.559 297.349 303.978 297.726 304.397 298.04C306.839 299.925 309.771 301.244 312.911 301.809C315.005 302.186 317.168 302.248 319.332 302.06C319.89 301.997 320.379 301.934 320.937 301.809C321.495 301.683 322.054 301.62 322.612 301.495C323.728 301.306 324.845 301.055 325.962 300.804C328.125 300.364 330.289 299.736 332.312 298.92C333.29 298.543 334.197 298.103 335.034 297.538C335.383 297.287 335.732 297.035 336.081 296.721C336.221 296.596 336.36 296.47 336.43 296.282C336.5 296.156 336.57 296.03 336.709 295.905C336.988 295.716 337.128 295.402 337.198 295.088C337.268 294.712 337.268 294.272 337.128 293.895C336.779 292.89 336.221 292.011 335.453 291.257C336.709 291.571 337.826 292.199 338.733 293.016C339.291 293.518 339.64 294.083 339.92 294.774C340.199 295.528 340.199 296.345 339.989 297.098C339.92 297.287 339.85 297.475 339.78 297.663C339.71 297.852 339.571 297.978 339.431 298.103C339.152 298.417 338.942 298.668 338.733 298.92C338.245 299.359 337.686 299.799 337.128 300.176C336.081 300.867 334.964 301.432 333.708 301.872C331.475 302.751 329.102 303.442 326.729 303.944C325.543 304.196 324.357 304.447 323.24 304.635L321.495 304.949C320.937 305.012 320.239 305.138 319.681 305.2C317.168 305.515 314.586 305.389 312.074 304.949C308.305 304.258 304.816 302.688 301.884 300.427C301.396 300.05 300.907 299.673 300.489 299.234C300.279 299.045 300.07 298.794 299.861 298.606C299.651 298.417 299.372 298.229 299.232 297.978C298.604 296.91 298.186 295.779 297.906 294.586C297.767 293.958 297.767 293.33 297.906 292.702C297.976 292.388 298.116 292.074 298.325 291.822C298.465 291.697 298.535 291.571 298.674 291.508C298.883 291.508 299.093 291.445 299.232 291.445Z" fill="#F3F2F8"/>
<path d="M350.07 292.076C347.502 295.852 342.853 304.365 338.827 313.771C333.97 325.168 331.541 333.956 332.026 338.556L330.985 338.693L332.72 338.762C332.79 326.953 345.559 300.864 351.111 292.282L350.07 292.076Z" fill="#F6E2AF"/>
<path d="M353.262 292.763C347.919 300.658 334.802 327.502 334.802 338.762H335.982C336.19 326.816 347.919 301.207 354.303 292.969C353.887 292.969 353.609 292.831 353.262 292.763Z" fill="#F6E2AF"/>
<path d="M336.885 312.947C340.771 303.885 345.074 295.852 347.78 291.664C347.017 291.527 346.184 291.458 345.282 291.39C343.616 291.252 314.399 335.672 327.099 338.418C328.002 338.556 328.973 338.624 329.875 338.624C329.32 331.965 334.039 319.744 336.885 312.947Z" fill="#F6E2AF"/>
<path d="M356.315 293.724C350.417 300.795 338.133 327.228 337.994 338.83C344.518 338.899 351.458 338.83 351.18 338.418C344.24 327.296 360.757 303.816 362.978 299.903C363.325 299.285 365.5 300.5 365.5 300.5C365.5 300.5 363.811 296.539 356.315 293.724Z" fill="#F6E2AF"/>
<path d="M339 314C343.186 304.518 347.83 295.779 350.5 292C349.778 291.863 348.366 291.569 347.5 291.5C344.613 295.692 340.33 304.231 336.288 313.301C333.257 320.035 328.35 332.266 329.072 338.931L330.154 339L332.5 341C331.995 336.396 333.948 325.406 339 314Z" fill="#FFFF00"/>
<path d="M351.111 292.282C345.559 300.864 332.79 326.953 332.72 338.762L334.802 338.83C334.802 327.571 347.919 300.727 353.262 292.831C352.568 292.557 351.874 292.42 351.111 292.282Z" fill="#0000FF"/>
<path d="M354.234 293.038C347.919 301.276 336.121 326.816 335.913 338.831H337.995C338.133 327.228 350.417 300.796 356.316 293.724C355.691 293.518 354.997 293.244 354.234 293.038Z" fill="#FF0033"/>
<path d="M324.25 254.876C324.25 255.884 323.482 256.965 321.861 257.839C320.272 258.697 318.024 259.25 315.5 259.25C312.976 259.25 310.728 258.697 309.139 257.839C307.518 256.965 306.75 255.884 306.75 254.876C306.75 254.616 306.799 254.453 306.855 254.346C306.909 254.245 306.992 254.156 307.128 254.075C307.435 253.893 307.966 253.78 308.805 253.755C309.623 253.731 310.609 253.791 311.756 253.861C312.891 253.931 314.162 254.008 315.5 254.008C316.838 254.008 318.109 253.931 319.244 253.861C320.391 253.791 321.377 253.731 322.195 253.755C323.034 253.78 323.565 253.893 323.872 254.075C324.008 254.156 324.091 254.245 324.145 254.346C324.201 254.453 324.25 254.616 324.25 254.876Z" stroke="#4583FE" stroke-width="1.5"/>
<path d="M409 338C409 328 389 312.5 378.5 307.5L367 315L371 338C378.333 338.167 409 342.61 409 338Z" fill="#20253A"/>
<path d="M317.015 333.022L317.9 323.167L317.026 322.738C315.216 321.857 313.619 321.17 311.295 320.261C310.485 319.948 308.529 319.349 307.529 319.102C304.137 318.282 301.063 316.799 298.449 314.712C296.42 313.092 292.669 310.626 290.861 309.727C290.331 309.467 289.584 309.059 289.218 308.833C288.371 308.305 287.743 308.221 286.624 308.471C285.712 308.665 285.268 308.69 282.379 308.735C281.115 308.75 279.714 308.763 279.27 308.778C278.375 308.79 277.562 309.012 276.163 309.614C275.396 309.942 275.16 310.004 273.981 310.1C272.541 310.229 271.618 310.349 271.139 310.453C270.517 310.6 270.284 311.455 270.693 312.137C270.82 312.36 270.895 312.551 270.847 312.575C270.644 312.676 269.744 312.641 269.57 312.524C269.336 312.365 269.35 312.21 269.693 311.061C270.049 309.867 268.937 311.77 268.5 311.5C266.91 313.13 268.932 311.935 259.5 311.061C252.828 310.443 252.577 312.694 251.029 310.453C253.048 312.694 252.672 312.253 249.896 309.614C251.069 311.526 251.441 310.343 250 309C249.992 309.709 250.285 312.913 250.458 315.5C250.747 319.885 250.662 323.938 251 325C252.604 324.052 253.042 325.312 252 325.894C253.042 325.894 251.917 326.792 252 327.002C252.409 327.988 253.325 328.935 257.685 329.336C260.226 329.564 261.709 329.568 262.8 329.325C263.721 329.131 263.907 329 264.274 328.305C264.451 327.971 264.665 327.649 264.734 327.6C264.811 327.561 264.917 327.404 264.968 327.252C265.095 326.858 265.793 325.548 266.091 325.105C266.663 324.28 266.929 324.083 268.009 323.655C268.582 323.43 269.068 323.252 269.086 323.254C269.114 323.256 269.053 323.426 268.96 323.639C268.63 324.337 268.778 325.042 269.439 325.894C269.894 326.469 270.503 326.874 271.109 327.002C271.507 327.084 271.541 327.114 271.455 327.254C271.392 327.341 271.332 327.593 271.313 327.813C271.282 328.151 271.356 328.36 271.79 329.173C272.074 329.697 272.397 330.214 272.498 330.315C272.794 330.609 273.54 331.026 273.814 331.051C274.052 331.072 274.06 331.091 274.022 331.512C273.967 332.124 274.131 332.867 274.409 333.251C274.746 333.706 275.805 334.335 276.544 334.521C277.094 334.654 277.352 334.658 278.864 334.545C279.801 334.482 280.834 334.363 281.163 334.291C281.924 334.129 282.473 334.178 283.521 334.512C284.031 334.677 284.774 334.827 285.375 334.899C285.931 334.968 287.078 335.126 287.923 335.266C289.73 335.567 292.515 335.752 293.557 335.634C293.939 335.595 294.561 335.438 294.943 335.288C295.564 335.04 295.657 335.03 295.914 335.145C296.154 335.25 296.264 335.25 296.617 335.116C296.922 335.005 297.117 334.986 297.369 335.055C297.604 335.113 298.057 335.098 298.784 334.997C299.69 334.867 300.504 334.829 301.32 334.884C301.42 334.893 304.761 336.686 308.749 338.869C312.736 341.06 321.629 341.55 318.848 342.329C322.751 341.235 316.529 338.434 317.015 333.022Z" fill="#FDFEFF"/>
<path d="M267.388 321.636C267.283 321.58 267.171 321.488 267.14 321.429C267.117 321.372 267.456 320.168 267.886 318.759C268.6 316.455 268.719 316.152 269.018 315.801C269.204 315.579 269.416 315.266 269.486 315.106C269.775 314.45 270.354 314.06 270.957 314.114L271.231 314.139L270.878 314.687C270.214 315.715 270.047 316.76 270.359 318.005C270.656 319.22 271.199 319.84 272.198 320.105L272.585 320.204L271.825 320.56C270.325 321.255 270.173 321.315 269.434 321.534C268.657 321.768 267.713 321.813 267.388 321.636Z" fill="#FDFEFF"/>
<path d="M277.316 319.044C277.44 318.889 277.566 318.716 277.59 318.663C277.612 318.619 277.793 318.552 277.998 318.524C278.419 318.461 278.607 318.625 278.495 318.947C278.41 319.169 278.391 319.177 277.674 319.26L277.078 319.336L277.316 319.044Z" fill="#FDFEFF"/>
<path d="M313.583 319.686L329.017 323.325L375.107 327.984C384.101 327.616 402.75 327.873 405.393 331.838C408.697 336.794 410.349 337.529 408.696 345.054C407.267 351.565 344.786 345.487 314.5 342C310.214 341.048 304.26 337.614 307.453 337.529C314.934 337.331 318.149 323.187 313.583 319.686Z" fill="#20253A"/>
<path d="M270.5 314.5C270.856 313.306 271.343 310.639 270.907 310.37C270.567 310.155 269.372 309.872 259.94 308.998C253.268 308.38 250.148 308.128 249.813 308.162C249.45 308.204 249.258 308.288 249.056 308.491C248.802 308.744 248.788 308.798 248.787 309.434C248.778 310.143 248.978 314.179 249.151 316.766C249.44 321.151 249.89 325.061 250.228 326.124C250.306 326.389 250.569 326.846 250.79 327.151C251.021 327.449 251.279 327.868 251.361 328.078C251.77 329.064 253.656 329.611 258.016 330.012C260.558 330.24 262.041 330.244 263.132 330.001C264.052 329.807 264.239 329.677 264.606 328.981C264.783 328.647 264.996 328.325 265.065 328.276C265.143 328.237 265.249 328.081 265.299 327.929C265.427 327.535 266.125 326.224 266.423 325.781C266.995 324.957 267.92 324.928 269 324.5C271.852 323.38 268 318.5 270.5 314.5Z" fill="#FFEBF7"/>
<path d="M267.303 321.938C267.179 321.892 267.044 321.808 267.003 321.752C266.971 321.696 267.23 320.446 267.572 318.981C268.142 316.584 268.246 316.267 268.546 315.884C268.732 315.642 268.94 315.306 269.002 315.138C269.261 314.448 269.872 314 270.555 314H270.866L270.524 314.588C269.882 315.688 269.799 316.761 270.276 317.992C270.732 319.196 271.405 319.774 272.555 319.951L273 320.017L272.182 320.446C270.566 321.285 270.4 321.36 269.592 321.649C268.743 321.957 267.686 322.087 267.303 321.938Z" fill="#FDFEFF"/>
</svg>
