<svg width="548" height="475" viewBox="0 0 548 475" fill="none" xmlns="http://www.w3.org/2000/svg">
<path d="M203.5 319.8C185.9 319.2 168.4 316.4 150.9 317.7C130.8 319.2 106.6 327.1 92.8998 333.3C83.3998 337.6 59.7998 343.3 56.1998 353.1C43.3998 388 98.7998 406.4 128.7 403.3C172 398.8 215.6 401.3 259.1 403.9C298.7 406.2 351.8 409.2 382.4 413.6C389.6 414.6 406.5 419.3 413.8 419.4C421.1 419.5 432.8 415.1 439.8 412.8C449.6 409.5 466.2 403.4 477 394.8C489.2 385.2 497.7 368.4 491.9 354C486.3 340.3 470.5 334.3 456.4 329.9C427.1 320.8 397.5 312.4 367.8 304.7C352.8 300.8 337.4 297 321.9 297.5C303.3 298.1 290.9 309.2 273.9 313.5C251.6 319.2 226.2 320.5 203.5 319.8Z" fill="#FFEBF7"/>
<path d="M438.2 382.4H333C329.6 382.4 326.9 379.7 326.9 376.3V61.7999C326.9 58.3999 329.6 55.7 333 55.7H438.2C441.6 55.7 444.3 58.3999 444.3 61.7999V376.3C444.3 379.6 441.5 382.4 438.2 382.4Z" fill="#BCD6FF"/>
<path d="M316.5 378.4H211.2C207.8 378.4 205.1 375.7 205.1 372.3V139C205.1 135.6 207.8 132.9 211.2 132.9H316.5C319.9 132.9 322.6 135.6 322.6 139V372.3C322.5 375.7 319.8 378.4 316.5 378.4Z" fill="#BCD6FF"/>
<path fill-rule="evenodd" clip-rule="evenodd" d="M245.951 204.453L286.463 201C286.463 201 282.597 211.313 286.5 220C290.145 220.036 285.44 220.631 289.332 220.421C298.182 224.103 304.204 224.758 302.796 226.861C299.378 231.968 289.995 240.19 280.585 249.564C270.905 259.207 260.203 257.251 252.011 255.754C250.248 255.432 248.602 255.132 247.107 254.972C238.662 254.071 230.217 234.843 232.328 228.233C234.729 220.718 239.075 217.825 247.107 218C250.975 206.683 245.951 204.453 245.951 204.453Z" fill="white"/>
<path d="M194.4 382.3H89C85.7 382.3 83 379.6 83 376.3V89C83 85.7 85.7 83 89 83H194.3C197.6 83 200.3 85.7 200.3 89V376.3C200.4 379.6 197.7 382.3 194.4 382.3Z" fill="#BCD6FF"/>
<path d="M125.4 136.3H108.5V153.2H125.4V136.3Z" fill="#F3F2F8"/>
<path d="M425.9 136.3H409V153.2H425.9V136.3Z" fill="#F3F2F8"/>
<path d="M369.2 178.5H352.3V195.4H369.2V178.5Z" fill="#F3F2F8"/>
<path d="M425.9 286.8H409V303.7H425.9V286.8Z" fill="#F3F2F8"/>
<path d="M310.4 147.7H293.5V164.6H310.4V147.7Z" fill="#F3F2F8"/>
<path d="M241.8 181H224.9V197.9H241.8V181Z" fill="#F3F2F8"/>
<path d="M369.2 70.0999H352.3V86.9999H369.2V70.0999Z" fill="#F3F2F8"/>
<path d="M174.2 186.9H157.3V203.8H174.2V186.9Z" fill="#F3F2F8"/>
<path d="M125.4 286.8H108.5V303.7H125.4V286.8Z" fill="#F3F2F8"/>
<path d="M300.233 138.529C300.233 138.529 311.5 146 311.757 127.342C312.015 108.684 297.311 94.0024 288.539 91.0479C279.766 88.0934 259.77 86.3808 252.138 88.4894C246.102 90.1682 234.902 95.4417 230.463 99.6857C224.45 105.396 220.44 114.421 219.874 119.377C219.874 131.259 225.527 145.246 225.527 145.246C225.527 145.246 225.661 133.189 228.117 127.342C230.574 121.494 236.711 113.019 241.693 110.423C247.798 107.208 261.713 105.532 268.369 105.309C275.024 105.086 288.183 108.021 289.599 114.58C291.016 121.139 293.238 147.776 291.504 151.278C289.77 154.78 294.112 152.687 294.112 152.687L300.233 138.529Z" fill="#4583FE"/>
<path d="M300.599 151.395C300.599 156.63 303.965 160.874 308.117 160.874C312.269 160.874 315.635 156.63 315.635 151.395C315.635 146.16 312.269 141.916 308.117 141.916C303.965 141.916 300.599 146.16 300.599 151.395Z" fill="white"/>
<path d="M309.122 146.058C313.675 122.556 295.673 100.731 271.734 100.731L260.612 105.431C237.073 105.431 218.473 121.871 222.351 145.088L228.026 179.062C230.069 191.295 238.035 201.946 250.288 203.857C254.64 204.536 259.624 205.001 265.115 205.001C270.864 205.001 276.057 204.492 280.551 203.76C292.449 201.824 300.298 191.598 302.591 179.764L309.122 146.058Z" fill="white"/>
<path d="M282.693 151.637C282.693 152.994 283.793 154.094 285.15 154.094C286.506 154.094 287.606 152.994 287.606 151.637C287.606 150.28 286.506 149.181 285.15 149.181C283.793 149.181 282.693 150.28 282.693 151.637Z" fill="#4583FE"/>
<path fill-rule="evenodd" clip-rule="evenodd" d="M291.219 151.187C291.649 151.102 291.929 150.685 291.844 150.255C291.322 147.615 288.985 146.112 286.435 145.795C283.871 145.477 280.903 146.308 278.773 148.512C278.468 148.827 278.477 149.329 278.792 149.634C279.107 149.938 279.609 149.93 279.914 149.615C281.67 147.798 284.13 147.108 286.239 147.37C288.362 147.634 289.942 148.814 290.287 150.562C290.372 150.992 290.789 151.272 291.219 151.187Z" fill="#4583FE"/>
<path d="M240.075 151.29C240.075 152.647 241.175 153.747 242.532 153.747C243.888 153.747 244.988 152.647 244.988 151.29C244.988 149.934 243.888 148.834 242.532 148.834C241.175 148.834 240.075 149.934 240.075 151.29Z" fill="#4583FE"/>
<path fill-rule="evenodd" clip-rule="evenodd" d="M248.783 150.86C249.213 150.775 249.493 150.358 249.408 149.928C248.886 147.288 246.549 145.786 243.999 145.469C241.435 145.15 238.467 145.981 236.337 148.185C236.032 148.5 236.041 149.003 236.356 149.307C236.671 149.612 237.173 149.603 237.477 149.288C239.234 147.471 241.694 146.781 243.803 147.043C245.926 147.307 247.506 148.488 247.851 150.236C247.936 150.666 248.353 150.945 248.783 150.86Z" fill="#4583FE"/>
<path fill-rule="evenodd" clip-rule="evenodd" d="M276.114 155.172C273.757 153.537 272.318 151.173 272.17 147.865C272.114 146.631 271.997 145.51 271.891 144.547C271.878 144.436 271.866 144.327 271.854 144.221C271.76 143.378 271.687 142.715 271.655 142.108C271.584 140.753 271.782 140.436 271.913 140.274C272.14 139.991 272.915 139.336 275.515 138.654C278.021 137.997 281.746 137.43 287.272 136.918C293.053 136.924 296.663 137.324 298.874 137.927C301.041 138.518 301.281 139.134 301.298 139.177C301.299 139.178 301.299 139.179 301.299 139.179C301.423 139.466 301.481 140.08 301.142 141.862C301.095 142.106 301.041 142.373 300.983 142.659C300.689 144.105 300.296 146.038 300.296 148.008C300.296 150.966 299.091 153.317 296.944 155.003C294.729 156.742 291.317 157.909 286.829 157.909C282.244 157.909 278.581 156.883 276.114 155.172ZM287.126 133.744C306.018 133.744 305.205 137.777 304.075 143.386C303.783 144.835 303.47 146.39 303.47 148.008C303.47 155.885 296.84 161.083 286.829 161.083C276.818 161.083 269.386 156.633 268.999 148.008C268.943 146.752 268.816 145.61 268.7 144.568C267.983 138.142 267.693 135.534 287.126 133.744Z" fill="#FFEBF7"/>
<path fill-rule="evenodd" clip-rule="evenodd" d="M250.654 155.172C253.011 153.536 254.449 151.173 254.598 147.865C254.653 146.631 254.771 145.51 254.877 144.547C254.889 144.435 254.902 144.327 254.913 144.221C255.007 143.378 255.081 142.715 255.113 142.108C255.184 140.752 254.986 140.436 254.855 140.273C254.627 139.991 253.852 139.336 251.253 138.654C248.747 137.997 245.021 137.43 239.496 136.917C233.714 136.924 230.105 137.323 227.894 137.926C225.726 138.517 225.486 139.133 225.469 139.177C225.469 139.178 225.469 139.179 225.468 139.179C225.345 139.466 225.286 140.079 225.626 141.861C225.672 142.106 225.727 142.373 225.785 142.659C226.078 144.105 226.471 146.038 226.471 148.007C226.471 150.966 227.677 153.317 229.824 155.003C232.039 156.742 235.451 157.909 239.939 157.909C244.524 157.909 248.187 156.883 250.654 155.172ZM239.641 133.744C220.75 133.744 221.562 137.776 222.692 143.386C222.984 144.835 223.298 146.39 223.298 148.007C223.298 155.885 229.927 161.082 239.939 161.082C249.95 161.082 257.381 156.633 257.768 148.007C257.824 146.752 257.952 145.61 258.068 144.568C258.784 138.142 259.075 135.534 239.641 133.744Z" fill="#FFEBF7"/>
<path fill-rule="evenodd" clip-rule="evenodd" d="M257.032 149.04C257.908 149.04 258.619 148.329 258.619 147.453C258.619 144.861 260.721 142.759 263.313 142.759C265.905 142.759 268.007 144.861 268.007 147.453C268.007 148.329 268.717 149.04 269.594 149.04C270.47 149.04 271.181 148.329 271.181 147.453C271.181 143.108 267.658 139.585 263.313 139.585C258.968 139.585 255.445 143.108 255.445 147.453C255.445 148.329 256.156 149.04 257.032 149.04Z" fill="#FFEBF7"/>
<path d="M251.223 131.129C252.095 128.187 268.902 114.072 283.256 112.825C290.039 112.235 294.613 111.506 300.58 114.786C312.47 121.323 307.771 150.087 307.771 148.78C307.771 148.78 312.02 136.359 312.02 129.168C312.02 123.415 300.907 104.762 295.35 96.1545L264.951 98.7695L237.495 106.287C233.899 111.081 224.945 121.985 222.459 129.168C218.046 141.916 219.19 135.705 223.44 132.437C227.689 129.168 237.495 116.747 237.495 120.669C237.495 123.807 235.534 126.88 232.592 131.129C239.129 127.86 244.032 118.381 251.223 118.381C258.414 118.381 248.608 125.409 251.223 131.129Z" fill="#4583FE"/>
<path d="M275.975 202.086C285.328 202.734 291.597 195.666 297.722 191.919C297.142 193.529 294.905 196.378 292.579 198.793C284.438 207.245 276.104 209.25 264.405 209.241C254.501 209.233 247.527 206.297 240.134 201.718C232.742 197.14 232.464 191.249 234.471 193.347C236.479 195.446 241.87 199.43 247.591 200.063C253.298 200.694 256.108 196.056 261.831 196.399C267.756 196.754 270.036 201.675 275.975 202.086Z" fill="#4583FE"/>
<path fill-rule="evenodd" clip-rule="evenodd" d="M254.89 180.699C255.202 181.006 255.704 181.002 256.012 180.69C257.923 178.747 259.656 177.756 261.187 177.461C262.688 177.172 264.086 177.533 265.404 178.492C265.759 178.75 266.255 178.672 266.513 178.317C266.77 177.963 266.692 177.467 266.338 177.209C264.711 176.025 262.873 175.52 260.886 175.903C258.929 176.281 256.922 177.502 254.88 179.577C254.573 179.889 254.577 180.391 254.89 180.699Z" fill="#4583FE"/>
<path d="M256.722 190.945C256.722 192.209 258.332 193.233 260.318 193.233C262.303 193.233 263.913 192.209 263.913 190.945C263.913 189.682 262.303 188.657 260.318 188.657C258.332 188.657 256.722 189.682 256.722 190.945Z" fill="#4583FE"/>
<path fill-rule="evenodd" clip-rule="evenodd" d="M261.985 147.151C261.546 147.151 261.191 147.506 261.191 147.945C261.191 154.119 259.315 161.304 256.254 165.742C255.365 167.031 255.088 168.308 255.404 169.456C255.716 170.59 256.562 171.436 257.589 171.97C259.619 173.026 262.625 173.013 264.964 171.455C265.328 171.211 265.427 170.719 265.184 170.354C264.941 169.99 264.448 169.891 264.083 170.134C262.233 171.367 259.845 171.355 258.321 170.562C257.57 170.172 257.098 169.632 256.934 169.035C256.774 168.453 256.862 167.655 257.56 166.643C260.846 161.878 262.778 154.357 262.778 147.945C262.778 147.506 262.423 147.151 261.985 147.151Z" fill="#4583FE"/>
<path d="M308.001 156.989C308.001 157.778 308.641 158.418 309.429 158.418C310.218 158.418 310.857 157.778 310.857 156.989C310.857 156.201 310.218 155.561 309.429 155.561C308.641 155.561 308.001 156.201 308.001 156.989Z" fill="#20253A"/>
<path d="M323.984 229.433C319.609 217.324 294.416 217.18 285.848 218.622C281.655 224.568 278.586 232.666 270 235.5C259.503 238.965 245.931 235.048 243 227C241.141 221.896 248 218 247 217.5C244.5 217.5 236.845 218.169 228.822 218.622C210.257 219.669 196.555 244.028 196.008 247.812C195.461 251.596 223.9 261.866 241.401 259.704C258.902 257.542 275.856 252.677 292.81 252.677H330C329.818 249.974 328.359 241.541 323.984 229.433Z" fill="#20253A"/>
<path d="M289.8 212.4L290.2 212.5V212.4H289.8Z" fill="#F6E2AF"/>
<path d="M173.6 259.8C173.4 260.1 173.2 260.3 173 260.6H348.2C348.4 259.2 348.5 257.7 348.3 256.2C348.1 254.6 347.9 253 347.6 251.4H179.6L173.6 259.8Z" fill="#5B4D9D"/>
<path d="M170.8 266.1C170.9 268 171.6 269.8 172.8 271.3C173.6 272.4 174.6 273.4 175.7 274.3H338.6C338.6 273.7 338.6 273.1 338.6 272.5C338.7 270.5 339.4 268.2 341.3 267.3C342.1 267 343 266.8 343.8 266.6C344.7 266.3 345.6 265.8 346.2 265H170.9C170.8 265.5 170.8 265.8 170.8 266.1Z" fill="#5B4D9D"/>
<path d="M179.6 251.4H347.7C347.4 249.8 346.9 248.3 346.4 246.8H182.9L179.6 251.4Z" fill="white"/>
<path d="M170.9 265.2H346.3C347.4 263.9 348.1 262.3 348.3 260.6H173.1C172 261.9 171.3 263.5 170.9 265.2Z" fill="white"/>
<path d="M183.4 279H338.4C338.4 278.9 338.4 278.8 338.5 278.7C338.8 277.2 338.8 275.8 338.7 274.3H175.7C178 276.2 180.6 277.8 183.4 279Z" fill="white"/>
<path d="M297.589 103.044C297.68 105.679 295.589 107.906 292.953 107.997C290.318 108.088 288.091 105.998 288 103.362C288 103.271 288 103.18 288 103.089C288 100.453 292.272 94.0002 292.772 94.0002C293.499 93.9548 297.589 100.408 297.589 103.044Z" fill="white"/>
<path d="M294.681 105.816C295.358 105.816 295.908 105.409 295.908 104.907C295.908 104.405 295.358 103.998 294.681 103.998C294.003 103.998 293.454 104.405 293.454 104.907C293.454 105.409 294.003 105.816 294.681 105.816Z" fill="#BCD6FF"/>
<path d="M261.3 241.4C261.3 241.4 310.1 246.8 326.6 246.8C343.1 246.8 391.9 241.4 391.9 241.4V389.4C391.9 389.4 343.1 394.8 326.6 394.8C310.1 394.8 261.3 389.4 261.3 389.4V241.4Z" fill="white"/>
<path d="M132.1 241.4C132.1 241.4 180.9 246.8 197.4 246.8C213.9 246.8 262.7 241.4 262.7 241.4V389.4C262.7 389.4 213.9 394.8 197.4 394.8C180.9 394.8 132.1 389.4 132.1 389.4V241.4Z" fill="white"/>
<path d="M158 259H155.3V382.9H158V259Z" fill="#BCD6FF"/>
<path d="M184.9 259H182.2V382.9H184.9V259Z" fill="#BCD6FF"/>
<path d="M211.8 259H209.1V382.9H211.8V259Z" fill="#BCD6FF"/>
<path d="M238.6 259H235.9V382.9H238.6V259Z" fill="#BCD6FF"/>
<path d="M249.5 271.9H144.4V275.1H249.5V271.9Z" fill="#BCD6FF"/>
<path d="M249.6 303.5H144.4V306.7H249.6V303.5Z" fill="#BCD6FF"/>
<path d="M249.5 335.1H144.4V338.3H249.5V335.1Z" fill="#BCD6FF"/>
<path d="M249.5 366.8H144.4V370H249.5V366.8Z" fill="#BCD6FF"/>
<path d="M353.1 273.5H289.8V277.9H353.1V273.5Z" fill="#BCD6FF"/>
<path d="M331.2 284.4H289.8V288.8H331.2V284.4Z" fill="#BCD6FF"/>
<path d="M353.1 295.3H289.8V299.7H353.1V295.3Z" fill="#BCD6FF"/>
<path d="M342.1 306.2H289.8V310.6H342.1V306.2Z" fill="#BCD6FF"/>
<path d="M353.1 317.1H289.8V321.5H353.1V317.1Z" fill="#BCD6FF"/>
<path d="M321.4 328H289.8V332.4H321.4V328Z" fill="#BCD6FF"/>
</svg>
