<svg width="548" height="475" viewBox="0 0 548 475" fill="none" xmlns="http://www.w3.org/2000/svg">
<circle cx="274" cy="231" r="147" fill="#BCD6FF"/>
<path d="M200.333 340.56C226.657 347.632 248.559 347.667 256.219 346.8C280.245 342.64 336.967 334.735 371.647 336.4C414.998 338.48 424.518 364.889 409.233 384.805C400.314 396.426 350.411 401.016 302.242 390.826C264.569 382.857 226.796 388.313 174.218 396.202C126.703 403.332 129.336 360.494 135.039 354.236C148.1 339.903 167.428 331.719 200.333 340.56Z" fill="#FFEBF7"/>
<path d="M325.342 321.519C313.924 320.393 301.893 317.603 290.705 313.558L287.197 312.278L282.129 312.636C278.059 312.943 276.599 313.148 274.526 313.762C263.184 317.065 250 319.292 233.82 320.572C226.115 321.212 190.556 321.391 187.842 320.828C182.64 319.692 175.925 315.248 172.301 311.33C169.664 308.514 167.59 304.341 167.078 300.757C166.592 297.301 167.77 293.307 170.125 290.261C243.026 199.134 174.153 281.168 176.654 279.5C192.936 294.954 181.363 296.877 165.979 279.5C170.664 283.494 158.954 275.078 162 276C164.483 276.742 162.932 277.372 165.979 277.5C167.95 277.602 170.637 275.795 172.301 276L176.654 273.182L183.197 271.06C186.858 268.526 191.809 255.316 205.582 238.957C210.677 232.89 210.779 232.787 212.008 229.843L213.287 226.848L214.875 207.904C216.334 190.342 216.437 188.677 216.233 185.119C215.772 176.543 216.718 167.275 218.715 161.438C220.584 155.909 224.195 151.249 227.574 149.918C228.061 149.739 232.259 147.972 236.893 146.001C243.421 143.211 246.21 141.879 249.18 140.113C256.322 135.838 259.369 133.534 260.317 131.741C261.085 130.231 261.443 127.85 261.264 125.188C261.11 123.012 261.033 122.679 260.342 121.808C258.934 120.068 258.499 118.685 258.115 114.512C257.911 112.362 257.68 110.339 257.604 109.981C257.476 109.392 257.424 109.366 257.143 109.802C256.631 110.467 256.068 110.314 255.453 109.341C254.736 108.189 251.612 96.4893 251.535 94.6973C251.51 93.7244 251.613 93.2381 251.92 92.9309C252.304 92.5212 252.406 92.5212 253.379 93.0076L254.428 93.5452L254.377 85.5579C254.3 77.9289 254.326 77.4936 254.889 75.42C256.553 69.327 259.958 65.1285 265.309 62.594C269.354 60.6996 275.345 59.7523 279.953 60.2644C285.253 60.8788 288.298 62.1844 291.318 65.1797C293.546 67.3814 294.749 69.3782 295.875 72.7319C297.565 77.7752 297.693 80.0281 296.746 89.1931L296.311 93.366L296.977 94.0061C297.565 94.5949 297.72 94.6461 298.565 94.3901C299.384 94.1853 299.588 94.2109 300.024 94.6461C300.28 94.9021 300.51 95.3373 300.51 95.5933C300.484 97.0782 297.822 105.552 296.9 107.088C296.235 108.163 294.52 109.674 293.777 109.853C293.214 110.007 293.136 110.186 292.983 112.029C292.701 115.383 291.166 119.914 289.477 122.32C289.041 122.909 288.99 123.498 288.99 126.954V130.897L289.758 131.946C292.113 135.198 298.718 139.908 305.246 143.031C308.574 144.593 315.178 147.46 319.428 149.15C322.91 150.532 324.114 151.249 325.906 153.041C328.594 155.729 330.616 159.902 331.998 165.662C333.56 172.037 333.662 173.496 333.662 189.087C333.688 199.123 333.766 203.935 333.996 205.472C334.943 211.897 337.273 224.006 338.758 230.33L339.346 232.813L340.684 236.592C342.22 238.333 346.592 243.766 349.945 247.708C356.499 255.389 359.238 260.477 360.416 261.603C377.688 277.828 393.947 266.698 378.977 287.445C378.9 287.522 378.975 288.52 379.129 289.723C379.871 295.74 377.644 301.679 373.24 305.212C359.604 316.209 343.008 323.269 325.342 321.519ZM360.416 273.182C362.336 274.206 362.452 272.495 360.416 273.182C340.601 262.763 326.788 251.877 320.274 245.665C319.762 244.769 318.558 241.056 316.92 235.373C315.486 230.483 314.334 226.387 314.334 226.285C314.334 226.208 314.282 226.182 314.205 226.234C314.026 226.438 319.889 265.403 320.119 265.633C325.462 270.595 352.263 269.716 360.416 273.182ZM232.233 265.275C232.463 265.121 233.999 259.131 236.072 250.221L239.555 235.475L238.787 226.029C238.378 220.857 237.968 216.198 237.891 215.712C237.763 215.021 237.455 216.147 236.508 220.858C234.383 231.456 232.054 240.032 230.442 243.233C229.469 245.101 224.655 249.709 210.113 262.612C206.606 265.71 190.289 271.675 196 271.06C201.702 268.497 229.758 267.749 232.233 265.275Z" fill="#20253A"/>
<path fill-rule="evenodd" clip-rule="evenodd" d="M171.124 288.702C170.996 288.574 163.905 293.489 160.449 296.126C157.658 298.225 157.3 298.43 154.074 299.505C152.18 300.145 150.49 300.657 150.311 300.657C149.671 300.657 149.415 299.684 149.85 298.788C150.157 298.097 150.669 297.739 152.231 296.996C153.869 296.228 154.637 295.614 156.865 293.386C158.349 291.902 159.501 290.647 159.425 290.596C159.22 290.417 144.499 286.346 143.066 286.065C142.298 285.911 141.402 285.732 141.069 285.655C140.326 285.501 139.891 284.426 140.275 283.709C140.429 283.428 140.941 283.044 141.427 282.839C141.914 282.634 142.298 282.378 142.298 282.276C142.298 282.173 141.888 280.893 141.376 279.409C140.864 277.924 140.403 276.388 140.326 276.004C140.173 275.159 140.838 274.288 141.658 274.288C142.298 274.288 143.578 275.184 143.578 275.645C143.578 275.824 144.243 277.309 145.037 278.973L146.522 282.02L147.52 281.841C148.083 281.764 148.595 281.636 148.672 281.585C148.723 281.508 148.595 280.74 148.365 279.869C148.083 278.743 147.93 276.541 147.827 272.65C147.674 266.224 147.776 265.687 149.389 264.816C149.927 264.534 150.567 264.15 150.797 263.997C151.13 263.741 151.335 263.766 151.693 264.074C156.378 268.067 156.429 268.093 159.476 269.015C161.959 269.757 162.932 269.911 165.978 270.039C167.95 270.141 170.919 270.397 172.583 270.602L175.604 271.011L176.654 270.295C180.315 267.76 191.809 255.267 205.583 238.908L210.114 262.563C206.607 265.661 203.739 268.298 203.739 268.4L171.124 288.702ZM155.712 273.623C156.25 274.749 156.199 276.848 155.661 278.64C155.124 280.305 154.637 280.509 153.716 279.409C152.973 278.487 152.41 276.772 152.026 274.16C151.693 271.703 151.693 271.728 152.461 271.728C153.613 271.728 155.277 272.701 155.712 273.623Z" fill="white"/>
<path d="M196.176 249.561L206.365 237.982L213.776 259.287C210.997 262.53 207.292 265.772 208.681 262.993C211.937 256.482 201.271 247.245 196.176 249.561Z" fill="#20253A"/>
<path fill-rule="evenodd" clip-rule="evenodd" d="M370.872 281.291C371 281.163 378.091 286.078 381.547 288.715C384.338 290.814 384.696 291.019 387.922 292.094C389.817 292.734 391.506 293.246 391.685 293.246C392.325 293.246 392.581 292.274 392.146 291.378C391.839 290.686 391.327 290.328 389.765 289.586C388.127 288.818 387.359 288.203 385.132 285.976C383.647 284.491 382.495 283.237 382.572 283.185C382.776 283.006 397.497 278.936 398.93 278.654C399.698 278.5 400.594 278.321 400.927 278.244C401.67 278.091 402.105 277.016 401.721 276.299C401.567 276.017 401.055 275.633 400.569 275.428C400.082 275.224 399.698 274.968 399.698 274.865C399.698 274.763 400.108 273.483 400.62 271.998C401.132 270.513 401.593 268.977 401.67 268.593C401.823 267.748 401.158 266.878 400.338 266.878C399.698 266.878 398.418 267.774 398.418 268.235C398.418 268.414 397.753 269.899 396.959 271.563L395.474 274.609L394.476 274.43C393.913 274.353 393.401 274.225 393.324 274.174C393.273 274.097 393.401 273.329 393.631 272.459C393.913 271.332 394.066 269.131 394.169 265.239C394.322 258.814 394.22 258.276 392.607 257.405C392.069 257.124 391.429 256.74 391.199 256.586C390.866 256.33 390.661 256.356 390.303 256.663C385.618 260.657 385.567 260.682 382.52 261.604C380.037 262.346 379.064 262.5 376.018 262.628C374.046 262.73 371.077 262.986 369.413 263.191L366.392 263.601L365.342 262.884C361.681 260.35 350.187 247.856 336.413 231.498L331.882 255.153C335.389 258.25 338.257 260.887 338.257 260.99L370.872 281.291ZM386.284 266.212C385.746 267.339 385.797 269.438 386.335 271.23C386.872 272.894 387.359 273.099 388.28 271.998C389.023 271.076 389.586 269.361 389.97 266.75C390.303 264.292 390.303 264.318 389.535 264.318C388.383 264.318 386.719 265.29 386.284 266.212Z" fill="white"/>
<path d="M340.682 262.067C337.427 255.555 347.63 247.709 352.725 250.024L340.682 236.639L336.514 227.792L328.64 231.961L322.619 247.245C325.398 250.488 342.072 264.846 340.682 262.067Z" fill="#20253A"/>
<path d="M299.675 75.4289C299.675 75.4289 307.499 84 308.5 69C309.5 54 297.514 42.4937 291.025 40.3083C284.536 38.1229 269.745 36.8562 264.1 38.4159C259.635 39.6577 251.351 43.5583 248.067 46.6976C243.62 50.9214 240.654 57.5973 240.235 61.2629C240.235 70.052 244.416 80.3979 244.416 80.3979C244.416 80.3979 244.515 71.4795 246.332 67.1542C248.149 62.8289 252.689 56.5598 256.374 54.64C260.89 52.2619 271.183 51.0216 276.106 50.857C281.029 50.6923 290.762 52.8628 291.809 57.7145C292.857 62.5662 294.501 82.2689 293.218 84.8593C291.936 87.4497 295.147 85.9012 295.147 85.9012L299.675 75.4289Z" fill="#4583FE"/>
<path d="M299.945 84.9456C299.945 88.8179 302.434 91.9571 305.506 91.9571C308.577 91.9571 311.066 88.8179 311.066 84.9456C311.066 81.0732 308.577 77.9341 305.506 77.9341C302.434 77.9341 299.945 81.0732 299.945 84.9456Z" fill="white"/>
<path fill-rule="evenodd" clip-rule="evenodd" d="M259.111 121.728L291.587 118.949C291.587 118.949 287.068 125.853 290.197 132.844C293.119 132.873 290.766 134.747 293.886 134.578C300.98 137.541 305.808 138.068 304.679 139.76C301.939 143.87 294.418 150.487 286.874 158.03C279.114 165.79 270.536 164.216 263.968 163.012C262.555 162.753 261.236 162.511 260.037 162.382C253.267 161.657 246.498 146.183 248.19 140.864C250.114 134.816 253.598 132.703 260.037 132.844C263.138 123.737 259.111 121.728 259.111 121.728Z" fill="white"/>
<path d="M306.25 80.9982C309.618 63.6143 296.302 47.4705 278.595 47.4705L270.368 50.9469C252.957 50.9469 239.199 63.1076 242.067 80.2807L246.265 105.411C247.776 114.459 253.668 122.337 262.732 123.751C265.951 124.253 269.638 124.597 273.7 124.597C277.952 124.597 281.793 124.22 285.117 123.68C293.917 122.247 299.723 114.683 301.419 105.93L306.25 80.9982Z" fill="white"/>
<path fill-rule="evenodd" clip-rule="evenodd" d="M293.006 84.7915C293.324 84.7286 293.531 84.42 293.468 84.102C293.083 82.1494 291.353 81.0378 289.467 80.8034C287.571 80.5677 285.376 81.1826 283.8 82.8129C283.575 83.0459 283.581 83.4174 283.814 83.6427C284.047 83.868 284.418 83.8617 284.644 83.6287C285.943 82.2847 287.762 81.7742 289.323 81.9681C290.893 82.1633 292.061 83.0364 292.317 84.3295C292.38 84.6474 292.688 84.8543 293.006 84.7915Z" fill="#4583FE"/>
<path fill-rule="evenodd" clip-rule="evenodd" d="M261.617 84.5502C261.935 84.4874 262.142 84.1787 262.079 83.8608C261.693 81.9081 259.964 80.7966 258.078 80.5622C256.182 80.3265 253.987 80.9414 252.411 82.5717C252.185 82.8047 252.192 83.1762 252.425 83.4015C252.658 83.6268 253.029 83.6205 253.255 83.3875C254.554 82.0434 256.373 81.533 257.933 81.7269C259.504 81.9221 260.672 82.7952 260.928 84.0883C260.99 84.4062 261.299 84.6131 261.617 84.5502Z" fill="#4583FE"/>
<path fill-rule="evenodd" clip-rule="evenodd" d="M281.834 87.7399C280.091 86.5302 279.027 84.7818 278.917 82.3353C278.876 81.4221 278.789 80.5933 278.71 79.881C278.701 79.7983 278.692 79.7179 278.684 79.6396C278.614 79.0159 278.56 78.5256 278.536 78.077C278.483 77.074 278.63 76.8397 278.727 76.7198C278.895 76.511 279.468 76.0265 281.391 75.5221C283.245 75.0359 286 74.6167 290.087 74.2374C294.364 74.2423 297.034 74.5377 298.669 74.9837C300.273 75.421 300.45 75.8765 300.463 75.909C300.463 75.9097 300.463 75.9102 300.463 75.9105C300.555 76.1225 300.598 76.5763 300.347 77.8945C300.312 78.0752 300.272 78.2727 300.229 78.4843C300.012 79.5536 299.722 80.9839 299.722 82.4404C299.722 84.629 298.83 86.3678 297.242 87.6149C295.603 88.9014 293.079 89.7643 289.76 89.7643C286.368 89.7643 283.659 89.0056 281.834 87.7399ZM289.98 71.8899C303.954 71.8899 303.353 74.8729 302.517 79.022C302.301 80.0941 302.069 81.244 302.069 82.4404C302.069 88.2673 297.165 92.1117 289.76 92.1117C282.355 92.1117 276.858 88.8207 276.572 82.4404C276.53 81.5119 276.436 80.667 276.35 79.8964C275.82 75.1429 275.605 73.2139 289.98 71.8899Z" fill="#FFEBF7"/>
<path fill-rule="evenodd" clip-rule="evenodd" d="M263.001 87.7397C264.745 86.53 265.809 84.7815 265.919 82.335C265.959 81.4218 266.046 80.5931 266.125 79.8808C266.134 79.7981 266.143 79.7177 266.152 79.6394C266.221 79.0156 266.276 78.5253 266.299 78.0767C266.352 77.0738 266.205 76.8395 266.109 76.7195C265.94 76.5108 265.367 76.0262 263.444 75.5219C261.591 75.0357 258.835 74.6164 254.748 74.2372C250.471 74.242 247.801 74.5375 246.166 74.9835C244.563 75.4207 244.385 75.8763 244.373 75.9088C244.372 75.9094 244.372 75.9099 244.372 75.9102C244.281 76.1222 244.238 76.5761 244.489 77.8942C244.523 78.075 244.563 78.2724 244.606 78.484C244.823 79.5534 245.114 80.9836 245.114 82.4402C245.114 84.6288 246.006 86.3676 247.594 87.6146C249.232 88.9011 251.756 89.764 255.075 89.764C258.467 89.764 261.177 89.0054 263.001 87.7397ZM254.856 71.8896C240.882 71.8896 241.483 74.8726 242.319 79.0218C242.535 80.0938 242.766 81.2438 242.766 82.4402C242.766 88.2671 247.67 92.1115 255.075 92.1115C262.48 92.1115 267.977 88.8205 268.264 82.4402C268.305 81.5116 268.399 80.6668 268.485 79.8962C269.015 75.1427 269.23 73.2136 254.856 71.8896Z" fill="#FFEBF7"/>
<path fill-rule="evenodd" clip-rule="evenodd" d="M267.72 83.2039C268.368 83.2039 268.894 82.6784 268.894 82.0301C268.894 80.1125 270.448 78.558 272.366 78.558C274.284 78.558 275.838 80.1125 275.838 82.0301C275.838 82.6784 276.364 83.2039 277.012 83.2039C277.66 83.2039 278.185 82.6784 278.185 82.0301C278.185 78.8161 275.58 76.2106 272.366 76.2106C269.152 76.2106 266.546 78.8161 266.546 82.0301C266.546 82.6784 267.072 83.2039 267.72 83.2039Z" fill="#FFEBF7"/>
<path d="M263.422 69.9554C264.067 67.7795 276.52 57.5542 287.116 56.416C292.137 55.8768 295.52 55.171 300 57.5C309.025 62.1918 305.249 83.9784 305.249 83.0113C305.249 83.0113 308.393 73.8239 308.393 68.5048C308.393 64.2495 300.172 50.4522 296.062 44.0854L273.577 46.0197L253.268 51.5805C250.608 55.1265 243.985 63.1916 242.146 68.5048C238.882 77.934 239.728 73.3403 242.871 70.9225C246.014 68.5048 253.268 59.3173 253.268 62.2186C253.268 64.5397 251.817 66.8124 249.641 69.9554C254.477 67.5377 258.103 60.5262 263.422 60.5262C268.741 60.5262 261.488 65.7244 263.422 69.9554Z" fill="#4583FE"/>
<path d="M281.732 122.441C288.65 122.92 293.287 117.692 297.817 114.92C297.388 116.112 295.734 118.219 294.013 120.005C287.991 126.257 281.827 127.74 273.173 127.733C265.847 127.727 260.689 125.555 255.221 122.169C249.753 118.782 249.547 114.425 251.032 115.977C252.517 117.53 256.505 120.476 260.736 120.944C264.958 121.412 267.036 117.981 271.269 118.235C275.652 118.497 277.339 122.137 281.732 122.441Z" fill="#4583FE"/>
<path d="M267.709 114.2C267.709 115.135 268.899 115.893 270.368 115.893C271.837 115.893 273.028 115.135 273.028 114.2C273.028 113.266 271.837 112.508 270.368 112.508C268.899 112.508 267.709 113.266 267.709 114.2Z" fill="#4583FE"/>
<path fill-rule="evenodd" clip-rule="evenodd" d="M271.382 81.8069C271.058 81.8069 270.795 82.0696 270.795 82.3937C270.795 86.9608 269.408 92.2752 267.143 95.5584C266.486 96.5117 266.281 97.4562 266.515 98.3055C266.746 99.144 267.371 99.7701 268.131 100.165C269.632 100.946 271.856 100.937 273.586 99.7836C273.855 99.6038 273.928 99.2395 273.749 98.9698C273.569 98.7001 273.204 98.6272 272.935 98.807C271.566 99.7192 269.8 99.7099 268.672 99.1236C268.117 98.8349 267.768 98.4355 267.647 97.994C267.528 97.5633 267.593 96.9732 268.109 96.2247C270.54 92.7003 271.969 87.137 271.969 82.3937C271.969 82.0696 271.706 81.8069 271.382 81.8069Z" fill="#4583FE"/>
<path d="M305.42 89.0839C305.42 89.6673 305.892 90.1403 306.476 90.1403C307.059 90.1403 307.532 89.6673 307.532 89.0839C307.532 88.5005 307.059 88.0276 306.476 88.0276C305.892 88.0276 305.42 88.5005 305.42 89.0839Z" fill="#20253A"/>
<path d="M324.472 151.833C316.88 145.713 296.535 131.314 290.197 132.38C287.096 136.779 283.662 145.061 277.312 147.157C269.547 149.719 259.508 146.822 257.34 140.869C255.965 137.094 260.831 132.287 260.092 131.917C258.702 131.222 252.788 134.337 246.853 134.672C233.121 135.447 220.664 154.592 220.259 157.391C219.855 160.19 243.212 166.659 256.157 165.06C269.103 163.461 280.899 168.507 293.439 168.507L321.692 159.862C321.558 157.863 327.708 160.79 324.472 151.833Z" fill="#20253A"/>
<path fill-rule="evenodd" clip-rule="evenodd" d="M264.737 106.844C264.737 106.436 265.068 106.105 265.476 106.105H275.462C275.871 106.105 276.202 106.436 276.202 106.844C276.202 107.253 275.871 107.584 275.462 107.584H265.476C265.068 107.584 264.737 107.253 264.737 106.844Z" fill="#4583FE"/>
<path d="M256.242 34.9585C255.967 34.7306 255.611 35.0063 255.763 35.3298L266.375 57.9086C266.469 58.1096 266.715 58.1839 266.875 58.0598C266.875 58.0598 269.562 57.6868 271.595 56.1393C273.351 54.8028 275.482 51.3894 275.482 51.3894C275.642 51.2652 275.631 51.0085 275.46 50.8669L256.242 34.9585Z" fill="#FFEBF7"/>
<path d="M277.033 51.79C276.879 51.0181 276.107 49.3816 274.254 49.0111C271.938 48.5479 275.181 49.4742 274.254 51.79C273.328 54.1059 271.938 51.79 271.475 51.79C271.012 51.79 271.938 51.79 271.475 53.6427C271.012 55.4954 269.623 53.6427 268.696 52.7164C269.159 54.569 267.307 56.8848 265.917 55.9585C264.943 55.3093 264.687 54.9436 264.61 54.6587C264.6 54.5971 264.589 54.5344 264.579 54.4704C264.569 54.3485 264.571 54.2341 264.528 54.1059C264.544 54.2317 264.561 54.3531 264.579 54.4704C264.584 54.5305 264.593 54.5924 264.61 54.6587C264.772 55.5923 264.991 56.2605 264.991 56.8848C264.991 57.6259 266.226 58.12 266.844 58.2743H272.402L277.033 51.79Z" fill="#4583FE" stroke="#4583FE" stroke-width="0.1"/>
<path d="M269.819 45.3057C270.961 46.8937 268.243 50.7332 265.251 51.6576C263.538 52.187 259.541 51.1283 258.97 48.4816" stroke="#4583FE"/>
<path d="M267.091 41.6006C268.017 42.9901 265.812 46.3497 263.385 47.1586C261.996 47.6217 258.753 46.6954 258.29 44.3796" stroke="#4583FE"/>
<path d="M263.855 40.6741C263.128 41.8686 261.899 43.0224 260.606 43.4531C259.985 43.6603 258.992 43.5894 258.044 43.2403" stroke="#4583FE"/>
<path d="M263.603 189.309C262.203 189.309 260.963 189.029 259.883 188.469C258.823 187.889 257.983 187.089 257.363 186.069C256.743 185.049 256.433 183.859 256.433 182.499V173.649H259.193V182.469C259.193 183.389 259.393 184.189 259.793 184.869C260.213 185.529 260.753 186.039 261.413 186.399C262.093 186.759 262.813 186.939 263.573 186.939C264.353 186.939 265.073 186.759 265.733 186.399C266.413 186.039 266.953 185.529 267.353 184.869C267.773 184.189 267.983 183.389 267.983 182.469V173.649H270.743V182.499C270.743 183.859 270.433 185.049 269.813 186.069C269.213 187.089 268.373 187.889 267.293 188.469C266.213 189.029 264.983 189.309 263.603 189.309ZM274.254 188.949L279.504 181.899C278.084 181.439 276.934 180.649 276.054 179.529C275.174 178.389 274.734 177.109 274.734 175.689V173.649H277.524V175.689C277.524 176.429 277.714 177.109 278.094 177.729C278.474 178.349 278.974 178.859 279.594 179.259C280.234 179.639 280.934 179.869 281.694 179.949L286.314 173.649H289.374L284.394 180.399C285.934 180.859 287.164 181.679 288.084 182.859C289.004 184.019 289.464 185.359 289.464 186.879V188.949H286.704V186.879C286.704 186.079 286.504 185.359 286.104 184.719C285.704 184.059 285.164 183.529 284.484 183.129C283.804 182.709 283.024 182.459 282.144 182.379L277.344 188.949H274.254Z" fill="#FFEBF7"/>
<path d="M95.5958 302.792C93.5675 302.792 91.9175 301.129 91.9175 299.086V276.859C91.9175 276.5 92.2088 276.208 92.5683 276.208H110.819C112.838 276.208 114.479 277.872 114.479 279.918V297.252C114.479 297.611 114.188 297.902 113.829 297.902C113.469 297.902 113.178 297.611 113.178 297.252V279.918C113.178 278.567 112.142 277.51 110.819 277.51H93.2191V299.086C93.2191 300.412 94.2853 301.49 95.5958 301.49C95.9553 301.49 96.2466 301.781 96.2466 302.141C96.2466 302.5 95.9553 302.792 95.5958 302.792Z" fill="#20253A"/>
<path d="M113.224 302.784H95.372C95.0125 302.784 94.7212 302.492 94.7212 302.133C94.7212 301.773 95.0125 301.482 95.372 301.482C96.697 301.482 97.7749 300.407 97.7749 299.086V297.252C97.7749 296.892 98.0662 296.601 98.4258 296.601H116.432C116.792 296.601 117.083 296.892 117.083 297.252V298.971C117.083 301.073 115.352 302.784 113.224 302.784ZM98.1917 301.482H113.224C114.634 301.482 115.781 300.355 115.781 298.971V297.902H99.0766V299.086C99.0766 300 98.7432 300.836 98.1917 301.482Z" fill="#20253A"/>
<path d="M110.249 283.801H96.1479C95.7884 283.801 95.4971 283.51 95.4971 283.15C95.4971 282.791 95.7884 282.5 96.1479 282.5H110.249C110.609 282.5 110.9 282.791 110.9 283.15C110.9 283.51 110.609 283.801 110.249 283.801Z" fill="#4583FE"/>
<path d="M110.249 287.381H96.1479C95.7884 287.381 95.4971 287.089 95.4971 286.73C95.4971 286.37 95.7884 286.079 96.1479 286.079H110.249C110.609 286.079 110.9 286.37 110.9 286.73C110.9 287.089 110.609 287.381 110.249 287.381Z" fill="#4583FE"/>
<path d="M110.249 290.852H96.1479C95.7884 290.852 95.4971 290.561 95.4971 290.201C95.4971 289.842 95.7884 289.55 96.1479 289.55H110.249C110.609 289.55 110.9 289.842 110.9 290.201C110.9 290.561 110.609 290.852 110.249 290.852Z" fill="#4583FE"/>
<path d="M110.249 294.323H96.1479C95.7884 294.323 95.4971 294.031 95.4971 293.672C95.4971 293.313 95.7884 293.021 96.1479 293.021H110.249C110.609 293.021 110.9 293.313 110.9 293.672C110.9 294.031 110.609 294.323 110.249 294.323Z" fill="#4583FE"/>
<path d="M109 169.058C107.192 169.058 105.384 168.37 104.007 166.993C101.254 164.24 101.254 159.76 104.007 157.007C105.341 155.673 107.114 154.938 109 154.938C110.887 154.938 112.66 155.673 113.994 157.007C116.747 159.76 116.747 164.24 113.994 166.993C112.617 168.37 110.809 169.058 109 169.058ZM109 156.168C107.443 156.168 105.978 156.774 104.876 157.876C102.602 160.15 102.602 163.85 104.876 166.124C107.15 168.398 110.851 168.398 113.124 166.124C115.398 163.85 115.398 160.15 113.124 157.876C112.023 156.774 110.558 156.168 109 156.168Z" fill="#4583FE"/>
<path d="M115.198 168.801C115.042 168.801 114.885 168.741 114.765 168.622L113.126 166.995C112.885 166.756 112.884 166.367 113.123 166.126C113.362 165.885 113.751 165.883 113.992 166.123L115.631 167.75C115.872 167.989 115.874 168.378 115.634 168.619C115.514 168.74 115.356 168.801 115.198 168.801Z" fill="#4583FE"/>
<path d="M117.316 172.391C117.159 172.391 117.001 172.33 116.881 172.21L114.763 170.086C114.452 169.774 114.28 169.36 114.28 168.919C114.28 168.478 114.452 168.063 114.763 167.751C115.407 167.108 116.455 167.108 117.098 167.751L119.43 170.089C119.669 170.33 119.669 170.719 119.428 170.959C119.188 171.198 118.799 171.198 118.559 170.957L116.229 168.62C116.065 168.456 115.797 168.456 115.633 168.621C115.468 168.785 115.468 169.053 115.633 169.217L117.751 171.342C117.991 171.582 117.991 171.971 117.75 172.211C117.63 172.331 117.473 172.391 117.316 172.391Z" fill="#4583FE"/>
<path d="M106.903 164.712C106.746 164.712 106.589 164.652 106.469 164.532C105.072 163.136 105.072 160.864 106.469 159.468C106.709 159.228 107.098 159.228 107.338 159.468C107.578 159.708 107.578 160.098 107.338 160.338C106.421 161.254 106.421 162.746 107.338 163.663C107.578 163.903 107.578 164.292 107.338 164.532C107.218 164.652 107.06 164.712 106.903 164.712Z" fill="#4583FE"/>
<path d="M109 175.75C101.419 175.75 95.2505 169.582 95.2505 162C95.2505 154.418 101.419 148.25 109 148.25C116.582 148.25 122.75 154.418 122.75 162C122.75 169.582 116.582 175.75 109 175.75ZM109 149.479C102.097 149.479 96.4799 155.096 96.4799 162C96.4799 168.904 102.097 174.521 109 174.521C115.904 174.521 121.521 168.904 121.521 162C121.521 155.096 115.904 149.479 109 149.479Z" fill="#20253A"/>
<path d="M181.5 83.4773C178.26 83.4773 175.215 82.2157 172.924 79.9248L168.388 75.3886C168.273 75.274 168.208 75.1185 168.208 74.9563C168.208 74.7942 168.273 74.6387 168.388 74.5241L172.924 69.9877C175.215 67.6969 178.26 66.4353 181.5 66.4353C184.74 66.4353 187.786 67.6969 190.076 69.9878L194.613 74.5241C194.727 74.6387 194.792 74.7942 194.792 74.9563C194.792 75.1185 194.727 75.274 194.613 75.3886L190.076 79.9248C187.786 82.2157 184.74 83.4773 181.5 83.4773ZM169.684 74.9563L173.788 79.0603C175.848 81.1202 178.587 82.2547 181.5 82.2547C184.413 82.2547 187.152 81.1202 189.212 79.0603L193.316 74.9563L189.212 70.8523C187.152 68.7924 184.413 67.658 181.5 67.658C178.587 67.658 175.848 68.7924 173.788 70.8523L169.684 74.9563Z" fill="#20253A"/>
<path d="M177.155 65.8826C176.999 65.8826 176.842 65.8229 176.723 65.7035L174.341 63.3219C174.102 63.0833 174.102 62.6961 174.341 62.4574C174.58 62.2186 174.967 62.2186 175.206 62.4574L177.587 64.839C177.826 65.0777 177.826 65.4648 177.587 65.7035C177.468 65.8229 177.311 65.8826 177.155 65.8826Z" fill="#4583FE"/>
<path d="M185.846 65.8826C185.689 65.8826 185.533 65.8229 185.413 65.7035C185.175 65.4648 185.175 65.0777 185.413 64.839L187.795 62.4574C188.034 62.2186 188.421 62.2186 188.66 62.4574C188.898 62.6961 188.898 63.0833 188.66 63.3219L186.278 65.7035C186.159 65.8229 186.002 65.8826 185.846 65.8826Z" fill="#4583FE"/>
<path d="M181.48 64.1082C181.142 64.1082 180.869 63.8345 180.869 63.4969V60.1345C180.869 59.7969 181.142 59.5232 181.48 59.5232C181.818 59.5232 182.091 59.7969 182.091 60.1345V63.4969C182.091 63.8345 181.818 64.1082 181.48 64.1082Z" fill="#4583FE"/>
<path d="M181.501 79.1955C179.008 79.1955 176.98 77.1675 176.98 74.6749C176.98 72.1822 179.008 70.1543 181.501 70.1543C183.993 70.1543 186.021 72.1822 186.021 74.6749C186.021 77.1675 183.993 79.1955 181.501 79.1955ZM181.501 71.3769C179.682 71.3769 178.203 72.8564 178.203 74.6749C178.203 76.4934 179.682 77.9728 181.501 77.9728C183.319 77.9728 184.798 76.4934 184.798 74.6749C184.798 72.8564 183.319 71.3769 181.501 71.3769Z" fill="#4583FE"/>
<path d="M375.501 87.7915C368.172 87.7915 362.209 81.829 362.209 74.4999C362.209 67.1708 368.172 61.2083 375.501 61.2083C382.83 61.2083 388.792 67.1708 388.792 74.4999C388.792 81.829 382.83 87.7915 375.501 87.7915ZM375.501 62.3967C368.827 62.3967 363.397 67.8262 363.397 74.4999C363.397 81.1736 368.827 86.6031 375.501 86.6031C382.174 86.6031 387.604 81.1736 387.604 74.4999C387.604 67.8261 382.174 62.3967 375.501 62.3967Z" fill="#20253A"/>
<path d="M375.501 81.9425C375.378 81.9425 375.254 81.9041 375.15 81.8274C374.87 81.6225 368.305 76.762 368.07 72.7833C368.069 72.76 368.069 72.7367 368.07 72.7133C368.205 70.4337 370.034 68.6479 372.235 68.6479C373.524 68.6479 374.721 69.2668 375.501 70.2853C376.282 69.2668 377.479 68.6479 378.767 68.6479C380.968 68.6479 382.798 70.4337 382.932 72.7133C382.933 72.7366 382.933 72.7599 382.932 72.7833C382.698 76.762 376.132 81.6225 375.853 81.8274C375.748 81.9041 375.625 81.9425 375.501 81.9425ZM369.259 72.748C369.449 75.4174 373.538 79.0919 375.501 80.6044C377.464 79.0909 381.553 75.4148 381.743 72.748C381.63 71.1125 380.329 69.8364 378.767 69.8364C377.597 69.8364 376.53 70.5633 376.047 71.6883C375.954 71.9066 375.739 72.0482 375.501 72.0482C375.263 72.0482 375.049 71.9066 374.955 71.6883C374.473 70.5633 373.405 69.8364 372.235 69.8364C370.673 69.8364 369.373 71.1125 369.259 72.748Z" fill="#4583FE"/>
<path d="M437.072 168.756C431.142 168.756 426.318 163.933 426.318 158.003C426.318 152.074 431.142 147.25 437.072 147.25C443.001 147.25 447.825 152.074 447.825 158.003C447.825 158.354 447.541 158.639 447.189 158.639C446.838 158.639 446.554 158.354 446.554 158.003C446.554 152.775 442.3 148.521 437.072 148.521C431.843 148.521 427.59 152.775 427.59 158.003C427.59 163.231 431.843 167.485 437.072 167.485C437.423 167.485 437.708 167.77 437.708 168.121C437.708 168.472 437.423 168.756 437.072 168.756Z" fill="#4583FE"/>
<path d="M437.072 165.281C433.059 165.281 429.794 162.016 429.794 158.003C429.794 153.99 433.059 150.725 437.072 150.725C441.085 150.725 444.35 153.99 444.35 158.003C444.35 158.354 444.065 158.639 443.714 158.639C443.363 158.639 443.078 158.354 443.078 158.003C443.078 154.691 440.384 151.997 437.072 151.997C433.76 151.997 431.065 154.691 431.065 158.003C431.065 161.315 433.76 164.01 437.072 164.01C437.423 164.01 437.708 164.294 437.708 164.645C437.708 164.997 437.423 165.281 437.072 165.281Z" fill="#4583FE"/>
<path d="M435.657 161.181C435.552 161.181 435.446 161.155 435.347 161.1C433.839 160.256 433.147 158.33 433.771 156.714C434.395 155.099 436.158 154.172 437.872 154.557C438.902 154.788 439.794 155.501 440.26 156.463C440.413 156.779 440.281 157.159 439.965 157.312C439.649 157.465 439.269 157.333 439.116 157.017C438.817 156.401 438.248 155.945 437.594 155.798C436.507 155.554 435.349 156.157 434.957 157.172C434.556 158.211 435 159.449 435.968 159.99C436.275 160.161 436.384 160.549 436.213 160.855C436.096 161.063 435.88 161.181 435.657 161.181Z" fill="#4583FE"/>
<path d="M450.496 174.75C450.333 174.75 450.17 174.688 450.046 174.564L445.664 170.182L443.27 172.576C443.119 172.727 442.903 172.792 442.694 172.75C442.485 172.707 442.311 172.563 442.231 172.365L436.62 158.515C436.524 158.278 436.579 158.007 436.759 157.827C436.94 157.646 437.211 157.591 437.448 157.687L451.298 163.299C451.496 163.379 451.64 163.553 451.682 163.761C451.725 163.97 451.66 164.187 451.509 164.337L449.114 166.732L453.496 171.114C453.615 171.233 453.682 171.395 453.682 171.563C453.682 171.732 453.615 171.894 453.496 172.013L450.945 174.564C450.821 174.688 450.658 174.75 450.496 174.75ZM445.664 168.647C445.827 168.647 445.99 168.709 446.114 168.833L450.496 173.215L452.148 171.563L447.766 167.181C447.518 166.933 447.518 166.531 447.766 166.282L449.931 164.117L438.362 159.43L443.049 170.999L445.215 168.833C445.339 168.709 445.502 168.647 445.664 168.647Z" fill="#20253A"/>
<path d="M445.487 290.972C445.077 290.972 444.745 290.639 444.745 290.229V290.071C444.745 287.384 445.913 285.66 447.667 283.899C449.312 282.248 450.217 280.063 450.217 277.747C450.217 275.328 449.2 272.997 447.427 271.351C445.631 269.685 443.287 268.868 440.828 269.052C436.488 269.376 433.035 272.902 432.796 277.253C432.656 279.795 433.609 282.256 435.41 284.004C437.384 285.92 438.19 287.677 438.19 290.072V290.23C438.19 290.639 437.857 290.972 437.447 290.972C437.038 290.972 436.705 290.639 436.705 290.23V290.072C436.705 288.098 436.052 286.695 434.377 285.069C432.267 283.021 431.15 280.143 431.314 277.171C431.594 272.079 435.637 267.951 440.717 267.572C443.593 267.356 446.334 268.313 448.437 270.264C450.511 272.189 451.701 274.917 451.701 277.747C451.701 280.458 450.642 283.015 448.719 284.946C447.182 286.49 446.229 287.885 446.229 290.071V290.229C446.229 290.639 445.897 290.972 445.487 290.972Z" fill="#4583FE"/>
<path d="M441.529 290.23C441.119 290.23 440.787 289.897 440.787 289.488V282.067C440.787 281.657 441.119 281.324 441.529 281.324C441.939 281.324 442.271 281.657 442.271 282.067V289.488C442.271 289.897 441.939 290.23 441.529 290.23Z" fill="#4583FE"/>
<path d="M441.365 282.777C439.531 282.777 438.384 281.159 438.336 281.09C438.102 280.753 438.185 280.291 438.522 280.057C438.858 279.823 439.32 279.906 439.554 280.242C439.56 280.25 440.314 281.293 441.365 281.293C442.411 281.293 443.148 280.255 443.155 280.244C443.389 279.91 443.851 279.825 444.187 280.057C444.523 280.289 444.609 280.747 444.379 281.084C444.332 281.153 443.203 282.777 441.365 282.777Z" fill="#4583FE"/>
<path d="M441.505 301.458C439.138 301.458 437.212 299.811 437.212 297.786C437.212 297.376 437.544 297.044 437.954 297.044C438.364 297.044 438.696 297.376 438.696 297.786C438.696 298.993 439.956 299.974 441.505 299.974C443.053 299.974 444.313 298.993 444.313 297.786C444.313 297.376 444.645 297.044 445.055 297.044C445.465 297.044 445.797 297.376 445.797 297.786C445.797 299.811 443.872 301.458 441.505 301.458Z" fill="#20253A"/>
<path d="M446.068 293.693H436.99C435.946 293.693 435.098 292.844 435.098 291.8V291.751C435.098 290.707 435.946 289.858 436.99 289.858H446.068C447.112 289.858 447.961 290.707 447.961 291.751V291.8C447.961 292.844 447.112 293.693 446.068 293.693ZM436.99 291.343C436.765 291.343 436.582 291.526 436.582 291.751V291.8C436.582 292.025 436.765 292.208 436.99 292.208H446.068C446.293 292.208 446.476 292.025 446.476 291.8V291.751C446.476 291.526 446.293 291.343 446.068 291.343H436.99Z" fill="#20253A"/>
<path d="M446.068 295.919H436.99C435.946 295.919 435.098 295.07 435.098 294.027V293.977C435.098 292.934 435.946 292.085 436.99 292.085H446.068C447.112 292.085 447.961 292.934 447.961 293.977V294.027C447.961 295.07 447.112 295.919 446.068 295.919ZM436.99 293.569C436.765 293.569 436.582 293.752 436.582 293.977V294.026C436.582 294.252 436.765 294.435 436.99 294.435H446.068C446.293 294.435 446.476 294.252 446.476 294.026V293.977C446.476 293.752 446.293 293.569 446.068 293.569H436.99V293.569Z" fill="#20253A"/>
<path d="M446.068 298.269H436.99C435.946 298.269 435.098 297.42 435.098 296.376V296.327C435.098 295.284 435.946 294.435 436.99 294.435H446.068C447.112 294.435 447.961 295.283 447.961 296.327V296.376C447.961 297.42 447.112 298.269 446.068 298.269ZM436.99 295.919C436.765 295.919 436.582 296.102 436.582 296.327V296.376C436.582 296.601 436.765 296.785 436.99 296.785H446.068C446.293 296.785 446.476 296.601 446.476 296.376V296.327C446.476 296.102 446.293 295.919 446.068 295.919H436.99Z" fill="#20253A"/>
</svg>
