<svg width="800" height="478" viewBox="0 0 800 478" fill="none" xmlns="http://www.w3.org/2000/svg">
<g clip-path="url(#clip0)">
<path d="M810.278 -2.22192H-7.47598V492.999H810.278V-2.22192Z" fill="#FFEBF7"/>
<g filter="url(#filter0_d)">
<path d="M-90.5408 266.208C-90.5408 266.208 -15.7191 38.1482 52.5504 33.2869C118.495 28.4256 245.1 219.708 273.845 246.762C302.59 273.817 529.591 345.891 529.591 345.891C529.591 345.891 728.27 -1.79914 755.536 -7.71727C782.802 -13.6354 837.544 1.37129 837.544 1.37129L875.8 488.771L-71.0956 430.224L-90.5408 266.208Z" fill="#20253A"/>
</g>
<path d="M-131.756 322.43C-131.756 322.43 -4.93977 81.6889 75.8 71.7549C117.438 66.6822 192.682 158.413 220.159 157.779C257.993 156.934 287.795 102.825 315.272 102.614C341.058 102.614 410.807 242.747 468.297 236.406C517.755 230.91 609.486 101.346 645.206 107.898C681.137 114.45 770.12 284.596 784.915 295.164C799.71 305.732 845.998 495.535 845.998 495.535L-15.5078 488.56L-131.756 322.43Z" fill="white"/>
<path d="M832.894 477.147L814.294 136.22C814.294 136.22 741.163 61.6094 662.96 154.397C584.757 247.185 423.277 428.533 382.062 435.297C340.846 442.061 267.293 329.827 219.525 284.596C171.758 239.365 21.6919 159.893 -10.0122 154.397C-41.7163 148.902 -24.8075 516.883 -24.8075 516.883L832.683 507.583L832.894 477.147Z" fill="#4583FE"/>
<path d="M480.133 103.459C467.24 101.98 454.347 99.4433 441.665 101.346C428.984 103.248 406.791 110.857 411.863 122.693C415.245 130.936 428.35 130.513 437.015 130.091C445.893 129.668 453.924 124.807 462.59 122.693C485.628 116.775 510.358 129.457 533.184 122.904C537.412 121.636 545.232 118.466 542.696 114.873C530.648 96.0615 501.903 105.784 480.133 103.459Z" fill="white"/>
<path d="M120.82 76.8275C115.536 75.7707 109.618 73.023 108.349 67.7389C107.081 62.6662 111.097 57.5935 115.747 54.8458C129.274 47.2368 145.76 53.789 161.19 55.0572C167.742 55.4799 174.294 55.0572 181.057 54.4231C197.966 52.9436 217.623 40.896 231.995 50.1959C237.702 54.0004 230.093 63.9344 224.175 67.5275C218.257 71.1207 211.282 71.5434 204.307 71.7548C194.162 71.9661 184.017 71.7548 173.871 70.9093C169.644 70.4866 165.628 70.0639 161.401 70.9093C146.606 74.0798 136.46 79.9979 120.82 76.8275Z" fill="white"/>
<path d="M279.988 416.015C282.246 416.015 284.09 417.858 284.09 420.116V427.857C284.09 430.115 282.246 431.959 279.988 431.959C277.73 431.959 275.887 430.115 275.887 427.857V420.116C275.887 417.858 277.73 416.015 279.988 416.015Z" fill="white"/>
<path d="M279.988 438.548C280.081 438.548 280.173 438.456 280.173 438.364V420.623C280.173 420.531 280.081 420.438 279.988 420.438C279.896 420.438 279.804 420.531 279.804 420.623V438.364C279.804 438.502 279.896 438.548 279.988 438.548Z" fill="#20253A"/>
<path d="M279.988 428.549C281.509 428.549 282.707 427.304 282.707 425.83C282.707 425.738 282.615 425.646 282.523 425.646C282.431 425.646 282.385 425.738 282.338 425.83C282.338 427.12 281.279 428.18 279.988 428.18C279.896 428.18 279.804 428.272 279.804 428.364C279.804 428.456 279.896 428.549 279.988 428.549Z" fill="#20253A"/>
<path d="M279.988 424.493C280.081 424.493 280.173 424.401 280.173 424.309C280.173 424.217 280.081 424.125 279.988 424.125C278.698 424.125 277.638 423.065 277.638 421.775C277.638 421.682 277.546 421.59 277.454 421.59C277.362 421.59 277.27 421.682 277.27 421.775C277.27 423.249 278.468 424.493 279.988 424.493Z" fill="#20253A"/>
<path d="M514.832 373.066C518.338 373.066 521.201 375.929 521.201 379.436V391.459C521.201 394.966 518.338 397.829 514.832 397.829C511.325 397.829 508.462 394.966 508.462 391.459V379.436C508.462 375.929 511.325 373.066 514.832 373.066Z" fill="white"/>
<path d="M514.832 408.062C514.975 408.062 515.118 407.919 515.118 407.776V380.223C515.118 380.08 514.975 379.937 514.832 379.937C514.689 379.937 514.545 380.08 514.545 380.223V407.776C514.545 407.991 514.689 408.062 514.832 408.062Z" fill="#20253A"/>
<path d="M514.832 392.533C517.193 392.533 519.054 390.6 519.054 388.31C519.054 388.167 518.911 388.024 518.768 388.024C518.625 388.024 518.553 388.167 518.482 388.31C518.482 390.314 516.835 391.96 514.832 391.96C514.688 391.96 514.545 392.103 514.545 392.246C514.545 392.39 514.688 392.533 514.832 392.533Z" fill="#20253A"/>
<path d="M514.832 386.235C514.975 386.235 515.118 386.092 515.118 385.949C515.118 385.805 514.975 385.662 514.832 385.662C512.828 385.662 511.182 384.016 511.182 382.012C511.182 381.869 511.039 381.726 510.895 381.726C510.752 381.726 510.609 381.869 510.609 382.012C510.609 384.302 512.47 386.235 514.832 386.235Z" fill="#20253A"/>
<path d="M427.395 367.776C425.137 367.776 423.294 369.62 423.294 371.878V379.619C423.294 381.877 425.137 383.72 427.395 383.72C429.653 383.72 431.496 381.877 431.496 379.619V371.878C431.496 369.62 429.653 367.776 427.395 367.776Z" fill="#FFEBF7"/>
<path d="M427.395 390.31C427.303 390.31 427.211 390.218 427.211 390.126V372.385C427.211 372.292 427.303 372.2 427.395 372.2C427.487 372.2 427.579 372.292 427.579 372.385V390.126C427.579 390.264 427.487 390.31 427.395 390.31Z" fill="#20253A"/>
<path d="M427.395 380.31C425.874 380.31 424.676 379.066 424.676 377.592C424.676 377.499 424.768 377.407 424.861 377.407C424.953 377.407 424.999 377.499 425.045 377.592C425.045 378.882 426.105 379.942 427.395 379.942C427.487 379.942 427.579 380.034 427.579 380.126C427.579 380.218 427.487 380.31 427.395 380.31Z" fill="#20253A"/>
<path d="M427.395 376.255C427.303 376.255 427.211 376.163 427.211 376.071C427.211 375.979 427.303 375.886 427.395 375.886C428.685 375.886 429.745 374.827 429.745 373.536C429.745 373.444 429.837 373.352 429.929 373.352C430.022 373.352 430.114 373.444 430.114 373.536C430.114 375.011 428.916 376.255 427.395 376.255Z" fill="#20253A"/>
<path d="M375.712 380.515C373.454 380.515 371.611 382.358 371.611 384.616V392.358C371.611 394.616 373.454 396.459 375.712 396.459C377.97 396.459 379.813 394.616 379.813 392.358V384.616C379.813 382.358 377.97 380.515 375.712 380.515Z" fill="#FFEBF7"/>
<path d="M375.712 403.049C375.62 403.049 375.527 402.957 375.527 402.864V385.123C375.527 385.031 375.62 384.939 375.712 384.939C375.804 384.939 375.896 385.031 375.896 385.123V402.864C375.896 403.003 375.804 403.049 375.712 403.049Z" fill="#20253A"/>
<path d="M375.712 393.049C374.191 393.049 372.993 391.805 372.993 390.33C372.993 390.238 373.085 390.146 373.177 390.146C373.269 390.146 373.316 390.238 373.362 390.33C373.362 391.621 374.421 392.68 375.712 392.68C375.804 392.68 375.896 392.773 375.896 392.865C375.896 392.957 375.804 393.049 375.712 393.049Z" fill="#20253A"/>
<path d="M375.712 388.994C375.619 388.994 375.527 388.902 375.527 388.81C375.527 388.717 375.619 388.625 375.712 388.625C377.002 388.625 378.062 387.565 378.062 386.275C378.062 386.183 378.154 386.091 378.246 386.091C378.338 386.091 378.43 386.183 378.43 386.275C378.43 387.75 377.232 388.994 375.712 388.994Z" fill="#20253A"/>
<path d="M365.521 359.041C367.779 359.041 369.622 360.884 369.622 363.142V370.884C369.622 373.142 367.779 374.985 365.521 374.985C363.263 374.985 361.419 373.142 361.419 370.884V363.142C361.419 360.884 363.263 359.041 365.521 359.041Z" fill="#FFEBF7"/>
<path d="M365.521 381.575C365.613 381.575 365.705 381.482 365.705 381.39V363.649C365.705 363.557 365.613 363.465 365.521 363.465C365.428 363.465 365.336 363.557 365.336 363.649V381.39C365.336 381.528 365.428 381.575 365.521 381.575Z" fill="#20253A"/>
<path d="M365.521 371.575C367.041 371.575 368.239 370.331 368.239 368.856C368.239 368.764 368.147 368.672 368.055 368.672C367.963 368.672 367.917 368.764 367.871 368.856C367.871 370.146 366.811 371.206 365.521 371.206C365.428 371.206 365.336 371.298 365.336 371.391C365.336 371.483 365.428 371.575 365.521 371.575Z" fill="#20253A"/>
<path d="M365.521 367.52C365.613 367.52 365.705 367.428 365.705 367.335C365.705 367.243 365.613 367.151 365.521 367.151C364.23 367.151 363.17 366.091 363.17 364.801C363.17 364.709 363.078 364.617 362.986 364.617C362.894 364.617 362.802 364.709 362.802 364.801C362.802 366.276 364 367.52 365.521 367.52Z" fill="#20253A"/>
<path d="M358.604 380.879C360.059 380.879 361.247 382.067 361.247 383.523V388.514C361.247 389.969 360.059 391.157 358.604 391.157C357.148 391.157 355.96 389.969 355.96 388.514V383.523C355.96 382.067 357.148 380.879 358.604 380.879Z" fill="#FFEBF7"/>
<path d="M358.604 395.405C358.663 395.405 358.723 395.346 358.723 395.286V383.85C358.723 383.79 358.663 383.731 358.604 383.731C358.544 383.731 358.485 383.79 358.485 383.85V395.286C358.485 395.376 358.544 395.405 358.604 395.405Z" fill="#20253A"/>
<path d="M358.604 388.959C359.584 388.959 360.356 388.157 360.356 387.207C360.356 387.147 360.297 387.088 360.238 387.088C360.178 387.088 360.149 387.147 360.119 387.207C360.119 388.038 359.436 388.722 358.604 388.722C358.544 388.722 358.485 388.781 358.485 388.841C358.485 388.9 358.544 388.959 358.604 388.959Z" fill="#20253A"/>
<path d="M358.604 386.345C358.663 386.345 358.723 386.286 358.723 386.226C358.723 386.167 358.663 386.107 358.604 386.107C357.772 386.107 357.089 385.424 357.089 384.592C357.089 384.533 357.029 384.474 356.97 384.474C356.911 384.474 356.851 384.533 356.851 384.592C356.851 385.543 357.623 386.345 358.604 386.345Z" fill="#20253A"/>
<path d="M413.199 385.611C414.654 385.611 415.843 386.799 415.843 388.254V393.245C415.843 394.701 414.654 395.889 413.199 395.889C411.743 395.889 410.555 394.701 410.555 393.245V388.254C410.555 386.799 411.743 385.611 413.199 385.611Z" fill="#FFEBF7"/>
<path d="M413.199 400.137C413.258 400.137 413.318 400.077 413.318 400.018V388.581C413.318 388.522 413.258 388.462 413.199 388.462C413.139 388.462 413.08 388.522 413.08 388.581V400.018C413.08 400.107 413.139 400.137 413.199 400.137Z" fill="#20253A"/>
<path d="M413.199 393.691C414.179 393.691 414.952 392.889 414.952 391.938C414.952 391.879 414.892 391.819 414.833 391.819C414.773 391.819 414.744 391.879 414.714 391.938C414.714 392.77 414.031 393.453 413.199 393.453C413.139 393.453 413.08 393.513 413.08 393.572C413.08 393.631 413.139 393.691 413.199 393.691Z" fill="#20253A"/>
<path d="M413.199 391.077C413.258 391.077 413.318 391.017 413.318 390.958C413.318 390.898 413.258 390.839 413.199 390.839C412.367 390.839 411.684 390.156 411.684 389.324C411.684 389.264 411.624 389.205 411.565 389.205C411.506 389.205 411.446 389.264 411.446 389.324C411.446 390.275 412.219 391.077 413.199 391.077Z" fill="#20253A"/>
<path d="M329.17 371.376H341.64C342.905 371.376 344.17 372.46 344.17 373.906V383.124C344.17 384.389 343.086 385.654 341.64 385.654H329.17C327.904 385.654 326.639 384.57 326.639 383.124V373.906C326.82 372.46 327.904 371.376 329.17 371.376Z" fill="#20253A"/>
<path d="M341.459 365.593C342.002 365.593 342.725 366.135 342.725 366.858V371.195C342.725 371.738 342.182 372.461 341.459 372.461C340.917 372.461 340.194 371.918 340.194 371.195V366.858C340.194 366.135 340.737 365.593 341.459 365.593Z" fill="#20253A"/>
<path d="M338.568 376.437H341.098C341.279 376.437 341.64 376.618 341.64 376.979V379.509C341.64 379.69 341.46 380.051 341.098 380.051H338.568C338.387 380.051 338.026 379.871 338.026 379.509V376.979C338.206 376.618 338.387 376.437 338.568 376.437Z" fill="white"/>
<path d="M330.435 376.437H333.688C334.049 376.437 334.23 376.618 334.23 376.979V385.112C334.23 385.474 334.049 385.654 333.688 385.654H330.435C330.073 385.654 329.893 385.474 329.893 385.112V376.979C329.893 376.618 330.073 376.437 330.435 376.437Z" fill="white"/>
<path d="M345.436 375.172H324.832C324.109 375.172 323.567 374.629 323.567 373.906C323.567 373.726 323.748 373.545 323.748 373.364L325.916 369.388C326.097 369.026 326.459 368.846 326.82 368.846H343.628C344.171 368.846 344.532 369.207 344.713 369.749L346.159 373.726C346.339 374.268 345.978 374.991 345.436 375.352C345.616 375.172 345.436 375.172 345.436 375.172Z" fill="#20253A"/>
<path d="M343.447 383.485C343.267 384.027 343.086 384.389 342.905 384.75C342.725 384.931 342.725 384.931 342.725 384.931C342.544 384.931 342.544 384.931 342.544 384.931C342.002 384.75 341.64 384.208 341.64 383.666C341.459 384.027 341.098 384.569 340.736 384.75C340.375 385.112 339.833 385.112 339.471 384.931C339.291 384.75 339.11 384.75 338.929 384.75C338.748 384.75 338.568 384.931 338.387 385.112C337.845 385.292 337.483 385.292 337.122 384.931C336.76 384.569 336.58 384.027 336.58 383.666L336.037 384.931C336.037 385.112 335.857 385.112 335.857 385.112C335.676 385.292 335.676 385.292 335.495 385.292C334.591 385.473 333.688 385.473 332.784 385.473C332.242 385.292 331.7 385.292 331.158 385.473C330.977 385.654 330.615 385.654 330.435 385.654C329.892 385.654 329.531 385.292 329.531 384.75C329.531 384.569 329.531 384.569 329.531 384.389C329.35 384.931 328.989 385.292 328.627 385.473C328.447 385.112 328.266 384.75 328.085 384.389C327.724 384.931 327.362 385.292 327.001 385.835C328.266 386.558 329.712 386.558 331.158 386.558C334.411 386.558 337.664 386.738 340.917 386.738C342.002 386.919 343.086 386.919 344.17 386.738C344.351 386.738 344.713 386.558 344.893 386.377C345.074 386.015 344.893 385.473 345.074 385.112C344.713 384.931 344.532 384.931 344.17 384.75C343.447 384.208 343.267 383.847 343.447 383.485Z" fill="white"/>
</g>
<defs>
<filter id="filter0_d" x="-94.5408" y="-9.09912" width="974.341" height="505.871" filterUnits="userSpaceOnUse" color-interpolation-filters="sRGB">
<feFlood flood-opacity="0" result="BackgroundImageFix"/>
<feColorMatrix in="SourceAlpha" type="matrix" values="0 0 0 0 0 0 0 0 0 0 0 0 0 0 0 0 0 0 127 0"/>
<feOffset dy="4"/>
<feGaussianBlur stdDeviation="2"/>
<feColorMatrix type="matrix" values="0 0 0 0 0 0 0 0 0 0 0 0 0 0 0 0 0 0 0.25 0"/>
<feBlend mode="normal" in2="BackgroundImageFix" result="effect1_dropShadow"/>
<feBlend mode="normal" in="SourceGraphic" in2="effect1_dropShadow" result="shape"/>
</filter>
<clipPath id="clip0">
<rect width="800" height="477.889" fill="white"/>
</clipPath>
</defs>
</svg>
