<svg width="48" height="48" viewBox="0 0 48 48" fill="none" xmlns="http://www.w3.org/2000/svg">
<rect width="48" height="48" rx="12" fill="#F3F3F3"/>
<path d="M31.2305 31.3738C31.0639 31.3738 30.9668 31.3667 30.9479 31.3654C29.2998 31.3654 28.0183 30.8846 27.1402 29.9367C26.5115 29.2155 26.0983 28.3325 25.9479 27.3876C25.8616 26.9306 25.828 26.4653 25.8477 26.0006C25.8886 25.0278 26.1132 24.0716 26.5096 23.1822C26.8499 22.4112 27.3811 21.7396 28.053 21.2309C28.9272 20.6175 29.974 20.2981 31.0415 20.319H31.1211C31.7087 20.2852 32.2971 20.3731 32.8491 20.5773C33.4011 20.7815 33.9052 21.0975 34.3293 21.5056C34.9916 22.2438 35.4148 23.1655 35.5432 24.1491C35.6557 24.869 35.6935 25.5986 35.6561 26.3263C35.6491 26.4256 35.6491 26.5253 35.6561 26.6247C35.6223 26.6339 29.4396 26.6339 28.7347 26.6339C28.7347 27.6513 29.0625 28.3804 29.7077 28.8002C30.083 29.0353 30.5168 29.161 30.9598 29.1623C30.9949 29.1623 31.0204 29.1623 31.0332 29.1623H31.0428C33.2345 29.1623 33.3501 27.599 33.3506 27.5832H35.6587C35.657 31.1004 32.269 31.3738 31.2305 31.3738ZM30.9198 22.7753C30.4768 22.7588 30.0377 22.8647 29.651 23.0814C29.2642 23.2981 28.9447 23.6172 28.7276 24.0036C28.5083 24.383 28.3633 24.8006 28.3 25.2342H33.2134C33.2121 24.5558 32.9704 23.8999 32.5309 23.3831C32.3187 23.1766 32.066 23.016 31.7886 22.9114C31.5113 22.8068 31.2156 22.7605 30.9198 22.7753ZM20.0056 31.3738H12.3296V16.6339H19.9546C20.9981 16.5835 22.0241 16.915 22.8407 17.5665C23.2341 17.9375 23.541 18.3907 23.7393 18.8938C23.9377 19.3969 24.0229 19.9375 23.9887 20.4772C23.9887 21.8396 23.4116 22.5516 22.9273 22.9093C22.6137 23.1407 22.2504 23.296 21.8664 23.3628C22.2067 23.3483 22.5462 23.4057 22.8627 23.5316C23.1792 23.6573 23.4656 23.8486 23.703 24.0928C24.7081 25.1546 24.6119 27.004 24.6105 27.0224C24.6105 28.7944 23.8999 30.0593 22.4979 30.7809C21.721 31.1597 20.8699 31.3623 20.0056 31.3738ZM16.0147 25.2324V28.9171H20.4249C21.5737 28.8977 22.156 28.3128 22.156 27.1789C22.1685 26.6953 21.9966 26.2251 21.675 25.8637C21.3536 25.5023 20.9066 25.2768 20.4249 25.2329L16.0147 25.2324ZM16.0147 19.0902V22.7753H19.5899C20.293 22.7753 20.9281 22.6333 20.9281 20.9206C20.9281 19.1627 19.8988 19.0906 19.8883 19.0897L16.0147 19.0902ZM34.4392 19.0902H28.2978V17.8623H34.4392V19.0902Z" fill="#474747"/>
</svg>
