<svg width="41" height="40" viewBox="0 0 41 40" fill="none" xmlns="http://www.w3.org/2000/svg">
<path d="M40.193 20C40.193 30.9076 31.3506 39.75 20.443 39.75C9.53536 39.75 0.692993 30.9076 0.692993 20C0.692993 9.09237 9.53536 0.25 20.443 0.25C31.3506 0.25 40.193 9.09237 40.193 20Z" fill="#3C4A5B" stroke="#334155" stroke-width="0.5"/>
<path d="M26.4849 25.3685C26.3458 25.3685 26.2647 25.3626 26.2489 25.3615C24.8728 25.3615 23.8027 24.96 23.0695 24.1685C22.5445 23.5665 22.1995 22.8289 22.0739 22.0401C22.0019 21.6585 21.9738 21.2699 21.9903 20.882C22.0245 20.0697 22.2119 19.2712 22.5429 18.5286C22.8271 17.8848 23.2706 17.324 23.8317 16.8993C24.5616 16.3871 25.4356 16.1204 26.3271 16.1378H26.3935C26.8841 16.1096 27.3754 16.183 27.8364 16.3535C28.2973 16.524 28.7181 16.7879 29.0723 17.1286C29.6255 17.745 29.9789 18.5146 30.0859 19.3359C30.1797 19.9371 30.2113 20.5463 30.1802 21.1539C30.1743 21.2368 30.1743 21.3201 30.1802 21.403C30.1519 21.4108 24.9895 21.4108 24.4009 21.4108C24.4009 22.2603 24.6746 22.8691 25.2133 23.2195C25.5268 23.4159 25.8889 23.5207 26.2588 23.5219C26.2882 23.5219 26.3094 23.5219 26.3201 23.5219H26.3282C28.1582 23.5219 28.2547 22.2166 28.2551 22.2034H30.1824C30.1809 25.1402 27.352 25.3685 26.4849 25.3685ZM26.2254 18.1888C25.8555 18.175 25.489 18.2635 25.1661 18.4444C24.8432 18.6254 24.5764 18.8918 24.395 19.2145C24.2119 19.5312 24.0907 19.8799 24.0379 20.242H28.1406C28.1395 19.6755 27.9376 19.1279 27.5707 18.6963C27.3934 18.5239 27.1823 18.3898 26.9509 18.3025C26.7195 18.2151 26.4725 18.1765 26.2254 18.1888ZM17.1122 25.3685H10.7028V13.0608H17.0696C17.9409 13.0188 18.7976 13.2956 19.4795 13.8395C19.8079 14.1493 20.0642 14.5278 20.2298 14.9478C20.3955 15.3679 20.4665 15.8193 20.438 16.2699C20.438 17.4075 19.9562 18.002 19.5518 18.3007C19.2899 18.494 18.9866 18.6236 18.6659 18.6794C18.9501 18.6672 19.2335 18.7152 19.4978 18.8203C19.7621 18.9253 20.0012 19.085 20.1995 19.289C21.0387 20.1755 20.9584 21.7197 20.9572 21.7352C20.9572 23.2148 20.3639 24.2709 19.1932 24.8734C18.5445 25.1897 17.8339 25.3588 17.1122 25.3685ZM13.7798 20.2405V23.3171H17.4623C18.4215 23.301 18.9077 22.8126 18.9077 21.8658C18.9182 21.462 18.7746 21.0694 18.5061 20.7676C18.2377 20.4659 17.8645 20.2775 17.4623 20.2409L13.7798 20.2405ZM13.7798 15.1118V18.1888H16.765C17.3522 18.1888 17.8824 18.0703 17.8824 16.6402C17.8824 15.1723 17.023 15.1122 17.0142 15.1114L13.7798 15.1118ZM29.1641 15.1118H24.0361V14.0865H29.1641V15.1118Z" fill="#FAFAFA"/>
</svg>
