<svg width="41" height="40" viewBox="0 0 41 40" fill="none" xmlns="http://www.w3.org/2000/svg">
<path d="M40.193 20C40.193 30.9076 31.3506 39.75 20.443 39.75C9.53536 39.75 0.692993 30.9076 0.692993 20C0.692993 9.09237 9.53536 0.25 20.443 0.25C31.3506 0.25 40.193 9.09237 40.193 20Z" fill="#3C4A5B" stroke="#334155" stroke-width="0.5"/>
<path d="M12.5166 16.7116V11.9492H13.5749V16.7116C13.5749 17.5883 14.2856 18.2991 15.1623 18.2991C16.0391 18.2991 16.7498 17.5883 16.7498 16.7116V13.5367C16.7498 13.2444 16.5129 13.0075 16.2207 13.0075C15.9284 13.0075 15.6915 13.2444 15.6915 13.5367V17.2408H14.6332V13.5367C14.6332 12.6599 15.344 11.9492 16.2207 11.9492C17.0974 11.9492 17.8081 12.6599 17.8081 13.5367V16.7116C17.8081 18.1728 16.6236 19.3574 15.1623 19.3574C13.7011 19.3574 12.5166 18.1728 12.5166 16.7116Z" fill="#FAFAFA"/>
<path fill-rule="evenodd" clip-rule="evenodd" d="M25.7454 11.9492H18.8664V16.7116C18.8664 18.7573 17.208 20.4157 15.1623 20.4157H13.5748V26.2364C13.5748 27.1131 14.2856 27.8239 15.1623 27.8239H25.7454C26.6221 27.8239 27.3329 27.1131 27.3329 26.2364V13.5367C27.3329 12.6599 26.6221 11.9492 25.7454 11.9492ZM24.1579 16.1825H19.9247V17.2408H24.1579V16.1825ZM24.1579 19.3574H19.9247V20.4157H24.1579V19.3574ZM16.7498 22.5323H24.1579V23.5906H16.7498V22.5323Z" fill="#FAFAFA"/>
</svg>
