<svg width="41" height="40" viewBox="0 0 41 40" fill="none" xmlns="http://www.w3.org/2000/svg">
<path d="M40.193 20C40.193 30.9076 31.3506 39.75 20.443 39.75C9.53536 39.75 0.692993 30.9076 0.692993 20C0.692993 9.09237 9.53536 0.25 20.443 0.25C31.3506 0.25 40.193 9.09237 40.193 20Z" fill="#3C4A5B" stroke="#334155" stroke-width="0.5"/>
<path d="M25.1002 25.5449V20.8823C25.1002 19.7681 25.0837 18.3373 23.5553 18.3373C22.0056 18.3373 21.7733 19.5516 21.7733 20.7993V25.5449H18.8009V15.9535H21.6463V17.2676H21.6852C21.9708 16.7789 22.3837 16.3769 22.8798 16.1045C23.376 15.8321 23.9368 15.6995 24.5024 15.7209C27.5141 15.7209 28.073 17.7054 28.073 20.2892V25.5449H25.1002ZM16.9235 25.5449H13.9463V15.9535H16.9242V25.5442L16.9235 25.5449ZM13.7136 12.9158C13.7141 12.5743 13.8159 12.2407 14.0059 11.9571C14.196 11.6734 14.4659 11.4524 14.7815 11.3221C15.0971 11.1918 15.4442 11.158 15.7791 11.2249C16.1139 11.2918 16.4214 11.4565 16.6626 11.6981C16.9039 11.9397 17.0681 12.2475 17.1345 12.5824C17.2009 12.9173 17.1666 13.2644 17.0358 13.5798C16.905 13.8952 16.6837 14.1648 16.3997 14.3544C16.1158 14.5441 15.782 14.6453 15.4406 14.6453C14.9824 14.6444 14.5433 14.4618 14.2195 14.1376C13.8957 13.8134 13.7138 13.3739 13.7136 12.9158Z" fill="#FAFAFA"/>
</svg>
