<svg width="48" height="48" viewBox="0 0 48 48" fill="none" xmlns="http://www.w3.org/2000/svg">
<rect width="48" height="48" rx="12" fill="#F3F3F3"/>
<path d="M17.1421 30.7541C16.5203 30.7533 15.9132 30.5656 15.3991 30.2162L16.0056 29.557L21.6538 23.4328L23.7836 24.8831L23.8842 24.9182H23.918C23.9357 24.9207 23.9534 24.922 23.9712 24.9222C23.9887 24.922 24.0062 24.9207 24.0235 24.9182C24.0583 24.9234 24.0938 24.9234 24.1286 24.9182H24.1624L24.2336 24.8831L26.3805 23.4249L31.9988 29.5403L32.5922 30.1854C32.0511 30.5537 31.4121 30.7506 30.7577 30.7515H17.2682C17.2216 30.7533 17.1803 30.7541 17.1421 30.7541ZM14.7979 29.5917C14.3817 28.9755 14.1642 28.2464 14.1747 27.5028L14.1791 20.4812C14.1729 19.8426 14.3295 19.213 14.6339 18.6516L15.3446 19.1377L20.9045 22.934L15.3956 28.9439L14.7987 29.5917H14.7979ZM33.2193 29.5873L32.6181 28.9281L27.1127 22.9159L32.6677 19.1364L33.3837 18.6529C33.6917 19.2155 33.8434 19.8503 33.8231 20.4913V27.5028C33.8517 28.2451 33.6394 28.9764 33.218 29.5882L33.2193 29.5873ZM23.9646 23.9549L21.8599 22.516C21.8169 22.4732 21.7652 22.4401 21.7083 22.4189L15.9256 18.4881L15.164 17.9709C15.7065 17.5033 16.3982 17.2449 17.1144 17.2422C17.1737 17.2422 17.2238 17.2422 17.2682 17.2461H30.7107H30.7929C31.5299 17.2494 32.2436 17.5056 32.8145 17.9717L32.049 18.4925L23.9651 23.9544L23.9646 23.9549Z" fill="#474747"/>
</svg>
