<svg width="41" height="40" viewBox="0 0 41 40" fill="none" xmlns="http://www.w3.org/2000/svg">
<path d="M40.193 20C40.193 30.9076 31.3506 39.75 20.443 39.75C9.53536 39.75 0.692993 30.9076 0.692993 20C0.692993 9.09237 9.53536 0.25 20.443 0.25C31.3506 0.25 40.193 9.09237 40.193 20Z" fill="#3C4A5B" stroke="#334155" stroke-width="0.5"/>
<path d="M13.4634 26.7517C12.8306 26.7508 12.2127 26.5598 11.6895 26.2042L12.3067 25.5333L18.0552 19.3004L20.2227 20.7764L20.3251 20.8122H20.3596C20.3775 20.8147 20.3956 20.8161 20.4137 20.8162C20.4315 20.8161 20.4493 20.8147 20.4669 20.8122C20.5024 20.8175 20.5384 20.8175 20.5738 20.8122H20.6083L20.6807 20.7764L22.8657 19.2923L28.5837 25.5163L29.1876 26.1729C28.637 26.5477 27.9866 26.7481 27.3206 26.749H13.5918C13.5444 26.7508 13.5023 26.7517 13.4634 26.7517ZM11.0776 25.5686C10.654 24.9415 10.4327 24.1995 10.4434 23.4427L10.4478 16.2965C10.4416 15.6466 10.6009 15.0057 10.9108 14.4344L11.634 14.9291L17.2926 18.7927L11.6859 24.9093L11.0785 25.5686H11.0776ZM29.8258 25.5641L29.214 24.8932L23.6109 18.7744L29.2645 14.9278L29.9931 14.4358C30.3067 15.0083 30.461 15.6543 30.4404 16.3068V23.4427C30.4695 24.1981 30.2534 24.9424 29.8245 25.565L29.8258 25.5641ZM20.407 19.8318L18.265 18.3674C18.2212 18.3238 18.1685 18.2901 18.1107 18.2685L12.2253 14.268L11.4502 13.7416C12.0024 13.2658 12.7063 13.0028 13.4352 13C13.4956 13 13.5466 13 13.5918 13.004H27.2728H27.3564C28.1065 13.0074 28.8329 13.2681 29.4139 13.7425L28.6347 14.2725L20.4074 19.8313L20.407 19.8318Z" fill="#FAFAFA"/>
</svg>
